<svg width="68" height="76" viewBox="0 0 68 76" fill="none" xmlns="http://www.w3.org/2000/svg">
<path d="M52.2869 22.0364C56.5448 21.1102 62.0909 16.9706 62.9349 14.9318C63.4298 13.7384 60.9614 11.8737 60.3015 11.1216C58.7912 9.40605 59.4004 8.56071 59.9842 6.51574C60.6505 4.19106 59.0704 1.62397 56.8304 0.617021C54.5904 -0.389926 51.9125 -0.0729238 49.6598 0.90916C47.4071 1.89124 45.4844 3.47004 43.5998 5.02397C42.2228 4.17241 40.0272 0.411902 36.4736 2.85468C34.0179 4.53914 33.7958 8.20641 34.1131 11.134C34.8555 17.8905 36.5561 21.3962 39.7607 22.341C43.8092 23.5344 48.2892 22.9066 52.2869 22.0364Z" fill="#F9A826"/>
<path d="M59.2941 3C58.7683 12.0347 49.9278 18.0291 45.7334 20.6686L48.4554 22.9997C48.4554 22.9997 50.1814 23.0367 52.5447 22.2843C56.5968 21.0016 62.5173 17.3754 62.9256 15.2354C63.5257 12.121 60.3211 12.7994 59.5973 10.3388C59.2199 9.03753 61.4346 6.57688 59.2941 3ZM44.0878 5.41131C44.0878 5.41131 42.5102 3.80171 41.341 3.06784C40.7594 4.1594 40.3449 5.34347 40.1408 6.56455C39.7758 8.71068 40.1408 11.7572 41.0007 14.0267C41.1368 14.3782 41.6441 14.3227 41.6998 13.9527C42.4422 9.07453 44.0878 5.41131 44.0878 5.41131Z" fill="#E2A610"/>
<path d="M32.7071 21.6581C32.7071 21.6581 12.9374 23.7916 4.01911 40.9355C-4.89914 58.0793 2.68168 68.4746 10.7062 72.2604C18.7307 76.0462 38.9505 77.3821 52.1029 74.2673C65.2552 71.1525 68.5449 64.6951 67.9301 58.4592C67.0363 49.3555 58.5681 43.759 58.5681 43.759C58.5681 43.759 58.9041 32.5154 50.1696 25.216C42.4177 18.7332 32.7071 21.6581 32.7071 21.6581Z" fill="#F9A826"/>
<path d="M40.5686 50.6437C36.3865 45.2577 31.4479 44.5366 29.8663 42.603C29.0037 41.5501 28.4973 40.4844 28.6911 39.1634C28.8974 37.7595 30.4915 36.7895 31.7292 36.5534C33.1733 36.2726 36.6178 36.4194 39.5122 39.2336C40.1998 39.8973 39.9497 40.9311 39.931 41.8564C39.881 43.841 42.6628 45.7682 44.9133 44.1091C47.17 42.4435 45.4384 38.7359 43.9819 36.9363C42.8816 35.577 38.8933 32.5841 33.936 32.1119C32.5419 31.9779 26.9345 31.1291 23.6963 37.4149C22.7648 39.2208 22.421 43.5858 27.297 47.2743C28.316 48.0464 33.6046 50.7905 35.0737 52.5709C37.618 55.6532 35.8739 58.3653 33.886 58.7227C28.466 59.6926 25.3966 56.6997 24.8278 55.0597C24.4214 53.8919 24.8465 52.6283 24.3214 51.5307C23.7838 50.4012 22.6836 49.9545 21.5208 50.331C17.7075 51.569 18.9203 55.8255 20.6081 58.1675C22.4148 60.6754 24.634 62.1878 27.1283 63.0174C36.4365 66.1124 40.9125 61.2242 41.6939 57.6442C42.269 55.0214 42.2065 52.7496 40.5686 50.6437Z" fill="#6B4B46"/>
<path d="M39 29C30.468 45.7937 29 67 29 67" stroke="#6B4B46" stroke-width="5" stroke-miterlimit="10"/>
<path d="M44.9055 17.7742C50.1511 19.533 51.3133 24.4129 50.9342 25.7432C50.4805 27.3037 44.6694 21.2279 36.0304 21.5924C33.0098 21.7203 33.8862 19.8144 35.2846 18.7144C37.1304 17.2626 40.2318 16.2137 44.9055 17.7742Z" fill="#6D4C41"/>
<path d="M44.9055 17.7742C50.1511 19.533 51.3133 24.4129 50.9342 25.7432C50.4805 27.3037 44.6694 21.2279 36.0304 21.5924C33.0098 21.7203 33.8862 19.8144 35.2846 18.7144C37.1304 17.2626 40.2318 16.2137 44.9055 17.7742Z" fill="#6B4B46"/>
<path d="M54.7057 35.114C55.4329 34.6575 57.875 35.4454 58.561 39.804C58.8971 41.9364 59 44 59 44C59 44 56.1189 41.6425 55.1653 39.9854C53.9649 37.8905 53.4984 35.8644 54.7057 35.114Z" fill="#E2A610"/>
</svg>
