<svg width="352" height="289" viewBox="0 0 352 289" fill="none" xmlns="http://www.w3.org/2000/svg">
<mask id="mask0_1814_415" style="mask-type:alpha" maskUnits="userSpaceOnUse" x="99" y="0" width="259" height="289">
<rect x="99" width="259" height="288.296" fill="#D9D9D9"/>
</mask>
<g mask="url(#mask0_1814_415)">
<path d="M141.684 85.9131H447.307V238.725H141.684V85.9131Z" fill="#CFD8DC"/>
<path d="M141.684 238.725H447.307V270.896H141.684V238.725Z" fill="#B0BEC5"/>
<path d="M318.624 126.126H415.137V270.895H318.624V126.126Z" fill="#455A64"/>
<path d="M173.855 126.126H286.454V214.596H173.855V126.126Z" fill="white"/>
<path d="M181.899 134.169H278.412V206.554H181.899V134.169Z" fill="#FFDD55"/>
<path d="M294.497 110.041C307.822 110.041 318.625 99.2385 318.625 85.9128C318.625 72.5872 307.822 61.7847 294.497 61.7847C281.171 61.7847 270.369 72.5872 270.369 85.9128C270.369 99.2385 281.171 110.041 294.497 110.041Z" fill="#558B2F"/>
<path d="M197.984 110.041C211.309 110.041 222.112 99.2385 222.112 85.9128C222.112 72.5872 211.309 61.7847 197.984 61.7847C184.658 61.7847 173.855 72.5872 173.855 85.9128C173.855 99.2385 184.658 110.041 197.984 110.041Z" fill="#558B2F"/>
<path d="M423.18 -18.6426H165.812C156.966 -18.6426 149.727 -11.4041 149.727 -2.55713V21.571H439.265V-2.55713C439.265 -11.4041 432.027 -18.6426 423.18 -18.6426ZM270.368 21.571H318.624V85.9128H270.368V21.571ZM399.051 21.571H358.838L366.881 85.9128H415.137L399.051 21.571ZM189.941 21.571H230.154L222.112 85.9128H173.855L189.941 21.571Z" fill="#FB8C00"/>
<path d="M342.752 110.041C356.078 110.041 366.88 99.2385 366.88 85.9128C366.88 72.5872 356.078 61.7847 342.752 61.7847C329.427 61.7847 318.624 72.5872 318.624 85.9128C318.624 99.2385 329.427 110.041 342.752 110.041Z" fill="#FFA000"/>
<path d="M246.239 110.041C259.565 110.041 270.367 99.2385 270.367 85.9128C270.367 72.5872 259.565 61.7847 246.239 61.7847C232.913 61.7847 222.111 72.5872 222.111 85.9128C222.111 99.2385 232.913 110.041 246.239 110.041Z" fill="#FFA000"/>
<path d="M125.597 85.9128C125.597 99.5855 136.053 110.041 149.725 110.041C163.398 110.041 173.854 99.5855 173.854 85.9128C173.854 72.2402 163.398 61.7847 149.725 61.7847L125.597 85.9128Z" fill="#FFA000"/>
<path d="M358.836 21.5713H318.623V85.9131H366.879L358.836 21.5713ZM439.263 21.5713H399.05L415.135 85.9131H463.392L439.263 21.5713ZM230.153 21.5713H270.366V85.9131H222.11L230.153 21.5713ZM149.725 21.5713H189.939L173.854 85.9131H125.597L149.725 21.5713Z" fill="#FFC107"/>
<ellipse cx="264.613" cy="279.295" rx="278.135" ry="9.00112" fill="#D9D9D9"/>
</g>
<path d="M92.6152 122.714L102.416 125.936V111.827H93.5222L92.6152 122.714Z" fill="#F8A8AB"/>
<path d="M101.203 115.73C106.596 115.73 110.969 111.357 110.969 105.963C110.969 100.57 106.596 96.1973 101.203 96.1973C95.809 96.1973 91.4365 100.57 91.4365 105.963C91.4365 111.357 95.809 115.73 101.203 115.73Z" fill="#F8A8AB"/>
<path d="M98.7151 106.729L100.062 108.363L102.496 104.1C102.496 104.1 105.603 104.261 105.603 101.953C105.603 99.6456 108.454 99.5805 108.454 99.5805C108.454 99.5805 112.492 92.5315 104.13 94.3875C104.13 94.3875 98.3286 90.4152 95.447 93.8096C95.447 93.8096 86.6031 98.2641 89.1327 106.017L93.3384 114.012L94.2913 112.202C94.2913 112.202 93.7134 104.605 98.7151 106.721V106.729Z" fill="#2F2E43"/>
<path d="M97.6897 269.152H89.6763V280.522H97.6897V269.152Z" fill="#F8A8AB"/>
<path d="M96.8018 287.035C95.4318 287.158 88.5741 287.701 88.2296 286.128C87.9158 284.686 88.3789 283.178 88.4439 282.971C89.1022 276.412 89.3471 276.339 89.4963 276.297C89.7298 276.228 90.4109 276.554 91.5169 277.265L91.5858 277.311L91.6011 277.392C91.6202 277.495 92.1101 279.902 94.433 279.531C96.0249 279.278 96.5416 278.926 96.7061 278.754C96.5722 278.693 96.4038 278.586 96.2852 278.402C96.113 278.134 96.0824 277.79 96.1972 277.376C96.4957 276.286 97.3911 274.675 97.4294 274.609L97.5327 274.426L106.641 280.572L112.266 282.179C112.691 282.301 113.032 282.604 113.204 283.009C113.441 283.576 113.296 284.234 112.836 284.647C111.815 285.566 109.786 287.139 107.655 287.334C107.088 287.387 106.338 287.407 105.496 287.407C101.98 287.407 96.8439 287.043 96.8056 287.035H96.8018Z" fill="#2F2E43"/>
<path d="M107.922 171.131L86.9015 170.056C86.9015 170.056 83.6792 182.271 87.751 195L88.2409 271.648H100.119L111.317 192.581L107.922 171.131Z" fill="#2F2E43"/>
<path d="M104.379 120L92.8406 113.877C92.8406 113.877 80.4071 132.047 82.1254 141.89C83.8475 151.733 86.9013 170.056 86.9013 170.056L112.354 171.131L107.911 135.048L104.379 120Z" fill="#E2E3E4"/>
<path d="M103.391 269.152H95.3779V280.522H103.391V269.152Z" fill="#F8A8AB"/>
<path d="M102.503 287.035C101.133 287.158 94.2757 287.701 93.9313 286.128C93.6175 284.686 94.0805 283.178 94.1456 282.971C94.8038 276.412 95.0487 276.339 95.198 276.297C95.4314 276.228 96.1126 276.554 97.2186 277.265L97.2875 277.311L97.3028 277.392C97.3219 277.495 97.8117 279.902 100.135 279.531C101.727 279.278 102.243 278.926 102.408 278.754C102.274 278.693 102.105 278.586 101.987 278.402C101.815 278.134 101.784 277.79 101.899 277.376C102.197 276.286 103.093 274.675 103.131 274.609L103.234 274.426L112.342 280.572L117.968 282.179C118.393 282.301 118.733 282.604 118.905 283.009C119.143 283.576 118.997 284.234 118.538 284.647C117.516 285.566 115.488 287.139 113.356 287.334C112.79 287.387 112.04 287.407 111.198 287.407C107.681 287.407 102.546 287.043 102.507 287.035H102.503Z" fill="#2F2E43"/>
<path d="M112.354 171.131L86.9015 170.056C86.9015 170.056 83.6792 182.271 87.751 195L92.6724 271.648H104.551L115.748 192.581L112.354 171.131Z" fill="#2F2E43"/>
<path d="M109.698 221.195C107.919 221.195 105.979 220.758 104.061 220.33C102.641 220.012 101.39 219.932 100.387 219.871C98.8644 219.775 97.6589 219.698 96.9892 218.807C96.3272 217.927 96.3272 216.43 96.9892 213.48C97.8694 209.561 99.8287 203.3 102.224 198.149C105.32 191.506 108.294 188.448 111.068 189.072C114.784 189.906 116.265 196.11 116.82 199.73C117.593 204.785 117.524 210.793 116.652 214.681C115.496 219.828 112.844 221.191 109.694 221.191H109.698V221.195ZM110.376 190.147C108.336 190.147 105.833 193.125 103.269 198.635C100.908 203.706 98.9792 209.871 98.1105 213.732C97.5556 216.212 97.4944 217.563 97.9077 218.118C98.2597 218.585 99.182 218.646 100.456 218.723C101.501 218.788 102.802 218.868 104.31 219.209C110.303 220.552 114.049 221.042 115.53 214.433C117.118 207.353 115.909 191.338 110.816 190.193C110.67 190.159 110.521 190.144 110.372 190.144H110.376V190.147Z" fill="#DFDFE0"/>
<path d="M133.934 268.782L76.8561 269.157L67.9893 265.077L73.1555 212.377L78.3524 212.641L131.825 215.362L133.934 268.782Z" fill="#F9A826"/>
<path opacity="0.2" d="M76.8561 269.157L67.9893 265.077L73.1555 212.377L78.3524 212.641L76.8561 269.157Z" fill="#272223"/>
<path d="M110.559 211.475C109.499 211.475 108.34 211.214 107.199 210.958C106.354 210.767 105.607 210.721 105.007 210.682C104.1 210.625 103.38 210.579 102.982 210.047C102.588 209.523 102.588 208.631 102.982 206.871C103.506 204.533 104.674 200.801 106.105 197.732C107.949 193.771 109.725 191.95 111.378 192.321C113.594 192.819 114.478 196.515 114.807 198.677C115.266 201.693 115.228 205.275 114.708 207.59C114.019 210.659 112.438 211.471 110.559 211.471V211.475ZM110.965 192.964C109.748 192.964 108.256 194.74 106.729 198.027C105.32 201.05 104.168 204.724 103.656 207.028C103.323 208.505 103.288 209.312 103.537 209.641C103.748 209.921 104.295 209.955 105.056 210.001C105.68 210.039 106.453 210.089 107.352 210.292C110.923 211.092 113.158 211.383 114.042 207.445C114.987 203.224 114.268 193.676 111.233 192.995C111.145 192.975 111.057 192.964 110.969 192.964H110.965Z" fill="#DFDFE0"/>
<path d="M125.006 239.851L90.9772 240.073L85.6885 237.643L88.7691 206.22L91.8689 206.377L123.75 208L125.006 239.851Z" fill="#E2E3E4"/>
<path opacity="0.2" d="M90.9772 240.073L85.6885 237.643L88.7691 206.22L91.8689 206.377L90.9772 240.073Z" fill="#272223"/>
<path d="M112.549 190.266C113.119 193.067 112.075 195.627 110.223 195.983C108.37 196.339 106.407 194.353 105.841 191.552C105.6 190.434 105.638 189.278 105.952 188.176L103.698 176.271L109.522 175.349L111.126 187.181C111.849 188.084 112.335 189.141 112.549 190.266Z" fill="#F8A8AB"/>
<path d="M89.7031 119.779C89.7031 119.779 98.2217 118.699 99.2397 121.244C100.258 123.789 112.22 184.364 112.22 184.364H104.329L89.7031 119.779Z" fill="#E2E3E4"/>
<path d="M30.5168 132.744L21.96 135.557V123.242H29.7247L30.5168 132.744Z" fill="#F8A8AB"/>
<path d="M23.0199 126.652C27.7288 126.652 31.5461 122.834 31.5461 118.125C31.5461 113.416 27.7288 109.599 23.0199 109.599C18.311 109.599 14.4937 113.416 14.4937 118.125C14.4937 122.834 18.311 126.652 23.0199 126.652Z" fill="#F8A8AB"/>
<path d="M25.3618 117.28C23.9344 117.238 22.9968 115.795 22.4419 114.479C21.887 113.162 21.3168 111.651 19.9927 111.107C18.9097 110.663 17.0001 113.667 16.1467 112.867C15.255 112.033 16.1237 107.751 17.069 106.982C18.0142 106.213 19.3077 106.063 20.5246 106.006C23.4943 105.868 26.483 106.109 29.3953 106.718C31.1977 107.093 33.0499 107.659 34.3511 108.96C35.9966 110.613 36.4176 113.105 36.5362 115.435C36.6587 117.819 36.5209 120.315 35.3614 122.4C34.2018 124.486 31.7756 126.024 29.4489 125.492C29.2154 124.229 29.4527 122.932 29.5445 121.646C29.6325 120.364 29.5407 118.979 28.7562 117.957C27.9717 116.935 26.2994 116.53 25.3886 117.437" fill="#2F2E43"/>
<path d="M35.8514 120.234C36.7048 119.61 37.7266 119.086 38.7752 119.216C39.9079 119.354 40.8684 120.288 41.1593 121.394C41.4501 122.5 41.1248 123.717 40.4207 124.62C39.7204 125.523 38.6756 126.12 37.5735 126.418C36.9344 126.591 36.2341 126.663 35.6256 126.403C34.7302 126.017 34.2441 124.872 34.5962 123.962" fill="#2F2E43"/>
<path d="M27.6926 269.784H19.6792V281.154H27.6926V269.784Z" fill="#F8A8AB"/>
<path d="M11.8725 288.034C11.0306 288.034 10.2805 288.015 9.71415 287.962C7.58642 287.767 5.55436 286.194 4.53259 285.275C4.07336 284.862 3.92794 284.204 4.16521 283.637C4.33741 283.232 4.678 282.926 5.10279 282.807L10.7283 281.2L19.8362 275.054L19.9395 275.237C19.9778 275.306 20.8733 276.917 21.1718 278.004C21.2866 278.418 21.256 278.762 21.0838 279.03C20.9651 279.214 20.7967 279.321 20.6628 279.382C20.8274 279.554 21.344 279.906 22.936 280.159C25.2589 280.526 25.7487 278.119 25.7678 278.02L25.7831 277.939L25.852 277.893C26.958 277.181 27.6392 276.856 27.8726 276.925C28.018 276.967 28.263 277.044 28.925 283.599C28.9901 283.806 29.4531 285.314 29.1393 286.756C28.7987 288.325 21.941 287.786 20.5671 287.663C20.5289 287.667 15.3932 288.034 11.8763 288.034H11.8725Z" fill="#2F2E43"/>
<path d="M50.5104 260.844L43.7109 265.085L49.7275 274.732L56.527 270.492L50.5104 260.844Z" fill="#F8A8AB"/>
<path d="M41.4769 286.477C40.5355 286.477 39.6706 286.362 39.0545 286.255C38.4498 286.148 37.9753 285.666 37.8758 285.061C37.8069 284.625 37.9332 284.185 38.2317 283.859L42.1542 279.52L46.6316 269.486L46.8153 269.585C46.8842 269.623 48.4953 270.515 49.3257 271.28C49.6434 271.571 49.8003 271.881 49.7926 272.199C49.7888 272.421 49.7046 272.597 49.6204 272.723C49.85 272.784 50.4738 272.807 51.9586 272.18C54.1246 271.265 53.2674 268.961 53.2292 268.866L53.1985 268.789L53.233 268.716C53.7955 267.526 54.1973 266.891 54.4346 266.826C54.5839 266.784 54.8288 266.719 58.8585 271.935C59.023 272.073 60.2132 273.11 60.7107 274.499C61.2502 276.01 55.1464 279.183 53.918 279.803C53.8797 279.833 47.4927 284.475 44.8675 285.796C43.8266 286.32 42.5943 286.481 41.473 286.481L41.4769 286.477Z" fill="#2F2E43"/>
<path d="M33.5934 174.706H11.1565L9.12061 195.577L18.0295 272.696H29.4833L24.9026 228.155L43.482 268.368L53.6615 261.242L39.1538 223.701C39.1538 223.701 44.3354 190.997 40.2636 182.849C36.1918 174.702 33.5934 174.706 33.5934 174.706Z" fill="#2F2E43"/>
<path d="M44.7525 175.976H9.12061L19.809 129.909H35.3346L44.7525 175.976Z" fill="#F9A826"/>
<path d="M0.269043 129.002C-0.30116 126.2 0.743574 123.64 2.59578 123.284C4.44798 122.929 6.41116 124.915 6.97753 127.716C7.21862 128.833 7.18035 129.989 6.86655 131.091L9.12057 142.997L3.29609 143.919L1.69264 132.086C0.969359 131.183 0.483347 130.127 0.269043 129.002Z" fill="#F8A8AB"/>
<path d="M34.9556 129.909H21.2631L12.0327 148.369L8.55029 134.535L0.900391 135.347C0.900391 135.347 2.7105 162.376 10.6206 161.461C18.5307 160.546 36.98 136.196 34.9518 129.905H34.9556V129.909Z" fill="#F9A826"/>
<path d="M47.887 217.471C46.8269 217.471 45.6674 217.21 44.527 216.954C43.6813 216.763 42.935 216.717 42.3342 216.678C41.4272 216.621 40.7078 216.575 40.3098 216.043C39.9156 215.519 39.9156 214.627 40.3098 212.867C40.8341 210.529 42.0013 206.798 43.4325 203.728C45.2771 199.768 47.0527 197.946 48.7059 198.317C50.9217 198.815 51.8057 202.511 52.1348 204.674C52.594 207.689 52.5557 211.271 52.0353 213.586C51.3465 216.656 49.766 217.467 47.887 217.467V217.471ZM48.2926 198.96C47.0757 198.96 45.5832 200.736 44.0563 204.023C42.648 207.046 41.4961 210.72 40.9833 213.024C40.6504 214.501 40.6159 215.308 40.8647 215.638C41.0752 215.917 41.6224 215.951 42.3839 215.997C43.0077 216.036 43.7808 216.085 44.6801 216.288C48.2505 217.088 50.4854 217.379 51.3694 213.441C52.3146 209.22 51.5952 199.672 48.5605 198.991C48.4725 198.972 48.3845 198.96 48.2964 198.96H48.2926Z" fill="#DFDFE0"/>
<path d="M62.3372 245.843L28.3087 246.065L23.02 243.635L26.1006 212.213L29.2004 212.37L61.082 213.992L62.3372 245.843Z" fill="#E2E3E4"/>
<path opacity="0.2" d="M28.3087 246.065L23.02 243.635L26.1006 212.213L29.2004 212.37L28.3087 246.065Z" fill="#272223"/>
<path d="M50.2441 200.112C50.8143 202.914 49.7696 205.474 47.9174 205.83C46.0652 206.186 44.102 204.2 43.5356 201.398C43.2945 200.281 43.3328 199.125 43.6466 198.023L41.3926 186.118L47.2171 185.195L48.8205 197.028C49.5438 197.931 50.0298 198.987 50.2441 200.112Z" fill="#F8A8AB"/>
<path d="M27.1489 129.908C27.1489 129.908 34.9289 129.579 35.3346 129.908C37.4585 131.642 49.9149 194.215 49.9149 194.215H42.0239L27.1489 129.908Z" fill="#F9A826"/>
</svg>
