<svg width="73" height="73" viewBox="0 0 73 73" fill="none" xmlns="http://www.w3.org/2000/svg">
<path d="M48.3625 0H24.6375C18.1062 0.00965457 11.8452 2.60848 7.22682 7.22682C2.60848 11.8452 0.00965457 18.1062 0 24.6375V48.3625C0 54.8968 2.59573 61.1634 7.21616 65.7838C11.8366 70.4043 18.1032 73 24.6375 73H48.3625C54.8968 73 61.1634 70.4043 65.7838 65.7838C70.4043 61.1634 73 54.8968 73 48.3625V24.6375C72.9903 18.1062 70.3915 11.8452 65.7732 7.22682C61.1548 2.60848 54.8938 0.00965457 48.3625 0ZM67.525 38.325H56.794L46.939 54.823C46.6114 55.3611 46.1502 55.8052 45.6001 56.1122C45.0501 56.4192 44.4299 56.5787 43.8 56.575H43.581C42.9103 56.5396 42.2624 56.3198 41.7085 55.9399C41.1547 55.5599 40.7164 55.0345 40.442 54.4215L28.7255 27.9955L21.4255 40.223C21.0979 40.7611 20.6367 41.2052 20.0866 41.5122C19.5366 41.8192 18.9164 41.9787 18.2865 41.975H5.5115V34.675H16.206L26.0975 18.2135C26.4421 17.6421 26.9368 17.176 27.5278 16.8661C28.1188 16.5561 28.7834 16.4141 29.4495 16.4555C30.1155 16.4969 30.7575 16.7201 31.3055 17.1009C31.8536 17.4816 32.2868 18.0053 32.558 18.615L44.311 45.041L51.611 32.8135C51.934 32.2686 52.3933 31.8172 52.9437 31.5036C53.4941 31.1901 54.1166 31.0251 54.75 31.025H67.525V38.325Z" fill="#F9A826"/>
</svg>
