<svg width="78" height="78" viewBox="0 0 78 78" fill="none" xmlns="http://www.w3.org/2000/svg">
<path d="M78 39C78.0046 45.0854 76.583 51.0873 73.8494 56.5242C71.1157 61.961 67.1461 66.6817 62.2588 70.3075C61.932 70.552 61.5989 70.7903 61.2637 71.0221C54.7282 75.5651 46.9593 78 39 78C31.0406 78 23.2718 75.5651 16.7363 71.0221C16.4011 70.7903 16.068 70.552 15.7412 70.3075C10.8573 66.6785 6.89008 61.9572 4.15681 56.521C1.42354 51.0849 0 45.0846 0 39C0 32.9154 1.42354 26.9151 4.15681 21.479C6.89008 16.0428 10.8573 11.3215 15.7412 7.69248C16.068 7.44794 16.4011 7.20973 16.7363 6.97784C23.2718 2.4349 31.0406 0 39 0C46.9593 0 54.7282 2.4349 61.2637 6.97784C61.5989 7.20973 61.932 7.44794 62.2588 7.69248C67.1461 11.3183 71.1157 16.0389 73.8494 21.4758C76.583 26.9127 78.0046 32.9146 78 39Z" fill="white"/>
<path d="M39 74.6271C58.6763 74.6271 74.627 58.6763 74.627 39.0001C74.627 19.3238 58.6763 3.37305 39 3.37305C19.3237 3.37305 3.37297 19.3238 3.37297 39.0001C3.37297 58.6763 19.3237 74.6271 39 74.6271Z" fill="#F9A826"/>
<path d="M39.1053 0.843262C38.798 0.843801 38.5034 0.966131 38.2861 1.18346C38.0687 1.40078 37.9464 1.69538 37.9459 2.00272V7.06218C37.9459 7.36969 38.068 7.6646 38.2855 7.88204C38.5029 8.09948 38.7978 8.22164 39.1053 8.22164C39.4128 8.22164 39.7078 8.09948 39.9252 7.88204C40.1426 7.6646 40.2648 7.36969 40.2648 7.06218V2.00272C40.2643 1.69538 40.1419 1.40078 39.9246 1.18346C39.7073 0.966131 39.4127 0.843801 39.1053 0.843262Z" fill="white"/>
<path d="M62.2586 7.69269C61.9319 7.44815 61.5988 7.20993 61.2636 6.97804C61.0625 6.96493 60.8614 7.00451 60.6803 7.09287C60.4991 7.18123 60.3441 7.31531 60.2306 7.48188L57.3826 11.6623C57.2095 11.9164 57.1445 12.2288 57.2019 12.5309C57.2592 12.8329 57.4342 13.0998 57.6883 13.2728C57.9424 13.4459 58.2548 13.5109 58.5569 13.4536C58.8589 13.3962 59.1258 13.2213 59.2989 12.9672L62.1469 8.7868C62.2553 8.6282 62.3223 8.44503 62.3418 8.25394C62.3613 8.06285 62.3327 7.86991 62.2586 7.69269Z" fill="white"/>
<path d="M75.1981 26.7538C75.1408 26.6129 75.0564 26.4846 74.9495 26.3763C74.8426 26.2681 74.7155 26.1819 74.5753 26.1228C74.4351 26.0636 74.2847 26.0327 74.1326 26.0318C73.9804 26.0308 73.8296 26.0598 73.6887 26.1172L69.0003 28.0208C68.7157 28.1367 68.4888 28.3609 68.3694 28.6441C68.25 28.9272 68.2479 29.2462 68.3635 29.5309C68.4792 29.8156 68.7032 30.0427 68.9862 30.1624C69.2693 30.282 69.5882 30.2844 69.873 30.169L74.5615 28.2654C74.8459 28.1488 75.0726 27.9244 75.1919 27.6411C75.3113 27.3578 75.3135 27.0388 75.1981 26.7538Z" fill="white"/>
<path d="M20.6173 11.6623L17.7693 7.48188C17.6558 7.31531 17.5008 7.18123 17.3197 7.09287C17.1385 7.00451 16.9374 6.96493 16.7363 6.97804C16.4011 7.20993 16.068 7.44815 15.7413 7.69269C15.6672 7.86991 15.6386 8.06285 15.6582 8.25394C15.6777 8.44503 15.7447 8.6282 15.853 8.7868L18.7011 12.9672C18.8741 13.2213 19.141 13.3963 19.4431 13.4536C19.7451 13.5109 20.0576 13.4459 20.3117 13.2729C20.5658 13.0998 20.7407 12.8329 20.7981 12.5309C20.8554 12.2288 20.7904 11.9164 20.6173 11.6623Z" fill="white"/>
<path d="M8.99932 28.021L4.31089 26.1174C4.02604 26.0017 3.70691 26.0039 3.42369 26.1236C3.14047 26.2432 2.91635 26.4704 2.80063 26.7552C2.68491 27.04 2.68706 27.3591 2.80661 27.6424C2.92617 27.9256 3.15333 28.1498 3.43813 28.2656L8.12656 30.1692C8.41136 30.2846 8.73033 30.2822 9.01337 30.1625C9.29642 30.0429 9.52037 29.8158 9.63604 29.5311C9.75171 29.2464 9.74962 28.9274 9.63022 28.6443C9.51083 28.3611 9.28391 28.1369 8.99932 28.021V28.021Z" fill="white"/>
<path d="M39.1053 69.7783C38.798 69.7789 38.5034 69.9012 38.2861 70.1185C38.0687 70.3358 37.9464 70.6304 37.9459 70.9378V75.9972C37.9459 76.3047 38.068 76.5997 38.2855 76.8171C38.5029 77.0345 38.7978 77.1567 39.1053 77.1567C39.4128 77.1567 39.7078 77.0345 39.9252 76.8171C40.1426 76.5997 40.2648 76.3047 40.2648 75.9972V70.9378C40.2643 70.6304 40.1419 70.3358 39.9246 70.1185C39.7073 69.9012 39.4127 69.7789 39.1053 69.7783Z" fill="white"/>
<path d="M62.1469 69.2135L59.2989 65.0331C59.2132 64.9073 59.1035 64.7996 58.9762 64.7161C58.8489 64.6326 58.7064 64.5751 58.5569 64.5467C58.4073 64.5183 58.2536 64.5197 58.1046 64.5507C57.9556 64.5817 57.8141 64.6417 57.6883 64.7274C57.5624 64.8131 57.4547 64.9227 57.3713 65.05C57.2878 65.1774 57.2302 65.3199 57.2019 65.4694C57.1735 65.619 57.1748 65.7727 57.2058 65.9217C57.2368 66.0707 57.2969 66.2122 57.3826 66.338L60.2306 70.5184C60.3441 70.685 60.4991 70.819 60.6803 70.9074C60.8614 70.9958 61.0625 71.0354 61.2636 71.0222C61.5988 70.7904 61.9319 70.5521 62.2586 70.3076C62.3327 70.1304 62.3613 69.9374 62.3418 69.7463C62.3223 69.5553 62.2553 69.3721 62.1469 69.2135Z" fill="white"/>
<path d="M74.5616 49.7344L69.8731 47.8308C69.5883 47.7151 69.2691 47.7173 68.9859 47.8369C68.7027 47.9565 68.4786 48.1837 68.3629 48.4686C68.2471 48.7534 68.2493 49.0725 68.3688 49.3558C68.4884 49.639 68.7156 49.8632 69.0004 49.9789L73.6888 51.8826C73.9736 51.998 74.2926 51.9956 74.5756 51.8759C74.8586 51.7563 75.0826 51.5291 75.1983 51.2445C75.3139 50.9598 75.3118 50.6408 75.1925 50.3576C75.0731 50.0745 74.8461 49.8503 74.5616 49.7344V49.7344Z" fill="white"/>
<path d="M20.3117 64.7273C20.0575 64.5544 19.7451 64.4894 19.4431 64.5467C19.1411 64.604 18.8742 64.7789 18.7011 65.033L15.853 69.2134C15.7447 69.372 15.6777 69.5551 15.6582 69.7462C15.6386 69.9373 15.6672 70.1302 15.7413 70.3075C16.068 70.552 16.4011 70.7902 16.7363 71.0221C16.9374 71.0352 17.1385 70.9957 17.3197 70.9073C17.5008 70.8189 17.6558 70.6849 17.7693 70.5183L20.6173 66.3379C20.703 66.2121 20.7631 66.0706 20.7941 65.9216C20.8251 65.7725 20.8265 65.6189 20.7981 65.4693C20.7697 65.3197 20.7121 65.1772 20.6287 65.0499C20.5452 64.9226 20.4375 64.813 20.3117 64.7273Z" fill="white"/>
<path d="M9.63587 48.4677C9.57861 48.3268 9.49413 48.1985 9.38727 48.0902C9.28041 47.9819 9.15326 47.8958 9.01308 47.8366C8.87291 47.7775 8.72246 47.7466 8.57033 47.7456C8.4182 47.7447 8.26737 47.7737 8.12647 47.8311L3.43803 49.7347C3.15344 49.8506 2.92652 50.0748 2.80713 50.3579C2.68774 50.6411 2.68565 50.9601 2.80131 51.2447C2.91698 51.5294 3.14094 51.7566 3.42398 51.8762C3.70702 51.9959 4.02599 51.9983 4.31079 51.8828L8.99922 49.9792C9.28368 49.8627 9.51038 49.6382 9.6297 49.355C9.74902 49.0717 9.75124 48.7526 9.63587 48.4677Z" fill="white"/>
<path d="M40.6097 38.4246C40.7168 39.0584 40.568 39.7087 40.1962 40.233C39.8244 40.7573 39.2597 41.1126 38.6262 41.2211L18.0515 44.7209C17.7376 44.7743 17.4163 44.7653 17.1059 44.6945C16.7955 44.6237 16.5021 44.4925 16.2424 44.3083C15.9828 44.1241 15.7619 43.8906 15.5925 43.6211C15.423 43.3515 15.3083 43.0513 15.255 42.7374C15.2016 42.4235 15.2105 42.1022 15.2813 41.7918C15.3521 41.4814 15.4833 41.188 15.6675 40.9283C15.8517 40.6687 16.0852 40.4478 16.3547 40.2784C16.6243 40.1089 16.9246 39.9943 17.2384 39.9409L37.8132 36.4411C38.4469 36.3341 39.0973 36.4828 39.6216 36.8546C40.1458 37.2265 40.5012 37.7911 40.6097 38.4246Z" fill="#3F3D56"/>
<path d="M62.264 61.2201C61.9684 61.5173 61.567 61.6852 61.1478 61.6869C60.7286 61.6885 60.3259 61.5238 60.028 61.2289L37.8796 39.2542C37.5824 38.9588 37.4146 38.5574 37.4131 38.1383C37.4117 37.7193 37.5767 37.3168 37.8718 37.0193C38.167 36.7218 38.5682 36.5536 38.9873 36.5518C39.4063 36.5499 39.809 36.7145 40.1067 37.0094L62.2552 58.9841C62.5524 59.2797 62.7203 59.6811 62.7219 60.1003C62.7236 60.5195 62.5589 60.9222 62.264 61.2201Z" fill="#3F3D56"/>
<path d="M39.0002 41.7404C40.5137 41.7404 41.7407 40.5134 41.7407 38.9998C41.7407 37.4863 40.5137 36.2593 39.0002 36.2593C37.4866 36.2593 36.2596 37.4863 36.2596 38.9998C36.2596 40.5134 37.4866 41.7404 39.0002 41.7404Z" fill="#CCCCCC"/>
</svg>
