<svg width="350" height="268" viewBox="0 0 350 268" fill="none" xmlns="http://www.w3.org/2000/svg">
<path d="M0 267.322C0 267.637 0.253015 267.89 0.56809 267.89H348.722C349.037 267.89 349.29 267.637 349.29 267.322C349.29 267.007 349.037 266.754 348.722 266.754H0.56809C0.253015 266.754 0 267.007 0 267.322Z" fill="#3F3D58"/>
<path d="M210.341 61.7687L222.567 65.7883V48.187H211.473L210.341 61.7687Z" fill="#F8A8AB"/>
<path d="M221.054 53.0563C227.782 53.0563 233.237 47.6018 233.237 40.8733C233.237 34.1449 227.782 28.6904 221.054 28.6904C214.326 28.6904 208.871 34.1449 208.871 40.8733C208.871 47.6018 214.326 53.0563 221.054 53.0563Z" fill="#F8A8AB"/>
<path d="M217.951 41.8283L219.631 43.8667L222.668 38.5486C222.668 38.5486 226.544 38.7491 226.544 35.8705C226.544 32.9918 230.1 32.9107 230.1 32.9107C230.1 32.9107 235.137 24.1172 224.706 26.4325C224.706 26.4325 217.469 21.4773 213.874 25.7117C213.874 25.7117 202.842 31.2685 205.997 40.9403L211.244 50.9129L212.432 48.6549C212.432 48.6549 211.712 39.1788 217.951 41.8187V41.8283Z" fill="#2F2E43"/>
<path d="M216.672 244.445H206.675V258.628H216.672V244.445Z" fill="#F8A8AB"/>
<path d="M215.564 266.754C213.855 266.907 205.3 267.584 204.871 265.622C204.479 263.823 205.057 261.942 205.138 261.684C205.959 253.502 206.265 253.411 206.451 253.358C206.742 253.272 207.592 253.678 208.971 254.566L209.057 254.623L209.076 254.724C209.1 254.853 209.711 257.855 212.609 257.392C214.595 257.077 215.239 256.638 215.445 256.423C215.278 256.347 215.068 256.213 214.92 255.984C214.705 255.65 214.667 255.22 214.81 254.705C215.182 253.344 216.299 251.334 216.347 251.253L216.476 251.024L227.838 258.691L234.855 260.696C235.385 260.849 235.81 261.226 236.025 261.732C236.321 262.438 236.139 263.259 235.567 263.775C234.292 264.921 231.762 266.883 229.103 267.126C228.396 267.193 227.461 267.217 226.41 267.217C222.023 267.217 215.617 266.763 215.569 266.754H215.564Z" fill="#2F2E43"/>
<path d="M229.437 122.168L203.214 120.826C203.214 120.826 199.194 136.064 204.274 151.942L204.885 247.558H219.703L233.671 148.925L229.437 122.168Z" fill="#2F2E43"/>
<path d="M225.016 58.3838L210.623 50.7456C210.623 50.7456 195.113 73.4119 197.256 85.6903C199.405 97.9687 203.214 120.826 203.214 120.826L234.965 122.167L229.423 77.1546L225.016 58.3838Z" fill="#E2E3E4"/>
<path d="M223.785 244.445H213.788V258.628H223.785V244.445Z" fill="#F8A8AB"/>
<path d="M222.677 266.754C220.968 266.907 212.413 267.584 211.984 265.622C211.592 263.823 212.17 261.942 212.251 261.684C213.072 253.502 213.378 253.411 213.564 253.358C213.855 253.272 214.705 253.678 216.084 254.566L216.17 254.623L216.189 254.724C216.213 254.853 216.824 257.855 219.722 257.392C221.708 257.077 222.352 256.638 222.558 256.423C222.391 256.347 222.181 256.213 222.033 255.984C221.818 255.65 221.78 255.22 221.923 254.705C222.295 253.344 223.412 251.334 223.46 251.253L223.589 251.024L234.951 258.691L241.968 260.696C242.498 260.849 242.923 261.226 243.138 261.732C243.434 262.438 243.252 263.259 242.68 263.775C241.405 264.921 238.875 266.883 236.216 267.126C235.509 267.193 234.574 267.217 233.523 267.217C229.136 267.217 222.73 266.763 222.682 266.754H222.677Z" fill="#2F2E43"/>
<path d="M234.965 122.168L203.214 120.826C203.214 120.826 199.194 136.064 204.274 151.942L210.413 247.558H225.231L239.199 148.925L234.965 122.168Z" fill="#2F2E43"/>
<path d="M231.652 184.62C229.432 184.62 227.012 184.075 224.62 183.541C222.849 183.144 221.288 183.044 220.037 182.968C218.137 182.848 216.633 182.753 215.798 181.641C214.972 180.543 214.972 178.676 215.798 174.995C216.896 170.107 219.34 162.297 222.329 155.871C226.191 147.584 229.9 143.77 233.361 144.548C237.996 145.588 239.844 153.327 240.536 157.843C241.501 164.149 241.415 171.644 240.326 176.494C238.884 182.915 235.576 184.615 231.647 184.615H231.652V184.62ZM232.497 145.889C229.953 145.889 226.83 149.603 223.632 156.478C220.686 162.803 218.28 170.494 217.197 175.31C216.505 178.404 216.428 180.089 216.944 180.781C217.383 181.364 218.533 181.44 220.123 181.536C221.426 181.617 223.05 181.717 224.93 182.142C232.406 183.818 237.08 184.429 238.927 176.184C240.909 167.352 239.4 147.374 233.046 145.946C232.865 145.903 232.678 145.884 232.492 145.884H232.497V145.889Z" fill="#DFDFE0"/>
<path d="M261.885 243.983L190.683 244.451L179.622 239.362L186.066 173.621L192.549 173.95L259.255 177.344L261.885 243.983Z" fill="#F9A826"/>
<path opacity="0.2" d="M190.683 244.451L179.622 239.362L186.066 173.621L192.549 173.95L190.683 244.451Z" fill="#272223"/>
<path d="M232.726 172.494C231.404 172.494 229.957 172.169 228.535 171.85C227.48 171.611 226.549 171.554 225.799 171.506C224.668 171.434 223.77 171.377 223.274 170.713C222.782 170.059 222.782 168.947 223.274 166.751C223.928 163.834 225.384 159.18 227.169 155.351C229.47 150.41 231.685 148.138 233.748 148.601C236.512 149.221 237.615 153.833 238.025 156.53C238.598 160.292 238.55 164.76 237.901 167.649C237.042 171.477 235.07 172.489 232.726 172.489V172.494ZM233.232 149.403C231.714 149.403 229.852 151.618 227.947 155.719C226.191 159.49 224.754 164.073 224.114 166.947C223.699 168.79 223.656 169.797 223.966 170.207C224.229 170.556 224.911 170.599 225.861 170.656C226.639 170.704 227.604 170.766 228.726 171.019C233.18 172.017 235.968 172.379 237.07 167.467C238.249 162.202 237.352 150.291 233.566 149.441C233.457 149.417 233.347 149.403 233.237 149.403H233.232Z" fill="#DFDFE0"/>
<path d="M250.747 207.892L208.298 208.169L201.701 205.138L205.544 165.939L209.411 166.135L249.182 168.159L250.747 207.892Z" fill="#E2E3E4"/>
<path opacity="0.2" d="M208.298 208.169L201.701 205.138L205.544 165.939L209.411 166.135L208.298 208.169Z" fill="#272223"/>
<path d="M235.209 146.037C235.92 149.532 234.617 152.725 232.306 153.169C229.995 153.613 227.547 151.136 226.84 147.641C226.539 146.247 226.587 144.806 226.978 143.431L224.167 128.579L231.432 127.429L233.433 142.19C234.335 143.316 234.941 144.634 235.209 146.037Z" fill="#F8A8AB"/>
<path d="M206.709 58.1072C206.709 58.1072 217.335 56.761 218.605 59.9356C219.875 63.1103 234.798 138.676 234.798 138.676H224.954L206.709 58.1072Z" fill="#E2E3E4"/>
<path d="M132.876 74.2813L122.202 77.79V62.4277H131.888L132.876 74.2813Z" fill="#F8A8AB"/>
<path d="M123.524 66.6811C129.398 66.6811 134.16 61.9191 134.16 56.0449C134.16 50.1707 129.398 45.4087 123.524 45.4087C117.65 45.4087 112.888 50.1707 112.888 56.0449C112.888 61.9191 117.65 66.6811 123.524 66.6811Z" fill="#F8A8AB"/>
<path d="M126.445 54.9902C124.665 54.9377 123.495 53.1379 122.803 51.4957C122.111 49.8535 121.399 47.9678 119.748 47.2899C118.397 46.7362 116.015 50.4836 114.95 49.4859C113.838 48.4452 114.921 43.1032 116.1 42.1437C117.28 41.1841 118.893 40.998 120.411 40.9264C124.116 40.7545 127.844 41.0552 131.477 41.8143C133.726 42.2821 136.036 42.9887 137.659 44.6118C139.712 46.6741 140.237 49.7819 140.385 52.6892C140.538 55.6633 140.366 58.7759 138.92 61.3776C137.473 63.9794 134.446 65.8985 131.544 65.2349C131.253 63.6595 131.549 62.0412 131.663 60.4372C131.773 58.8379 131.659 57.1098 130.68 55.8351C129.701 54.5605 127.615 54.0545 126.479 55.1859" fill="#2F2E43"/>
<path d="M139.531 58.6752C140.595 57.897 141.87 57.243 143.178 57.4053C144.591 57.5772 145.789 58.742 146.152 60.1216C146.515 61.5013 146.109 63.0194 145.231 64.146C144.357 65.2726 143.054 66.0174 141.679 66.3897C140.882 66.6045 140.008 66.6953 139.249 66.3706C138.132 65.8885 137.526 64.4611 137.965 63.3249" fill="#2F2E43"/>
<path d="M129.353 245.233H119.356V259.417H129.353V245.233Z" fill="#F8A8AB"/>
<path d="M109.618 268C108.567 268 107.632 267.976 106.925 267.909C104.271 267.666 101.736 265.704 100.461 264.558C99.8884 264.043 99.707 263.221 100.003 262.515C100.218 262.009 100.643 261.627 101.173 261.479L108.19 259.474L119.552 251.807L119.681 252.036C119.729 252.122 120.846 254.132 121.218 255.488C121.361 256.003 121.323 256.433 121.108 256.767C120.96 256.996 120.75 257.13 120.583 257.206C120.788 257.421 121.433 257.86 123.419 258.175C126.317 258.634 126.928 255.631 126.951 255.507L126.971 255.407L127.057 255.349C128.436 254.461 129.286 254.056 129.577 254.142C129.759 254.194 130.064 254.29 130.89 262.467C130.971 262.725 131.549 264.606 131.157 266.406C130.732 268.363 122.178 267.69 120.464 267.537C120.416 267.542 114.01 268 109.622 268H109.618Z" fill="#2F2E43"/>
<path d="M157.817 234.081L149.335 239.371L156.841 251.406L165.323 246.116L157.817 234.081Z" fill="#F8A8AB"/>
<path d="M146.548 266.057C145.374 266.057 144.295 265.914 143.526 265.78C142.772 265.647 142.18 265.045 142.056 264.291C141.97 263.747 142.128 263.198 142.5 262.792L147.393 257.378L152.979 244.861L153.208 244.985C153.294 245.033 155.303 246.145 156.339 247.1C156.736 247.463 156.931 247.85 156.922 248.246C156.917 248.523 156.812 248.742 156.707 248.9C156.993 248.976 157.772 249.005 159.624 248.222C162.326 247.081 161.257 244.207 161.209 244.088L161.171 243.992L161.214 243.902C161.915 242.417 162.417 241.624 162.713 241.543C162.899 241.491 163.204 241.41 168.231 247.916C168.436 248.088 169.921 249.382 170.542 251.115C171.215 253.001 163.6 256.958 162.068 257.731C162.02 257.77 154.053 263.56 150.778 265.207C149.479 265.861 147.942 266.062 146.543 266.062L146.548 266.057Z" fill="#2F2E43"/>
<path d="M136.714 126.626H108.725L106.185 152.663L117.299 248.866H131.587L125.873 193.303L149.05 243.467L161.748 234.578L143.651 187.746C143.651 187.746 150.114 146.949 145.035 136.785C139.956 126.622 136.714 126.626 136.714 126.626Z" fill="#2F2E43"/>
<path d="M150.635 128.211H106.185L119.519 70.7437H138.886L150.635 128.211Z" fill="#F9A826"/>
<path d="M95.1432 69.6123C94.4319 66.1179 95.7352 62.9241 98.0457 62.4802C100.356 62.0362 102.805 64.5138 103.512 68.0083C103.813 69.4023 103.765 70.844 103.373 72.2189L106.185 87.0704L98.9193 88.2209L96.9191 73.4601C96.0168 72.3334 95.4105 71.0159 95.1432 69.6123Z" fill="#F8A8AB"/>
<path d="M138.414 70.7435H121.333L109.818 93.7727L105.474 76.5152L95.9309 77.5272C95.9309 77.5272 98.189 111.245 108.057 110.104C117.924 108.963 140.939 78.587 138.409 70.7388H138.414V70.7435Z" fill="#F9A826"/>
<path d="M154.544 179.975C153.222 179.975 151.776 179.65 150.353 179.33C149.298 179.091 148.367 179.034 147.618 178.986C146.486 178.915 145.589 178.857 145.092 178.194C144.6 177.54 144.6 176.428 145.092 174.232C145.746 171.315 147.202 166.66 148.988 162.832C151.289 157.891 153.504 155.618 155.566 156.081C158.33 156.702 159.433 161.313 159.843 164.011C160.416 167.773 160.369 172.241 159.719 175.129C158.86 178.958 156.888 179.97 154.544 179.97V179.975ZM155.05 156.883C153.532 156.883 151.671 159.098 149.766 163.199C148.009 166.97 146.572 171.553 145.932 174.427C145.517 176.27 145.474 177.277 145.784 177.688C146.047 178.036 146.73 178.079 147.68 178.137C148.458 178.184 149.422 178.246 150.544 178.499C154.998 179.497 157.786 179.86 158.889 174.948C160.068 169.682 159.17 157.771 155.385 156.921C155.275 156.898 155.165 156.883 155.055 156.883H155.05Z" fill="#DFDFE0"/>
<path d="M172.571 215.368L130.121 215.645L123.524 212.614L127.367 173.416L131.234 173.611L171.005 175.635L172.571 215.368Z" fill="#E2E3E4"/>
<path opacity="0.2" d="M130.121 215.645L123.524 212.614L127.367 173.416L131.234 173.611L130.121 215.645Z" fill="#272223"/>
<path d="M157.485 158.32C158.196 161.815 156.893 165.009 154.583 165.453C152.272 165.897 149.823 163.419 149.117 159.924C148.816 158.531 148.864 157.089 149.255 155.714L146.443 140.862L153.709 139.712L155.709 154.473C156.612 155.599 157.218 156.917 157.485 158.32Z" fill="#F8A8AB"/>
<path d="M128.675 70.7435C128.675 70.7435 138.38 70.333 138.886 70.7435C141.536 72.9061 157.075 150.964 157.075 150.964H147.231L128.675 70.7435Z" fill="#F9A826"/>
<path d="M291.905 39.7388L292.655 42.0721L291.588 46.7717L286.713 52.1101C291.697 52.4116 296.64 51.0506 300.767 48.2404C300.767 48.2404 302.648 36.0093 291.358 36.0093C288.355 38.0114 285.783 39.3954 282.89 39.3898H283.008C280.116 39.3954 277.543 38.0114 274.54 36.0093C263.25 36.0093 265.132 48.2404 265.132 48.2404C274.52 53.9053 278.65 51.7291 291.588 46.7717L292.168 43.459L269.524 44.7291L274.52 43.8748" fill="#FB8C00"/>
<path d="M300.752 48.2414C300.752 48.2414 302.634 36.0103 291.344 36.0103C288.341 38.0124 285.767 39.3955 282.876 39.3898H282.994C280.102 39.3955 277.529 38.0124 274.526 36.0103C263.236 36.0103 265.118 48.2414 265.118 48.2414" fill="#FB8C00"/>
<path d="M291.609 36.0103C289.165 37.8778 286.258 39.0448 283.201 39.386C295.49 39.7746 295.49 44.4789 296.207 48.2423H301.018C301.018 48.2423 302.899 36.0103 291.609 36.0103Z" fill="#FB8C00"/>
<path d="M301.018 48.2412C301.018 48.2412 289.957 56.7334 281.507 51.029L291.588 46.7716L292.655 42.0721C292.655 42.0721 301.1 39.7538 301.018 48.2412Z" fill="#FB8C00"/>
<path d="M282.95 33.8208C288.842 33.8208 293.618 27.8507 293.618 20.4861C293.618 13.1215 288.842 7.15137 282.95 7.15137C277.058 7.15137 272.281 13.1215 272.281 20.4861C272.281 27.8507 277.058 33.8208 282.95 33.8208Z" fill="#FB8C00"/>
<path d="M295.342 5.97242C282.95 9.84591 272.281 18.6918 272.281 18.6918C272.281 18.6918 268.555 13.6677 270.177 8.59928C270.177 8.59928 272.281 1 282.442 1C289.689 1 293.352 3.98251 295.342 5.97242C301.125 14.1814 293.333 18.7718 293.333 18.7718C290.175 16.3111 287.143 13.6922 284.249 10.9251" fill="white"/>
<path d="M295.342 5.97217C301.124 14.1811 293.333 18.7716 293.333 18.7716C290.175 16.3108 287.143 13.6919 284.249 10.9248" fill="#F9F9F9"/>
<path d="M282.95 16.4082C282.451 16.4082 281.972 16.2099 281.619 15.857C281.266 15.5042 281.068 15.0255 281.068 14.5265V10.7631C281.068 10.264 281.266 9.78538 281.619 9.43249C281.972 9.0796 282.451 8.88135 282.95 8.88135C283.449 8.88135 283.927 9.0796 284.28 9.43249C284.633 9.78538 284.831 10.264 284.831 10.7631V14.5265C284.831 15.0255 284.633 15.5042 284.28 15.857C283.927 16.2099 283.449 16.4082 282.95 16.4082ZM291.588 46.7714L287.437 48.4941V43.5594H292.168L291.588 46.7714Z" fill="#FCEA2B"/>
<path d="M286.713 52.1102C291.696 52.412 296.639 51.0517 300.766 48.2423C300.766 48.2423 302.647 36.0112 291.357 36.0112C288.354 38.0134 285.782 39.3964 282.889 39.3908H283.007C280.115 39.3964 277.543 38.0134 274.539 36.0112C263.249 36.0112 265.131 48.2423 265.131 48.2423C274.519 53.9063 278.649 51.731 291.587 46.7727L292.167 43.4609L269.523 44.7311" stroke="black" stroke-width="2" stroke-linecap="round" stroke-linejoin="round"/>
<path d="M291.905 39.7388L292.655 42.0721L291.588 46.7717" stroke="black" stroke-width="2" stroke-linecap="round" stroke-linejoin="round"/>
<path d="M288.595 19.2054C288.595 19.5776 288.484 19.9414 288.278 20.2509C288.071 20.5603 287.777 20.8015 287.433 20.9439C287.089 21.0863 286.711 21.1236 286.346 21.051C285.981 20.9784 285.646 20.7992 285.382 20.536C285.119 20.2728 284.94 19.9376 284.867 19.5725C284.795 19.2075 284.832 18.8292 284.975 18.4853C285.117 18.1415 285.358 17.8476 285.668 17.6409C285.977 17.4341 286.341 17.3237 286.713 17.3237C287.212 17.3237 287.691 17.522 288.044 17.8749C288.396 18.2278 288.595 18.7064 288.595 19.2054ZM281.068 19.2054C281.068 19.5776 280.958 19.9414 280.751 20.2509C280.544 20.5603 280.25 20.8015 279.906 20.9439C279.562 21.0863 279.184 21.1236 278.819 21.051C278.454 20.9784 278.119 20.7992 277.856 20.536C277.592 20.2728 277.413 19.9376 277.341 19.5725C277.268 19.2075 277.305 18.8292 277.448 18.4853C277.59 18.1415 277.831 17.8476 278.141 17.6409C278.45 17.4341 278.814 17.3237 279.186 17.3237C279.685 17.3237 280.164 17.522 280.517 17.8749C280.87 18.2278 281.068 18.7064 281.068 19.2054ZM282.95 28.6159C281.82 28.605 280.709 28.3285 279.706 27.8086C279.482 27.6969 279.313 27.5012 279.234 27.2644C279.155 27.0276 279.173 26.7692 279.285 26.546C279.397 26.3228 279.592 26.1531 279.829 26.0742C280.066 25.9953 280.324 26.0138 280.548 26.1254C281.286 26.5234 282.111 26.7318 282.949 26.7318C283.788 26.7318 284.613 26.5234 285.351 26.1254C285.574 26.0138 285.833 25.9954 286.069 26.0743C286.306 26.1533 286.502 26.3231 286.614 26.5465C286.725 26.7698 286.744 27.0283 286.665 27.2652C286.586 27.5021 286.416 27.6979 286.193 27.8096C285.19 28.3289 284.079 28.6052 282.95 28.6159Z" fill="black"/>
<path d="M281.07 12.6007C279.865 13.3252 278.746 14.0402 277.749 14.7082C274.804 16.6746 272.847 18.2365 272.386 18.6034C272.32 18.6598 272.282 18.6881 272.282 18.6881C272.282 18.6881 268.556 13.6639 270.175 8.6021C270.175 8.6021 272.282 1 282.443 1C289.688 1 293.348 3.98251 295.343 5.97712C300.593 13.4193 294.665 17.8789 293.517 18.6504C293.395 18.7351 293.329 18.7727 293.329 18.7727C293.329 18.7727 289.18 15.5927 284.833 11.4811" stroke="black" stroke-width="2" stroke-linecap="round" stroke-linejoin="round"/>
<path d="M284.805 10.4743C288.172 8.65578 291.7 7.15037 295.343 5.97705" stroke="black" stroke-width="2" stroke-linecap="round" stroke-linejoin="round"/>
<path d="M287.437 43.835V48.3022M272.355 18.7744C272.295 19.3502 272.265 19.9286 272.265 20.5075C272.265 27.8725 277.042 33.8422 282.934 33.8422C288.825 33.8422 293.601 27.8725 293.601 20.5075C293.602 19.9104 293.57 19.3136 293.507 18.7199M282.95 16.4082C282.451 16.4082 281.972 16.2099 281.619 15.857C281.266 15.5042 281.068 15.0255 281.068 14.5265V10.7631C281.068 10.264 281.266 9.78538 281.619 9.43249C281.972 9.0796 282.451 8.88135 282.95 8.88135C283.449 8.88135 283.927 9.0796 284.28 9.43249C284.633 9.78538 284.831 10.264 284.831 10.7631V14.5265C284.831 15.0255 284.633 15.5042 284.28 15.857C283.927 16.2099 283.449 16.4082 282.95 16.4082Z" stroke="black" stroke-width="2" stroke-linecap="round" stroke-linejoin="round"/>
</svg>
