<svg width="271" height="117" viewBox="0 0 271 117" fill="none" xmlns="http://www.w3.org/2000/svg">
<path d="M262.241 116.469H8.52682C6.26617 116.467 4.09885 115.568 2.50033 113.97C0.901803 112.372 0.00261033 110.205 0 107.945V8.5244C0.00261033 6.26439 0.901803 4.09769 2.50033 2.49962C4.09885 0.901548 6.26617 0.00260959 8.52682 0H262.241C264.502 0.00260959 266.669 0.901548 268.268 2.49962C269.866 4.09769 270.765 6.26439 270.768 8.5244V107.945C270.765 110.205 269.866 112.372 268.268 113.97C266.669 115.568 264.502 116.467 262.241 116.469Z" fill="#F2F2F2"/>
<path d="M203.069 111.033H48.7999C37.304 111.02 26.2826 106.448 18.1538 98.3218C10.0249 90.1953 5.45242 79.177 5.43945 67.6844V48.7896C5.45241 37.2969 10.0249 26.2787 18.1537 18.1521C26.2826 10.0255 37.3039 5.4542 48.7999 5.44116H221.969C233.465 5.4542 244.486 10.0255 252.615 18.1521C260.744 26.2787 265.317 37.2969 265.33 48.7896C265.311 65.2918 258.745 81.1126 247.073 92.7814C235.401 104.45 219.576 111.014 203.069 111.033Z" fill="white"/>
<path d="M163.274 33.902H61.3001C60.7169 33.902 60.1576 33.6704 59.7452 33.2581C59.3328 32.8458 59.1011 32.2866 59.1011 31.7036C59.1011 31.1205 59.3328 30.5613 59.7452 30.149C60.1576 29.7368 60.7169 29.5051 61.3001 29.5051H163.274C163.857 29.5051 164.417 29.7368 164.829 30.149C165.241 30.5613 165.473 31.1205 165.473 31.7036C165.473 32.2866 165.241 32.8458 164.829 33.2581C164.417 33.6704 163.857 33.902 163.274 33.902Z" fill="#E6E6E6"/>
<path d="M214.895 57.3578H61.3001C60.7169 57.3578 60.1576 57.1262 59.7452 56.7139C59.3328 56.3016 59.1011 55.7424 59.1011 55.1594C59.1011 54.5763 59.3328 54.0171 59.7452 53.6048C60.1576 53.1926 60.7169 52.9609 61.3001 52.9609H214.895C215.478 52.9609 216.037 53.1926 216.45 53.6048C216.862 54.0171 217.094 54.5763 217.094 55.1594C217.094 55.7424 216.862 56.3016 216.45 56.7139C216.037 57.1262 215.478 57.3578 214.895 57.3578Z" fill="#E6E6E6"/>
<path d="M214.895 80.8139H61.3001C60.7169 80.8139 60.1576 80.5823 59.7452 80.17C59.3328 79.7577 59.1011 79.1985 59.1011 78.6154C59.1011 78.0324 59.3328 77.4732 59.7452 77.0609C60.1576 76.6486 60.7169 76.417 61.3001 76.417H214.895C215.478 76.417 216.037 76.6486 216.45 77.0609C216.862 77.4732 217.094 78.0324 217.094 78.6154C217.094 79.1985 216.862 79.7577 216.45 80.17C216.037 80.5823 215.478 80.8139 214.895 80.8139Z" fill="#E6E6E6"/>
<path d="M214.895 80.8139H61.3001C60.7169 80.8139 60.1576 80.5823 59.7452 80.17C59.3328 79.7577 59.1011 79.1985 59.1011 78.6154C59.1011 78.0324 59.3328 77.4732 59.7452 77.0609C60.1576 76.6486 60.7169 76.417 61.3001 76.417H214.895C215.478 76.417 216.037 76.6486 216.45 77.0609C216.862 77.4732 217.094 78.0324 217.094 78.6154C217.094 79.1985 216.862 79.7577 216.45 80.17C216.037 80.5823 215.478 80.8139 214.895 80.8139Z" fill="#E6E6E6"/>
<path d="M130.135 84.7028C145.725 84.7028 158.364 72.0676 158.364 56.4813C158.364 40.895 145.725 28.2598 130.135 28.2598C114.544 28.2598 101.905 40.895 101.905 56.4813C101.905 72.0676 114.544 84.7028 130.135 84.7028Z" fill="#F9A826"/>
<path d="M129.142 67.8021C128.763 67.8021 128.39 67.7139 128.051 67.5445C127.712 67.375 127.417 67.129 127.19 66.826L121.204 58.8474C121.012 58.5911 120.872 58.2995 120.793 57.9891C120.713 57.6787 120.696 57.3557 120.741 57.0386C120.786 56.7214 120.894 56.4162 121.057 56.1406C121.22 55.8649 121.436 55.624 121.693 55.4318C122.21 55.0436 122.861 54.8769 123.502 54.9684C123.819 55.0138 124.124 55.1211 124.4 55.2844C124.676 55.4476 124.917 55.6635 125.109 55.9199L129.025 61.1392L139.083 46.0574C139.442 45.519 140 45.1452 140.635 45.0183C141.269 44.8914 141.928 45.0218 142.467 45.3807C143.006 45.7397 143.379 46.2978 143.506 46.9323C143.633 47.5668 143.503 48.2258 143.144 48.7642L131.173 66.7156C130.956 67.0402 130.665 67.3083 130.324 67.4972C129.982 67.6861 129.6 67.7904 129.21 67.8013C129.187 67.8017 129.165 67.8021 129.142 67.8021Z" fill="white"/>
</svg>
