<svg width="59" height="61" viewBox="0 0 59 61" fill="none" xmlns="http://www.w3.org/2000/svg">
<path d="M44.8714 1.82775L44.8705 1.82914C44.7985 1.94359 44.7629 2.07542 44.767 2.20814C44.7711 2.34087 44.8148 2.47056 44.894 2.58078L47.4352 6.10642L48.366 7.39785L47.0216 8.25031L33.9788 16.5202L32.885 17.2137L32.0394 16.2328L23.4294 6.24511L23.4288 6.24447C23.1661 5.93937 22.8054 5.72917 22.404 5.65067C22.0026 5.57216 21.5865 5.63051 21.2239 5.81526L44.8714 1.82775ZM44.8714 1.82775C44.9434 1.71305 45.0492 1.62024 45.1771 1.56284C45.3049 1.50548 45.4477 1.48666 45.5871 1.50939C45.5873 1.50943 45.5875 1.50946 45.5878 1.5095L56.9143 3.38429L56.9144 3.38431C57.1017 3.41529 57.2656 3.51825 57.3722 3.66617C57.4785 3.81364 57.5202 3.99479 57.4908 4.17036L55.6053 15.4101C55.6053 15.4104 55.6052 15.4107 55.6052 15.411C55.5829 15.5419 55.5218 15.6649 55.4278 15.7641C55.3335 15.8636 55.2101 15.9345 55.0724 15.9661C54.9347 15.9977 54.7906 15.9879 54.6589 15.9385C54.5273 15.8891 54.4154 15.8029 54.3359 15.6926L54.3352 15.6916L51.2772 11.4517L50.4508 10.3059L49.2575 11.0623L33.5093 21.0456L33.5085 21.0461C33.1411 21.2793 32.6994 21.3737 32.2654 21.3101C31.8316 21.2464 31.438 21.0297 31.1562 20.7031L22.3747 10.5192L21.6061 9.62784L20.5576 10.1623L4.13509 18.5327L4.13464 18.5329C3.70732 18.7509 3.20891 18.7919 2.75022 18.646C2.29183 18.5001 1.91436 18.1808 1.69754 17.7626C1.48094 17.3448 1.44089 16.86 1.58519 16.4138C1.72956 15.9674 2.04804 15.5924 2.47484 15.3746C2.47493 15.3745 2.47502 15.3745 2.47511 15.3744L21.2236 5.81539L44.8714 1.82775ZM2.70924 31.0526L2.71002 31.0521L13.257 25.0675V59.5H3.60892C2.60169 59.5 1.80415 58.6915 1.80415 57.7218V32.5901C1.80486 32.2798 1.888 31.9744 2.04612 31.7047C2.20448 31.4346 2.43282 31.2092 2.70924 31.0526ZM29.8275 36.1706L34.9274 33.6426V59.5H21.7651L21.7689 24.9987L27.8616 35.5753L28.565 36.7964L29.8275 36.1706ZM54.2819 59.5H43.4353V29.4233L53.4715 24.4435C53.7475 24.3068 54.055 24.242 54.3644 24.2559C54.6739 24.2699 54.9738 24.362 55.2358 24.5228C55.4977 24.6834 55.7125 24.907 55.8609 25.1711C56.0092 25.4351 56.0867 25.7315 56.0867 26.0323V57.7218C56.0867 58.1895 55.8995 58.6405 55.5624 58.9749C55.2248 59.3097 54.7645 59.5 54.2819 59.5Z" fill="#F9A826" stroke="#6B4B46" stroke-width="3"/>
</svg>
