<svg width="14" height="11" viewBox="0 0 14 11" fill="none" xmlns="http://www.w3.org/2000/svg">
<path d="M6.207 10.6948C6.01947 10.8822 5.76516 10.9875 5.5 10.9875C5.23484 10.9875 4.98053 10.8822 4.793 10.6948L0.293 6.19476C0.105529 6.00723 0.000213623 5.75293 0.000213623 5.48776C0.000213623 5.2226 0.105529 4.96829 0.293 4.78076L4.793 0.280763C4.9816 0.0986042 5.2342 -0.00218964 5.4964 8.86917e-05C5.7586 0.00236702 6.00941 0.107536 6.19482 0.292944C6.38023 0.478352 6.4854 0.729165 6.48767 0.991362C6.48995 1.25356 6.38916 1.50616 6.207 1.69476L3.5 4.48776L13 4.48776C13.2652 4.48776 13.5196 4.59312 13.7071 4.78066C13.8946 4.96819 14 5.22255 14 5.48776C14 5.75298 13.8946 6.00733 13.7071 6.19487C13.5196 6.38241 13.2652 6.48776 13 6.48776L3.5 6.48776L6.207 9.28076C6.39447 9.46829 6.49979 9.7226 6.49979 9.98776C6.49979 10.2529 6.39447 10.5072 6.207 10.6948Z" fill="#FB8C00"/>
</svg>
