<svg width="119" height="119" viewBox="0 0 119 119" fill="none" xmlns="http://www.w3.org/2000/svg">
<path d="M2.04492 72.7016L4.09024 0L53.9215 4.64844L50.5746 74.7469L2.04492 72.7016Z" fill="#ED4C5C"/>
<path d="M52.992 33.4688L53.3639 24.1719L35.5139 22.6844L36.4436 2.04531L24.7295 0.929688L23.9857 16.7344L23.7998 21.7547L2.60293 20.0813L2.41699 30.6797L23.6139 31.9813L22.3123 74.561L33.8404 75.1188L35.142 32.5391L52.992 33.4688Z" fill="#FCBE10"/>
<path d="M19.7094 24.7297C19.7094 24.7297 18.9656 36.4438 10.2266 43.1376L17.85 43.8813L16.9203 53.1782C16.9203 53.1782 25.8453 42.7657 27.3328 25.4735L19.7094 24.7297ZM39.2328 26.5891C39.2328 26.5891 37.7453 38.3032 45.1828 46.4844L37.5594 45.7407L36.6297 55.0376C36.6297 55.0376 29.75 43.1376 31.4234 25.8454L39.2328 26.5891Z" fill="#FFCE31"/>
<path d="M28.6345 26.217C28.4486 29.192 24.7298 31.7952 20.6392 31.9811L17.2923 32.167C13.2017 32.353 10.5986 30.8655 11.5283 28.6342C12.458 26.403 12.8298 23.0561 12.272 20.8248C11.7142 18.5936 14.5033 17.478 18.5939 18.4077L21.7548 19.1514C25.8455 20.0811 28.8205 23.242 28.6345 26.217Z" fill="#FFE62E"/>
<path d="M12.6428 29.0064C12.2709 29.1923 12.6428 29.5642 12.6428 29.7502C13.0147 30.122 13.9444 30.6798 15.6178 30.8658H17.2913L20.6381 30.6798C22.8694 30.4939 25.1006 29.5642 26.4022 28.2627C26.4022 28.4486 16.7334 25.6595 12.6428 29.0064Z" fill="#FFCE31"/>
<path d="M30.1215 26.2176C29.9356 29.1926 32.9106 32.3535 36.8153 33.2832L39.9762 34.0269C43.8809 34.9566 46.8559 33.841 46.2981 31.6097C45.7403 29.3785 46.1122 25.8457 47.0419 23.8004C47.9715 21.7551 45.3684 20.0816 41.2778 20.2676L37.9309 20.4535C34.0262 20.8254 30.4934 23.2426 30.1215 26.2176Z" fill="#FFE62E"/>
<path d="M45.3695 31.9819C45.7413 32.3538 45.1835 32.5397 45.1835 32.7257C44.8116 33.0975 43.696 33.4694 42.0226 33.2835C41.4648 33.2835 40.907 33.0975 40.3491 33.0975L37.1882 32.3538C34.957 31.796 33.0976 30.4944 31.982 29.0069C31.982 28.821 42.0226 28.0772 45.3695 31.9819ZM29.0069 25.2882C29.0069 25.2882 27.8913 26.0319 25.846 23.8007C23.4288 21.1975 18.9663 23.9866 24.1726 25.846C26.9616 26.7757 29.0069 25.2882 29.0069 25.2882ZM29.9366 25.4741C29.9366 25.4741 30.8663 26.4038 33.4695 24.5444C36.4445 22.4991 40.1632 25.846 34.771 26.7757C31.796 27.1475 29.9366 25.4741 29.9366 25.4741Z" fill="#FFCE31"/>
<path d="M29.0068 30.3084C26.7756 30.1224 26.2178 31.6099 26.5896 26.0318C27.1474 20.4537 27.5193 22.1271 29.7506 22.3131C31.9818 22.499 32.5396 21.0115 32.1678 26.5896C31.7959 32.1678 31.2381 30.4943 29.0068 30.3084Z" fill="#FFCE31"/>
<path d="M29.0074 30.3079C27.3339 30.122 26.5902 31.7954 27.148 26.0314C27.7058 20.2673 27.8917 21.9407 29.7511 22.1267C31.4245 22.3126 32.1683 20.6392 31.6105 26.4032C31.0527 32.1673 30.8667 30.4939 29.0074 30.3079Z" fill="#FFE62E"/>
<path d="M72.1436 22.8703L81.0686 0L114.723 10.4125L109.517 29.0063L72.1436 22.8703Z" fill="#C28FEF"/>
<path d="M84.6016 24.9157L96.3156 26.7751L102.823 6.50791L91.6672 2.9751L84.6016 24.9157Z" fill="#FFE62E"/>
<path d="M60.2441 20.825V57.0828L119 56.525V20.825H60.2441Z" fill="#42ADE2"/>
<path d="M60.2434 20.825L50.3887 24.7296V57.0828H60.2434V20.825Z" fill="#0071BC"/>
<path d="M29.75 119L14.875 111.563V48.3438H29.75V119Z" fill="#3E4347"/>
<path d="M14.875 111.563L0 119V48.3438H14.875V111.563ZM29.75 48.3438H119V119H29.75V48.3438Z" fill="#62727A"/>
<path d="M59.499 70.6563C62.5797 70.6563 65.0772 68.1588 65.0772 65.0781C65.0772 61.9974 62.5797 59.5 59.499 59.5C56.4183 59.5 53.9209 61.9974 53.9209 65.0781C53.9209 68.1588 56.4183 70.6563 59.499 70.6563Z" fill="#3E4347"/>
<path d="M96.6865 70.6563C99.7672 70.6563 102.265 68.1588 102.265 65.0781C102.265 61.9974 99.7672 59.5 96.6865 59.5C93.6058 59.5 91.1084 61.9974 91.1084 65.0781C91.1084 68.1588 93.6058 70.6563 96.6865 70.6563Z" fill="#3E4347"/>
<path d="M57.6406 65.0778V84.6012C57.6406 97.059 64.8922 107.286 78.0938 107.843C84.9734 108.029 91.1094 104.125 95.2 98.7325C98.175 94.6419 98.5469 89.6215 98.5469 84.6012V65.0778C98.5469 62.6606 94.8281 62.6606 94.8281 65.0778V88.6919C94.4563 97.6169 86.4609 103.939 78.0938 104.125C69.9125 104.311 63.4047 98.1747 61.7313 90.5512C60.9875 87.3903 61.3594 83.6715 61.3594 80.5106V65.0778C61.3594 62.6606 57.6406 62.6606 57.6406 65.0778Z" fill="#D0D0D0"/>
</svg>
