<svg width="12" height="12" viewBox="0 0 12 12" fill="none" xmlns="http://www.w3.org/2000/svg">
<path d="M9.55778 1.23284H8.43333V0.670621C8.43333 0.52151 8.3741 0.378507 8.26866 0.273069C8.16323 0.167632 8.02022 0.108398 7.87111 0.108398C7.722 0.108398 7.579 0.167632 7.47356 0.273069C7.36812 0.378507 7.30889 0.52151 7.30889 0.670621V1.23284H3.93556V0.670621C3.93556 0.52151 3.87632 0.378507 3.77088 0.273069C3.66545 0.167632 3.52244 0.108398 3.37333 0.108398C3.22422 0.108398 3.08122 0.167632 2.97578 0.273069C2.87035 0.378507 2.81111 0.52151 2.81111 0.670621V1.23284H1.68667C1.23933 1.23284 0.810325 1.41054 0.494013 1.72686C0.177702 2.04317 0 2.47218 0 2.91951V9.66618C0 10.1135 0.177702 10.5425 0.494013 10.8588C0.810325 11.1751 1.23933 11.3528 1.68667 11.3528H9.55778C10.0051 11.3528 10.4341 11.1751 10.7504 10.8588C11.0667 10.5425 11.2444 10.1135 11.2444 9.66618V2.91951C11.2444 2.47218 11.0667 2.04317 10.7504 1.72686C10.4341 1.41054 10.0051 1.23284 9.55778 1.23284ZM10.12 9.66618C10.12 9.81529 10.0608 9.95829 9.95533 10.0637C9.84989 10.1692 9.70689 10.2284 9.55778 10.2284H1.68667C1.53756 10.2284 1.39455 10.1692 1.28912 10.0637C1.18368 9.95829 1.12444 9.81529 1.12444 9.66618V5.73062H10.12V9.66618ZM10.12 4.60618H1.12444V2.91951C1.12444 2.7704 1.18368 2.6274 1.28912 2.52196C1.39455 2.41652 1.53756 2.35729 1.68667 2.35729H2.81111V2.91951C2.81111 3.06862 2.87035 3.21162 2.97578 3.31706C3.08122 3.4225 3.22422 3.48173 3.37333 3.48173C3.52244 3.48173 3.66545 3.4225 3.77088 3.31706C3.87632 3.21162 3.93556 3.06862 3.93556 2.91951V2.35729H7.30889V2.91951C7.30889 3.06862 7.36812 3.21162 7.47356 3.31706C7.579 3.4225 7.722 3.48173 7.87111 3.48173C8.02022 3.48173 8.16323 3.4225 8.26866 3.31706C8.3741 3.21162 8.43333 3.06862 8.43333 2.91951V2.35729H9.55778C9.70689 2.35729 9.84989 2.41652 9.95533 2.52196C10.0608 2.6274 10.12 2.7704 10.12 2.91951V4.60618Z" fill="#263238"/>
</svg>
