<svg width="74" height="74" viewBox="0 0 74 74" fill="none" xmlns="http://www.w3.org/2000/svg">
<circle opacity="0.66" cx="37" cy="37" r="37" fill="#FB8C00"/>
<path d="M37.3335 40.332C39.5426 40.332 41.3335 38.5412 41.3335 36.332C41.3335 34.1229 39.5426 32.332 37.3335 32.332C35.1244 32.332 33.3335 34.1229 33.3335 36.332C33.3335 38.5412 35.1244 40.332 37.3335 40.332Z" stroke="black" stroke-width="1.5"/>
<path d="M34.3706 47H40.296C44.4573 47 46.5386 47 48.0333 46.02C48.6782 45.5973 49.2336 45.0518 49.6679 44.4147C50.6666 42.948 50.6666 40.904 50.6666 36.8187C50.6666 32.732 50.6666 30.6894 49.6679 29.2227C49.2337 28.5855 48.6782 28.0401 48.0333 27.6174C47.0733 26.9867 45.8706 26.7614 44.0293 26.6814C43.1506 26.6814 42.3946 26.0281 42.2226 25.1814C42.0912 24.5612 41.7496 24.0054 41.2558 23.608C40.7619 23.2105 40.1459 22.9958 39.512 23.0001H35.1546C33.8373 23.0001 32.7026 23.9134 32.444 25.1814C32.272 26.0281 31.516 26.6814 30.6373 26.6814C28.7973 26.7614 27.5947 26.9881 26.6333 27.6174C25.9888 28.0401 25.4338 28.5856 25 29.2227C24 30.6894 24 32.732 24 36.8187C24 40.904 24 42.9467 24.9987 44.4147C25.4307 45.0493 25.9853 45.5947 26.6333 46.02C28.128 47 30.2093 47 34.3706 47Z" stroke="black" stroke-width="1.5"/>
<path d="M46.6668 32.332H45.3335" stroke="black" stroke-width="1.5" stroke-linecap="round"/>
</svg>
