<svg width="132" height="123" viewBox="0 0 132 123" fill="none" xmlns="http://www.w3.org/2000/svg">
<path d="M108 102H12C5.4 102 0 96.6 0 90V12C0 5.4 5.4 0 12 0H108C114.6 0 120 5.4 120 12V90C120 96.6 114.6 102 108 102Z" fill="#FFC882"/>
<path d="M93 36C97.9706 36 102 31.9706 102 27C102 22.0294 97.9706 18 93 18C88.0294 18 84 22.0294 84 27C84 31.9706 88.0294 36 93 36Z" fill="#B3DDF5"/>
<path d="M48 27L15 75H81L48 27Z" fill="#9AC9E3"/>
<path d="M81 45L57 75H105L81 45Z" fill="#B3DDF5"/>
<path d="M102 123C118.569 123 132 109.569 132 93C132 76.4315 118.569 63 102 63C85.4315 63 72 76.4315 72 93C72 109.569 85.4315 123 102 123Z" fill="#F44336"/>
<path d="M117.93 102.543L111.57 108.909L86.1152 83.4571L92.4782 77.0911L117.93 102.543Z" fill="white"/>
<path d="M92.4568 108.93L86.0908 102.57L111.543 77.115L117.909 83.478L92.4568 108.93Z" fill="white"/>
</svg>
