<svg width="324" height="305" viewBox="0 0 324 305" fill="none" xmlns="http://www.w3.org/2000/svg">
<rect width="324" height="305" rx="16" fill="#F9F9F9"/>
<rect x="0.25" y="0.25" width="323.5" height="304.5" rx="15.75" stroke="#2E2C43" stroke-opacity="0.1" stroke-width="0.5"/>
<path d="M158.583 152.417H132V147.583H158.583V121H163.417V147.583H190V152.417H163.417V179H158.583V152.417Z" fill="#FB8C00"/>
<path d="M113.688 231.416C113.688 230.328 113.933 229.352 114.424 228.488C114.915 227.613 115.581 226.931 116.424 226.44C117.277 225.949 118.221 225.704 119.256 225.704C120.472 225.704 121.533 225.997 122.44 226.584C123.347 227.171 124.008 228.003 124.424 229.08H122.68C122.371 228.408 121.923 227.891 121.336 227.528C120.76 227.165 120.067 226.984 119.256 226.984C118.477 226.984 117.779 227.165 117.16 227.528C116.541 227.891 116.056 228.408 115.704 229.08C115.352 229.741 115.176 230.52 115.176 231.416C115.176 232.301 115.352 233.08 115.704 233.752C116.056 234.413 116.541 234.925 117.16 235.288C117.779 235.651 118.477 235.832 119.256 235.832C120.067 235.832 120.76 235.656 121.336 235.304C121.923 234.941 122.371 234.424 122.68 233.752H124.424C124.008 234.819 123.347 235.645 122.44 236.232C121.533 236.808 120.472 237.096 119.256 237.096C118.221 237.096 117.277 236.856 116.424 236.376C115.581 235.885 114.915 235.208 114.424 234.344C113.933 233.48 113.688 232.504 113.688 231.416ZM128.047 225.16V237H126.591V225.16H128.047ZM131.281 226.808C131.004 226.808 130.769 226.712 130.577 226.52C130.385 226.328 130.289 226.093 130.289 225.816C130.289 225.539 130.385 225.304 130.577 225.112C130.769 224.92 131.004 224.824 131.281 224.824C131.548 224.824 131.772 224.92 131.953 225.112C132.145 225.304 132.241 225.539 132.241 225.816C132.241 226.093 132.145 226.328 131.953 226.52C131.772 226.712 131.548 226.808 131.281 226.808ZM131.985 228.232V237H130.529V228.232H131.985ZM133.922 232.6C133.922 231.693 134.104 230.904 134.466 230.232C134.829 229.549 135.33 229.021 135.97 228.648C136.621 228.275 137.362 228.088 138.194 228.088C139.272 228.088 140.157 228.349 140.85 228.872C141.554 229.395 142.018 230.12 142.242 231.048H140.674C140.525 230.515 140.232 230.093 139.794 229.784C139.368 229.475 138.834 229.32 138.194 229.32C137.362 229.32 136.69 229.608 136.178 230.184C135.666 230.749 135.41 231.555 135.41 232.6C135.41 233.656 135.666 234.472 136.178 235.048C136.69 235.624 137.362 235.912 138.194 235.912C138.834 235.912 139.368 235.763 139.794 235.464C140.221 235.165 140.514 234.739 140.674 234.184H142.242C142.008 235.08 141.538 235.8 140.834 236.344C140.13 236.877 139.25 237.144 138.194 237.144C137.362 237.144 136.621 236.957 135.97 236.584C135.33 236.211 134.829 235.683 134.466 235C134.104 234.317 133.922 233.517 133.922 232.6ZM149.081 237L145.641 233.128V237H144.185V225.16H145.641V232.12L149.017 228.232H151.049L146.921 232.6L151.065 237H149.081ZM168.407 229.112C168.407 230.04 168.087 230.813 167.447 231.432C166.817 232.04 165.852 232.344 164.551 232.344H162.407V237H160.951V225.848H164.551C165.809 225.848 166.764 226.152 167.415 226.76C168.076 227.368 168.407 228.152 168.407 229.112ZM164.551 231.144C165.361 231.144 165.959 230.968 166.343 230.616C166.727 230.264 166.919 229.763 166.919 229.112C166.919 227.736 166.129 227.048 164.551 227.048H162.407V231.144H164.551ZM174.568 228.072C175.23 228.072 175.827 228.216 176.36 228.504C176.894 228.781 177.31 229.203 177.608 229.768C177.918 230.333 178.072 231.021 178.072 231.832V237H176.632V232.04C176.632 231.165 176.414 230.499 175.976 230.04C175.539 229.571 174.942 229.336 174.184 229.336C173.416 229.336 172.803 229.576 172.344 230.056C171.896 230.536 171.672 231.235 171.672 232.152V237H170.216V225.16H171.672V229.48C171.96 229.032 172.355 228.685 172.856 228.44C173.368 228.195 173.939 228.072 174.568 228.072ZM184.275 237.144C183.453 237.144 182.707 236.957 182.035 236.584C181.373 236.211 180.851 235.683 180.467 235C180.093 234.307 179.907 233.507 179.907 232.6C179.907 231.704 180.099 230.915 180.483 230.232C180.877 229.539 181.411 229.011 182.083 228.648C182.755 228.275 183.507 228.088 184.339 228.088C185.171 228.088 185.923 228.275 186.595 228.648C187.267 229.011 187.795 229.533 188.179 230.216C188.573 230.899 188.771 231.693 188.771 232.6C188.771 233.507 188.568 234.307 188.163 235C187.768 235.683 187.229 236.211 186.547 236.584C185.864 236.957 185.107 237.144 184.275 237.144ZM184.275 235.864C184.797 235.864 185.288 235.741 185.747 235.496C186.205 235.251 186.573 234.883 186.851 234.392C187.139 233.901 187.283 233.304 187.283 232.6C187.283 231.896 187.144 231.299 186.867 230.808C186.589 230.317 186.227 229.955 185.779 229.72C185.331 229.475 184.845 229.352 184.323 229.352C183.789 229.352 183.299 229.475 182.851 229.72C182.413 229.955 182.061 230.317 181.795 230.808C181.528 231.299 181.395 231.896 181.395 232.6C181.395 233.315 181.523 233.917 181.779 234.408C182.045 234.899 182.397 235.267 182.835 235.512C183.272 235.747 183.752 235.864 184.275 235.864ZM192.461 229.432V234.6C192.461 235.027 192.552 235.331 192.733 235.512C192.914 235.683 193.229 235.768 193.677 235.768H194.749V237H193.437C192.626 237 192.018 236.813 191.613 236.44C191.208 236.067 191.005 235.453 191.005 234.6V229.432H189.869V228.232H191.005V226.024H192.461V228.232H194.749V229.432H192.461ZM200.337 237.144C199.516 237.144 198.769 236.957 198.097 236.584C197.436 236.211 196.913 235.683 196.529 235C196.156 234.307 195.969 233.507 195.969 232.6C195.969 231.704 196.161 230.915 196.545 230.232C196.94 229.539 197.473 229.011 198.145 228.648C198.817 228.275 199.569 228.088 200.401 228.088C201.233 228.088 201.985 228.275 202.657 228.648C203.329 229.011 203.857 229.533 204.241 230.216C204.636 230.899 204.833 231.693 204.833 232.6C204.833 233.507 204.631 234.307 204.225 235C203.831 235.683 203.292 236.211 202.609 236.584C201.927 236.957 201.169 237.144 200.337 237.144ZM200.337 235.864C200.86 235.864 201.351 235.741 201.809 235.496C202.268 235.251 202.636 234.883 202.913 234.392C203.201 233.901 203.345 233.304 203.345 232.6C203.345 231.896 203.207 231.299 202.929 230.808C202.652 230.317 202.289 229.955 201.841 229.72C201.393 229.475 200.908 229.352 200.385 229.352C199.852 229.352 199.361 229.475 198.913 229.72C198.476 229.955 198.124 230.317 197.857 230.808C197.591 231.299 197.457 231.896 197.457 232.6C197.457 233.315 197.585 233.917 197.841 234.408C198.108 234.899 198.46 235.267 198.897 235.512C199.335 235.747 199.815 235.864 200.337 235.864Z" fill="#FB8C00"/>
</svg>
