<svg width="324" height="305" viewBox="0 0 324 305" fill="none" xmlns="http://www.w3.org/2000/svg">
<rect width="324" height="305" rx="16" fill="#F9F9F9"/>
<rect x="0.25" y="0.25" width="323.5" height="304.5" rx="15.75" stroke="#2E2C43" stroke-opacity="0.1" stroke-width="0.5"/>
<path d="M158.583 152.417H132V147.583H158.583V121H163.417V147.583H190V152.417H163.417V179H158.583V152.417Z" fill="black" fill-opacity="0.2"/>
<path d="M121.688 231.416C121.688 230.328 121.933 229.352 122.424 228.488C122.915 227.613 123.581 226.931 124.424 226.44C125.277 225.949 126.221 225.704 127.256 225.704C128.472 225.704 129.533 225.997 130.44 226.584C131.347 227.171 132.008 228.003 132.424 229.08H130.68C130.371 228.408 129.923 227.891 129.336 227.528C128.76 227.165 128.067 226.984 127.256 226.984C126.477 226.984 125.779 227.165 125.16 227.528C124.541 227.891 124.056 228.408 123.704 229.08C123.352 229.741 123.176 230.52 123.176 231.416C123.176 232.301 123.352 233.08 123.704 233.752C124.056 234.413 124.541 234.925 125.16 235.288C125.779 235.651 126.477 235.832 127.256 235.832C128.067 235.832 128.76 235.656 129.336 235.304C129.923 234.941 130.371 234.424 130.68 233.752H132.424C132.008 234.819 131.347 235.645 130.44 236.232C129.533 236.808 128.472 237.096 127.256 237.096C126.221 237.096 125.277 236.856 124.424 236.376C123.581 235.885 122.915 235.208 122.424 234.344C121.933 233.48 121.688 232.504 121.688 231.416ZM136.047 225.16V237H134.591V225.16H136.047ZM139.281 226.808C139.004 226.808 138.769 226.712 138.577 226.52C138.385 226.328 138.289 226.093 138.289 225.816C138.289 225.539 138.385 225.304 138.577 225.112C138.769 224.92 139.004 224.824 139.281 224.824C139.548 224.824 139.772 224.92 139.953 225.112C140.145 225.304 140.241 225.539 140.241 225.816C140.241 226.093 140.145 226.328 139.953 226.52C139.772 226.712 139.548 226.808 139.281 226.808ZM139.985 228.232V237H138.529V228.232H139.985ZM141.922 232.6C141.922 231.693 142.104 230.904 142.466 230.232C142.829 229.549 143.33 229.021 143.97 228.648C144.621 228.275 145.362 228.088 146.194 228.088C147.272 228.088 148.157 228.349 148.85 228.872C149.554 229.395 150.018 230.12 150.242 231.048H148.674C148.525 230.515 148.232 230.093 147.794 229.784C147.368 229.475 146.834 229.32 146.194 229.32C145.362 229.32 144.69 229.608 144.178 230.184C143.666 230.749 143.41 231.555 143.41 232.6C143.41 233.656 143.666 234.472 144.178 235.048C144.69 235.624 145.362 235.912 146.194 235.912C146.834 235.912 147.368 235.763 147.794 235.464C148.221 235.165 148.514 234.739 148.674 234.184H150.242C150.008 235.08 149.538 235.8 148.834 236.344C148.13 236.877 147.25 237.144 146.194 237.144C145.362 237.144 144.621 236.957 143.97 236.584C143.33 236.211 142.829 235.683 142.466 235C142.104 234.317 141.922 233.517 141.922 232.6ZM157.081 237L153.641 233.128V237H152.185V225.16H153.641V232.12L157.017 228.232H159.049L154.921 232.6L159.065 237H157.081ZM176.407 229.112C176.407 230.04 176.087 230.813 175.447 231.432C174.817 232.04 173.852 232.344 172.551 232.344H170.407V237H168.951V225.848H172.551C173.809 225.848 174.764 226.152 175.415 226.76C176.076 227.368 176.407 228.152 176.407 229.112ZM172.551 231.144C173.361 231.144 173.959 230.968 174.343 230.616C174.727 230.264 174.919 229.763 174.919 229.112C174.919 227.736 174.129 227.048 172.551 227.048H170.407V231.144H172.551ZM182.568 228.072C183.23 228.072 183.827 228.216 184.36 228.504C184.894 228.781 185.31 229.203 185.608 229.768C185.918 230.333 186.072 231.021 186.072 231.832V237H184.632V232.04C184.632 231.165 184.414 230.499 183.976 230.04C183.539 229.571 182.942 229.336 182.184 229.336C181.416 229.336 180.803 229.576 180.344 230.056C179.896 230.536 179.672 231.235 179.672 232.152V237H178.216V225.16H179.672V229.48C179.96 229.032 180.355 228.685 180.856 228.44C181.368 228.195 181.939 228.072 182.568 228.072ZM192.275 237.144C191.453 237.144 190.707 236.957 190.035 236.584C189.373 236.211 188.851 235.683 188.467 235C188.093 234.307 187.907 233.507 187.907 232.6C187.907 231.704 188.099 230.915 188.483 230.232C188.877 229.539 189.411 229.011 190.083 228.648C190.755 228.275 191.507 228.088 192.339 228.088C193.171 228.088 193.923 228.275 194.595 228.648C195.267 229.011 195.795 229.533 196.179 230.216C196.573 230.899 196.771 231.693 196.771 232.6C196.771 233.507 196.568 234.307 196.163 235C195.768 235.683 195.229 236.211 194.547 236.584C193.864 236.957 193.107 237.144 192.275 237.144ZM192.275 235.864C192.797 235.864 193.288 235.741 193.747 235.496C194.205 235.251 194.573 234.883 194.851 234.392C195.139 233.901 195.283 233.304 195.283 232.6C195.283 231.896 195.144 231.299 194.867 230.808C194.589 230.317 194.227 229.955 193.779 229.72C193.331 229.475 192.845 229.352 192.323 229.352C191.789 229.352 191.299 229.475 190.851 229.72C190.413 229.955 190.061 230.317 189.795 230.808C189.528 231.299 189.395 231.896 189.395 232.6C189.395 233.315 189.523 233.917 189.779 234.408C190.045 234.899 190.397 235.267 190.835 235.512C191.272 235.747 191.752 235.864 192.275 235.864ZM200.461 229.432V234.6C200.461 235.027 200.552 235.331 200.733 235.512C200.914 235.683 201.229 235.768 201.677 235.768H202.749V237H201.437C200.626 237 200.018 236.813 199.613 236.44C199.208 236.067 199.005 235.453 199.005 234.6V229.432H197.869V228.232H199.005V226.024H200.461V228.232H202.749V229.432H200.461ZM208.337 237.144C207.516 237.144 206.769 236.957 206.097 236.584C205.436 236.211 204.913 235.683 204.529 235C204.156 234.307 203.969 233.507 203.969 232.6C203.969 231.704 204.161 230.915 204.545 230.232C204.94 229.539 205.473 229.011 206.145 228.648C206.817 228.275 207.569 228.088 208.401 228.088C209.233 228.088 209.985 228.275 210.657 228.648C211.329 229.011 211.857 229.533 212.241 230.216C212.636 230.899 212.833 231.693 212.833 232.6C212.833 233.507 212.631 234.307 212.225 235C211.831 235.683 211.292 236.211 210.609 236.584C209.927 236.957 209.169 237.144 208.337 237.144ZM208.337 235.864C208.86 235.864 209.351 235.741 209.809 235.496C210.268 235.251 210.636 234.883 210.913 234.392C211.201 233.901 211.345 233.304 211.345 232.6C211.345 231.896 211.207 231.299 210.929 230.808C210.652 230.317 210.289 229.955 209.841 229.72C209.393 229.475 208.908 229.352 208.385 229.352C207.852 229.352 207.361 229.475 206.913 229.72C206.476 229.955 206.124 230.317 205.857 230.808C205.591 231.299 205.457 231.896 205.457 232.6C205.457 233.315 205.585 233.917 205.841 234.408C206.108 234.899 206.46 235.267 206.897 235.512C207.335 235.747 207.815 235.864 208.337 235.864Z" fill="#DBCDBB"/>
</svg>
