<svg width="15" height="15" viewBox="0 0 15 15" fill="none" xmlns="http://www.w3.org/2000/svg">
<path d="M10.7681 14.0181L10.5914 13.8414L10.7681 14.0181C10.9166 13.8697 11 13.6683 11 13.4583V11H13.4583C13.6683 11 13.8697 10.9166 14.0181 10.7681L13.8414 10.5914L14.0181 10.7681C14.1666 10.6197 14.25 10.4183 14.25 10.2083V1.54167C14.25 1.3317 14.1666 1.13034 14.0181 0.981874C13.8697 0.833408 13.6683 0.75 13.4583 0.75H4.79167C4.5817 0.75 4.38034 0.833408 4.23187 0.981874C4.08341 1.13034 4 1.3317 4 1.54167V4H1.54167C1.3317 4 1.13034 4.08341 0.981874 4.23187L1.15641 4.40641L0.981874 4.23187C0.833408 4.38034 0.75 4.5817 0.75 4.79167V13.4583C0.75 13.6683 0.833408 13.8697 0.981874 14.0181C1.13034 14.1666 1.3317 14.25 1.54167 14.25H10.2083C10.4183 14.25 10.6197 14.1666 10.7681 14.0181ZM9.41667 12.6667H2.33333V5.58333H9.41667V12.6667ZM12.6667 9.41667H11V4.79167C11 4.5817 10.9166 4.38034 10.7681 4.23187C10.6197 4.08341 10.4183 4 10.2083 4H5.58333V2.33333H12.6667V9.41667Z" fill="#FB8C00" stroke="#FB8C00" stroke-width="0.5"/>
</svg>
