<svg width="389" height="430" viewBox="0 0 389 430" fill="none" xmlns="http://www.w3.org/2000/svg">
<mask id="mask0_1364_2240" style="mask-type:alpha" maskUnits="userSpaceOnUse" x="0" y="-1" width="391" height="431">
<rect y="-1" width="391" height="431" fill="#D9D9D9"/>
</mask>
<g mask="url(#mask0_1364_2240)">
<path d="M224.482 172.608H579.953V350.344H224.482V172.608Z" fill="#CFD8DC"/>
<path d="M224.482 350.344H579.953V387.762H224.482V350.344Z" fill="#B0BEC5"/>
<path d="M261.9 219.381H392.863V322.28H261.9V219.381Z" fill="#E3F2FD"/>
<path d="M271.259 228.736H383.513V312.926H271.259V228.736Z" fill="#FFDD55"/>
<path d="M402.221 200.672C417.72 200.672 430.284 188.107 430.284 172.608C430.284 157.109 417.72 144.545 402.221 144.545C386.722 144.545 374.157 157.109 374.157 172.608C374.157 188.107 386.722 200.672 402.221 200.672Z" fill="#558B2F"/>
<path d="M289.967 200.672C305.466 200.672 318.03 188.107 318.03 172.608C318.03 157.109 305.466 144.545 289.967 144.545C274.468 144.545 261.903 157.109 261.903 172.608C261.903 188.107 274.468 200.672 289.967 200.672Z" fill="#558B2F"/>
<path d="M551.892 51H252.548C242.258 51 233.839 59.419 233.839 69.709V97.7725H570.601V69.709C570.601 59.419 562.182 51 551.892 51ZM374.156 97.7725H430.283V172.608H374.156V97.7725ZM523.828 97.7725H477.056L486.41 172.608H542.537L523.828 97.7725ZM280.611 97.7725H327.384L318.029 172.608H261.902L280.611 97.7725Z" fill="#FB8C00"/>
<path d="M346.094 200.672C361.593 200.672 374.157 188.107 374.157 172.608C374.157 157.109 361.593 144.545 346.094 144.545C330.595 144.545 318.03 157.109 318.03 172.608C318.03 188.107 330.595 200.672 346.094 200.672Z" fill="#FFA000"/>
<path d="M205.773 172.608C205.773 188.511 217.934 200.672 233.837 200.672C249.74 200.672 261.9 188.511 261.9 172.608C261.9 156.706 249.74 144.545 233.837 144.545L205.773 172.608Z" fill="#FFA000"/>
<path d="M477.055 97.7723H430.282V172.608H486.409L477.055 97.7723ZM570.6 97.7723H523.827L542.536 172.608H598.663L570.6 97.7723ZM327.383 97.7723H374.155V172.608H318.028L327.383 97.7723ZM233.838 97.7723H280.61L261.901 172.608H205.774L233.838 97.7723Z" fill="#FFC107"/>
<ellipse cx="-20.5" cy="405" rx="712.5" ry="26" fill="#D9D9D9"/>
<path d="M288.11 327.796C288.11 321.568 283.108 315.963 276.231 315.963H-75.1215C-81.3734 315.963 -87 320.945 -87 327.796V339.629C-87 345.857 -81.9985 351.462 -75.1215 351.462H276.231C282.483 351.462 288.11 346.48 288.11 339.629V327.796Z" fill="#B2C1C0"/>
<path d="M-22.5097 398.795C0.0368538 398.795 18.3145 380.517 18.3145 357.971C18.3145 335.424 0.0368538 317.146 -22.5097 317.146C-45.0563 317.146 -63.334 335.424 -63.334 357.971C-63.334 380.517 -45.0563 398.795 -22.5097 398.795Z" fill="#3E4347"/>
<path d="M-22.5097 381.045C-9.11244 381.045 1.74818 370.714 1.74818 357.971C1.74818 345.227 -9.11244 334.896 -22.5097 334.896C-35.907 334.896 -46.7676 345.227 -46.7676 357.971C-46.7676 370.714 -35.907 381.045 -22.5097 381.045Z" fill="#B2C1C0"/>
<path d="M218.294 398.795C241.167 398.795 259.71 380.517 259.71 357.971C259.71 335.424 241.167 317.146 218.294 317.146C195.42 317.146 176.878 335.424 176.878 357.971C176.878 380.517 195.42 398.795 218.294 398.795Z" fill="#3E4347"/>
<path d="M218.294 381.045C231.365 381.045 241.96 370.714 241.96 357.971C241.96 345.227 231.365 334.896 218.294 334.896C205.224 334.896 194.628 345.227 194.628 357.971C194.628 370.714 205.224 381.045 218.294 381.045Z" fill="#B2C1C0"/>
<path d="M241.288 129H76.9686C57.6002 129 41.9805 144.632 41.9805 164.017V315.963H276.276V164.017C276.276 144.632 260.656 129 241.288 129Z" fill="#62727A"/>
<path d="M-5.37681 176.333C-33.4175 176.333 -40.2719 176.333 -40.2719 223.084C-40.2719 257.992 -75.167 257.992 -75.167 292.899V315.963H41.9808V176.333H-5.37681Z" fill="#F15744"/>
<path d="M-19.0719 257.981C-25.8395 257.981 -29.531 263.03 -27.07 269.341L-17.2262 294.585C-14.7652 300.896 -7.38233 305.313 -0.614697 305.313H17.8425C24.6101 305.313 30.1473 300.265 30.1473 293.323V269.972C30.1473 263.661 24.6101 257.981 17.8425 257.981H-19.0719Z" fill="#D33B23"/>
<path d="M30.6405 187.235H-16.3232C-16.3232 187.235 -28.2207 188.487 -28.2207 204.768V232.946C-28.2207 232.946 -28.2207 246.096 -16.3232 246.096H30.6405V187.235Z" fill="#3E4347"/>
<path d="M-1.92001 374.464C1.19247 374.464 3.71563 371.941 3.71563 368.828C3.71563 365.716 1.19247 363.193 -1.92001 363.193C-5.03249 363.193 -7.55566 365.716 -7.55566 368.828C-7.55566 371.941 -5.03249 374.464 -1.92001 374.464Z" fill="#3E4347"/>
<path d="M-1.92001 351.295C1.19247 351.295 3.71563 348.772 3.71563 345.66C3.71563 342.547 1.19247 340.024 -1.92001 340.024C-5.03249 340.024 -7.55566 342.547 -7.55566 345.66C-7.55566 348.772 -5.03249 351.295 -1.92001 351.295Z" fill="#3E4347"/>
<path d="M218.494 339.398C221.607 339.398 224.13 336.874 224.13 333.762C224.13 330.649 221.607 328.126 218.494 328.126C215.382 328.126 212.858 330.649 212.858 333.762C212.858 336.874 215.382 339.398 218.494 339.398Z" fill="#3E4347"/>
<path d="M197.83 351.295C200.942 351.295 203.466 348.772 203.466 345.659C203.466 342.547 200.942 340.024 197.83 340.024C194.718 340.024 192.194 342.547 192.194 345.659C192.194 348.772 194.718 351.295 197.83 351.295Z" fill="#3E4347"/>
<path d="M194.699 363.819C197.204 361.94 200.961 363.192 202.839 365.697C204.718 368.202 203.466 371.959 200.961 373.838C198.456 375.716 194.699 374.464 192.821 371.959C190.942 368.828 192.194 365.697 194.699 363.819Z" fill="#3E4347"/>
<path d="M218.494 386.361C221.607 386.361 224.13 383.838 224.13 380.726C224.13 377.613 221.607 375.09 218.494 375.09C215.382 375.09 212.858 377.613 212.858 380.726C212.858 383.838 215.382 386.361 218.494 386.361Z" fill="#3E4347"/>
<path d="M238.532 374.464C241.645 374.464 244.168 371.941 244.168 368.828C244.168 365.716 241.645 363.193 238.532 363.193C235.42 363.193 232.896 365.716 232.896 368.828C232.896 371.941 235.42 374.464 238.532 374.464Z" fill="#3E4347"/>
<path d="M238.532 351.295C241.645 351.295 244.168 348.772 244.168 345.659C244.168 342.547 241.645 340.024 238.532 340.024C235.42 340.024 232.896 342.547 232.896 345.659C232.896 348.772 235.42 351.295 238.532 351.295Z" fill="#3E4347"/>
<path d="M218.294 369.212C224.829 369.212 230.127 363.914 230.127 357.379C230.127 350.844 224.829 345.546 218.294 345.546C211.759 345.546 206.461 350.844 206.461 357.379C206.461 363.914 211.759 369.212 218.294 369.212Z" fill="#62727A"/>
<path d="M78.7551 214.452C75.6291 211.916 71.2526 210.648 65.0005 210.648C61.2492 210.648 57.4979 210.648 54.9971 211.282V245.514C56.8727 245.514 59.9988 246.148 63.75 246.148C70.6274 246.148 75.6291 244.246 79.3803 241.076C82.5064 237.907 85.0072 233.469 85.0072 227.13C83.7568 221.425 81.8812 217.622 78.7551 214.452ZM64.3753 241.076H60.624V216.354C61.2492 216.354 63.1248 215.72 65.0005 215.72C73.1282 215.72 77.5047 220.157 77.5047 227.764C77.5047 236.639 72.503 241.076 64.3753 241.076ZM108.765 230.3H95.6359V240.443H110.016V245.514H89.3837V210.648H109.391V216.354H95.6359V225.229H108.765V230.3ZM121.895 240.443V210.648H115.643V245.514H136.275V240.443H121.895ZM140.651 210.648H146.903V245.514H140.651V210.648ZM174.413 210.648L169.411 226.496C168.16 230.934 166.91 234.737 165.66 239.175C165.034 234.737 163.784 230.934 162.534 226.496L157.532 210.648H151.28L162.534 245.514H170.036L181.915 210.648H174.413ZM191.293 240.443V230.3H204.423V225.229H191.293V216.354H205.048V210.648H185.041V245.514H205.673V240.443H191.293ZM233.183 236.005C232.557 232.836 230.682 230.3 228.181 229.032C231.307 227.764 234.433 224.595 234.433 220.157C234.433 216.988 233.183 215.086 231.307 213.184C228.806 211.282 225.68 210.648 220.678 210.648C216.927 210.648 213.801 210.648 211.3 211.282V245.514H217.552V230.934H220.678C224.43 230.934 225.68 232.202 226.93 237.273C228.181 241.71 228.806 244.246 229.431 245.514H235.683C235.058 244.246 234.433 240.443 233.183 236.005ZM221.303 226.496H217.552V215.72H221.303C225.68 215.72 228.181 217.622 228.181 221.425C228.181 224.595 225.68 226.496 221.303 226.496ZM258.191 210.648L253.815 219.523C252.564 222.059 251.939 223.961 250.688 226.496C250.063 223.961 248.813 222.059 247.562 219.523L243.186 210.648H236.309L246.937 230.934V245.514H253.189V230.934L264.443 210.648H258.191Z" fill="white"/>
<path d="M71.6082 199.108V164.202C71.6082 161.086 74.1088 158.592 77.2346 158.592H241.023C244.148 158.592 246.649 161.086 246.649 164.202V199.108H258.527V164.202C258.527 154.853 250.4 146.75 241.023 146.75H77.2346C67.2322 146.75 59.7305 154.853 59.7305 164.202V199.108H71.6082ZM247.274 257.698V280.761C247.274 283.877 244.774 286.371 241.648 286.371H77.2346C74.1088 286.371 71.6082 283.877 71.6082 280.761V257.698H59.7305V280.761C59.7305 290.11 67.8574 298.213 77.2346 298.213H241.023C251.025 298.213 258.527 290.11 258.527 280.761V257.698H247.274Z" fill="#3E4347"/>
<path d="M83.2392 175.337C86.3517 175.337 88.8748 172.814 88.8748 169.702C88.8748 166.589 86.3517 164.066 83.2392 164.066C80.1267 164.066 77.6035 166.589 77.6035 169.702C77.6035 172.814 80.1267 175.337 83.2392 175.337Z" fill="#B2C1C0"/>
<path d="M236.029 175.337C239.142 175.337 241.665 172.814 241.665 169.702C241.665 166.589 239.142 164.066 236.029 164.066C232.917 164.066 230.394 166.589 230.394 169.702C230.394 172.814 232.917 175.337 236.029 175.337Z" fill="#B2C1C0"/>
<path d="M83.2392 281.162C86.3517 281.162 88.8748 278.639 88.8748 275.527C88.8748 272.414 86.3517 269.891 83.2392 269.891C80.1267 269.891 77.6035 272.414 77.6035 275.527C77.6035 278.639 80.1267 281.162 83.2392 281.162Z" fill="#B2C1C0"/>
<path d="M236.029 281.162C239.142 281.162 241.665 278.639 241.665 275.527C241.665 272.414 239.142 269.891 236.029 269.891C232.917 269.891 230.394 272.414 230.394 275.527C230.394 278.639 232.917 281.162 236.029 281.162Z" fill="#B2C1C0"/>
<path d="M135.463 357.379C135.463 363.607 130.52 369.212 123.724 369.212H77.3863C71.208 369.212 65.6475 364.23 65.6475 357.379V345.546C65.6475 339.318 70.5902 333.713 77.3863 333.713H123.724C129.902 333.713 135.463 338.695 135.463 345.546V357.379Z" fill="#62727A"/>
<path d="M79.1165 339.63C75.34 339.63 71.5635 342.259 71.5635 345.546C71.5635 348.833 74.7106 351.463 79.1165 351.463H123.176C126.953 351.463 130.729 348.833 130.729 345.546C130.729 342.259 127.582 339.63 123.176 339.63H79.1165Z" fill="#B2C1C0"/>
</g>
<rect x="158.5" y="30.5" width="86" height="46" rx="3.18059" fill="#FB8C00" stroke="white"/>
<path d="M169.31 60.1314C169.593 58.4982 170.19 57.0456 171.101 55.7736C172.027 54.4859 173.166 53.4887 174.516 52.782C175.867 52.0597 177.304 51.6985 178.827 51.6985C180.602 51.6985 182.054 52.146 183.185 53.0412C184.331 53.9206 185.069 55.1455 185.399 56.7159H184.174C183.907 55.4753 183.287 54.4859 182.313 53.7478C181.355 53.0097 180.138 52.6407 178.662 52.6407C177.359 52.6407 176.126 52.9469 174.964 53.5594C173.802 54.1718 172.812 55.0434 171.996 56.1741C171.195 57.3048 170.661 58.6239 170.394 60.1314C170.3 60.6968 170.253 61.2464 170.253 61.7804C170.253 62.9738 170.496 64.0103 170.983 64.8897C171.47 65.7534 172.145 66.4208 173.009 66.892C173.888 67.3631 174.893 67.5986 176.024 67.5986C177.28 67.5986 178.466 67.316 179.581 66.7506C180.711 66.1853 181.669 65.3844 182.455 64.3479C183.255 63.2958 183.813 62.063 184.127 60.6497H176.754L176.919 59.7781H185.375L185.234 60.4848C184.92 62.0238 184.308 63.4057 183.397 64.6306C182.502 65.8398 181.395 66.7977 180.075 67.5044C178.756 68.1954 177.351 68.5409 175.859 68.5409C174.524 68.5409 173.346 68.266 172.326 67.7164C171.321 67.1668 170.535 66.3894 169.97 65.3844C169.42 64.3636 169.146 63.1937 169.146 61.8746C169.146 61.2778 169.201 60.6968 169.31 60.1314ZM194.895 55.4203C195.978 55.4203 196.897 55.6323 197.651 56.0563C198.42 56.4646 198.993 57.0221 199.37 57.7288C199.763 58.4197 199.959 59.1971 199.959 60.0608C199.959 60.4377 199.928 60.7832 199.865 61.0972C199.771 61.6626 199.676 62.0866 199.582 62.3692H188.535C188.472 62.8718 188.44 63.233 188.44 63.4528C188.44 64.8033 188.849 65.8398 189.665 66.5622C190.482 67.2846 191.51 67.6457 192.751 67.6457C193.992 67.6457 195.091 67.3395 196.049 66.7271C197.022 66.0989 197.713 65.2509 198.122 64.183H199.229C198.726 65.4865 197.886 66.5465 196.708 67.3631C195.546 68.164 194.172 68.5644 192.586 68.5644C191.016 68.5644 189.752 68.109 188.794 67.1982C187.851 66.2874 187.38 65.0468 187.38 63.4764C187.38 62.9896 187.427 62.487 187.522 61.9688C187.757 60.634 188.228 59.4719 188.935 58.4825C189.642 57.4932 190.505 56.7394 191.526 56.2212C192.563 55.6873 193.685 55.4203 194.895 55.4203ZM198.734 61.5448C198.844 61.0894 198.899 60.6261 198.899 60.155C198.899 58.9144 198.499 57.9643 197.698 57.3048C196.913 56.6452 195.915 56.3154 194.706 56.3154C193.811 56.3154 192.947 56.5117 192.115 56.9043C191.283 57.2969 190.56 57.8858 189.948 58.671C189.335 59.4562 188.911 60.4141 188.676 61.5448H198.734ZM209.853 55.3261C211.156 55.3261 212.2 55.6794 212.985 56.3861C213.771 57.077 214.163 58.1057 214.163 59.4719C214.163 59.8959 214.116 60.367 214.022 60.8852L212.703 68.376H211.666L212.985 60.9559C213.064 60.4534 213.103 60.0372 213.103 59.7074C213.103 58.5768 212.789 57.7209 212.161 57.1399C211.533 56.5431 210.653 56.2447 209.523 56.2447C208.204 56.2447 207.065 56.653 206.107 57.4696C205.149 58.2862 204.49 59.4876 204.128 61.0737L202.833 68.376H201.773L204.058 55.5852H205.118L204.647 58.2705C205.181 57.3126 205.903 56.5824 206.814 56.0799C207.74 55.5773 208.753 55.3261 209.853 55.3261ZM219.747 52.7349C219.527 52.7349 219.347 52.6721 219.205 52.5465C219.064 52.4051 218.993 52.2246 218.993 52.0047C218.993 51.6906 219.103 51.4315 219.323 51.2274C219.543 51.0075 219.794 50.8976 220.077 50.8976C220.297 50.8976 220.477 50.9682 220.619 51.1096C220.776 51.2509 220.854 51.4315 220.854 51.6514C220.854 51.9654 220.736 52.2246 220.501 52.4287C220.281 52.6329 220.03 52.7349 219.747 52.7349ZM219.794 55.5852L217.509 68.376H216.449L218.734 55.5852H219.794ZM229.239 55.4203C230.323 55.4203 231.241 55.6323 231.995 56.0563C232.765 56.4646 233.338 57.0221 233.715 57.7288C234.107 58.4197 234.304 59.1971 234.304 60.0608C234.304 60.4377 234.272 60.7832 234.209 61.0972C234.115 61.6626 234.021 62.0866 233.927 62.3692H222.879C222.816 62.8718 222.785 63.233 222.785 63.4528C222.785 64.8033 223.193 65.8398 224.01 66.5622C224.826 67.2846 225.855 67.6457 227.096 67.6457C228.336 67.6457 229.435 67.3395 230.393 66.7271C231.367 66.0989 232.058 65.2509 232.466 64.183H233.573C233.071 65.4865 232.231 66.5465 231.053 67.3631C229.891 68.164 228.517 68.5644 226.931 68.5644C225.36 68.5644 224.096 68.109 223.138 67.1982C222.196 66.2874 221.725 65.0468 221.725 63.4764C221.725 62.9896 221.772 62.487 221.866 61.9688C222.102 60.634 222.573 59.4719 223.28 58.4825C223.986 57.4932 224.85 56.7394 225.871 56.2212C226.907 55.6873 228.03 55.4203 229.239 55.4203ZM233.079 61.5448C233.189 61.0894 233.244 60.6261 233.244 60.155C233.244 58.9144 232.843 57.9643 232.042 57.3048C231.257 56.6452 230.26 56.3154 229.051 56.3154C228.156 56.3154 227.292 56.5117 226.46 56.9043C225.627 57.2969 224.905 57.8858 224.292 58.671C223.68 59.4562 223.256 60.4141 223.02 61.5448H233.079Z" fill="white"/>
<path fill-rule="evenodd" clip-rule="evenodd" d="M173.565 37.9782C173.079 38.0221 172.87 38.0899 172.037 38.4735C171.527 38.7086 170.522 39.618 170.522 39.8448C170.522 39.9373 170.466 40.0131 170.398 40.0131C170.33 40.0131 170.274 40.1188 170.274 40.2479C170.274 40.3771 170.224 40.4828 170.163 40.4828C170.037 40.4828 169.889 41.2432 169.876 41.9507C169.864 42.5746 170.031 43.4186 170.166 43.4186C170.225 43.4186 170.274 43.5243 170.274 43.6535C170.274 43.7827 170.33 43.8883 170.398 43.8883C170.466 43.8883 170.522 43.9549 170.522 44.0363C170.522 44.2398 171.504 45.1801 171.717 45.1801C171.811 45.1801 171.889 45.2292 171.889 45.2891C171.889 45.3491 172.202 45.509 172.585 45.6446C173.665 46.0264 176.289 45.9465 176.789 45.5164C176.854 45.4607 176.984 45.415 177.077 45.415C177.304 45.415 177.603 45.1235 177.603 44.9024C177.603 44.6595 176.226 42.1269 176.094 42.1269C176.036 42.1269 175.988 42.1797 175.988 42.2443C175.988 42.3132 175.557 42.3617 174.945 42.3617C173.854 42.3617 173.752 42.3113 173.752 41.7743C173.752 41.4832 174.315 41.3765 175.318 41.4779C176.145 41.5618 176.485 41.4313 176.485 41.0294C176.485 40.9333 176.526 40.8371 176.578 40.8155C176.726 40.7534 177.603 39.0708 177.603 38.8493C177.603 38.6519 176.842 38.2516 176.468 38.2516C176.368 38.2516 176.233 38.2049 176.168 38.1479C176.03 38.0268 174.287 37.9131 173.565 37.9782ZM187.118 38.2025C186.984 38.5328 187.033 45.4135 187.171 45.6576C187.288 45.8635 187.445 45.8847 188.848 45.8847H190.397V41.9507V38.0167H188.795C187.449 38.0167 187.182 38.0464 187.118 38.2025ZM194.792 38.2881C194.647 38.4295 194.371 38.6508 194.179 38.78C193.987 38.9092 193.714 39.122 193.573 39.2529C193.431 39.3839 193.119 39.6051 192.879 39.7446C192.639 39.8842 192.307 40.1338 192.143 40.2994C191.979 40.4648 191.797 40.6002 191.74 40.6002C191.581 40.6002 190.894 41.2541 190.894 41.4056C190.894 41.4863 191.116 41.5397 191.453 41.5397H192.011V42.6456C192.011 43.8258 192.271 44.6695 192.751 45.0523C192.879 45.1549 193.087 45.3189 193.212 45.4167C193.869 45.9294 195.462 46.0212 196.39 45.5997L196.856 45.3882V44.2342C196.856 43.5915 196.801 43.048 196.732 43.0076C196.663 42.9677 196.607 42.9848 196.607 43.0457C196.607 43.1841 196.041 43.2927 195.726 43.2148C195.522 43.1645 195.49 43.0435 195.49 42.348V41.5397H196.024C196.317 41.5397 196.625 41.4763 196.707 41.3988C196.79 41.32 196.856 40.9421 196.856 40.5415C196.856 40.1409 196.79 39.763 196.707 39.6843C196.625 39.6067 196.317 39.5433 196.024 39.5433H195.49V38.78C195.49 38.1286 195.458 38.0178 195.272 38.0239C195.153 38.0279 194.936 38.1467 194.792 38.2881ZM213.252 39.773V41.5294L214.153 41.5639L215.053 41.5984L215.075 43.5361C215.087 44.6018 215.101 45.5676 215.106 45.6824C215.115 45.8739 215.262 45.8885 216.886 45.8585L218.656 45.826L218.69 43.6828L218.723 41.5397H219.652H220.581V39.7782V38.0167H216.917H213.252V39.773ZM178.299 39.7291C178.147 40.1034 178.216 44.3495 178.379 44.6164C178.622 45.0168 179.246 45.5769 179.627 45.7379C180.407 46.0676 181.635 45.8402 182.23 45.2562C182.554 44.9374 182.571 44.9333 182.571 45.1754C182.571 45.3156 182.629 45.5326 182.7 45.6576C182.816 45.8626 182.972 45.8847 184.31 45.8847C185.648 45.8847 185.804 45.8626 185.921 45.6576C185.999 45.5194 186.049 44.3435 186.049 42.6546C186.049 40.4055 186.015 39.847 185.872 39.7111C185.737 39.5843 185.329 39.5433 184.197 39.5433C182.415 39.5433 182.582 39.3123 182.539 41.8333L182.509 43.5948L182.087 43.6328C181.834 43.6557 181.624 43.609 181.561 43.5154C181.504 43.4299 181.456 42.5645 181.455 41.5925C181.454 40.3766 181.407 39.7813 181.304 39.6843C181.206 39.5915 180.68 39.5433 179.765 39.5433C178.612 39.5433 178.361 39.575 178.299 39.7291ZM197.614 39.7047C197.446 39.896 197.486 43.9289 197.661 44.5239C198.078 45.9374 200.437 46.3635 201.626 45.24C201.797 45.0778 201.968 44.9452 202.005 44.9452C202.043 44.9452 202.073 45.1566 202.073 45.415V45.8847H203.491C204.271 45.8847 204.998 45.8526 205.106 45.8134C205.278 45.7511 205.303 45.3731 205.303 42.7837C205.303 40.6392 205.262 39.7864 205.153 39.6843C204.948 39.4899 202.179 39.4899 201.974 39.6843C201.87 39.7823 201.825 40.4072 201.825 41.7393V43.6535H201.443C200.767 43.6535 200.716 43.5074 200.679 41.463L200.644 39.602L199.203 39.5692C198.071 39.5432 197.73 39.5722 197.614 39.7047ZM206.574 39.6414C206.452 39.7145 206.424 40.4231 206.449 42.781L206.483 45.826H208.097H209.712L209.79 44.2406C209.834 43.3687 209.91 42.5363 209.96 42.3911C210.074 42.0637 210.406 42.0495 210.644 42.3617C210.787 42.55 210.965 42.5966 211.541 42.5966C211.937 42.5966 212.259 42.5439 212.259 42.4792C212.259 42.4146 212.322 42.3617 212.399 42.3617C212.634 42.3617 212.994 41.8859 213.077 41.4658C213.241 40.6423 212.97 40.1144 212.167 39.6901C211.583 39.3813 210.646 39.6164 210.166 40.1924C209.909 40.5022 209.774 40.4622 209.774 40.0757C209.774 39.6148 209.549 39.5432 208.104 39.5451C207.349 39.5462 206.66 39.5895 206.574 39.6414ZM222.879 39.6608C222.742 39.7163 222.491 39.766 222.32 39.7712C222.149 39.7763 221.758 39.8995 221.451 40.0448L220.892 40.3089L220.855 41.2178C220.835 41.7178 220.863 42.126 220.917 42.1251C220.972 42.1242 221.239 42.0471 221.513 41.9541C222.254 41.7015 223.472 41.7209 223.729 41.9893C223.842 42.1075 223.935 42.2396 223.935 42.2829C223.935 42.3263 223.576 42.3617 223.138 42.3617C222.214 42.3617 221.348 42.6616 221.059 43.0818C220.953 43.2347 220.8 43.5546 220.717 43.7926C220.501 44.4149 220.9 45.2773 221.568 45.632C222.117 45.9238 223.082 45.9651 223.556 45.717C223.814 45.582 223.901 45.5833 224.13 45.7251C224.335 45.8516 224.761 45.8844 225.876 45.8592L227.351 45.826L227.385 43.7167C227.423 41.3339 227.334 40.945 226.604 40.3124C226.371 40.1116 225.87 39.8563 225.488 39.7452C224.763 39.5341 223.307 39.487 222.879 39.6608ZM228.556 39.6843C228.446 39.7878 228.407 40.7965 228.407 43.4912C228.407 45.5075 228.441 47.2408 228.482 47.343C228.545 47.4991 228.813 47.5288 230.159 47.5288H231.76V46.5767C231.76 45.7147 231.781 45.633 231.978 45.7133C232.097 45.7619 232.531 45.8251 232.94 45.8535C234.202 45.9411 235.443 45.229 235.931 44.1382C236.277 43.3638 236.138 41.3062 235.703 40.7764C235.298 40.2835 235.098 40.1262 234.528 39.8535C233.75 39.481 233.059 39.4555 232.363 39.7735C231.862 40.002 231.858 40.002 231.795 39.7735C231.736 39.5608 231.617 39.5433 230.218 39.5433C229.207 39.5433 228.655 39.5901 228.556 39.6843ZM232.701 42.2947C232.799 42.3869 232.878 42.6775 232.878 42.9405V43.4186H232.319H231.76V42.944C231.76 42.2223 232.26 41.8775 232.701 42.2947ZM223.911 43.9764C223.949 44.4741 223.948 44.4755 223.521 44.4755C223.162 44.4755 223.079 44.4254 223.011 44.1678C222.913 43.7998 223.244 43.4138 223.624 43.4522C223.823 43.4723 223.88 43.5781 223.911 43.9764Z" fill="white"/>
<rect x="159.702" y="74.7016" width="85.5968" height="16.5968" fill="white" stroke="#FB8C00" stroke-width="1.40323"/>
<path d="M182.371 79.6897C182.275 80.231 182.048 80.6807 181.69 81.0386C181.341 81.3879 180.913 81.6411 180.407 81.7983C180.835 81.8681 181.184 82.0777 181.455 82.4269C181.725 82.7674 181.861 83.1734 181.861 83.6449C181.861 83.7846 181.848 83.9199 181.821 84.0509C181.743 84.5137 181.551 84.9328 181.245 85.3082C180.948 85.6749 180.555 85.9674 180.066 86.1857C179.577 86.3952 179.027 86.5 178.416 86.5H175.011L176.635 77.3715H179.909C180.73 77.3715 181.35 77.5462 181.769 77.8954C182.197 78.2447 182.411 78.6987 182.411 79.2575C182.411 79.3972 182.398 79.5412 182.371 79.6897ZM181.14 79.8337C181.158 79.7552 181.167 79.646 181.167 79.5063C181.167 79.1309 181.036 78.8384 180.774 78.6288C180.512 78.4193 180.132 78.3145 179.634 78.3145H177.657L177.12 81.3399H179.123C179.674 81.3399 180.128 81.2089 180.486 80.947C180.843 80.6763 181.062 80.3052 181.14 79.8337ZM180.643 83.933C180.669 83.8108 180.682 83.6973 180.682 83.5925C180.682 83.1909 180.534 82.8722 180.237 82.6365C179.94 82.4007 179.534 82.2828 179.019 82.2828H176.949L176.373 85.557H178.482C179.067 85.557 179.551 85.413 179.935 85.1248C180.32 84.8367 180.555 84.4394 180.643 83.933ZM190.678 79.323L189.408 86.5H188.216L188.4 85.4523C188.112 85.819 187.745 86.1027 187.3 86.3035C186.854 86.5044 186.391 86.6048 185.911 86.6048C185.16 86.6048 184.558 86.404 184.104 86.0023C183.659 85.592 183.436 85.007 183.436 84.2474C183.436 84.0553 183.458 83.8152 183.501 83.527L184.248 79.323H185.427L184.719 83.3699C184.685 83.5532 184.667 83.7453 184.667 83.9461C184.667 84.4787 184.811 84.8847 185.099 85.1641C185.396 85.4348 185.806 85.5701 186.33 85.5701C186.959 85.5701 187.492 85.3737 187.928 84.9808C188.373 84.5879 188.657 84.016 188.779 83.2651V83.3044L189.487 79.323H190.678ZM193.948 86.6179C193.197 86.6179 192.582 86.4389 192.101 86.0809C191.621 85.7229 191.381 85.2427 191.381 84.6403C191.381 84.5268 191.385 84.4438 191.394 84.3914H192.56C192.525 84.7669 192.634 85.0725 192.887 85.3082C193.149 85.5439 193.525 85.6618 194.014 85.6618C194.503 85.6618 194.895 85.5701 195.192 85.3868C195.498 85.1947 195.651 84.9284 195.651 84.5879C195.651 84.2997 195.528 84.0727 195.284 83.9068C195.039 83.7409 194.664 83.562 194.158 83.3699C193.712 83.204 193.346 83.0468 193.058 82.8984C192.769 82.75 192.525 82.5448 192.324 82.2828C192.123 82.0122 192.023 81.6717 192.023 81.2613C192.023 80.8597 192.136 80.5017 192.363 80.1874C192.599 79.873 192.922 79.6329 193.333 79.467C193.752 79.2924 194.227 79.2051 194.76 79.2051C195.494 79.2051 196.096 79.3885 196.567 79.7552C197.039 80.1219 197.275 80.6021 197.275 81.1958C197.275 81.3093 197.27 81.3966 197.262 81.4577H196.122L196.135 81.3006C196.135 80.9513 196 80.6763 195.729 80.4755C195.467 80.2659 195.118 80.1612 194.682 80.1612C194.254 80.1612 193.9 80.2572 193.621 80.4493C193.35 80.6414 193.215 80.8989 193.215 81.222C193.215 81.5276 193.341 81.7677 193.594 81.9423C193.848 82.1169 194.241 82.309 194.773 82.5186C195.218 82.6932 195.576 82.8547 195.847 83.0032C196.118 83.1429 196.349 83.3393 196.541 83.5925C196.733 83.8457 196.829 84.1644 196.829 84.5486C196.829 84.9677 196.703 85.3344 196.45 85.6487C196.205 85.963 195.865 86.2031 195.428 86.369C194.991 86.5349 194.498 86.6179 193.948 86.6179ZM200.345 78.1574C200.153 78.1574 199.992 78.0962 199.861 77.974C199.739 77.843 199.677 77.6815 199.677 77.4894C199.677 77.2275 199.773 77.0048 199.966 76.8215C200.158 76.6294 200.38 76.5334 200.633 76.5334C200.834 76.5334 200.996 76.5945 201.118 76.7167C201.24 76.8389 201.301 77.0005 201.301 77.2013C201.301 77.4632 201.205 77.6902 201.013 77.8823C200.821 78.0657 200.599 78.1574 200.345 78.1574ZM200.725 79.323L199.455 86.5H198.263L199.533 79.323H200.725ZM206.279 79.192C207.022 79.192 207.615 79.3928 208.061 79.7945C208.506 80.1874 208.729 80.7636 208.729 81.5232C208.729 81.8026 208.707 82.0515 208.663 82.2697L207.917 86.5H206.738L207.458 82.44C207.493 82.2566 207.511 82.0646 207.511 81.8637C207.511 81.3311 207.362 80.9251 207.065 80.6457C206.777 80.3663 206.371 80.2266 205.847 80.2266C205.219 80.2266 204.682 80.4231 204.236 80.816C203.8 81.2089 203.516 81.7808 203.385 82.5317V82.5055L202.678 86.5H201.486L202.756 79.323H203.948L203.765 80.3576C204.062 79.9822 204.433 79.694 204.878 79.4932C205.323 79.2924 205.79 79.192 206.279 79.192ZM214.251 79.2051C214.853 79.2051 215.373 79.323 215.809 79.5587C216.255 79.7857 216.591 80.1088 216.818 80.5279C217.053 80.9382 217.171 81.4097 217.171 81.9423C217.171 82.1257 217.149 82.3483 217.106 82.6103C217.071 82.8373 217.014 83.073 216.936 83.3175H211.199C211.182 83.4921 211.173 83.6187 211.173 83.6973C211.173 84.2997 211.352 84.7712 211.71 85.1117C212.077 85.4435 212.553 85.6094 213.138 85.6094C213.653 85.6094 214.102 85.4915 214.486 85.2558C214.879 85.0113 215.176 84.6883 215.377 84.2866H216.661C216.346 84.9764 215.862 85.5396 215.207 85.9761C214.561 86.404 213.81 86.6179 212.954 86.6179C212.055 86.6179 211.33 86.3603 210.78 85.8452C210.239 85.3213 209.968 84.6097 209.968 83.7104C209.968 83.4572 209.994 83.1865 210.047 82.8984C210.178 82.1562 210.444 81.5058 210.846 80.947C211.247 80.3882 211.741 79.9603 212.326 79.6635C212.919 79.3579 213.561 79.2051 214.251 79.2051ZM215.901 82.4531C215.927 82.2785 215.94 82.1169 215.94 81.9685C215.94 81.4097 215.761 80.9775 215.403 80.6719C215.054 80.3663 214.596 80.2135 214.028 80.2135C213.417 80.2135 212.862 80.4144 212.365 80.816C211.867 81.2089 211.531 81.7546 211.356 82.4531H215.901ZM220.513 86.6179C219.762 86.6179 219.146 86.4389 218.666 86.0809C218.186 85.7229 217.946 85.2427 217.946 84.6403C217.946 84.5268 217.95 84.4438 217.959 84.3914H219.124C219.089 84.7669 219.198 85.0725 219.452 85.3082C219.714 85.5439 220.089 85.6618 220.578 85.6618C221.067 85.6618 221.46 85.5701 221.757 85.3868C222.062 85.1947 222.215 84.9284 222.215 84.5879C222.215 84.2997 222.093 84.0727 221.848 83.9068C221.604 83.7409 221.228 83.562 220.722 83.3699C220.277 83.204 219.91 83.0468 219.622 82.8984C219.334 82.75 219.089 82.5448 218.889 82.2828C218.688 82.0122 218.587 81.6717 218.587 81.2613C218.587 80.8597 218.701 80.5017 218.928 80.1874C219.164 79.873 219.487 79.6329 219.897 79.467C220.316 79.2924 220.792 79.2051 221.325 79.2051C222.058 79.2051 222.66 79.3885 223.132 79.7552C223.603 80.1219 223.839 80.6021 223.839 81.1958C223.839 81.3093 223.835 81.3966 223.826 81.4577H222.687L222.7 81.3006C222.7 80.9513 222.564 80.6763 222.294 80.4755C222.032 80.2659 221.683 80.1612 221.246 80.1612C220.818 80.1612 220.465 80.2572 220.185 80.4493C219.914 80.6414 219.779 80.8989 219.779 81.222C219.779 81.5276 219.906 81.7677 220.159 81.9423C220.412 82.1169 220.805 82.309 221.338 82.5186C221.783 82.6932 222.141 82.8547 222.412 83.0032C222.682 83.1429 222.914 83.3393 223.106 83.5925C223.298 83.8457 223.394 84.1644 223.394 84.5486C223.394 84.9677 223.267 85.3344 223.014 85.6487C222.77 85.963 222.429 86.2031 221.992 86.369C221.556 86.5349 221.063 86.6179 220.513 86.6179ZM227.355 86.6179C226.604 86.6179 225.989 86.4389 225.508 86.0809C225.028 85.7229 224.788 85.2427 224.788 84.6403C224.788 84.5268 224.792 84.4438 224.801 84.3914H225.967C225.932 84.7669 226.041 85.0725 226.294 85.3082C226.556 85.5439 226.932 85.6618 227.421 85.6618C227.91 85.6618 228.302 85.5701 228.599 85.3868C228.905 85.1947 229.058 84.9284 229.058 84.5879C229.058 84.2997 228.935 84.0727 228.691 83.9068C228.446 83.7409 228.071 83.562 227.565 83.3699C227.119 83.204 226.753 83.0468 226.465 82.8984C226.176 82.75 225.932 82.5448 225.731 82.2828C225.53 82.0122 225.43 81.6717 225.43 81.2613C225.43 80.8597 225.543 80.5017 225.77 80.1874C226.006 79.873 226.329 79.6329 226.74 79.467C227.159 79.2924 227.634 79.2051 228.167 79.2051C228.901 79.2051 229.503 79.3885 229.974 79.7552C230.446 80.1219 230.682 80.6021 230.682 81.1958C230.682 81.3093 230.677 81.3966 230.669 81.4577H229.529L229.542 81.3006C229.542 80.9513 229.407 80.6763 229.136 80.4755C228.874 80.2659 228.525 80.1612 228.089 80.1612C227.661 80.1612 227.307 80.2572 227.028 80.4493C226.757 80.6414 226.622 80.8989 226.622 81.222C226.622 81.5276 226.748 81.7677 227.001 81.9423C227.255 82.1169 227.648 82.309 228.18 82.5186C228.625 82.6932 228.983 82.8547 229.254 83.0032C229.525 83.1429 229.756 83.3393 229.948 83.5925C230.14 83.8457 230.236 84.1644 230.236 84.5486C230.236 84.9677 230.11 85.3344 229.857 85.6487C229.612 85.963 229.272 86.2031 228.835 86.369C228.398 86.5349 227.905 86.6179 227.355 86.6179Z" fill="#FB8C00"/>
</svg>
