<svg width="23" height="24" viewBox="0 0 23 24" fill="none" xmlns="http://www.w3.org/2000/svg">
<path d="M7.34861 17.8612L11.4822 13.5745L15.6158 17.8612L17.2233 16.1942L13.0897 11.9075L17.2233 7.62078L15.6158 5.95374L11.4822 10.2404L7.34861 5.95374L5.7411 7.62078L9.8747 11.9075L5.7411 16.1942L7.34861 17.8612ZM11.4822 23.8149C9.89384 23.8149 8.40115 23.5022 7.00415 22.8766C5.60714 22.2519 4.39194 21.4037 3.35855 20.332C2.32515 19.2603 1.50723 18.0001 0.904798 16.5514C0.301599 15.1026 0 13.5547 0 11.9075C0 10.2603 0.301599 8.7123 0.904798 7.26356C1.50723 5.81482 2.32515 4.55461 3.35855 3.48294C4.39194 2.41126 5.60714 1.56266 7.00415 0.937118C8.40115 0.312373 9.89384 0 11.4822 0C13.0706 0 14.5633 0.312373 15.9603 0.937118C17.3573 1.56266 18.5725 2.41126 19.6059 3.48294C20.6393 4.55461 21.4572 5.81482 22.0596 7.26356C22.6628 8.7123 22.9644 10.2603 22.9644 11.9075C22.9644 13.5547 22.6628 15.1026 22.0596 16.5514C21.4572 18.0001 20.6393 19.2603 19.6059 20.332C18.5725 21.4037 17.3573 22.2519 15.9603 22.8766C14.5633 23.5022 13.0706 23.8149 11.4822 23.8149ZM11.4822 21.4335C14.0466 21.4335 16.2186 20.5106 17.9984 18.665C19.7781 16.8193 20.668 14.5668 20.668 11.9075C20.668 9.24814 19.7781 6.99564 17.9984 5.14998C16.2186 3.30432 14.0466 2.38149 11.4822 2.38149C8.91785 2.38149 6.7458 3.30432 4.96605 5.14998C3.18631 6.99564 2.29644 9.24814 2.29644 11.9075C2.29644 14.5668 3.18631 16.8193 4.96605 18.665C6.7458 20.5106 8.91785 21.4335 11.4822 21.4335Z" fill="black" fill-opacity="0.5"/>
</svg>
