<svg width="74" height="74" viewBox="0 0 74 74" fill="none" xmlns="http://www.w3.org/2000/svg">
<circle opacity="0.66" cx="37" cy="37" r="37" fill="#FB8C00"/>
<path d="M27 38.4V33.6C27 29.0748 27 26.8116 28.4064 25.4064C29.8116 24 32.0748 24 36.6 24H39C43.5252 24 45.7884 24 47.1936 25.4064C47.9784 26.19 48.3252 27.24 48.4776 28.8M48.6 33.6V38.4C48.6 42.9252 48.6 45.1884 47.1936 46.5936C45.7884 48 43.5252 48 39 48H36.6C32.0748 48 29.8116 48 28.4064 46.5936C27.6216 45.81 27.2748 44.76 27.1224 43.2M33 38.4H39M33 33.6H34.2M42.6 33.6H37.8" stroke="black" stroke-width="1.5" stroke-linecap="round"/>
</svg>
