<svg width="13" height="13" viewBox="0 0 13 13" fill="none" xmlns="http://www.w3.org/2000/svg">
<path d="M1.42263 11.5588H2.41847L8.55355 5.42377L7.55771 4.42793L1.42263 10.563V11.5588ZM11.5944 4.39236L8.57133 1.40484L9.56717 0.409005C9.83984 0.136335 10.1749 0 10.5723 0C10.9692 0 11.304 0.136335 11.5766 0.409005L12.5725 1.40484C12.8451 1.67751 12.9874 2.00662 12.9993 2.39215C13.0111 2.77721 12.8807 3.10607 12.608 3.37874L11.5944 4.39236ZM10.563 5.44155L3.02308 12.9815H0V9.95839L7.53993 2.41847L10.563 5.44155ZM8.05563 4.92585L7.55771 4.42793L8.55355 5.42377L8.05563 4.92585Z" fill="#263238"/>
</svg>
