<svg width="74" height="74" viewBox="0 0 74 74" fill="none" xmlns="http://www.w3.org/2000/svg">
<circle opacity="0.66" cx="37" cy="37" r="37" fill="#FB8C00"/>
<path d="M42 34C43.1046 34 44 33.1046 44 32C44 30.8954 43.1046 30 42 30C40.8954 30 40 30.8954 40 32C40 33.1046 40.8954 34 42 34Z" stroke="black" stroke-width="1.5"/>
<path d="M28 36.4999L29.752 34.9669C30.1911 34.583 30.7597 34.3802 31.3427 34.3997C31.9257 34.4192 32.4795 34.6595 32.892 35.0719L37.182 39.3619C37.5149 39.6947 37.9546 39.8995 38.4235 39.9401C38.8925 39.9807 39.3608 39.8546 39.746 39.5839L40.045 39.3739C40.6006 38.9837 41.2721 38.7935 41.9498 38.8343C42.6275 38.8752 43.2713 39.1447 43.776 39.5989L47 42.4999" stroke="black" stroke-width="1.5" stroke-linecap="round"/>
<path d="M48 36C48 40.714 48 43.071 46.535 44.535C45.072 46 42.714 46 38 46C33.286 46 30.929 46 29.464 44.535C28 43.072 28 40.714 28 36C28 31.286 28 28.929 29.464 27.464C30.93 26 33.286 26 38 26C42.714 26 45.071 26 46.535 27.464C47.509 28.438 47.835 29.807 47.945 32" stroke="black" stroke-width="1.5" stroke-linecap="round"/>
</svg>
