<svg width="116" height="62" viewBox="0 0 116 62" fill="none" xmlns="http://www.w3.org/2000/svg">
<rect x="13.5" y="0.5" width="86" height="46" rx="3.18059" fill="#FB8C00" stroke="white"/>
<path d="M24.3104 30.1314C24.5931 28.4982 25.1898 27.0456 26.1007 25.7736C27.0272 24.4859 28.1657 23.4887 29.5163 22.782C30.8668 22.0597 32.3037 21.6985 33.827 21.6985C35.6015 21.6985 37.0541 22.146 38.1848 23.0412C39.3312 23.9206 40.0693 25.1455 40.399 26.7159H39.1741C38.9072 25.4753 38.2869 24.4859 37.3132 23.7478C36.3553 23.0097 35.1382 22.6407 33.6621 22.6407C32.3587 22.6407 31.1259 22.9469 29.9638 23.5594C28.8017 24.1718 27.8124 25.0434 26.9958 26.1741C26.1949 27.3048 25.661 28.6239 25.394 30.1314C25.2998 30.6968 25.2527 31.2464 25.2527 31.7804C25.2527 32.9738 25.4961 34.0103 25.9829 34.8897C26.4697 35.7534 27.145 36.4208 28.0087 36.892C28.8881 37.3631 29.8932 37.5986 31.0238 37.5986C32.2801 37.5986 33.4658 37.316 34.5808 36.7506C35.7114 36.1853 36.6694 35.3844 37.4546 34.3479C38.2555 33.2958 38.8129 32.063 39.127 30.6497H31.7541L31.919 29.7781H40.3755L40.2341 30.4848C39.9201 32.0238 39.3076 33.4057 38.3968 34.6306C37.5017 35.8398 36.3946 36.7977 35.0754 37.5044C33.7563 38.1954 32.3508 38.5409 30.8589 38.5409C29.5241 38.5409 28.3463 38.266 27.3256 37.7164C26.3205 37.1668 25.5353 36.3894 24.97 35.3844C24.4204 34.3636 24.1455 33.1937 24.1455 31.8746C24.1455 31.2778 24.2005 30.6968 24.3104 30.1314ZM49.8946 25.4203C50.9782 25.4203 51.8968 25.6323 52.6506 26.0563C53.4201 26.4646 53.9933 27.0221 54.3702 27.7288C54.7628 28.4197 54.9591 29.1971 54.9591 30.0608C54.9591 30.4377 54.9277 30.7832 54.8649 31.0972C54.7706 31.6626 54.6764 32.0866 54.5822 32.3692H43.5345C43.4717 32.8718 43.4403 33.233 43.4403 33.4528C43.4403 34.8033 43.8486 35.8398 44.6652 36.5622C45.4818 37.2846 46.5104 37.6457 47.751 37.6457C48.9916 37.6457 50.0909 37.3395 51.0488 36.7271C52.0225 36.0989 52.7134 35.2509 53.1217 34.183H54.2289C53.7263 35.4865 52.8862 36.5465 51.7084 37.3631C50.5463 38.164 49.1722 38.5644 47.5861 38.5644C46.0157 38.5644 44.7516 38.109 43.7936 37.1982C42.8514 36.2874 42.3803 35.0468 42.3803 33.4764C42.3803 32.9896 42.4274 32.487 42.5216 31.9688C42.7572 30.634 43.2283 29.4719 43.935 28.4825C44.6417 27.4932 45.5054 26.7394 46.5261 26.2212C47.5626 25.6873 48.6854 25.4203 49.8946 25.4203ZM53.7342 31.5448C53.8441 31.0894 53.8991 30.6261 53.8991 30.155C53.8991 28.9144 53.4986 27.9643 52.6977 27.3048C51.9125 26.6452 50.9153 26.3154 49.7062 26.3154C48.811 26.3154 47.9473 26.5117 47.115 26.9043C46.2827 27.2969 45.5603 27.8858 44.9479 28.671C44.3354 29.4562 43.9114 30.4141 43.6759 31.5448H53.7342ZM64.8525 25.3261C66.1559 25.3261 67.2003 25.6794 67.9854 26.3861C68.7706 27.077 69.1632 28.1057 69.1632 29.4719C69.1632 29.8959 69.1161 30.367 69.0219 30.8852L67.7028 38.376H66.6663L67.9854 30.9559C68.064 30.4534 68.1032 30.0372 68.1032 29.7074C68.1032 28.5768 67.7891 27.7209 67.161 27.1399C66.5328 26.5431 65.6534 26.2447 64.5227 26.2447C63.2036 26.2447 62.0651 26.653 61.1072 27.4696C60.1492 28.2862 59.4897 29.4876 59.1285 31.0737L57.8329 38.376H56.7729L59.0578 25.5852H60.1178L59.6467 28.2705C60.1806 27.3126 60.903 26.5824 61.8138 26.0799C62.7404 25.5773 63.7533 25.3261 64.8525 25.3261ZM74.7471 22.7349C74.5272 22.7349 74.3466 22.6721 74.2053 22.5465C74.0639 22.4051 73.9933 22.2246 73.9933 22.0047C73.9933 21.6906 74.1032 21.4315 74.3231 21.2274C74.5429 21.0075 74.7942 20.8976 75.0768 20.8976C75.2967 20.8976 75.4773 20.9682 75.6186 21.1096C75.7757 21.2509 75.8542 21.4315 75.8542 21.6514C75.8542 21.9654 75.7364 22.2246 75.5008 22.4287C75.281 22.6329 75.0297 22.7349 74.7471 22.7349ZM74.7942 25.5852L72.5093 38.376H71.4493L73.7342 25.5852H74.7942ZM84.2391 25.4203C85.3227 25.4203 86.2414 25.6323 86.9952 26.0563C87.7646 26.4646 88.3378 27.0221 88.7147 27.7288C89.1073 28.4197 89.3036 29.1971 89.3036 30.0608C89.3036 30.4377 89.2722 30.7832 89.2094 31.0972C89.1152 31.6626 89.021 32.0866 88.9267 32.3692H77.8791C77.8162 32.8718 77.7848 33.233 77.7848 33.4528C77.7848 34.8033 78.1931 35.8398 79.0097 36.5622C79.8263 37.2846 80.8549 37.6457 82.0955 37.6457C83.3362 37.6457 84.4354 37.3395 85.3934 36.7271C86.367 36.0989 87.058 35.2509 87.4663 34.183H88.5734C88.0709 35.4865 87.2307 36.5465 86.0529 37.3631C84.8908 38.164 83.5167 38.5644 81.9307 38.5644C80.3603 38.5644 79.0961 38.109 78.1382 37.1982C77.1959 36.2874 76.7248 35.0468 76.7248 33.4764C76.7248 32.9896 76.7719 32.487 76.8662 31.9688C77.1017 30.634 77.5728 29.4719 78.2795 28.4825C78.9862 27.4932 79.8499 26.7394 80.8706 26.2212C81.9071 25.6873 83.0299 25.4203 84.2391 25.4203ZM88.0787 31.5448C88.1886 31.0894 88.2436 30.6261 88.2436 30.155C88.2436 28.9144 87.8432 27.9643 87.0423 27.3048C86.2571 26.6452 85.2599 26.3154 84.0507 26.3154C83.1556 26.3154 82.2918 26.5117 81.4595 26.9043C80.6272 27.2969 79.9049 27.8858 79.2924 28.671C78.68 29.4562 78.256 30.4141 78.0204 31.5448H88.0787Z" fill="white"/>
<path fill-rule="evenodd" clip-rule="evenodd" d="M28.5655 7.97819C28.0793 8.02211 27.8699 8.08987 27.0373 8.47352C26.527 8.70862 25.5222 9.61802 25.5222 9.84478C25.5222 9.93732 25.4663 10.0131 25.398 10.0131C25.3297 10.0131 25.2738 10.1188 25.2738 10.2479C25.2738 10.3771 25.2237 10.4828 25.1626 10.4828C25.0373 10.4828 24.8886 11.2432 24.8756 11.9507C24.8641 12.5746 25.0311 13.4186 25.166 13.4186C25.2252 13.4186 25.2738 13.5243 25.2738 13.6535C25.2738 13.7827 25.3297 13.8883 25.398 13.8883C25.4663 13.8883 25.5222 13.9549 25.5222 14.0363C25.5222 14.2398 26.5041 15.1801 26.7166 15.1801C26.8112 15.1801 26.8886 15.2292 26.8886 15.2891C26.8886 15.3491 27.2021 15.509 27.5852 15.6446C28.665 16.0264 31.2887 15.9465 31.7889 15.5164C31.8539 15.4607 31.9835 15.415 32.0772 15.415C32.3038 15.415 32.6025 15.1235 32.6025 14.9024C32.6025 14.6595 31.2259 12.1269 31.0939 12.1269C31.0355 12.1269 30.9877 12.1797 30.9877 12.2443C30.9877 12.3132 30.5574 12.3617 29.9452 12.3617C28.8541 12.3617 28.7518 12.3113 28.7518 11.7743C28.7518 11.4832 29.3154 11.3765 30.3177 11.4779C31.1453 11.5618 31.4846 11.4313 31.4846 11.0294C31.4846 10.9333 31.5264 10.8371 31.5777 10.8155C31.7255 10.7534 32.6025 9.07078 32.6025 8.8493C32.6025 8.6519 31.8424 8.25157 31.4677 8.25157C31.3677 8.25157 31.2327 8.20495 31.1678 8.14788C31.0299 8.0268 29.2873 7.91313 28.5655 7.97819ZM42.1183 8.20248C41.9842 8.53282 42.0333 15.4135 42.1714 15.6576C42.2881 15.8635 42.4447 15.8847 43.8483 15.8847H45.3967V11.9507V8.0167H43.7952C42.4494 8.0167 42.1816 8.04642 42.1183 8.20248ZM49.7916 8.28809C49.6467 8.42948 49.3711 8.65084 49.1791 8.78002C48.987 8.90919 48.7142 9.12198 48.5729 9.25292C48.4314 9.38386 48.1191 9.6051 47.8789 9.74461C47.6387 9.88424 47.3075 10.1338 47.143 10.2994C46.9786 10.4648 46.7973 10.6002 46.7403 10.6002C46.581 10.6002 45.8936 11.2541 45.8936 11.4056C45.8936 11.4863 46.1164 11.5397 46.4525 11.5397H47.0115V12.6456C47.0115 13.8258 47.2706 14.6695 47.7506 15.0523C47.8791 15.1549 48.0868 15.3189 48.2122 15.4167C48.8689 15.9294 50.4617 16.0212 51.3901 15.5997L51.8559 15.3882V14.2342C51.8559 13.5915 51.8009 13.048 51.7317 13.0076C51.6634 12.9677 51.6075 12.9848 51.6075 13.0457C51.6075 13.1841 51.041 13.2927 50.7255 13.2148C50.5224 13.1645 50.4895 13.0435 50.4895 12.348V11.5397H51.0236C51.3174 11.5397 51.6249 11.4763 51.7068 11.3988C51.7902 11.32 51.8559 10.9421 51.8559 10.5415C51.8559 10.1409 51.7902 9.76305 51.7068 9.68425C51.6249 9.60675 51.3174 9.54333 51.0236 9.54333H50.4895V8.78002C50.4895 8.12862 50.4576 8.01776 50.2721 8.02387C50.1525 8.02786 49.9363 8.1467 49.7916 8.28809ZM68.2523 9.77303V11.5294L69.1529 11.5639L70.0535 11.5984L70.0752 13.5361C70.0872 14.6018 70.1011 15.5676 70.1062 15.6824C70.1148 15.8739 70.2621 15.8885 71.8856 15.8585L73.6557 15.826L73.6896 13.6828L73.7234 11.5397H74.6523H75.581V9.7782V8.0167H71.9167H68.2523V9.77303ZM33.299 9.72911C33.1471 10.1034 33.2165 14.3495 33.3788 14.6164C33.6224 15.0168 34.2456 15.5769 34.6268 15.7379C35.407 16.0676 36.6354 15.8402 37.2295 15.2562C37.5539 14.9374 37.5711 14.9333 37.5711 15.1754C37.5711 15.3156 37.629 15.5326 37.6997 15.6576C37.8158 15.8626 37.9722 15.8847 39.3101 15.8847C40.6481 15.8847 40.8044 15.8626 40.9206 15.6576C40.9988 15.5194 41.0492 14.3435 41.0492 12.6546C41.0492 10.4055 41.0155 9.84701 40.8716 9.71114C40.7375 9.58432 40.3291 9.54333 39.1971 9.54333C37.415 9.54333 37.5822 9.31234 37.5391 11.8333L37.509 13.5948L37.0873 13.6328C36.8337 13.6557 36.624 13.609 36.5612 13.5154C36.5039 13.4299 36.4562 12.5645 36.455 11.5925C36.4538 10.3766 36.4067 9.78125 36.3041 9.68425C36.206 9.59148 35.6804 9.54333 34.7647 9.54333C33.6115 9.54333 33.3615 9.57504 33.299 9.72911ZM52.6141 9.70468C52.4463 9.89598 52.4857 13.9289 52.6612 14.5239C53.0782 15.9374 55.4373 16.3635 56.6258 15.24C56.7972 15.0778 56.968 14.9452 57.0052 14.9452C57.0425 14.9452 57.0729 15.1566 57.0729 15.415V15.8847H58.4912C59.2713 15.8847 59.998 15.8526 60.106 15.8134C60.2781 15.7511 60.3025 15.3731 60.3025 12.7837C60.3025 10.6392 60.2615 9.78642 60.1535 9.68425C59.9479 9.4899 57.1791 9.4899 56.9736 9.68425C56.8699 9.78231 56.8245 10.4072 56.8245 11.7393V13.6535H56.443C55.7673 13.6535 55.7164 13.5074 55.6787 11.463L55.6445 9.60205L54.2033 9.56917C53.0707 9.54321 52.7304 9.57222 52.6141 9.70468ZM61.5736 9.64139C61.4518 9.71455 61.4237 10.4231 61.4494 12.781L61.4826 15.826H63.0974H64.7122L64.7904 14.2406C64.8335 13.3687 64.9099 12.5363 64.9602 12.3911C65.0735 12.0637 65.4057 12.0495 65.6438 12.3617C65.7873 12.55 65.9654 12.5966 66.5408 12.5966C66.9365 12.5966 67.2586 12.5439 67.2586 12.4792C67.2586 12.4146 67.322 12.3617 67.3993 12.3617C67.6339 12.3617 67.9938 11.8859 68.0772 11.4658C68.2407 10.6423 67.9701 10.1144 67.1672 9.69012C66.5825 9.38127 65.6457 9.61638 65.1664 10.1924C64.9087 10.5022 64.7743 10.4622 64.7743 10.0757C64.7743 9.61485 64.5486 9.54321 63.1036 9.54509C62.3486 9.54615 61.6602 9.58948 61.5736 9.64139ZM77.879 9.66077C77.7424 9.71631 77.4908 9.76598 77.3201 9.77115C77.1493 9.77632 76.758 9.89951 76.4506 10.0448L75.8916 10.3089L75.8553 11.2178C75.8353 11.7178 75.8633 12.126 75.9174 12.1251C75.9716 12.1242 76.2394 12.0471 76.5127 11.9541C77.2541 11.7015 78.4724 11.7209 78.7293 11.9893C78.8423 12.1075 78.9349 12.2396 78.9349 12.2829C78.9349 12.3263 78.5761 12.3617 78.1378 12.3617C77.2136 12.3617 76.3477 12.6616 76.0585 13.0818C75.9533 13.2347 75.7997 13.5546 75.7172 13.7926C75.5014 14.4149 75.9003 15.2773 76.5678 15.632C77.117 15.9238 78.0822 15.9651 78.556 15.717C78.8139 15.582 78.9014 15.5833 79.1304 15.7251C79.3346 15.8516 79.7608 15.8844 80.8757 15.8592L82.3508 15.826L82.3848 13.7167C82.4232 11.3339 82.334 10.945 81.6035 10.3124C81.3715 10.1116 80.8695 9.85629 80.488 9.7452C79.7628 9.53406 78.3069 9.48696 77.879 9.66077ZM83.5557 9.68425C83.4461 9.78783 83.4066 10.7965 83.4066 13.4912C83.4066 15.5075 83.4405 17.2408 83.482 17.343C83.5454 17.4991 83.8132 17.5288 85.1589 17.5288H86.7604V16.5767C86.7604 15.7147 86.7809 15.633 86.9778 15.7133C87.0973 15.7619 87.5306 15.8251 87.9405 15.8535C89.2019 15.9411 90.4434 15.229 90.931 14.1382C91.2771 13.3638 91.1375 11.3062 90.7029 10.7764C90.2985 10.2835 90.0982 10.1262 89.5283 9.85347C88.7501 9.48098 88.0587 9.45549 87.3626 9.7735C86.8623 10.002 86.8583 10.002 86.7951 9.7735C86.7363 9.56083 86.6166 9.54333 85.218 9.54333C84.2067 9.54333 83.6553 9.59007 83.5557 9.68425ZM87.7009 12.2947C87.7985 12.3869 87.8784 12.6775 87.8784 12.9405V13.4186H87.3194H86.7604V12.944C86.7604 12.2223 87.2598 11.8775 87.7009 12.2947ZM78.9109 13.9764C78.949 14.4741 78.9479 14.4755 78.5207 14.4755C78.1621 14.4755 78.079 14.4254 78.0106 14.1678C77.9129 13.7998 78.244 13.4138 78.6243 13.4522C78.8226 13.4723 78.8804 13.5781 78.9109 13.9764Z" fill="white"/>
<rect x="14.7016" y="44.7016" width="85.5968" height="16.5968" fill="white" stroke="#FB8C00" stroke-width="1.40323"/>
<path d="M37.3715 49.6897C37.2754 50.231 37.0484 50.6807 36.6904 51.0386C36.3412 51.3879 35.9133 51.6411 35.4069 51.7983C35.8348 51.8681 36.184 52.0777 36.4547 52.4269C36.7253 52.7674 36.8607 53.1734 36.8607 53.6449C36.8607 53.7846 36.8476 53.9199 36.8214 54.0509C36.7428 54.5137 36.5507 54.9328 36.2451 55.3082C35.9483 55.6749 35.5554 55.9674 35.0664 56.1857C34.5775 56.3952 34.0274 56.5 33.4162 56.5H30.0111L31.6351 47.3715H34.9093C35.73 47.3715 36.3499 47.5462 36.769 47.8954C37.1968 48.2447 37.4107 48.6987 37.4107 49.2575C37.4107 49.3972 37.3977 49.5412 37.3715 49.6897ZM36.1404 49.8337C36.1578 49.7552 36.1666 49.646 36.1666 49.5063C36.1666 49.1309 36.0356 48.8384 35.7737 48.6288C35.5117 48.4193 35.1319 48.3145 34.6342 48.3145H32.6566L32.1197 51.3399H34.1235C34.6735 51.3399 35.1275 51.2089 35.4855 50.947C35.8435 50.6763 36.0618 50.3052 36.1404 49.8337ZM35.6427 53.933C35.6689 53.8108 35.682 53.6973 35.682 53.5925C35.682 53.1909 35.5335 52.8722 35.2367 52.6365C34.9398 52.4007 34.5338 52.2828 34.0187 52.2828H31.9494L31.3731 55.557H33.4817C34.0667 55.557 34.5513 55.413 34.9355 55.1248C35.3196 54.8367 35.5554 54.4394 35.6427 53.933ZM45.6785 49.323L44.4081 56.5H43.2163L43.3997 55.4523C43.1115 55.819 42.7448 56.1027 42.2995 56.3035C41.8542 56.5044 41.3915 56.6048 40.9113 56.6048C40.1604 56.6048 39.5579 56.404 39.1039 56.0023C38.6586 55.592 38.436 55.007 38.436 54.2474C38.436 54.0553 38.4578 53.8152 38.5015 53.527L39.248 49.323H40.4267L39.7195 53.3699C39.6845 53.5532 39.6671 53.7453 39.6671 53.9461C39.6671 54.4787 39.8111 54.8847 40.0993 55.1641C40.3961 55.4348 40.8065 55.5701 41.3304 55.5701C41.959 55.5701 42.4916 55.3737 42.9282 54.9808C43.3735 54.5879 43.6572 54.016 43.7795 53.2651V53.3044L44.4867 49.323H45.6785ZM48.9481 56.6179C48.1972 56.6179 47.5817 56.4389 47.1014 56.0809C46.6212 55.7229 46.3811 55.2427 46.3811 54.6403C46.3811 54.5268 46.3855 54.4438 46.3942 54.3914H47.5598C47.5249 54.7669 47.634 55.0725 47.8872 55.3082C48.1492 55.5439 48.5246 55.6618 49.0136 55.6618C49.5025 55.6618 49.8954 55.5701 50.1923 55.3868C50.4979 55.1947 50.6507 54.9284 50.6507 54.5879C50.6507 54.2997 50.5284 54.0727 50.284 53.9068C50.0395 53.7409 49.664 53.562 49.1576 53.3699C48.7123 53.204 48.3456 53.0468 48.0575 52.8984C47.7694 52.75 47.5249 52.5448 47.3241 52.2828C47.1233 52.0122 47.0229 51.6717 47.0229 51.2613C47.0229 50.8597 47.1364 50.5017 47.3634 50.1874C47.5991 49.873 47.9222 49.6329 48.3325 49.467C48.7516 49.2924 49.2275 49.2051 49.7601 49.2051C50.4935 49.2051 51.096 49.3885 51.5674 49.7552C52.0389 50.1219 52.2747 50.6021 52.2747 51.1958C52.2747 51.3093 52.2703 51.3966 52.2616 51.4577H51.1221L51.1352 51.3006C51.1352 50.9513 50.9999 50.6763 50.7292 50.4755C50.4673 50.2659 50.1181 50.1612 49.6815 50.1612C49.2537 50.1612 48.9001 50.2572 48.6207 50.4493C48.35 50.6414 48.2147 50.8989 48.2147 51.222C48.2147 51.5276 48.3413 51.7677 48.5945 51.9423C48.8477 52.1169 49.2406 52.309 49.7732 52.5186C50.2185 52.6932 50.5764 52.8547 50.8471 53.0032C51.1178 53.1429 51.3492 53.3393 51.5412 53.5925C51.7333 53.8457 51.8294 54.1644 51.8294 54.5486C51.8294 54.9677 51.7028 55.3344 51.4496 55.6487C51.2051 55.963 50.8646 56.2031 50.428 56.369C49.9915 56.5349 49.4981 56.6179 48.9481 56.6179ZM55.3453 48.1574C55.1533 48.1574 54.9917 48.0962 54.8608 47.974C54.7385 47.843 54.6774 47.6815 54.6774 47.4894C54.6774 47.2275 54.7735 47.0048 54.9655 46.8215C55.1576 46.6294 55.3803 46.5334 55.6335 46.5334C55.8343 46.5334 55.9958 46.5945 56.1181 46.7167C56.2403 46.8389 56.3014 47.0005 56.3014 47.2013C56.3014 47.4632 56.2054 47.6902 56.0133 47.8823C55.8212 48.0657 55.5986 48.1574 55.3453 48.1574ZM55.7252 49.323L54.4548 56.5H53.263L54.5333 49.323H55.7252ZM61.2794 49.192C62.0216 49.192 62.6153 49.3928 63.0606 49.7945C63.5059 50.1874 63.7285 50.7636 63.7285 51.5232C63.7285 51.8026 63.7067 52.0515 63.663 52.2697L62.9165 56.5H61.7378L62.4581 52.44C62.493 52.2566 62.5105 52.0646 62.5105 51.8637C62.5105 51.3311 62.3621 50.9251 62.0652 50.6457C61.7771 50.3663 61.3711 50.2266 60.8472 50.2266C60.2186 50.2266 59.6816 50.4231 59.2363 50.816C58.7998 51.2089 58.516 51.7808 58.385 52.5317V52.5055L57.6778 56.5H56.486L57.7564 49.323H58.9482L58.7648 50.3576C59.0617 49.9822 59.4328 49.694 59.8781 49.4932C60.3233 49.2924 60.7905 49.192 61.2794 49.192ZM69.2507 49.2051C69.8532 49.2051 70.3727 49.323 70.8093 49.5587C71.2545 49.7857 71.5907 50.1088 71.8177 50.5279C72.0534 50.9382 72.1713 51.4097 72.1713 51.9423C72.1713 52.1257 72.1495 52.3483 72.1058 52.6103C72.0709 52.8373 72.0142 53.073 71.9356 53.3175H66.1992C66.1817 53.4921 66.173 53.6187 66.173 53.6973C66.173 54.2997 66.352 54.7712 66.71 55.1117C67.0767 55.4435 67.5525 55.6094 68.1375 55.6094C68.6527 55.6094 69.1023 55.4915 69.4865 55.2558C69.8794 55.0113 70.1762 54.6883 70.3771 54.2866H71.6605C71.3462 54.9764 70.8616 55.5396 70.2068 55.9761C69.5607 56.404 68.8098 56.6179 67.9542 56.6179C67.0548 56.6179 66.3302 56.3603 65.7801 55.8452C65.2388 55.3213 64.9681 54.6097 64.9681 53.7104C64.9681 53.4572 64.9943 53.1865 65.0467 52.8984C65.1776 52.1562 65.4439 51.5058 65.8456 50.947C66.2472 50.3882 66.7405 49.9603 67.3255 49.6635C67.9192 49.3579 68.561 49.2051 69.2507 49.2051ZM70.9009 52.4531C70.9271 52.2785 70.9402 52.1169 70.9402 51.9685C70.9402 51.4097 70.7612 50.9775 70.4033 50.6719C70.054 50.3663 69.5956 50.2135 69.0281 50.2135C68.4169 50.2135 67.8625 50.4144 67.3648 50.816C66.8671 51.2089 66.531 51.7546 66.3564 52.4531H70.9009ZM75.5125 56.6179C74.7617 56.6179 74.1461 56.4389 73.6659 56.0809C73.1857 55.7229 72.9456 55.2427 72.9456 54.6403C72.9456 54.5268 72.9499 54.4438 72.9587 54.3914H74.1243C74.0894 54.7669 74.1985 55.0725 74.4517 55.3082C74.7136 55.5439 75.0891 55.6618 75.578 55.6618C76.067 55.6618 76.4599 55.5701 76.7567 55.3868C77.0623 55.1947 77.2151 54.9284 77.2151 54.5879C77.2151 54.2997 77.0929 54.0727 76.8484 53.9068C76.6039 53.7409 76.2285 53.562 75.7221 53.3699C75.2768 53.204 74.9101 53.0468 74.622 52.8984C74.3338 52.75 74.0894 52.5448 73.8885 52.2828C73.6877 52.0122 73.5873 51.6717 73.5873 51.2613C73.5873 50.8597 73.7008 50.5017 73.9278 50.1874C74.1636 49.873 74.4866 49.6329 74.897 49.467C75.3161 49.2924 75.7919 49.2051 76.3245 49.2051C77.058 49.2051 77.6604 49.3885 78.1319 49.7552C78.6034 50.1219 78.8391 50.6021 78.8391 51.1958C78.8391 51.3093 78.8347 51.3966 78.826 51.4577H77.6866L77.6997 51.3006C77.6997 50.9513 77.5644 50.6763 77.2937 50.4755C77.0318 50.2659 76.6825 50.1612 76.246 50.1612C75.8181 50.1612 75.4645 50.2572 75.1851 50.4493C74.9144 50.6414 74.7791 50.8989 74.7791 51.222C74.7791 51.5276 74.9057 51.7677 75.1589 51.9423C75.4121 52.1169 75.805 52.309 76.3376 52.5186C76.7829 52.6932 77.1409 52.8547 77.4116 53.0032C77.6822 53.1429 77.9136 53.3393 78.1057 53.5925C78.2978 53.8457 78.3938 54.1644 78.3938 54.5486C78.3938 54.9677 78.2672 55.3344 78.014 55.6487C77.7695 55.963 77.429 56.2031 76.9925 56.369C76.5559 56.5349 76.0626 56.6179 75.5125 56.6179ZM82.3551 56.6179C81.6042 56.6179 80.9887 56.4389 80.5084 56.0809C80.0282 55.7229 79.7881 55.2427 79.7881 54.6403C79.7881 54.5268 79.7925 54.4438 79.8012 54.3914H80.9668C80.9319 54.7669 81.041 55.0725 81.2942 55.3082C81.5562 55.5439 81.9316 55.6618 82.4206 55.6618C82.9095 55.6618 83.3024 55.5701 83.5993 55.3868C83.9049 55.1947 84.0577 54.9284 84.0577 54.5879C84.0577 54.2997 83.9354 54.0727 83.691 53.9068C83.4465 53.7409 83.071 53.562 82.5646 53.3699C82.1193 53.204 81.7526 53.0468 81.4645 52.8984C81.1764 52.75 80.9319 52.5448 80.7311 52.2828C80.5303 52.0122 80.4299 51.6717 80.4299 51.2613C80.4299 50.8597 80.5434 50.5017 80.7704 50.1874C81.0061 49.873 81.3292 49.6329 81.7395 49.467C82.1586 49.2924 82.6345 49.2051 83.1671 49.2051C83.9005 49.2051 84.503 49.3885 84.9744 49.7552C85.4459 50.1219 85.6817 50.6021 85.6817 51.1958C85.6817 51.3093 85.6773 51.3966 85.6686 51.4577H84.5292L84.5422 51.3006C84.5422 50.9513 84.4069 50.6763 84.1362 50.4755C83.8743 50.2659 83.5251 50.1612 83.0885 50.1612C82.6607 50.1612 82.3071 50.2572 82.0277 50.4493C81.757 50.6414 81.6217 50.8989 81.6217 51.222C81.6217 51.5276 81.7483 51.7677 82.0015 51.9423C82.2547 52.1169 82.6476 52.309 83.1802 52.5186C83.6255 52.6932 83.9835 52.8547 84.2541 53.0032C84.5248 53.1429 84.7562 53.3393 84.9482 53.5925C85.1403 53.8457 85.2364 54.1644 85.2364 54.5486C85.2364 54.9677 85.1098 55.3344 84.8566 55.6487C84.6121 55.963 84.2716 56.2031 83.835 56.369C83.3985 56.5349 82.9052 56.6179 82.3551 56.6179Z" fill="#FB8C00"/>
</svg>
