<svg width="143" height="204" viewBox="0 0 143 204" fill="none" xmlns="http://www.w3.org/2000/svg">
<path d="M105.982 152.158L108.908 161.263L104.745 179.601L85.7242 200.431C105.171 201.607 124.458 196.297 140.561 185.331C140.561 185.331 147.903 137.606 103.849 137.606C92.1305 145.418 82.0934 150.818 70.8081 150.796H71.267C59.9817 150.818 49.9446 145.418 38.2261 137.606C-5.82833 137.606 1.51408 185.331 1.51408 185.331C38.1454 207.436 54.262 198.944 104.745 179.601L107.01 166.674L18.6513 171.63L38.1454 168.297" fill="#FB8C00"/>
<path d="M140.506 185.335C140.506 185.335 147.848 137.609 103.794 137.609C92.0753 145.422 82.0345 150.818 70.7529 150.796H71.2118C59.9265 150.818 49.8894 145.422 38.171 137.609C-5.88351 137.609 1.4589 185.335 1.4589 185.335" fill="#FB8C00"/>
<path d="M104.829 137.609C95.2907 144.896 83.9488 149.45 72.0195 150.782C119.973 152.298 119.973 170.654 122.77 185.339H141.541C141.541 185.339 148.884 137.609 104.829 137.609Z" fill="#FFC882"/>
<path d="M141.541 185.335C141.541 185.335 98.3822 218.471 65.4111 196.213L104.744 179.6L108.908 161.263C108.908 161.263 141.86 152.217 141.541 185.335Z" fill="#FFC882"/>
<path d="M71.0394 129.066C94.0298 129.066 112.667 105.771 112.667 77.0343C112.667 48.2978 94.0298 25.0023 71.0394 25.0023C48.049 25.0023 29.4116 48.2978 29.4116 77.0343C29.4116 105.771 48.049 129.066 71.0394 129.066Z" fill="#FB8C00"/>
<path d="M119.393 20.4023C71.0392 35.5167 29.4114 70.0334 29.4114 70.0334C29.4114 70.0334 14.8734 50.4291 21.1989 30.6523C21.1989 30.6523 29.4114 1 69.0567 1C97.336 1 111.628 12.6377 119.393 20.4023C141.96 52.4336 111.555 70.3454 111.555 70.3454C99.2306 60.7438 87.4003 50.5247 76.1091 39.7276" fill="white"/>
<path d="M119.393 20.4023C141.956 52.4336 111.555 70.3454 111.555 70.3454C99.2309 60.7438 87.4006 50.5248 76.1094 39.7276" fill="#D0CFCE"/>
<path d="M71.0392 61.1234C69.0919 61.1234 67.2243 60.3499 65.8473 58.9729C64.4703 57.5959 63.6968 55.7283 63.6968 53.781V39.0962C63.6968 37.1489 64.4703 35.2813 65.8473 33.9043C67.2243 32.5274 69.0919 31.7538 71.0392 31.7538C72.9865 31.7538 74.8541 32.5274 76.231 33.9043C77.608 35.2813 78.3816 37.1489 78.3816 39.0962V53.781C78.3816 55.7283 77.608 57.5959 76.231 58.9729C74.8541 60.3499 72.9865 61.1234 71.0392 61.1234ZM104.745 179.601L88.5472 186.323V167.067H107.01L104.745 179.601Z" fill="#FCEA2B"/>
<path d="M85.724 200.431C105.168 201.609 124.454 196.301 140.557 185.339C140.557 185.339 147.899 137.613 103.845 137.613C92.1265 145.425 82.0895 150.822 70.8042 150.8H71.2631C59.9778 150.822 49.9407 145.425 38.2222 137.613C-5.83224 137.613 1.51017 185.339 1.51017 185.339C38.1415 207.439 54.258 198.951 104.741 179.604L107.006 166.682L18.6474 171.638" stroke="black" stroke-width="2" stroke-linecap="round" stroke-linejoin="round"/>
<path d="M105.982 152.158L108.908 161.263L104.745 179.601" stroke="black" stroke-width="2" stroke-linecap="round" stroke-linejoin="round"/>
<path d="M93.0667 72.0378C93.0667 73.49 92.6361 74.9096 91.8293 76.1171C91.0225 77.3245 89.8757 78.2656 88.5341 78.8213C87.1924 79.3771 85.7161 79.5225 84.2918 79.2392C82.8675 78.9559 81.5593 78.2566 80.5324 77.2297C79.5055 76.2029 78.8063 74.8946 78.5229 73.4703C78.2396 72.046 78.385 70.5697 78.9408 69.228C79.4965 67.8864 80.4376 66.7396 81.6451 65.9328C82.8525 65.1261 84.2721 64.6954 85.7243 64.6954C87.6716 64.6954 89.5392 65.469 90.9161 66.846C92.2931 68.2229 93.0667 70.0905 93.0667 72.0378ZM63.697 72.0378C63.697 73.49 63.2664 74.9096 62.4596 76.1171C61.6528 77.3245 60.5061 78.2656 59.1644 78.8213C57.8228 79.3771 56.3465 79.5225 54.9222 79.2392C53.4979 78.9559 52.1896 78.2566 51.1628 77.2297C50.1359 76.2029 49.4366 74.8946 49.1533 73.4703C48.87 72.046 49.0154 70.5697 49.5711 69.228C50.1268 67.8864 51.0679 66.7396 52.2754 65.9328C53.4829 65.1261 54.9024 64.6954 56.3546 64.6954C58.302 64.6954 60.1695 65.469 61.5465 66.846C62.9235 68.2229 63.697 70.0905 63.697 72.0378ZM71.0395 108.757C66.6313 108.715 62.295 107.636 58.3811 105.607C57.5102 105.172 56.848 104.408 56.5402 103.484C56.2325 102.56 56.3044 101.552 56.7401 100.681C57.1758 99.8097 57.9397 99.1475 58.8636 98.8397C59.7876 98.532 60.7959 98.6038 61.6669 99.0396C64.5461 100.593 67.7662 101.406 71.0376 101.406C74.309 101.406 77.5291 100.593 80.4084 99.0396C81.2798 98.6038 82.2886 98.5322 83.2129 98.8402C84.1372 99.1483 84.9012 99.811 85.337 100.682C85.7727 101.554 85.8444 102.563 85.5363 103.487C85.2282 104.411 84.5655 105.175 83.6941 105.611C79.781 107.638 75.446 108.715 71.0395 108.757Z" fill="black"/>
<path d="M63.7041 46.266C59.0049 49.0928 54.6362 51.8829 50.7447 54.4895C39.2538 62.1623 31.6177 68.2565 29.8188 69.6883C29.5619 69.9085 29.415 70.0187 29.415 70.0187C29.415 70.0187 14.877 50.4144 21.1915 30.6633C21.1915 30.6633 29.415 1 69.064 1C97.3323 1 111.613 12.6377 119.396 20.4207C139.882 49.4599 116.753 66.8614 112.274 69.8718C111.797 70.2022 111.54 70.3491 111.54 70.3491C111.54 70.3491 95.3499 57.9404 78.3889 41.8972" stroke="black" stroke-width="2" stroke-linecap="round" stroke-linejoin="round"/>
<path d="M78.2788 37.9691C91.4185 30.8732 105.182 24.999 119.396 20.4208" stroke="black" stroke-width="2" stroke-linecap="round" stroke-linejoin="round"/>
<path d="M88.5473 168.143V185.574M29.6979 70.3565C29.4652 72.6031 29.3488 74.8603 29.3491 77.1189C29.3491 105.857 47.9878 129.151 70.9769 129.151C93.966 129.151 112.601 105.857 112.601 77.1189C112.603 74.7889 112.48 72.4605 112.234 70.1436M71.0393 61.1234C69.092 61.1234 67.2244 60.3499 65.8475 58.9729C64.4705 57.5959 63.6969 55.7283 63.6969 53.781V39.0962C63.6969 37.1489 64.4705 35.2813 65.8475 33.9043C67.2244 32.5274 69.092 31.7538 71.0393 31.7538C72.9867 31.7538 74.8542 32.5274 76.2312 33.9043C77.6082 35.2813 78.3817 37.1489 78.3817 39.0962V53.781C78.3817 55.7283 77.6082 57.5959 76.2312 58.9729C74.8542 60.3499 72.9867 61.1234 71.0393 61.1234Z" stroke="black" stroke-width="2" stroke-linecap="round" stroke-linejoin="round"/>
</svg>
