<svg width="121" height="48" viewBox="0 0 121 48" fill="none" xmlns="http://www.w3.org/2000/svg">
<rect y="3" width="121" height="44" rx="5" fill="#FB8C00"/>
<path d="M18.2221 23.8C18.6061 21.5813 19.4168 19.608 20.6541 17.88C21.9128 16.1307 23.4595 14.776 25.2941 13.816C27.1288 12.8347 29.0808 12.344 31.1501 12.344C33.5608 12.344 35.5341 12.952 37.0701 14.168C38.6275 15.3627 39.6301 17.0267 40.0781 19.16H38.4141C38.0515 17.4747 37.2088 16.1307 35.8861 15.128C34.5848 14.1253 32.9315 13.624 30.9261 13.624C29.1555 13.624 27.4808 14.04 25.9021 14.872C24.3235 15.704 22.9795 16.888 21.8701 18.424C20.7821 19.96 20.0568 21.752 19.6941 23.8C19.5661 24.568 19.5021 25.3147 19.5021 26.04C19.5021 27.6613 19.8328 29.0693 20.4941 30.264C21.1555 31.4373 22.0728 32.344 23.2461 32.984C24.4408 33.624 25.8061 33.944 27.3421 33.944C29.0488 33.944 30.6595 33.56 32.1741 32.792C33.7101 32.024 35.0115 30.936 36.0781 29.528C37.1661 28.0987 37.9235 26.424 38.3501 24.504H28.3341L28.5581 23.32H40.0461L39.8541 24.28C39.4275 26.3707 38.5955 28.248 37.3581 29.912C36.1421 31.5547 34.6381 32.856 32.8461 33.816C31.0541 34.7547 29.1448 35.224 27.1181 35.224C25.3048 35.224 23.7048 34.8507 22.3181 34.104C20.9528 33.3573 19.8861 32.3013 19.1181 30.936C18.3715 29.5493 17.9981 27.96 17.9981 26.168C17.9981 25.3573 18.0728 24.568 18.2221 23.8ZM52.9776 17.4C54.4496 17.4 55.6976 17.688 56.7216 18.264C57.767 18.8187 58.5456 19.576 59.0576 20.536C59.591 21.4747 59.8576 22.5307 59.8576 23.704C59.8576 24.216 59.815 24.6853 59.7296 25.112C59.6016 25.88 59.4736 26.456 59.3456 26.84H44.3376C44.2523 27.5227 44.2096 28.0133 44.2096 28.312C44.2096 30.1467 44.7643 31.5547 45.8736 32.536C46.983 33.5173 48.3803 34.008 50.0656 34.008C51.751 34.008 53.2443 33.592 54.5456 32.76C55.8683 31.9067 56.807 30.7547 57.3616 29.304H58.8656C58.183 31.0747 57.0416 32.5147 55.4416 33.624C53.863 34.712 51.9963 35.256 49.8416 35.256C47.7083 35.256 45.991 34.6373 44.6896 33.4C43.4096 32.1627 42.7696 30.4773 42.7696 28.344C42.7696 27.6827 42.8336 27 42.9616 26.296C43.2816 24.4827 43.9216 22.904 44.8816 21.56C45.8416 20.216 47.015 19.192 48.4016 18.488C49.8096 17.7627 51.335 17.4 52.9776 17.4ZM58.1936 25.72C58.343 25.1013 58.4176 24.472 58.4176 23.832C58.4176 22.1467 57.8736 20.856 56.7856 19.96C55.719 19.064 54.3643 18.616 52.7216 18.616C51.5056 18.616 50.3323 18.8827 49.2016 19.416C48.071 19.9493 47.0896 20.7493 46.2576 21.816C45.4256 22.8827 44.8496 24.184 44.5296 25.72H58.1936ZM73.2976 17.272C75.0683 17.272 76.487 17.752 77.5536 18.712C78.6203 19.6507 79.1536 21.048 79.1536 22.904C79.1536 23.48 79.0896 24.12 78.9616 24.824L77.1696 35H75.7616L77.5536 24.92C77.6603 24.2373 77.7136 23.672 77.7136 23.224C77.7136 21.688 77.287 20.5253 76.4336 19.736C75.5803 18.9253 74.3856 18.52 72.8496 18.52C71.0576 18.52 69.511 19.0747 68.2096 20.184C66.9083 21.2933 66.0123 22.9253 65.5216 25.08L63.7616 35H62.3216L65.4256 17.624H66.8656L66.2256 21.272C66.951 19.9707 67.9323 18.9787 69.1696 18.296C70.4283 17.6133 71.8043 17.272 73.2976 17.272ZM86.7391 13.752C86.4405 13.752 86.1951 13.6667 86.0031 13.496C85.8111 13.304 85.7151 13.0587 85.7151 12.76C85.7151 12.3333 85.8645 11.9813 86.1631 11.704C86.4618 11.4053 86.8031 11.256 87.1871 11.256C87.4858 11.256 87.7311 11.352 87.9231 11.544C88.1365 11.736 88.2431 11.9813 88.2431 12.28C88.2431 12.7067 88.0831 13.0587 87.7631 13.336C87.4645 13.6133 87.1231 13.752 86.7391 13.752ZM86.8031 17.624L83.6991 35H82.2591L85.3631 17.624H86.8031ZM99.6339 17.4C101.106 17.4 102.354 17.688 103.378 18.264C104.423 18.8187 105.202 19.576 105.714 20.536C106.247 21.4747 106.514 22.5307 106.514 23.704C106.514 24.216 106.471 24.6853 106.386 25.112C106.258 25.88 106.13 26.456 106.002 26.84H90.9939C90.9085 27.5227 90.8659 28.0133 90.8659 28.312C90.8659 30.1467 91.4205 31.5547 92.5299 32.536C93.6392 33.5173 95.0365 34.008 96.7219 34.008C98.4072 34.008 99.9005 33.592 101.202 32.76C102.525 31.9067 103.463 30.7547 104.018 29.304H105.522C104.839 31.0747 103.698 32.5147 102.098 33.624C100.519 34.712 98.6525 35.256 96.4979 35.256C94.3645 35.256 92.6472 34.6373 91.3459 33.4C90.0659 32.1627 89.4259 30.4773 89.4259 28.344C89.4259 27.6827 89.4899 27 89.6179 26.296C89.9379 24.4827 90.5779 22.904 91.5379 21.56C92.4979 20.216 93.6712 19.192 95.0579 18.488C96.4659 17.7627 97.9912 17.4 99.6339 17.4ZM104.85 25.72C104.999 25.1013 105.074 24.472 105.074 23.832C105.074 22.1467 104.53 20.856 103.442 19.96C102.375 19.064 101.021 18.616 99.3779 18.616C98.1619 18.616 96.9885 18.8827 95.8579 19.416C94.7272 19.9493 93.7459 20.7493 92.9139 21.816C92.0819 22.8827 91.5059 24.184 91.1859 25.72H104.85Z" fill="white"/>
</svg>
