<svg width="26" height="26" viewBox="0 0 26 26" fill="none" xmlns="http://www.w3.org/2000/svg">
<path d="M13 2.16667C18.9829 2.16667 23.8333 7.01711 23.8333 13C23.8333 18.9829 18.9829 23.8333 13 23.8333C7.01711 23.8333 2.16667 18.9829 2.16667 13C2.16763 12.4405 2.2088 11.8928 2.29017 11.3569C2.33134 11.0738 2.2588 10.7858 2.08839 10.5559C1.91797 10.326 1.66353 10.1729 1.38061 10.13C1.09769 10.0871 0.809278 10.1578 0.578348 10.3268C0.347418 10.4958 0.192728 10.7493 0.148055 11.0319C0.0498333 11.6747 0.000481481 12.3307 0 13C0 20.1796 5.82039 26 13 26C20.1796 26 26 20.1796 26 13C26 5.82039 20.1796 0 13 0C9.67056 0 6.63289 1.25233 4.33333 3.31067V1.08333C4.33333 0.796015 4.2192 0.520465 4.01603 0.317301C3.81287 0.114136 3.53732 0 3.25 0C2.96268 0 2.68713 0.114136 2.48397 0.317301C2.2808 0.520465 2.16667 0.796015 2.16667 1.08333V6.13889C2.16667 6.42621 2.2808 6.70176 2.48397 6.90492C2.68713 7.10809 2.96268 7.22222 3.25 7.22222H8.30556C8.59287 7.22222 8.86842 7.10809 9.07159 6.90492C9.27475 6.70176 9.38889 6.42621 9.38889 6.13889C9.38889 5.85157 9.27475 5.57602 9.07159 5.37286C8.86842 5.16969 8.59287 5.05556 8.30556 5.05556H5.63478C7.63553 3.1948 10.2677 2.16237 13 2.16667ZM13.7222 6.13889C13.7222 5.85157 13.6081 5.57602 13.4049 5.37286C13.2018 5.16969 12.9262 5.05556 12.6389 5.05556C12.3516 5.05556 12.076 5.16969 11.8729 5.37286C11.6697 5.57602 11.5556 5.85157 11.5556 6.13889V13.3611C11.5556 13.6484 11.6697 13.924 11.8729 14.1271C12.076 14.3303 12.3516 14.4444 12.6389 14.4444H17.6944C17.9818 14.4444 18.2573 14.3303 18.4605 14.1271C18.6636 13.924 18.7778 13.6484 18.7778 13.3611C18.7778 13.0738 18.6636 12.7982 18.4605 12.5951C18.2573 12.3919 17.9818 12.2778 17.6944 12.2778H13.7222V6.13889Z" fill="#2E2C43"/>
</svg>
