<svg width="336" height="134" viewBox="0 0 336 134" fill="none" xmlns="http://www.w3.org/2000/svg">
<rect y="75.1465" width="336" height="58.7352" fill="#FB8C00"/>
<path d="M134.467 109.246C133.297 109.246 132.33 108.974 131.565 108.431C130.81 107.878 130.4 107.072 130.335 106.012H133.597C133.643 106.574 133.892 106.855 134.343 106.855C134.509 106.855 134.647 106.818 134.758 106.745C134.877 106.662 134.937 106.537 134.937 106.372C134.937 106.141 134.813 105.957 134.564 105.819C134.315 105.671 133.928 105.506 133.403 105.321C132.777 105.1 132.256 104.884 131.842 104.672C131.436 104.46 131.086 104.151 130.791 103.746C130.496 103.34 130.354 102.82 130.363 102.184C130.363 101.548 130.524 101.009 130.847 100.567C131.178 100.116 131.625 99.7748 132.187 99.5445C132.758 99.3141 133.399 99.199 134.108 99.199C135.306 99.199 136.255 99.4754 136.955 100.028C137.664 100.581 138.038 101.36 138.074 102.364H134.771C134.762 102.087 134.693 101.889 134.564 101.77C134.435 101.65 134.279 101.59 134.094 101.59C133.965 101.59 133.859 101.636 133.776 101.728C133.693 101.811 133.652 101.931 133.652 102.087C133.652 102.308 133.772 102.493 134.011 102.64C134.26 102.778 134.652 102.949 135.186 103.152C135.803 103.382 136.31 103.603 136.706 103.815C137.112 104.027 137.462 104.322 137.757 104.699C138.051 105.077 138.199 105.552 138.199 106.123C138.199 106.722 138.051 107.261 137.757 107.74C137.462 108.21 137.033 108.578 136.471 108.845C135.909 109.113 135.241 109.246 134.467 109.246ZM146.823 105.183C146.823 105.395 146.809 105.598 146.781 105.791H141.847C141.893 106.464 142.174 106.8 142.69 106.8C143.022 106.8 143.262 106.648 143.409 106.344H146.657C146.546 106.897 146.311 107.394 145.952 107.837C145.602 108.27 145.155 108.615 144.611 108.873C144.077 109.122 143.487 109.246 142.842 109.246C142.068 109.246 141.377 109.085 140.769 108.762C140.17 108.44 139.701 107.979 139.36 107.38C139.028 106.772 138.862 106.063 138.862 105.252C138.862 104.441 139.028 103.737 139.36 103.138C139.701 102.53 140.17 102.064 140.769 101.742C141.377 101.419 142.068 101.258 142.842 101.258C143.616 101.258 144.303 101.419 144.902 101.742C145.51 102.055 145.98 102.507 146.311 103.096C146.652 103.686 146.823 104.381 146.823 105.183ZM143.713 104.451C143.713 104.193 143.63 103.999 143.464 103.87C143.298 103.732 143.091 103.663 142.842 103.663C142.299 103.663 141.981 103.925 141.889 104.451H143.713ZM153.252 101.3C154.145 101.3 154.841 101.599 155.339 102.198C155.845 102.797 156.099 103.608 156.099 104.63V109.149H153.044V105.017C153.044 104.649 152.943 104.358 152.74 104.147C152.547 103.925 152.284 103.815 151.953 103.815C151.612 103.815 151.345 103.925 151.151 104.147C150.958 104.358 150.861 104.649 150.861 105.017V109.149H147.793V101.355H150.861V102.543C151.1 102.175 151.418 101.875 151.814 101.645C152.22 101.415 152.699 101.3 153.252 101.3ZM157.014 105.252C157.014 104.432 157.153 103.723 157.429 103.124C157.715 102.516 158.102 102.055 158.59 101.742C159.078 101.419 159.626 101.258 160.235 101.258C160.741 101.258 161.174 101.364 161.534 101.576C161.902 101.779 162.183 102.06 162.377 102.419V98.9226H165.445V109.149H162.377V108.085C162.183 108.445 161.902 108.73 161.534 108.942C161.174 109.145 160.741 109.246 160.235 109.246C159.626 109.246 159.078 109.09 158.59 108.776C158.102 108.454 157.715 107.993 157.429 107.394C157.153 106.786 157.014 106.072 157.014 105.252ZM162.39 105.252C162.39 104.838 162.285 104.515 162.073 104.285C161.861 104.054 161.589 103.939 161.257 103.939C160.926 103.939 160.654 104.054 160.442 104.285C160.23 104.515 160.124 104.838 160.124 105.252C160.124 105.667 160.23 105.989 160.442 106.22C160.654 106.45 160.926 106.565 161.257 106.565C161.589 106.565 161.861 106.45 162.073 106.22C162.285 105.989 162.39 105.667 162.39 105.252ZM168.756 105.252C168.756 104.432 168.894 103.723 169.171 103.124C169.456 102.516 169.843 102.055 170.332 101.742C170.82 101.419 171.368 101.258 171.976 101.258C172.483 101.258 172.921 101.364 173.289 101.576C173.658 101.779 173.939 102.06 174.132 102.419V101.355H177.186V109.149H174.132V108.085C173.939 108.445 173.658 108.73 173.289 108.942C172.921 109.145 172.483 109.246 171.976 109.246C171.368 109.246 170.82 109.09 170.332 108.776C169.843 108.454 169.456 107.993 169.171 107.394C168.894 106.786 168.756 106.072 168.756 105.252ZM174.132 105.252C174.132 104.838 174.026 104.515 173.814 104.285C173.602 104.054 173.331 103.939 172.999 103.939C172.667 103.939 172.395 104.054 172.184 104.285C171.972 104.515 171.866 104.838 171.866 105.252C171.866 105.667 171.972 105.989 172.184 106.22C172.395 106.45 172.667 106.565 172.999 106.565C173.331 106.565 173.602 106.45 173.814 106.22C174.026 105.989 174.132 105.667 174.132 105.252ZM183.98 102.419C184.174 102.06 184.45 101.779 184.81 101.576C185.178 101.364 185.616 101.258 186.123 101.258C186.731 101.258 187.279 101.419 187.767 101.742C188.255 102.055 188.638 102.516 188.914 103.124C189.2 103.723 189.343 104.432 189.343 105.252C189.343 106.072 189.2 106.786 188.914 107.394C188.638 107.993 188.255 108.454 187.767 108.776C187.279 109.09 186.731 109.246 186.123 109.246C185.616 109.246 185.178 109.145 184.81 108.942C184.45 108.73 184.174 108.445 183.98 108.085V109.149H180.912V98.9226H183.98V102.419ZM186.233 105.252C186.233 104.838 186.127 104.515 185.915 104.285C185.703 104.054 185.432 103.939 185.1 103.939C184.768 103.939 184.496 104.054 184.284 104.285C184.073 104.515 183.967 104.838 183.967 105.252C183.967 105.667 184.073 105.989 184.284 106.22C184.496 106.45 184.768 106.565 185.1 106.565C185.432 106.565 185.703 106.45 185.915 106.22C186.127 105.989 186.233 105.667 186.233 105.252ZM191.854 100.733C191.319 100.733 190.891 100.59 190.568 100.305C190.246 100.019 190.085 99.6596 190.085 99.2266C190.085 98.7844 190.246 98.4204 190.568 98.1348C190.891 97.84 191.319 97.6926 191.854 97.6926C192.379 97.6926 192.803 97.84 193.125 98.1348C193.447 98.4204 193.609 98.7844 193.609 99.2266C193.609 99.6596 193.447 100.019 193.125 100.305C192.803 100.59 192.379 100.733 191.854 100.733ZM193.374 101.355V109.149H190.306V101.355H193.374ZM194.345 105.252C194.345 104.432 194.483 103.723 194.759 103.124C195.045 102.516 195.432 102.055 195.92 101.742C196.409 101.419 196.957 101.258 197.565 101.258C198.072 101.258 198.505 101.364 198.864 101.576C199.233 101.779 199.514 102.06 199.707 102.419V98.9226H202.775V109.149H199.707V108.085C199.514 108.445 199.233 108.73 198.864 108.942C198.505 109.145 198.072 109.246 197.565 109.246C196.957 109.246 196.409 109.09 195.92 108.776C195.432 108.454 195.045 107.993 194.759 107.394C194.483 106.786 194.345 106.072 194.345 105.252ZM199.721 105.252C199.721 104.838 199.615 104.515 199.403 104.285C199.191 104.054 198.919 103.939 198.588 103.939C198.256 103.939 197.984 104.054 197.772 104.285C197.56 104.515 197.454 104.838 197.454 105.252C197.454 105.667 197.56 105.989 197.772 106.22C197.984 106.45 198.256 106.565 198.588 106.565C198.919 106.565 199.191 106.45 199.403 106.22C199.615 105.989 199.721 105.667 199.721 105.252Z" fill="white"/>
<rect x="21.1623" y="0.431877" width="278.992" height="53.5527" rx="20.2982" stroke="#FB8C00" stroke-width="0.863753"/>
<path d="M82.8986 31.5079C81.7285 31.5079 80.7611 31.2361 79.9964 30.6925C79.2409 30.1397 78.8309 29.3335 78.7664 28.274H82.0279C82.074 28.836 82.3228 29.117 82.7742 29.117C82.9401 29.117 83.0783 29.0802 83.1888 29.0064C83.3086 28.9235 83.3685 28.7991 83.3685 28.6333C83.3685 28.403 83.2441 28.2187 82.9953 28.0805C82.7466 27.9331 82.3596 27.7672 81.8344 27.583C81.2079 27.3619 80.6874 27.1453 80.2728 26.9334C79.8674 26.7215 79.5173 26.4129 79.2225 26.0075C78.9276 25.6021 78.7848 25.0815 78.794 24.4458C78.794 23.8101 78.9553 23.2711 79.2777 22.8289C79.6094 22.3774 80.0563 22.0365 80.6183 21.8062C81.1895 21.5759 81.8298 21.4607 82.5393 21.4607C83.737 21.4607 84.686 21.7371 85.3862 22.2899C86.0956 22.8427 86.4688 23.6212 86.5056 24.6255H83.2026C83.1934 24.3491 83.1243 24.151 82.9953 24.0312C82.8663 23.9115 82.7097 23.8516 82.5255 23.8516C82.3965 23.8516 82.2905 23.8976 82.2076 23.9898C82.1247 24.0727 82.0832 24.1925 82.0832 24.3491C82.0832 24.5702 82.203 24.7545 82.4425 24.9019C82.6913 25.0401 83.0829 25.2105 83.6172 25.4132C84.2345 25.6436 84.7413 25.8647 85.1374 26.0766C85.5428 26.2885 85.8929 26.5833 86.1878 26.9611C86.4826 27.3388 86.63 27.8133 86.63 28.3845C86.63 28.9834 86.4826 29.5224 86.1878 30.0015C85.8929 30.4714 85.4645 30.8399 84.9025 31.1071C84.3405 31.3743 83.6725 31.5079 82.8986 31.5079ZM95.2537 27.4448C95.2537 27.6567 95.2399 27.8594 95.2123 28.0529H90.2785C90.3246 28.7254 90.6056 29.0617 91.1215 29.0617C91.4532 29.0617 91.6927 28.9097 91.8402 28.6057H95.0879C94.9773 29.1585 94.7424 29.656 94.3831 30.0982C94.0329 30.5313 93.5861 30.8768 93.0425 31.1347C92.5081 31.3835 91.9185 31.5079 91.2735 31.5079C90.4996 31.5079 89.8086 31.3466 89.2005 31.0242C88.6017 30.7017 88.1318 30.241 87.7909 29.6422C87.4592 29.0341 87.2934 28.3247 87.2934 27.5139C87.2934 26.7031 87.4592 25.9983 87.7909 25.3994C88.1318 24.7913 88.6017 24.3261 89.2005 24.0036C89.8086 23.6811 90.4996 23.5199 91.2735 23.5199C92.0475 23.5199 92.7339 23.6811 93.3327 24.0036C93.9408 24.3168 94.4107 24.7683 94.7424 25.358C95.0833 25.9476 95.2537 26.6432 95.2537 27.4448ZM92.1442 26.7123C92.1442 26.4543 92.0613 26.2609 91.8954 26.1319C91.7296 25.9937 91.5223 25.9246 91.2735 25.9246C90.73 25.9246 90.4121 26.1872 90.32 26.7123H92.1442ZM101.683 23.5613C102.577 23.5613 103.272 23.8608 103.77 24.4596C104.277 25.0585 104.53 25.8693 104.53 26.892V31.4111H101.476V27.2789C101.476 26.9104 101.374 26.6202 101.172 26.4083C100.978 26.1872 100.716 26.0766 100.384 26.0766C100.043 26.0766 99.7758 26.1872 99.5823 26.4083C99.3888 26.6202 99.2921 26.9104 99.2921 27.2789V31.4111H96.224V23.6166H99.2921V24.8051C99.5316 24.4366 99.8495 24.1372 100.246 23.9068C100.651 23.6765 101.13 23.5613 101.683 23.5613ZM105.446 27.5139C105.446 26.6939 105.584 25.9845 105.86 25.3856C106.146 24.7775 106.533 24.3168 107.021 24.0036C107.509 23.6811 108.058 23.5199 108.666 23.5199C109.172 23.5199 109.606 23.6258 109.965 23.8377C110.333 24.0404 110.614 24.3214 110.808 24.6808V21.1843H113.876V31.4111H110.808V30.347C110.614 30.7063 110.333 30.9919 109.965 31.2038C109.606 31.4065 109.172 31.5079 108.666 31.5079C108.058 31.5079 107.509 31.3512 107.021 31.038C106.533 30.7155 106.146 30.2549 105.86 29.656C105.584 29.0479 105.446 28.3339 105.446 27.5139ZM110.822 27.5139C110.822 27.0993 110.716 26.7768 110.504 26.5465C110.292 26.3161 110.02 26.201 109.688 26.201C109.357 26.201 109.085 26.3161 108.873 26.5465C108.661 26.7768 108.555 27.0993 108.555 27.5139C108.555 27.9285 108.661 28.2509 108.873 28.4813C109.085 28.7116 109.357 28.8268 109.688 28.8268C110.02 28.8268 110.292 28.7116 110.504 28.4813C110.716 28.2509 110.822 27.9285 110.822 27.5139ZM117.187 27.5692C117.187 26.8044 117.344 26.1181 117.657 25.51C117.97 24.9019 118.39 24.4274 118.915 24.0865C119.449 23.7364 120.02 23.5613 120.629 23.5613C121.043 23.5613 121.407 23.6212 121.72 23.741C122.034 23.8516 122.315 24.0404 122.563 24.3076V23.6166H125.618V35.1425H122.563V30.5543C122.287 30.8768 121.992 31.1163 121.679 31.2729C121.375 31.4203 121.025 31.4941 120.629 31.4941C120.011 31.4941 119.44 31.3282 118.915 30.9965C118.39 30.6649 117.97 30.2042 117.657 29.6145C117.344 29.0157 117.187 28.3339 117.187 27.5692ZM122.563 27.5139C122.563 27.0624 122.444 26.7353 122.204 26.5327C121.974 26.3207 121.716 26.2148 121.43 26.2148C121.154 26.2148 120.896 26.33 120.656 26.5603C120.417 26.7814 120.297 27.1177 120.297 27.5692C120.297 28.0114 120.412 28.3339 120.642 28.5366C120.882 28.73 121.144 28.8268 121.43 28.8268C121.716 28.8268 121.974 28.7208 122.204 28.5089C122.444 28.297 122.563 27.9653 122.563 27.5139ZM135.246 23.6166V31.4111H132.178V30.2226C131.938 30.5911 131.616 30.8906 131.21 31.1209C130.814 31.3512 130.34 31.4664 129.787 31.4664C128.893 31.4664 128.193 31.167 127.686 30.5681C127.189 29.9692 126.94 29.1585 126.94 28.1358V23.6166H129.994V27.7488C129.994 28.1174 130.091 28.4122 130.284 28.6333C130.487 28.8452 130.754 28.9512 131.086 28.9512C131.427 28.9512 131.694 28.8452 131.888 28.6333C132.081 28.4122 132.178 28.1174 132.178 27.7488V23.6166H135.246ZM144.177 27.4448C144.177 27.6567 144.163 27.8594 144.136 28.0529H139.202C139.248 28.7254 139.529 29.0617 140.045 29.0617C140.377 29.0617 140.616 28.9097 140.764 28.6057H144.011C143.901 29.1585 143.666 29.656 143.307 30.0982C142.956 30.5313 142.51 30.8768 141.966 31.1347C141.432 31.3835 140.842 31.5079 140.197 31.5079C139.423 31.5079 138.732 31.3466 138.124 31.0242C137.525 30.7017 137.055 30.241 136.714 29.6422C136.383 29.0341 136.217 28.3247 136.217 27.5139C136.217 26.7031 136.383 25.9983 136.714 25.3994C137.055 24.7913 137.525 24.3261 138.124 24.0036C138.732 23.6811 139.423 23.5199 140.197 23.5199C140.971 23.5199 141.657 23.6811 142.256 24.0036C142.864 24.3168 143.334 24.7683 143.666 25.358C144.007 25.9476 144.177 26.6432 144.177 27.4448ZM141.068 26.7123C141.068 26.4543 140.985 26.2609 140.819 26.1319C140.653 25.9937 140.446 25.9246 140.197 25.9246C139.653 25.9246 139.336 26.1872 139.243 26.7123H141.068ZM148.216 25.0539C148.529 24.6025 148.911 24.2431 149.363 23.9759C149.814 23.6995 150.284 23.5613 150.772 23.5613V26.8367H149.902C149.321 26.8367 148.893 26.938 148.616 27.1407C148.349 27.3434 148.216 27.7028 148.216 28.2187V31.4111H145.148V23.6166H148.216V25.0539ZM160.402 23.6166L155.413 35.1425H152.055L154.017 31.0242L150.77 23.6166H154.183L155.648 27.5692L157.016 23.6166H160.402ZM168.151 28.7991V31.4111H166.99C164.852 31.4111 163.784 30.347 163.784 28.2187V26.1733H162.816V23.6166H163.784V21.7371H166.852V23.6166H168.123V26.1733H166.852V28.274C166.852 28.4582 166.893 28.5918 166.976 28.6748C167.068 28.7577 167.216 28.7991 167.418 28.7991H168.151ZM173.023 31.5079C172.24 31.5079 171.535 31.3466 170.908 31.0242C170.282 30.7017 169.789 30.241 169.43 29.6422C169.08 29.0341 168.905 28.3247 168.905 27.5139C168.905 26.7031 169.08 25.9983 169.43 25.3994C169.789 24.7913 170.282 24.3261 170.908 24.0036C171.535 23.6811 172.24 23.5199 173.023 23.5199C173.806 23.5199 174.511 23.6811 175.137 24.0036C175.764 24.3261 176.252 24.7913 176.602 25.3994C176.962 25.9983 177.141 26.7031 177.141 27.5139C177.141 28.3247 176.962 29.0341 176.602 29.6422C176.252 30.241 175.764 30.7017 175.137 31.0242C174.511 31.3466 173.806 31.5079 173.023 31.5079ZM173.023 28.8544C173.309 28.8544 173.548 28.7439 173.742 28.5227C173.935 28.2924 174.032 27.9561 174.032 27.5139C174.032 27.0716 173.935 26.74 173.742 26.5188C173.548 26.2885 173.309 26.1733 173.023 26.1733C172.737 26.1733 172.498 26.2885 172.304 26.5188C172.111 26.74 172.014 27.0716 172.014 27.5139C172.014 27.9561 172.106 28.2924 172.29 28.5227C172.484 28.7439 172.728 28.8544 173.023 28.8544ZM180.039 27.5139C180.039 26.7031 180.205 25.9983 180.536 25.3994C180.877 24.7913 181.347 24.3261 181.946 24.0036C182.554 23.6811 183.245 23.5199 184.019 23.5199C185.033 23.5199 185.885 23.8055 186.576 24.3767C187.276 24.948 187.718 25.7403 187.902 26.7538H184.655C184.535 26.3484 184.3 26.1457 183.95 26.1457C183.701 26.1457 183.503 26.2609 183.356 26.4912C183.217 26.7215 183.148 27.0624 183.148 27.5139C183.148 27.9653 183.217 28.3062 183.356 28.5366C183.503 28.7669 183.701 28.8821 183.95 28.8821C184.3 28.8821 184.535 28.6794 184.655 28.274H187.902C187.718 29.2875 187.276 30.0798 186.576 30.651C185.885 31.2223 185.033 31.5079 184.019 31.5079C183.245 31.5079 182.554 31.3466 181.946 31.0242C181.347 30.7017 180.877 30.241 180.536 29.6422C180.205 29.0341 180.039 28.3247 180.039 27.5139ZM197.126 23.6166V31.4111H194.058V30.2226C193.818 30.5911 193.496 30.8906 193.09 31.1209C192.694 31.3512 192.22 31.4664 191.667 31.4664C190.773 31.4664 190.073 31.167 189.566 30.5681C189.069 29.9692 188.82 29.1585 188.82 28.1358V23.6166H191.874V27.7488C191.874 28.1174 191.971 28.4122 192.164 28.6333C192.367 28.8452 192.634 28.9512 192.966 28.9512C193.307 28.9512 193.574 28.8452 193.767 28.6333C193.961 28.4122 194.058 28.1174 194.058 27.7488V23.6166H197.126ZM201.98 31.5079C201.243 31.5079 200.589 31.3881 200.018 31.1486C199.456 30.909 199.009 30.5773 198.677 30.1535C198.345 29.7297 198.157 29.2506 198.111 28.7162H201.054C201.091 28.9466 201.188 29.117 201.344 29.2276C201.51 29.3381 201.718 29.3934 201.966 29.3934C202.123 29.3934 202.247 29.3612 202.339 29.2967C202.432 29.223 202.478 29.1354 202.478 29.0341C202.478 28.859 202.381 28.7346 202.187 28.6609C201.994 28.5872 201.667 28.5043 201.206 28.4122C200.644 28.3016 200.179 28.1818 199.81 28.0529C199.451 27.9239 199.133 27.7028 198.857 27.3895C198.59 27.0762 198.456 26.6432 198.456 26.0904C198.456 25.6113 198.58 25.1783 198.829 24.7913C199.087 24.3952 199.465 24.0865 199.962 23.8654C200.46 23.6351 201.063 23.5199 201.773 23.5199C202.823 23.5199 203.643 23.7779 204.233 24.2938C204.832 24.8098 205.191 25.4823 205.311 26.3115H202.588C202.542 26.0996 202.445 25.9384 202.298 25.8278C202.151 25.7081 201.953 25.6482 201.704 25.6482C201.547 25.6482 201.427 25.6804 201.344 25.7449C201.262 25.8002 201.22 25.8877 201.22 26.0075C201.22 26.1641 201.317 26.2839 201.51 26.3668C201.704 26.4405 202.012 26.5188 202.436 26.6018C202.998 26.7123 203.473 26.8367 203.86 26.9749C204.247 27.1131 204.583 27.3526 204.869 27.6935C205.154 28.0252 205.297 28.4859 205.297 29.0755C205.297 29.5362 205.163 29.9508 204.896 30.3193C204.629 30.6879 204.242 30.9781 203.735 31.19C203.238 31.4019 202.653 31.5079 201.98 31.5079ZM211.365 28.7991V31.4111H210.204C208.067 31.4111 206.998 30.347 206.998 28.2187V26.1733H206.031V23.6166H206.998V21.7371H210.066V23.6166H211.338V26.1733H210.066V28.274C210.066 28.4582 210.108 28.5918 210.191 28.6748C210.283 28.7577 210.43 28.7991 210.633 28.7991H211.365ZM216.238 31.5079C215.454 31.5079 214.75 31.3466 214.123 31.0242C213.497 30.7017 213.004 30.241 212.644 29.6422C212.294 29.0341 212.119 28.3247 212.119 27.5139C212.119 26.7031 212.294 25.9983 212.644 25.3994C213.004 24.7913 213.497 24.3261 214.123 24.0036C214.75 23.6811 215.454 23.5199 216.238 23.5199C217.021 23.5199 217.726 23.6811 218.352 24.0036C218.979 24.3261 219.467 24.7913 219.817 25.3994C220.176 25.9983 220.356 26.7031 220.356 27.5139C220.356 28.3247 220.176 29.0341 219.817 29.6422C219.467 30.241 218.979 30.7017 218.352 31.0242C217.726 31.3466 217.021 31.5079 216.238 31.5079ZM216.238 28.8544C216.523 28.8544 216.763 28.7439 216.956 28.5227C217.15 28.2924 217.246 27.9561 217.246 27.5139C217.246 27.0716 217.15 26.74 216.956 26.5188C216.763 26.2885 216.523 26.1733 216.238 26.1733C215.952 26.1733 215.712 26.2885 215.519 26.5188C215.325 26.74 215.229 27.0716 215.229 27.5139C215.229 27.9561 215.321 28.2924 215.505 28.5227C215.699 28.7439 215.943 28.8544 216.238 28.8544ZM231.726 23.5613C232.721 23.5613 233.491 23.8608 234.034 24.4596C234.587 25.0585 234.863 25.8693 234.863 26.892V31.4111H231.809V27.2789C231.809 26.9473 231.708 26.6893 231.505 26.505C231.312 26.3115 231.049 26.2148 230.717 26.2148C230.377 26.2148 230.109 26.3115 229.916 26.505C229.722 26.6893 229.626 26.9473 229.626 27.2789V31.4111H226.571V27.2789C226.571 26.9473 226.47 26.6893 226.267 26.505C226.074 26.3115 225.811 26.2148 225.48 26.2148C225.139 26.2148 224.872 26.3115 224.678 26.505C224.485 26.6893 224.388 26.9473 224.388 27.2789V31.4111H221.32V23.6166H224.388V24.6669C224.609 24.3353 224.908 24.0681 225.286 23.8654C225.673 23.6627 226.125 23.5613 226.641 23.5613C227.203 23.5613 227.7 23.6857 228.133 23.9345C228.566 24.174 228.912 24.5149 229.17 24.9572C229.455 24.5518 229.819 24.2201 230.261 23.9621C230.704 23.6949 231.192 23.5613 231.726 23.5613ZM243.738 27.4448C243.738 27.6567 243.724 27.8594 243.697 28.0529H238.763C238.809 28.7254 239.09 29.0617 239.606 29.0617C239.938 29.0617 240.177 28.9097 240.325 28.6057H243.572C243.462 29.1585 243.227 29.656 242.868 30.0982C242.518 30.5313 242.071 30.8768 241.527 31.1347C240.993 31.3835 240.403 31.5079 239.758 31.5079C238.984 31.5079 238.293 31.3466 237.685 31.0242C237.086 30.7017 236.616 30.241 236.275 29.6422C235.944 29.0341 235.778 28.3247 235.778 27.5139C235.778 26.7031 235.944 25.9983 236.275 25.3994C236.616 24.7913 237.086 24.3261 237.685 24.0036C238.293 23.6811 238.984 23.5199 239.758 23.5199C240.532 23.5199 241.218 23.6811 241.817 24.0036C242.425 24.3168 242.895 24.7683 243.227 25.358C243.568 25.9476 243.738 26.6432 243.738 27.4448ZM240.629 26.7123C240.629 26.4543 240.546 26.2609 240.38 26.1319C240.214 25.9937 240.007 25.9246 239.758 25.9246C239.215 25.9246 238.897 26.1872 238.805 26.7123H240.629ZM247.777 25.0539C248.09 24.6025 248.472 24.2431 248.924 23.9759C249.375 23.6995 249.845 23.5613 250.333 23.5613V26.8367H249.463C248.882 26.8367 248.454 26.938 248.177 27.1407C247.91 27.3434 247.777 27.7028 247.777 28.2187V31.4111H244.709V23.6166H247.777V25.0539Z" fill="#FB8C00"/>
</svg>
