<svg width="371" height="153" viewBox="0 0 371 153" fill="none" xmlns="http://www.w3.org/2000/svg">
<g clip-path="url(#clip0_1790_128)">
<rect width="371" height="153" fill="white"/>
<path d="M176.586 64.2278C178.384 64.2278 180.142 63.6638 181.637 62.6071C183.132 61.5504 184.297 60.0484 184.985 58.2912C185.673 56.5339 185.853 54.6003 185.502 52.7348C185.152 50.8693 184.286 49.1558 183.014 47.8108C181.743 46.4659 180.123 45.55 178.36 45.1789C176.596 44.8079 174.768 44.9983 173.107 45.7262C171.446 46.4541 170.026 47.6867 169.027 49.2682C168.028 50.8496 167.495 52.7089 167.495 54.611C167.495 57.1615 168.453 59.6076 170.158 61.4111C171.863 63.2146 174.175 64.2278 176.586 64.2278ZM176.586 51.4054C177.185 51.4054 177.771 51.5934 178.27 51.9456C178.768 52.2978 179.156 52.7985 179.386 53.3842C179.615 53.97 179.675 54.6145 179.558 55.2364C179.441 55.8582 179.153 56.4294 178.729 56.8777C178.305 57.326 177.765 57.6313 177.177 57.755C176.589 57.8787 175.98 57.8152 175.426 57.5726C174.873 57.3299 174.399 56.9191 174.066 56.3919C173.733 55.8648 173.556 55.245 173.556 54.611C173.556 53.7608 173.875 52.9454 174.443 52.3443C175.012 51.7431 175.782 51.4054 176.586 51.4054Z" fill="black" fill-opacity="0.21"/>
<path d="M197.799 32.1716H137.192C135.585 32.1716 134.044 32.8471 132.907 34.0494C131.77 35.2518 131.132 36.8825 131.132 38.5829V102.695C131.132 104.395 131.77 106.026 132.907 107.228C134.044 108.431 135.585 109.106 137.192 109.106H197.799C199.406 109.106 200.947 108.431 202.084 107.228C203.221 106.026 203.859 104.395 203.859 102.695V38.5829C203.859 36.8825 203.221 35.2518 202.084 34.0494C200.947 32.8471 199.406 32.1716 197.799 32.1716ZM197.799 102.695H137.192V83.4614L152.344 67.4333L169.283 85.3527C170.419 86.5468 171.955 87.217 173.556 87.217C175.157 87.217 176.693 86.5468 177.829 85.3527L182.647 80.2558L197.799 96.2838V102.695ZM197.799 87.212L186.92 75.7038C185.784 74.5097 184.248 73.8395 182.647 73.8395C181.046 73.8395 179.51 74.5097 178.374 75.7038L173.556 80.8007L156.617 62.8814C155.481 61.6873 153.945 61.017 152.344 61.017C150.743 61.017 149.207 61.6873 148.071 62.8814L137.192 74.3895V38.5829H197.799V87.212Z" fill="black" fill-opacity="0.21"/>
<path d="M221.386 76.1364V78.1628H223.77V79.0866H221.386V81.2024H224.068V82.1262H220.254V75.2126H224.068V76.1364H221.386ZM227.807 79.3548L229.575 82.1262H228.294L227.112 80.2687L225.999 82.1262H224.817L226.585 79.4343L224.817 76.653H226.099L227.281 78.5105L228.393 76.653H229.575L227.807 79.3548ZM231.552 77.4576C231.744 77.2059 232.006 76.994 232.337 76.8218C232.668 76.6496 233.042 76.5636 233.46 76.5636C233.936 76.5636 234.37 76.6828 234.761 76.9212C235.158 77.1529 235.469 77.4807 235.695 77.9046C235.92 78.3284 236.032 78.8151 236.032 79.3648C236.032 79.9144 235.92 80.4078 235.695 80.8448C235.469 81.2753 235.158 81.613 234.761 81.858C234.37 82.0964 233.936 82.2156 233.46 82.2156C233.042 82.2156 232.671 82.1328 232.347 81.9673C232.023 81.7951 231.758 81.5832 231.552 81.3316V84.7288H230.42V76.653H231.552V77.4576ZM234.88 79.3648C234.88 78.9873 234.801 78.6628 234.642 78.3913C234.489 78.1132 234.284 77.9046 234.026 77.7655C233.774 77.6198 233.503 77.547 233.211 77.547C232.926 77.547 232.655 77.6198 232.397 77.7655C232.145 77.9112 231.94 78.1231 231.781 78.4012C231.628 78.6794 231.552 79.0072 231.552 79.3846C231.552 79.7621 231.628 80.0932 231.781 80.378C231.94 80.6561 232.145 80.868 232.397 81.0137C232.655 81.1594 232.926 81.2322 233.211 81.2322C233.503 81.2322 233.774 81.1594 234.026 81.0137C234.284 80.8614 234.489 80.6428 234.642 80.3581C234.801 80.0733 234.88 79.7422 234.88 79.3648ZM242.168 79.2555C242.168 79.4608 242.155 79.6462 242.129 79.8118H237.947C237.98 80.2488 238.142 80.5998 238.433 80.8647C238.725 81.1296 239.082 81.262 239.506 81.262C240.116 81.262 240.546 81.0071 240.798 80.4972H242.019C241.854 81.0004 241.553 81.4143 241.115 81.7388C240.685 82.0567 240.149 82.2156 239.506 82.2156C238.983 82.2156 238.513 82.0997 238.096 81.868C237.685 81.6296 237.361 81.2984 237.122 80.8746C236.891 80.4442 236.775 79.9475 236.775 79.3846C236.775 78.8217 236.887 78.3284 237.112 77.9046C237.344 77.4741 237.665 77.143 238.076 76.9112C238.493 76.6794 238.97 76.5636 239.506 76.5636C240.023 76.5636 240.483 76.6761 240.887 76.9013C241.291 77.1264 241.606 77.4443 241.831 77.8549C242.056 78.2588 242.168 78.7257 242.168 79.2555ZM240.986 78.8979C240.98 78.4807 240.831 78.1463 240.539 77.8946C240.248 77.643 239.887 77.5172 239.457 77.5172C239.066 77.5172 238.731 77.643 238.453 77.8946C238.175 78.1396 238.01 78.4741 237.957 78.8979H240.986ZM242.905 79.3846C242.905 78.8217 243.018 78.3284 243.243 77.9046C243.475 77.4741 243.793 77.143 244.197 76.9112C244.601 76.6794 245.064 76.5636 245.587 76.5636C246.25 76.5636 246.796 76.7225 247.226 77.0404C247.663 77.3516 247.958 77.7986 248.11 78.3814H246.889C246.789 78.1098 246.63 77.8979 246.412 77.7456C246.193 77.5933 245.918 77.5172 245.587 77.5172C245.124 77.5172 244.753 77.6827 244.475 78.0138C244.203 78.3383 244.068 78.7952 244.068 79.3846C244.068 79.974 244.203 80.4342 244.475 80.7654C244.753 81.0965 245.124 81.262 245.587 81.262C246.243 81.262 246.677 80.974 246.889 80.3978H248.11C247.951 80.9541 247.653 81.3978 247.216 81.7289C246.779 82.0534 246.236 82.2156 245.587 82.2156C245.064 82.2156 244.601 82.0997 244.197 81.868C243.793 81.6296 243.475 81.2984 243.243 80.8746C243.018 80.4442 242.905 79.9475 242.905 79.3846ZM250.56 77.5768V80.6064C250.56 80.8117 250.606 80.9607 250.699 81.0534C250.798 81.1395 250.964 81.1826 251.196 81.1826H251.891V82.1262H250.997C250.487 82.1262 250.097 82.007 249.825 81.7686C249.554 81.5302 249.418 81.1428 249.418 80.6064V77.5768H248.772V76.653H249.418V75.2921H250.56V76.653H251.891V77.5768H250.56ZM257.951 79.2555C257.951 79.4608 257.938 79.6462 257.911 79.8118H253.73C253.763 80.2488 253.925 80.5998 254.216 80.8647C254.508 81.1296 254.865 81.262 255.289 81.262C255.898 81.262 256.329 81.0071 256.58 80.4972H257.802C257.637 81.0004 257.335 81.4143 256.898 81.7388C256.468 82.0567 255.931 82.2156 255.289 82.2156C254.766 82.2156 254.296 82.0997 253.879 81.868C253.468 81.6296 253.143 81.2984 252.905 80.8746C252.673 80.4442 252.557 79.9475 252.557 79.3846C252.557 78.8217 252.67 78.3284 252.895 77.9046C253.127 77.4741 253.448 77.143 253.859 76.9112C254.276 76.6794 254.753 76.5636 255.289 76.5636C255.806 76.5636 256.266 76.6761 256.67 76.9013C257.074 77.1264 257.388 77.4443 257.613 77.8549C257.839 78.2588 257.951 78.7257 257.951 79.2555ZM256.769 78.8979C256.762 78.4807 256.613 78.1463 256.322 77.8946C256.031 77.643 255.67 77.5172 255.239 77.5172C254.849 77.5172 254.514 77.643 254.236 77.8946C253.958 78.1396 253.792 78.4741 253.739 78.8979H256.769ZM258.688 79.3648C258.688 78.8151 258.801 78.3284 259.026 77.9046C259.258 77.4807 259.569 77.1529 259.96 76.9212C260.357 76.6828 260.797 76.5636 261.281 76.5636C261.638 76.5636 261.989 76.643 262.334 76.802C262.685 76.9543 262.963 77.1596 263.168 77.4178V74.7756H264.31V82.1262H263.168V81.3018C262.983 81.5666 262.724 81.7852 262.393 81.9574C262.069 82.1295 261.695 82.2156 261.271 82.2156C260.794 82.2156 260.357 82.0964 259.96 81.858C259.569 81.613 259.258 81.2753 259.026 80.8448C258.801 80.4078 258.688 79.9144 258.688 79.3648ZM263.168 79.3846C263.168 79.0072 263.089 78.6794 262.93 78.4012C262.777 78.1231 262.575 77.9112 262.324 77.7655C262.072 77.6198 261.801 77.547 261.509 77.547C261.218 77.547 260.946 77.6198 260.695 77.7655C260.443 77.9046 260.238 78.1132 260.079 78.3913C259.926 78.6628 259.85 78.9873 259.85 79.3648C259.85 79.7422 259.926 80.0733 260.079 80.3581C260.238 80.6428 260.443 80.8614 260.695 81.0137C260.953 81.1594 261.224 81.2322 261.509 81.2322C261.801 81.2322 262.072 81.1594 262.324 81.0137C262.575 80.868 262.777 80.6561 262.93 80.378C263.089 80.0932 263.168 79.7621 263.168 79.3846ZM273.206 77.2788C273.206 77.6297 273.123 77.9608 272.957 78.2721C272.792 78.5833 272.527 78.8383 272.163 79.037C271.798 79.229 271.332 79.325 270.762 79.325H269.51V82.1262H268.378V75.2226H270.762C271.292 75.2226 271.739 75.3153 272.103 75.5007C272.474 75.6795 272.749 75.9245 272.928 76.2358C273.113 76.547 273.206 76.8947 273.206 77.2788ZM270.762 78.4012C271.193 78.4012 271.514 78.3052 271.726 78.1132C271.938 77.9145 272.043 77.6364 272.043 77.2788C272.043 76.5238 271.616 76.1464 270.762 76.1464H269.51V78.4012H270.762ZM275.418 77.4476C275.584 77.1695 275.802 76.9543 276.074 76.802C276.352 76.643 276.68 76.5636 277.057 76.5636V77.7357H276.769C276.325 77.7357 275.988 77.8483 275.756 78.0734C275.531 78.2986 275.418 78.6893 275.418 79.2456V82.1262H274.286V76.653H275.418V77.4476ZM278.674 75.9278C278.469 75.9278 278.297 75.8583 278.158 75.7192C278.019 75.5802 277.949 75.408 277.949 75.2027C277.949 74.9974 278.019 74.8252 278.158 74.6862C278.297 74.5471 278.469 74.4776 278.674 74.4776C278.873 74.4776 279.042 74.5471 279.181 74.6862C279.32 74.8252 279.389 74.9974 279.389 75.2027C279.389 75.408 279.32 75.5802 279.181 75.7192C279.042 75.8583 278.873 75.9278 278.674 75.9278ZM279.23 76.653V82.1262H278.098V76.653H279.23ZM280.34 79.3846C280.34 78.8217 280.452 78.3284 280.677 77.9046C280.909 77.4741 281.227 77.143 281.631 76.9112C282.035 76.6794 282.499 76.5636 283.022 76.5636C283.684 76.5636 284.23 76.7225 284.661 77.0404C285.098 77.3516 285.392 77.7986 285.545 78.3814H284.323C284.224 78.1098 284.065 77.8979 283.846 77.7456C283.628 77.5933 283.353 77.5172 283.022 77.5172C282.558 77.5172 282.187 77.6827 281.909 78.0138C281.638 78.3383 281.502 78.7952 281.502 79.3846C281.502 79.974 281.638 80.4342 281.909 80.7654C282.187 81.0965 282.558 81.262 283.022 81.262C283.677 81.262 284.111 80.974 284.323 80.3978H285.545C285.386 80.9541 285.088 81.3978 284.651 81.7289C284.214 82.0534 283.671 82.2156 283.022 82.2156C282.499 82.2156 282.035 82.0997 281.631 81.868C281.227 81.6296 280.909 81.2984 280.677 80.8746C280.452 80.4442 280.34 79.9475 280.34 79.3846ZM291.69 79.2555C291.69 79.4608 291.676 79.6462 291.65 79.8118H287.468C287.501 80.2488 287.663 80.5998 287.955 80.8647C288.246 81.1296 288.604 81.262 289.027 81.262C289.637 81.262 290.067 81.0071 290.319 80.4972H291.541C291.375 81.0004 291.074 81.4143 290.637 81.7388C290.206 82.0567 289.67 82.2156 289.027 82.2156C288.504 82.2156 288.034 82.0997 287.617 81.868C287.206 81.6296 286.882 81.2984 286.643 80.8746C286.412 80.4442 286.296 79.9475 286.296 79.3846C286.296 78.8217 286.408 78.3284 286.634 77.9046C286.865 77.4741 287.186 77.143 287.597 76.9112C288.014 76.6794 288.491 76.5636 289.027 76.5636C289.544 76.5636 290.004 76.6761 290.408 76.9013C290.812 77.1264 291.127 77.4443 291.352 77.8549C291.577 78.2588 291.69 78.7257 291.69 79.2555ZM290.508 78.8979C290.501 78.4807 290.352 78.1463 290.061 77.8946C289.769 77.643 289.408 77.5172 288.978 77.5172C288.587 77.5172 288.253 77.643 287.975 77.8946C287.696 78.1396 287.531 78.4741 287.478 78.8979H290.508ZM293.261 82.1958C293.056 82.1958 292.883 82.1262 292.744 81.9872C292.605 81.8481 292.536 81.6759 292.536 81.4706C292.536 81.2653 292.605 81.0932 292.744 80.9541C292.883 80.815 293.056 80.7455 293.261 80.7455C293.46 80.7455 293.628 80.815 293.768 80.9541C293.907 81.0932 293.976 81.2653 293.976 81.4706C293.976 81.6759 293.907 81.8481 293.768 81.9872C293.628 82.1262 293.46 82.1958 293.261 82.1958ZM293.261 78.0238C293.056 78.0238 292.883 77.9542 292.744 77.8152C292.605 77.6761 292.536 77.5039 292.536 77.2986C292.536 77.0933 292.605 76.9212 292.744 76.7821C292.883 76.643 293.056 76.5735 293.261 76.5735C293.46 76.5735 293.628 76.643 293.768 76.7821C293.907 76.9212 293.976 77.0933 293.976 77.2986C293.976 77.5039 293.907 77.6761 293.768 77.8152C293.628 77.9542 293.46 78.0238 293.261 78.0238Z" fill="#2E2C43"/>
<path d="M299.447 76.4543V74.8749H302.199V82.1262H300.431V76.4543H299.447ZM303.301 80.7654C303.526 80.5866 303.629 80.5038 303.609 80.517C304.258 79.9806 304.768 79.5402 305.139 79.1959C305.516 78.8515 305.834 78.4906 306.093 78.1132C306.351 77.7357 306.48 77.3682 306.48 77.0106C306.48 76.739 306.417 76.5271 306.291 76.3748C306.165 76.2225 305.977 76.1464 305.725 76.1464C305.473 76.1464 305.275 76.2424 305.129 76.4344C304.99 76.6198 304.92 76.8847 304.92 77.2291H303.281C303.295 76.6662 303.414 76.196 303.639 75.8186C303.871 75.4411 304.172 75.163 304.543 74.9842C304.92 74.8054 305.338 74.716 305.795 74.716C306.583 74.716 307.175 74.9179 307.573 75.3219C307.977 75.7258 308.179 76.2523 308.179 76.9013C308.179 77.6099 307.937 78.2688 307.453 78.878C306.97 79.4806 306.354 80.07 305.606 80.6462H308.288V82.0269H303.301V80.7654ZM309.095 76.9212C309.122 76.2126 309.354 75.6662 309.791 75.2822C310.228 74.8981 310.82 74.706 311.569 74.706C312.065 74.706 312.489 74.7921 312.84 74.9643C313.198 75.1365 313.466 75.3716 313.645 75.6696C313.83 75.9676 313.923 76.302 313.923 76.6728C313.923 77.1099 313.814 77.4675 313.595 77.7456C313.377 78.0171 313.122 78.2026 312.83 78.3019V78.3416C313.208 78.4674 313.506 78.676 313.724 78.9674C313.943 79.2588 314.052 79.633 314.052 80.0899C314.052 80.5005 313.956 80.8647 313.764 81.1826C313.579 81.4938 313.304 81.7388 312.939 81.9176C312.582 82.0964 312.155 82.1858 311.658 82.1858C310.863 82.1858 310.228 81.9905 309.751 81.5998C309.281 81.209 309.032 80.6197 309.006 79.8316H310.655C310.661 80.123 310.744 80.3548 310.903 80.527C311.062 80.6925 311.294 80.7753 311.598 80.7753C311.857 80.7753 312.055 80.7024 312.194 80.5568C312.34 80.4044 312.413 80.2058 312.413 79.9608C312.413 79.6429 312.31 79.4144 312.105 79.2754C311.906 79.1297 311.585 79.0568 311.142 79.0568H310.824V77.6761H311.142C311.479 77.6761 311.751 77.6198 311.956 77.5072C312.168 77.388 312.274 77.1794 312.274 76.8814C312.274 76.643 312.208 76.4576 312.075 76.3252C311.943 76.1927 311.761 76.1265 311.529 76.1265C311.277 76.1265 311.089 76.2026 310.963 76.355C310.844 76.5073 310.774 76.696 310.754 76.9212H309.095ZM315.05 78.4012C315.05 77.2622 315.269 76.3649 315.706 75.7093C316.149 75.0537 316.861 74.7259 317.841 74.7259C318.821 74.7259 319.53 75.0537 319.967 75.7093C320.411 76.3649 320.633 77.2622 320.633 78.4012C320.633 79.5535 320.411 80.4574 319.967 81.113C319.53 81.7686 318.821 82.0964 317.841 82.0964C316.861 82.0964 316.149 81.7686 315.706 81.113C315.269 80.4574 315.05 79.5535 315.05 78.4012ZM318.964 78.4012C318.964 77.7324 318.891 77.2192 318.745 76.8616C318.6 76.4973 318.298 76.3152 317.841 76.3152C317.384 76.3152 317.083 76.4973 316.937 76.8616C316.792 77.2192 316.719 77.7324 316.719 78.4012C316.719 78.8515 316.745 79.2257 316.798 79.5237C316.851 79.8151 316.957 80.0535 317.116 80.2389C317.282 80.4177 317.523 80.5071 317.841 80.5071C318.159 80.5071 318.398 80.4177 318.556 80.2389C318.722 80.0535 318.831 79.8151 318.884 79.5237C318.937 79.2257 318.964 78.8515 318.964 78.4012ZM327.36 82.1262L325.91 79.4939H325.502V82.1262H323.804V75.153H326.655C327.204 75.153 327.671 75.249 328.055 75.4411C328.446 75.6331 328.737 75.898 328.929 76.2358C329.121 76.5669 329.217 76.9377 329.217 77.3483C329.217 77.8118 329.085 78.2257 328.82 78.59C328.562 78.9542 328.178 79.2124 327.668 79.3648L329.277 82.1262H327.36ZM325.502 78.292H326.555C326.867 78.292 327.098 78.2158 327.251 78.0635C327.41 77.9112 327.489 77.696 327.489 77.4178C327.489 77.1529 327.41 76.9443 327.251 76.792C327.098 76.6397 326.867 76.5636 326.555 76.5636H325.502V78.292ZM332.539 82.2057C332.055 82.2057 331.625 82.1229 331.247 81.9574C330.87 81.7918 330.572 81.5666 330.353 81.2819C330.135 80.9905 330.012 80.666 329.986 80.3084H331.665C331.684 80.5005 331.774 80.6561 331.933 80.7753C332.092 80.8945 332.287 80.9541 332.519 80.9541C332.731 80.9541 332.893 80.9144 333.006 80.8349C333.125 80.7488 333.184 80.6395 333.184 80.5071C333.184 80.3482 333.102 80.2323 332.936 80.1594C332.77 80.08 332.502 79.9939 332.131 79.9012C331.734 79.8084 331.403 79.7124 331.138 79.6131C330.873 79.5071 330.645 79.3449 330.453 79.1264C330.261 78.9012 330.165 78.5999 330.165 78.2224C330.165 77.9046 330.251 77.6165 330.423 77.3582C330.602 77.0933 330.86 76.8847 331.198 76.7324C331.542 76.5801 331.949 76.504 332.419 76.504C333.115 76.504 333.661 76.6761 334.058 77.0205C334.462 77.3648 334.694 77.8218 334.754 78.3913H333.184C333.158 78.1992 333.072 78.0469 332.926 77.9344C332.787 77.8218 332.602 77.7655 332.37 77.7655C332.171 77.7655 332.019 77.8052 331.913 77.8847C331.807 77.9575 331.754 78.0602 331.754 78.1926C331.754 78.3516 331.837 78.4708 332.002 78.5502C332.174 78.6297 332.439 78.7092 332.797 78.7886C333.207 78.8946 333.542 79.0005 333.8 79.1065C334.058 79.2058 334.284 79.3714 334.476 79.6032C334.674 79.8283 334.777 80.1329 334.784 80.517C334.784 80.8415 334.691 81.1329 334.505 81.3912C334.327 81.6428 334.065 81.8415 333.721 81.9872C333.383 82.1328 332.989 82.2057 332.539 82.2057Z" fill="#70B241"/>
<g filter="url(#filter0_d_1790_128)">
<path d="M289.51 6.03101H42.948C37.8336 6.03101 33.6875 9.44001 33.6875 13.6452V141.184C33.6875 145.389 37.8336 148.798 42.948 148.798H289.51C294.624 148.798 298.771 145.389 298.771 141.184V13.6452C298.771 9.44001 294.624 6.03101 289.51 6.03101Z" fill="white"/>
</g>
<rect x="24.6475" width="322.005" height="149" rx="19.8667" fill="white"/>
<path d="M70.1696 34.7473H67.1333L66.6466 36.1843H64.5721L67.5157 28.0489H69.8103L72.7539 36.1843H70.6563L70.1696 34.7473ZM69.6597 33.2176L68.6514 30.2392L67.6548 33.2176H69.6597ZM75.6315 30.7955C75.8633 30.4401 76.153 30.162 76.5006 29.9611C76.8483 29.7525 77.2346 29.6482 77.6595 29.6482V31.7458H77.1149C76.6204 31.7458 76.2495 31.8539 76.0023 32.0703C75.7551 32.2789 75.6315 32.6497 75.6315 33.1828V36.1843H73.6498V29.7177H75.6315V30.7955ZM84.7025 32.8467C84.7025 33.0321 84.6909 33.2253 84.6677 33.4262H80.1828C80.2137 33.8279 80.3412 34.137 80.5653 34.3533C80.797 34.5619 81.079 34.6662 81.4112 34.6662C81.9057 34.6662 82.2495 34.4576 82.4427 34.0404H84.5518C84.4437 34.4653 84.2467 34.8477 83.9608 35.1877C83.6827 35.5276 83.3311 35.7942 82.9062 35.9873C82.4813 36.1805 82.0061 36.277 81.4808 36.277C80.8473 36.277 80.2833 36.1418 79.7888 35.8714C79.2943 35.601 78.908 35.2147 78.6299 34.7125C78.3518 34.2104 78.2127 33.6232 78.2127 32.951C78.2127 32.2789 78.3479 31.6917 78.6183 31.1895C78.8965 30.6873 79.2828 30.301 79.7772 30.0306C80.2717 29.7602 80.8395 29.625 81.4808 29.625C82.1066 29.625 82.6629 29.7564 83.1496 30.019C83.6363 30.2817 84.0149 30.6564 84.2853 31.1432C84.5634 31.6299 84.7025 32.1977 84.7025 32.8467ZM82.6744 32.3252C82.6744 31.9853 82.5585 31.7149 82.3268 31.514C82.095 31.3131 81.8053 31.2127 81.4576 31.2127C81.1254 31.2127 80.8434 31.3093 80.6116 31.5024C80.3876 31.6956 80.2485 31.9698 80.1944 32.3252H82.6744ZM94.8095 29.7177L90.7533 39.2554H88.621L90.1044 35.9641L87.4737 29.7177H89.6872L91.1821 33.7622L92.6655 29.7177H94.8095ZM98.4696 36.277C97.8361 36.277 97.2644 36.1418 96.7545 35.8714C96.2523 35.601 95.8544 35.2147 95.5608 34.7125C95.275 34.2104 95.132 33.6232 95.132 32.951C95.132 32.2866 95.2788 31.7033 95.5724 31.2011C95.866 30.6912 96.2678 30.301 96.7777 30.0306C97.2876 29.7602 97.8593 29.625 98.4928 29.625C99.1263 29.625 99.6981 29.7602 100.208 30.0306C100.718 30.301 101.12 30.6912 101.413 31.2011C101.707 31.7033 101.854 32.2866 101.854 32.951C101.854 33.6155 101.703 34.2026 101.402 34.7125C101.108 35.2147 100.702 35.601 100.185 35.8714C99.6749 36.1418 99.1032 36.277 98.4696 36.277ZM98.4696 34.5619C98.8482 34.5619 99.1688 34.4228 99.4315 34.1447C99.7019 33.8665 99.8371 33.4687 99.8371 32.951C99.8371 32.4334 99.7058 32.0355 99.4431 31.7574C99.1882 31.4792 98.8714 31.3402 98.4928 31.3402C98.1065 31.3402 97.7859 31.4792 97.5309 31.7574C97.276 32.0278 97.1485 32.4257 97.1485 32.951C97.1485 33.4687 97.2721 33.8665 97.5194 34.1447C97.7743 34.4228 98.0911 34.5619 98.4696 34.5619ZM109.29 29.7177V36.1843H107.309V35.3036C107.108 35.5894 106.834 35.8212 106.486 35.9989C106.146 36.1689 105.767 36.2539 105.35 36.2539C104.856 36.2539 104.419 36.1457 104.041 35.9294C103.662 35.7053 103.368 35.3847 103.16 34.9675C102.951 34.5503 102.847 34.0597 102.847 33.4957V29.7177H104.817V33.2292C104.817 33.6618 104.929 33.9979 105.153 34.2374C105.377 34.4769 105.679 34.5966 106.057 34.5966C106.443 34.5966 106.749 34.4769 106.973 34.2374C107.197 33.9979 107.309 33.6618 107.309 33.2292V29.7177H109.29ZM112.776 32.9394C112.776 32.275 112.899 31.6917 113.147 31.1895C113.401 30.6873 113.745 30.301 114.178 30.0306C114.611 29.7602 115.093 29.625 115.627 29.625C116.082 29.625 116.48 29.7177 116.82 29.9031C117.168 30.0886 117.434 30.3319 117.62 30.6332V29.7177H119.602V36.1843H117.62V35.2688C117.427 35.5701 117.156 35.8135 116.809 35.9989C116.469 36.1843 116.071 36.277 115.615 36.277C115.09 36.277 114.611 36.1418 114.178 35.8714C113.745 35.5933 113.401 35.2031 113.147 34.7009C112.899 34.191 112.776 33.6039 112.776 32.9394ZM117.62 32.951C117.62 32.4566 117.481 32.0664 117.203 31.7805C116.932 31.4947 116.6 31.3518 116.206 31.3518C115.812 31.3518 115.476 31.4947 115.198 31.7805C114.927 32.0587 114.792 32.445 114.792 32.9394C114.792 33.4339 114.927 33.8279 115.198 34.1215C115.476 34.4074 115.812 34.5503 116.206 34.5503C116.6 34.5503 116.932 34.4074 117.203 34.1215C117.481 33.8356 117.62 33.4455 117.62 32.951ZM120.641 32.951C120.641 32.2789 120.776 31.6917 121.047 31.1895C121.325 30.6873 121.707 30.301 122.194 30.0306C122.689 29.7602 123.253 29.625 123.886 29.625C124.697 29.625 125.373 29.8375 125.914 30.2624C126.463 30.6873 126.822 31.2861 126.992 32.0587H124.883C124.705 31.5642 124.361 31.317 123.851 31.317C123.488 31.317 123.198 31.4599 122.982 31.7458C122.766 32.0239 122.658 32.4257 122.658 32.951C122.658 33.4764 122.766 33.882 122.982 34.1679C123.198 34.446 123.488 34.5851 123.851 34.5851C124.361 34.5851 124.705 34.3378 124.883 33.8434H126.992C126.822 34.6005 126.463 35.1954 125.914 35.6281C125.366 36.0607 124.69 36.277 123.886 36.277C123.253 36.277 122.689 36.1418 122.194 35.8714C121.707 35.601 121.325 35.2147 121.047 34.7125C120.776 34.2104 120.641 33.6232 120.641 32.951ZM127.658 32.951C127.658 32.2789 127.793 31.6917 128.064 31.1895C128.342 30.6873 128.724 30.301 129.211 30.0306C129.705 29.7602 130.269 29.625 130.903 29.625C131.714 29.625 132.39 29.8375 132.931 30.2624C133.479 30.6873 133.839 31.2861 134.009 32.0587H131.899C131.722 31.5642 131.378 31.317 130.868 31.317C130.505 31.317 130.215 31.4599 129.999 31.7458C129.783 32.0239 129.674 32.4257 129.674 32.951C129.674 33.4764 129.783 33.882 129.999 34.1679C130.215 34.446 130.505 34.5851 130.868 34.5851C131.378 34.5851 131.722 34.3378 131.899 33.8434H134.009C133.839 34.6005 133.479 35.1954 132.931 35.6281C132.382 36.0607 131.706 36.277 130.903 36.277C130.269 36.277 129.705 36.1418 129.211 35.8714C128.724 35.601 128.342 35.2147 128.064 34.7125C127.793 34.2104 127.658 33.6232 127.658 32.951ZM141.164 32.8467C141.164 33.0321 141.153 33.2253 141.13 33.4262H136.645C136.676 33.8279 136.803 34.137 137.027 34.3533C137.259 34.5619 137.541 34.6662 137.873 34.6662C138.368 34.6662 138.711 34.4576 138.905 34.0404H141.014C140.906 34.4653 140.709 34.8477 140.423 35.1877C140.145 35.5276 139.793 35.7942 139.368 35.9873C138.943 36.1805 138.468 36.277 137.943 36.277C137.309 36.277 136.745 36.1418 136.251 35.8714C135.756 35.601 135.37 35.2147 135.092 34.7125C134.814 34.2104 134.675 33.6232 134.675 32.951C134.675 32.2789 134.81 31.6917 135.08 31.1895C135.358 30.6873 135.745 30.301 136.239 30.0306C136.734 29.7602 137.301 29.625 137.943 29.625C138.568 29.625 139.125 29.7564 139.611 30.019C140.098 30.2817 140.477 30.6564 140.747 31.1432C141.025 31.6299 141.164 32.1977 141.164 32.8467ZM139.136 32.3252C139.136 31.9853 139.02 31.7149 138.789 31.514C138.557 31.3131 138.267 31.2127 137.919 31.2127C137.587 31.2127 137.305 31.3093 137.074 31.5024C136.849 31.6956 136.71 31.9698 136.656 32.3252H139.136ZM144.192 30.6332C144.385 30.3319 144.651 30.0886 144.991 29.9031C145.331 29.7177 145.729 29.625 146.185 29.625C146.718 29.625 147.201 29.7602 147.633 30.0306C148.066 30.301 148.406 30.6873 148.653 31.1895C148.908 31.6917 149.036 32.275 149.036 32.9394C149.036 33.6039 148.908 34.191 148.653 34.7009C148.406 35.2031 148.066 35.5933 147.633 35.8714C147.201 36.1418 146.718 36.277 146.185 36.277C145.737 36.277 145.339 36.1843 144.991 35.9989C144.651 35.8135 144.385 35.574 144.192 35.2804V39.267H142.21V29.7177H144.192V30.6332ZM147.019 32.9394C147.019 32.445 146.88 32.0587 146.602 31.7805C146.332 31.4947 145.996 31.3518 145.594 31.3518C145.2 31.3518 144.864 31.4947 144.586 31.7805C144.315 32.0664 144.18 32.4566 144.18 32.951C144.18 33.4455 144.315 33.8356 144.586 34.1215C144.864 34.4074 145.2 34.5503 145.594 34.5503C145.988 34.5503 146.324 34.4074 146.602 34.1215C146.88 33.8279 147.019 33.4339 147.019 32.9394ZM153.679 34.5039V36.1843H152.671C151.953 36.1843 151.393 36.0105 150.991 35.6628C150.589 35.3074 150.388 34.7319 150.388 33.9361V31.3633H149.6V29.7177H150.388V28.1416H152.37V29.7177H153.668V31.3633H152.37V33.9593C152.37 34.1524 152.416 34.2915 152.509 34.3765C152.602 34.4614 152.756 34.5039 152.973 34.5039H153.679ZM155.78 29.0456C155.432 29.0456 155.146 28.9451 154.922 28.7443C154.706 28.5357 154.598 28.2807 154.598 27.9794C154.598 27.6704 154.706 27.4154 154.922 27.2145C155.146 27.0059 155.432 26.9016 155.78 26.9016C156.12 26.9016 156.398 27.0059 156.614 27.2145C156.838 27.4154 156.95 27.6704 156.95 27.9794C156.95 28.2807 156.838 28.5357 156.614 28.7443C156.398 28.9451 156.12 29.0456 155.78 29.0456ZM156.765 29.7177V36.1843H154.783V29.7177H156.765ZM162.141 29.6482C162.898 29.6482 163.501 29.8954 163.949 30.3899C164.405 30.8766 164.633 31.5488 164.633 32.4063V36.1843H162.663V32.6729C162.663 32.2402 162.551 31.9042 162.327 31.6647C162.103 31.4252 161.801 31.3054 161.423 31.3054C161.044 31.3054 160.743 31.4252 160.519 31.6647C160.295 31.9042 160.183 32.2402 160.183 32.6729V36.1843H158.201V29.7177H160.183V30.5753C160.384 30.2894 160.654 30.0654 160.994 29.9031C161.334 29.7332 161.716 29.6482 162.141 29.6482ZM168.467 29.625C168.923 29.625 169.321 29.7177 169.661 29.9031C170.008 30.0886 170.275 30.3319 170.46 30.6332V29.7177H172.442V36.1727C172.442 36.7676 172.322 37.3046 172.083 37.7836C171.851 38.2703 171.492 38.6566 171.005 38.9425C170.526 39.2283 169.927 39.3713 169.209 39.3713C168.251 39.3713 167.474 39.1434 166.879 38.6875C166.284 38.2394 165.944 37.6291 165.859 36.8565H167.818C167.88 37.1037 168.027 37.2969 168.258 37.4359C168.49 37.5827 168.776 37.6561 169.116 37.6561C169.525 37.6561 169.85 37.5364 170.089 37.2969C170.337 37.0651 170.46 36.6904 170.46 36.1727V35.2572C170.267 35.5585 170 35.8058 169.661 35.9989C169.321 36.1843 168.923 36.277 168.467 36.277C167.934 36.277 167.451 36.1418 167.018 35.8714C166.586 35.5933 166.242 35.2031 165.987 34.7009C165.74 34.191 165.616 33.6039 165.616 32.9394C165.616 32.275 165.74 31.6917 165.987 31.1895C166.242 30.6873 166.586 30.301 167.018 30.0306C167.451 29.7602 167.934 29.625 168.467 29.625ZM170.46 32.951C170.46 32.4566 170.321 32.0664 170.043 31.7805C169.773 31.4947 169.44 31.3518 169.046 31.3518C168.652 31.3518 168.316 31.4947 168.038 31.7805C167.768 32.0587 167.632 32.445 167.632 32.9394C167.632 33.4339 167.768 33.8279 168.038 34.1215C168.316 34.4074 168.652 34.5503 169.046 34.5503C169.44 34.5503 169.773 34.4074 170.043 34.1215C170.321 33.8356 170.46 33.4455 170.46 32.951ZM179.936 34.5039V36.1843H178.927C178.209 36.1843 177.649 36.0105 177.247 35.6628C176.845 35.3074 176.644 34.7319 176.644 33.9361V31.3633H175.856V29.7177H176.644V28.1416H178.626V29.7177H179.924V31.3633H178.626V33.9593C178.626 34.1524 178.672 34.2915 178.765 34.3765C178.858 34.4614 179.012 34.5039 179.229 34.5039H179.936ZM185.014 29.6482C185.756 29.6482 186.351 29.8954 186.799 30.3899C187.247 30.8766 187.471 31.5488 187.471 32.4063V36.1843H185.501V32.6729C185.501 32.2402 185.389 31.9042 185.165 31.6647C184.941 31.4252 184.64 31.3054 184.261 31.3054C183.883 31.3054 183.581 31.4252 183.357 31.6647C183.133 31.9042 183.021 32.2402 183.021 32.6729V36.1843H181.039V27.6085H183.021V30.5869C183.222 30.301 183.496 30.0731 183.844 29.9031C184.192 29.7332 184.582 29.6482 185.014 29.6482ZM194.944 32.8467C194.944 33.0321 194.932 33.2253 194.909 33.4262H190.424C190.455 33.8279 190.583 34.137 190.807 34.3533C191.039 34.5619 191.321 34.6662 191.653 34.6662C192.147 34.6662 192.491 34.4576 192.684 34.0404H194.793C194.685 34.4653 194.488 34.8477 194.202 35.1877C193.924 35.5276 193.573 35.7942 193.148 35.9873C192.723 36.1805 192.248 36.277 191.722 36.277C191.089 36.277 190.525 36.1418 190.03 35.8714C189.536 35.601 189.15 35.2147 188.871 34.7125C188.593 34.2104 188.454 33.6232 188.454 32.951C188.454 32.2789 188.589 31.6917 188.86 31.1895C189.138 30.6873 189.524 30.301 190.019 30.0306C190.513 29.7602 191.081 29.625 191.722 29.625C192.348 29.625 192.904 29.7564 193.391 30.019C193.878 30.2817 194.256 30.6564 194.527 31.1432C194.805 31.6299 194.944 32.1977 194.944 32.8467ZM192.916 32.3252C192.916 31.9853 192.8 31.7149 192.568 31.514C192.337 31.3131 192.047 31.2127 191.699 31.2127C191.367 31.2127 191.085 31.3093 190.853 31.5024C190.629 31.6956 190.49 31.9698 190.436 32.3252H192.916ZM198.051 32.951C198.051 32.2789 198.187 31.6917 198.457 31.1895C198.735 30.6873 199.118 30.301 199.604 30.0306C200.099 29.7602 200.663 29.625 201.296 29.625C202.107 29.625 202.783 29.8375 203.324 30.2624C203.873 30.6873 204.232 31.2861 204.402 32.0587H202.293C202.115 31.5642 201.771 31.317 201.261 31.317C200.898 31.317 200.609 31.4599 200.392 31.7458C200.176 32.0239 200.068 32.4257 200.068 32.951C200.068 33.4764 200.176 33.882 200.392 34.1679C200.609 34.446 200.898 34.5851 201.261 34.5851C201.771 34.5851 202.115 34.3378 202.293 33.8434H204.402C204.232 34.6005 203.873 35.1954 203.324 35.6281C202.776 36.0607 202.1 36.277 201.296 36.277C200.663 36.277 200.099 36.1418 199.604 35.8714C199.118 35.601 198.735 35.2147 198.457 34.7125C198.187 34.2104 198.051 33.6232 198.051 32.951ZM211.848 29.7177V36.1843H209.866V35.3036C209.665 35.5894 209.391 35.8212 209.043 35.9989C208.703 36.1689 208.325 36.2539 207.907 36.2539C207.413 36.2539 206.976 36.1457 206.598 35.9294C206.219 35.7053 205.926 35.3847 205.717 34.9675C205.508 34.5503 205.404 34.0597 205.404 33.4957V29.7177H207.374V33.2292C207.374 33.6618 207.486 33.9979 207.71 34.2374C207.934 34.4769 208.236 34.5966 208.614 34.5966C209.001 34.5966 209.306 34.4769 209.53 34.2374C209.754 33.9979 209.866 33.6618 209.866 33.2292V29.7177H211.848ZM215.902 36.277C215.338 36.277 214.835 36.1805 214.395 35.9873C213.955 35.7942 213.607 35.5315 213.352 35.1993C213.097 34.8593 212.954 34.4808 212.923 34.0636H214.882C214.905 34.2876 215.009 34.4692 215.195 34.6082C215.38 34.7473 215.608 34.8168 215.878 34.8168C216.126 34.8168 216.315 34.7705 216.446 34.6778C216.585 34.5773 216.655 34.4499 216.655 34.2953C216.655 34.1099 216.558 33.9747 216.365 33.8897C216.172 33.797 215.859 33.6966 215.427 33.5884C214.963 33.4803 214.577 33.3682 214.268 33.2523C213.959 33.1287 213.692 32.9394 213.468 32.6845C213.244 32.4218 213.132 32.0703 213.132 31.6299C213.132 31.259 213.232 30.923 213.433 30.6217C213.642 30.3126 213.943 30.0693 214.337 29.8916C214.739 29.7139 215.214 29.625 215.763 29.625C216.574 29.625 217.211 29.8259 217.675 30.2276C218.146 30.6294 218.416 31.1625 218.486 31.8269H216.655C216.624 31.6029 216.524 31.4252 216.354 31.2938C216.191 31.1625 215.975 31.0968 215.705 31.0968C215.473 31.0968 215.295 31.1432 215.172 31.2359C215.048 31.3209 214.986 31.4406 214.986 31.5951C214.986 31.7805 215.083 31.9196 215.276 32.0123C215.477 32.105 215.786 32.1977 216.203 32.2905C216.682 32.4141 217.072 32.5377 217.373 32.6613C217.675 32.7772 217.937 32.9703 218.161 33.2407C218.393 33.5034 218.513 33.8588 218.521 34.3069C218.521 34.6855 218.413 35.0254 218.196 35.3267C217.988 35.6203 217.682 35.8521 217.281 36.0221C216.887 36.1921 216.427 36.277 215.902 36.277ZM223.337 34.5039V36.1843H222.329C221.611 36.1843 221.05 36.0105 220.649 35.6628C220.247 35.3074 220.046 34.7319 220.046 33.9361V31.3633H219.258V29.7177H220.046V28.1416H222.028V29.7177H223.326V31.3633H222.028V33.9593C222.028 34.1524 222.074 34.2915 222.167 34.3765C222.26 34.4614 222.414 34.5039 222.63 34.5039H223.337ZM227.385 36.277C226.751 36.277 226.179 36.1418 225.67 35.8714C225.167 35.601 224.769 35.2147 224.476 34.7125C224.19 34.2104 224.047 33.6232 224.047 32.951C224.047 32.2866 224.194 31.7033 224.487 31.2011C224.781 30.6912 225.183 30.301 225.693 30.0306C226.203 29.7602 226.774 29.625 227.408 29.625C228.041 29.625 228.613 29.7602 229.123 30.0306C229.633 30.301 230.035 30.6912 230.328 31.2011C230.622 31.7033 230.769 32.2866 230.769 32.951C230.769 33.6155 230.618 34.2026 230.317 34.7125C230.023 35.2147 229.618 35.601 229.1 35.8714C228.59 36.1418 228.018 36.277 227.385 36.277ZM227.385 34.5619C227.763 34.5619 228.084 34.4228 228.347 34.1447C228.617 33.8665 228.752 33.4687 228.752 32.951C228.752 32.4334 228.621 32.0355 228.358 31.7574C228.103 31.4792 227.786 31.3402 227.408 31.3402C227.022 31.3402 226.701 31.4792 226.446 31.7574C226.191 32.0278 226.064 32.4257 226.064 32.951C226.064 33.4687 226.187 33.8665 226.434 34.1447C226.689 34.4228 227.006 34.5619 227.385 34.5619ZM240.071 29.6482C240.875 29.6482 241.512 29.8916 241.983 30.3783C242.462 30.865 242.702 31.541 242.702 32.4063V36.1843H240.732V32.6729C240.732 32.2557 240.62 31.9351 240.396 31.711C240.179 31.4792 239.878 31.3633 239.492 31.3633C239.106 31.3633 238.8 31.4792 238.576 31.711C238.36 31.9351 238.252 32.2557 238.252 32.6729V36.1843H236.282V32.6729C236.282 32.2557 236.17 31.9351 235.946 31.711C235.729 31.4792 235.428 31.3633 235.042 31.3633C234.655 31.3633 234.35 31.4792 234.126 31.711C233.91 31.9351 233.802 32.2557 233.802 32.6729V36.1843H231.82V29.7177H233.802V30.5289C234.003 30.2585 234.265 30.0461 234.59 29.8916C234.914 29.7293 235.281 29.6482 235.691 29.6482C236.177 29.6482 236.61 29.7525 236.989 29.9611C237.375 30.1697 237.676 30.4671 237.893 30.8534C238.117 30.498 238.422 30.2083 238.808 29.9843C239.194 29.7602 239.615 29.6482 240.071 29.6482ZM250.184 32.8467C250.184 33.0321 250.172 33.2253 250.149 33.4262H245.664C245.695 33.8279 245.822 34.137 246.046 34.3533C246.278 34.5619 246.56 34.6662 246.892 34.6662C247.387 34.6662 247.731 34.4576 247.924 34.0404H250.033C249.925 34.4653 249.728 34.8477 249.442 35.1877C249.164 35.5276 248.812 35.7942 248.387 35.9873C247.962 36.1805 247.487 36.277 246.962 36.277C246.328 36.277 245.764 36.1418 245.27 35.8714C244.776 35.601 244.389 35.2147 244.111 34.7125C243.833 34.2104 243.694 33.6232 243.694 32.951C243.694 32.2789 243.829 31.6917 244.1 31.1895C244.378 30.6873 244.764 30.301 245.258 30.0306C245.753 29.7602 246.321 29.625 246.962 29.625C247.588 29.625 248.144 29.7564 248.631 30.019C249.118 30.2817 249.496 30.6564 249.766 31.1432C250.045 31.6299 250.184 32.1977 250.184 32.8467ZM248.156 32.3252C248.156 31.9853 248.04 31.7149 247.808 31.514C247.576 31.3131 247.286 31.2127 246.939 31.2127C246.607 31.2127 246.325 31.3093 246.093 31.5024C245.869 31.6956 245.73 31.9698 245.676 32.3252H248.156ZM253.211 30.7955C253.443 30.4401 253.732 30.162 254.08 29.9611C254.428 29.7525 254.814 29.6482 255.239 29.6482V31.7458H254.694C254.2 31.7458 253.829 31.8539 253.582 32.0703C253.334 32.2789 253.211 32.6497 253.211 33.1828V36.1843H251.229V29.7177H253.211V30.7955ZM260.624 30.7955C260.855 30.4401 261.145 30.162 261.493 29.9611C261.84 29.7525 262.227 29.6482 262.652 29.6482V31.7458H262.107C261.613 31.7458 261.242 31.8539 260.994 32.0703C260.747 32.2789 260.624 32.6497 260.624 33.1828V36.1843H258.642V29.7177H260.624V30.7955ZM269.695 32.8467C269.695 33.0321 269.683 33.2253 269.66 33.4262H265.175C265.206 33.8279 265.333 34.137 265.557 34.3533C265.789 34.5619 266.071 34.6662 266.403 34.6662C266.898 34.6662 267.242 34.4576 267.435 34.0404H269.544C269.436 34.4653 269.239 34.8477 268.953 35.1877C268.675 35.5276 268.323 35.7942 267.898 35.9873C267.473 36.1805 266.998 36.277 266.473 36.277C265.839 36.277 265.275 36.1418 264.781 35.8714C264.287 35.601 263.9 35.2147 263.622 34.7125C263.344 34.2104 263.205 33.6232 263.205 32.951C263.205 32.2789 263.34 31.6917 263.611 31.1895C263.889 30.6873 264.275 30.301 264.769 30.0306C265.264 29.7602 265.832 29.625 266.473 29.625C267.099 29.625 267.655 29.7564 268.142 30.019C268.628 30.2817 269.007 30.6564 269.277 31.1432C269.556 31.6299 269.695 32.1977 269.695 32.8467ZM267.667 32.3252C267.667 31.9853 267.551 31.7149 267.319 31.514C267.087 31.3131 266.797 31.2127 266.45 31.2127C266.118 31.2127 265.836 31.3093 265.604 31.5024C265.38 31.6956 265.241 31.9698 265.187 32.3252H267.667ZM270.346 32.9626C270.346 32.3214 270.477 31.7496 270.74 31.2475C271.011 30.7453 271.37 30.3551 271.818 30.077C272.274 29.7911 272.768 29.6482 273.301 29.6482C273.711 29.6482 274.078 29.7216 274.402 29.8684C274.727 30.0074 274.989 30.2045 275.19 30.4594V29.7177H277.172V39.267H275.19V35.3731C274.966 35.6435 274.692 35.8598 274.367 36.0221C274.051 36.1843 273.688 36.2654 273.278 36.2654C272.753 36.2654 272.266 36.1264 271.818 35.8482C271.37 35.5701 271.011 35.18 270.74 34.6778C270.477 34.1756 270.346 33.6039 270.346 32.9626ZM275.19 32.951C275.19 32.6034 275.121 32.3136 274.982 32.0819C274.85 31.8424 274.676 31.6647 274.46 31.5488C274.244 31.4252 274.016 31.3633 273.776 31.3633C273.545 31.3633 273.321 31.4252 273.104 31.5488C272.888 31.6647 272.71 31.8424 272.571 32.0819C272.432 32.3214 272.363 32.6149 272.363 32.9626C272.363 33.3103 272.432 33.6039 272.571 33.8434C272.71 34.0751 272.888 34.2528 273.104 34.3765C273.321 34.4923 273.545 34.5503 273.776 34.5503C274.008 34.5503 274.232 34.4923 274.449 34.3765C274.673 34.2528 274.85 34.0713 274.982 33.8318C275.121 33.5923 275.19 33.2987 275.19 32.951ZM284.991 29.7177V36.1843H283.009V35.3036C282.809 35.5894 282.534 35.8212 282.187 35.9989C281.847 36.1689 281.468 36.2539 281.051 36.2539C280.556 36.2539 280.12 36.1457 279.741 35.9294C279.363 35.7053 279.069 35.3847 278.861 34.9675C278.652 34.5503 278.548 34.0597 278.548 33.4957V29.7177H280.518V33.2292C280.518 33.6618 280.63 33.9979 280.854 34.2374C281.078 34.4769 281.379 34.5966 281.758 34.5966C282.144 34.5966 282.449 34.4769 282.673 34.2374C282.897 33.9979 283.009 33.6618 283.009 33.2292V29.7177H284.991ZM292.51 32.8467C292.51 33.0321 292.499 33.2253 292.476 33.4262H287.991C288.022 33.8279 288.149 34.137 288.373 34.3533C288.605 34.5619 288.887 34.6662 289.219 34.6662C289.713 34.6662 290.057 34.4576 290.25 34.0404H292.36C292.251 34.4653 292.054 34.8477 291.769 35.1877C291.49 35.5276 291.139 35.7942 290.714 35.9873C290.289 36.1805 289.814 36.277 289.289 36.277C288.655 36.277 288.091 36.1418 287.597 35.8714C287.102 35.601 286.716 35.2147 286.438 34.7125C286.16 34.2104 286.021 33.6232 286.021 32.951C286.021 32.2789 286.156 31.6917 286.426 31.1895C286.704 30.6873 287.091 30.301 287.585 30.0306C288.079 29.7602 288.647 29.625 289.289 29.625C289.914 29.625 290.471 29.7564 290.957 30.019C291.444 30.2817 291.823 30.6564 292.093 31.1432C292.371 31.6299 292.51 32.1977 292.51 32.8467ZM290.482 32.3252C290.482 31.9853 290.366 31.7149 290.135 31.514C289.903 31.3131 289.613 31.2127 289.265 31.2127C288.933 31.2127 288.651 31.3093 288.419 31.5024C288.195 31.6956 288.056 31.9698 288.002 32.3252H290.482ZM296.186 36.277C295.622 36.277 295.12 36.1805 294.68 35.9873C294.239 35.7942 293.892 35.5315 293.637 35.1993C293.382 34.8593 293.239 34.4808 293.208 34.0636H295.167C295.19 34.2876 295.294 34.4692 295.479 34.6082C295.665 34.7473 295.893 34.8168 296.163 34.8168C296.41 34.8168 296.6 34.7705 296.731 34.6778C296.87 34.5773 296.94 34.4499 296.94 34.2953C296.94 34.1099 296.843 33.9747 296.65 33.8897C296.457 33.797 296.144 33.6966 295.711 33.5884C295.248 33.4803 294.861 33.3682 294.552 33.2523C294.243 33.1287 293.977 32.9394 293.753 32.6845C293.529 32.4218 293.417 32.0703 293.417 31.6299C293.417 31.259 293.517 30.923 293.718 30.6217C293.927 30.3126 294.228 30.0693 294.622 29.8916C295.024 29.7139 295.499 29.625 296.047 29.625C296.859 29.625 297.496 29.8259 297.96 30.2276C298.431 30.6294 298.701 31.1625 298.771 31.8269H296.94C296.909 31.6029 296.808 31.4252 296.638 31.2938C296.476 31.1625 296.26 31.0968 295.989 31.0968C295.758 31.0968 295.58 31.1432 295.456 31.2359C295.333 31.3209 295.271 31.4406 295.271 31.5951C295.271 31.7805 295.367 31.9196 295.561 32.0123C295.761 32.105 296.071 32.1977 296.488 32.2905C296.967 32.4141 297.357 32.5377 297.658 32.6613C297.96 32.7772 298.222 32.9703 298.446 33.2407C298.678 33.5034 298.798 33.8588 298.805 34.3069C298.805 34.6855 298.697 35.0254 298.481 35.3267C298.272 35.6203 297.967 35.8521 297.565 36.0221C297.171 36.1921 296.712 36.277 296.186 36.277ZM303.622 34.5039V36.1843H302.614C301.895 36.1843 301.335 36.0105 300.933 35.6628C300.532 35.3074 300.331 34.7319 300.331 33.9361V31.3633H299.543V29.7177H300.331V28.1416H302.312V29.7177H303.61V31.3633H302.312V33.9593C302.312 34.1524 302.359 34.2915 302.452 34.3765C302.544 34.4614 302.699 34.5039 302.915 34.5039H303.622ZM309.557 27.597C310.384 27.597 311.045 27.8133 311.539 28.2459C312.041 28.6786 312.292 29.2889 312.292 30.077C312.292 30.8032 312.053 31.3711 311.574 31.7805C311.103 32.1823 310.477 32.387 309.697 32.3948L309.639 33.2639H307.9L307.842 31.1084H308.538C309.133 31.1084 309.585 31.035 309.894 30.8882C310.21 30.7414 310.369 30.4749 310.369 30.0886C310.369 29.8182 310.295 29.6057 310.148 29.4512C310.002 29.2967 309.797 29.2194 309.534 29.2194C309.256 29.2194 309.04 29.3005 308.885 29.4628C308.731 29.6173 308.654 29.8298 308.654 30.1002H306.788C306.772 29.6289 306.869 29.204 307.077 28.8254C307.294 28.4468 307.611 28.1494 308.028 27.933C308.453 27.709 308.963 27.597 309.557 27.597ZM308.793 36.277C308.445 36.277 308.159 36.1766 307.935 35.9757C307.719 35.7671 307.611 35.5122 307.611 35.2109C307.611 34.9018 307.719 34.643 307.935 34.4344C308.159 34.2258 308.445 34.1215 308.793 34.1215C309.133 34.1215 309.411 34.2258 309.627 34.4344C309.851 34.643 309.963 34.9018 309.963 35.2109C309.963 35.5122 309.851 35.7671 309.627 35.9757C309.411 36.1766 309.133 36.277 308.793 36.277Z" fill="#2E2C43"/>
<path d="M61.4553 51.9932C61.4553 52.6654 61.2235 53.2255 60.76 53.6736C60.3042 54.114 59.605 54.3342 58.6624 54.3342H57.1095V57.7065H56.0549V49.6291H58.6624C59.5741 49.6291 60.2655 49.8493 60.7368 50.2897C61.2158 50.73 61.4553 51.2979 61.4553 51.9932ZM58.6624 53.465C59.2496 53.465 59.6822 53.3375 59.9604 53.0826C60.2385 52.8276 60.3776 52.4645 60.3776 51.9932C60.3776 50.9966 59.8058 50.4983 58.6624 50.4983H57.1095V53.465H58.6624ZM63.8206 49.1308V57.7065H62.766V49.1308H63.8206ZM71.4124 54.2878C71.4124 54.4887 71.4008 54.7012 71.3777 54.9252H66.3017C66.3404 55.551 66.5528 56.0416 66.9391 56.397C67.3331 56.7447 67.8083 56.9185 68.3646 56.9185C68.8204 56.9185 69.199 56.8142 69.5003 56.6056C69.8093 56.3893 70.0256 56.1034 70.1492 55.748H71.285C71.115 56.3584 70.775 56.8567 70.2651 57.243C69.7552 57.6216 69.1217 57.8108 68.3646 57.8108C67.7619 57.8108 67.2211 57.6756 66.7421 57.4052C66.2708 57.1348 65.9 56.7524 65.6296 56.2579C65.3592 55.7557 65.224 55.1763 65.224 54.5196C65.224 53.8629 65.3553 53.2873 65.618 52.7929C65.8807 52.2984 66.2477 51.9198 66.7189 51.6571C67.1979 51.3867 67.7465 51.2515 68.3646 51.2515C68.9672 51.2515 69.5003 51.3829 69.9638 51.6456C70.4274 51.9082 70.7828 52.2714 71.03 52.7349C71.285 53.1907 71.4124 53.7084 71.4124 54.2878ZM70.3231 54.0676C70.3231 53.6659 70.2342 53.3221 70.0565 53.0362C69.8788 52.7426 69.6355 52.5224 69.3264 52.3757C69.0251 52.2211 68.689 52.1439 68.3182 52.1439C67.7851 52.1439 67.3293 52.3138 66.9507 52.6538C66.5799 52.9937 66.3674 53.465 66.3133 54.0676H70.3231ZM72.4104 54.508C72.4104 53.859 72.5418 53.2912 72.8045 52.8044C73.0671 52.31 73.4264 51.9276 73.8822 51.6571C74.3458 51.3867 74.8596 51.2515 75.4236 51.2515C75.9798 51.2515 76.4627 51.3713 76.8722 51.6108C77.2816 51.8503 77.5868 52.1516 77.7877 52.5147V51.3558H78.8539V57.7065H77.7877V56.5245C77.5791 56.8953 77.2662 57.2044 76.849 57.4516C76.4395 57.6911 75.9605 57.8108 75.412 57.8108C74.848 57.8108 74.3381 57.6718 73.8822 57.3936C73.4264 57.1155 73.0671 56.7254 72.8045 56.2232C72.5418 55.721 72.4104 55.1493 72.4104 54.508ZM77.7877 54.5196C77.7877 54.0406 77.6911 53.6234 77.498 53.268C77.3048 52.9126 77.0421 52.6422 76.7099 52.4568C76.3854 52.2636 76.0262 52.1671 75.6322 52.1671C75.2381 52.1671 74.8789 52.2598 74.5544 52.4452C74.2299 52.6306 73.9711 52.901 73.7779 53.2564C73.5848 53.6118 73.4882 54.029 73.4882 54.508C73.4882 54.9947 73.5848 55.4197 73.7779 55.7828C73.9711 56.1382 74.2299 56.4125 74.5544 56.6056C74.8789 56.791 75.2381 56.8837 75.6322 56.8837C76.0262 56.8837 76.3854 56.791 76.7099 56.6056C77.0421 56.4125 77.3048 56.1382 77.498 55.7828C77.6911 55.4197 77.7877 54.9986 77.7877 54.5196ZM82.8843 57.8108C82.3975 57.8108 81.961 57.7297 81.5747 57.5675C81.1884 57.3975 80.8832 57.1657 80.6592 56.8721C80.4351 56.5708 80.3115 56.227 80.2884 55.8407H81.3777C81.4086 56.1575 81.5554 56.4163 81.8181 56.6172C82.0885 56.8181 82.44 56.9185 82.8727 56.9185C83.2744 56.9185 83.5912 56.8297 83.823 56.652C84.0547 56.4743 84.1706 56.2502 84.1706 55.9798C84.1706 55.7017 84.047 55.4969 83.7998 55.3656C83.5526 55.2265 83.1701 55.0913 82.6525 54.96C82.1812 54.8364 81.7949 54.7127 81.4936 54.5891C81.2 54.4578 80.9451 54.2685 80.7287 54.0213C80.5201 53.7663 80.4158 53.4341 80.4158 53.0246C80.4158 52.7001 80.5124 52.4027 80.7056 52.1323C80.8987 51.8619 81.173 51.6494 81.5284 51.4949C81.8838 51.3327 82.2894 51.2515 82.7452 51.2515C83.4483 51.2515 84.0161 51.4292 84.4488 51.7846C84.8814 52.14 85.1132 52.6267 85.1441 53.2448H84.0895C84.0663 52.9126 83.9311 52.6461 83.6839 52.4452C83.4444 52.2443 83.1199 52.1439 82.7104 52.1439C82.3319 52.1439 82.0305 52.225 81.8065 52.3872C81.5824 52.5495 81.4704 52.762 81.4704 53.0246C81.4704 53.2332 81.5361 53.4071 81.6674 53.5461C81.8065 53.6775 81.9765 53.7856 82.1773 53.8706C82.3859 53.9479 82.6718 54.0367 83.0349 54.1372C83.4907 54.2608 83.8616 54.3844 84.1475 54.508C84.4333 54.6239 84.6767 54.8016 84.8776 55.0411C85.0862 55.2806 85.1943 55.5935 85.202 55.9798C85.202 56.3275 85.1055 56.6404 84.9123 56.9185C84.7192 57.1966 84.4449 57.4168 84.0895 57.5791C83.7418 57.7336 83.3401 57.8108 82.8843 57.8108ZM92.4852 54.2878C92.4852 54.4887 92.4736 54.7012 92.4504 54.9252H87.3745C87.4131 55.551 87.6256 56.0416 88.0119 56.397C88.4059 56.7447 88.8811 56.9185 89.4373 56.9185C89.8932 56.9185 90.2717 56.8142 90.573 56.6056C90.8821 56.3893 91.0984 56.1034 91.222 55.748H92.3577C92.1878 56.3584 91.8478 56.8567 91.3379 57.243C90.828 57.6216 90.1945 57.8108 89.4373 57.8108C88.8347 57.8108 88.2939 57.6756 87.8149 57.4052C87.3436 57.1348 86.9728 56.7524 86.7023 56.2579C86.4319 55.7557 86.2967 55.1763 86.2967 54.5196C86.2967 53.8629 86.4281 53.2873 86.6908 52.7929C86.9534 52.2984 87.3204 51.9198 87.7917 51.6571C88.2707 51.3867 88.8193 51.2515 89.4373 51.2515C90.0399 51.2515 90.573 51.3829 91.0366 51.6456C91.5001 51.9082 91.8555 52.2714 92.1028 52.7349C92.3577 53.1907 92.4852 53.7084 92.4852 54.2878ZM91.3958 54.0676C91.3958 53.6659 91.307 53.3221 91.1293 53.0362C90.9516 52.7426 90.7082 52.5224 90.3992 52.3757C90.0979 52.2211 89.7618 52.1439 89.391 52.1439C88.8579 52.1439 88.4021 52.3138 88.0235 52.6538C87.6526 52.9937 87.4402 53.465 87.3861 54.0676H91.3958ZM96.5728 54.5196C96.5728 53.8629 96.7042 53.2912 96.9668 52.8044C97.2295 52.31 97.5926 51.9276 98.0562 51.6571C98.5275 51.3867 99.0644 51.2515 99.6671 51.2515C100.447 51.2515 101.089 51.4408 101.591 51.8194C102.101 52.198 102.437 52.7233 102.599 53.3955H101.463C101.355 53.0092 101.143 52.704 100.826 52.48C100.517 52.2559 100.131 52.1439 99.6671 52.1439C99.0644 52.1439 98.5777 52.3525 98.2069 52.7697C97.836 53.1791 97.6506 53.7625 97.6506 54.5196C97.6506 55.2845 97.836 55.8755 98.2069 56.2927C98.5777 56.7099 99.0644 56.9185 99.6671 56.9185C100.131 56.9185 100.517 56.8103 100.826 56.594C101.135 56.3777 101.347 56.0686 101.463 55.6669H102.599C102.429 56.3159 102.089 56.8374 101.579 57.2314C101.069 57.6177 100.432 57.8108 99.6671 57.8108C99.0644 57.8108 98.5275 57.6756 98.0562 57.4052C97.5926 57.1348 97.2295 56.7524 96.9668 56.2579C96.7042 55.7635 96.5728 55.184 96.5728 54.5196ZM106.776 57.8108C106.181 57.8108 105.64 57.6756 105.153 57.4052C104.674 57.1348 104.296 56.7524 104.018 56.2579C103.747 55.7557 103.612 55.1763 103.612 54.5196C103.612 53.8706 103.751 53.2989 104.029 52.8044C104.315 52.3023 104.702 51.9198 105.188 51.6571C105.675 51.3867 106.22 51.2515 106.822 51.2515C107.425 51.2515 107.97 51.3867 108.456 51.6571C108.943 51.9198 109.325 52.2984 109.604 52.7929C109.889 53.2873 110.032 53.8629 110.032 54.5196C110.032 55.1763 109.886 55.7557 109.592 56.2579C109.306 56.7524 108.916 57.1348 108.422 57.4052C107.927 57.6756 107.379 57.8108 106.776 57.8108ZM106.776 56.8837C107.155 56.8837 107.51 56.7949 107.842 56.6172C108.174 56.4395 108.441 56.1729 108.642 55.8176C108.85 55.4622 108.955 55.0295 108.955 54.5196C108.955 54.0097 108.854 53.577 108.653 53.2216C108.452 52.8662 108.19 52.6036 107.865 52.4336C107.541 52.2559 107.189 52.1671 106.811 52.1671C106.424 52.1671 106.069 52.2559 105.745 52.4336C105.428 52.6036 105.173 52.8662 104.98 53.2216C104.787 53.577 104.69 54.0097 104.69 54.5196C104.69 55.0372 104.783 55.4738 104.968 55.8291C105.161 56.1845 105.416 56.4511 105.733 56.6288C106.05 56.7987 106.397 56.8837 106.776 56.8837ZM114.513 51.2399C115.286 51.2399 115.912 51.4756 116.391 51.9469C116.87 52.4104 117.109 53.0826 117.109 53.9633V57.7065H116.066V54.114C116.066 53.4805 115.908 52.9976 115.591 52.6654C115.274 52.3254 114.842 52.1555 114.293 52.1555C113.737 52.1555 113.293 52.3293 112.96 52.677C112.636 53.0246 112.474 53.5307 112.474 54.1951V57.7065H111.419V51.3558H112.474V52.2598C112.682 51.9353 112.964 51.6842 113.32 51.5065C113.683 51.3288 114.081 51.2399 114.513 51.2399ZM121.416 52.225H120.083V57.7065H119.029V52.225H118.206V51.3558H119.029V50.9039C119.029 50.1931 119.21 49.6754 119.574 49.351C119.944 49.0187 120.535 48.8526 121.347 48.8526V49.7334C120.883 49.7334 120.555 49.8261 120.362 50.0115C120.176 50.1892 120.083 50.4867 120.083 50.9039V51.3558H121.416V52.225ZM123.19 50.3244C122.99 50.3244 122.82 50.2549 122.681 50.1158C122.541 49.9768 122.472 49.8068 122.472 49.6059C122.472 49.405 122.541 49.2351 122.681 49.096C122.82 48.9569 122.99 48.8874 123.19 48.8874C123.384 48.8874 123.546 48.9569 123.677 49.096C123.816 49.2351 123.886 49.405 123.886 49.6059C123.886 49.8068 123.816 49.9768 123.677 50.1158C123.546 50.2549 123.384 50.3244 123.19 50.3244ZM123.7 51.3558V57.7065H122.646V51.3558H123.7ZM126.552 52.3872C126.738 52.0241 127 51.7421 127.34 51.5413C127.688 51.3404 128.109 51.2399 128.604 51.2399V52.3293H128.325C127.143 52.3293 126.552 52.9706 126.552 54.2531V57.7065H125.498V51.3558H126.552V52.3872ZM137.458 51.2399C137.952 51.2399 138.393 51.3442 138.779 51.5528C139.165 51.7537 139.471 52.0589 139.695 52.4684C139.919 52.8778 140.031 53.3762 140.031 53.9633V57.7065H138.988V54.114C138.988 53.4805 138.829 52.9976 138.513 52.6654C138.204 52.3254 137.782 52.1555 137.249 52.1555C136.701 52.1555 136.264 52.3332 135.94 52.6886C135.615 53.0362 135.453 53.5423 135.453 54.2067V57.7065H134.41V54.114C134.41 53.4805 134.252 52.9976 133.935 52.6654C133.626 52.3254 133.205 52.1555 132.672 52.1555C132.123 52.1555 131.687 52.3332 131.362 52.6886C131.038 53.0362 130.875 53.5423 130.875 54.2067V57.7065H129.821V51.3558H130.875V52.2714C131.084 51.9391 131.362 51.6842 131.71 51.5065C132.065 51.3288 132.455 51.2399 132.88 51.2399C133.413 51.2399 133.885 51.3597 134.294 51.5992C134.704 51.8387 135.009 52.1902 135.21 52.6538C135.387 52.2057 135.681 51.858 136.09 51.6108C136.5 51.3636 136.956 51.2399 137.458 51.2399ZM146.137 52.225V55.9682C146.137 56.2772 146.202 56.4974 146.334 56.6288C146.465 56.7524 146.693 56.8142 147.017 56.8142H147.794V57.7065H146.844C146.256 57.7065 145.816 57.5713 145.522 57.3009C145.229 57.0305 145.082 56.5863 145.082 55.9682V52.225H144.259V51.3558H145.082V49.7566H146.137V51.3558H147.794V52.225H146.137ZM152.224 51.2399C152.703 51.2399 153.135 51.3442 153.522 51.5528C153.908 51.7537 154.209 52.0589 154.426 52.4684C154.65 52.8778 154.762 53.3762 154.762 53.9633V57.7065H153.719V54.114C153.719 53.4805 153.56 52.9976 153.244 52.6654C152.927 52.3254 152.494 52.1555 151.946 52.1555C151.389 52.1555 150.945 52.3293 150.613 52.677C150.288 53.0246 150.126 53.5307 150.126 54.1951V57.7065H149.072V49.1308H150.126V52.2598C150.335 51.9353 150.621 51.6842 150.984 51.5065C151.355 51.3288 151.768 51.2399 152.224 51.2399ZM162.279 54.2878C162.279 54.4887 162.267 54.7012 162.244 54.9252H157.168C157.207 55.551 157.419 56.0416 157.806 56.397C158.2 56.7447 158.675 56.9185 159.231 56.9185C159.687 56.9185 160.065 56.8142 160.367 56.6056C160.676 56.3893 160.892 56.1034 161.016 55.748H162.151C161.981 56.3584 161.641 56.8567 161.132 57.243C160.622 57.6216 159.988 57.8108 159.231 57.8108C158.628 57.8108 158.088 57.6756 157.609 57.4052C157.137 57.1348 156.766 56.7524 156.496 56.2579C156.226 55.7557 156.09 55.1763 156.09 54.5196C156.09 53.8629 156.222 53.2873 156.484 52.7929C156.747 52.2984 157.114 51.9198 157.585 51.6571C158.064 51.3867 158.613 51.2515 159.231 51.2515C159.834 51.2515 160.367 51.3829 160.83 51.6456C161.294 51.9082 161.649 52.2714 161.896 52.7349C162.151 53.1907 162.279 53.7084 162.279 54.2878ZM161.189 54.0676C161.189 53.6659 161.101 53.3221 160.923 53.0362C160.745 52.7426 160.502 52.5224 160.193 52.3757C159.892 52.2211 159.555 52.1439 159.185 52.1439C158.652 52.1439 158.196 52.3138 157.817 52.6538C157.446 52.9937 157.234 53.465 157.18 54.0676H161.189ZM167.815 52.5263C168.024 52.1632 168.333 51.8619 168.742 51.6224C169.159 51.3751 169.642 51.2515 170.191 51.2515C170.755 51.2515 171.265 51.3867 171.721 51.6571C172.184 51.9276 172.547 52.31 172.81 52.8044C173.073 53.2912 173.204 53.859 173.204 54.508C173.204 55.1493 173.073 55.721 172.81 56.2232C172.547 56.7254 172.184 57.1155 171.721 57.3936C171.265 57.6718 170.755 57.8108 170.191 57.8108C169.65 57.8108 169.171 57.6911 168.754 57.4516C168.344 57.2044 168.031 56.8992 167.815 56.5361V60.7197H166.76V51.3558H167.815V52.5263ZM172.126 54.508C172.126 54.029 172.03 53.6118 171.836 53.2564C171.643 52.901 171.381 52.6306 171.048 52.4452C170.724 52.2598 170.365 52.1671 169.971 52.1671C169.584 52.1671 169.225 52.2636 168.893 52.4568C168.568 52.6422 168.306 52.9165 168.105 53.2796C167.912 53.635 167.815 54.0483 167.815 54.5196C167.815 54.9986 167.912 55.4197 168.105 55.7828C168.306 56.1382 168.568 56.4125 168.893 56.6056C169.225 56.791 169.584 56.8837 169.971 56.8837C170.365 56.8837 170.724 56.791 171.048 56.6056C171.381 56.4125 171.643 56.1382 171.836 55.7828C172.03 55.4197 172.126 54.9947 172.126 54.508ZM175.647 52.3872C175.832 52.0241 176.095 51.7421 176.435 51.5413C176.782 51.3404 177.203 51.2399 177.698 51.2399V52.3293H177.42C176.238 52.3293 175.647 52.9706 175.647 54.2531V57.7065H174.592V51.3558H175.647V52.3872ZM181.685 57.8108C181.09 57.8108 180.549 57.6756 180.063 57.4052C179.584 57.1348 179.205 56.7524 178.927 56.2579C178.656 55.7557 178.521 55.1763 178.521 54.5196C178.521 53.8706 178.66 53.2989 178.938 52.8044C179.224 52.3023 179.611 51.9198 180.097 51.6571C180.584 51.3867 181.129 51.2515 181.731 51.2515C182.334 51.2515 182.879 51.3867 183.365 51.6571C183.852 51.9198 184.235 52.2984 184.513 52.7929C184.799 53.2873 184.941 53.8629 184.941 54.5196C184.941 55.1763 184.795 55.7557 184.501 56.2579C184.215 56.7524 183.825 57.1348 183.331 57.4052C182.836 57.6756 182.288 57.8108 181.685 57.8108ZM181.685 56.8837C182.064 56.8837 182.419 56.7949 182.751 56.6172C183.083 56.4395 183.35 56.1729 183.551 55.8176C183.759 55.4622 183.864 55.0295 183.864 54.5196C183.864 54.0097 183.763 53.577 183.562 53.2216C183.362 52.8662 183.099 52.6036 182.774 52.4336C182.45 52.2559 182.098 52.1671 181.72 52.1671C181.333 52.1671 180.978 52.2559 180.654 52.4336C180.337 52.6036 180.082 52.8662 179.889 53.2216C179.696 53.577 179.599 54.0097 179.599 54.5196C179.599 55.0372 179.692 55.4738 179.877 55.8291C180.07 56.1845 180.325 56.4511 180.642 56.6288C180.959 56.7987 181.306 56.8837 181.685 56.8837ZM185.934 54.508C185.934 53.859 186.065 53.2912 186.328 52.8044C186.591 52.31 186.95 51.9276 187.406 51.6571C187.869 51.3867 188.387 51.2515 188.959 51.2515C189.453 51.2515 189.913 51.3674 190.338 51.5992C190.763 51.8233 191.087 52.1207 191.311 52.4915V49.1308H192.377V57.7065H191.311V56.5129C191.103 56.8915 190.794 57.2044 190.384 57.4516C189.975 57.6911 189.496 57.8108 188.947 57.8108C188.383 57.8108 187.869 57.6718 187.406 57.3936C186.95 57.1155 186.591 56.7254 186.328 56.2232C186.065 55.721 185.934 55.1493 185.934 54.508ZM191.311 54.5196C191.311 54.0406 191.215 53.6234 191.022 53.268C190.828 52.9126 190.566 52.6422 190.233 52.4568C189.909 52.2636 189.55 52.1671 189.156 52.1671C188.762 52.1671 188.402 52.2598 188.078 52.4452C187.753 52.6306 187.495 52.901 187.302 53.2564C187.108 53.6118 187.012 54.029 187.012 54.508C187.012 54.9947 187.108 55.4197 187.302 55.7828C187.495 56.1382 187.753 56.4125 188.078 56.6056C188.402 56.791 188.762 56.8837 189.156 56.8837C189.55 56.8837 189.909 56.791 190.233 56.6056C190.566 56.4125 190.828 56.1382 191.022 55.7828C191.215 55.4197 191.311 54.9986 191.311 54.5196ZM199.792 51.3558V57.7065H198.737V56.7678C198.536 57.0923 198.254 57.3473 197.891 57.5327C197.536 57.7104 197.142 57.7993 196.709 57.7993C196.215 57.7993 195.77 57.6988 195.376 57.4979C194.982 57.2893 194.67 56.9803 194.438 56.5708C194.214 56.1614 194.102 55.663 194.102 55.0759V51.3558H195.145V54.9368C195.145 55.5626 195.303 56.0455 195.62 56.3854C195.937 56.7176 196.369 56.8837 196.918 56.8837C197.482 56.8837 197.926 56.7099 198.25 56.3622C198.575 56.0146 198.737 55.5085 198.737 54.8441V51.3558H199.792ZM201.178 54.5196C201.178 53.8629 201.31 53.2912 201.572 52.8044C201.835 52.31 202.198 51.9276 202.662 51.6571C203.133 51.3867 203.67 51.2515 204.273 51.2515C205.053 51.2515 205.694 51.4408 206.196 51.8194C206.706 52.198 207.042 52.7233 207.205 53.3955H206.069C205.961 53.0092 205.748 52.704 205.432 52.48C205.122 52.2559 204.736 52.1439 204.273 52.1439C203.67 52.1439 203.183 52.3525 202.812 52.7697C202.442 53.1791 202.256 53.7625 202.256 54.5196C202.256 55.2845 202.442 55.8755 202.812 56.2927C203.183 56.7099 203.67 56.9185 204.273 56.9185C204.736 56.9185 205.122 56.8103 205.432 56.594C205.741 56.3777 205.953 56.0686 206.069 55.6669H207.205C207.035 56.3159 206.695 56.8374 206.185 57.2314C205.675 57.6177 205.037 57.8108 204.273 57.8108C203.67 57.8108 203.133 57.6756 202.662 57.4052C202.198 57.1348 201.835 56.7524 201.572 56.2579C201.31 55.7635 201.178 55.184 201.178 54.5196ZM209.898 52.225V55.9682C209.898 56.2772 209.964 56.4974 210.095 56.6288C210.226 56.7524 210.454 56.8142 210.779 56.8142H211.555V57.7065H210.605C210.018 57.7065 209.577 57.5713 209.284 57.3009C208.99 57.0305 208.844 56.5863 208.844 55.9682V52.225H208.021V51.3558H208.844V49.7566H209.898V51.3558H211.555V52.225H209.898ZM216.773 46.7898L213.598 59.6767H212.555L215.719 46.7898H216.773ZM220.906 57.7877C220.373 57.7877 219.894 57.695 219.469 57.5095C219.052 57.3164 218.723 57.0537 218.484 56.7215C218.244 56.3815 218.121 55.9914 218.113 55.551H219.237C219.276 55.9296 219.43 56.2502 219.701 56.5129C219.979 56.7678 220.38 56.8953 220.906 56.8953C221.408 56.8953 221.802 56.7717 222.088 56.5245C222.381 56.2695 222.528 55.945 222.528 55.551C222.528 55.242 222.443 54.9909 222.273 54.7977C222.103 54.6046 221.891 54.4578 221.636 54.3574C221.381 54.2569 221.037 54.1488 220.604 54.0329C220.071 53.8938 219.643 53.7547 219.318 53.6157C219.001 53.4766 218.727 53.2603 218.495 52.9667C218.271 52.6654 218.159 52.2636 218.159 51.7614C218.159 51.3211 218.271 50.9309 218.495 50.591C218.719 50.251 219.032 49.9883 219.434 49.8029C219.843 49.6175 220.311 49.5248 220.836 49.5248C221.593 49.5248 222.211 49.7141 222.69 50.0926C223.177 50.4712 223.451 50.9734 223.513 51.5992H222.354C222.316 51.2902 222.153 51.0198 221.868 50.788C221.582 50.5485 221.203 50.4287 220.732 50.4287C220.292 50.4287 219.932 50.5446 219.654 50.7764C219.376 51.0004 219.237 51.3172 219.237 51.7267C219.237 52.0203 219.318 52.2598 219.48 52.4452C219.65 52.6306 219.855 52.7735 220.095 52.874C220.342 52.9667 220.686 53.0748 221.126 53.1985C221.659 53.3453 222.088 53.4921 222.412 53.6388C222.737 53.7779 223.015 53.9981 223.247 54.2994C223.478 54.593 223.594 54.9947 223.594 55.5047C223.594 55.8987 223.49 56.2695 223.281 56.6172C223.073 56.9649 222.764 57.2469 222.354 57.4632C221.945 57.6795 221.462 57.7877 220.906 57.7877ZM230.941 54.2878C230.941 54.4887 230.929 54.7012 230.906 54.9252H225.83C225.869 55.551 226.081 56.0416 226.467 56.397C226.861 56.7447 227.337 56.9185 227.893 56.9185C228.349 56.9185 228.727 56.8142 229.029 56.6056C229.338 56.3893 229.554 56.1034 229.678 55.748H230.813C230.643 56.3584 230.303 56.8567 229.793 57.243C229.284 57.6216 228.65 57.8108 227.893 57.8108C227.29 57.8108 226.749 57.6756 226.27 57.4052C225.799 57.1348 225.428 56.7524 225.158 56.2579C224.887 55.7557 224.752 55.1763 224.752 54.5196C224.752 53.8629 224.884 53.2873 225.146 52.7929C225.409 52.2984 225.776 51.9198 226.247 51.6571C226.726 51.3867 227.275 51.2515 227.893 51.2515C228.495 51.2515 229.029 51.3829 229.492 51.6456C229.956 51.9082 230.311 52.2714 230.558 52.7349C230.813 53.1907 230.941 53.7084 230.941 54.2878ZM229.851 54.0676C229.851 53.6659 229.763 53.3221 229.585 53.0362C229.407 52.7426 229.164 52.5224 228.855 52.3757C228.553 52.2211 228.217 52.1439 227.847 52.1439C227.313 52.1439 226.858 52.3138 226.479 52.6538C226.108 52.9937 225.896 53.465 225.842 54.0676H229.851ZM233.387 52.3872C233.573 52.0241 233.835 51.7421 234.175 51.5413C234.523 51.3404 234.944 51.2399 235.439 51.2399V52.3293H235.16C233.978 52.3293 233.387 52.9706 233.387 54.2531V57.7065H232.333V51.3558H233.387V52.3872ZM239.02 56.7331L240.99 51.3558H242.114L239.623 57.7065H238.394L235.903 51.3558H237.038L239.02 56.7331ZM243.697 50.3244C243.496 50.3244 243.326 50.2549 243.187 50.1158C243.048 49.9768 242.978 49.8068 242.978 49.6059C242.978 49.405 243.048 49.2351 243.187 49.096C243.326 48.9569 243.496 48.8874 243.697 48.8874C243.89 48.8874 244.052 48.9569 244.183 49.096C244.323 49.2351 244.392 49.405 244.392 49.6059C244.392 49.8068 244.323 49.9768 244.183 50.1158C244.052 50.2549 243.89 50.3244 243.697 50.3244ZM244.207 51.3558V57.7065H243.152V51.3558H244.207ZM245.61 54.5196C245.61 53.8629 245.741 53.2912 246.004 52.8044C246.267 52.31 246.63 51.9276 247.093 51.6571C247.565 51.3867 248.102 51.2515 248.704 51.2515C249.485 51.2515 250.126 51.4408 250.628 51.8194C251.138 52.198 251.474 52.7233 251.636 53.3955H250.501C250.392 53.0092 250.18 52.704 249.863 52.48C249.554 52.2559 249.168 52.1439 248.704 52.1439C248.102 52.1439 247.615 52.3525 247.244 52.7697C246.873 53.1791 246.688 53.7625 246.688 54.5196C246.688 55.2845 246.873 55.8755 247.244 56.2927C247.615 56.7099 248.102 56.9185 248.704 56.9185C249.168 56.9185 249.554 56.8103 249.863 56.594C250.172 56.3777 250.385 56.0686 250.501 55.6669H251.636C251.466 56.3159 251.126 56.8374 250.616 57.2314C250.107 57.6177 249.469 57.8108 248.704 57.8108C248.102 57.8108 247.565 57.6756 247.093 57.4052C246.63 57.1348 246.267 56.7524 246.004 56.2579C245.741 55.7635 245.61 55.184 245.61 54.5196ZM258.838 54.2878C258.838 54.4887 258.826 54.7012 258.803 54.9252H253.727C253.766 55.551 253.978 56.0416 254.365 56.397C254.759 56.7447 255.234 56.9185 255.79 56.9185C256.246 56.9185 256.624 56.8142 256.926 56.6056C257.235 56.3893 257.451 56.1034 257.575 55.748H258.71C258.54 56.3584 258.2 56.8567 257.691 57.243C257.181 57.6216 256.547 57.8108 255.79 57.8108C255.187 57.8108 254.647 57.6756 254.167 57.4052C253.696 57.1348 253.325 56.7524 253.055 56.2579C252.785 55.7557 252.649 55.1763 252.649 54.5196C252.649 53.8629 252.781 53.2873 253.043 52.7929C253.306 52.2984 253.673 51.9198 254.144 51.6571C254.623 51.3867 255.172 51.2515 255.79 51.2515C256.393 51.2515 256.926 51.3829 257.389 51.6456C257.853 51.9082 258.208 52.2714 258.455 52.7349C258.71 53.1907 258.838 53.7084 258.838 54.2878ZM257.748 54.0676C257.748 53.6659 257.66 53.3221 257.482 53.0362C257.304 52.7426 257.061 52.5224 256.752 52.3757C256.451 52.2211 256.114 52.1439 255.744 52.1439C255.21 52.1439 254.755 52.3138 254.376 52.6538C254.005 52.9937 253.793 53.465 253.739 54.0676H257.748ZM262.925 54.508C262.925 53.859 263.057 53.2912 263.319 52.8044C263.582 52.31 263.941 51.9276 264.397 51.6571C264.861 51.3867 265.375 51.2515 265.939 51.2515C266.495 51.2515 266.978 51.3713 267.387 51.6108C267.797 51.8503 268.102 52.1516 268.303 52.5147V51.3558H269.369V57.7065H268.303V56.5245C268.094 56.8953 267.781 57.2044 267.364 57.4516C266.955 57.6911 266.476 57.8108 265.927 57.8108C265.363 57.8108 264.853 57.6718 264.397 57.3936C263.941 57.1155 263.582 56.7254 263.319 56.2232C263.057 55.721 262.925 55.1493 262.925 54.508ZM268.303 54.5196C268.303 54.0406 268.206 53.6234 268.013 53.268C267.82 52.9126 267.557 52.6422 267.225 52.4568C266.9 52.2636 266.541 52.1671 266.147 52.1671C265.753 52.1671 265.394 52.2598 265.069 52.4452C264.745 52.6306 264.486 52.901 264.293 53.2564C264.1 53.6118 264.003 54.029 264.003 54.508C264.003 54.9947 264.1 55.4197 264.293 55.7828C264.486 56.1382 264.745 56.4125 265.069 56.6056C265.394 56.791 265.753 56.8837 266.147 56.8837C266.541 56.8837 266.9 56.791 267.225 56.6056C267.557 56.4125 267.82 56.1382 268.013 55.7828C268.206 55.4197 268.303 54.9986 268.303 54.5196ZM273.515 56.7331L275.485 51.3558H276.609L274.118 57.7065H272.889L270.398 51.3558H271.533L273.515 56.7331ZM277.253 54.508C277.253 53.859 277.384 53.2912 277.647 52.8044C277.91 52.31 278.269 51.9276 278.725 51.6571C279.188 51.3867 279.702 51.2515 280.266 51.2515C280.822 51.2515 281.305 51.3713 281.715 51.6108C282.124 51.8503 282.429 52.1516 282.63 52.5147V51.3558H283.697V57.7065H282.63V56.5245C282.422 56.8953 282.109 57.2044 281.692 57.4516C281.282 57.6911 280.803 57.8108 280.255 57.8108C279.691 57.8108 279.181 57.6718 278.725 57.3936C278.269 57.1155 277.91 56.7254 277.647 56.2232C277.384 55.721 277.253 55.1493 277.253 54.508ZM282.63 54.5196C282.63 54.0406 282.534 53.6234 282.341 53.268C282.147 52.9126 281.885 52.6422 281.553 52.4568C281.228 52.2636 280.869 52.1671 280.475 52.1671C280.081 52.1671 279.722 52.2598 279.397 52.4452C279.073 52.6306 278.814 52.901 278.621 53.2564C278.427 53.6118 278.331 54.029 278.331 54.508C278.331 54.9947 278.427 55.4197 278.621 55.7828C278.814 56.1382 279.073 56.4125 279.397 56.6056C279.722 56.791 280.081 56.8837 280.475 56.8837C280.869 56.8837 281.228 56.791 281.553 56.6056C281.885 56.4125 282.147 56.1382 282.341 55.7828C282.534 55.4197 282.63 54.9986 282.63 54.5196ZM286.023 50.3244C285.822 50.3244 285.653 50.2549 285.513 50.1158C285.374 49.9768 285.305 49.8068 285.305 49.6059C285.305 49.405 285.374 49.2351 285.513 49.096C285.653 48.9569 285.822 48.8874 286.023 48.8874C286.217 48.8874 286.379 48.9569 286.51 49.096C286.649 49.2351 286.719 49.405 286.719 49.6059C286.719 49.8068 286.649 49.9768 286.51 50.1158C286.379 50.2549 286.217 50.3244 286.023 50.3244ZM286.533 51.3558V57.7065H285.479V51.3558H286.533ZM289.385 49.1308V57.7065H288.331V49.1308H289.385ZM290.789 54.508C290.789 53.859 290.92 53.2912 291.183 52.8044C291.445 52.31 291.805 51.9276 292.26 51.6571C292.724 51.3867 293.238 51.2515 293.802 51.2515C294.358 51.2515 294.841 51.3713 295.25 51.6108C295.66 51.8503 295.965 52.1516 296.166 52.5147V51.3558H297.232V57.7065H296.166V56.5245C295.957 56.8953 295.644 57.2044 295.227 57.4516C294.818 57.6911 294.339 57.8108 293.79 57.8108C293.226 57.8108 292.716 57.6718 292.26 57.3936C291.805 57.1155 291.445 56.7254 291.183 56.2232C290.92 55.721 290.789 55.1493 290.789 54.508ZM296.166 54.5196C296.166 54.0406 296.069 53.6234 295.876 53.268C295.683 52.9126 295.42 52.6422 295.088 52.4568C294.764 52.2636 294.404 52.1671 294.01 52.1671C293.616 52.1671 293.257 52.2598 292.933 52.4452C292.608 52.6306 292.349 52.901 292.156 53.2564C291.963 53.6118 291.866 54.029 291.866 54.508C291.866 54.9947 291.963 55.4197 292.156 55.7828C292.349 56.1382 292.608 56.4125 292.933 56.6056C293.257 56.791 293.616 56.8837 294.01 56.8837C294.404 56.8837 294.764 56.791 295.088 56.6056C295.42 56.4125 295.683 56.1382 295.876 55.7828C296.069 55.4197 296.166 54.9986 296.166 54.5196ZM300.069 52.5379C300.285 52.1593 300.602 51.8503 301.019 51.6108C301.436 51.3713 301.911 51.2515 302.444 51.2515C303.016 51.2515 303.53 51.3867 303.986 51.6571C304.442 51.9276 304.801 52.31 305.064 52.8044C305.326 53.2912 305.458 53.859 305.458 54.508C305.458 55.1493 305.326 55.721 305.064 56.2232C304.801 56.7254 304.438 57.1155 303.974 57.3936C303.518 57.6718 303.008 57.8108 302.444 57.8108C301.896 57.8108 301.413 57.6911 300.996 57.4516C300.586 57.2121 300.277 56.9069 300.069 56.5361V57.7065H299.014V49.1308H300.069V52.5379ZM304.38 54.508C304.38 54.029 304.283 53.6118 304.09 53.2564C303.897 52.901 303.634 52.6306 303.302 52.4452C302.978 52.2598 302.618 52.1671 302.224 52.1671C301.838 52.1671 301.479 52.2636 301.146 52.4568C300.822 52.6422 300.559 52.9165 300.358 53.2796C300.165 53.635 300.069 54.0483 300.069 54.5196C300.069 54.9986 300.165 55.4197 300.358 55.7828C300.559 56.1382 300.822 56.4125 301.146 56.6056C301.479 56.791 301.838 56.8837 302.224 56.8837C302.618 56.8837 302.978 56.791 303.302 56.6056C303.634 56.4125 303.897 56.1382 304.09 55.7828C304.283 55.4197 304.38 54.9947 304.38 54.508ZM307.39 50.3244C307.19 50.3244 307.02 50.2549 306.88 50.1158C306.741 49.9768 306.672 49.8068 306.672 49.6059C306.672 49.405 306.741 49.2351 306.88 49.096C307.02 48.9569 307.19 48.8874 307.39 48.8874C307.584 48.8874 307.746 48.9569 307.877 49.096C308.016 49.2351 308.086 49.405 308.086 49.6059C308.086 49.8068 308.016 49.9768 307.877 50.1158C307.746 50.2549 307.584 50.3244 307.39 50.3244ZM307.9 51.3558V57.7065H306.846V51.3558H307.9ZM310.752 49.1308V57.7065H309.698V49.1308H310.752ZM313.094 50.3244C312.893 50.3244 312.723 50.2549 312.584 50.1158C312.445 49.9768 312.376 49.8068 312.376 49.6059C312.376 49.405 312.445 49.2351 312.584 49.096C312.723 48.9569 312.893 48.8874 313.094 48.8874C313.287 48.8874 313.45 48.9569 313.581 49.096C313.72 49.2351 313.79 49.405 313.79 49.6059C313.79 49.8068 313.72 49.9768 313.581 50.1158C313.45 50.2549 313.287 50.3244 313.094 50.3244ZM313.604 51.3558V57.7065H312.55V51.3558H313.604ZM316.688 52.225V55.9682C316.688 56.2772 316.754 56.4974 316.885 56.6288C317.016 56.7524 317.244 56.8142 317.569 56.8142H318.345V57.7065H317.395C316.808 57.7065 316.367 57.5713 316.074 57.3009C315.78 57.0305 315.633 56.5863 315.633 55.9682V52.225H314.811V51.3558H315.633V49.7566H316.688V51.3558H318.345V52.225H316.688ZM325.093 51.3558L321.268 60.6965H320.179L321.431 57.637L318.87 51.3558H320.04L322.033 56.5013L324.003 51.3558H325.093ZM118.342 69.5379C118.558 69.1593 118.875 68.8503 119.292 68.6108C119.709 68.3713 120.184 68.2515 120.717 68.2515C121.289 68.2515 121.803 68.3867 122.259 68.6571C122.714 68.9276 123.074 69.31 123.336 69.8044C123.599 70.2912 123.73 70.859 123.73 71.508C123.73 72.1493 123.599 72.721 123.336 73.2232C123.074 73.7254 122.711 74.1155 122.247 74.3936C121.791 74.6718 121.281 74.8108 120.717 74.8108C120.169 74.8108 119.686 74.6911 119.269 74.4516C118.859 74.2121 118.55 73.9069 118.342 73.5361V74.7065H117.287V66.1308H118.342V69.5379ZM122.653 71.508C122.653 71.029 122.556 70.6118 122.363 70.2564C122.17 69.901 121.907 69.6306 121.575 69.4452C121.25 69.2598 120.891 69.1671 120.497 69.1671C120.111 69.1671 119.752 69.2636 119.419 69.4568C119.095 69.6422 118.832 69.9165 118.631 70.2796C118.438 70.635 118.342 71.0483 118.342 71.5196C118.342 71.9986 118.438 72.4197 118.631 72.7828C118.832 73.1382 119.095 73.4125 119.419 73.6056C119.752 73.791 120.111 73.8837 120.497 73.8837C120.891 73.8837 121.25 73.791 121.575 73.6056C121.907 73.4125 122.17 73.1382 122.363 72.7828C122.556 72.4197 122.653 71.9947 122.653 71.508ZM130.589 68.3558L126.764 77.6965H125.675L126.926 74.637L124.365 68.3558H125.536L127.529 73.5013L129.499 68.3558H130.589ZM134.344 71.508C134.344 70.859 134.476 70.2912 134.738 69.8044C135.001 69.31 135.36 68.9276 135.816 68.6571C136.28 68.3867 136.793 68.2515 137.357 68.2515C137.914 68.2515 138.396 68.3713 138.806 68.6108C139.215 68.8503 139.521 69.1516 139.721 69.5147V68.3558H140.788V74.7065H139.721V73.5245C139.513 73.8953 139.2 74.2044 138.783 74.4516C138.373 74.6911 137.894 74.8108 137.346 74.8108C136.782 74.8108 136.272 74.6718 135.816 74.3936C135.36 74.1155 135.001 73.7254 134.738 73.2232C134.476 72.721 134.344 72.1493 134.344 71.508ZM139.721 71.5196C139.721 71.0406 139.625 70.6234 139.432 70.268C139.239 69.9126 138.976 69.6422 138.644 69.4568C138.319 69.2636 137.96 69.1671 137.566 69.1671C137.172 69.1671 136.813 69.2598 136.488 69.4452C136.164 69.6306 135.905 69.901 135.712 70.2564C135.519 70.6118 135.422 71.029 135.422 71.508C135.422 71.9947 135.519 72.4197 135.712 72.7828C135.905 73.1382 136.164 73.4125 136.488 73.6056C136.813 73.791 137.172 73.8837 137.566 73.8837C137.96 73.8837 138.319 73.791 138.644 73.6056C138.976 73.4125 139.239 73.1382 139.432 72.7828C139.625 72.4197 139.721 71.9986 139.721 71.5196ZM142.176 71.5196C142.176 70.8629 142.307 70.2912 142.57 69.8044C142.832 69.31 143.196 68.9276 143.659 68.6571C144.13 68.3867 144.667 68.2515 145.27 68.2515C146.05 68.2515 146.692 68.4408 147.194 68.8194C147.704 69.198 148.04 69.7233 148.202 70.3955H147.066C146.958 70.0092 146.746 69.704 146.429 69.48C146.12 69.2559 145.734 69.1439 145.27 69.1439C144.667 69.1439 144.181 69.3525 143.81 69.7697C143.439 70.1791 143.254 70.7625 143.254 71.5196C143.254 72.2845 143.439 72.8755 143.81 73.2927C144.181 73.7099 144.667 73.9185 145.27 73.9185C145.734 73.9185 146.12 73.8103 146.429 73.594C146.738 73.3777 146.95 73.0686 147.066 72.6669H148.202C148.032 73.3159 147.692 73.8374 147.182 74.2314C146.672 74.6177 146.035 74.8108 145.27 74.8108C144.667 74.8108 144.13 74.6756 143.659 74.4052C143.196 74.1348 142.832 73.7524 142.57 73.2579C142.307 72.7635 142.176 72.184 142.176 71.5196ZM149.215 71.5196C149.215 70.8629 149.346 70.2912 149.609 69.8044C149.872 69.31 150.235 68.9276 150.699 68.6571C151.17 68.3867 151.707 68.2515 152.309 68.2515C153.09 68.2515 153.731 68.4408 154.233 68.8194C154.743 69.198 155.079 69.7233 155.241 70.3955H154.106C153.997 70.0092 153.785 69.704 153.468 69.48C153.159 69.2559 152.773 69.1439 152.309 69.1439C151.707 69.1439 151.22 69.3525 150.849 69.7697C150.478 70.1791 150.293 70.7625 150.293 71.5196C150.293 72.2845 150.478 72.8755 150.849 73.2927C151.22 73.7099 151.707 73.9185 152.309 73.9185C152.773 73.9185 153.159 73.8103 153.468 73.594C153.777 73.3777 153.99 73.0686 154.106 72.6669H155.241C155.071 73.3159 154.731 73.8374 154.222 74.2314C153.712 74.6177 153.074 74.8108 152.309 74.8108C151.707 74.8108 151.17 74.6756 150.699 74.4052C150.235 74.1348 149.872 73.7524 149.609 73.2579C149.346 72.7635 149.215 72.184 149.215 71.5196ZM162.443 71.2878C162.443 71.4887 162.431 71.7012 162.408 71.9252H157.332C157.371 72.551 157.583 73.0416 157.97 73.397C158.364 73.7447 158.839 73.9185 159.395 73.9185C159.851 73.9185 160.229 73.8142 160.531 73.6056C160.84 73.3893 161.056 73.1034 161.18 72.748H162.315C162.145 73.3584 161.806 73.8567 161.296 74.243C160.786 74.6216 160.152 74.8108 159.395 74.8108C158.792 74.8108 158.252 74.6756 157.773 74.4052C157.301 74.1348 156.93 73.7524 156.66 73.2579C156.39 72.7557 156.254 72.1763 156.254 71.5196C156.254 70.8629 156.386 70.2873 156.648 69.7929C156.911 69.2984 157.278 68.9198 157.749 68.6571C158.228 68.3867 158.777 68.2515 159.395 68.2515C159.998 68.2515 160.531 68.3829 160.994 68.6456C161.458 68.9082 161.813 69.2714 162.061 69.7349C162.315 70.1907 162.443 70.7084 162.443 71.2878ZM161.354 71.0676C161.354 70.6659 161.265 70.3221 161.087 70.0362C160.909 69.7426 160.666 69.5224 160.357 69.3757C160.056 69.2211 159.72 69.1439 159.349 69.1439C158.816 69.1439 158.36 69.3138 157.981 69.6538C157.61 69.9937 157.398 70.465 157.344 71.0676H161.354ZM164.89 69.5263C165.098 69.1632 165.407 68.8619 165.817 68.6224C166.234 68.3751 166.717 68.2515 167.265 68.2515C167.829 68.2515 168.339 68.3867 168.795 68.6571C169.259 68.9276 169.622 69.31 169.884 69.8044C170.147 70.2912 170.278 70.859 170.278 71.508C170.278 72.1493 170.147 72.721 169.884 73.2232C169.622 73.7254 169.259 74.1155 168.795 74.3936C168.339 74.6718 167.829 74.8108 167.265 74.8108C166.724 74.8108 166.245 74.6911 165.828 74.4516C165.419 74.2044 165.106 73.8992 164.89 73.5361V77.7197H163.835V68.3558H164.89V69.5263ZM169.201 71.508C169.201 71.029 169.104 70.6118 168.911 70.2564C168.718 69.901 168.455 69.6306 168.123 69.4452C167.798 69.2598 167.439 69.1671 167.045 69.1671C166.659 69.1671 166.3 69.2636 165.967 69.4568C165.643 69.6422 165.38 69.9165 165.179 70.2796C164.986 70.635 164.89 71.0483 164.89 71.5196C164.89 71.9986 164.986 72.4197 165.179 72.7828C165.38 73.1382 165.643 73.4125 165.967 73.6056C166.3 73.791 166.659 73.8837 167.045 73.8837C167.439 73.8837 167.798 73.791 168.123 73.6056C168.455 73.4125 168.718 73.1382 168.911 72.7828C169.104 72.4197 169.201 71.9947 169.201 71.508ZM172.953 69.225V72.9682C172.953 73.2772 173.019 73.4974 173.15 73.6288C173.281 73.7524 173.509 73.8142 173.834 73.8142H174.61V74.7065H173.66C173.073 74.7065 172.632 74.5713 172.339 74.3009C172.045 74.0305 171.898 73.5863 171.898 72.9682V69.225H171.075V68.3558H171.898V66.7566H172.953V68.3558H174.61V69.225H172.953ZM176.433 67.3244C176.232 67.3244 176.062 67.2549 175.923 67.1158C175.784 66.9768 175.714 66.8068 175.714 66.6059C175.714 66.405 175.784 66.2351 175.923 66.096C176.062 65.9569 176.232 65.8874 176.433 65.8874C176.626 65.8874 176.788 65.9569 176.919 66.096C177.058 66.2351 177.128 66.405 177.128 66.6059C177.128 66.8068 177.058 66.9768 176.919 67.1158C176.788 67.2549 176.626 67.3244 176.433 67.3244ZM176.942 68.3558V74.7065H175.888V68.3558H176.942ZM181.834 68.2399C182.607 68.2399 183.232 68.4756 183.711 68.9469C184.19 69.4104 184.43 70.0826 184.43 70.9633V74.7065H183.387V71.114C183.387 70.4805 183.229 69.9976 182.912 69.6654C182.595 69.3254 182.162 69.1555 181.614 69.1555C181.058 69.1555 180.613 69.3293 180.281 69.677C179.957 70.0246 179.794 70.5307 179.794 71.1951V74.7065H178.74V68.3558H179.794V69.2598C180.003 68.9353 180.285 68.6842 180.64 68.5065C181.004 68.3288 181.401 68.2399 181.834 68.2399ZM188.772 68.2515C189.32 68.2515 189.799 68.3713 190.209 68.6108C190.626 68.8503 190.935 69.1516 191.136 69.5147V68.3558H192.202V74.8456C192.202 75.4251 192.078 75.9388 191.831 76.3869C191.584 76.8428 191.229 77.1982 190.765 77.4531C190.309 77.7081 189.776 77.8355 189.166 77.8355C188.331 77.8355 187.636 77.6385 187.08 77.2445C186.523 76.8505 186.195 76.3135 186.095 75.6337H187.138C187.254 76.02 187.493 76.329 187.856 76.5608C188.219 76.8003 188.656 76.92 189.166 76.92C189.745 76.92 190.216 76.7385 190.58 76.3753C190.95 76.0122 191.136 75.5023 191.136 74.8456V73.5129C190.927 73.8837 190.618 74.1928 190.209 74.44C189.799 74.6872 189.32 74.8108 188.772 74.8108C188.208 74.8108 187.694 74.6718 187.23 74.3936C186.775 74.1155 186.415 73.7254 186.153 73.2232C185.89 72.721 185.759 72.1493 185.759 71.508C185.759 70.859 185.89 70.2912 186.153 69.8044C186.415 69.31 186.775 68.9276 187.23 68.6571C187.694 68.3867 188.208 68.2515 188.772 68.2515ZM191.136 71.5196C191.136 71.0406 191.039 70.6234 190.846 70.268C190.653 69.9126 190.39 69.6422 190.058 69.4568C189.734 69.2636 189.374 69.1671 188.98 69.1671C188.586 69.1671 188.227 69.2598 187.903 69.4452C187.578 69.6306 187.319 69.901 187.126 70.2564C186.933 70.6118 186.836 71.029 186.836 71.508C186.836 71.9947 186.933 72.4197 187.126 72.7828C187.319 73.1382 187.578 73.4125 187.903 73.6056C188.227 73.791 188.586 73.8837 188.98 73.8837C189.374 73.8837 189.734 73.791 190.058 73.6056C190.39 73.4125 190.653 73.1382 190.846 72.7828C191.039 72.4197 191.136 71.9986 191.136 71.5196ZM198.36 69.225V72.9682C198.36 73.2772 198.426 73.4974 198.557 73.6288C198.689 73.7524 198.916 73.8142 199.241 73.8142H200.017V74.7065H199.067C198.48 74.7065 198.04 74.5713 197.746 74.3009C197.452 74.0305 197.306 73.5863 197.306 72.9682V69.225H196.483V68.3558H197.306V66.7566H198.36V68.3558H200.017V69.225H198.36ZM204.447 68.2399C204.926 68.2399 205.359 68.3442 205.745 68.5528C206.132 68.7537 206.433 69.0589 206.649 69.4684C206.873 69.8778 206.985 70.3762 206.985 70.9633V74.7065H205.942V71.114C205.942 70.4805 205.784 69.9976 205.467 69.6654C205.15 69.3254 204.718 69.1555 204.169 69.1555C203.613 69.1555 203.169 69.3293 202.836 69.677C202.512 70.0246 202.35 70.5307 202.35 71.1951V74.7065H201.295V66.1308H202.35V69.2598C202.558 68.9353 202.844 68.6842 203.207 68.5065C203.578 68.3288 203.991 68.2399 204.447 68.2399ZM209.253 67.3244C209.052 67.3244 208.882 67.2549 208.743 67.1158C208.604 66.9768 208.534 66.8068 208.534 66.6059C208.534 66.405 208.604 66.2351 208.743 66.096C208.882 65.9569 209.052 65.8874 209.253 65.8874C209.446 65.8874 209.608 65.9569 209.739 66.096C209.878 66.2351 209.948 66.405 209.948 66.6059C209.948 66.8068 209.878 66.9768 209.739 67.1158C209.608 67.2549 209.446 67.3244 209.253 67.3244ZM209.763 68.3558V74.7065H208.708V68.3558H209.763ZM213.808 74.8108C213.321 74.8108 212.885 74.7297 212.499 74.5675C212.112 74.3975 211.807 74.1657 211.583 73.8721C211.359 73.5708 211.235 73.227 211.212 72.8407H212.302C212.333 73.1575 212.479 73.4163 212.742 73.6172C213.012 73.8181 213.364 73.9185 213.797 73.9185C214.198 73.9185 214.515 73.8297 214.747 73.652C214.979 73.4743 215.095 73.2502 215.095 72.9798C215.095 72.7017 214.971 72.4969 214.724 72.3656C214.476 72.2265 214.094 72.0913 213.576 71.96C213.105 71.8364 212.719 71.7127 212.417 71.5891C212.124 71.4578 211.869 71.2685 211.653 71.0213C211.444 70.7663 211.34 70.4341 211.34 70.0246C211.34 69.7001 211.436 69.4027 211.629 69.1323C211.823 68.8619 212.097 68.6494 212.452 68.4949C212.808 68.3327 213.213 68.2515 213.669 68.2515C214.372 68.2515 214.94 68.4292 215.373 68.7846C215.805 69.14 216.037 69.6267 216.068 70.2448H215.013C214.99 69.9126 214.855 69.6461 214.608 69.4452C214.368 69.2443 214.044 69.1439 213.634 69.1439C213.256 69.1439 212.954 69.225 212.73 69.3872C212.506 69.5495 212.394 69.762 212.394 70.0246C212.394 70.2332 212.46 70.4071 212.591 70.5461C212.73 70.6775 212.9 70.7856 213.101 70.8706C213.31 70.9479 213.596 71.0367 213.959 71.1372C214.415 71.2608 214.785 71.3844 215.071 71.508C215.357 71.6239 215.601 71.8016 215.801 72.0411C216.01 72.2806 216.118 72.5935 216.126 72.9798C216.126 73.3275 216.029 73.6404 215.836 73.9185C215.643 74.1966 215.369 74.4168 215.013 74.5791C214.666 74.7336 214.264 74.8108 213.808 74.8108ZM221.759 69.3872C221.944 69.0241 222.207 68.7421 222.547 68.5413C222.895 68.3404 223.316 68.2399 223.81 68.2399V69.3293H223.532C222.35 69.3293 221.759 69.9706 221.759 71.2531V74.7065H220.704V68.3558H221.759V69.3872ZM230.822 71.2878C230.822 71.4887 230.81 71.7012 230.787 71.9252H225.711C225.75 72.551 225.962 73.0416 226.349 73.397C226.743 73.7447 227.218 73.9185 227.774 73.9185C228.23 73.9185 228.608 73.8142 228.91 73.6056C229.219 73.3893 229.435 73.1034 229.559 72.748H230.694C230.524 73.3584 230.185 73.8567 229.675 74.243C229.165 74.6216 228.531 74.8108 227.774 74.8108C227.171 74.8108 226.631 74.6756 226.152 74.4052C225.68 74.1348 225.309 73.7524 225.039 73.2579C224.769 72.7557 224.633 72.1763 224.633 71.5196C224.633 70.8629 224.765 70.2873 225.027 69.7929C225.29 69.2984 225.657 68.9198 226.128 68.6571C226.607 68.3867 227.156 68.2515 227.774 68.2515C228.377 68.2515 228.91 68.3829 229.373 68.6456C229.837 68.9082 230.192 69.2714 230.439 69.7349C230.694 70.1907 230.822 70.7084 230.822 71.2878ZM229.733 71.0676C229.733 70.6659 229.644 70.3221 229.466 70.0362C229.288 69.7426 229.045 69.5224 228.736 69.3757C228.435 69.2211 228.099 69.1439 227.728 69.1439C227.195 69.1439 226.739 69.3138 226.36 69.6538C225.989 69.9937 225.777 70.465 225.723 71.0676H229.733ZM231.82 71.508C231.82 70.859 231.951 70.2912 232.214 69.8044C232.477 69.31 232.836 68.9276 233.292 68.6571C233.755 68.3867 234.273 68.2515 234.845 68.2515C235.393 68.2515 235.872 68.3751 236.282 68.6224C236.699 68.8619 237.004 69.1593 237.197 69.5147V68.3558H238.263V77.7197H237.197V73.5361C236.996 73.8915 236.687 74.1928 236.27 74.44C235.853 74.6872 235.366 74.8108 234.81 74.8108C234.254 74.8108 233.748 74.6718 233.292 74.3936C232.836 74.1155 232.477 73.7254 232.214 73.2232C231.951 72.721 231.82 72.1493 231.82 71.508ZM237.197 71.5196C237.197 71.0406 237.101 70.6234 236.907 70.268C236.714 69.9126 236.452 69.6422 236.119 69.4568C235.795 69.2636 235.436 69.1671 235.042 69.1671C234.648 69.1671 234.288 69.2598 233.964 69.4452C233.639 69.6306 233.381 69.901 233.187 70.2564C232.994 70.6118 232.898 71.029 232.898 71.508C232.898 71.9947 232.994 72.4197 233.187 72.7828C233.381 73.1382 233.639 73.4125 233.964 73.6056C234.288 73.791 234.648 73.8837 235.042 73.8837C235.436 73.8837 235.795 73.791 236.119 73.6056C236.452 73.4125 236.714 73.1382 236.907 72.7828C237.101 72.4197 237.197 71.9986 237.197 71.5196ZM245.678 68.3558V74.7065H244.623V73.7678C244.422 74.0923 244.14 74.3473 243.777 74.5327C243.422 74.7104 243.028 74.7993 242.595 74.7993C242.101 74.7993 241.656 74.6988 241.262 74.4979C240.868 74.2893 240.555 73.9803 240.324 73.5708C240.1 73.1614 239.988 72.663 239.988 72.0759V68.3558H241.031V71.9368C241.031 72.5626 241.189 73.0455 241.506 73.3854C241.822 73.7176 242.255 73.8837 242.804 73.8837C243.368 73.8837 243.812 73.7099 244.136 73.3622C244.461 73.0146 244.623 72.5085 244.623 71.8441V68.3558H245.678ZM253.253 71.2878C253.253 71.4887 253.241 71.7012 253.218 71.9252H248.142C248.181 72.551 248.393 73.0416 248.779 73.397C249.173 73.7447 249.649 73.9185 250.205 73.9185C250.661 73.9185 251.039 73.8142 251.341 73.6056C251.65 73.3893 251.866 73.1034 251.99 72.748H253.125C252.955 73.3584 252.615 73.8567 252.105 74.243C251.596 74.6216 250.962 74.8108 250.205 74.8108C249.602 74.8108 249.061 74.6756 248.582 74.4052C248.111 74.1348 247.74 73.7524 247.47 73.2579C247.199 72.7557 247.064 72.1763 247.064 71.5196C247.064 70.8629 247.196 70.2873 247.458 69.7929C247.721 69.2984 248.088 68.9198 248.559 68.6571C249.038 68.3867 249.587 68.2515 250.205 68.2515C250.807 68.2515 251.341 68.3829 251.804 68.6456C252.268 68.9082 252.623 69.2714 252.87 69.7349C253.125 70.1907 253.253 70.7084 253.253 71.2878ZM252.163 71.0676C252.163 70.6659 252.075 70.3221 251.897 70.0362C251.719 69.7426 251.476 69.5224 251.167 69.3757C250.865 69.2211 250.529 69.1439 250.159 69.1439C249.625 69.1439 249.17 69.3138 248.791 69.6538C248.42 69.9937 248.208 70.465 248.154 71.0676H252.163ZM256.893 74.8108C256.406 74.8108 255.97 74.7297 255.583 74.5675C255.197 74.3975 254.892 74.1657 254.668 73.8721C254.444 73.5708 254.32 73.227 254.297 72.8407H255.386C255.417 73.1575 255.564 73.4163 255.827 73.6172C256.097 73.8181 256.449 73.9185 256.881 73.9185C257.283 73.9185 257.6 73.8297 257.832 73.652C258.063 73.4743 258.179 73.2502 258.179 72.9798C258.179 72.7017 258.056 72.4969 257.809 72.3656C257.561 72.2265 257.179 72.0913 256.661 71.96C256.19 71.8364 255.804 71.7127 255.502 71.5891C255.209 71.4578 254.954 71.2685 254.737 71.0213C254.529 70.7663 254.425 70.4341 254.425 70.0246C254.425 69.7001 254.521 69.4027 254.714 69.1323C254.907 68.8619 255.182 68.6494 255.537 68.4949C255.893 68.3327 256.298 68.2515 256.754 68.2515C257.457 68.2515 258.025 68.4292 258.458 68.7846C258.89 69.14 259.122 69.6267 259.153 70.2448H258.098C258.075 69.9126 257.94 69.6461 257.693 69.4452C257.453 69.2443 257.129 69.1439 256.719 69.1439C256.341 69.1439 256.039 69.225 255.815 69.3872C255.591 69.5495 255.479 69.762 255.479 70.0246C255.479 70.2332 255.545 70.4071 255.676 70.5461C255.815 70.6775 255.985 70.7856 256.186 70.8706C256.395 70.9479 256.681 71.0367 257.044 71.1372C257.5 71.2608 257.87 71.3844 258.156 71.508C258.442 71.6239 258.685 71.8016 258.886 72.0411C259.095 72.2806 259.203 72.5935 259.211 72.9798C259.211 73.3275 259.114 73.6404 258.921 73.9185C258.728 74.1966 258.454 74.4168 258.098 74.5791C257.751 74.7336 257.349 74.8108 256.893 74.8108ZM261.986 69.225V72.9682C261.986 73.2772 262.052 73.4974 262.183 73.6288C262.314 73.7524 262.542 73.8142 262.867 73.8142H263.643V74.7065H262.693C262.106 74.7065 261.665 74.5713 261.372 74.3009C261.078 74.0305 260.931 73.5863 260.931 72.9682V69.225H260.108V68.3558H260.931V66.7566H261.986V68.3558H263.643V69.225H261.986Z" fill="#2E2C43"/>
<rect x="23" y="91.062" width="161.417" height="56.2889" fill="#FB8C00"/>
<rect x="184.417" y="93.545" width="159.761" height="52.9778" stroke="#FB8C00" stroke-width="3.31111"/>
<path d="M84.0691 122.028H80.9434L80.4798 123.445H77.3939L80.8242 114.068H84.2148L87.6318 123.445H84.5326L84.0691 122.028ZM83.3539 119.816L82.5062 117.207L81.6586 119.816H83.3539ZM87.9025 119.71C87.9025 118.933 88.0614 118.258 88.3793 117.684C88.706 117.101 89.1563 116.655 89.7302 116.346C90.313 116.037 90.9752 115.882 91.7169 115.882C92.6882 115.882 93.5049 116.156 94.1671 116.704C94.8382 117.251 95.262 118.01 95.4386 118.982H92.3262C92.2114 118.593 91.9862 118.399 91.6507 118.399C91.4123 118.399 91.2224 118.509 91.0812 118.73C90.9487 118.951 90.8825 119.277 90.8825 119.71C90.8825 120.143 90.9487 120.469 91.0812 120.69C91.2224 120.911 91.4123 121.021 91.6507 121.021C91.9862 121.021 92.2114 120.827 92.3262 120.439H95.4386C95.262 121.41 94.8382 122.169 94.1671 122.717C93.5049 123.264 92.6882 123.538 91.7169 123.538C90.9752 123.538 90.313 123.383 89.7302 123.074C89.1563 122.765 88.706 122.324 88.3793 121.75C88.0614 121.167 87.9025 120.487 87.9025 119.71ZM95.9733 119.71C95.9733 118.933 96.1323 118.258 96.4501 117.684C96.7768 117.101 97.2272 116.655 97.8011 116.346C98.3838 116.037 99.0461 115.882 99.7877 115.882C100.759 115.882 101.576 116.156 102.238 116.704C102.909 117.251 103.333 118.01 103.509 118.982H100.397C100.282 118.593 100.057 118.399 99.7215 118.399C99.4831 118.399 99.2933 118.509 99.152 118.73C99.0196 118.951 98.9533 119.277 98.9533 119.71C98.9533 120.143 99.0196 120.469 99.152 120.69C99.2933 120.911 99.4831 121.021 99.7215 121.021C100.057 121.021 100.282 120.827 100.397 120.439H103.509C103.333 121.41 102.909 122.169 102.238 122.717C101.576 123.264 100.759 123.538 99.7877 123.538C99.0461 123.538 98.3838 123.383 97.8011 123.074C97.2272 122.765 96.7768 122.324 96.4501 121.75C96.1323 121.167 95.9733 120.487 95.9733 119.71ZM111.673 119.644C111.673 119.847 111.66 120.041 111.633 120.227H106.905C106.949 120.871 107.218 121.194 107.713 121.194C108.031 121.194 108.26 121.048 108.402 120.756H111.514C111.408 121.286 111.183 121.763 110.839 122.187C110.503 122.602 110.075 122.933 109.554 123.18C109.042 123.419 108.477 123.538 107.859 123.538C107.117 123.538 106.455 123.383 105.872 123.074C105.298 122.765 104.848 122.324 104.521 121.75C104.203 121.167 104.044 120.487 104.044 119.71C104.044 118.933 104.203 118.258 104.521 117.684C104.848 117.101 105.298 116.655 105.872 116.346C106.455 116.037 107.117 115.882 107.859 115.882C108.6 115.882 109.258 116.037 109.832 116.346C110.415 116.646 110.865 117.079 111.183 117.644C111.51 118.209 111.673 118.876 111.673 119.644ZM108.693 118.942C108.693 118.695 108.614 118.509 108.455 118.386C108.296 118.253 108.097 118.187 107.859 118.187C107.338 118.187 107.033 118.439 106.945 118.942H108.693ZM115.543 116.995C115.729 116.651 115.993 116.381 116.338 116.187C116.691 115.984 117.11 115.882 117.596 115.882C118.179 115.882 118.704 116.037 119.172 116.346C119.64 116.646 120.007 117.088 120.271 117.67C120.545 118.244 120.682 118.924 120.682 119.71C120.682 120.496 120.545 121.18 120.271 121.763C120.007 122.337 119.64 122.778 119.172 123.087C118.704 123.388 118.179 123.538 117.596 123.538C117.11 123.538 116.691 123.441 116.338 123.246C115.993 123.043 115.729 122.77 115.543 122.425V127.021H112.603V115.975H115.543V116.995ZM117.702 119.71C117.702 119.313 117.6 119.004 117.397 118.783C117.194 118.562 116.934 118.452 116.616 118.452C116.298 118.452 116.038 118.562 115.835 118.783C115.631 119.004 115.53 119.313 115.53 119.71C115.53 120.107 115.631 120.417 115.835 120.637C116.038 120.858 116.298 120.968 116.616 120.968C116.934 120.968 117.194 120.858 117.397 120.637C117.6 120.417 117.702 120.107 117.702 119.71ZM126.254 120.942V123.445H125.141C123.093 123.445 122.069 122.425 122.069 120.386V118.425H121.141V115.975H122.069V114.174H125.009V115.975H126.227V118.425H125.009V120.439C125.009 120.615 125.049 120.743 125.128 120.823C125.216 120.902 125.358 120.942 125.552 120.942H126.254Z" fill="white"/>
<path d="M233.436 122.315H230.495L227.383 117.6V122.315H224.443V112.938H227.383L230.495 117.732V112.938H233.436V122.315ZM238.313 122.407C237.563 122.407 236.887 122.253 236.287 121.944C235.687 121.635 235.214 121.193 234.87 120.619C234.534 120.037 234.367 119.357 234.367 118.58C234.367 117.803 234.534 117.127 234.87 116.553C235.214 115.971 235.687 115.525 236.287 115.216C236.887 114.907 237.563 114.752 238.313 114.752C239.064 114.752 239.739 114.907 240.34 115.216C240.94 115.525 241.408 115.971 241.744 116.553C242.088 117.127 242.26 117.803 242.26 118.58C242.26 119.357 242.088 120.037 241.744 120.619C241.408 121.193 240.94 121.635 240.34 121.944C239.739 122.253 239.064 122.407 238.313 122.407ZM238.313 119.864C238.587 119.864 238.817 119.759 239.002 119.547C239.188 119.326 239.28 119.004 239.28 118.58C239.28 118.156 239.188 117.838 239.002 117.626C238.817 117.405 238.587 117.295 238.313 117.295C238.04 117.295 237.81 117.405 237.625 117.626C237.439 117.838 237.347 118.156 237.347 118.58C237.347 119.004 237.435 119.326 237.612 119.547C237.797 119.759 238.031 119.864 238.313 119.864ZM247.833 119.811V122.315H246.72C244.672 122.315 243.648 121.295 243.648 119.255V117.295H242.72V114.845H243.648V113.044H246.588V114.845H247.806V117.295H246.588V119.308C246.588 119.485 246.628 119.613 246.707 119.692C246.795 119.772 246.937 119.811 247.131 119.811H247.833ZM250.806 118.58C250.806 117.794 250.938 117.114 251.203 116.54C251.477 115.957 251.848 115.516 252.316 115.216C252.784 114.907 253.309 114.752 253.892 114.752C254.377 114.752 254.797 114.854 255.15 115.057C255.503 115.251 255.772 115.52 255.958 115.865V114.845H258.885V122.315H255.958V121.295C255.772 121.639 255.503 121.913 255.15 122.116C254.797 122.31 254.377 122.407 253.892 122.407C253.309 122.407 252.784 122.257 252.316 121.957C251.848 121.648 251.477 121.207 251.203 120.633C250.938 120.05 250.806 119.366 250.806 118.58ZM255.958 118.58C255.958 118.182 255.856 117.873 255.653 117.653C255.45 117.432 255.19 117.322 254.872 117.322C254.554 117.322 254.293 117.432 254.09 117.653C253.887 117.873 253.786 118.182 253.786 118.58C253.786 118.977 253.887 119.286 254.09 119.507C254.293 119.728 254.554 119.838 254.872 119.838C255.19 119.838 255.45 119.728 255.653 119.507C255.856 119.286 255.958 118.977 255.958 118.58ZM263.993 119.52L265.185 114.845H268.311L265.821 122.315H262.152L259.662 114.845H262.788L263.993 119.52ZM268.694 118.58C268.694 117.794 268.826 117.114 269.091 116.54C269.365 115.957 269.735 115.516 270.203 115.216C270.671 114.907 271.197 114.752 271.78 114.752C272.265 114.752 272.685 114.854 273.038 115.057C273.391 115.251 273.66 115.52 273.846 115.865V114.845H276.773V122.315H273.846V121.295C273.66 121.639 273.391 121.913 273.038 122.116C272.685 122.31 272.265 122.407 271.78 122.407C271.197 122.407 270.671 122.257 270.203 121.957C269.735 121.648 269.365 121.207 269.091 120.633C268.826 120.05 268.694 119.366 268.694 118.58ZM273.846 118.58C273.846 118.182 273.744 117.873 273.541 117.653C273.338 117.432 273.077 117.322 272.76 117.322C272.442 117.322 272.181 117.432 271.978 117.653C271.775 117.873 271.674 118.182 271.674 118.58C271.674 118.977 271.775 119.286 271.978 119.507C272.181 119.728 272.442 119.838 272.76 119.838C273.077 119.838 273.338 119.728 273.541 119.507C273.744 119.286 273.846 118.977 273.846 118.58ZM279.576 114.249C279.064 114.249 278.654 114.112 278.345 113.838C278.036 113.565 277.881 113.22 277.881 112.805C277.881 112.381 278.036 112.033 278.345 111.759C278.654 111.476 279.064 111.335 279.576 111.335C280.08 111.335 280.486 111.476 280.795 111.759C281.104 112.033 281.258 112.381 281.258 112.805C281.258 113.22 281.104 113.565 280.795 113.838C280.486 114.112 280.08 114.249 279.576 114.249ZM281.033 114.845V122.315H278.093V114.845H281.033ZM285.301 112.514V122.315H282.361V112.514H285.301ZM286.232 118.58C286.232 117.794 286.365 117.114 286.629 116.54C286.903 115.957 287.274 115.516 287.742 115.216C288.21 114.907 288.735 114.752 289.318 114.752C289.804 114.752 290.223 114.854 290.576 115.057C290.929 115.251 291.199 115.52 291.384 115.865V114.845H294.311V122.315H291.384V121.295C291.199 121.639 290.929 121.913 290.576 122.116C290.223 122.31 289.804 122.407 289.318 122.407C288.735 122.407 288.21 122.257 287.742 121.957C287.274 121.648 286.903 121.207 286.629 120.633C286.365 120.05 286.232 119.366 286.232 118.58ZM291.384 118.58C291.384 118.182 291.283 117.873 291.08 117.653C290.876 117.432 290.616 117.322 290.298 117.322C289.98 117.322 289.72 117.432 289.517 117.653C289.314 117.873 289.212 118.182 289.212 118.58C289.212 118.977 289.314 119.286 289.517 119.507C289.72 119.728 289.98 119.838 290.298 119.838C290.616 119.838 290.876 119.728 291.08 119.507C291.283 119.286 291.384 118.977 291.384 118.58ZM298.572 115.865C298.757 115.52 299.022 115.251 299.366 115.057C299.72 114.854 300.139 114.752 300.625 114.752C301.207 114.752 301.733 114.907 302.201 115.216C302.669 115.516 303.035 115.957 303.3 116.54C303.574 117.114 303.711 117.794 303.711 118.58C303.711 119.366 303.574 120.05 303.3 120.633C303.035 121.207 302.669 121.648 302.201 121.957C301.733 122.257 301.207 122.407 300.625 122.407C300.139 122.407 299.72 122.31 299.366 122.116C299.022 121.913 298.757 121.639 298.572 121.295V122.315H295.632V112.514H298.572V115.865ZM300.731 118.58C300.731 118.182 300.629 117.873 300.426 117.653C300.223 117.432 299.962 117.322 299.645 117.322C299.327 117.322 299.066 117.432 298.863 117.653C298.66 117.873 298.559 118.182 298.559 118.58C298.559 118.977 298.66 119.286 298.863 119.507C299.066 119.728 299.327 119.838 299.645 119.838C299.962 119.838 300.223 119.728 300.426 119.507C300.629 119.286 300.731 118.977 300.731 118.58ZM307.574 112.514V122.315H304.634V112.514H307.574ZM316.133 118.514C316.133 118.717 316.12 118.911 316.094 119.096H311.365C311.409 119.741 311.679 120.063 312.173 120.063C312.491 120.063 312.721 119.917 312.862 119.626H315.974C315.868 120.156 315.643 120.633 315.299 121.056C314.963 121.471 314.535 121.803 314.014 122.05C313.502 122.288 312.937 122.407 312.319 122.407C311.577 122.407 310.915 122.253 310.332 121.944C309.758 121.635 309.308 121.193 308.981 120.619C308.663 120.037 308.504 119.357 308.504 118.58C308.504 117.803 308.663 117.127 308.981 116.553C309.308 115.971 309.758 115.525 310.332 115.216C310.915 114.907 311.577 114.752 312.319 114.752C313.061 114.752 313.718 114.907 314.292 115.216C314.875 115.516 315.325 115.949 315.643 116.514C315.97 117.079 316.133 117.745 316.133 118.514ZM313.153 117.812C313.153 117.564 313.074 117.379 312.915 117.255C312.756 117.123 312.557 117.057 312.319 117.057C311.798 117.057 311.493 117.308 311.405 117.812H313.153Z" fill="#FB8C00"/>
</g>
<defs>
<filter id="filter0_d_1790_128" x="-40.8125" y="-68.469" width="430.639" height="308.322" filterUnits="userSpaceOnUse" color-interpolation-filters="sRGB">
<feFlood flood-opacity="0" result="BackgroundImageFix"/>
<feColorMatrix in="SourceAlpha" type="matrix" values="0 0 0 0 0 0 0 0 0 0 0 0 0 0 0 0 0 0 127 0" result="hardAlpha"/>
<feOffset dx="8.27778" dy="8.27778"/>
<feGaussianBlur stdDeviation="41.3889"/>
<feComposite in2="hardAlpha" operator="out"/>
<feColorMatrix type="matrix" values="0 0 0 0 0.741667 0 0 0 0 0.741667 0 0 0 0 0.741667 0 0 0 0.35 0"/>
<feBlend mode="normal" in2="BackgroundImageFix" result="effect1_dropShadow_1790_128"/>
<feBlend mode="normal" in="SourceGraphic" in2="effect1_dropShadow_1790_128" result="shape"/>
</filter>
<clipPath id="clip0_1790_128">
<rect width="371" height="153" fill="white"/>
</clipPath>
</defs>
</svg>
