<svg width="389" height="309" viewBox="0 0 389 309" fill="none" xmlns="http://www.w3.org/2000/svg">
<g filter="url(#filter0_d_1011_2295)">
<path d="M295.585 80.5081H30.6602C25.1648 80.5081 20.71 83.6215 20.71 87.4622V203.943C20.71 207.784 25.1648 210.897 30.6602 210.897H295.585C301.08 210.897 305.535 207.784 305.535 203.943V87.4622C305.535 83.6215 301.08 80.5081 295.585 80.5081Z" fill="white"/>
</g>
<rect x="11" y="75" width="365" height="136.082" rx="21.3462" fill="white"/>
<path d="M87.7537 117.488H84.161L83.4992 119.32H82.3646L85.3428 111.13H86.5837L89.5501 119.32H88.4155L87.7537 117.488ZM87.4464 116.614L85.9573 112.454L84.4682 116.614H87.4464ZM91.9235 113.896C92.1126 113.525 92.3805 113.238 92.7271 113.033C93.0817 112.828 93.5111 112.726 94.0153 112.726V113.837H93.7317C92.5262 113.837 91.9235 114.491 91.9235 115.798V119.32H90.848V112.844H91.9235V113.896ZM101.166 115.834C101.166 116.039 101.154 116.255 101.13 116.484H95.954C95.9934 117.122 96.2101 117.622 96.604 117.985C97.0059 118.339 97.4904 118.517 98.0577 118.517C98.5225 118.517 98.9086 118.41 99.2159 118.198C99.531 117.977 99.7516 117.685 99.8777 117.323H101.036C100.863 117.945 100.516 118.454 99.9959 118.848C99.4759 119.234 98.8298 119.427 98.0577 119.427C97.4431 119.427 96.8916 119.289 96.4031 119.013C95.9225 118.737 95.5443 118.347 95.2686 117.843C94.9928 117.331 94.855 116.74 94.855 116.07C94.855 115.401 94.9889 114.814 95.2568 114.309C95.5246 113.805 95.8989 113.419 96.3795 113.151C96.868 112.875 97.4274 112.738 98.0577 112.738C98.6722 112.738 99.2159 112.872 99.6886 113.139C100.161 113.407 100.524 113.778 100.776 114.25C101.036 114.715 101.166 115.243 101.166 115.834ZM100.055 115.609C100.055 115.2 99.9643 114.849 99.7831 114.558C99.6019 114.258 99.3537 114.034 99.0386 113.884C98.7313 113.726 98.3886 113.648 98.0104 113.648C97.4668 113.648 97.0019 113.821 96.6159 114.168C96.2377 114.514 96.021 114.995 95.9659 115.609H100.055ZM111.314 112.844L107.414 122.369H106.303L107.58 119.249L104.968 112.844H106.162L108.194 118.091L110.203 112.844H111.314ZM115.22 119.427C114.613 119.427 114.062 119.289 113.565 119.013C113.077 118.737 112.691 118.347 112.407 117.843C112.131 117.331 111.994 116.74 111.994 116.07C111.994 115.408 112.135 114.825 112.419 114.321C112.711 113.809 113.105 113.419 113.601 113.151C114.097 112.875 114.653 112.738 115.267 112.738C115.882 112.738 116.437 112.875 116.934 113.151C117.43 113.419 117.82 113.805 118.104 114.309C118.395 114.814 118.541 115.401 118.541 116.07C118.541 116.74 118.391 117.331 118.092 117.843C117.8 118.347 117.402 118.737 116.898 119.013C116.394 119.289 115.835 119.427 115.22 119.427ZM115.22 118.481C115.606 118.481 115.968 118.391 116.307 118.209C116.646 118.028 116.918 117.756 117.123 117.394C117.335 117.032 117.442 116.59 117.442 116.07C117.442 115.55 117.339 115.109 117.135 114.747C116.93 114.384 116.662 114.116 116.331 113.943C116 113.762 115.642 113.671 115.255 113.671C114.862 113.671 114.499 113.762 114.168 113.943C113.845 114.116 113.585 114.384 113.388 114.747C113.191 115.109 113.093 115.55 113.093 116.07C113.093 116.598 113.187 117.043 113.376 117.406C113.573 117.768 113.833 118.04 114.156 118.221C114.479 118.395 114.834 118.481 115.22 118.481ZM125.699 112.844V119.32H124.623V118.363C124.418 118.694 124.131 118.954 123.76 119.143C123.398 119.324 122.996 119.415 122.555 119.415C122.051 119.415 121.598 119.312 121.196 119.108C120.794 118.895 120.475 118.58 120.239 118.162C120.01 117.745 119.896 117.236 119.896 116.638V112.844H120.959V116.496C120.959 117.134 121.121 117.626 121.444 117.973C121.767 118.312 122.208 118.481 122.768 118.481C123.343 118.481 123.796 118.304 124.127 117.949C124.458 117.595 124.623 117.079 124.623 116.401V112.844H125.699ZM130.263 116.058C130.263 115.397 130.397 114.818 130.665 114.321C130.933 113.817 131.299 113.427 131.764 113.151C132.237 112.875 132.761 112.738 133.336 112.738C133.903 112.738 134.396 112.86 134.813 113.104C135.231 113.348 135.542 113.655 135.747 114.026V112.844H136.834V119.32H135.747V118.115C135.534 118.493 135.215 118.808 134.79 119.06C134.372 119.305 133.884 119.427 133.324 119.427C132.749 119.427 132.229 119.285 131.764 119.001C131.299 118.718 130.933 118.32 130.665 117.808C130.397 117.295 130.263 116.712 130.263 116.058ZM135.747 116.07C135.747 115.582 135.648 115.156 135.452 114.794C135.255 114.432 134.987 114.156 134.648 113.967C134.317 113.77 133.951 113.671 133.549 113.671C133.147 113.671 132.781 113.766 132.45 113.955C132.119 114.144 131.855 114.42 131.658 114.782C131.461 115.145 131.362 115.57 131.362 116.058C131.362 116.555 131.461 116.988 131.658 117.358C131.855 117.721 132.119 118.001 132.45 118.198C132.781 118.387 133.147 118.481 133.549 118.481C133.951 118.481 134.317 118.387 134.648 118.198C134.987 118.001 135.255 117.721 135.452 117.358C135.648 116.988 135.747 116.559 135.747 116.07ZM138.25 116.07C138.25 115.401 138.384 114.818 138.652 114.321C138.92 113.817 139.29 113.427 139.763 113.151C140.243 112.875 140.791 112.738 141.405 112.738C142.201 112.738 142.855 112.931 143.367 113.317C143.887 113.703 144.23 114.238 144.395 114.924H143.237C143.127 114.53 142.91 114.219 142.587 113.99C142.272 113.762 141.878 113.648 141.405 113.648C140.791 113.648 140.294 113.86 139.916 114.286C139.538 114.703 139.349 115.298 139.349 116.07C139.349 116.85 139.538 117.453 139.916 117.878C140.294 118.304 140.791 118.517 141.405 118.517C141.878 118.517 142.272 118.406 142.587 118.186C142.902 117.965 143.119 117.65 143.237 117.24H144.395C144.222 117.902 143.875 118.434 143.355 118.836C142.835 119.23 142.185 119.427 141.405 119.427C140.791 119.427 140.243 119.289 139.763 119.013C139.29 118.737 138.92 118.347 138.652 117.843C138.384 117.339 138.25 116.748 138.25 116.07ZM145.428 116.07C145.428 115.401 145.562 114.818 145.83 114.321C146.098 113.817 146.468 113.427 146.941 113.151C147.422 112.875 147.969 112.738 148.584 112.738C149.38 112.738 150.034 112.931 150.546 113.317C151.066 113.703 151.408 114.238 151.574 114.924H150.416C150.305 114.53 150.089 114.219 149.766 113.99C149.451 113.762 149.057 113.648 148.584 113.648C147.969 113.648 147.473 113.86 147.095 114.286C146.717 114.703 146.528 115.298 146.528 116.07C146.528 116.85 146.717 117.453 147.095 117.878C147.473 118.304 147.969 118.517 148.584 118.517C149.057 118.517 149.451 118.406 149.766 118.186C150.081 117.965 150.298 117.65 150.416 117.24H151.574C151.401 117.902 151.054 118.434 150.534 118.836C150.014 119.23 149.364 119.427 148.584 119.427C147.969 119.427 147.422 119.289 146.941 119.013C146.468 118.737 146.098 118.347 145.83 117.843C145.562 117.339 145.428 116.748 145.428 116.07ZM158.918 115.834C158.918 116.039 158.906 116.255 158.883 116.484H153.706C153.746 117.122 153.962 117.622 154.356 117.985C154.758 118.339 155.243 118.517 155.81 118.517C156.275 118.517 156.661 118.41 156.968 118.198C157.283 117.977 157.504 117.685 157.63 117.323H158.788C158.615 117.945 158.268 118.454 157.748 118.848C157.228 119.234 156.582 119.427 155.81 119.427C155.195 119.427 154.644 119.289 154.155 119.013C153.675 118.737 153.296 118.347 153.021 117.843C152.745 117.331 152.607 116.74 152.607 116.07C152.607 115.401 152.741 114.814 153.009 114.309C153.277 113.805 153.651 113.419 154.132 113.151C154.62 112.875 155.18 112.738 155.81 112.738C156.424 112.738 156.968 112.872 157.441 113.139C157.913 113.407 158.276 113.778 158.528 114.25C158.788 114.715 158.918 115.243 158.918 115.834ZM157.807 115.609C157.807 115.2 157.716 114.849 157.535 114.558C157.354 114.258 157.106 114.034 156.791 113.884C156.483 113.726 156.141 113.648 155.763 113.648C155.219 113.648 154.754 113.821 154.368 114.168C153.99 114.514 153.773 114.995 153.718 115.609H157.807ZM161.413 114.038C161.626 113.667 161.941 113.36 162.358 113.116C162.784 112.864 163.276 112.738 163.836 112.738C164.411 112.738 164.931 112.875 165.396 113.151C165.868 113.427 166.239 113.817 166.507 114.321C166.775 114.818 166.908 115.397 166.908 116.058C166.908 116.712 166.775 117.295 166.507 117.808C166.239 118.32 165.868 118.718 165.396 119.001C164.931 119.285 164.411 119.427 163.836 119.427C163.284 119.427 162.796 119.305 162.37 119.06C161.953 118.808 161.634 118.497 161.413 118.127V122.393H160.338V112.844H161.413V114.038ZM165.809 116.058C165.809 115.57 165.711 115.145 165.514 114.782C165.317 114.42 165.049 114.144 164.71 113.955C164.379 113.766 164.013 113.671 163.611 113.671C163.217 113.671 162.851 113.77 162.512 113.967C162.181 114.156 161.913 114.435 161.708 114.806C161.511 115.168 161.413 115.59 161.413 116.07C161.413 116.559 161.511 116.988 161.708 117.358C161.913 117.721 162.181 118.001 162.512 118.198C162.851 118.387 163.217 118.481 163.611 118.481C164.013 118.481 164.379 118.387 164.71 118.198C165.049 118.001 165.317 117.721 165.514 117.358C165.711 116.988 165.809 116.555 165.809 116.058ZM169.636 113.73V117.548C169.636 117.863 169.703 118.087 169.837 118.221C169.971 118.347 170.203 118.41 170.534 118.41H171.326V119.32H170.357C169.758 119.32 169.309 119.182 169.01 118.907C168.71 118.631 168.56 118.178 168.56 117.548V113.73H167.721V112.844H168.56V111.213H169.636V112.844H171.326V113.73H169.636ZM173.184 111.792C172.98 111.792 172.806 111.721 172.664 111.579C172.523 111.438 172.452 111.264 172.452 111.059C172.452 110.855 172.523 110.681 172.664 110.539C172.806 110.398 172.98 110.327 173.184 110.327C173.381 110.327 173.547 110.398 173.681 110.539C173.823 110.681 173.893 110.855 173.893 111.059C173.893 111.264 173.823 111.438 173.681 111.579C173.547 111.721 173.381 111.792 173.184 111.792ZM173.704 112.844V119.32H172.629V112.844H173.704ZM178.693 112.726C179.481 112.726 180.119 112.966 180.607 113.447C181.096 113.919 181.34 114.605 181.34 115.503V119.32H180.276V115.657C180.276 115.011 180.115 114.518 179.792 114.179C179.469 113.833 179.028 113.659 178.468 113.659C177.901 113.659 177.448 113.837 177.109 114.191C176.778 114.546 176.613 115.062 176.613 115.739V119.32H175.537V112.844H176.613V113.766C176.825 113.435 177.113 113.179 177.475 112.998C177.846 112.816 178.252 112.726 178.693 112.726ZM185.768 112.738C186.327 112.738 186.816 112.86 187.233 113.104C187.659 113.348 187.974 113.655 188.179 114.026V112.844H189.266V119.462C189.266 120.053 189.14 120.577 188.888 121.034C188.636 121.499 188.273 121.861 187.8 122.121C187.336 122.381 186.792 122.511 186.17 122.511C185.319 122.511 184.61 122.31 184.042 121.908C183.475 121.507 183.14 120.959 183.038 120.266H184.101C184.22 120.66 184.464 120.975 184.834 121.211C185.204 121.455 185.65 121.578 186.17 121.578C186.76 121.578 187.241 121.392 187.611 121.022C187.99 120.652 188.179 120.132 188.179 119.462V118.103C187.966 118.481 187.651 118.796 187.233 119.048C186.816 119.301 186.327 119.427 185.768 119.427C185.193 119.427 184.669 119.285 184.196 119.001C183.731 118.718 183.365 118.32 183.097 117.808C182.829 117.295 182.695 116.712 182.695 116.058C182.695 115.397 182.829 114.818 183.097 114.321C183.365 113.817 183.731 113.427 184.196 113.151C184.669 112.875 185.193 112.738 185.768 112.738ZM188.179 116.07C188.179 115.582 188.08 115.156 187.883 114.794C187.686 114.432 187.418 114.156 187.08 113.967C186.749 113.77 186.382 113.671 185.98 113.671C185.579 113.671 185.212 113.766 184.881 113.955C184.55 114.144 184.286 114.42 184.09 114.782C183.893 115.145 183.794 115.57 183.794 116.058C183.794 116.555 183.893 116.988 184.09 117.358C184.286 117.721 184.55 118.001 184.881 118.198C185.212 118.387 185.579 118.481 185.98 118.481C186.382 118.481 186.749 118.387 187.08 118.198C187.418 118.001 187.686 117.721 187.883 117.358C188.08 116.988 188.179 116.559 188.179 116.07ZM195.546 113.73V117.548C195.546 117.863 195.613 118.087 195.747 118.221C195.881 118.347 196.113 118.41 196.444 118.41H197.236V119.32H196.267C195.668 119.32 195.219 119.182 194.919 118.907C194.62 118.631 194.47 118.178 194.47 117.548V113.73H193.631V112.844H194.47V111.213H195.546V112.844H197.236V113.73H195.546ZM201.753 112.726C202.242 112.726 202.683 112.832 203.077 113.045C203.471 113.25 203.778 113.561 203.999 113.978C204.227 114.396 204.342 114.904 204.342 115.503V119.32H203.278V115.657C203.278 115.011 203.116 114.518 202.793 114.179C202.47 113.833 202.029 113.659 201.47 113.659C200.903 113.659 200.45 113.837 200.111 114.191C199.78 114.546 199.614 115.062 199.614 115.739V119.32H198.539V110.575H199.614V113.766C199.827 113.435 200.119 113.179 200.489 112.998C200.867 112.816 201.289 112.726 201.753 112.726ZM212.007 115.834C212.007 116.039 211.996 116.255 211.972 116.484H206.796C206.835 117.122 207.052 117.622 207.446 117.985C207.847 118.339 208.332 118.517 208.899 118.517C209.364 118.517 209.75 118.41 210.057 118.198C210.373 117.977 210.593 117.685 210.719 117.323H211.877C211.704 117.945 211.357 118.454 210.837 118.848C210.317 119.234 209.671 119.427 208.899 119.427C208.285 119.427 207.733 119.289 207.245 119.013C206.764 118.737 206.386 118.347 206.11 117.843C205.834 117.331 205.697 116.74 205.697 116.07C205.697 115.401 205.831 114.814 206.098 114.309C206.366 113.805 206.741 113.419 207.221 113.151C207.71 112.875 208.269 112.738 208.899 112.738C209.514 112.738 210.057 112.872 210.53 113.139C211.003 113.407 211.365 113.778 211.617 114.25C211.877 114.715 212.007 115.243 212.007 115.834ZM210.897 115.609C210.897 115.2 210.806 114.849 210.625 114.558C210.444 114.258 210.195 114.034 209.88 113.884C209.573 113.726 209.23 113.648 208.852 113.648C208.308 113.648 207.844 113.821 207.457 114.168C207.079 114.514 206.863 114.995 206.807 115.609H210.897ZM216.176 116.07C216.176 115.401 216.31 114.818 216.578 114.321C216.846 113.817 217.216 113.427 217.689 113.151C218.169 112.875 218.717 112.738 219.331 112.738C220.127 112.738 220.781 112.931 221.293 113.317C221.813 113.703 222.156 114.238 222.321 114.924H221.163C221.053 114.53 220.836 114.219 220.513 113.99C220.198 113.762 219.804 113.648 219.331 113.648C218.717 113.648 218.221 113.86 217.842 114.286C217.464 114.703 217.275 115.298 217.275 116.07C217.275 116.85 217.464 117.453 217.842 117.878C218.221 118.304 218.717 118.517 219.331 118.517C219.804 118.517 220.198 118.406 220.513 118.186C220.828 117.965 221.045 117.65 221.163 117.24H222.321C222.148 117.902 221.801 118.434 221.281 118.836C220.761 119.23 220.111 119.427 219.331 119.427C218.717 119.427 218.169 119.289 217.689 119.013C217.216 118.737 216.846 118.347 216.578 117.843C216.31 117.339 216.176 116.748 216.176 116.07ZM229.5 112.844V119.32H228.425V118.363C228.22 118.694 227.932 118.954 227.562 119.143C227.199 119.324 226.798 119.415 226.356 119.415C225.852 119.415 225.399 119.312 224.997 119.108C224.596 118.895 224.276 118.58 224.04 118.162C223.812 117.745 223.697 117.236 223.697 116.638V112.844H224.761V116.496C224.761 117.134 224.922 117.626 225.246 117.973C225.569 118.312 226.01 118.481 226.569 118.481C227.144 118.481 227.597 118.304 227.928 117.949C228.259 117.595 228.425 117.079 228.425 116.401V112.844H229.5ZM233.609 119.427C233.112 119.427 232.667 119.344 232.273 119.178C231.879 119.005 231.568 118.769 231.34 118.469C231.111 118.162 230.985 117.812 230.961 117.418H232.072C232.104 117.741 232.253 118.005 232.521 118.209C232.797 118.414 233.156 118.517 233.597 118.517C234.007 118.517 234.33 118.426 234.566 118.245C234.802 118.064 234.92 117.835 234.92 117.559C234.92 117.276 234.794 117.067 234.542 116.933C234.29 116.791 233.9 116.653 233.372 116.519C232.892 116.393 232.498 116.267 232.19 116.141C231.891 116.007 231.631 115.814 231.41 115.562C231.198 115.302 231.091 114.963 231.091 114.546C231.091 114.215 231.19 113.912 231.387 113.636C231.584 113.36 231.863 113.143 232.226 112.986C232.588 112.82 233.002 112.738 233.467 112.738C234.184 112.738 234.763 112.919 235.204 113.281C235.645 113.644 235.882 114.14 235.913 114.77H234.838C234.814 114.432 234.676 114.16 234.424 113.955C234.18 113.75 233.849 113.648 233.431 113.648C233.045 113.648 232.738 113.73 232.51 113.896C232.281 114.061 232.167 114.278 232.167 114.546C232.167 114.758 232.234 114.936 232.368 115.078C232.51 115.212 232.683 115.322 232.888 115.408C233.1 115.487 233.392 115.578 233.762 115.68C234.227 115.806 234.605 115.932 234.897 116.058C235.188 116.177 235.437 116.358 235.641 116.602C235.854 116.846 235.964 117.165 235.972 117.559C235.972 117.914 235.874 118.233 235.677 118.517C235.48 118.8 235.2 119.025 234.838 119.19C234.483 119.348 234.073 119.427 233.609 119.427ZM238.802 113.73V117.548C238.802 117.863 238.869 118.087 239.003 118.221C239.137 118.347 239.37 118.41 239.7 118.41H240.492V119.32H239.523C238.924 119.32 238.475 119.182 238.176 118.907C237.876 118.631 237.727 118.178 237.727 117.548V113.73H236.888V112.844H237.727V111.213H238.802V112.844H240.492V113.73H238.802ZM244.62 119.427C244.013 119.427 243.462 119.289 242.965 119.013C242.477 118.737 242.091 118.347 241.807 117.843C241.531 117.331 241.393 116.74 241.393 116.07C241.393 115.408 241.535 114.825 241.819 114.321C242.11 113.809 242.504 113.419 243.001 113.151C243.497 112.875 244.053 112.738 244.667 112.738C245.282 112.738 245.837 112.875 246.333 113.151C246.83 113.419 247.22 113.805 247.503 114.309C247.795 114.814 247.941 115.401 247.941 116.07C247.941 116.74 247.791 117.331 247.492 117.843C247.2 118.347 246.802 118.737 246.298 119.013C245.794 119.289 245.234 119.427 244.62 119.427ZM244.62 118.481C245.006 118.481 245.368 118.391 245.707 118.209C246.046 118.028 246.318 117.756 246.523 117.394C246.735 117.032 246.842 116.59 246.842 116.07C246.842 115.55 246.739 115.109 246.534 114.747C246.33 114.384 246.062 114.116 245.731 113.943C245.4 113.762 245.041 113.671 244.655 113.671C244.261 113.671 243.899 113.762 243.568 113.943C243.245 114.116 242.985 114.384 242.788 114.747C242.591 115.109 242.493 115.55 242.493 116.07C242.493 116.598 242.587 117.043 242.776 117.406C242.973 117.768 243.233 118.04 243.556 118.221C243.879 118.395 244.234 118.481 244.62 118.481ZM257.143 112.726C257.647 112.726 258.096 112.832 258.49 113.045C258.884 113.25 259.195 113.561 259.424 113.978C259.652 114.396 259.767 114.904 259.767 115.503V119.32H258.703V115.657C258.703 115.011 258.541 114.518 258.218 114.179C257.903 113.833 257.474 113.659 256.93 113.659C256.371 113.659 255.926 113.841 255.595 114.203C255.264 114.558 255.098 115.074 255.098 115.751V119.32H254.035V115.657C254.035 115.011 253.873 114.518 253.55 114.179C253.235 113.833 252.806 113.659 252.262 113.659C251.703 113.659 251.258 113.841 250.927 114.203C250.596 114.558 250.43 115.074 250.43 115.751V119.32H249.355V112.844H250.43V113.778C250.643 113.439 250.927 113.179 251.281 112.998C251.644 112.816 252.041 112.726 252.475 112.726C253.018 112.726 253.499 112.848 253.917 113.092C254.334 113.336 254.645 113.695 254.85 114.168C255.031 113.711 255.331 113.356 255.748 113.104C256.166 112.852 256.631 112.726 257.143 112.726ZM267.44 115.834C267.44 116.039 267.428 116.255 267.404 116.484H262.228C262.267 117.122 262.484 117.622 262.878 117.985C263.28 118.339 263.764 118.517 264.332 118.517C264.797 118.517 265.183 118.41 265.49 118.198C265.805 117.977 266.026 117.685 266.152 117.323H267.31C267.137 117.945 266.79 118.454 266.27 118.848C265.75 119.234 265.104 119.427 264.332 119.427C263.717 119.427 263.166 119.289 262.677 119.013C262.197 118.737 261.818 118.347 261.543 117.843C261.267 117.331 261.129 116.74 261.129 116.07C261.129 115.401 261.263 114.814 261.531 114.309C261.799 113.805 262.173 113.419 262.653 113.151C263.142 112.875 263.701 112.738 264.332 112.738C264.946 112.738 265.49 112.872 265.963 113.139C266.435 113.407 266.798 113.778 267.05 114.25C267.31 114.715 267.44 115.243 267.44 115.834ZM266.329 115.609C266.329 115.2 266.238 114.849 266.057 114.558C265.876 114.258 265.628 114.034 265.313 113.884C265.005 113.726 264.663 113.648 264.284 113.648C263.741 113.648 263.276 113.821 262.89 114.168C262.512 114.514 262.295 114.995 262.24 115.609H266.329ZM269.935 113.896C270.124 113.525 270.392 113.238 270.738 113.033C271.093 112.828 271.522 112.726 272.027 112.726V113.837H271.743C270.538 113.837 269.935 114.491 269.935 115.798V119.32H268.859V112.844H269.935V113.896ZM279.243 119.427C278.637 119.427 278.085 119.289 277.589 119.013C277.1 118.737 276.714 118.347 276.431 117.843C276.155 117.331 276.017 116.74 276.017 116.07C276.017 115.408 276.159 114.825 276.443 114.321C276.734 113.809 277.128 113.419 277.624 113.151C278.121 112.875 278.676 112.738 279.291 112.738C279.905 112.738 280.461 112.875 280.957 113.151C281.453 113.419 281.843 113.805 282.127 114.309C282.419 114.814 282.564 115.401 282.564 116.07C282.564 116.74 282.415 117.331 282.115 117.843C281.824 118.347 281.426 118.737 280.922 119.013C280.417 119.289 279.858 119.427 279.243 119.427ZM279.243 118.481C279.629 118.481 279.992 118.391 280.331 118.209C280.669 118.028 280.941 117.756 281.146 117.394C281.359 117.032 281.465 116.59 281.465 116.07C281.465 115.55 281.363 115.109 281.158 114.747C280.953 114.384 280.685 114.116 280.354 113.943C280.023 113.762 279.665 113.671 279.279 113.671C278.885 113.671 278.523 113.762 278.192 113.943C277.869 114.116 277.609 114.384 277.412 114.747C277.215 115.109 277.116 115.55 277.116 116.07C277.116 116.598 277.211 117.043 277.4 117.406C277.597 117.768 277.857 118.04 278.18 118.221C278.503 118.395 278.857 118.481 279.243 118.481ZM286.614 113.73H285.255V119.32H284.179V113.73H283.34V112.844H284.179V112.383C284.179 111.658 284.364 111.13 284.735 110.799C285.113 110.461 285.716 110.291 286.543 110.291V111.189C286.07 111.189 285.735 111.284 285.538 111.473C285.349 111.654 285.255 111.958 285.255 112.383V112.844H286.614V113.73ZM290.503 113.73H289.144V119.32H288.069V113.73H287.23V112.844H288.069V112.383C288.069 111.658 288.254 111.13 288.624 110.799C289.002 110.461 289.605 110.291 290.432 110.291V111.189C289.96 111.189 289.625 111.284 289.428 111.473C289.239 111.654 289.144 111.958 289.144 112.383V112.844H290.503V113.73ZM297.666 115.834C297.666 116.039 297.654 116.255 297.631 116.484H292.454C292.494 117.122 292.71 117.622 293.104 117.985C293.506 118.339 293.991 118.517 294.558 118.517C295.023 118.517 295.409 118.41 295.716 118.198C296.031 117.977 296.252 117.685 296.378 117.323H297.536C297.363 117.945 297.016 118.454 296.496 118.848C295.976 119.234 295.33 119.427 294.558 119.427C293.943 119.427 293.392 119.289 292.903 119.013C292.423 118.737 292.045 118.347 291.769 117.843C291.493 117.331 291.355 116.74 291.355 116.07C291.355 115.401 291.489 114.814 291.757 114.309C292.025 113.805 292.399 113.419 292.88 113.151C293.368 112.875 293.928 112.738 294.558 112.738C295.173 112.738 295.716 112.872 296.189 113.139C296.662 113.407 297.024 113.778 297.276 114.25C297.536 114.715 297.666 115.243 297.666 115.834ZM296.555 115.609C296.555 115.2 296.465 114.849 296.283 114.558C296.102 114.258 295.854 114.034 295.539 113.884C295.232 113.726 294.889 113.648 294.511 113.648C293.967 113.648 293.502 113.821 293.116 114.168C292.738 114.514 292.521 114.995 292.466 115.609H296.555ZM300.161 113.896C300.35 113.525 300.618 113.238 300.965 113.033C301.319 112.828 301.749 112.726 302.253 112.726V113.837H301.969C300.764 113.837 300.161 114.491 300.161 115.798V119.32H299.086V112.844H300.161V113.896ZM308.749 110.977C309.529 110.977 310.159 111.197 310.64 111.638C311.12 112.08 311.361 112.671 311.361 113.411C311.361 114.238 311.105 114.853 310.593 115.255C310.08 115.649 309.387 115.846 308.513 115.846L308.477 116.968H307.543L307.496 115.101H307.839C308.619 115.101 309.23 114.983 309.671 114.747C310.112 114.51 310.333 114.065 310.333 113.411C310.333 112.938 310.191 112.564 309.907 112.288C309.623 112.013 309.241 111.875 308.761 111.875C308.272 111.875 307.886 112.009 307.603 112.277C307.327 112.537 307.189 112.895 307.189 113.352H306.173C306.173 112.879 306.279 112.466 306.492 112.111C306.704 111.749 307.004 111.469 307.39 111.272C307.784 111.075 308.237 110.977 308.749 110.977ZM308.004 119.391C307.8 119.391 307.626 119.32 307.484 119.178C307.343 119.037 307.272 118.863 307.272 118.658C307.272 118.454 307.343 118.28 307.484 118.138C307.626 117.997 307.8 117.926 308.004 117.926C308.201 117.926 308.367 117.997 308.501 118.138C308.643 118.28 308.713 118.454 308.713 118.658C308.713 118.863 308.643 119.037 308.501 119.178C308.367 119.32 308.201 119.391 308.004 119.391Z" fill="#2E2C43"/>
<rect x="29.5713" y="150.216" width="164.61" height="57.4026" fill="#FB8C00"/>
<rect x="194.181" y="152.749" width="162.922" height="54.026" stroke="#FB8C00" stroke-width="3.37662"/>
<path d="M107.043 173.381L103.613 180.039V182.943H100.614V180.039L97.1837 173.381H100.614L102.141 176.771L103.667 173.381H107.043ZM115.1 179.067C115.1 179.274 115.086 179.472 115.059 179.661H110.237C110.282 180.319 110.557 180.647 111.061 180.647C111.385 180.647 111.62 180.499 111.764 180.202H114.938C114.83 180.742 114.6 181.228 114.249 181.66C113.907 182.083 113.47 182.421 112.939 182.673C112.416 182.916 111.84 183.038 111.21 183.038C110.453 183.038 109.778 182.88 109.184 182.565C108.599 182.25 108.139 181.8 107.806 181.215C107.482 180.62 107.32 179.927 107.32 179.135C107.32 178.342 107.482 177.653 107.806 177.068C108.139 176.474 108.599 176.019 109.184 175.704C109.778 175.389 110.453 175.231 111.21 175.231C111.966 175.231 112.637 175.389 113.222 175.704C113.817 176.01 114.276 176.451 114.6 177.028C114.933 177.604 115.1 178.284 115.1 179.067ZM112.061 178.351C112.061 178.099 111.98 177.91 111.818 177.784C111.656 177.649 111.453 177.581 111.21 177.581C110.679 177.581 110.368 177.838 110.278 178.351H112.061ZM119.438 183.038C118.718 183.038 118.078 182.921 117.52 182.687C116.971 182.453 116.534 182.128 116.21 181.714C115.886 181.3 115.701 180.832 115.656 180.31H118.533C118.569 180.535 118.664 180.701 118.817 180.809C118.979 180.917 119.181 180.971 119.425 180.971C119.578 180.971 119.699 180.94 119.789 180.877C119.879 180.805 119.924 180.719 119.924 180.62C119.924 180.449 119.83 180.328 119.641 180.256C119.452 180.184 119.132 180.102 118.682 180.012C118.132 179.904 117.678 179.787 117.318 179.661C116.966 179.535 116.656 179.319 116.386 179.013C116.125 178.707 115.994 178.284 115.994 177.743C115.994 177.275 116.116 176.852 116.359 176.474C116.611 176.087 116.98 175.785 117.466 175.569C117.952 175.344 118.542 175.231 119.236 175.231C120.262 175.231 121.063 175.483 121.64 175.988C122.225 176.492 122.576 177.149 122.693 177.959H120.032C119.987 177.752 119.893 177.595 119.749 177.487C119.605 177.37 119.411 177.311 119.168 177.311C119.015 177.311 118.898 177.343 118.817 177.406C118.736 177.46 118.695 177.545 118.695 177.662C118.695 177.815 118.79 177.932 118.979 178.013C119.168 178.086 119.47 178.162 119.884 178.243C120.433 178.351 120.897 178.473 121.275 178.608C121.653 178.743 121.982 178.977 122.261 179.31C122.54 179.634 122.68 180.084 122.68 180.661C122.68 181.111 122.549 181.516 122.288 181.876C122.027 182.237 121.649 182.52 121.153 182.727C120.667 182.934 120.095 183.038 119.438 183.038Z" fill="white"/>
<path d="M281.842 183.788H278.844L275.67 178.979V183.788H272.672V174.225H275.67L278.844 179.114V174.225H281.842V183.788ZM286.817 183.882C286.051 183.882 285.363 183.725 284.75 183.409C284.138 183.094 283.656 182.644 283.305 182.059C282.963 181.464 282.792 180.771 282.792 179.979C282.792 179.186 282.963 178.498 283.305 177.912C283.656 177.318 284.138 176.863 284.75 176.548C285.363 176.233 286.051 176.075 286.817 176.075C287.582 176.075 288.271 176.233 288.883 176.548C289.496 176.863 289.973 177.318 290.315 177.912C290.666 178.498 290.842 179.186 290.842 179.979C290.842 180.771 290.666 181.464 290.315 182.059C289.973 182.644 289.496 183.094 288.883 183.409C288.271 183.725 287.582 183.882 286.817 183.882ZM286.817 181.289C287.096 181.289 287.33 181.181 287.519 180.965C287.708 180.74 287.803 180.411 287.803 179.979C287.803 179.547 287.708 179.222 287.519 179.006C287.33 178.781 287.096 178.669 286.817 178.669C286.538 178.669 286.304 178.781 286.114 179.006C285.925 179.222 285.831 179.547 285.831 179.979C285.831 180.411 285.921 180.74 286.101 180.965C286.29 181.181 286.529 181.289 286.817 181.289Z" fill="#FB8C00"/>
<defs>
<filter id="filter0_d_1011_2295" x="-59.3383" y="0.459762" width="462.71" height="308.275" filterUnits="userSpaceOnUse" color-interpolation-filters="sRGB">
<feFlood flood-opacity="0" result="BackgroundImageFix"/>
<feColorMatrix in="SourceAlpha" type="matrix" values="0 0 0 0 0 0 0 0 0 0 0 0 0 0 0 0 0 0 127 0" result="hardAlpha"/>
<feOffset dx="8.89426" dy="8.89426"/>
<feGaussianBlur stdDeviation="44.4713"/>
<feComposite in2="hardAlpha" operator="out"/>
<feColorMatrix type="matrix" values="0 0 0 0 0.741667 0 0 0 0 0.741667 0 0 0 0 0.741667 0 0 0 0.35 0"/>
<feBlend mode="normal" in2="BackgroundImageFix" result="effect1_dropShadow_1011_2295"/>
<feBlend mode="normal" in="SourceGraphic" in2="effect1_dropShadow_1011_2295" result="shape"/>
</filter>
</defs>
</svg>
