<svg width="388" height="166" viewBox="0 0 388 166" fill="none" xmlns="http://www.w3.org/2000/svg">
<rect width="389" height="166" fill="#FFE7C8"/>
<rect x="43" y="20" width="324" height="127" rx="16" fill="white"/>
<rect x="43.25" y="20.25" width="323.5" height="126.5" rx="15.75" stroke="#2E2C43" stroke-opacity="0.1" stroke-width="0.5"/>
<path d="M84.084 42.242V43.278H81.424V52H80.15V43.278H77.476V42.242H84.084ZM92.2602 44.328L87.6402 55.612H86.3242L87.8362 51.916L84.7422 44.328H86.1562L88.5642 50.544L90.9442 44.328H92.2602ZM94.8149 45.742C95.0669 45.3033 95.4402 44.9393 95.9349 44.65C96.4389 44.3513 97.0222 44.202 97.6849 44.202C98.3662 44.202 98.9822 44.3653 99.5329 44.692C100.093 45.0187 100.532 45.4807 100.849 46.078C101.166 46.666 101.325 47.352 101.325 48.136C101.325 48.9107 101.166 49.6013 100.849 50.208C100.532 50.8147 100.093 51.286 99.5329 51.622C98.9822 51.958 98.3662 52.126 97.6849 52.126C97.0316 52.126 96.4529 51.9813 95.9489 51.692C95.4542 51.3933 95.0762 51.0247 94.8149 50.586V55.64H93.5409V44.328H94.8149V45.742ZM100.023 48.136C100.023 47.5573 99.9062 47.0533 99.6729 46.624C99.4396 46.1947 99.1222 45.868 98.7209 45.644C98.3289 45.42 97.8949 45.308 97.4189 45.308C96.9522 45.308 96.5182 45.4247 96.1169 45.658C95.7249 45.882 95.4076 46.2133 95.1649 46.652C94.9316 47.0813 94.8149 47.5807 94.8149 48.15C94.8149 48.7287 94.9316 49.2373 95.1649 49.676C95.4076 50.1053 95.7249 50.4367 96.1169 50.67C96.5182 50.894 96.9522 51.006 97.4189 51.006C97.8949 51.006 98.3289 50.894 98.7209 50.67C99.1222 50.4367 99.4396 50.1053 99.6729 49.676C99.9062 49.2373 100.023 48.724 100.023 48.136ZM110.002 47.87C110.002 48.1127 109.988 48.3693 109.96 48.64H103.828C103.874 49.396 104.131 49.9887 104.598 50.418C105.074 50.838 105.648 51.048 106.32 51.048C106.87 51.048 107.328 50.922 107.692 50.67C108.065 50.4087 108.326 50.0633 108.476 49.634H109.848C109.642 50.3713 109.232 50.9733 108.616 51.44C108 51.8973 107.234 52.126 106.32 52.126C105.592 52.126 104.938 51.9627 104.36 51.636C103.79 51.3093 103.342 50.8473 103.016 50.25C102.689 49.6433 102.526 48.9433 102.526 48.15C102.526 47.3567 102.684 46.6613 103.002 46.064C103.319 45.4667 103.762 45.0093 104.332 44.692C104.91 44.3653 105.573 44.202 106.32 44.202C107.048 44.202 107.692 44.3607 108.252 44.678C108.812 44.9953 109.241 45.434 109.54 45.994C109.848 46.5447 110.002 47.17 110.002 47.87ZM108.686 47.604C108.686 47.1187 108.578 46.7033 108.364 46.358C108.149 46.0033 107.855 45.7373 107.482 45.56C107.118 45.3733 106.712 45.28 106.264 45.28C105.62 45.28 105.069 45.4853 104.612 45.896C104.164 46.3067 103.907 46.876 103.842 47.604H108.686ZM119.224 44.188C119.803 44.188 120.325 44.314 120.792 44.566C121.259 44.8087 121.623 45.1773 121.884 45.672C122.155 46.1667 122.29 46.7687 122.29 47.478V52H121.03V47.66C121.03 46.8947 120.839 46.3113 120.456 45.91C120.073 45.4993 119.551 45.294 118.888 45.294C118.216 45.294 117.679 45.504 117.278 45.924C116.886 46.344 116.69 46.9553 116.69 47.758V52H115.416V41.64H116.69V45.42C116.942 45.028 117.287 44.7247 117.726 44.51C118.174 44.2953 118.673 44.188 119.224 44.188ZM131.371 47.87C131.371 48.1127 131.357 48.3693 131.329 48.64H125.197C125.244 49.396 125.5 49.9887 125.967 50.418C126.443 50.838 127.017 51.048 127.689 51.048C128.24 51.048 128.697 50.922 129.061 50.67C129.434 50.4087 129.696 50.0633 129.845 49.634H131.217C131.012 50.3713 130.601 50.9733 129.985 51.44C129.369 51.8973 128.604 52.126 127.689 52.126C126.961 52.126 126.308 51.9627 125.729 51.636C125.16 51.3093 124.712 50.8473 124.385 50.25C124.058 49.6433 123.895 48.9433 123.895 48.15C123.895 47.3567 124.054 46.6613 124.371 46.064C124.688 45.4667 125.132 45.0093 125.701 44.692C126.28 44.3653 126.942 44.202 127.689 44.202C128.417 44.202 129.061 44.3607 129.621 44.678C130.181 44.9953 130.61 45.434 130.909 45.994C131.217 46.5447 131.371 47.17 131.371 47.87ZM130.055 47.604C130.055 47.1187 129.948 46.7033 129.733 46.358C129.518 46.0033 129.224 45.7373 128.851 45.56C128.487 45.3733 128.081 45.28 127.633 45.28C126.989 45.28 126.438 45.4853 125.981 45.896C125.533 46.3067 125.276 46.876 125.211 47.604H130.055ZM134.327 45.574C134.551 45.1353 134.868 44.7947 135.279 44.552C135.699 44.3093 136.207 44.188 136.805 44.188V45.504H136.469C135.041 45.504 134.327 46.2787 134.327 47.828V52H133.053V44.328H134.327V45.574ZM145.275 47.87C145.275 48.1127 145.261 48.3693 145.233 48.64H139.101C139.148 49.396 139.405 49.9887 139.871 50.418C140.347 50.838 140.921 51.048 141.593 51.048C142.144 51.048 142.601 50.922 142.965 50.67C143.339 50.4087 143.6 50.0633 143.749 49.634H145.121C144.916 50.3713 144.505 50.9733 143.889 51.44C143.273 51.8973 142.508 52.126 141.593 52.126C140.865 52.126 140.212 51.9627 139.633 51.636C139.064 51.3093 138.616 50.8473 138.289 50.25C137.963 49.6433 137.799 48.9433 137.799 48.15C137.799 47.3567 137.958 46.6613 138.275 46.064C138.593 45.4667 139.036 45.0093 139.605 44.692C140.184 44.3653 140.847 44.202 141.593 44.202C142.321 44.202 142.965 44.3607 143.525 44.678C144.085 44.9953 144.515 45.434 144.813 45.994C145.121 46.5447 145.275 47.17 145.275 47.87ZM143.959 47.604C143.959 47.1187 143.852 46.7033 143.637 46.358C143.423 46.0033 143.129 45.7373 142.755 45.56C142.391 45.3733 141.985 45.28 141.537 45.28C140.893 45.28 140.343 45.4853 139.885 45.896C139.437 46.3067 139.181 46.876 139.115 47.604H143.959ZM151.095 52.084C150.853 52.084 150.647 52 150.479 51.832C150.311 51.664 150.227 51.4587 150.227 51.216C150.227 50.9733 150.311 50.768 150.479 50.6C150.647 50.432 150.853 50.348 151.095 50.348C151.329 50.348 151.525 50.432 151.683 50.6C151.851 50.768 151.935 50.9733 151.935 51.216C151.935 51.4587 151.851 51.664 151.683 51.832C151.525 52 151.329 52.084 151.095 52.084ZM154.035 52.084C153.792 52.084 153.587 52 153.419 51.832C153.251 51.664 153.167 51.4587 153.167 51.216C153.167 50.9733 153.251 50.768 153.419 50.6C153.587 50.432 153.792 50.348 154.035 50.348C154.268 50.348 154.464 50.432 154.623 50.6C154.791 50.768 154.875 50.9733 154.875 51.216C154.875 51.4587 154.791 51.664 154.623 51.832C154.464 52 154.268 52.084 154.035 52.084ZM156.974 52.084C156.732 52.084 156.526 52 156.358 51.832C156.19 51.664 156.106 51.4587 156.106 51.216C156.106 50.9733 156.19 50.768 156.358 50.6C156.526 50.432 156.732 50.348 156.974 50.348C157.208 50.348 157.404 50.432 157.562 50.6C157.73 50.768 157.814 50.9733 157.814 51.216C157.814 51.4587 157.73 51.664 157.562 51.832C157.404 52 157.208 52.084 156.974 52.084ZM159.914 52.084C159.671 52.084 159.466 52 159.298 51.832C159.13 51.664 159.046 51.4587 159.046 51.216C159.046 50.9733 159.13 50.768 159.298 50.6C159.466 50.432 159.671 50.348 159.914 50.348C160.147 50.348 160.343 50.432 160.502 50.6C160.67 50.768 160.754 50.9733 160.754 51.216C160.754 51.4587 160.67 51.664 160.502 51.832C160.343 52 160.147 52.084 159.914 52.084ZM162.853 52.084C162.61 52.084 162.405 52 162.237 51.832C162.069 51.664 161.985 51.4587 161.985 51.216C161.985 50.9733 162.069 50.768 162.237 50.6C162.405 50.432 162.61 50.348 162.853 50.348C163.086 50.348 163.282 50.432 163.441 50.6C163.609 50.768 163.693 50.9733 163.693 51.216C163.693 51.4587 163.609 51.664 163.441 51.832C163.282 52 163.086 52.084 162.853 52.084ZM165.793 52.084C165.55 52.084 165.345 52 165.177 51.832C165.009 51.664 164.925 51.4587 164.925 51.216C164.925 50.9733 165.009 50.768 165.177 50.6C165.345 50.432 165.55 50.348 165.793 50.348C166.026 50.348 166.222 50.432 166.381 50.6C166.549 50.768 166.633 50.9733 166.633 51.216C166.633 51.4587 166.549 51.664 166.381 51.832C166.222 52 166.026 52.084 165.793 52.084Z" fill="#DBCDBB"/>
</svg>
