<svg width="388" height="108" viewBox="0 0 388 108" fill="none" xmlns="http://www.w3.org/2000/svg">
<rect width="389" height="108" fill="#FFE7C8"/>
<rect x="42" y="29" width="324" height="54" rx="16" fill="white"/>
<rect x="42.25" y="29.25" width="323.5" height="53.5" rx="15.75" stroke="#2E2C43" stroke-opacity="0.1" stroke-width="0.5"/>
<path d="M154.926 52.81V55.26H158.216V56.814H154.926V59.404H158.636V61H152.966V51.214H158.636V52.81H154.926ZM164.701 61L163.105 58.592L161.691 61H159.591L162.125 57.108L159.563 53.244H161.775L163.357 55.638L164.785 53.244H166.885L164.337 57.108L166.913 61H164.701ZM168.846 61.098C168.491 61.098 168.197 60.9907 167.964 60.776C167.74 60.552 167.628 60.2767 167.628 59.95C167.628 59.6233 167.74 59.3527 167.964 59.138C168.197 58.914 168.491 58.802 168.846 58.802C169.191 58.802 169.476 58.914 169.7 59.138C169.924 59.3527 170.036 59.6233 170.036 59.95C170.036 60.2767 169.924 60.552 169.7 60.776C169.476 60.9907 169.191 61.098 168.846 61.098ZM168.846 55.302C168.491 55.302 168.197 55.1947 167.964 54.98C167.74 54.756 167.628 54.4807 167.628 54.154C167.628 53.8273 167.74 53.5567 167.964 53.342C168.197 53.118 168.491 53.006 168.846 53.006C169.191 53.006 169.476 53.118 169.7 53.342C169.924 53.5567 170.036 53.8273 170.036 54.154C170.036 54.4807 169.924 54.756 169.7 54.98C169.476 55.1947 169.191 55.302 168.846 55.302ZM174.529 52.6V50.794H177.903V61H175.887V52.6H174.529ZM182.206 58.942L180.568 62.876H179.308L180.218 58.942H182.206ZM184.01 58.788C184.906 58.0413 185.62 57.4207 186.152 56.926C186.684 56.422 187.128 55.8993 187.482 55.358C187.837 54.8167 188.014 54.2847 188.014 53.762C188.014 53.286 187.902 52.9127 187.678 52.642C187.454 52.3713 187.109 52.236 186.642 52.236C186.176 52.236 185.816 52.3947 185.564 52.712C185.312 53.02 185.182 53.4447 185.172 53.986H183.268C183.306 52.866 183.637 52.0167 184.262 51.438C184.897 50.8593 185.7 50.57 186.67 50.57C187.734 50.57 188.551 50.8547 189.12 51.424C189.69 51.984 189.974 52.726 189.974 53.65C189.974 54.378 189.778 55.0733 189.386 55.736C188.994 56.3987 188.546 56.9773 188.042 57.472C187.538 57.9573 186.88 58.5453 186.068 59.236H190.198V60.86H183.282V59.404L184.01 58.788ZM191.433 55.764C191.433 54.1493 191.723 52.8847 192.301 51.97C192.889 51.0553 193.86 50.598 195.213 50.598C196.567 50.598 197.533 51.0553 198.111 51.97C198.699 52.8847 198.993 54.1493 198.993 55.764C198.993 57.388 198.699 58.662 198.111 59.586C197.533 60.51 196.567 60.972 195.213 60.972C193.86 60.972 192.889 60.51 192.301 59.586C191.723 58.662 191.433 57.388 191.433 55.764ZM197.061 55.764C197.061 55.0733 197.015 54.4947 196.921 54.028C196.837 53.552 196.66 53.1647 196.389 52.866C196.128 52.5673 195.736 52.418 195.213 52.418C194.691 52.418 194.294 52.5673 194.023 52.866C193.762 53.1647 193.585 53.552 193.491 54.028C193.407 54.4947 193.365 55.0733 193.365 55.764C193.365 56.4733 193.407 57.0707 193.491 57.556C193.575 58.032 193.753 58.4193 194.023 58.718C194.294 59.0073 194.691 59.152 195.213 59.152C195.736 59.152 196.133 59.0073 196.403 58.718C196.674 58.4193 196.851 58.032 196.935 57.556C197.019 57.0707 197.061 56.4733 197.061 55.764ZM200.484 55.764C200.484 54.1493 200.774 52.8847 201.352 51.97C201.94 51.0553 202.911 50.598 204.264 50.598C205.618 50.598 206.584 51.0553 207.162 51.97C207.75 52.8847 208.044 54.1493 208.044 55.764C208.044 57.388 207.75 58.662 207.162 59.586C206.584 60.51 205.618 60.972 204.264 60.972C202.911 60.972 201.94 60.51 201.352 59.586C200.774 58.662 200.484 57.388 200.484 55.764ZM206.112 55.764C206.112 55.0733 206.066 54.4947 205.972 54.028C205.888 53.552 205.711 53.1647 205.44 52.866C205.179 52.5673 204.787 52.418 204.264 52.418C203.742 52.418 203.345 52.5673 203.074 52.866C202.813 53.1647 202.636 53.552 202.542 54.028C202.458 54.4947 202.416 55.0733 202.416 55.764C202.416 56.4733 202.458 57.0707 202.542 57.556C202.626 58.032 202.804 58.4193 203.074 58.718C203.345 59.0073 203.742 59.152 204.264 59.152C204.787 59.152 205.184 59.0073 205.454 58.718C205.725 58.4193 205.902 58.032 205.986 57.556C206.07 57.0707 206.112 56.4733 206.112 55.764ZM218.135 61L215.979 57.192H215.055V61H213.095V51.228H216.763C217.519 51.228 218.163 51.3633 218.695 51.634C219.227 51.8953 219.624 52.2547 219.885 52.712C220.156 53.16 220.291 53.664 220.291 54.224C220.291 54.868 220.104 55.4513 219.731 55.974C219.358 56.4873 218.802 56.842 218.065 57.038L220.403 61H218.135ZM215.055 55.722H216.693C217.225 55.722 217.622 55.596 217.883 55.344C218.144 55.0827 218.275 54.7233 218.275 54.266C218.275 53.818 218.144 53.4727 217.883 53.23C217.622 52.978 217.225 52.852 216.693 52.852H215.055V55.722ZM225.032 61.126C224.397 61.126 223.828 61.014 223.324 60.79C222.82 60.5567 222.418 60.244 222.12 59.852C221.83 59.46 221.672 59.026 221.644 58.55H223.618C223.655 58.8487 223.8 59.096 224.052 59.292C224.313 59.488 224.635 59.586 225.018 59.586C225.391 59.586 225.68 59.5113 225.886 59.362C226.1 59.2127 226.208 59.0213 226.208 58.788C226.208 58.536 226.077 58.3493 225.816 58.228C225.564 58.0973 225.158 57.9573 224.598 57.808C224.019 57.668 223.543 57.5233 223.17 57.374C222.806 57.2247 222.488 56.996 222.218 56.688C221.956 56.38 221.826 55.9647 221.826 55.442C221.826 55.0127 221.947 54.6207 222.19 54.266C222.442 53.9113 222.796 53.6313 223.254 53.426C223.72 53.2207 224.266 53.118 224.892 53.118C225.816 53.118 226.553 53.3513 227.104 53.818C227.654 54.2753 227.958 54.896 228.014 55.68H226.138C226.11 55.372 225.979 55.1293 225.746 54.952C225.522 54.7653 225.218 54.672 224.836 54.672C224.481 54.672 224.206 54.7373 224.01 54.868C223.823 54.9987 223.73 55.1807 223.73 55.414C223.73 55.6753 223.86 55.876 224.122 56.016C224.383 56.1467 224.789 56.282 225.34 56.422C225.9 56.562 226.362 56.7067 226.726 56.856C227.09 57.0053 227.402 57.2387 227.664 57.556C227.934 57.864 228.074 58.2747 228.084 58.788C228.084 59.236 227.958 59.6373 227.706 59.992C227.463 60.3467 227.108 60.6267 226.642 60.832C226.184 61.028 225.648 61.126 225.032 61.126Z" fill="#558B2F"/>
</svg>
