<svg width="389" height="309" viewBox="0 0 389 309" fill="none" xmlns="http://www.w3.org/2000/svg">
<g filter="url(#filter0_d_606_2)">
<path d="M278.1 83.228H26.6596C21.4439 83.228 17.2158 86.183 17.2158 89.8282V200.381C17.2158 204.026 21.4439 206.981 26.6596 206.981H278.1C283.316 206.981 287.544 204.026 287.544 200.381V89.8282C287.544 86.183 283.316 83.228 278.1 83.228Z" fill="white"/>
</g>
<rect x="8" y="78.0002" width="346.422" height="129.156" rx="20.2597" fill="white"/>
<path d="M75.9466 136.177C77.7802 136.177 79.5726 135.688 81.0971 134.772C82.6217 133.856 83.81 132.554 84.5117 131.031C85.2133 129.508 85.3969 127.831 85.0392 126.214C84.6815 124.597 83.7985 123.112 82.502 121.946C81.2055 120.78 79.5536 119.986 77.7552 119.665C75.9569 119.343 74.0928 119.508 72.3988 120.139C70.7048 120.77 69.2569 121.839 68.2382 123.209C67.2195 124.58 66.6758 126.192 66.6758 127.841C66.6758 130.052 67.6525 132.172 69.3911 133.735C71.1297 135.298 73.4878 136.177 75.9466 136.177ZM75.9466 125.062C76.5578 125.062 77.1552 125.225 77.6634 125.53C78.1716 125.836 78.5677 126.27 78.8016 126.777C79.0355 127.285 79.0967 127.844 78.9775 128.383C78.8582 128.922 78.5639 129.417 78.1317 129.806C77.6995 130.194 77.1489 130.459 76.5495 130.566C75.95 130.673 75.3287 130.618 74.764 130.408C74.1993 130.198 73.7167 129.841 73.3771 129.384C73.0375 128.927 72.8563 128.39 72.8563 127.841C72.8563 127.104 73.1819 126.397 73.7614 125.876C74.341 125.355 75.127 125.062 75.9466 125.062Z" fill="black" fill-opacity="0.21"/>
<path d="M97.5786 108.39H35.7733C34.1341 108.39 32.5621 108.975 31.403 110.018C30.2439 111.06 29.5928 112.473 29.5928 113.947V169.521C29.5928 170.995 30.2439 172.408 31.403 173.45C32.5621 174.493 34.1341 175.078 35.7733 175.078H97.5786C99.2177 175.078 100.79 174.493 101.949 173.45C103.108 172.408 103.759 170.995 103.759 169.521V113.947C103.759 112.473 103.108 111.06 101.949 110.018C100.79 108.975 99.2177 108.39 97.5786 108.39ZM97.5786 169.521H35.7733V152.849L51.2246 138.955L68.4992 154.488C69.6572 155.523 71.2236 156.104 72.8564 156.104C74.4893 156.104 76.0557 155.523 77.2137 154.488L82.1272 150.07L97.5786 163.963V169.521ZM97.5786 156.1L86.4845 146.124C85.3265 145.089 83.76 144.508 82.1272 144.508C80.4944 144.508 78.928 145.089 77.77 146.124L72.8564 150.542L55.5819 135.01C54.4239 133.975 52.8574 133.394 51.2246 133.394C49.5918 133.394 48.0253 133.975 46.8673 135.01L35.7733 144.985V113.947H97.5786V156.1Z" fill="black" fill-opacity="0.21"/>
<path d="M122.644 113.153V121.39H121.568V113.153H122.644ZM130.783 114.795C131.571 114.795 132.209 115.036 132.697 115.516C133.186 115.989 133.43 116.674 133.43 117.573V121.39H132.366V117.726C132.366 117.08 132.205 116.588 131.882 116.249C131.559 115.902 131.118 115.729 130.558 115.729C129.991 115.729 129.538 115.906 129.199 116.261C128.868 116.615 128.703 117.131 128.703 117.809V121.39H127.627V114.914H128.703V115.835C128.916 115.504 129.203 115.248 129.566 115.067C129.936 114.886 130.342 114.795 130.783 114.795ZM141.096 117.904C141.096 118.108 141.084 118.325 141.06 118.554H135.884C135.923 119.192 136.14 119.692 136.534 120.054C136.936 120.409 137.42 120.586 137.988 120.586C138.453 120.586 138.839 120.48 139.146 120.267C139.461 120.047 139.682 119.755 139.808 119.393H140.966C140.793 120.015 140.446 120.523 139.926 120.917C139.406 121.303 138.76 121.496 137.988 121.496C137.373 121.496 136.822 121.358 136.333 121.083C135.853 120.807 135.474 120.417 135.199 119.913C134.923 119.4 134.785 118.81 134.785 118.14C134.785 117.47 134.919 116.883 135.187 116.379C135.455 115.875 135.829 115.489 136.31 115.221C136.798 114.945 137.357 114.807 137.988 114.807C138.602 114.807 139.146 114.941 139.619 115.209C140.091 115.477 140.454 115.847 140.706 116.32C140.966 116.785 141.096 117.313 141.096 117.904ZM139.985 117.679C139.985 117.269 139.894 116.919 139.713 116.627C139.532 116.328 139.284 116.103 138.969 115.954C138.661 115.796 138.319 115.717 137.94 115.717C137.397 115.717 136.932 115.89 136.546 116.237C136.168 116.584 135.951 117.064 135.896 117.679H139.985ZM148.425 117.904C148.425 118.108 148.413 118.325 148.389 118.554H143.213C143.252 119.192 143.469 119.692 143.863 120.054C144.265 120.409 144.749 120.586 145.316 120.586C145.781 120.586 146.167 120.48 146.475 120.267C146.79 120.047 147.01 119.755 147.136 119.393H148.295C148.121 120.015 147.775 120.523 147.255 120.917C146.735 121.303 146.088 121.496 145.316 121.496C144.702 121.496 144.15 121.358 143.662 121.083C143.181 120.807 142.803 120.417 142.527 119.913C142.252 119.4 142.114 118.81 142.114 118.14C142.114 117.47 142.248 116.883 142.515 116.379C142.783 115.875 143.158 115.489 143.638 115.221C144.127 114.945 144.686 114.807 145.316 114.807C145.931 114.807 146.475 114.941 146.947 115.209C147.42 115.477 147.782 115.847 148.035 116.32C148.295 116.785 148.425 117.313 148.425 117.904ZM147.314 117.679C147.314 117.269 147.223 116.919 147.042 116.627C146.861 116.328 146.612 116.103 146.297 115.954C145.99 115.796 145.647 115.717 145.269 115.717C144.725 115.717 144.261 115.89 143.875 116.237C143.496 116.584 143.28 117.064 143.225 117.679H147.314ZM149.442 118.128C149.442 117.466 149.576 116.887 149.844 116.391C150.112 115.887 150.478 115.497 150.943 115.221C151.416 114.945 151.944 114.807 152.527 114.807C153.031 114.807 153.5 114.925 153.933 115.162C154.367 115.39 154.697 115.694 154.926 116.072V112.644H156.013V121.39H154.926V120.173C154.713 120.559 154.398 120.878 153.98 121.13C153.563 121.374 153.074 121.496 152.515 121.496C151.94 121.496 151.416 121.354 150.943 121.071C150.478 120.787 150.112 120.389 149.844 119.877C149.576 119.365 149.442 118.782 149.442 118.128ZM154.926 118.14C154.926 117.651 154.827 117.226 154.63 116.864C154.434 116.501 154.166 116.225 153.827 116.036C153.496 115.839 153.13 115.741 152.728 115.741C152.326 115.741 151.96 115.835 151.629 116.024C151.298 116.214 151.034 116.489 150.837 116.852C150.64 117.214 150.541 117.64 150.541 118.128C150.541 118.624 150.64 119.058 150.837 119.428C151.034 119.79 151.298 120.07 151.629 120.267C151.96 120.456 152.326 120.551 152.728 120.551C153.13 120.551 153.496 120.456 153.827 120.267C154.166 120.07 154.434 119.79 154.63 119.428C154.827 119.058 154.926 118.628 154.926 118.14ZM162.293 115.8V119.617C162.293 119.932 162.36 120.157 162.494 120.291C162.628 120.417 162.86 120.48 163.191 120.48H163.983V121.39H163.014C162.415 121.39 161.966 121.252 161.667 120.976C161.367 120.7 161.218 120.247 161.218 119.617V115.8H160.379V114.914H161.218V113.283H162.293V114.914H163.983V115.8H162.293ZM168.111 121.496C167.504 121.496 166.953 121.358 166.456 121.083C165.968 120.807 165.582 120.417 165.298 119.913C165.022 119.4 164.884 118.81 164.884 118.14C164.884 117.478 165.026 116.895 165.31 116.391C165.601 115.879 165.995 115.489 166.492 115.221C166.988 114.945 167.544 114.807 168.158 114.807C168.773 114.807 169.328 114.945 169.824 115.221C170.321 115.489 170.711 115.875 170.994 116.379C171.286 116.883 171.432 117.47 171.432 118.14C171.432 118.81 171.282 119.4 170.983 119.913C170.691 120.417 170.293 120.807 169.789 121.083C169.285 121.358 168.725 121.496 168.111 121.496ZM168.111 120.551C168.497 120.551 168.859 120.46 169.198 120.279C169.537 120.098 169.809 119.826 170.014 119.464C170.226 119.101 170.333 118.66 170.333 118.14C170.333 117.62 170.23 117.179 170.025 116.816C169.82 116.454 169.553 116.186 169.222 116.013C168.891 115.831 168.532 115.741 168.146 115.741C167.752 115.741 167.39 115.831 167.059 116.013C166.736 116.186 166.476 116.454 166.279 116.816C166.082 117.179 165.984 117.62 165.984 118.14C165.984 118.668 166.078 119.113 166.267 119.475C166.464 119.838 166.724 120.11 167.047 120.291C167.37 120.464 167.725 120.551 168.111 120.551ZM177.072 115.965C177.261 115.595 177.529 115.307 177.876 115.103C178.23 114.898 178.66 114.795 179.164 114.795V115.906H178.88C177.675 115.906 177.072 116.56 177.072 117.868V121.39H175.996V114.914H177.072V115.965ZM186.314 117.904C186.314 118.108 186.302 118.325 186.279 118.554H181.102C181.142 119.192 181.359 119.692 181.752 120.054C182.154 120.409 182.639 120.586 183.206 120.586C183.671 120.586 184.057 120.48 184.364 120.267C184.679 120.047 184.9 119.755 185.026 119.393H186.184C186.011 120.015 185.664 120.523 185.144 120.917C184.624 121.303 183.978 121.496 183.206 121.496C182.592 121.496 182.04 121.358 181.552 121.083C181.071 120.807 180.693 120.417 180.417 119.913C180.141 119.4 180.003 118.81 180.003 118.14C180.003 117.47 180.137 116.883 180.405 116.379C180.673 115.875 181.047 115.489 181.528 115.221C182.016 114.945 182.576 114.807 183.206 114.807C183.821 114.807 184.364 114.941 184.837 115.209C185.31 115.477 185.672 115.847 185.924 116.32C186.184 116.785 186.314 117.313 186.314 117.904ZM185.203 117.679C185.203 117.269 185.113 116.919 184.932 116.627C184.75 116.328 184.502 116.103 184.187 115.954C183.88 115.796 183.537 115.717 183.159 115.717C182.615 115.717 182.15 115.89 181.764 116.237C181.386 116.584 181.169 117.064 181.114 117.679H185.203ZM188.809 116.107C189.022 115.737 189.337 115.43 189.755 115.185C190.18 114.933 190.673 114.807 191.232 114.807C191.807 114.807 192.327 114.945 192.792 115.221C193.265 115.497 193.635 115.887 193.903 116.391C194.171 116.887 194.305 117.466 194.305 118.128C194.305 118.782 194.171 119.365 193.903 119.877C193.635 120.389 193.265 120.787 192.792 121.071C192.327 121.354 191.807 121.496 191.232 121.496C190.681 121.496 190.192 121.374 189.767 121.13C189.349 120.878 189.03 120.567 188.809 120.196V124.463H187.734V114.914H188.809V116.107ZM193.206 118.128C193.206 117.64 193.107 117.214 192.91 116.852C192.713 116.489 192.445 116.214 192.107 116.024C191.776 115.835 191.409 115.741 191.008 115.741C190.614 115.741 190.247 115.839 189.908 116.036C189.578 116.225 189.31 116.505 189.105 116.875C188.908 117.238 188.809 117.659 188.809 118.14C188.809 118.628 188.908 119.058 189.105 119.428C189.31 119.79 189.578 120.07 189.908 120.267C190.247 120.456 190.614 120.551 191.008 120.551C191.409 120.551 191.776 120.456 192.107 120.267C192.445 120.07 192.713 119.79 192.91 119.428C193.107 119.058 193.206 118.624 193.206 118.128ZM196.796 112.644V121.39H195.72V112.644H196.796ZM198.227 118.128C198.227 117.466 198.361 116.887 198.629 116.391C198.897 115.887 199.263 115.497 199.728 115.221C200.201 114.945 200.725 114.807 201.3 114.807C201.867 114.807 202.359 114.929 202.777 115.174C203.195 115.418 203.506 115.725 203.711 116.095V114.914H204.798V121.39H203.711V120.184C203.498 120.563 203.179 120.878 202.753 121.13C202.336 121.374 201.847 121.496 201.288 121.496C200.713 121.496 200.193 121.354 199.728 121.071C199.263 120.787 198.897 120.389 198.629 119.877C198.361 119.365 198.227 118.782 198.227 118.128ZM203.711 118.14C203.711 117.651 203.612 117.226 203.415 116.864C203.218 116.501 202.95 116.225 202.611 116.036C202.281 115.839 201.914 115.741 201.512 115.741C201.111 115.741 200.744 115.835 200.413 116.024C200.082 116.214 199.818 116.489 199.621 116.852C199.425 117.214 199.326 117.64 199.326 118.128C199.326 118.624 199.425 119.058 199.621 119.428C199.818 119.79 200.082 120.07 200.413 120.267C200.744 120.456 201.111 120.551 201.512 120.551C201.914 120.551 202.281 120.456 202.611 120.267C202.95 120.07 203.218 119.79 203.415 119.428C203.612 119.058 203.711 118.628 203.711 118.14ZM206.213 118.14C206.213 117.47 206.347 116.887 206.615 116.391C206.883 115.887 207.253 115.497 207.726 115.221C208.207 114.945 208.754 114.807 209.369 114.807C210.165 114.807 210.819 115 211.331 115.386C211.851 115.772 212.193 116.308 212.359 116.994H211.201C211.09 116.6 210.874 116.288 210.551 116.06C210.236 115.831 209.842 115.717 209.369 115.717C208.754 115.717 208.258 115.93 207.88 116.355C207.502 116.773 207.313 117.368 207.313 118.14C207.313 118.92 207.502 119.523 207.88 119.948C208.258 120.374 208.754 120.586 209.369 120.586C209.842 120.586 210.236 120.476 210.551 120.255C210.866 120.035 211.083 119.72 211.201 119.31H212.359C212.186 119.972 211.839 120.504 211.319 120.905C210.799 121.299 210.149 121.496 209.369 121.496C208.754 121.496 208.207 121.358 207.726 121.083C207.253 120.807 206.883 120.417 206.615 119.913C206.347 119.408 206.213 118.817 206.213 118.14ZM219.703 117.904C219.703 118.108 219.691 118.325 219.668 118.554H214.491C214.531 119.192 214.747 119.692 215.141 120.054C215.543 120.409 216.028 120.586 216.595 120.586C217.06 120.586 217.446 120.48 217.753 120.267C218.068 120.047 218.289 119.755 218.415 119.393H219.573C219.4 120.015 219.053 120.523 218.533 120.917C218.013 121.303 217.367 121.496 216.595 121.496C215.98 121.496 215.429 121.358 214.94 121.083C214.46 120.807 214.081 120.417 213.806 119.913C213.53 119.4 213.392 118.81 213.392 118.14C213.392 117.47 213.526 116.883 213.794 116.379C214.062 115.875 214.436 115.489 214.917 115.221C215.405 114.945 215.964 114.807 216.595 114.807C217.209 114.807 217.753 114.941 218.226 115.209C218.698 115.477 219.061 115.847 219.313 116.32C219.573 116.785 219.703 117.313 219.703 117.904ZM218.592 117.679C218.592 117.269 218.501 116.919 218.32 116.627C218.139 116.328 217.891 116.103 217.576 115.954C217.268 115.796 216.926 115.717 216.548 115.717C216.004 115.717 215.539 115.89 215.153 116.237C214.775 116.584 214.558 117.064 214.503 117.679H218.592ZM232.061 114.795C232.566 114.795 233.015 114.902 233.409 115.114C233.803 115.319 234.114 115.63 234.342 116.048C234.571 116.466 234.685 116.974 234.685 117.573V121.39H233.621V117.726C233.621 117.08 233.46 116.588 233.137 116.249C232.822 115.902 232.392 115.729 231.849 115.729C231.289 115.729 230.844 115.91 230.513 116.273C230.182 116.627 230.017 117.143 230.017 117.821V121.39H228.953V117.726C228.953 117.08 228.792 116.588 228.469 116.249C228.154 115.902 227.724 115.729 227.181 115.729C226.621 115.729 226.176 115.91 225.845 116.273C225.514 116.627 225.349 117.143 225.349 117.821V121.39H224.273V114.914H225.349V115.847C225.561 115.508 225.845 115.248 226.2 115.067C226.562 114.886 226.96 114.795 227.393 114.795C227.937 114.795 228.418 114.917 228.835 115.162C229.253 115.406 229.564 115.764 229.769 116.237C229.95 115.78 230.249 115.426 230.667 115.174C231.084 114.921 231.549 114.795 232.061 114.795ZM242.027 114.914L238.127 124.439H237.017L238.293 121.319L235.681 114.914H236.875L238.907 120.161L240.917 114.914H242.027ZM247.335 112.644V121.39H246.259V112.644H247.335ZM248.766 118.128C248.766 117.466 248.9 116.887 249.168 116.391C249.436 115.887 249.802 115.497 250.267 115.221C250.739 114.945 251.263 114.807 251.839 114.807C252.406 114.807 252.898 114.929 253.316 115.174C253.733 115.418 254.045 115.725 254.249 116.095V114.914H255.337V121.39H254.249V120.184C254.037 120.563 253.718 120.878 253.292 121.13C252.875 121.374 252.386 121.496 251.827 121.496C251.252 121.496 250.732 121.354 250.267 121.071C249.802 120.787 249.436 120.389 249.168 119.877C248.9 119.365 248.766 118.782 248.766 118.128ZM254.249 118.14C254.249 117.651 254.151 117.226 253.954 116.864C253.757 116.501 253.489 116.225 253.15 116.036C252.819 115.839 252.453 115.741 252.051 115.741C251.649 115.741 251.283 115.835 250.952 116.024C250.621 116.214 250.357 116.489 250.16 116.852C249.963 117.214 249.865 117.64 249.865 118.128C249.865 118.624 249.963 119.058 250.16 119.428C250.357 119.79 250.621 120.07 250.952 120.267C251.283 120.456 251.649 120.551 252.051 120.551C252.453 120.551 252.819 120.456 253.15 120.267C253.489 120.07 253.757 119.79 253.954 119.428C254.151 119.058 254.249 118.628 254.249 118.14ZM258.23 116.107C258.442 115.737 258.757 115.43 259.175 115.185C259.601 114.933 260.093 114.807 260.652 114.807C261.227 114.807 261.747 114.945 262.212 115.221C262.685 115.497 263.055 115.887 263.323 116.391C263.591 116.887 263.725 117.466 263.725 118.128C263.725 118.782 263.591 119.365 263.323 119.877C263.055 120.389 262.685 120.787 262.212 121.071C261.747 121.354 261.227 121.496 260.652 121.496C260.101 121.496 259.612 121.374 259.187 121.13C258.769 120.878 258.45 120.567 258.23 120.196V124.463H257.154V114.914H258.23V116.107ZM262.626 118.128C262.626 117.64 262.527 117.214 262.331 116.852C262.134 116.489 261.866 116.214 261.527 116.024C261.196 115.835 260.83 115.741 260.428 115.741C260.034 115.741 259.667 115.839 259.329 116.036C258.998 116.225 258.73 116.505 258.525 116.875C258.328 117.238 258.23 117.659 258.23 118.14C258.23 118.628 258.328 119.058 258.525 119.428C258.73 119.79 258.998 120.07 259.329 120.267C259.667 120.456 260.034 120.551 260.428 120.551C260.83 120.551 261.196 120.456 261.527 120.267C261.866 120.07 262.134 119.79 262.331 119.428C262.527 119.058 262.626 118.624 262.626 118.128ZM266.452 115.8V119.617C266.452 119.932 266.519 120.157 266.653 120.291C266.787 120.417 267.02 120.48 267.351 120.48H268.142V121.39H267.173C266.575 121.39 266.126 121.252 265.826 120.976C265.527 120.7 265.377 120.247 265.377 119.617V115.8H264.538V114.914H265.377V113.283H266.452V114.914H268.142V115.8H266.452ZM272.27 121.496C271.663 121.496 271.112 121.358 270.616 121.083C270.127 120.807 269.741 120.417 269.457 119.913C269.182 119.4 269.044 118.81 269.044 118.14C269.044 117.478 269.186 116.895 269.469 116.391C269.761 115.879 270.155 115.489 270.651 115.221C271.147 114.945 271.703 114.807 272.317 114.807C272.932 114.807 273.487 114.945 273.984 115.221C274.48 115.489 274.87 115.875 275.154 116.379C275.445 116.883 275.591 117.47 275.591 118.14C275.591 118.81 275.441 119.4 275.142 119.913C274.85 120.417 274.452 120.807 273.948 121.083C273.444 121.358 272.885 121.496 272.27 121.496ZM272.27 120.551C272.656 120.551 273.019 120.46 273.357 120.279C273.696 120.098 273.968 119.826 274.173 119.464C274.386 119.101 274.492 118.66 274.492 118.14C274.492 117.62 274.389 117.179 274.185 116.816C273.98 116.454 273.712 116.186 273.381 116.013C273.05 115.831 272.692 115.741 272.306 115.741C271.912 115.741 271.549 115.831 271.218 116.013C270.895 116.186 270.635 116.454 270.438 116.816C270.241 117.179 270.143 117.62 270.143 118.14C270.143 118.668 270.237 119.113 270.426 119.475C270.623 119.838 270.883 120.11 271.206 120.291C271.529 120.464 271.884 120.551 272.27 120.551ZM278.08 116.107C278.293 115.737 278.608 115.43 279.026 115.185C279.451 114.933 279.944 114.807 280.503 114.807C281.078 114.807 281.598 114.945 282.063 115.221C282.536 115.497 282.906 115.887 283.174 116.391C283.442 116.887 283.576 117.466 283.576 118.128C283.576 118.782 283.442 119.365 283.174 119.877C282.906 120.389 282.536 120.787 282.063 121.071C281.598 121.354 281.078 121.496 280.503 121.496C279.952 121.496 279.463 121.374 279.038 121.13C278.62 120.878 278.301 120.567 278.08 120.196V124.463H277.005V114.914H278.08V116.107ZM282.477 118.128C282.477 117.64 282.378 117.214 282.181 116.852C281.984 116.489 281.717 116.214 281.378 116.024C281.047 115.835 280.68 115.741 280.279 115.741C279.885 115.741 279.518 115.839 279.18 116.036C278.849 116.225 278.581 116.505 278.376 116.875C278.179 117.238 278.08 117.659 278.08 118.14C278.08 118.628 278.179 119.058 278.376 119.428C278.581 119.79 278.849 120.07 279.18 120.267C279.518 120.456 279.885 120.551 280.279 120.551C280.68 120.551 281.047 120.456 281.378 120.267C281.717 120.07 281.984 119.79 282.181 119.428C282.378 119.058 282.477 118.624 282.477 118.128ZM121.166 136.14C121.166 135.47 121.3 134.887 121.568 134.391C121.836 133.887 122.206 133.497 122.679 133.221C123.16 132.945 123.707 132.807 124.322 132.807C125.118 132.807 125.772 133 126.284 133.386C126.804 133.772 127.146 134.308 127.312 134.994H126.154C126.043 134.6 125.827 134.288 125.504 134.06C125.189 133.831 124.795 133.717 124.322 133.717C123.707 133.717 123.211 133.93 122.833 134.355C122.455 134.773 122.265 135.368 122.265 136.14C122.265 136.92 122.455 137.523 122.833 137.948C123.211 138.374 123.707 138.586 124.322 138.586C124.795 138.586 125.189 138.476 125.504 138.255C125.819 138.035 126.035 137.72 126.154 137.31H127.312C127.139 137.972 126.792 138.504 126.272 138.905C125.752 139.299 125.102 139.496 124.322 139.496C123.707 139.496 123.16 139.358 122.679 139.083C122.206 138.807 121.836 138.417 121.568 137.913C121.3 137.408 121.166 136.817 121.166 136.14ZM131.961 132.795C132.45 132.795 132.891 132.902 133.285 133.114C133.679 133.319 133.986 133.63 134.207 134.048C134.435 134.466 134.55 134.974 134.55 135.573V139.39H133.486V135.726C133.486 135.08 133.324 134.588 133.001 134.249C132.678 133.902 132.237 133.729 131.678 133.729C131.11 133.729 130.657 133.906 130.319 134.261C129.988 134.615 129.822 135.131 129.822 135.809V139.39H128.747V130.644H129.822V133.835C130.035 133.504 130.327 133.248 130.697 133.067C131.075 132.886 131.497 132.795 131.961 132.795ZM135.904 136.128C135.904 135.466 136.038 134.887 136.306 134.391C136.574 133.887 136.941 133.497 137.405 133.221C137.878 132.945 138.402 132.807 138.977 132.807C139.544 132.807 140.037 132.929 140.454 133.174C140.872 133.418 141.183 133.725 141.388 134.095V132.914H142.475V139.39H141.388V138.184C141.175 138.563 140.856 138.878 140.431 139.13C140.013 139.374 139.525 139.496 138.965 139.496C138.39 139.496 137.87 139.354 137.405 139.071C136.941 138.787 136.574 138.389 136.306 137.877C136.038 137.365 135.904 136.782 135.904 136.128ZM141.388 136.14C141.388 135.651 141.29 135.226 141.093 134.864C140.896 134.501 140.628 134.225 140.289 134.036C139.958 133.839 139.592 133.741 139.19 133.741C138.788 133.741 138.422 133.835 138.091 134.024C137.76 134.214 137.496 134.489 137.299 134.852C137.102 135.214 137.004 135.64 137.004 136.128C137.004 136.624 137.102 137.058 137.299 137.428C137.496 137.79 137.76 138.07 138.091 138.267C138.422 138.456 138.788 138.551 139.19 138.551C139.592 138.551 139.958 138.456 140.289 138.267C140.628 138.07 140.896 137.79 141.093 137.428C141.29 137.058 141.388 136.628 141.388 136.14ZM145.368 133.965C145.557 133.595 145.825 133.307 146.172 133.103C146.526 132.898 146.956 132.795 147.46 132.795V133.906H147.176C145.971 133.906 145.368 134.56 145.368 135.868V139.39H144.293V132.914H145.368V133.965ZM151.372 132.807C151.932 132.807 152.42 132.929 152.838 133.174C153.263 133.418 153.579 133.725 153.783 134.095V132.914H154.871V139.532C154.871 140.123 154.745 140.647 154.492 141.104C154.24 141.568 153.878 141.931 153.405 142.191C152.94 142.451 152.397 142.581 151.774 142.581C150.923 142.581 150.214 142.38 149.647 141.978C149.08 141.576 148.745 141.029 148.642 140.335H149.706C149.824 140.729 150.069 141.044 150.439 141.281C150.809 141.525 151.254 141.647 151.774 141.647C152.365 141.647 152.846 141.462 153.216 141.092C153.594 140.721 153.783 140.201 153.783 139.532V138.173C153.571 138.551 153.255 138.866 152.838 139.118C152.42 139.37 151.932 139.496 151.372 139.496C150.797 139.496 150.273 139.354 149.801 139.071C149.336 138.787 148.969 138.389 148.702 137.877C148.434 137.365 148.3 136.782 148.3 136.128C148.3 135.466 148.434 134.887 148.702 134.391C148.969 133.887 149.336 133.497 149.801 133.221C150.273 132.945 150.797 132.807 151.372 132.807ZM153.783 136.14C153.783 135.651 153.685 135.226 153.488 134.864C153.291 134.501 153.023 134.225 152.684 134.036C152.353 133.839 151.987 133.741 151.585 133.741C151.183 133.741 150.817 133.835 150.486 134.024C150.155 134.214 149.891 134.489 149.694 134.852C149.497 135.214 149.399 135.64 149.399 136.128C149.399 136.624 149.497 137.058 149.694 137.428C149.891 137.79 150.155 138.07 150.486 138.267C150.817 138.456 151.183 138.551 151.585 138.551C151.987 138.551 152.353 138.456 152.684 138.267C153.023 138.07 153.291 137.79 153.488 137.428C153.685 137.058 153.783 136.628 153.783 136.14ZM162.597 135.904C162.597 136.108 162.585 136.325 162.562 136.554H157.385C157.425 137.192 157.641 137.692 158.035 138.054C158.437 138.409 158.922 138.586 159.489 138.586C159.954 138.586 160.34 138.48 160.647 138.267C160.962 138.047 161.183 137.755 161.309 137.393H162.467C162.294 138.015 161.947 138.523 161.427 138.917C160.907 139.303 160.261 139.496 159.489 139.496C158.874 139.496 158.323 139.358 157.834 139.083C157.354 138.807 156.976 138.417 156.7 137.913C156.424 137.4 156.286 136.81 156.286 136.14C156.286 135.47 156.42 134.883 156.688 134.379C156.956 133.875 157.33 133.489 157.811 133.221C158.299 132.945 158.859 132.807 159.489 132.807C160.104 132.807 160.647 132.941 161.12 133.209C161.593 133.477 161.955 133.847 162.207 134.32C162.467 134.785 162.597 135.313 162.597 135.904ZM161.486 135.679C161.486 135.269 161.396 134.919 161.214 134.627C161.033 134.328 160.785 134.103 160.47 133.954C160.163 133.796 159.82 133.717 159.442 133.717C158.898 133.717 158.433 133.89 158.047 134.237C157.669 134.584 157.452 135.064 157.397 135.679H161.486ZM165.092 133.965C165.281 133.595 165.549 133.307 165.896 133.103C166.25 132.898 166.68 132.795 167.184 132.795V133.906H166.9C165.695 133.906 165.092 134.56 165.092 135.868V139.39H164.017V132.914H165.092V133.965Z" fill="#2E2C43"/>
<path d="M141.328 163.614C141.179 162.864 140.716 162.489 139.94 162.489C139.339 162.489 138.89 162.722 138.593 163.188C138.295 163.647 138.15 164.407 138.157 165.467C138.312 165.116 138.569 164.843 138.927 164.647C139.291 164.444 139.697 164.343 140.142 164.343C140.838 164.343 141.392 164.559 141.804 164.991C142.222 165.423 142.432 166.021 142.432 166.784C142.432 167.243 142.341 167.655 142.158 168.02C141.983 168.385 141.713 168.675 141.348 168.891C140.99 169.107 140.554 169.215 140.041 169.215C139.345 169.215 138.802 169.06 138.41 168.749C138.018 168.439 137.745 168.01 137.59 167.463C137.434 166.916 137.357 166.241 137.357 165.437C137.357 162.958 138.221 161.719 139.95 161.719C140.612 161.719 141.132 161.898 141.51 162.256C141.888 162.614 142.111 163.066 142.178 163.614H141.328ZM139.95 165.123C139.66 165.123 139.386 165.184 139.129 165.305C138.873 165.42 138.663 165.599 138.501 165.842C138.346 166.078 138.268 166.369 138.268 166.713C138.268 167.226 138.417 167.645 138.714 167.969C139.011 168.287 139.437 168.445 139.99 168.445C140.463 168.445 140.838 168.3 141.115 168.01C141.398 167.713 141.54 167.314 141.54 166.815C141.54 166.288 141.405 165.876 141.135 165.579C140.865 165.275 140.47 165.123 139.95 165.123ZM144.121 169.256C143.945 169.256 143.797 169.195 143.675 169.074C143.554 168.952 143.493 168.803 143.493 168.628C143.493 168.452 143.554 168.304 143.675 168.182C143.797 168.061 143.945 168 144.121 168C144.29 168 144.432 168.061 144.547 168.182C144.668 168.304 144.729 168.452 144.729 168.628C144.729 168.803 144.668 168.952 144.547 169.074C144.432 169.195 144.29 169.256 144.121 169.256ZM144.121 164.92C143.945 164.92 143.797 164.859 143.675 164.738C143.554 164.616 143.493 164.468 143.493 164.292C143.493 164.117 143.554 163.968 143.675 163.846C143.797 163.725 143.945 163.664 144.121 163.664C144.29 163.664 144.432 163.725 144.547 163.846C144.668 163.968 144.729 164.117 144.729 164.292C144.729 164.468 144.668 164.616 144.547 164.738C144.432 164.859 144.29 164.92 144.121 164.92ZM145.832 165.457C145.832 164.296 146.021 163.391 146.399 162.742C146.777 162.087 147.439 161.76 148.385 161.76C149.323 161.76 149.982 162.087 150.36 162.742C150.738 163.391 150.927 164.296 150.927 165.457C150.927 166.639 150.738 167.557 150.36 168.212C149.982 168.868 149.323 169.195 148.385 169.195C147.439 169.195 146.777 168.868 146.399 168.212C146.021 167.557 145.832 166.639 145.832 165.457ZM150.016 165.457C150.016 164.87 149.975 164.373 149.894 163.968C149.82 163.556 149.661 163.225 149.418 162.975C149.181 162.725 148.837 162.601 148.385 162.601C147.925 162.601 147.574 162.725 147.331 162.975C147.095 163.225 146.936 163.556 146.855 163.968C146.781 164.373 146.744 164.87 146.744 165.457C146.744 166.065 146.781 166.575 146.855 166.987C146.936 167.399 147.095 167.73 147.331 167.979C147.574 168.229 147.925 168.354 148.385 168.354C148.837 168.354 149.181 168.229 149.418 167.979C149.661 167.73 149.82 167.399 149.894 166.987C149.975 166.575 150.016 166.065 150.016 165.457ZM152.193 165.457C152.193 164.296 152.382 163.391 152.76 162.742C153.138 162.087 153.8 161.76 154.745 161.76C155.684 161.76 156.343 162.087 156.721 162.742C157.099 163.391 157.288 164.296 157.288 165.457C157.288 166.639 157.099 167.557 156.721 168.212C156.343 168.868 155.684 169.195 154.745 169.195C153.8 169.195 153.138 168.868 152.76 168.212C152.382 167.557 152.193 166.639 152.193 165.457ZM156.376 165.457C156.376 164.87 156.336 164.373 156.255 163.968C156.181 163.556 156.022 163.225 155.779 162.975C155.542 162.725 155.198 162.601 154.745 162.601C154.286 162.601 153.935 162.725 153.692 162.975C153.456 163.225 153.297 163.556 153.216 163.968C153.142 164.373 153.104 164.87 153.104 165.457C153.104 166.065 153.142 166.575 153.216 166.987C153.297 167.399 153.456 167.73 153.692 167.979C153.935 168.229 154.286 168.354 154.745 168.354C155.198 168.354 155.542 168.229 155.779 167.979C156.022 167.73 156.181 167.399 156.255 166.987C156.336 166.575 156.376 166.065 156.376 165.457ZM166.127 164.201C166.127 164.789 165.924 165.278 165.519 165.67C165.12 166.055 164.509 166.247 163.685 166.247H162.328V169.195H161.406V162.135H163.685C164.482 162.135 165.087 162.327 165.499 162.712C165.917 163.097 166.127 163.593 166.127 164.201ZM163.685 165.488C164.199 165.488 164.577 165.376 164.82 165.153C165.063 164.93 165.185 164.613 165.185 164.201C165.185 163.33 164.685 162.894 163.685 162.894H162.328V165.488H163.685ZM174.434 162.185V169.195H173.512V163.968L171.183 169.195H170.534L168.194 163.958V169.195H167.272V162.185H168.265L170.858 167.979L173.452 162.185H174.434Z" fill="#001B33"/>
<path d="M126.517 159.947C123.01 159.947 120.167 162.503 120.167 165.657C120.167 168.81 123.01 171.367 126.517 171.367C130.024 171.367 132.868 168.81 132.868 165.657C132.868 162.503 130.024 159.947 126.517 159.947ZM126.517 170.398C123.606 170.398 121.244 168.275 121.244 165.657C121.244 163.039 123.606 160.915 126.517 160.915C129.429 160.915 131.79 163.039 131.79 165.657C131.79 168.275 129.429 170.398 126.517 170.398Z" fill="#001B33"/>
<path d="M128.993 167.27L126.972 165.956V162.801C126.972 162.745 126.921 162.699 126.859 162.699H126.177C126.115 162.699 126.063 162.745 126.063 162.801V166.312C126.063 166.345 126.08 166.375 126.11 166.394L128.455 167.932C128.506 167.965 128.577 167.955 128.614 167.91L129.019 167.413C129.056 167.366 129.044 167.302 128.993 167.27Z" fill="#001B33"/>
<path d="M206.275 162.712V161.871H208.179V169.195H207.247V162.712H206.275ZM214.432 162.671H210.877V164.981C211.032 164.765 211.262 164.589 211.566 164.454C211.869 164.312 212.197 164.242 212.548 164.242C213.109 164.242 213.565 164.36 213.916 164.596C214.267 164.826 214.517 165.126 214.665 165.498C214.821 165.862 214.898 166.251 214.898 166.663C214.898 167.149 214.807 167.584 214.625 167.969C214.442 168.354 214.162 168.658 213.784 168.881C213.413 169.104 212.95 169.215 212.396 169.215C211.687 169.215 211.113 169.033 210.674 168.668C210.235 168.304 209.968 167.817 209.874 167.21H210.775C210.863 167.595 211.049 167.895 211.333 168.111C211.616 168.327 211.974 168.435 212.406 168.435C212.94 168.435 213.342 168.277 213.612 167.959C213.882 167.635 214.017 167.21 214.017 166.683C214.017 166.156 213.882 165.751 213.612 165.467C213.342 165.177 212.943 165.032 212.416 165.032C212.059 165.032 211.745 165.119 211.474 165.295C211.211 165.464 211.019 165.697 210.897 165.994H210.026V161.861H214.432V162.671ZM224.527 169.195H223.605L219.898 163.573V169.195H218.976V162.124H219.898L223.605 167.736V162.124H224.527V169.195ZM228.519 169.286C227.999 169.286 227.527 169.168 227.101 168.932C226.683 168.695 226.352 168.361 226.109 167.929C225.872 167.49 225.754 166.983 225.754 166.409C225.754 165.842 225.876 165.342 226.119 164.91C226.369 164.471 226.706 164.137 227.132 163.907C227.557 163.671 228.033 163.553 228.56 163.553C229.087 163.553 229.563 163.671 229.988 163.907C230.414 164.137 230.748 164.468 230.991 164.9C231.241 165.332 231.366 165.835 231.366 166.409C231.366 166.983 231.238 167.49 230.981 167.929C230.731 168.361 230.39 168.695 229.958 168.932C229.526 169.168 229.046 169.286 228.519 169.286ZM228.519 168.476C228.85 168.476 229.161 168.398 229.451 168.243C229.742 168.088 229.975 167.855 230.15 167.544C230.333 167.233 230.424 166.855 230.424 166.409C230.424 165.964 230.336 165.585 230.161 165.275C229.985 164.964 229.755 164.735 229.472 164.586C229.188 164.431 228.881 164.353 228.55 164.353C228.212 164.353 227.902 164.431 227.618 164.586C227.341 164.735 227.118 164.964 226.949 165.275C226.781 165.585 226.696 165.964 226.696 166.409C226.696 166.862 226.777 167.243 226.939 167.554C227.108 167.865 227.331 168.098 227.608 168.253C227.885 168.402 228.189 168.476 228.519 168.476ZM234.644 168.344L236.367 163.644H237.349L235.171 169.195H234.097L231.92 163.644H232.912L234.644 168.344ZM240.694 168.456C241.551 167.767 242.223 167.203 242.709 166.764C243.196 166.318 243.604 165.856 243.935 165.376C244.273 164.89 244.442 164.414 244.442 163.948C244.442 163.509 244.334 163.164 244.117 162.915C243.908 162.658 243.567 162.53 243.094 162.53C242.635 162.53 242.277 162.675 242.021 162.965C241.771 163.249 241.636 163.63 241.615 164.11H240.724C240.751 163.354 240.981 162.769 241.413 162.357C241.845 161.945 242.402 161.739 243.084 161.739C243.78 161.739 244.33 161.932 244.735 162.317C245.147 162.702 245.353 163.232 245.353 163.907C245.353 164.468 245.184 165.015 244.847 165.548C244.516 166.075 244.138 166.541 243.712 166.946C243.287 167.345 242.743 167.811 242.081 168.344H245.566V169.114H240.694V168.456ZM246.632 165.457C246.632 164.296 246.821 163.391 247.199 162.742C247.577 162.087 248.239 161.76 249.184 161.76C250.123 161.76 250.781 162.087 251.16 162.742C251.538 163.391 251.727 164.296 251.727 165.457C251.727 166.639 251.538 167.557 251.16 168.212C250.781 168.868 250.123 169.195 249.184 169.195C248.239 169.195 247.577 168.868 247.199 168.212C246.821 167.557 246.632 166.639 246.632 165.457ZM250.815 165.457C250.815 164.87 250.775 164.373 250.694 163.968C250.619 163.556 250.461 163.225 250.218 162.975C249.981 162.725 249.637 162.601 249.184 162.601C248.725 162.601 248.374 162.725 248.131 162.975C247.894 163.225 247.736 163.556 247.655 163.968C247.58 164.373 247.543 164.87 247.543 165.457C247.543 166.065 247.58 166.575 247.655 166.987C247.736 167.399 247.894 167.73 248.131 167.979C248.374 168.229 248.725 168.354 249.184 168.354C249.637 168.354 249.981 168.229 250.218 167.979C250.461 167.73 250.619 167.399 250.694 166.987C250.775 166.575 250.815 166.065 250.815 165.457ZM252.881 168.456C253.739 167.767 254.411 167.203 254.897 166.764C255.383 166.318 255.792 165.856 256.123 165.376C256.46 164.89 256.629 164.414 256.629 163.948C256.629 163.509 256.521 163.164 256.305 162.915C256.096 162.658 255.755 162.53 255.282 162.53C254.823 162.53 254.465 162.675 254.208 162.965C253.958 163.249 253.823 163.63 253.803 164.11H252.911C252.938 163.354 253.168 162.769 253.6 162.357C254.032 161.945 254.59 161.739 255.272 161.739C255.967 161.739 256.518 161.932 256.923 162.317C257.335 162.702 257.541 163.232 257.541 163.907C257.541 164.468 257.372 165.015 257.034 165.548C256.703 166.075 256.325 166.541 255.9 166.946C255.474 167.345 254.931 167.811 254.269 168.344H257.753V169.114H252.881V168.456ZM258.708 168.456C259.565 167.767 260.237 167.203 260.724 166.764C261.21 166.318 261.618 165.856 261.949 165.376C262.287 164.89 262.456 164.414 262.456 163.948C262.456 163.509 262.348 163.164 262.132 162.915C261.922 162.658 261.581 162.53 261.108 162.53C260.649 162.53 260.291 162.675 260.035 162.965C259.785 163.249 259.65 163.63 259.629 164.11H258.738C258.765 163.354 258.995 162.769 259.427 162.357C259.859 161.945 260.416 161.739 261.098 161.739C261.794 161.739 262.344 161.932 262.749 162.317C263.161 162.702 263.367 163.232 263.367 163.907C263.367 164.468 263.199 165.015 262.861 165.548C262.53 166.075 262.152 166.541 261.726 166.946C261.301 167.345 260.757 167.811 260.095 168.344H263.58V169.114H258.708V168.456Z" fill="#001B33"/>
<path d="M200.04 160.924H198.985V160.449C198.985 160.324 198.929 160.203 198.83 160.114C198.731 160.025 198.597 159.975 198.457 159.975C198.317 159.975 198.183 160.025 198.084 160.114C197.985 160.203 197.929 160.324 197.929 160.449V160.924H194.762V160.449C194.762 160.324 194.707 160.203 194.608 160.114C194.509 160.025 194.374 159.975 194.234 159.975C194.094 159.975 193.96 160.025 193.861 160.114C193.762 160.203 193.706 160.324 193.706 160.449V160.924H192.651C192.231 160.924 191.828 161.074 191.531 161.341C191.234 161.608 191.067 161.97 191.067 162.348V168.043C191.067 168.421 191.234 168.783 191.531 169.05C191.828 169.317 192.231 169.467 192.651 169.467H200.04C200.46 169.467 200.863 169.317 201.16 169.05C201.457 168.783 201.624 168.421 201.624 168.043V162.348C201.624 161.97 201.457 161.608 201.16 161.341C200.863 161.074 200.46 160.924 200.04 160.924ZM200.568 168.043C200.568 168.169 200.513 168.29 200.414 168.379C200.315 168.468 200.18 168.518 200.04 168.518H192.651C192.511 168.518 192.377 168.468 192.278 168.379C192.179 168.29 192.123 168.169 192.123 168.043V164.721H200.568V168.043ZM200.568 163.772H192.123V162.348C192.123 162.222 192.179 162.101 192.278 162.012C192.377 161.923 192.511 161.873 192.651 161.873H193.706V162.348C193.706 162.474 193.762 162.594 193.861 162.683C193.96 162.772 194.094 162.822 194.234 162.822C194.374 162.822 194.509 162.772 194.608 162.683C194.707 162.594 194.762 162.474 194.762 162.348V161.873H197.929V162.348C197.929 162.474 197.985 162.594 198.084 162.683C198.183 162.772 198.317 162.822 198.457 162.822C198.597 162.822 198.731 162.772 198.83 162.683C198.929 162.594 198.985 162.474 198.985 162.348V161.873H200.04C200.18 161.873 200.315 161.923 200.414 162.012C200.513 162.101 200.568 162.222 200.568 162.348V163.772Z" fill="#263238"/>
<path d="M121.633 147.048V149.114H124.064V150.056H121.633V152.214H124.368V153.156H120.478V146.106H124.368V147.048H121.633ZM128.181 150.33L129.985 153.156H128.678L127.472 151.262L126.338 153.156H125.132L126.935 150.411L125.132 147.574H126.439L127.645 149.469L128.779 147.574H129.985L128.181 150.33ZM132.001 148.395C132.196 148.138 132.463 147.922 132.801 147.747C133.139 147.571 133.52 147.483 133.946 147.483C134.432 147.483 134.874 147.605 135.273 147.848C135.678 148.084 135.995 148.419 136.225 148.851C136.454 149.283 136.569 149.779 136.569 150.34C136.569 150.9 136.454 151.404 136.225 151.849C135.995 152.288 135.678 152.633 135.273 152.882C134.874 153.126 134.432 153.247 133.946 153.247C133.52 153.247 133.142 153.163 132.811 152.994C132.48 152.818 132.21 152.602 132.001 152.346V155.81H130.846V147.574H132.001V148.395ZM135.394 150.34C135.394 149.955 135.313 149.624 135.151 149.347C134.996 149.064 134.786 148.851 134.523 148.709C134.266 148.56 133.989 148.486 133.692 148.486C133.402 148.486 133.125 148.56 132.862 148.709C132.605 148.858 132.396 149.074 132.234 149.357C132.078 149.641 132.001 149.975 132.001 150.36C132.001 150.745 132.078 151.083 132.234 151.373C132.396 151.657 132.605 151.873 132.862 152.021C133.125 152.17 133.402 152.244 133.692 152.244C133.989 152.244 134.266 152.17 134.523 152.021C134.786 151.866 134.996 151.643 135.151 151.353C135.313 151.062 135.394 150.725 135.394 150.34ZM142.827 150.228C142.827 150.438 142.813 150.627 142.786 150.796H138.522C138.555 151.241 138.721 151.599 139.018 151.87C139.315 152.14 139.68 152.275 140.112 152.275C140.733 152.275 141.172 152.015 141.429 151.495H142.675C142.506 152.008 142.199 152.43 141.753 152.761C141.314 153.085 140.767 153.247 140.112 153.247C139.578 153.247 139.099 153.129 138.673 152.893C138.255 152.65 137.924 152.312 137.681 151.88C137.444 151.441 137.326 150.934 137.326 150.36C137.326 149.786 137.441 149.283 137.671 148.851C137.907 148.412 138.235 148.074 138.653 147.838C139.079 147.601 139.565 147.483 140.112 147.483C140.639 147.483 141.108 147.598 141.52 147.828C141.932 148.057 142.253 148.381 142.482 148.8C142.712 149.212 142.827 149.688 142.827 150.228ZM141.621 149.864C141.615 149.438 141.463 149.097 141.165 148.841C140.868 148.584 140.5 148.456 140.061 148.456C139.663 148.456 139.322 148.584 139.038 148.841C138.755 149.091 138.586 149.432 138.532 149.864H141.621ZM143.578 150.36C143.578 149.786 143.693 149.283 143.923 148.851C144.159 148.412 144.483 148.074 144.895 147.838C145.307 147.601 145.78 147.483 146.313 147.483C146.989 147.483 147.546 147.645 147.985 147.97C148.43 148.287 148.731 148.743 148.886 149.337H147.64C147.539 149.06 147.377 148.844 147.154 148.689C146.931 148.533 146.651 148.456 146.313 148.456C145.841 148.456 145.462 148.625 145.179 148.962C144.902 149.293 144.763 149.759 144.763 150.36C144.763 150.961 144.902 151.431 145.179 151.768C145.462 152.106 145.841 152.275 146.313 152.275C146.982 152.275 147.424 151.981 147.64 151.393H148.886C148.724 151.961 148.42 152.413 147.975 152.751C147.529 153.082 146.975 153.247 146.313 153.247C145.78 153.247 145.307 153.129 144.895 152.893C144.483 152.65 144.159 152.312 143.923 151.88C143.693 151.441 143.578 150.934 143.578 150.36ZM151.384 148.517V151.606C151.384 151.815 151.432 151.967 151.526 152.062C151.628 152.15 151.796 152.194 152.033 152.194H152.742V153.156H151.83C151.31 153.156 150.912 153.034 150.635 152.791C150.358 152.548 150.219 152.153 150.219 151.606V148.517H149.561V147.574H150.219V146.187H151.384V147.574H152.742V148.517H151.384ZM158.922 150.228C158.922 150.438 158.908 150.627 158.881 150.796H154.617C154.65 151.241 154.816 151.599 155.113 151.87C155.41 152.14 155.775 152.275 156.207 152.275C156.828 152.275 157.267 152.015 157.524 151.495H158.77C158.601 152.008 158.294 152.43 157.848 152.761C157.409 153.085 156.862 153.247 156.207 153.247C155.673 153.247 155.194 153.129 154.768 152.893C154.35 152.65 154.019 152.312 153.776 151.88C153.539 151.441 153.421 150.934 153.421 150.36C153.421 149.786 153.536 149.283 153.766 148.851C154.002 148.412 154.33 148.074 154.748 147.838C155.174 147.601 155.66 147.483 156.207 147.483C156.734 147.483 157.203 147.598 157.615 147.828C158.027 148.057 158.348 148.381 158.577 148.8C158.807 149.212 158.922 149.688 158.922 150.228ZM157.716 149.864C157.71 149.438 157.558 149.097 157.26 148.841C156.963 148.584 156.595 148.456 156.156 148.456C155.758 148.456 155.417 148.584 155.133 148.841C154.85 149.091 154.681 149.432 154.627 149.864H157.716ZM159.673 150.34C159.673 149.779 159.788 149.283 160.018 148.851C160.254 148.419 160.571 148.084 160.97 147.848C161.375 147.605 161.824 147.483 162.317 147.483C162.682 147.483 163.04 147.564 163.391 147.726C163.749 147.882 164.032 148.091 164.242 148.354V145.66H165.407V153.156H164.242V152.315C164.053 152.585 163.789 152.808 163.452 152.984C163.121 153.159 162.739 153.247 162.307 153.247C161.821 153.247 161.375 153.126 160.97 152.882C160.571 152.633 160.254 152.288 160.018 151.849C159.788 151.404 159.673 150.9 159.673 150.34ZM164.242 150.36C164.242 149.975 164.161 149.641 163.999 149.357C163.843 149.074 163.637 148.858 163.381 148.709C163.124 148.56 162.847 148.486 162.55 148.486C162.253 148.486 161.976 148.56 161.719 148.709C161.463 148.851 161.254 149.064 161.091 149.347C160.936 149.624 160.858 149.955 160.858 150.34C160.858 150.725 160.936 151.062 161.091 151.353C161.254 151.643 161.463 151.866 161.719 152.021C161.983 152.17 162.26 152.244 162.55 152.244C162.847 152.244 163.124 152.17 163.381 152.021C163.637 151.873 163.843 151.657 163.999 151.373C164.161 151.083 164.242 150.745 164.242 150.36ZM174.478 148.213C174.478 148.571 174.394 148.908 174.225 149.226C174.056 149.543 173.786 149.803 173.414 150.006C173.043 150.201 172.567 150.299 171.986 150.299H170.71V153.156H169.555V146.116H171.986C172.526 146.116 172.982 146.21 173.354 146.399C173.732 146.582 174.012 146.832 174.194 147.149C174.384 147.466 174.478 147.821 174.478 148.213ZM171.986 149.357C172.425 149.357 172.753 149.259 172.969 149.064C173.185 148.861 173.293 148.577 173.293 148.213C173.293 147.443 172.857 147.058 171.986 147.058H170.71V149.357H171.986ZM176.734 148.385C176.903 148.101 177.126 147.882 177.403 147.726C177.686 147.564 178.021 147.483 178.406 147.483V148.679H178.112C177.659 148.679 177.315 148.793 177.079 149.023C176.849 149.253 176.734 149.651 176.734 150.218V153.156H175.579V147.574H176.734V148.385ZM180.055 146.835C179.845 146.835 179.67 146.764 179.528 146.622C179.386 146.48 179.315 146.305 179.315 146.095C179.315 145.886 179.386 145.711 179.528 145.569C179.67 145.427 179.845 145.356 180.055 145.356C180.257 145.356 180.43 145.427 180.571 145.569C180.713 145.711 180.784 145.886 180.784 146.095C180.784 146.305 180.713 146.48 180.571 146.622C180.43 146.764 180.257 146.835 180.055 146.835ZM180.622 147.574V153.156H179.467V147.574H180.622ZM181.753 150.36C181.753 149.786 181.868 149.283 182.098 148.851C182.334 148.412 182.658 148.074 183.07 147.838C183.482 147.601 183.955 147.483 184.488 147.483C185.164 147.483 185.721 147.645 186.16 147.97C186.605 148.287 186.906 148.743 187.061 149.337H185.815C185.714 149.06 185.552 148.844 185.329 148.689C185.106 148.533 184.826 148.456 184.488 148.456C184.016 148.456 183.637 148.625 183.354 148.962C183.077 149.293 182.938 149.759 182.938 150.36C182.938 150.961 183.077 151.431 183.354 151.768C183.637 152.106 184.016 152.275 184.488 152.275C185.157 152.275 185.599 151.981 185.815 151.393H187.061C186.899 151.961 186.595 152.413 186.15 152.751C185.704 153.082 185.15 153.247 184.488 153.247C183.955 153.247 183.482 153.129 183.07 152.893C182.658 152.65 182.334 152.312 182.098 151.88C181.868 151.441 181.753 150.934 181.753 150.36ZM193.328 150.228C193.328 150.438 193.314 150.627 193.287 150.796H189.022C189.056 151.241 189.222 151.599 189.519 151.87C189.816 152.14 190.181 152.275 190.613 152.275C191.234 152.275 191.673 152.015 191.93 151.495H193.176C193.007 152.008 192.7 152.43 192.254 152.761C191.815 153.085 191.268 153.247 190.613 153.247C190.079 153.247 189.6 153.129 189.174 152.893C188.756 152.65 188.425 152.312 188.182 151.88C187.945 151.441 187.827 150.934 187.827 150.36C187.827 149.786 187.942 149.283 188.172 148.851C188.408 148.412 188.735 148.074 189.154 147.838C189.58 147.601 190.066 147.483 190.613 147.483C191.14 147.483 191.609 147.598 192.021 147.828C192.433 148.057 192.754 148.381 192.983 148.8C193.213 149.212 193.328 149.688 193.328 150.228ZM192.122 149.864C192.115 149.438 191.964 149.097 191.666 148.841C191.369 148.584 191.001 148.456 190.562 148.456C190.164 148.456 189.823 148.584 189.539 148.841C189.255 149.091 189.087 149.432 189.033 149.864H192.122ZM194.93 153.227C194.721 153.227 194.545 153.156 194.403 153.014C194.262 152.872 194.191 152.697 194.191 152.487C194.191 152.278 194.262 152.102 194.403 151.961C194.545 151.819 194.721 151.748 194.93 151.748C195.133 151.748 195.305 151.819 195.447 151.961C195.589 152.102 195.659 152.278 195.659 152.487C195.659 152.697 195.589 152.872 195.447 153.014C195.305 153.156 195.133 153.227 194.93 153.227ZM194.93 148.972C194.721 148.972 194.545 148.901 194.403 148.76C194.262 148.618 194.191 148.442 194.191 148.233C194.191 148.024 194.262 147.848 194.403 147.706C194.545 147.564 194.721 147.493 194.93 147.493C195.133 147.493 195.305 147.564 195.447 147.706C195.589 147.848 195.659 148.024 195.659 148.233C195.659 148.442 195.589 148.618 195.447 148.76C195.305 148.901 195.133 148.972 194.93 148.972Z" fill="#2E2C43"/>
<path d="M201.239 147.372V145.761H204.045V153.156H202.242V147.372H201.239ZM205.169 151.768C205.399 151.586 205.503 151.501 205.483 151.515C206.145 150.968 206.665 150.519 207.043 150.168C207.428 149.817 207.752 149.448 208.016 149.064C208.279 148.679 208.411 148.304 208.411 147.939C208.411 147.662 208.347 147.446 208.218 147.291C208.09 147.135 207.897 147.058 207.641 147.058C207.384 147.058 207.182 147.156 207.033 147.352C206.891 147.541 206.82 147.811 206.82 148.162H205.149C205.162 147.588 205.284 147.108 205.514 146.724C205.75 146.339 206.057 146.055 206.435 145.873C206.82 145.69 207.246 145.599 207.712 145.599C208.515 145.599 209.12 145.805 209.525 146.217C209.937 146.629 210.143 147.166 210.143 147.828C210.143 148.55 209.896 149.222 209.403 149.844C208.91 150.458 208.282 151.059 207.519 151.647H210.254V153.055H205.169V151.768ZM211.078 147.848C211.105 147.125 211.341 146.568 211.787 146.177C212.233 145.785 212.837 145.589 213.6 145.589C214.107 145.589 214.539 145.677 214.897 145.852C215.261 146.028 215.535 146.268 215.717 146.572C215.906 146.875 216.001 147.217 216.001 147.595C216.001 148.04 215.889 148.405 215.667 148.689C215.444 148.966 215.184 149.155 214.887 149.256V149.297C215.272 149.425 215.575 149.638 215.798 149.935C216.021 150.232 216.133 150.613 216.133 151.079C216.133 151.498 216.035 151.87 215.839 152.194C215.65 152.511 215.369 152.761 214.998 152.943C214.633 153.126 214.198 153.217 213.691 153.217C212.881 153.217 212.233 153.018 211.746 152.619C211.267 152.221 211.014 151.62 210.987 150.816H212.668C212.675 151.113 212.759 151.35 212.921 151.525C213.083 151.694 213.32 151.778 213.63 151.778C213.894 151.778 214.096 151.704 214.238 151.555C214.387 151.4 214.461 151.198 214.461 150.948C214.461 150.624 214.356 150.391 214.147 150.249C213.945 150.1 213.617 150.026 213.165 150.026H212.84V148.618H213.165C213.509 148.618 213.786 148.56 213.995 148.446C214.211 148.324 214.319 148.111 214.319 147.807C214.319 147.564 214.252 147.375 214.117 147.24C213.982 147.105 213.796 147.038 213.56 147.038C213.303 147.038 213.11 147.115 212.982 147.271C212.861 147.426 212.79 147.618 212.769 147.848H211.078ZM217.15 149.357C217.15 148.196 217.373 147.281 217.819 146.612C218.271 145.944 218.997 145.609 219.997 145.609C220.996 145.609 221.719 145.944 222.165 146.612C222.617 147.281 222.843 148.196 222.843 149.357C222.843 150.532 222.617 151.454 222.165 152.123C221.719 152.791 220.996 153.126 219.997 153.126C218.997 153.126 218.271 152.791 217.819 152.123C217.373 151.454 217.15 150.532 217.15 149.357ZM221.141 149.357C221.141 148.675 221.067 148.152 220.919 147.787C220.77 147.416 220.463 147.23 219.997 147.23C219.531 147.23 219.224 147.416 219.075 147.787C218.926 148.152 218.852 148.675 218.852 149.357C218.852 149.817 218.879 150.198 218.933 150.502C218.987 150.799 219.095 151.042 219.257 151.231C219.426 151.414 219.673 151.505 219.997 151.505C220.321 151.505 220.564 151.414 220.726 151.231C220.895 151.042 221.006 150.799 221.06 150.502C221.114 150.198 221.141 149.817 221.141 149.357ZM229.704 153.156L228.225 150.472H227.81V153.156H226.077V146.045H228.985C229.545 146.045 230.021 146.143 230.413 146.339C230.811 146.534 231.108 146.805 231.304 147.149C231.5 147.487 231.598 147.865 231.598 148.284C231.598 148.756 231.463 149.178 231.193 149.55C230.93 149.921 230.538 150.185 230.018 150.34L231.659 153.156H229.704ZM227.81 149.246H228.883C229.201 149.246 229.437 149.168 229.592 149.013C229.754 148.858 229.836 148.638 229.836 148.354C229.836 148.084 229.754 147.872 229.592 147.716C229.437 147.561 229.201 147.483 228.883 147.483H227.81V149.246ZM234.985 153.237C234.492 153.237 234.053 153.153 233.668 152.984C233.283 152.815 232.979 152.585 232.756 152.295C232.534 151.998 232.409 151.667 232.382 151.302H234.094C234.114 151.498 234.205 151.657 234.367 151.778C234.529 151.9 234.728 151.961 234.965 151.961C235.181 151.961 235.346 151.92 235.461 151.839C235.583 151.751 235.643 151.64 235.643 151.505C235.643 151.343 235.559 151.225 235.39 151.15C235.221 151.069 234.948 150.981 234.57 150.887C234.164 150.792 233.827 150.694 233.557 150.593C233.287 150.485 233.054 150.32 232.858 150.097C232.662 149.867 232.564 149.56 232.564 149.175C232.564 148.851 232.652 148.557 232.827 148.294C233.01 148.024 233.273 147.811 233.617 147.655C233.969 147.5 234.384 147.422 234.863 147.422C235.572 147.422 236.13 147.598 236.535 147.949C236.947 148.3 237.183 148.766 237.244 149.347H235.643C235.616 149.151 235.529 148.996 235.38 148.881C235.238 148.766 235.049 148.709 234.813 148.709C234.61 148.709 234.455 148.75 234.347 148.831C234.239 148.905 234.185 149.01 234.185 149.145C234.185 149.307 234.269 149.428 234.438 149.509C234.614 149.59 234.884 149.671 235.248 149.752C235.667 149.86 236.008 149.968 236.271 150.077C236.535 150.178 236.764 150.347 236.96 150.583C237.163 150.813 237.268 151.123 237.274 151.515C237.274 151.846 237.18 152.143 236.991 152.406C236.808 152.663 236.542 152.866 236.19 153.014C235.846 153.163 235.444 153.237 234.985 153.237Z" fill="#70B241"/>
<g filter="url(#filter1_d_606_2)">
<path d="M292.585 80.0452H27.6602C22.1648 80.0452 17.71 83.1586 17.71 86.9993V203.48C17.71 207.321 22.1648 210.435 27.6602 210.435H292.585C298.08 210.435 302.535 207.321 302.535 203.48V86.9993C302.535 83.1586 298.08 80.0452 292.585 80.0452Z" fill="white"/>
</g>
<rect x="8" y="74.5371" width="365" height="136.082" rx="21.3462" fill="white"/>
<path d="M89.7537 117.026H86.161L85.4992 118.857H84.3646L87.3428 110.667H88.5837L91.5501 118.857H90.4155L89.7537 117.026ZM89.4464 116.151L87.9573 111.991L86.4682 116.151H89.4464ZM93.9235 113.433C94.1126 113.063 94.3805 112.775 94.7271 112.57C95.0817 112.365 95.5111 112.263 96.0153 112.263V113.374H95.7317C94.5262 113.374 93.9235 114.028 93.9235 115.336V118.857H92.848V112.381H93.9235V113.433ZM103.166 115.371C103.166 115.576 103.154 115.793 103.13 116.021H97.954C97.9934 116.659 98.2101 117.16 98.604 117.522C99.0059 117.877 99.4904 118.054 100.058 118.054C100.523 118.054 100.909 117.947 101.216 117.735C101.531 117.514 101.752 117.223 101.878 116.86H103.036C102.863 117.483 102.516 117.991 101.996 118.385C101.476 118.771 100.83 118.964 100.058 118.964C99.4431 118.964 98.8916 118.826 98.4031 118.55C97.9225 118.274 97.5443 117.884 97.2686 117.38C96.9928 116.868 96.855 116.277 96.855 115.607C96.855 114.938 96.9889 114.351 97.2568 113.847C97.5246 113.342 97.8989 112.956 98.3795 112.688C98.868 112.413 99.4274 112.275 100.058 112.275C100.672 112.275 101.216 112.409 101.689 112.677C102.161 112.944 102.524 113.315 102.776 113.787C103.036 114.252 103.166 114.78 103.166 115.371ZM102.055 115.147C102.055 114.737 101.964 114.386 101.783 114.095C101.602 113.795 101.354 113.571 101.039 113.421C100.731 113.263 100.389 113.185 100.01 113.185C99.4668 113.185 99.0019 113.358 98.6159 113.705C98.2377 114.051 98.021 114.532 97.9659 115.147H102.055ZM113.314 112.381L109.414 121.907H108.303L109.58 118.787L106.968 112.381H108.162L110.194 117.628L112.203 112.381H113.314ZM117.22 118.964C116.613 118.964 116.062 118.826 115.565 118.55C115.077 118.274 114.691 117.884 114.407 117.38C114.131 116.868 113.994 116.277 113.994 115.607C113.994 114.946 114.135 114.363 114.419 113.858C114.711 113.346 115.105 112.956 115.601 112.688C116.097 112.413 116.653 112.275 117.267 112.275C117.882 112.275 118.437 112.413 118.934 112.688C119.43 112.956 119.82 113.342 120.104 113.847C120.395 114.351 120.541 114.938 120.541 115.607C120.541 116.277 120.391 116.868 120.092 117.38C119.8 117.884 119.402 118.274 118.898 118.55C118.394 118.826 117.835 118.964 117.22 118.964ZM117.22 118.018C117.606 118.018 117.968 117.928 118.307 117.747C118.646 117.565 118.918 117.293 119.123 116.931C119.335 116.569 119.442 116.127 119.442 115.607C119.442 115.087 119.339 114.646 119.135 114.284C118.93 113.921 118.662 113.653 118.331 113.48C118 113.299 117.642 113.208 117.255 113.208C116.862 113.208 116.499 113.299 116.168 113.48C115.845 113.653 115.585 113.921 115.388 114.284C115.191 114.646 115.093 115.087 115.093 115.607C115.093 116.135 115.187 116.58 115.376 116.943C115.573 117.305 115.833 117.577 116.156 117.758C116.479 117.932 116.834 118.018 117.22 118.018ZM127.699 112.381V118.857H126.623V117.9C126.418 118.231 126.131 118.491 125.76 118.68C125.398 118.861 124.996 118.952 124.555 118.952C124.051 118.952 123.598 118.85 123.196 118.645C122.794 118.432 122.475 118.117 122.239 117.699C122.01 117.282 121.896 116.773 121.896 116.175V112.381H122.959V116.033C122.959 116.671 123.121 117.163 123.444 117.51C123.767 117.849 124.208 118.018 124.768 118.018C125.343 118.018 125.796 117.841 126.127 117.487C126.458 117.132 126.623 116.616 126.623 115.938V112.381H127.699ZM132.263 115.596C132.263 114.934 132.397 114.355 132.665 113.858C132.933 113.354 133.299 112.964 133.764 112.688C134.237 112.413 134.761 112.275 135.336 112.275C135.903 112.275 136.396 112.397 136.813 112.641C137.231 112.885 137.542 113.193 137.747 113.563V112.381H138.834V118.857H137.747V117.652C137.534 118.03 137.215 118.345 136.79 118.597C136.372 118.842 135.884 118.964 135.324 118.964C134.749 118.964 134.229 118.822 133.764 118.538C133.299 118.255 132.933 117.857 132.665 117.345C132.397 116.833 132.263 116.25 132.263 115.596ZM137.747 115.607C137.747 115.119 137.648 114.693 137.452 114.331C137.255 113.969 136.987 113.693 136.648 113.504C136.317 113.307 135.951 113.208 135.549 113.208C135.147 113.208 134.781 113.303 134.45 113.492C134.119 113.681 133.855 113.957 133.658 114.319C133.461 114.682 133.362 115.107 133.362 115.596C133.362 116.092 133.461 116.525 133.658 116.896C133.855 117.258 134.119 117.538 134.45 117.735C134.781 117.924 135.147 118.018 135.549 118.018C135.951 118.018 136.317 117.924 136.648 117.735C136.987 117.538 137.255 117.258 137.452 116.896C137.648 116.525 137.747 116.096 137.747 115.607ZM140.25 115.607C140.25 114.938 140.384 114.355 140.652 113.858C140.92 113.354 141.29 112.964 141.763 112.688C142.243 112.413 142.791 112.275 143.405 112.275C144.201 112.275 144.855 112.468 145.367 112.854C145.887 113.24 146.23 113.776 146.395 114.461H145.237C145.127 114.067 144.91 113.756 144.587 113.527C144.272 113.299 143.878 113.185 143.405 113.185C142.791 113.185 142.294 113.397 141.916 113.823C141.538 114.24 141.349 114.835 141.349 115.607C141.349 116.387 141.538 116.99 141.916 117.416C142.294 117.841 142.791 118.054 143.405 118.054C143.878 118.054 144.272 117.943 144.587 117.723C144.902 117.502 145.119 117.187 145.237 116.777H146.395C146.222 117.439 145.875 117.971 145.355 118.373C144.835 118.767 144.185 118.964 143.405 118.964C142.791 118.964 142.243 118.826 141.763 118.55C141.29 118.274 140.92 117.884 140.652 117.38C140.384 116.876 140.25 116.285 140.25 115.607ZM147.428 115.607C147.428 114.938 147.562 114.355 147.83 113.858C148.098 113.354 148.468 112.964 148.941 112.688C149.422 112.413 149.969 112.275 150.584 112.275C151.38 112.275 152.034 112.468 152.546 112.854C153.066 113.24 153.408 113.776 153.574 114.461H152.416C152.305 114.067 152.089 113.756 151.766 113.527C151.451 113.299 151.057 113.185 150.584 113.185C149.969 113.185 149.473 113.397 149.095 113.823C148.717 114.24 148.528 114.835 148.528 115.607C148.528 116.387 148.717 116.99 149.095 117.416C149.473 117.841 149.969 118.054 150.584 118.054C151.057 118.054 151.451 117.943 151.766 117.723C152.081 117.502 152.298 117.187 152.416 116.777H153.574C153.401 117.439 153.054 117.971 152.534 118.373C152.014 118.767 151.364 118.964 150.584 118.964C149.969 118.964 149.422 118.826 148.941 118.55C148.468 118.274 148.098 117.884 147.83 117.38C147.562 116.876 147.428 116.285 147.428 115.607ZM160.918 115.371C160.918 115.576 160.906 115.793 160.883 116.021H155.706C155.746 116.659 155.962 117.16 156.356 117.522C156.758 117.877 157.243 118.054 157.81 118.054C158.275 118.054 158.661 117.947 158.968 117.735C159.283 117.514 159.504 117.223 159.63 116.86H160.788C160.615 117.483 160.268 117.991 159.748 118.385C159.228 118.771 158.582 118.964 157.81 118.964C157.195 118.964 156.644 118.826 156.155 118.55C155.675 118.274 155.296 117.884 155.021 117.38C154.745 116.868 154.607 116.277 154.607 115.607C154.607 114.938 154.741 114.351 155.009 113.847C155.277 113.342 155.651 112.956 156.132 112.688C156.62 112.413 157.18 112.275 157.81 112.275C158.424 112.275 158.968 112.409 159.441 112.677C159.913 112.944 160.276 113.315 160.528 113.787C160.788 114.252 160.918 114.78 160.918 115.371ZM159.807 115.147C159.807 114.737 159.716 114.386 159.535 114.095C159.354 113.795 159.106 113.571 158.791 113.421C158.483 113.263 158.141 113.185 157.763 113.185C157.219 113.185 156.754 113.358 156.368 113.705C155.99 114.051 155.773 114.532 155.718 115.147H159.807ZM163.413 113.575C163.626 113.204 163.941 112.897 164.358 112.653C164.784 112.401 165.276 112.275 165.836 112.275C166.411 112.275 166.931 112.413 167.396 112.688C167.868 112.964 168.239 113.354 168.507 113.858C168.775 114.355 168.908 114.934 168.908 115.596C168.908 116.25 168.775 116.833 168.507 117.345C168.239 117.857 167.868 118.255 167.396 118.538C166.931 118.822 166.411 118.964 165.836 118.964C165.284 118.964 164.796 118.842 164.37 118.597C163.953 118.345 163.634 118.034 163.413 117.664V121.93H162.338V112.381H163.413V113.575ZM167.809 115.596C167.809 115.107 167.711 114.682 167.514 114.319C167.317 113.957 167.049 113.681 166.71 113.492C166.379 113.303 166.013 113.208 165.611 113.208C165.217 113.208 164.851 113.307 164.512 113.504C164.181 113.693 163.913 113.973 163.708 114.343C163.511 114.705 163.413 115.127 163.413 115.607C163.413 116.096 163.511 116.525 163.708 116.896C163.913 117.258 164.181 117.538 164.512 117.735C164.851 117.924 165.217 118.018 165.611 118.018C166.013 118.018 166.379 117.924 166.71 117.735C167.049 117.538 167.317 117.258 167.514 116.896C167.711 116.525 167.809 116.092 167.809 115.596ZM171.636 113.267V117.085C171.636 117.4 171.703 117.624 171.837 117.758C171.971 117.884 172.203 117.947 172.534 117.947H173.326V118.857H172.357C171.758 118.857 171.309 118.72 171.01 118.444C170.71 118.168 170.56 117.715 170.56 117.085V113.267H169.721V112.381H170.56V110.75H171.636V112.381H173.326V113.267H171.636ZM175.184 111.329C174.98 111.329 174.806 111.258 174.664 111.117C174.523 110.975 174.452 110.801 174.452 110.597C174.452 110.392 174.523 110.218 174.664 110.077C174.806 109.935 174.98 109.864 175.184 109.864C175.381 109.864 175.547 109.935 175.681 110.077C175.823 110.218 175.893 110.392 175.893 110.597C175.893 110.801 175.823 110.975 175.681 111.117C175.547 111.258 175.381 111.329 175.184 111.329ZM175.704 112.381V118.857H174.629V112.381H175.704ZM180.693 112.263C181.481 112.263 182.119 112.503 182.607 112.984C183.096 113.457 183.34 114.142 183.34 115.04V118.857H182.276V115.194C182.276 114.548 182.115 114.055 181.792 113.717C181.469 113.37 181.028 113.197 180.468 113.197C179.901 113.197 179.448 113.374 179.109 113.728C178.778 114.083 178.613 114.599 178.613 115.277V118.857H177.537V112.381H178.613V113.303C178.825 112.972 179.113 112.716 179.475 112.535C179.846 112.353 180.252 112.263 180.693 112.263ZM187.768 112.275C188.327 112.275 188.816 112.397 189.233 112.641C189.659 112.885 189.974 113.193 190.179 113.563V112.381H191.266V118.999C191.266 119.59 191.14 120.114 190.888 120.571C190.636 121.036 190.273 121.398 189.8 121.658C189.336 121.918 188.792 122.048 188.17 122.048C187.319 122.048 186.61 121.847 186.042 121.446C185.475 121.044 185.14 120.496 185.038 119.803H186.101C186.22 120.197 186.464 120.512 186.834 120.748C187.204 120.993 187.65 121.115 188.17 121.115C188.76 121.115 189.241 120.93 189.611 120.559C189.99 120.189 190.179 119.669 190.179 118.999V117.64C189.966 118.018 189.651 118.333 189.233 118.586C188.816 118.838 188.327 118.964 187.768 118.964C187.193 118.964 186.669 118.822 186.196 118.538C185.731 118.255 185.365 117.857 185.097 117.345C184.829 116.833 184.695 116.25 184.695 115.596C184.695 114.934 184.829 114.355 185.097 113.858C185.365 113.354 185.731 112.964 186.196 112.688C186.669 112.413 187.193 112.275 187.768 112.275ZM190.179 115.607C190.179 115.119 190.08 114.693 189.883 114.331C189.686 113.969 189.418 113.693 189.08 113.504C188.749 113.307 188.382 113.208 187.98 113.208C187.579 113.208 187.212 113.303 186.881 113.492C186.55 113.681 186.286 113.957 186.09 114.319C185.893 114.682 185.794 115.107 185.794 115.596C185.794 116.092 185.893 116.525 186.09 116.896C186.286 117.258 186.55 117.538 186.881 117.735C187.212 117.924 187.579 118.018 187.98 118.018C188.382 118.018 188.749 117.924 189.08 117.735C189.418 117.538 189.686 117.258 189.883 116.896C190.08 116.525 190.179 116.096 190.179 115.607ZM197.546 113.267V117.085C197.546 117.4 197.613 117.624 197.747 117.758C197.881 117.884 198.113 117.947 198.444 117.947H199.236V118.857H198.267C197.668 118.857 197.219 118.72 196.919 118.444C196.62 118.168 196.47 117.715 196.47 117.085V113.267H195.631V112.381H196.47V110.75H197.546V112.381H199.236V113.267H197.546ZM203.753 112.263C204.242 112.263 204.683 112.369 205.077 112.582C205.471 112.787 205.778 113.098 205.999 113.516C206.227 113.933 206.342 114.441 206.342 115.04V118.857H205.278V115.194C205.278 114.548 205.116 114.055 204.793 113.717C204.47 113.37 204.029 113.197 203.47 113.197C202.903 113.197 202.45 113.374 202.111 113.728C201.78 114.083 201.614 114.599 201.614 115.277V118.857H200.539V110.112H201.614V113.303C201.827 112.972 202.119 112.716 202.489 112.535C202.867 112.353 203.289 112.263 203.753 112.263ZM214.007 115.371C214.007 115.576 213.996 115.793 213.972 116.021H208.796C208.835 116.659 209.052 117.16 209.446 117.522C209.847 117.877 210.332 118.054 210.899 118.054C211.364 118.054 211.75 117.947 212.057 117.735C212.373 117.514 212.593 117.223 212.719 116.86H213.877C213.704 117.483 213.357 117.991 212.837 118.385C212.317 118.771 211.671 118.964 210.899 118.964C210.285 118.964 209.733 118.826 209.245 118.55C208.764 118.274 208.386 117.884 208.11 117.38C207.834 116.868 207.697 116.277 207.697 115.607C207.697 114.938 207.831 114.351 208.098 113.847C208.366 113.342 208.741 112.956 209.221 112.688C209.71 112.413 210.269 112.275 210.899 112.275C211.514 112.275 212.057 112.409 212.53 112.677C213.003 112.944 213.365 113.315 213.617 113.787C213.877 114.252 214.007 114.78 214.007 115.371ZM212.897 115.147C212.897 114.737 212.806 114.386 212.625 114.095C212.444 113.795 212.195 113.571 211.88 113.421C211.573 113.263 211.23 113.185 210.852 113.185C210.308 113.185 209.844 113.358 209.457 113.705C209.079 114.051 208.863 114.532 208.807 115.147H212.897ZM218.176 115.607C218.176 114.938 218.31 114.355 218.578 113.858C218.846 113.354 219.216 112.964 219.689 112.688C220.169 112.413 220.717 112.275 221.331 112.275C222.127 112.275 222.781 112.468 223.293 112.854C223.813 113.24 224.156 113.776 224.321 114.461H223.163C223.053 114.067 222.836 113.756 222.513 113.527C222.198 113.299 221.804 113.185 221.331 113.185C220.717 113.185 220.221 113.397 219.842 113.823C219.464 114.24 219.275 114.835 219.275 115.607C219.275 116.387 219.464 116.99 219.842 117.416C220.221 117.841 220.717 118.054 221.331 118.054C221.804 118.054 222.198 117.943 222.513 117.723C222.828 117.502 223.045 117.187 223.163 116.777H224.321C224.148 117.439 223.801 117.971 223.281 118.373C222.761 118.767 222.111 118.964 221.331 118.964C220.717 118.964 220.169 118.826 219.689 118.55C219.216 118.274 218.846 117.884 218.578 117.38C218.31 116.876 218.176 116.285 218.176 115.607ZM231.5 112.381V118.857H230.425V117.9C230.22 118.231 229.932 118.491 229.562 118.68C229.199 118.861 228.798 118.952 228.356 118.952C227.852 118.952 227.399 118.85 226.997 118.645C226.596 118.432 226.276 118.117 226.04 117.699C225.812 117.282 225.697 116.773 225.697 116.175V112.381H226.761V116.033C226.761 116.671 226.922 117.163 227.246 117.51C227.569 117.849 228.01 118.018 228.569 118.018C229.144 118.018 229.597 117.841 229.928 117.487C230.259 117.132 230.425 116.616 230.425 115.938V112.381H231.5ZM235.609 118.964C235.112 118.964 234.667 118.881 234.273 118.716C233.879 118.542 233.568 118.306 233.34 118.007C233.111 117.699 232.985 117.349 232.961 116.955H234.072C234.104 117.278 234.253 117.542 234.521 117.747C234.797 117.951 235.156 118.054 235.597 118.054C236.007 118.054 236.33 117.963 236.566 117.782C236.802 117.601 236.92 117.372 236.92 117.097C236.92 116.813 236.794 116.604 236.542 116.47C236.29 116.328 235.9 116.19 235.372 116.057C234.892 115.93 234.498 115.804 234.19 115.678C233.891 115.544 233.631 115.351 233.41 115.099C233.198 114.839 233.091 114.5 233.091 114.083C233.091 113.752 233.19 113.449 233.387 113.173C233.584 112.897 233.863 112.68 234.226 112.523C234.588 112.357 235.002 112.275 235.467 112.275C236.184 112.275 236.763 112.456 237.204 112.818C237.645 113.181 237.882 113.677 237.913 114.307H236.838C236.814 113.969 236.676 113.697 236.424 113.492C236.18 113.287 235.849 113.185 235.431 113.185C235.045 113.185 234.738 113.267 234.51 113.433C234.281 113.598 234.167 113.815 234.167 114.083C234.167 114.296 234.234 114.473 234.368 114.615C234.51 114.749 234.683 114.859 234.888 114.946C235.1 115.024 235.392 115.115 235.762 115.217C236.227 115.343 236.605 115.47 236.897 115.596C237.188 115.714 237.437 115.895 237.641 116.139C237.854 116.383 237.964 116.703 237.972 117.097C237.972 117.451 237.874 117.77 237.677 118.054C237.48 118.337 237.2 118.562 236.838 118.727C236.483 118.885 236.073 118.964 235.609 118.964ZM240.802 113.267V117.085C240.802 117.4 240.869 117.624 241.003 117.758C241.137 117.884 241.37 117.947 241.7 117.947H242.492V118.857H241.523C240.924 118.857 240.475 118.72 240.176 118.444C239.876 118.168 239.727 117.715 239.727 117.085V113.267H238.888V112.381H239.727V110.75H240.802V112.381H242.492V113.267H240.802ZM246.62 118.964C246.013 118.964 245.462 118.826 244.965 118.55C244.477 118.274 244.091 117.884 243.807 117.38C243.531 116.868 243.393 116.277 243.393 115.607C243.393 114.946 243.535 114.363 243.819 113.858C244.11 113.346 244.504 112.956 245.001 112.688C245.497 112.413 246.053 112.275 246.667 112.275C247.282 112.275 247.837 112.413 248.333 112.688C248.83 112.956 249.22 113.342 249.503 113.847C249.795 114.351 249.941 114.938 249.941 115.607C249.941 116.277 249.791 116.868 249.492 117.38C249.2 117.884 248.802 118.274 248.298 118.55C247.794 118.826 247.234 118.964 246.62 118.964ZM246.62 118.018C247.006 118.018 247.368 117.928 247.707 117.747C248.046 117.565 248.318 117.293 248.523 116.931C248.735 116.569 248.842 116.127 248.842 115.607C248.842 115.087 248.739 114.646 248.534 114.284C248.33 113.921 248.062 113.653 247.731 113.48C247.4 113.299 247.041 113.208 246.655 113.208C246.261 113.208 245.899 113.299 245.568 113.48C245.245 113.653 244.985 113.921 244.788 114.284C244.591 114.646 244.493 115.087 244.493 115.607C244.493 116.135 244.587 116.58 244.776 116.943C244.973 117.305 245.233 117.577 245.556 117.758C245.879 117.932 246.234 118.018 246.62 118.018ZM259.143 112.263C259.647 112.263 260.096 112.369 260.49 112.582C260.884 112.787 261.195 113.098 261.424 113.516C261.652 113.933 261.767 114.441 261.767 115.04V118.857H260.703V115.194C260.703 114.548 260.541 114.055 260.218 113.717C259.903 113.37 259.474 113.197 258.93 113.197C258.371 113.197 257.926 113.378 257.595 113.74C257.264 114.095 257.098 114.611 257.098 115.288V118.857H256.035V115.194C256.035 114.548 255.873 114.055 255.55 113.717C255.235 113.37 254.806 113.197 254.262 113.197C253.703 113.197 253.258 113.378 252.927 113.74C252.596 114.095 252.43 114.611 252.43 115.288V118.857H251.355V112.381H252.43V113.315C252.643 112.976 252.927 112.716 253.281 112.535C253.644 112.353 254.041 112.263 254.475 112.263C255.018 112.263 255.499 112.385 255.917 112.629C256.334 112.873 256.645 113.232 256.85 113.705C257.031 113.248 257.331 112.893 257.748 112.641C258.166 112.389 258.631 112.263 259.143 112.263ZM269.44 115.371C269.44 115.576 269.428 115.793 269.404 116.021H264.228C264.267 116.659 264.484 117.16 264.878 117.522C265.28 117.877 265.764 118.054 266.332 118.054C266.797 118.054 267.183 117.947 267.49 117.735C267.805 117.514 268.026 117.223 268.152 116.86H269.31C269.137 117.483 268.79 117.991 268.27 118.385C267.75 118.771 267.104 118.964 266.332 118.964C265.717 118.964 265.166 118.826 264.677 118.55C264.197 118.274 263.818 117.884 263.543 117.38C263.267 116.868 263.129 116.277 263.129 115.607C263.129 114.938 263.263 114.351 263.531 113.847C263.799 113.342 264.173 112.956 264.653 112.688C265.142 112.413 265.701 112.275 266.332 112.275C266.946 112.275 267.49 112.409 267.963 112.677C268.435 112.944 268.798 113.315 269.05 113.787C269.31 114.252 269.44 114.78 269.44 115.371ZM268.329 115.147C268.329 114.737 268.238 114.386 268.057 114.095C267.876 113.795 267.628 113.571 267.313 113.421C267.005 113.263 266.663 113.185 266.284 113.185C265.741 113.185 265.276 113.358 264.89 113.705C264.512 114.051 264.295 114.532 264.24 115.147H268.329ZM271.935 113.433C272.124 113.063 272.392 112.775 272.738 112.57C273.093 112.365 273.522 112.263 274.027 112.263V113.374H273.743C272.538 113.374 271.935 114.028 271.935 115.336V118.857H270.859V112.381H271.935V113.433ZM279.494 113.587C279.715 113.2 280.038 112.885 280.463 112.641C280.889 112.397 281.373 112.275 281.917 112.275C282.5 112.275 283.024 112.413 283.489 112.688C283.954 112.964 284.32 113.354 284.588 113.858C284.856 114.355 284.99 114.934 284.99 115.596C284.99 116.25 284.856 116.833 284.588 117.345C284.32 117.857 283.95 118.255 283.477 118.538C283.012 118.822 282.492 118.964 281.917 118.964C281.358 118.964 280.865 118.842 280.44 118.597C280.022 118.353 279.707 118.042 279.494 117.664V118.857H278.419V110.112H279.494V113.587ZM283.891 115.596C283.891 115.107 283.792 114.682 283.595 114.319C283.398 113.957 283.13 113.681 282.792 113.492C282.461 113.303 282.094 113.208 281.693 113.208C281.299 113.208 280.932 113.307 280.593 113.504C280.263 113.693 279.995 113.973 279.79 114.343C279.593 114.705 279.494 115.127 279.494 115.607C279.494 116.096 279.593 116.525 279.79 116.896C279.995 117.258 280.263 117.538 280.593 117.735C280.932 117.924 281.299 118.018 281.693 118.018C282.094 118.018 282.461 117.924 282.792 117.735C283.13 117.538 283.398 117.258 283.595 116.896C283.792 116.525 283.891 116.092 283.891 115.596ZM286.961 111.329C286.756 111.329 286.583 111.258 286.441 111.117C286.299 110.975 286.228 110.801 286.228 110.597C286.228 110.392 286.299 110.218 286.441 110.077C286.583 109.935 286.756 109.864 286.961 109.864C287.158 109.864 287.323 109.935 287.457 110.077C287.599 110.218 287.67 110.392 287.67 110.597C287.67 110.801 287.599 110.975 287.457 111.117C287.323 111.258 287.158 111.329 286.961 111.329ZM287.481 112.381V118.857H286.405V112.381H287.481ZM288.912 115.596C288.912 114.934 289.046 114.355 289.314 113.858C289.582 113.354 289.948 112.964 290.413 112.688C290.886 112.413 291.413 112.275 291.996 112.275C292.501 112.275 292.97 112.393 293.403 112.629C293.836 112.858 294.167 113.161 294.396 113.539V110.112H295.483V118.857H294.396V117.64C294.183 118.026 293.868 118.345 293.45 118.597C293.033 118.842 292.544 118.964 291.985 118.964C291.41 118.964 290.886 118.822 290.413 118.538C289.948 118.255 289.582 117.857 289.314 117.345C289.046 116.833 288.912 116.25 288.912 115.596ZM294.396 115.607C294.396 115.119 294.297 114.693 294.1 114.331C293.903 113.969 293.635 113.693 293.296 113.504C292.966 113.307 292.599 113.208 292.197 113.208C291.796 113.208 291.429 113.303 291.098 113.492C290.767 113.681 290.503 113.957 290.306 114.319C290.11 114.682 290.011 115.107 290.011 115.596C290.011 116.092 290.11 116.525 290.306 116.896C290.503 117.258 290.767 117.538 291.098 117.735C291.429 117.924 291.796 118.018 292.197 118.018C292.599 118.018 292.966 117.924 293.296 117.735C293.635 117.538 293.903 117.258 294.1 116.896C294.297 116.525 294.396 116.096 294.396 115.607ZM302.555 110.514C303.335 110.514 303.965 110.734 304.446 111.176C304.926 111.617 305.166 112.208 305.166 112.948C305.166 113.776 304.91 114.39 304.398 114.792C303.886 115.186 303.193 115.383 302.318 115.383L302.283 116.506H301.349L301.302 114.638H301.645C302.425 114.638 303.035 114.52 303.476 114.284C303.918 114.047 304.138 113.602 304.138 112.948C304.138 112.476 303.996 112.101 303.713 111.826C303.429 111.55 303.047 111.412 302.566 111.412C302.078 111.412 301.692 111.546 301.408 111.814C301.133 112.074 300.995 112.432 300.995 112.889H299.978C299.978 112.417 300.085 112.003 300.297 111.648C300.51 111.286 300.81 111.006 301.196 110.809C301.59 110.612 302.043 110.514 302.555 110.514ZM301.81 118.928C301.605 118.928 301.432 118.857 301.29 118.716C301.148 118.574 301.077 118.4 301.077 118.196C301.077 117.991 301.148 117.817 301.29 117.676C301.432 117.534 301.605 117.463 301.81 117.463C302.007 117.463 302.173 117.534 302.306 117.676C302.448 117.817 302.519 117.991 302.519 118.196C302.519 118.4 302.448 118.574 302.306 118.716C302.173 118.857 302.007 118.928 301.81 118.928Z" fill="#2E2C43"/>
<rect x="26.5713" y="149.753" width="164.61" height="57.4026" fill="#FB8C00"/>
<rect x="191.181" y="152.286" width="162.922" height="54.026" stroke="#FB8C00" stroke-width="3.37662"/>
<path d="M104.043 172.918L100.613 179.577V182.48H97.6144V179.577L94.1837 172.918H97.6144L99.1406 176.308L100.667 172.918H104.043ZM112.1 178.604C112.1 178.811 112.086 179.009 112.059 179.198H107.237C107.282 179.856 107.557 180.184 108.061 180.184C108.385 180.184 108.62 180.036 108.764 179.739H111.938C111.83 180.279 111.6 180.765 111.249 181.197C110.907 181.621 110.47 181.958 109.939 182.21C109.416 182.453 108.84 182.575 108.21 182.575C107.453 182.575 106.778 182.417 106.184 182.102C105.599 181.787 105.139 181.337 104.806 180.752C104.482 180.157 104.32 179.464 104.32 178.672C104.32 177.879 104.482 177.19 104.806 176.605C105.139 176.011 105.599 175.556 106.184 175.241C106.778 174.926 107.453 174.768 108.21 174.768C108.966 174.768 109.637 174.926 110.222 175.241C110.817 175.547 111.276 175.988 111.6 176.565C111.933 177.141 112.1 177.821 112.1 178.604ZM109.061 177.888C109.061 177.636 108.98 177.447 108.818 177.321C108.656 177.186 108.453 177.118 108.21 177.118C107.679 177.118 107.368 177.375 107.278 177.888H109.061ZM116.438 182.575C115.718 182.575 115.078 182.458 114.52 182.224C113.971 181.99 113.534 181.666 113.21 181.251C112.886 180.837 112.701 180.369 112.656 179.847H115.533C115.569 180.072 115.664 180.238 115.817 180.346C115.979 180.454 116.181 180.509 116.425 180.509C116.578 180.509 116.699 180.477 116.789 180.414C116.879 180.342 116.924 180.256 116.924 180.157C116.924 179.986 116.83 179.865 116.641 179.793C116.452 179.721 116.132 179.64 115.682 179.55C115.132 179.442 114.678 179.324 114.318 179.198C113.966 179.072 113.656 178.856 113.386 178.55C113.125 178.244 112.994 177.821 112.994 177.28C112.994 176.812 113.116 176.389 113.359 176.011C113.611 175.624 113.98 175.322 114.466 175.106C114.952 174.881 115.542 174.768 116.236 174.768C117.262 174.768 118.063 175.02 118.64 175.525C119.225 176.029 119.576 176.686 119.693 177.497H117.032C116.987 177.289 116.893 177.132 116.749 177.024C116.605 176.907 116.411 176.848 116.168 176.848C116.015 176.848 115.898 176.88 115.817 176.943C115.736 176.997 115.695 177.082 115.695 177.199C115.695 177.353 115.79 177.47 115.979 177.551C116.168 177.623 116.47 177.699 116.884 177.78C117.433 177.888 117.897 178.01 118.275 178.145C118.653 178.28 118.982 178.514 119.261 178.847C119.54 179.171 119.68 179.622 119.68 180.198C119.68 180.648 119.549 181.053 119.288 181.413C119.027 181.774 118.649 182.057 118.153 182.264C117.667 182.471 117.095 182.575 116.438 182.575Z" fill="white"/>
<path d="M278.842 183.325H275.844L272.67 178.516V183.325H269.672V173.762H272.67L275.844 178.651V173.762H278.842V183.325ZM283.817 183.419C283.051 183.419 282.363 183.262 281.75 182.947C281.138 182.631 280.656 182.181 280.305 181.596C279.963 181.002 279.792 180.308 279.792 179.516C279.792 178.723 279.963 178.035 280.305 177.449C280.656 176.855 281.138 176.4 281.75 176.085C282.363 175.77 283.051 175.612 283.817 175.612C284.582 175.612 285.271 175.77 285.883 176.085C286.496 176.4 286.973 176.855 287.315 177.449C287.666 178.035 287.842 178.723 287.842 179.516C287.842 180.308 287.666 181.002 287.315 181.596C286.973 182.181 286.496 182.631 285.883 182.947C285.271 183.262 284.582 183.419 283.817 183.419ZM283.817 180.826C284.096 180.826 284.33 180.718 284.519 180.502C284.708 180.277 284.803 179.948 284.803 179.516C284.803 179.084 284.708 178.76 284.519 178.543C284.33 178.318 284.096 178.206 283.817 178.206C283.538 178.206 283.304 178.318 283.114 178.543C282.925 178.76 282.831 179.084 282.831 179.516C282.831 179.948 282.921 180.277 283.101 180.502C283.29 180.718 283.529 180.826 283.817 180.826Z" fill="#FB8C00"/>
<defs>
<filter id="filter0_d_606_2" x="-58.7582" y="7.254" width="439.159" height="292.584" filterUnits="userSpaceOnUse" color-interpolation-filters="sRGB">
<feFlood flood-opacity="0" result="BackgroundImageFix"/>
<feColorMatrix in="SourceAlpha" type="matrix" values="0 0 0 0 0 0 0 0 0 0 0 0 0 0 0 0 0 0 127 0" result="hardAlpha"/>
<feOffset dx="8.44156" dy="8.44156"/>
<feGaussianBlur stdDeviation="42.2078"/>
<feComposite in2="hardAlpha" operator="out"/>
<feColorMatrix type="matrix" values="0 0 0 0 0.741667 0 0 0 0 0.741667 0 0 0 0 0.741667 0 0 0 0.35 0"/>
<feBlend mode="normal" in2="BackgroundImageFix" result="effect1_dropShadow_606_2"/>
<feBlend mode="normal" in="SourceGraphic" in2="effect1_dropShadow_606_2" result="shape"/>
</filter>
<filter id="filter1_d_606_2" x="-62.3383" y="-0.00312901" width="462.71" height="308.275" filterUnits="userSpaceOnUse" color-interpolation-filters="sRGB">
<feFlood flood-opacity="0" result="BackgroundImageFix"/>
<feColorMatrix in="SourceAlpha" type="matrix" values="0 0 0 0 0 0 0 0 0 0 0 0 0 0 0 0 0 0 127 0" result="hardAlpha"/>
<feOffset dx="8.89426" dy="8.89426"/>
<feGaussianBlur stdDeviation="44.4713"/>
<feComposite in2="hardAlpha" operator="out"/>
<feColorMatrix type="matrix" values="0 0 0 0 0.741667 0 0 0 0 0.741667 0 0 0 0 0.741667 0 0 0 0.35 0"/>
<feBlend mode="normal" in2="BackgroundImageFix" result="effect1_dropShadow_606_2"/>
<feBlend mode="normal" in="SourceGraphic" in2="effect1_dropShadow_606_2" result="shape"/>
</filter>
</defs>
</svg>
