<svg width="371" height="153" viewBox="0 0 371 153" fill="none" xmlns="http://www.w3.org/2000/svg">
<g clip-path="url(#clip0_1790_129)">
<rect width="371" height="153" fill="white"/>
<g filter="url(#filter0_d_1790_129)">
<path d="M287.585 20.5081H22.6602C17.1648 20.5081 12.71 23.6215 12.71 27.4622V143.943C12.71 147.784 17.1648 150.897 22.6602 150.897H287.585C293.08 150.897 297.535 147.784 297.535 143.943V27.4622C297.535 23.6215 293.08 20.5081 287.585 20.5081Z" fill="white"/>
</g>
<rect x="3" y="15" width="365" height="136.082" rx="21.3462" fill="white"/>
<path d="M79.7537 57.4885H76.161L75.4992 59.3203H74.3646L77.3428 51.1303H78.5837L81.5501 59.3203H80.4155L79.7537 57.4885ZM79.4464 56.6139L77.9573 52.4539L76.4682 56.6139H79.4464ZM83.9235 53.8958C84.1126 53.5255 84.3805 53.2379 84.7271 53.033C85.0817 52.8282 85.5111 52.7258 86.0153 52.7258V53.8367H85.7317C84.5262 53.8367 83.9235 54.4906 83.9235 55.7985V59.3203H82.848V52.8439H83.9235V53.8958ZM93.1659 55.8339C93.1659 56.0388 93.154 56.2555 93.1304 56.4839H87.954C87.9934 57.1221 88.2101 57.6224 88.604 57.9849C89.0059 58.3394 89.4904 58.5167 90.0577 58.5167C90.5225 58.5167 90.9086 58.4103 91.2159 58.1976C91.531 57.977 91.7516 57.6855 91.8777 57.323H93.0359C92.8625 57.9455 92.5159 58.4536 91.9959 58.8476C91.4759 59.2336 90.8298 59.4267 90.0577 59.4267C89.4431 59.4267 88.8916 59.2888 88.4031 59.013C87.9225 58.7373 87.5443 58.3473 87.2686 57.843C86.9928 57.3309 86.855 56.74 86.855 56.0703C86.855 55.4006 86.9889 54.8136 87.2568 54.3094C87.5246 53.8052 87.8989 53.4191 88.3795 53.1512C88.868 52.8755 89.4274 52.7376 90.0577 52.7376C90.6722 52.7376 91.2159 52.8715 91.6886 53.1394C92.1613 53.4073 92.5237 53.7776 92.7759 54.2503C93.0359 54.7152 93.1659 55.243 93.1659 55.8339ZM92.055 55.6094C92.055 55.1997 91.9643 54.8491 91.7831 54.5576C91.6019 54.2582 91.3537 54.0336 91.0386 53.8839C90.7313 53.7264 90.3886 53.6476 90.0104 53.6476C89.4668 53.6476 89.0019 53.8209 88.6159 54.1676C88.2377 54.5143 88.021 54.9949 87.9659 55.6094H92.055ZM103.314 52.8439L99.4144 62.3694H98.3034L99.5798 59.2494L96.968 52.8439H98.1616L100.194 58.0912L102.203 52.8439H103.314ZM107.22 59.4267C106.613 59.4267 106.062 59.2888 105.565 59.013C105.077 58.7373 104.691 58.3473 104.407 57.843C104.131 57.3309 103.994 56.74 103.994 56.0703C103.994 55.4085 104.135 54.8255 104.419 54.3212C104.711 53.8091 105.105 53.4191 105.601 53.1512C106.097 52.8755 106.653 52.7376 107.267 52.7376C107.882 52.7376 108.437 52.8755 108.934 53.1512C109.43 53.4191 109.82 53.8052 110.104 54.3094C110.395 54.8136 110.541 55.4006 110.541 56.0703C110.541 56.74 110.391 57.3309 110.092 57.843C109.8 58.3473 109.402 58.7373 108.898 59.013C108.394 59.2888 107.835 59.4267 107.22 59.4267ZM107.22 58.4812C107.606 58.4812 107.968 58.3906 108.307 58.2094C108.646 58.0282 108.918 57.7564 109.123 57.3939C109.335 57.0315 109.442 56.5903 109.442 56.0703C109.442 55.5503 109.339 55.1091 109.135 54.7467C108.93 54.3843 108.662 54.1164 108.331 53.943C108 53.7618 107.642 53.6712 107.255 53.6712C106.862 53.6712 106.499 53.7618 106.168 53.943C105.845 54.1164 105.585 54.3843 105.388 54.7467C105.191 55.1091 105.093 55.5503 105.093 56.0703C105.093 56.5982 105.187 57.0433 105.376 57.4058C105.573 57.7682 105.833 58.04 106.156 58.2212C106.479 58.3946 106.834 58.4812 107.22 58.4812ZM117.699 52.8439V59.3203H116.623V58.363C116.418 58.6939 116.131 58.9539 115.76 59.143C115.398 59.3243 114.996 59.4149 114.555 59.4149C114.051 59.4149 113.598 59.3124 113.196 59.1076C112.794 58.8949 112.475 58.5797 112.239 58.1621C112.01 57.7446 111.896 57.2364 111.896 56.6376V52.8439H112.959V56.4958C112.959 57.1339 113.121 57.6264 113.444 57.973C113.767 58.3118 114.208 58.4812 114.768 58.4812C115.343 58.4812 115.796 58.3039 116.127 57.9494C116.458 57.5949 116.623 57.0788 116.623 56.4012V52.8439H117.699ZM122.263 56.0585C122.263 55.3967 122.397 54.8176 122.665 54.3212C122.933 53.817 123.299 53.427 123.764 53.1512C124.237 52.8755 124.761 52.7376 125.336 52.7376C125.903 52.7376 126.396 52.8597 126.813 53.1039C127.231 53.3482 127.542 53.6555 127.747 54.0258V52.8439H128.834V59.3203H127.747V58.1149C127.534 58.493 127.215 58.8082 126.79 59.0603C126.372 59.3046 125.884 59.4267 125.324 59.4267C124.749 59.4267 124.229 59.2849 123.764 59.0012C123.299 58.7176 122.933 58.3197 122.665 57.8076C122.397 57.2955 122.263 56.7124 122.263 56.0585ZM127.747 56.0703C127.747 55.5818 127.648 55.1564 127.452 54.7939C127.255 54.4315 126.987 54.1558 126.648 53.9667C126.317 53.7697 125.951 53.6712 125.549 53.6712C125.147 53.6712 124.781 53.7658 124.45 53.9549C124.119 54.1439 123.855 54.4197 123.658 54.7821C123.461 55.1446 123.362 55.57 123.362 56.0585C123.362 56.5549 123.461 56.9882 123.658 57.3585C123.855 57.7209 124.119 58.0006 124.45 58.1976C124.781 58.3867 125.147 58.4812 125.549 58.4812C125.951 58.4812 126.317 58.3867 126.648 58.1976C126.987 58.0006 127.255 57.7209 127.452 57.3585C127.648 56.9882 127.747 56.5588 127.747 56.0703ZM130.25 56.0703C130.25 55.4006 130.384 54.8176 130.652 54.3212C130.92 53.817 131.29 53.427 131.763 53.1512C132.243 52.8755 132.791 52.7376 133.405 52.7376C134.201 52.7376 134.855 52.9306 135.367 53.3167C135.887 53.7027 136.23 54.2385 136.395 54.9239H135.237C135.127 54.53 134.91 54.2188 134.587 53.9903C134.272 53.7618 133.878 53.6476 133.405 53.6476C132.791 53.6476 132.294 53.8603 131.916 54.2858C131.538 54.7033 131.349 55.2982 131.349 56.0703C131.349 56.8503 131.538 57.453 131.916 57.8785C132.294 58.3039 132.791 58.5167 133.405 58.5167C133.878 58.5167 134.272 58.4064 134.587 58.1858C134.902 57.9652 135.119 57.65 135.237 57.2403H136.395C136.222 57.9021 135.875 58.4339 135.355 58.8358C134.835 59.2297 134.185 59.4267 133.405 59.4267C132.791 59.4267 132.243 59.2888 131.763 59.013C131.29 58.7373 130.92 58.3473 130.652 57.843C130.384 57.3388 130.25 56.7479 130.25 56.0703ZM137.428 56.0703C137.428 55.4006 137.562 54.8176 137.83 54.3212C138.098 53.817 138.468 53.427 138.941 53.1512C139.422 52.8755 139.969 52.7376 140.584 52.7376C141.38 52.7376 142.034 52.9306 142.546 53.3167C143.066 53.7027 143.408 54.2385 143.574 54.9239H142.416C142.305 54.53 142.089 54.2188 141.766 53.9903C141.451 53.7618 141.057 53.6476 140.584 53.6476C139.969 53.6476 139.473 53.8603 139.095 54.2858C138.717 54.7033 138.528 55.2982 138.528 56.0703C138.528 56.8503 138.717 57.453 139.095 57.8785C139.473 58.3039 139.969 58.5167 140.584 58.5167C141.057 58.5167 141.451 58.4064 141.766 58.1858C142.081 57.9652 142.298 57.65 142.416 57.2403H143.574C143.401 57.9021 143.054 58.4339 142.534 58.8358C142.014 59.2297 141.364 59.4267 140.584 59.4267C139.969 59.4267 139.422 59.2888 138.941 59.013C138.468 58.7373 138.098 58.3473 137.83 57.843C137.562 57.3388 137.428 56.7479 137.428 56.0703ZM150.918 55.8339C150.918 56.0388 150.906 56.2555 150.883 56.4839H145.706C145.746 57.1221 145.962 57.6224 146.356 57.9849C146.758 58.3394 147.243 58.5167 147.81 58.5167C148.275 58.5167 148.661 58.4103 148.968 58.1976C149.283 57.977 149.504 57.6855 149.63 57.323H150.788C150.615 57.9455 150.268 58.4536 149.748 58.8476C149.228 59.2336 148.582 59.4267 147.81 59.4267C147.195 59.4267 146.644 59.2888 146.155 59.013C145.675 58.7373 145.296 58.3473 145.021 57.843C144.745 57.3309 144.607 56.74 144.607 56.0703C144.607 55.4006 144.741 54.8136 145.009 54.3094C145.277 53.8052 145.651 53.4191 146.132 53.1512C146.62 52.8755 147.18 52.7376 147.81 52.7376C148.424 52.7376 148.968 52.8715 149.441 53.1394C149.913 53.4073 150.276 53.7776 150.528 54.2503C150.788 54.7152 150.918 55.243 150.918 55.8339ZM149.807 55.6094C149.807 55.1997 149.716 54.8491 149.535 54.5576C149.354 54.2582 149.106 54.0336 148.791 53.8839C148.483 53.7264 148.141 53.6476 147.763 53.6476C147.219 53.6476 146.754 53.8209 146.368 54.1676C145.99 54.5143 145.773 54.9949 145.718 55.6094H149.807ZM153.413 54.0376C153.626 53.6673 153.941 53.36 154.358 53.1158C154.784 52.8636 155.276 52.7376 155.836 52.7376C156.411 52.7376 156.931 52.8755 157.396 53.1512C157.868 53.427 158.239 53.817 158.507 54.3212C158.775 54.8176 158.908 55.3967 158.908 56.0585C158.908 56.7124 158.775 57.2955 158.507 57.8076C158.239 58.3197 157.868 58.7176 157.396 59.0012C156.931 59.2849 156.411 59.4267 155.836 59.4267C155.284 59.4267 154.796 59.3046 154.37 59.0603C153.953 58.8082 153.634 58.497 153.413 58.1267V62.393H152.338V52.8439H153.413V54.0376ZM157.809 56.0585C157.809 55.57 157.711 55.1446 157.514 54.7821C157.317 54.4197 157.049 54.1439 156.71 53.9549C156.379 53.7658 156.013 53.6712 155.611 53.6712C155.217 53.6712 154.851 53.7697 154.512 53.9667C154.181 54.1558 153.913 54.4355 153.708 54.8058C153.511 55.1682 153.413 55.5897 153.413 56.0703C153.413 56.5588 153.511 56.9882 153.708 57.3585C153.913 57.7209 154.181 58.0006 154.512 58.1976C154.851 58.3867 155.217 58.4812 155.611 58.4812C156.013 58.4812 156.379 58.3867 156.71 58.1976C157.049 58.0006 157.317 57.7209 157.514 57.3585C157.711 56.9882 157.809 56.5549 157.809 56.0585ZM161.636 53.7303V57.5476C161.636 57.8627 161.703 58.0873 161.837 58.2212C161.971 58.3473 162.203 58.4103 162.534 58.4103H163.326V59.3203H162.357C161.758 59.3203 161.309 59.1824 161.01 58.9067C160.71 58.6309 160.56 58.1779 160.56 57.5476V53.7303H159.721V52.8439H160.56V51.213H161.636V52.8439H163.326V53.7303H161.636ZM165.184 51.7921C164.98 51.7921 164.806 51.7212 164.664 51.5794C164.523 51.4376 164.452 51.2643 164.452 51.0594C164.452 50.8546 164.523 50.6812 164.664 50.5394C164.806 50.3976 164.98 50.3267 165.184 50.3267C165.381 50.3267 165.547 50.3976 165.681 50.5394C165.823 50.6812 165.893 50.8546 165.893 51.0594C165.893 51.2643 165.823 51.4376 165.681 51.5794C165.547 51.7212 165.381 51.7921 165.184 51.7921ZM165.704 52.8439V59.3203H164.629V52.8439H165.704ZM170.693 52.7258C171.481 52.7258 172.119 52.9661 172.607 53.4467C173.096 53.9194 173.34 54.6049 173.34 55.503V59.3203H172.276V55.6567C172.276 55.0106 172.115 54.5182 171.792 54.1794C171.469 53.8327 171.028 53.6594 170.468 53.6594C169.901 53.6594 169.448 53.8367 169.109 54.1912C168.778 54.5458 168.613 55.0618 168.613 55.7394V59.3203H167.537V52.8439H168.613V53.7658C168.825 53.4349 169.113 53.1788 169.475 52.9976C169.846 52.8164 170.252 52.7258 170.693 52.7258ZM177.768 52.7376C178.327 52.7376 178.816 52.8597 179.233 53.1039C179.659 53.3482 179.974 53.6555 180.179 54.0258V52.8439H181.266V59.4621C181.266 60.053 181.14 60.577 180.888 61.0339C180.636 61.4988 180.273 61.8612 179.8 62.1212C179.336 62.3812 178.792 62.5112 178.17 62.5112C177.319 62.5112 176.61 62.3103 176.042 61.9085C175.475 61.5067 175.14 60.9591 175.038 60.2658H176.101C176.22 60.6597 176.464 60.9749 176.834 61.2112C177.204 61.4555 177.65 61.5776 178.17 61.5776C178.76 61.5776 179.241 61.3924 179.611 61.0221C179.99 60.6518 180.179 60.1318 180.179 59.4621V58.103C179.966 58.4812 179.651 58.7964 179.233 59.0485C178.816 59.3006 178.327 59.4267 177.768 59.4267C177.193 59.4267 176.669 59.2849 176.196 59.0012C175.731 58.7176 175.365 58.3197 175.097 57.8076C174.829 57.2955 174.695 56.7124 174.695 56.0585C174.695 55.3967 174.829 54.8176 175.097 54.3212C175.365 53.817 175.731 53.427 176.196 53.1512C176.669 52.8755 177.193 52.7376 177.768 52.7376ZM180.179 56.0703C180.179 55.5818 180.08 55.1564 179.883 54.7939C179.686 54.4315 179.418 54.1558 179.08 53.9667C178.749 53.7697 178.382 53.6712 177.98 53.6712C177.579 53.6712 177.212 53.7658 176.881 53.9549C176.55 54.1439 176.286 54.4197 176.09 54.7821C175.893 55.1446 175.794 55.57 175.794 56.0585C175.794 56.5549 175.893 56.9882 176.09 57.3585C176.286 57.7209 176.55 58.0006 176.881 58.1976C177.212 58.3867 177.579 58.4812 177.98 58.4812C178.382 58.4812 178.749 58.3867 179.08 58.1976C179.418 58.0006 179.686 57.7209 179.883 57.3585C180.08 56.9882 180.179 56.5588 180.179 56.0703ZM187.546 53.7303V57.5476C187.546 57.8627 187.613 58.0873 187.747 58.2212C187.881 58.3473 188.113 58.4103 188.444 58.4103H189.236V59.3203H188.267C187.668 59.3203 187.219 59.1824 186.919 58.9067C186.62 58.6309 186.47 58.1779 186.47 57.5476V53.7303H185.631V52.8439H186.47V51.213H187.546V52.8439H189.236V53.7303H187.546ZM193.753 52.7258C194.242 52.7258 194.683 52.8321 195.077 53.0449C195.471 53.2497 195.778 53.5609 195.999 53.9785C196.227 54.3961 196.342 54.9043 196.342 55.503V59.3203H195.278V55.6567C195.278 55.0106 195.116 54.5182 194.793 54.1794C194.47 53.8327 194.029 53.6594 193.47 53.6594C192.903 53.6594 192.45 53.8367 192.111 54.1912C191.78 54.5458 191.614 55.0618 191.614 55.7394V59.3203H190.539V50.5749H191.614V53.7658C191.827 53.4349 192.119 53.1788 192.489 52.9976C192.867 52.8164 193.289 52.7258 193.753 52.7258ZM204.007 55.8339C204.007 56.0388 203.996 56.2555 203.972 56.4839H198.796C198.835 57.1221 199.052 57.6224 199.446 57.9849C199.847 58.3394 200.332 58.5167 200.899 58.5167C201.364 58.5167 201.75 58.4103 202.057 58.1976C202.373 57.977 202.593 57.6855 202.719 57.323H203.877C203.704 57.9455 203.357 58.4536 202.837 58.8476C202.317 59.2336 201.671 59.4267 200.899 59.4267C200.285 59.4267 199.733 59.2888 199.245 59.013C198.764 58.7373 198.386 58.3473 198.11 57.843C197.834 57.3309 197.697 56.74 197.697 56.0703C197.697 55.4006 197.831 54.8136 198.098 54.3094C198.366 53.8052 198.741 53.4191 199.221 53.1512C199.71 52.8755 200.269 52.7376 200.899 52.7376C201.514 52.7376 202.057 52.8715 202.53 53.1394C203.003 53.4073 203.365 53.7776 203.617 54.2503C203.877 54.7152 204.007 55.243 204.007 55.8339ZM202.897 55.6094C202.897 55.1997 202.806 54.8491 202.625 54.5576C202.444 54.2582 202.195 54.0336 201.88 53.8839C201.573 53.7264 201.23 53.6476 200.852 53.6476C200.308 53.6476 199.844 53.8209 199.457 54.1676C199.079 54.5143 198.863 54.9949 198.807 55.6094H202.897ZM208.176 56.0703C208.176 55.4006 208.31 54.8176 208.578 54.3212C208.846 53.817 209.216 53.427 209.689 53.1512C210.169 52.8755 210.717 52.7376 211.331 52.7376C212.127 52.7376 212.781 52.9306 213.293 53.3167C213.813 53.7027 214.156 54.2385 214.321 54.9239H213.163C213.053 54.53 212.836 54.2188 212.513 53.9903C212.198 53.7618 211.804 53.6476 211.331 53.6476C210.717 53.6476 210.221 53.8603 209.842 54.2858C209.464 54.7033 209.275 55.2982 209.275 56.0703C209.275 56.8503 209.464 57.453 209.842 57.8785C210.221 58.3039 210.717 58.5167 211.331 58.5167C211.804 58.5167 212.198 58.4064 212.513 58.1858C212.828 57.9652 213.045 57.65 213.163 57.2403H214.321C214.148 57.9021 213.801 58.4339 213.281 58.8358C212.761 59.2297 212.111 59.4267 211.331 59.4267C210.717 59.4267 210.169 59.2888 209.689 59.013C209.216 58.7373 208.846 58.3473 208.578 57.843C208.31 57.3388 208.176 56.7479 208.176 56.0703ZM221.5 52.8439V59.3203H220.425V58.363C220.22 58.6939 219.932 58.9539 219.562 59.143C219.199 59.3243 218.798 59.4149 218.356 59.4149C217.852 59.4149 217.399 59.3124 216.997 59.1076C216.596 58.8949 216.276 58.5797 216.04 58.1621C215.812 57.7446 215.697 57.2364 215.697 56.6376V52.8439H216.761V56.4958C216.761 57.1339 216.922 57.6264 217.246 57.973C217.569 58.3118 218.01 58.4812 218.569 58.4812C219.144 58.4812 219.597 58.3039 219.928 57.9494C220.259 57.5949 220.425 57.0788 220.425 56.4012V52.8439H221.5ZM225.609 59.4267C225.112 59.4267 224.667 59.3439 224.273 59.1785C223.879 59.0052 223.568 58.7688 223.34 58.4694C223.111 58.1621 222.985 57.8115 222.961 57.4176H224.072C224.104 57.7406 224.253 58.0046 224.521 58.2094C224.797 58.4143 225.156 58.5167 225.597 58.5167C226.007 58.5167 226.33 58.4261 226.566 58.2449C226.802 58.0636 226.92 57.8352 226.92 57.5594C226.92 57.2758 226.794 57.067 226.542 56.933C226.29 56.7912 225.9 56.6533 225.372 56.5194C224.892 56.3933 224.498 56.2673 224.19 56.1412C223.891 56.0073 223.631 55.8143 223.41 55.5621C223.198 55.3021 223.091 54.9633 223.091 54.5458C223.091 54.2149 223.19 53.9115 223.387 53.6358C223.584 53.36 223.863 53.1433 224.226 52.9858C224.588 52.8203 225.002 52.7376 225.467 52.7376C226.184 52.7376 226.763 52.9188 227.204 53.2812C227.645 53.6436 227.882 54.14 227.913 54.7703H226.838C226.814 54.4315 226.676 54.1597 226.424 53.9549C226.18 53.75 225.849 53.6476 225.431 53.6476C225.045 53.6476 224.738 53.7303 224.51 53.8958C224.281 54.0612 224.167 54.2779 224.167 54.5458C224.167 54.7585 224.234 54.9358 224.368 55.0776C224.51 55.2115 224.683 55.3218 224.888 55.4085C225.1 55.4873 225.392 55.5779 225.762 55.6803C226.227 55.8064 226.605 55.9324 226.897 56.0585C227.188 56.1767 227.437 56.3579 227.641 56.6021C227.854 56.8464 227.964 57.1655 227.972 57.5594C227.972 57.9139 227.874 58.233 227.677 58.5167C227.48 58.8003 227.2 59.0249 226.838 59.1903C226.483 59.3479 226.073 59.4267 225.609 59.4267ZM230.802 53.7303V57.5476C230.802 57.8627 230.869 58.0873 231.003 58.2212C231.137 58.3473 231.37 58.4103 231.7 58.4103H232.492V59.3203H231.523C230.924 59.3203 230.475 59.1824 230.176 58.9067C229.876 58.6309 229.727 58.1779 229.727 57.5476V53.7303H228.888V52.8439H229.727V51.213H230.802V52.8439H232.492V53.7303H230.802ZM236.62 59.4267C236.013 59.4267 235.462 59.2888 234.965 59.013C234.477 58.7373 234.091 58.3473 233.807 57.843C233.531 57.3309 233.393 56.74 233.393 56.0703C233.393 55.4085 233.535 54.8255 233.819 54.3212C234.11 53.8091 234.504 53.4191 235.001 53.1512C235.497 52.8755 236.053 52.7376 236.667 52.7376C237.282 52.7376 237.837 52.8755 238.333 53.1512C238.83 53.4191 239.22 53.8052 239.503 54.3094C239.795 54.8136 239.941 55.4006 239.941 56.0703C239.941 56.74 239.791 57.3309 239.492 57.843C239.2 58.3473 238.802 58.7373 238.298 59.013C237.794 59.2888 237.234 59.4267 236.62 59.4267ZM236.62 58.4812C237.006 58.4812 237.368 58.3906 237.707 58.2094C238.046 58.0282 238.318 57.7564 238.523 57.3939C238.735 57.0315 238.842 56.5903 238.842 56.0703C238.842 55.5503 238.739 55.1091 238.534 54.7467C238.33 54.3843 238.062 54.1164 237.731 53.943C237.4 53.7618 237.041 53.6712 236.655 53.6712C236.261 53.6712 235.899 53.7618 235.568 53.943C235.245 54.1164 234.985 54.3843 234.788 54.7467C234.591 55.1091 234.493 55.5503 234.493 56.0703C234.493 56.5982 234.587 57.0433 234.776 57.4058C234.973 57.7682 235.233 58.04 235.556 58.2212C235.879 58.3946 236.234 58.4812 236.62 58.4812ZM249.143 52.7258C249.647 52.7258 250.096 52.8321 250.49 53.0449C250.884 53.2497 251.195 53.5609 251.424 53.9785C251.652 54.3961 251.767 54.9043 251.767 55.503V59.3203H250.703V55.6567C250.703 55.0106 250.541 54.5182 250.218 54.1794C249.903 53.8327 249.474 53.6594 248.93 53.6594C248.371 53.6594 247.926 53.8406 247.595 54.203C247.264 54.5576 247.098 55.0736 247.098 55.7512V59.3203H246.035V55.6567C246.035 55.0106 245.873 54.5182 245.55 54.1794C245.235 53.8327 244.806 53.6594 244.262 53.6594C243.703 53.6594 243.258 53.8406 242.927 54.203C242.596 54.5576 242.43 55.0736 242.43 55.7512V59.3203H241.355V52.8439H242.43V53.7776C242.643 53.4388 242.927 53.1788 243.281 52.9976C243.644 52.8164 244.041 52.7258 244.475 52.7258C245.018 52.7258 245.499 52.8479 245.917 53.0921C246.334 53.3364 246.645 53.6949 246.85 54.1676C247.031 53.7106 247.331 53.3561 247.748 53.1039C248.166 52.8518 248.631 52.7258 249.143 52.7258ZM259.44 55.8339C259.44 56.0388 259.428 56.2555 259.404 56.4839H254.228C254.267 57.1221 254.484 57.6224 254.878 57.9849C255.28 58.3394 255.764 58.5167 256.332 58.5167C256.797 58.5167 257.183 58.4103 257.49 58.1976C257.805 57.977 258.026 57.6855 258.152 57.323H259.31C259.137 57.9455 258.79 58.4536 258.27 58.8476C257.75 59.2336 257.104 59.4267 256.332 59.4267C255.717 59.4267 255.166 59.2888 254.677 59.013C254.197 58.7373 253.818 58.3473 253.543 57.843C253.267 57.3309 253.129 56.74 253.129 56.0703C253.129 55.4006 253.263 54.8136 253.531 54.3094C253.799 53.8052 254.173 53.4191 254.653 53.1512C255.142 52.8755 255.701 52.7376 256.332 52.7376C256.946 52.7376 257.49 52.8715 257.963 53.1394C258.435 53.4073 258.798 53.7776 259.05 54.2503C259.31 54.7152 259.44 55.243 259.44 55.8339ZM258.329 55.6094C258.329 55.1997 258.238 54.8491 258.057 54.5576C257.876 54.2582 257.628 54.0336 257.313 53.8839C257.005 53.7264 256.663 53.6476 256.284 53.6476C255.741 53.6476 255.276 53.8209 254.89 54.1676C254.512 54.5143 254.295 54.9949 254.24 55.6094H258.329ZM261.935 53.8958C262.124 53.5255 262.392 53.2379 262.738 53.033C263.093 52.8282 263.522 52.7258 264.027 52.7258V53.8367H263.743C262.538 53.8367 261.935 54.4906 261.935 55.7985V59.3203H260.859V52.8439H261.935V53.8958ZM271.243 59.4267C270.637 59.4267 270.085 59.2888 269.589 59.013C269.1 58.7373 268.714 58.3473 268.431 57.843C268.155 57.3309 268.017 56.74 268.017 56.0703C268.017 55.4085 268.159 54.8255 268.443 54.3212C268.734 53.8091 269.128 53.4191 269.624 53.1512C270.121 52.8755 270.676 52.7376 271.291 52.7376C271.905 52.7376 272.461 52.8755 272.957 53.1512C273.453 53.4191 273.843 53.8052 274.127 54.3094C274.419 54.8136 274.564 55.4006 274.564 56.0703C274.564 56.74 274.415 57.3309 274.115 57.843C273.824 58.3473 273.426 58.7373 272.922 59.013C272.417 59.2888 271.858 59.4267 271.243 59.4267ZM271.243 58.4812C271.629 58.4812 271.992 58.3906 272.331 58.2094C272.669 58.0282 272.941 57.7564 273.146 57.3939C273.359 57.0315 273.465 56.5903 273.465 56.0703C273.465 55.5503 273.363 55.1091 273.158 54.7467C272.953 54.3843 272.685 54.1164 272.354 53.943C272.023 53.7618 271.665 53.6712 271.279 53.6712C270.885 53.6712 270.523 53.7618 270.192 53.943C269.869 54.1164 269.609 54.3843 269.412 54.7467C269.215 55.1091 269.116 55.5503 269.116 56.0703C269.116 56.5982 269.211 57.0433 269.4 57.4058C269.597 57.7682 269.857 58.04 270.18 58.2212C270.503 58.3946 270.857 58.4812 271.243 58.4812ZM278.614 53.7303H277.255V59.3203H276.179V53.7303H275.34V52.8439H276.179V52.383C276.179 51.6582 276.364 51.1303 276.735 50.7994C277.113 50.4606 277.716 50.2912 278.543 50.2912V51.1894C278.07 51.1894 277.735 51.2839 277.538 51.473C277.349 51.6543 277.255 51.9576 277.255 52.383V52.8439H278.614V53.7303ZM282.503 53.7303H281.144V59.3203H280.069V53.7303H279.23V52.8439H280.069V52.383C280.069 51.6582 280.254 51.1303 280.624 50.7994C281.002 50.4606 281.605 50.2912 282.432 50.2912V51.1894C281.96 51.1894 281.625 51.2839 281.428 51.473C281.239 51.6543 281.144 51.9576 281.144 52.383V52.8439H282.503V53.7303ZM289.666 55.8339C289.666 56.0388 289.654 56.2555 289.631 56.4839H284.454C284.494 57.1221 284.71 57.6224 285.104 57.9849C285.506 58.3394 285.991 58.5167 286.558 58.5167C287.023 58.5167 287.409 58.4103 287.716 58.1976C288.031 57.977 288.252 57.6855 288.378 57.323H289.536C289.363 57.9455 289.016 58.4536 288.496 58.8476C287.976 59.2336 287.33 59.4267 286.558 59.4267C285.943 59.4267 285.392 59.2888 284.903 59.013C284.423 58.7373 284.045 58.3473 283.769 57.843C283.493 57.3309 283.355 56.74 283.355 56.0703C283.355 55.4006 283.489 54.8136 283.757 54.3094C284.025 53.8052 284.399 53.4191 284.88 53.1512C285.368 52.8755 285.928 52.7376 286.558 52.7376C287.173 52.7376 287.716 52.8715 288.189 53.1394C288.662 53.4073 289.024 53.7776 289.276 54.2503C289.536 54.7152 289.666 55.243 289.666 55.8339ZM288.555 55.6094C288.555 55.1997 288.465 54.8491 288.283 54.5576C288.102 54.2582 287.854 54.0336 287.539 53.8839C287.232 53.7264 286.889 53.6476 286.511 53.6476C285.967 53.6476 285.502 53.8209 285.116 54.1676C284.738 54.5143 284.521 54.9949 284.466 55.6094H288.555ZM292.161 53.8958C292.35 53.5255 292.618 53.2379 292.965 53.033C293.319 52.8282 293.749 52.7258 294.253 52.7258V53.8367H293.969C292.764 53.8367 292.161 54.4906 292.161 55.7985V59.3203H291.086V52.8439H292.161V53.8958ZM300.749 50.9767C301.529 50.9767 302.159 51.1973 302.64 51.6385C303.12 52.0797 303.361 52.6706 303.361 53.4112C303.361 54.2385 303.105 54.853 302.593 55.2549C302.08 55.6488 301.387 55.8458 300.513 55.8458L300.477 56.9685H299.543L299.496 55.1012H299.839C300.619 55.1012 301.23 54.983 301.671 54.7467C302.112 54.5103 302.333 54.0652 302.333 53.4112C302.333 52.9385 302.191 52.5643 301.907 52.2885C301.623 52.0127 301.241 51.8749 300.761 51.8749C300.272 51.8749 299.886 52.0088 299.603 52.2767C299.327 52.5367 299.189 52.8952 299.189 53.3521H298.173C298.173 52.8794 298.279 52.4658 298.492 52.1112C298.704 51.7488 299.004 51.4691 299.39 51.2721C299.784 51.0752 300.237 50.9767 300.749 50.9767ZM300.004 59.3912C299.8 59.3912 299.626 59.3203 299.484 59.1785C299.343 59.0367 299.272 58.8633 299.272 58.6585C299.272 58.4536 299.343 58.2803 299.484 58.1385C299.626 57.9967 299.8 57.9258 300.004 57.9258C300.201 57.9258 300.367 57.9967 300.501 58.1385C300.643 58.2803 300.713 58.4536 300.713 58.6585C300.713 58.8633 300.643 59.0367 300.501 59.1785C300.367 59.3203 300.201 59.3912 300.004 59.3912Z" fill="#2E2C43"/>
<rect x="21.5713" y="90.2163" width="164.61" height="57.4026" fill="#FB8C00"/>
<rect x="186.181" y="92.7489" width="162.922" height="54.026" stroke="#FB8C00" stroke-width="3.37662"/>
<path d="M99.0435 113.381L95.6128 120.039V122.943H92.6144V120.039L89.1837 113.381H92.6144L94.1406 116.771L95.6669 113.381H99.0435ZM107.1 119.067C107.1 119.274 107.086 119.472 107.059 119.661H102.237C102.282 120.319 102.557 120.647 103.061 120.647C103.385 120.647 103.62 120.499 103.764 120.202H106.938C106.83 120.742 106.6 121.228 106.249 121.66C105.907 122.083 105.47 122.421 104.939 122.673C104.416 122.916 103.84 123.038 103.21 123.038C102.453 123.038 101.778 122.88 101.184 122.565C100.599 122.25 100.139 121.8 99.8062 121.215C99.482 120.62 99.3199 119.927 99.3199 119.135C99.3199 118.342 99.482 117.653 99.8062 117.068C100.139 116.474 100.599 116.019 101.184 115.704C101.778 115.389 102.453 115.231 103.21 115.231C103.966 115.231 104.637 115.389 105.222 115.704C105.817 116.01 106.276 116.451 106.6 117.028C106.933 117.604 107.1 118.284 107.1 119.067ZM104.061 118.351C104.061 118.099 103.98 117.91 103.818 117.784C103.656 117.649 103.453 117.581 103.21 117.581C102.679 117.581 102.368 117.838 102.278 118.351H104.061ZM111.438 123.038C110.718 123.038 110.078 122.921 109.52 122.687C108.971 122.453 108.534 122.128 108.21 121.714C107.886 121.3 107.701 120.832 107.656 120.31H110.533C110.569 120.535 110.664 120.701 110.817 120.809C110.979 120.917 111.181 120.971 111.425 120.971C111.578 120.971 111.699 120.94 111.789 120.877C111.879 120.805 111.924 120.719 111.924 120.62C111.924 120.449 111.83 120.328 111.641 120.256C111.452 120.184 111.132 120.102 110.682 120.012C110.132 119.904 109.678 119.787 109.318 119.661C108.966 119.535 108.656 119.319 108.386 119.013C108.125 118.707 107.994 118.284 107.994 117.743C107.994 117.275 108.116 116.852 108.359 116.474C108.611 116.087 108.98 115.785 109.466 115.569C109.952 115.344 110.542 115.231 111.236 115.231C112.262 115.231 113.063 115.483 113.64 115.988C114.225 116.492 114.576 117.149 114.693 117.959H112.032C111.987 117.752 111.893 117.595 111.749 117.487C111.605 117.37 111.411 117.311 111.168 117.311C111.015 117.311 110.898 117.343 110.817 117.406C110.736 117.46 110.695 117.545 110.695 117.662C110.695 117.815 110.79 117.932 110.979 118.013C111.168 118.086 111.47 118.162 111.884 118.243C112.433 118.351 112.897 118.473 113.275 118.608C113.653 118.743 113.982 118.977 114.261 119.31C114.54 119.634 114.68 120.084 114.68 120.661C114.68 121.111 114.549 121.516 114.288 121.876C114.027 122.237 113.649 122.52 113.153 122.727C112.667 122.934 112.095 123.038 111.438 123.038Z" fill="white"/>
<path d="M273.842 123.788H270.844L267.67 118.979V123.788H264.672V114.225H267.67L270.844 119.114V114.225H273.842V123.788ZM278.817 123.882C278.051 123.882 277.363 123.725 276.75 123.409C276.138 123.094 275.656 122.644 275.305 122.059C274.963 121.464 274.792 120.771 274.792 119.979C274.792 119.186 274.963 118.498 275.305 117.912C275.656 117.318 276.138 116.863 276.75 116.548C277.363 116.233 278.051 116.075 278.817 116.075C279.582 116.075 280.271 116.233 280.883 116.548C281.496 116.863 281.973 117.318 282.315 117.912C282.666 118.498 282.842 119.186 282.842 119.979C282.842 120.771 282.666 121.464 282.315 122.059C281.973 122.644 281.496 123.094 280.883 123.409C280.271 123.725 279.582 123.882 278.817 123.882ZM278.817 121.289C279.096 121.289 279.33 121.181 279.519 120.965C279.708 120.74 279.803 120.411 279.803 119.979C279.803 119.547 279.708 119.222 279.519 119.006C279.33 118.781 279.096 118.669 278.817 118.669C278.538 118.669 278.304 118.781 278.114 119.006C277.925 119.222 277.831 119.547 277.831 119.979C277.831 120.411 277.921 120.74 278.101 120.965C278.29 121.181 278.529 121.289 278.817 121.289Z" fill="#FB8C00"/>
</g>
<defs>
<filter id="filter0_d_1790_129" x="-67.3383" y="-59.5402" width="462.71" height="308.275" filterUnits="userSpaceOnUse" color-interpolation-filters="sRGB">
<feFlood flood-opacity="0" result="BackgroundImageFix"/>
<feColorMatrix in="SourceAlpha" type="matrix" values="0 0 0 0 0 0 0 0 0 0 0 0 0 0 0 0 0 0 127 0" result="hardAlpha"/>
<feOffset dx="8.89426" dy="8.89426"/>
<feGaussianBlur stdDeviation="44.4713"/>
<feComposite in2="hardAlpha" operator="out"/>
<feColorMatrix type="matrix" values="0 0 0 0 0.741667 0 0 0 0 0.741667 0 0 0 0 0.741667 0 0 0 0.35 0"/>
<feBlend mode="normal" in2="BackgroundImageFix" result="effect1_dropShadow_1790_129"/>
<feBlend mode="normal" in="SourceGraphic" in2="effect1_dropShadow_1790_129" result="shape"/>
</filter>
<clipPath id="clip0_1790_129">
<rect width="371" height="153" fill="white"/>
</clipPath>
</defs>
</svg>
