<svg width="388" height="166" viewBox="0 0 388 166" fill="none" xmlns="http://www.w3.org/2000/svg">
<rect width="389" height="166" fill="#FFE7C8"/>
<rect x="127" y="20" width="133" height="125.201" rx="6.5679" fill="white"/>
<rect x="127.103" y="20.1026" width="132.795" height="124.995" rx="6.46528" stroke="#2E2C43" stroke-opacity="0.1" stroke-width="0.205247"/>
<path d="M192.098 82.566H181.186V80.582H192.098V69.6697H194.082V80.582H204.994V82.566H194.082V93.4783H192.098V82.566Z" fill="black" fill-opacity="0.2"/>
<path d="M162.966 118.178C162.966 117.445 163.125 116.793 163.442 116.222C163.759 115.644 164.199 115.197 164.763 114.88C165.334 114.556 165.978 114.393 166.697 114.393C167.578 114.393 168.332 114.626 168.959 115.091C169.586 115.556 170.006 116.19 170.217 116.994H168.23C168.082 116.684 167.87 116.448 167.596 116.286C167.328 116.123 167.021 116.042 166.676 116.042C166.119 116.042 165.668 116.236 165.323 116.624C164.978 117.011 164.805 117.529 164.805 118.178C164.805 118.826 164.978 119.344 165.323 119.731C165.668 120.119 166.119 120.313 166.676 120.313C167.021 120.313 167.328 120.232 167.596 120.07C167.87 119.908 168.082 119.671 168.23 119.361H170.217C170.006 120.165 169.586 120.799 168.959 121.264C168.332 121.722 167.578 121.951 166.697 121.951C165.978 121.951 165.334 121.792 164.763 121.475C164.199 121.151 163.759 120.704 163.442 120.133C163.125 119.562 162.966 118.91 162.966 118.178ZM173.131 114.076V121.898H171.324V114.076H173.131ZM175.35 115.387C175.033 115.387 174.772 115.295 174.568 115.112C174.371 114.922 174.272 114.689 174.272 114.415C174.272 114.133 174.371 113.9 174.568 113.717C174.772 113.527 175.033 113.432 175.35 113.432C175.66 113.432 175.914 113.527 176.111 113.717C176.316 113.9 176.418 114.133 176.418 114.415C176.418 114.689 176.316 114.922 176.111 115.112C175.914 115.295 175.66 115.387 175.35 115.387ZM176.249 116V121.898H174.441V116H176.249ZM177.199 118.949C177.199 118.336 177.322 117.801 177.569 117.343C177.823 116.884 178.172 116.532 178.616 116.286C179.067 116.039 179.581 115.916 180.159 115.916C180.899 115.916 181.515 116.109 182.009 116.497C182.509 116.884 182.836 117.431 182.992 118.135H181.068C180.906 117.684 180.592 117.459 180.127 117.459C179.796 117.459 179.532 117.589 179.334 117.85C179.137 118.104 179.038 118.47 179.038 118.949C179.038 119.428 179.137 119.798 179.334 120.059C179.532 120.313 179.796 120.44 180.127 120.44C180.592 120.44 180.906 120.214 181.068 119.763H182.992C182.836 120.454 182.509 120.996 182.009 121.391C181.508 121.785 180.892 121.983 180.159 121.983C179.581 121.983 179.067 121.859 178.616 121.613C178.172 121.366 177.823 121.014 177.569 120.556C177.322 120.098 177.199 119.562 177.199 118.949ZM187.563 121.898L185.766 119.425V121.898H183.958V114.076H185.766V118.4L187.552 116H189.782L187.33 118.96L189.804 121.898H187.563ZM200.627 116.867C200.627 117.297 200.529 117.691 200.331 118.051C200.134 118.403 199.831 118.688 199.422 118.907C199.013 119.125 198.506 119.235 197.9 119.235H196.78V121.898H194.972V114.478H197.9C198.492 114.478 198.992 114.58 199.401 114.785C199.81 114.989 200.116 115.271 200.321 115.63C200.525 115.99 200.627 116.402 200.627 116.867ZM197.763 117.797C198.108 117.797 198.365 117.716 198.534 117.554C198.703 117.392 198.788 117.163 198.788 116.867C198.788 116.571 198.703 116.342 198.534 116.18C198.365 116.018 198.108 115.937 197.763 115.937H196.78V117.797H197.763ZM205.194 115.937C205.87 115.937 206.413 116.162 206.821 116.613C207.23 117.057 207.434 117.67 207.434 118.452V121.898H205.638V118.695C205.638 118.301 205.535 117.994 205.331 117.776C205.127 117.557 204.852 117.448 204.507 117.448C204.161 117.448 203.886 117.557 203.682 117.776C203.478 117.994 203.376 118.301 203.376 118.695V121.898H201.568V114.076H203.376V116.793C203.559 116.532 203.809 116.324 204.126 116.169C204.443 116.014 204.799 115.937 205.194 115.937ZM211.375 121.983C210.797 121.983 210.276 121.859 209.811 121.613C209.353 121.366 208.99 121.014 208.722 120.556C208.461 120.098 208.331 119.562 208.331 118.949C208.331 118.343 208.465 117.811 208.733 117.353C209.001 116.888 209.367 116.532 209.832 116.286C210.297 116.039 210.819 115.916 211.396 115.916C211.974 115.916 212.496 116.039 212.961 116.286C213.426 116.532 213.792 116.888 214.06 117.353C214.328 117.811 214.462 118.343 214.462 118.949C214.462 119.555 214.324 120.091 214.049 120.556C213.782 121.014 213.412 121.366 212.94 121.613C212.475 121.859 211.953 121.983 211.375 121.983ZM211.375 120.418C211.721 120.418 212.013 120.292 212.253 120.038C212.499 119.784 212.623 119.421 212.623 118.949C212.623 118.477 212.503 118.114 212.263 117.86C212.031 117.607 211.742 117.48 211.396 117.48C211.044 117.48 210.752 117.607 210.519 117.86C210.287 118.107 210.17 118.47 210.17 118.949C210.17 119.421 210.283 119.784 210.509 120.038C210.741 120.292 211.03 120.418 211.375 120.418ZM218.708 120.366V121.898H217.788C217.133 121.898 216.622 121.74 216.256 121.423C215.889 121.098 215.706 120.573 215.706 119.848V117.501H214.987V116H215.706V114.563H217.513V116H218.697V117.501H217.513V119.869C217.513 120.045 217.556 120.172 217.64 120.249C217.725 120.327 217.866 120.366 218.063 120.366H218.708ZM222.399 121.983C221.822 121.983 221.3 121.859 220.835 121.613C220.377 121.366 220.014 121.014 219.746 120.556C219.486 120.098 219.355 119.562 219.355 118.949C219.355 118.343 219.489 117.811 219.757 117.353C220.025 116.888 220.391 116.532 220.856 116.286C221.321 116.039 221.843 115.916 222.421 115.916C222.998 115.916 223.52 116.039 223.985 116.286C224.45 116.532 224.816 116.888 225.084 117.353C225.352 117.811 225.486 118.343 225.486 118.949C225.486 119.555 225.348 120.091 225.074 120.556C224.806 121.014 224.436 121.366 223.964 121.613C223.499 121.859 222.977 121.983 222.399 121.983ZM222.399 120.418C222.745 120.418 223.037 120.292 223.277 120.038C223.523 119.784 223.647 119.421 223.647 118.949C223.647 118.477 223.527 118.114 223.287 117.86C223.055 117.607 222.766 117.48 222.421 117.48C222.068 117.48 221.776 117.607 221.543 117.86C221.311 118.107 221.194 118.47 221.194 118.949C221.194 119.421 221.307 119.784 221.533 120.038C221.765 120.292 222.054 120.418 222.399 120.418Z" fill="#DBCDBB"/>
</svg>
