<svg width="336" height="134" viewBox="0 0 336 134" fill="none" xmlns="http://www.w3.org/2000/svg">
<rect y="75.1465" width="336" height="58.7352" fill="#FB8C00"/>
<path d="M112.401 109.246C111.231 109.246 110.264 108.974 109.499 108.431C108.744 107.878 108.334 107.072 108.269 106.012H111.531C111.577 106.574 111.825 106.855 112.277 106.855C112.443 106.855 112.581 106.818 112.691 106.745C112.811 106.662 112.871 106.537 112.871 106.372C112.871 106.141 112.747 105.957 112.498 105.819C112.249 105.671 111.862 105.506 111.337 105.321C110.711 105.1 110.19 104.884 109.775 104.672C109.37 104.46 109.02 104.151 108.725 103.746C108.43 103.34 108.287 102.82 108.297 102.184C108.297 101.548 108.458 101.009 108.78 100.567C109.112 100.116 109.559 99.7748 110.121 99.5445C110.692 99.3141 111.332 99.199 112.042 99.199C113.24 99.199 114.189 99.4754 114.889 100.028C115.598 100.581 115.971 101.36 116.008 102.364H112.705C112.696 102.087 112.627 101.889 112.498 101.77C112.369 101.65 112.212 101.59 112.028 101.59C111.899 101.59 111.793 101.636 111.71 101.728C111.627 101.811 111.586 101.931 111.586 102.087C111.586 102.308 111.706 102.493 111.945 102.64C112.194 102.778 112.585 102.949 113.12 103.152C113.737 103.382 114.244 103.603 114.64 103.815C115.045 104.027 115.396 104.322 115.69 104.699C115.985 105.077 116.133 105.552 116.133 106.123C116.133 106.722 115.985 107.261 115.69 107.74C115.396 108.21 114.967 108.578 114.405 108.845C113.843 109.113 113.175 109.246 112.401 109.246ZM124.756 105.183C124.756 105.395 124.743 105.598 124.715 105.791H119.781C119.827 106.464 120.108 106.8 120.624 106.8C120.956 106.8 121.195 106.648 121.343 106.344H124.591C124.48 106.897 124.245 107.394 123.886 107.837C123.536 108.27 123.089 108.615 122.545 108.873C122.011 109.122 121.421 109.246 120.776 109.246C120.002 109.246 119.311 109.085 118.703 108.762C118.104 108.44 117.634 107.979 117.294 107.38C116.962 106.772 116.796 106.063 116.796 105.252C116.796 104.441 116.962 103.737 117.294 103.138C117.634 102.53 118.104 102.064 118.703 101.742C119.311 101.419 120.002 101.258 120.776 101.258C121.55 101.258 122.236 101.419 122.835 101.742C123.443 102.055 123.913 102.507 124.245 103.096C124.586 103.686 124.756 104.381 124.756 105.183ZM121.647 104.451C121.647 104.193 121.564 103.999 121.398 103.87C121.232 103.732 121.025 103.663 120.776 103.663C120.233 103.663 119.915 103.925 119.823 104.451H121.647ZM131.186 101.3C132.079 101.3 132.775 101.599 133.272 102.198C133.779 102.797 134.033 103.608 134.033 104.63V109.149H130.978V105.017C130.978 104.649 130.877 104.358 130.674 104.147C130.481 103.925 130.218 103.815 129.887 103.815C129.546 103.815 129.278 103.925 129.085 104.147C128.891 104.358 128.795 104.649 128.795 105.017V109.149H125.727V101.355H128.795V102.543C129.034 102.175 129.352 101.875 129.748 101.645C130.154 101.415 130.633 101.3 131.186 101.3ZM134.948 105.252C134.948 104.432 135.087 103.723 135.363 103.124C135.649 102.516 136.035 102.055 136.524 101.742C137.012 101.419 137.56 101.258 138.168 101.258C138.675 101.258 139.108 101.364 139.467 101.576C139.836 101.779 140.117 102.06 140.31 102.419V98.9226H143.379V109.149H140.31V108.085C140.117 108.445 139.836 108.73 139.467 108.942C139.108 109.145 138.675 109.246 138.168 109.246C137.56 109.246 137.012 109.09 136.524 108.776C136.035 108.454 135.649 107.993 135.363 107.394C135.087 106.786 134.948 106.072 134.948 105.252ZM140.324 105.252C140.324 104.838 140.218 104.515 140.006 104.285C139.795 104.054 139.523 103.939 139.191 103.939C138.859 103.939 138.588 104.054 138.376 104.285C138.164 104.515 138.058 104.838 138.058 105.252C138.058 105.667 138.164 105.989 138.376 106.22C138.588 106.45 138.859 106.565 139.191 106.565C139.523 106.565 139.795 106.45 140.006 106.22C140.218 105.989 140.324 105.667 140.324 105.252ZM146.69 105.252C146.69 104.432 146.828 103.723 147.105 103.124C147.39 102.516 147.777 102.055 148.265 101.742C148.754 101.419 149.302 101.258 149.91 101.258C150.417 101.258 150.854 101.364 151.223 101.576C151.591 101.779 151.872 102.06 152.066 102.419V101.355H155.12V109.149H152.066V108.085C151.872 108.445 151.591 108.73 151.223 108.942C150.854 109.145 150.417 109.246 149.91 109.246C149.302 109.246 148.754 109.09 148.265 108.776C147.777 108.454 147.39 107.993 147.105 107.394C146.828 106.786 146.69 106.072 146.69 105.252ZM152.066 105.252C152.066 104.838 151.96 104.515 151.748 104.285C151.536 104.054 151.264 103.939 150.933 103.939C150.601 103.939 150.329 104.054 150.117 104.285C149.905 104.515 149.799 104.838 149.799 105.252C149.799 105.667 149.905 105.989 150.117 106.22C150.329 106.45 150.601 106.565 150.933 106.565C151.264 106.565 151.536 106.45 151.748 106.22C151.96 105.989 152.066 105.667 152.066 105.252ZM164.305 101.3C165.199 101.3 165.894 101.599 166.392 102.198C166.899 102.797 167.152 103.608 167.152 104.63V109.149H164.098V105.017C164.098 104.649 163.996 104.358 163.794 104.147C163.6 103.925 163.338 103.815 163.006 103.815C162.665 103.815 162.398 103.925 162.204 104.147C162.011 104.358 161.914 104.649 161.914 105.017V109.149H158.846V101.355H161.914V102.543C162.154 102.175 162.472 101.875 162.868 101.645C163.273 101.415 163.752 101.3 164.305 101.3ZM176.028 105.183C176.028 105.395 176.014 105.598 175.987 105.791H171.053C171.099 106.464 171.38 106.8 171.896 106.8C172.228 106.8 172.467 106.648 172.615 106.344H175.862C175.752 106.897 175.517 107.394 175.158 107.837C174.807 108.27 174.361 108.615 173.817 108.873C173.283 109.122 172.693 109.246 172.048 109.246C171.274 109.246 170.583 109.085 169.975 108.762C169.376 108.44 168.906 107.979 168.565 107.38C168.234 106.772 168.068 106.063 168.068 105.252C168.068 104.441 168.234 103.737 168.565 103.138C168.906 102.53 169.376 102.064 169.975 101.742C170.583 101.419 171.274 101.258 172.048 101.258C172.822 101.258 173.508 101.419 174.107 101.742C174.715 102.055 175.185 102.507 175.517 103.096C175.858 103.686 176.028 104.381 176.028 105.183ZM172.919 104.451C172.919 104.193 172.836 103.999 172.67 103.87C172.504 103.732 172.297 103.663 172.048 103.663C171.504 103.663 171.187 103.925 171.094 104.451H172.919ZM188.828 101.355L186.977 109.149H183.522L182.582 104.755L181.587 109.149H178.132L176.294 101.355H179.334L179.984 106.095L180.993 101.355H184.268L185.332 106.15L185.995 101.355H188.828ZM195.535 109.246C194.751 109.246 194.047 109.085 193.42 108.762C192.794 108.44 192.301 107.979 191.941 107.38C191.591 106.772 191.416 106.063 191.416 105.252C191.416 104.441 191.591 103.737 191.941 103.138C192.301 102.53 192.794 102.064 193.42 101.742C194.047 101.419 194.751 101.258 195.535 101.258C196.318 101.258 197.023 101.419 197.649 101.742C198.276 102.064 198.764 102.53 199.114 103.138C199.473 103.737 199.653 104.441 199.653 105.252C199.653 106.063 199.473 106.772 199.114 107.38C198.764 107.979 198.276 108.44 197.649 108.762C197.023 109.085 196.318 109.246 195.535 109.246ZM195.535 106.593C195.82 106.593 196.06 106.482 196.253 106.261C196.447 106.031 196.543 105.694 196.543 105.252C196.543 104.81 196.447 104.478 196.253 104.257C196.06 104.027 195.82 103.912 195.535 103.912C195.249 103.912 195.009 104.027 194.816 104.257C194.622 104.478 194.526 104.81 194.526 105.252C194.526 105.694 194.618 106.031 194.802 106.261C194.996 106.482 195.24 106.593 195.535 106.593ZM205.108 100.802C204.942 100.784 204.827 100.774 204.763 100.774C204.532 100.774 204.357 100.821 204.238 100.913C204.118 100.996 204.035 101.143 203.989 101.355H205.108V103.912H203.961V109.149H200.893V103.912H200.064V101.355H200.893C200.912 100.341 201.229 99.5583 201.847 99.0055C202.473 98.4435 203.349 98.1625 204.473 98.1625C204.602 98.1625 204.813 98.1717 205.108 98.1901V100.802ZM210.426 100.802C210.26 100.784 210.145 100.774 210.08 100.774C209.85 100.774 209.675 100.821 209.555 100.913C209.435 100.996 209.352 101.143 209.306 101.355H210.426V103.912H209.279V109.149H206.211V103.912H205.381V101.355H206.211C206.229 100.341 206.547 99.5583 207.164 99.0055C207.791 98.4435 208.666 98.1625 209.79 98.1625C209.919 98.1625 210.131 98.1717 210.426 98.1901V100.802ZM218.797 105.183C218.797 105.395 218.784 105.598 218.756 105.791H213.822C213.868 106.464 214.149 106.8 214.665 106.8C214.997 106.8 215.237 106.648 215.384 106.344H218.632C218.521 106.897 218.286 107.394 217.927 107.837C217.577 108.27 217.13 108.615 216.586 108.873C216.052 109.122 215.462 109.246 214.817 109.246C214.043 109.246 213.352 109.085 212.744 108.762C212.145 108.44 211.676 107.979 211.335 107.38C211.003 106.772 210.837 106.063 210.837 105.252C210.837 104.441 211.003 103.737 211.335 103.138C211.676 102.53 212.145 102.064 212.744 101.742C213.352 101.419 214.043 101.258 214.817 101.258C215.591 101.258 216.278 101.419 216.876 101.742C217.485 102.055 217.954 102.507 218.286 103.096C218.627 103.686 218.797 104.381 218.797 105.183ZM215.688 104.451C215.688 104.193 215.605 103.999 215.439 103.87C215.273 103.732 215.066 103.663 214.817 103.663C214.274 103.663 213.956 103.925 213.864 104.451H215.688ZM222.836 102.792C223.149 102.341 223.531 101.981 223.983 101.714C224.434 101.438 224.904 101.3 225.393 101.3V104.575H224.522C223.941 104.575 223.513 104.676 223.237 104.879C222.969 105.082 222.836 105.441 222.836 105.957V109.149H219.768V101.355H222.836V102.792Z" fill="white"/>
<rect x="21.1623" y="0.431877" width="278.992" height="53.5527" rx="20.2982" stroke="#FB8C00" stroke-width="0.863753"/>
<path d="M82.8986 31.5079C81.7285 31.5079 80.7611 31.2361 79.9964 30.6925C79.2409 30.1397 78.8309 29.3335 78.7664 28.274H82.0279C82.074 28.836 82.3228 29.117 82.7742 29.117C82.9401 29.117 83.0783 29.0802 83.1888 29.0064C83.3086 28.9235 83.3685 28.7991 83.3685 28.6333C83.3685 28.403 83.2441 28.2187 82.9953 28.0805C82.7466 27.9331 82.3596 27.7672 81.8344 27.583C81.2079 27.3619 80.6874 27.1453 80.2728 26.9334C79.8674 26.7215 79.5173 26.4129 79.2225 26.0075C78.9276 25.6021 78.7848 25.0815 78.794 24.4458C78.794 23.8101 78.9553 23.2711 79.2777 22.8289C79.6094 22.3774 80.0563 22.0365 80.6183 21.8062C81.1895 21.5759 81.8298 21.4607 82.5393 21.4607C83.737 21.4607 84.686 21.7371 85.3862 22.2899C86.0956 22.8427 86.4688 23.6212 86.5056 24.6255H83.2026C83.1934 24.3491 83.1243 24.151 82.9953 24.0312C82.8663 23.9115 82.7097 23.8516 82.5255 23.8516C82.3965 23.8516 82.2905 23.8976 82.2076 23.9898C82.1247 24.0727 82.0832 24.1925 82.0832 24.3491C82.0832 24.5702 82.203 24.7545 82.4425 24.9019C82.6913 25.0401 83.0829 25.2105 83.6172 25.4132C84.2345 25.6436 84.7413 25.8647 85.1374 26.0766C85.5428 26.2885 85.8929 26.5833 86.1878 26.9611C86.4826 27.3388 86.63 27.8133 86.63 28.3845C86.63 28.9834 86.4826 29.5224 86.1878 30.0015C85.8929 30.4714 85.4645 30.8399 84.9025 31.1071C84.3405 31.3743 83.6725 31.5079 82.8986 31.5079ZM95.2537 27.4448C95.2537 27.6567 95.2399 27.8594 95.2123 28.0529H90.2785C90.3246 28.7254 90.6056 29.0617 91.1215 29.0617C91.4532 29.0617 91.6927 28.9097 91.8402 28.6057H95.0879C94.9773 29.1585 94.7424 29.656 94.3831 30.0982C94.0329 30.5313 93.5861 30.8768 93.0425 31.1347C92.5081 31.3835 91.9185 31.5079 91.2735 31.5079C90.4996 31.5079 89.8086 31.3466 89.2005 31.0242C88.6017 30.7017 88.1318 30.241 87.7909 29.6422C87.4592 29.0341 87.2934 28.3247 87.2934 27.5139C87.2934 26.7031 87.4592 25.9983 87.7909 25.3994C88.1318 24.7913 88.6017 24.3261 89.2005 24.0036C89.8086 23.6811 90.4996 23.5199 91.2735 23.5199C92.0475 23.5199 92.7339 23.6811 93.3327 24.0036C93.9408 24.3168 94.4107 24.7683 94.7424 25.358C95.0833 25.9476 95.2537 26.6432 95.2537 27.4448ZM92.1442 26.7123C92.1442 26.4543 92.0613 26.2609 91.8954 26.1319C91.7296 25.9937 91.5223 25.9246 91.2735 25.9246C90.73 25.9246 90.4121 26.1872 90.32 26.7123H92.1442ZM101.683 23.5613C102.577 23.5613 103.272 23.8608 103.77 24.4596C104.277 25.0585 104.53 25.8693 104.53 26.892V31.4111H101.476V27.2789C101.476 26.9104 101.374 26.6202 101.172 26.4083C100.978 26.1872 100.716 26.0766 100.384 26.0766C100.043 26.0766 99.7758 26.1872 99.5823 26.4083C99.3888 26.6202 99.2921 26.9104 99.2921 27.2789V31.4111H96.224V23.6166H99.2921V24.8051C99.5316 24.4366 99.8495 24.1372 100.246 23.9068C100.651 23.6765 101.13 23.5613 101.683 23.5613ZM105.446 27.5139C105.446 26.6939 105.584 25.9845 105.86 25.3856C106.146 24.7775 106.533 24.3168 107.021 24.0036C107.509 23.6811 108.058 23.5199 108.666 23.5199C109.172 23.5199 109.606 23.6258 109.965 23.8377C110.333 24.0404 110.614 24.3214 110.808 24.6808V21.1843H113.876V31.4111H110.808V30.347C110.614 30.7063 110.333 30.9919 109.965 31.2038C109.606 31.4065 109.172 31.5079 108.666 31.5079C108.058 31.5079 107.509 31.3512 107.021 31.038C106.533 30.7155 106.146 30.2549 105.86 29.656C105.584 29.0479 105.446 28.3339 105.446 27.5139ZM110.822 27.5139C110.822 27.0993 110.716 26.7768 110.504 26.5465C110.292 26.3161 110.02 26.201 109.688 26.201C109.357 26.201 109.085 26.3161 108.873 26.5465C108.661 26.7768 108.555 27.0993 108.555 27.5139C108.555 27.9285 108.661 28.2509 108.873 28.4813C109.085 28.7116 109.357 28.8268 109.688 28.8268C110.02 28.8268 110.292 28.7116 110.504 28.4813C110.716 28.2509 110.822 27.9285 110.822 27.5139ZM117.187 27.5692C117.187 26.8044 117.344 26.1181 117.657 25.51C117.97 24.9019 118.39 24.4274 118.915 24.0865C119.449 23.7364 120.02 23.5613 120.629 23.5613C121.043 23.5613 121.407 23.6212 121.72 23.741C122.034 23.8516 122.315 24.0404 122.563 24.3076V23.6166H125.618V35.1425H122.563V30.5543C122.287 30.8768 121.992 31.1163 121.679 31.2729C121.375 31.4203 121.025 31.4941 120.629 31.4941C120.011 31.4941 119.44 31.3282 118.915 30.9965C118.39 30.6649 117.97 30.2042 117.657 29.6145C117.344 29.0157 117.187 28.3339 117.187 27.5692ZM122.563 27.5139C122.563 27.0624 122.444 26.7353 122.204 26.5327C121.974 26.3207 121.716 26.2148 121.43 26.2148C121.154 26.2148 120.896 26.33 120.656 26.5603C120.417 26.7814 120.297 27.1177 120.297 27.5692C120.297 28.0114 120.412 28.3339 120.642 28.5366C120.882 28.73 121.144 28.8268 121.43 28.8268C121.716 28.8268 121.974 28.7208 122.204 28.5089C122.444 28.297 122.563 27.9653 122.563 27.5139ZM135.246 23.6166V31.4111H132.178V30.2226C131.938 30.5911 131.616 30.8906 131.21 31.1209C130.814 31.3512 130.34 31.4664 129.787 31.4664C128.893 31.4664 128.193 31.167 127.686 30.5681C127.189 29.9692 126.94 29.1585 126.94 28.1358V23.6166H129.994V27.7488C129.994 28.1174 130.091 28.4122 130.284 28.6333C130.487 28.8452 130.754 28.9512 131.086 28.9512C131.427 28.9512 131.694 28.8452 131.888 28.6333C132.081 28.4122 132.178 28.1174 132.178 27.7488V23.6166H135.246ZM144.177 27.4448C144.177 27.6567 144.163 27.8594 144.136 28.0529H139.202C139.248 28.7254 139.529 29.0617 140.045 29.0617C140.377 29.0617 140.616 28.9097 140.764 28.6057H144.011C143.901 29.1585 143.666 29.656 143.307 30.0982C142.956 30.5313 142.51 30.8768 141.966 31.1347C141.432 31.3835 140.842 31.5079 140.197 31.5079C139.423 31.5079 138.732 31.3466 138.124 31.0242C137.525 30.7017 137.055 30.241 136.714 29.6422C136.383 29.0341 136.217 28.3247 136.217 27.5139C136.217 26.7031 136.383 25.9983 136.714 25.3994C137.055 24.7913 137.525 24.3261 138.124 24.0036C138.732 23.6811 139.423 23.5199 140.197 23.5199C140.971 23.5199 141.657 23.6811 142.256 24.0036C142.864 24.3168 143.334 24.7683 143.666 25.358C144.007 25.9476 144.177 26.6432 144.177 27.4448ZM141.068 26.7123C141.068 26.4543 140.985 26.2609 140.819 26.1319C140.653 25.9937 140.446 25.9246 140.197 25.9246C139.653 25.9246 139.336 26.1872 139.243 26.7123H141.068ZM148.216 25.0539C148.529 24.6025 148.911 24.2431 149.363 23.9759C149.814 23.6995 150.284 23.5613 150.772 23.5613V26.8367H149.902C149.321 26.8367 148.893 26.938 148.616 27.1407C148.349 27.3434 148.216 27.7028 148.216 28.2187V31.4111H145.148V23.6166H148.216V25.0539ZM160.402 23.6166L155.413 35.1425H152.055L154.017 31.0242L150.77 23.6166H154.183L155.648 27.5692L157.016 23.6166H160.402ZM168.151 28.7991V31.4111H166.99C164.852 31.4111 163.784 30.347 163.784 28.2187V26.1733H162.816V23.6166H163.784V21.7371H166.852V23.6166H168.123V26.1733H166.852V28.274C166.852 28.4582 166.893 28.5918 166.976 28.6748C167.068 28.7577 167.216 28.7991 167.418 28.7991H168.151ZM173.023 31.5079C172.24 31.5079 171.535 31.3466 170.908 31.0242C170.282 30.7017 169.789 30.241 169.43 29.6422C169.08 29.0341 168.905 28.3247 168.905 27.5139C168.905 26.7031 169.08 25.9983 169.43 25.3994C169.789 24.7913 170.282 24.3261 170.908 24.0036C171.535 23.6811 172.24 23.5199 173.023 23.5199C173.806 23.5199 174.511 23.6811 175.137 24.0036C175.764 24.3261 176.252 24.7913 176.602 25.3994C176.962 25.9983 177.141 26.7031 177.141 27.5139C177.141 28.3247 176.962 29.0341 176.602 29.6422C176.252 30.241 175.764 30.7017 175.137 31.0242C174.511 31.3466 173.806 31.5079 173.023 31.5079ZM173.023 28.8544C173.309 28.8544 173.548 28.7439 173.742 28.5227C173.935 28.2924 174.032 27.9561 174.032 27.5139C174.032 27.0716 173.935 26.74 173.742 26.5188C173.548 26.2885 173.309 26.1733 173.023 26.1733C172.737 26.1733 172.498 26.2885 172.304 26.5188C172.111 26.74 172.014 27.0716 172.014 27.5139C172.014 27.9561 172.106 28.2924 172.29 28.5227C172.484 28.7439 172.728 28.8544 173.023 28.8544ZM180.039 27.5139C180.039 26.7031 180.205 25.9983 180.536 25.3994C180.877 24.7913 181.347 24.3261 181.946 24.0036C182.554 23.6811 183.245 23.5199 184.019 23.5199C185.033 23.5199 185.885 23.8055 186.576 24.3767C187.276 24.948 187.718 25.7403 187.902 26.7538H184.655C184.535 26.3484 184.3 26.1457 183.95 26.1457C183.701 26.1457 183.503 26.2609 183.356 26.4912C183.217 26.7215 183.148 27.0624 183.148 27.5139C183.148 27.9653 183.217 28.3062 183.356 28.5366C183.503 28.7669 183.701 28.8821 183.95 28.8821C184.3 28.8821 184.535 28.6794 184.655 28.274H187.902C187.718 29.2875 187.276 30.0798 186.576 30.651C185.885 31.2223 185.033 31.5079 184.019 31.5079C183.245 31.5079 182.554 31.3466 181.946 31.0242C181.347 30.7017 180.877 30.241 180.536 29.6422C180.205 29.0341 180.039 28.3247 180.039 27.5139ZM197.126 23.6166V31.4111H194.058V30.2226C193.818 30.5911 193.496 30.8906 193.09 31.1209C192.694 31.3512 192.22 31.4664 191.667 31.4664C190.773 31.4664 190.073 31.167 189.566 30.5681C189.069 29.9692 188.82 29.1585 188.82 28.1358V23.6166H191.874V27.7488C191.874 28.1174 191.971 28.4122 192.164 28.6333C192.367 28.8452 192.634 28.9512 192.966 28.9512C193.307 28.9512 193.574 28.8452 193.767 28.6333C193.961 28.4122 194.058 28.1174 194.058 27.7488V23.6166H197.126ZM201.98 31.5079C201.243 31.5079 200.589 31.3881 200.018 31.1486C199.456 30.909 199.009 30.5773 198.677 30.1535C198.345 29.7297 198.157 29.2506 198.111 28.7162H201.054C201.091 28.9466 201.188 29.117 201.344 29.2276C201.51 29.3381 201.718 29.3934 201.966 29.3934C202.123 29.3934 202.247 29.3612 202.339 29.2967C202.432 29.223 202.478 29.1354 202.478 29.0341C202.478 28.859 202.381 28.7346 202.187 28.6609C201.994 28.5872 201.667 28.5043 201.206 28.4122C200.644 28.3016 200.179 28.1818 199.81 28.0529C199.451 27.9239 199.133 27.7028 198.857 27.3895C198.59 27.0762 198.456 26.6432 198.456 26.0904C198.456 25.6113 198.58 25.1783 198.829 24.7913C199.087 24.3952 199.465 24.0865 199.962 23.8654C200.46 23.6351 201.063 23.5199 201.773 23.5199C202.823 23.5199 203.643 23.7779 204.233 24.2938C204.832 24.8098 205.191 25.4823 205.311 26.3115H202.588C202.542 26.0996 202.445 25.9384 202.298 25.8278C202.151 25.7081 201.953 25.6482 201.704 25.6482C201.547 25.6482 201.427 25.6804 201.344 25.7449C201.262 25.8002 201.22 25.8877 201.22 26.0075C201.22 26.1641 201.317 26.2839 201.51 26.3668C201.704 26.4405 202.012 26.5188 202.436 26.6018C202.998 26.7123 203.473 26.8367 203.86 26.9749C204.247 27.1131 204.583 27.3526 204.869 27.6935C205.154 28.0252 205.297 28.4859 205.297 29.0755C205.297 29.5362 205.163 29.9508 204.896 30.3193C204.629 30.6879 204.242 30.9781 203.735 31.19C203.238 31.4019 202.653 31.5079 201.98 31.5079ZM211.365 28.7991V31.4111H210.204C208.067 31.4111 206.998 30.347 206.998 28.2187V26.1733H206.031V23.6166H206.998V21.7371H210.066V23.6166H211.338V26.1733H210.066V28.274C210.066 28.4582 210.108 28.5918 210.191 28.6748C210.283 28.7577 210.43 28.7991 210.633 28.7991H211.365ZM216.238 31.5079C215.454 31.5079 214.75 31.3466 214.123 31.0242C213.497 30.7017 213.004 30.241 212.644 29.6422C212.294 29.0341 212.119 28.3247 212.119 27.5139C212.119 26.7031 212.294 25.9983 212.644 25.3994C213.004 24.7913 213.497 24.3261 214.123 24.0036C214.75 23.6811 215.454 23.5199 216.238 23.5199C217.021 23.5199 217.726 23.6811 218.352 24.0036C218.979 24.3261 219.467 24.7913 219.817 25.3994C220.176 25.9983 220.356 26.7031 220.356 27.5139C220.356 28.3247 220.176 29.0341 219.817 29.6422C219.467 30.241 218.979 30.7017 218.352 31.0242C217.726 31.3466 217.021 31.5079 216.238 31.5079ZM216.238 28.8544C216.523 28.8544 216.763 28.7439 216.956 28.5227C217.15 28.2924 217.246 27.9561 217.246 27.5139C217.246 27.0716 217.15 26.74 216.956 26.5188C216.763 26.2885 216.523 26.1733 216.238 26.1733C215.952 26.1733 215.712 26.2885 215.519 26.5188C215.325 26.74 215.229 27.0716 215.229 27.5139C215.229 27.9561 215.321 28.2924 215.505 28.5227C215.699 28.7439 215.943 28.8544 216.238 28.8544ZM231.726 23.5613C232.721 23.5613 233.491 23.8608 234.034 24.4596C234.587 25.0585 234.863 25.8693 234.863 26.892V31.4111H231.809V27.2789C231.809 26.9473 231.708 26.6893 231.505 26.505C231.312 26.3115 231.049 26.2148 230.717 26.2148C230.377 26.2148 230.109 26.3115 229.916 26.505C229.722 26.6893 229.626 26.9473 229.626 27.2789V31.4111H226.571V27.2789C226.571 26.9473 226.47 26.6893 226.267 26.505C226.074 26.3115 225.811 26.2148 225.48 26.2148C225.139 26.2148 224.872 26.3115 224.678 26.505C224.485 26.6893 224.388 26.9473 224.388 27.2789V31.4111H221.32V23.6166H224.388V24.6669C224.609 24.3353 224.908 24.0681 225.286 23.8654C225.673 23.6627 226.125 23.5613 226.641 23.5613C227.203 23.5613 227.7 23.6857 228.133 23.9345C228.566 24.174 228.912 24.5149 229.17 24.9572C229.455 24.5518 229.819 24.2201 230.261 23.9621C230.704 23.6949 231.192 23.5613 231.726 23.5613ZM243.738 27.4448C243.738 27.6567 243.724 27.8594 243.697 28.0529H238.763C238.809 28.7254 239.09 29.0617 239.606 29.0617C239.938 29.0617 240.177 28.9097 240.325 28.6057H243.572C243.462 29.1585 243.227 29.656 242.868 30.0982C242.518 30.5313 242.071 30.8768 241.527 31.1347C240.993 31.3835 240.403 31.5079 239.758 31.5079C238.984 31.5079 238.293 31.3466 237.685 31.0242C237.086 30.7017 236.616 30.241 236.275 29.6422C235.944 29.0341 235.778 28.3247 235.778 27.5139C235.778 26.7031 235.944 25.9983 236.275 25.3994C236.616 24.7913 237.086 24.3261 237.685 24.0036C238.293 23.6811 238.984 23.5199 239.758 23.5199C240.532 23.5199 241.218 23.6811 241.817 24.0036C242.425 24.3168 242.895 24.7683 243.227 25.358C243.568 25.9476 243.738 26.6432 243.738 27.4448ZM240.629 26.7123C240.629 26.4543 240.546 26.2609 240.38 26.1319C240.214 25.9937 240.007 25.9246 239.758 25.9246C239.215 25.9246 238.897 26.1872 238.805 26.7123H240.629ZM247.777 25.0539C248.09 24.6025 248.472 24.2431 248.924 23.9759C249.375 23.6995 249.845 23.5613 250.333 23.5613V26.8367H249.463C248.882 26.8367 248.454 26.938 248.177 27.1407C247.91 27.3434 247.777 27.7028 247.777 28.2187V31.4111H244.709V23.6166H247.777V25.0539Z" fill="#FB8C00"/>
</svg>
