<svg width="20" height="24" viewBox="0 0 20 24" fill="none" xmlns="http://www.w3.org/2000/svg">
<path d="M9.75 0C12.3359 0 14.8158 1.02723 16.6443 2.85571C18.4728 4.68419 19.5 7.16414 19.5 9.75C19.5 13.87 16.605 18.36 10.89 23.268C10.5722 23.541 10.1671 23.6909 9.74813 23.6905C9.3292 23.6902 8.9243 23.5395 8.607 23.266L8.229 22.938C2.767 18.158 0 13.778 0 9.75C0 7.16414 1.02723 4.68419 2.85571 2.85571C4.68419 1.02723 7.16414 0 9.75 0ZM9.75 1.5C7.56196 1.5 5.46354 2.36919 3.91637 3.91637C2.36919 5.46354 1.5 7.56196 1.5 9.75C1.5 13.252 4.048 17.287 9.214 21.807L9.587 22.13C9.63235 22.169 9.69019 22.1904 9.75 22.1904C9.80981 22.1904 9.86765 22.169 9.913 22.13C15.329 17.478 18 13.335 18 9.75C18 8.66659 17.7866 7.5938 17.372 6.59286C16.9574 5.59193 16.3497 4.68245 15.5836 3.91637C14.8175 3.15029 13.9081 2.5426 12.9071 2.12799C11.9062 1.71339 10.8334 1.5 9.75 1.5ZM9.75 6C10.7446 6 11.6984 6.39509 12.4017 7.09835C13.1049 7.80161 13.5 8.75544 13.5 9.75C13.5 10.7446 13.1049 11.6984 12.4017 12.4017C11.6984 13.1049 10.7446 13.5 9.75 13.5C8.75544 13.5 7.80161 13.1049 7.09835 12.4017C6.39509 11.6984 6 10.7446 6 9.75C6 8.75544 6.39509 7.80161 7.09835 7.09835C7.80161 6.39509 8.75544 6 9.75 6ZM9.75 7.5C9.15326 7.5 8.58097 7.73705 8.15901 8.15901C7.73705 8.58097 7.5 9.15326 7.5 9.75C7.5 10.3467 7.73705 10.919 8.15901 11.341C8.58097 11.7629 9.15326 12 9.75 12C10.3467 12 10.919 11.7629 11.341 11.341C11.7629 10.919 12 10.3467 12 9.75C12 9.15326 11.7629 8.58097 11.341 8.15901C10.919 7.73705 10.3467 7.5 9.75 7.5Z" fill="black"/>
</svg>
