<svg width="299" height="328" viewBox="0 0 299 328" fill="none" xmlns="http://www.w3.org/2000/svg">
<g filter="url(#filter0_d_1419_2)">
<path d="M84.3505 241C76.599 259.08 78.0855 281.037 84.3505 305H127.838C133.276 281.01 136.029 258.332 127.838 241H84.3505Z" fill="#E4E4E4"/>
<path d="M66.8107 241C52.6468 258.431 56.5984 280.853 66.8107 305H84.3506C78.0252 282.188 76.9911 260.613 84.3506 241H66.8107Z" fill="#CACACA"/>
<path d="M119.798 242.484H113.221V249.061H119.798V242.484Z" fill="white"/>
<path d="M109.201 242.484H102.623V249.061H109.201V242.484Z" fill="white"/>
<path d="M98.6036 242.484H92.0259V249.061H98.6036V242.484Z" fill="white"/>
<path d="M119.616 257.466H113.038V264.044H119.616V257.466Z" fill="white"/>
<path d="M109.018 257.466H102.44V264.044H109.018V257.466Z" fill="white"/>
<path d="M98.4205 257.466H91.8428V264.044H98.4205V257.466Z" fill="white"/>
<path d="M119.433 272.449H112.855V279.027H119.433V272.449Z" fill="white"/>
<path d="M108.836 272.449H102.258V279.027H108.836V272.449Z" fill="white"/>
<path d="M98.2379 272.449H91.6602V279.027H98.2379V272.449Z" fill="white"/>
<path d="M119.25 287.432H112.672V294.009H119.25V287.432Z" fill="white"/>
<path d="M108.653 287.432H102.075V294.009H108.653V287.432Z" fill="white"/>
<path d="M98.0553 287.432H91.4775V294.009H98.0553V287.432Z" fill="white"/>
<path d="M119.068 302.414H112.489V305H119.068V302.414Z" fill="white"/>
<path d="M108.47 302.414H101.893V305H108.47V302.414Z" fill="white"/>
<path d="M97.8714 302.414H91.2944V305H97.8714V302.414Z" fill="white"/>
<path d="M49 274.994V300.044C48.9997 301.166 49.3806 302.256 50.0802 303.133C50.7798 304.011 51.7567 304.625 52.8509 304.875C53.1152 304.936 53.3841 304.974 53.6547 304.989C53.753 304.998 53.8557 305 53.9562 305H73.0229C77.026 293.277 84.3857 242.966 54.2423 247.334L49 274.994Z" fill="#E4E4E4"/>
<path d="M64.4357 287.432H57.8579V294.009H64.4357V287.432Z" fill="white"/>
<path d="M53.8382 287.432H49V294.009H53.8382V287.432Z" fill="white"/>
<path d="M64.2532 302.414H57.6763V305H64.2532V302.414Z" fill="white"/>
<path d="M49.603 302.414C49.9404 303.03 50.4041 303.568 50.9639 303.992C51.5237 304.416 52.1668 304.717 52.8511 304.876C53.1154 304.936 53.3843 304.974 53.6549 304.989V302.414H49.603Z" fill="white"/>
<path d="M148.296 319.353C157.577 319.353 165.1 318.063 165.1 316.472C165.1 314.881 157.577 313.591 148.296 313.591C139.016 313.591 131.492 314.881 131.492 316.472C131.492 318.063 139.016 319.353 148.296 319.353Z" fill="#FB8C00"/>
<path d="M243.52 317.643H179.184C179.057 317.643 178.935 317.593 178.845 317.503C178.755 317.413 178.704 317.291 178.704 317.163C178.704 317.036 178.755 316.914 178.845 316.824C178.935 316.734 179.057 316.683 179.184 316.683H243.52C243.647 316.683 243.769 316.734 243.859 316.824C243.949 316.914 244 317.036 244 317.163C244 317.291 243.949 317.413 243.859 317.503C243.769 317.593 243.647 317.643 243.52 317.643Z" fill="#3F3D56"/>
<path d="M135.806 191.5C135.807 186.269 137.6 181.197 140.888 177.129C144.175 173.06 148.758 170.242 153.872 169.142C150.537 168.427 147.085 168.466 143.768 169.257C140.451 170.049 137.353 171.572 134.7 173.715C132.048 175.859 129.909 178.568 128.439 181.646C126.969 184.723 126.207 188.09 126.207 191.5C126.207 194.91 126.969 198.277 128.439 201.355C129.909 204.432 132.048 207.142 134.7 209.285C137.353 211.429 140.451 212.952 143.768 213.743C147.085 214.534 150.537 214.573 153.872 213.858C148.758 212.759 144.175 209.94 140.888 205.871C137.6 201.803 135.807 196.731 135.806 191.5Z" fill="#FB8C00"/>
<path d="M149.594 214.941C144.977 214.941 140.463 213.572 136.623 211.007C132.784 208.441 129.791 204.795 128.024 200.529C126.257 196.263 125.795 191.569 126.696 187.04C127.596 182.511 129.82 178.351 133.085 175.086C136.35 171.82 140.51 169.597 145.039 168.696C149.568 167.795 154.262 168.257 158.529 170.025C162.795 171.792 166.441 174.784 169.006 178.623C171.572 182.463 172.941 186.977 172.941 191.594C172.934 197.784 170.472 203.718 166.095 208.095C161.718 212.472 155.784 214.934 149.594 214.941ZM149.594 169.208C145.167 169.207 140.838 170.52 137.157 172.98C133.475 175.44 130.606 178.936 128.912 183.027C127.217 187.118 126.774 191.619 127.637 195.962C128.501 200.304 130.633 204.293 133.764 207.424C136.895 210.555 140.884 212.687 145.226 213.551C149.569 214.415 154.07 213.971 158.161 212.277C162.252 210.583 165.748 207.713 168.208 204.032C170.668 200.35 171.981 196.022 171.981 191.594C171.974 185.659 169.613 179.969 165.417 175.772C161.22 171.575 155.53 169.214 149.594 169.208V169.208Z" fill="#3F3D56"/>
<path d="M110.92 191.5C110.92 179.024 115.483 166.98 123.748 157.635C132.013 148.29 143.41 142.291 155.792 140.766C148.607 139.885 141.317 140.54 134.405 142.686C127.492 144.833 121.113 148.423 115.692 153.219C110.27 158.015 105.928 163.908 102.953 170.507C99.9789 177.106 98.4393 184.261 98.4365 191.5C98.4365 214.428 132.156 279.085 144.82 302.56C145.28 303.415 145.962 304.128 146.795 304.626C147.628 305.124 148.58 305.386 149.551 305.386C150.521 305.386 151.473 305.124 152.306 304.626C153.139 304.128 153.821 303.415 154.281 302.56C154.755 301.682 155.262 300.739 155.792 299.749C142.159 274.297 110.92 213.57 110.92 191.5Z" fill="#FB8C00"/>
<path d="M149.594 305.961C148.535 305.969 147.495 305.687 146.586 305.144C145.677 304.601 144.935 303.819 144.441 302.883C130.477 276.999 98 214.34 98 191.594C98 177.911 103.436 164.787 113.112 155.112C122.787 145.436 135.911 140 149.594 140C163.278 140 176.401 145.436 186.077 155.112C195.753 164.787 201.189 177.911 201.189 191.594C201.189 214.342 168.711 276.999 154.747 302.883C154.253 303.819 153.511 304.601 152.602 305.144C151.693 305.687 150.652 305.969 149.594 305.961ZM149.594 140.96C136.17 140.975 123.3 146.315 113.807 155.807C104.315 165.3 98.9754 178.17 98.9602 191.594C98.9602 214.121 131.357 276.607 145.286 302.427C145.705 303.205 146.326 303.855 147.085 304.308C147.843 304.761 148.711 305 149.594 305C150.478 305 151.345 304.761 152.103 304.308C152.862 303.855 153.483 303.205 153.902 302.427C167.831 276.608 200.228 214.123 200.228 191.594C200.213 178.17 194.874 165.3 185.381 155.807C175.889 146.315 163.019 140.975 149.594 140.96Z" fill="#3F3D56"/>
<rect x="4.5" y="105.5" width="290" height="212" stroke="#C4C4C4" stroke-dasharray="10 10"/>
</g>
<rect x="102.5" y="0.5" width="86" height="46" rx="3.18059" fill="#FB8C00" stroke="white"/>
<path d="M113.31 30.1314C113.593 28.4982 114.19 27.0456 115.101 25.7736C116.027 24.4859 117.166 23.4887 118.516 22.782C119.867 22.0597 121.304 21.6985 122.827 21.6985C124.602 21.6985 126.054 22.146 127.185 23.0412C128.331 23.9206 129.069 25.1455 129.399 26.7159H128.174C127.907 25.4753 127.287 24.4859 126.313 23.7478C125.355 23.0097 124.138 22.6407 122.662 22.6407C121.359 22.6407 120.126 22.9469 118.964 23.5594C117.802 24.1718 116.812 25.0434 115.996 26.1741C115.195 27.3048 114.661 28.6239 114.394 30.1314C114.3 30.6968 114.253 31.2464 114.253 31.7804C114.253 32.9738 114.496 34.0103 114.983 34.8897C115.47 35.7534 116.145 36.4208 117.009 36.892C117.888 37.3631 118.893 37.5986 120.024 37.5986C121.28 37.5986 122.466 37.316 123.581 36.7506C124.711 36.1853 125.669 35.3844 126.455 34.3479C127.255 33.2958 127.813 32.063 128.127 30.6497H120.754L120.919 29.7781H129.375L129.234 30.4848C128.92 32.0238 128.308 33.4057 127.397 34.6306C126.502 35.8398 125.395 36.7977 124.075 37.5044C122.756 38.1954 121.351 38.5409 119.859 38.5409C118.524 38.5409 117.346 38.266 116.326 37.7164C115.321 37.1668 114.535 36.3894 113.97 35.3844C113.42 34.3636 113.146 33.1937 113.146 31.8746C113.146 31.2778 113.201 30.6968 113.31 30.1314ZM138.895 25.4203C139.978 25.4203 140.897 25.6323 141.651 26.0563C142.42 26.4646 142.993 27.0221 143.37 27.7288C143.763 28.4197 143.959 29.1971 143.959 30.0608C143.959 30.4377 143.928 30.7832 143.865 31.0972C143.771 31.6626 143.676 32.0866 143.582 32.3692H132.535C132.472 32.8718 132.44 33.233 132.44 33.4528C132.44 34.8033 132.849 35.8398 133.665 36.5622C134.482 37.2846 135.51 37.6457 136.751 37.6457C137.992 37.6457 139.091 37.3395 140.049 36.7271C141.022 36.0989 141.713 35.2509 142.122 34.183H143.229C142.726 35.4865 141.886 36.5465 140.708 37.3631C139.546 38.164 138.172 38.5644 136.586 38.5644C135.016 38.5644 133.752 38.109 132.794 37.1982C131.851 36.2874 131.38 35.0468 131.38 33.4764C131.38 32.9896 131.427 32.487 131.522 31.9688C131.757 30.634 132.228 29.4719 132.935 28.4825C133.642 27.4932 134.505 26.7394 135.526 26.2212C136.563 25.6873 137.685 25.4203 138.895 25.4203ZM142.734 31.5448C142.844 31.0894 142.899 30.6261 142.899 30.155C142.899 28.9144 142.499 27.9643 141.698 27.3048C140.913 26.6452 139.915 26.3154 138.706 26.3154C137.811 26.3154 136.947 26.5117 136.115 26.9043C135.283 27.2969 134.56 27.8858 133.948 28.671C133.335 29.4562 132.911 30.4141 132.676 31.5448H142.734ZM153.853 25.3261C155.156 25.3261 156.2 25.6794 156.985 26.3861C157.771 27.077 158.163 28.1057 158.163 29.4719C158.163 29.8959 158.116 30.367 158.022 30.8852L156.703 38.376H155.666L156.985 30.9559C157.064 30.4534 157.103 30.0372 157.103 29.7074C157.103 28.5768 156.789 27.7209 156.161 27.1399C155.533 26.5431 154.653 26.2447 153.523 26.2447C152.204 26.2447 151.065 26.653 150.107 27.4696C149.149 28.2862 148.49 29.4876 148.128 31.0737L146.833 38.376H145.773L148.058 25.5852H149.118L148.647 28.2705C149.181 27.3126 149.903 26.5824 150.814 26.0799C151.74 25.5773 152.753 25.3261 153.853 25.3261ZM163.747 22.7349C163.527 22.7349 163.347 22.6721 163.205 22.5465C163.064 22.4051 162.993 22.2246 162.993 22.0047C162.993 21.6906 163.103 21.4315 163.323 21.2274C163.543 21.0075 163.794 20.8976 164.077 20.8976C164.297 20.8976 164.477 20.9682 164.619 21.1096C164.776 21.2509 164.854 21.4315 164.854 21.6514C164.854 21.9654 164.736 22.2246 164.501 22.4287C164.281 22.6329 164.03 22.7349 163.747 22.7349ZM163.794 25.5852L161.509 38.376H160.449L162.734 25.5852H163.794ZM173.239 25.4203C174.323 25.4203 175.241 25.6323 175.995 26.0563C176.765 26.4646 177.338 27.0221 177.715 27.7288C178.107 28.4197 178.304 29.1971 178.304 30.0608C178.304 30.4377 178.272 30.7832 178.209 31.0972C178.115 31.6626 178.021 32.0866 177.927 32.3692H166.879C166.816 32.8718 166.785 33.233 166.785 33.4528C166.785 34.8033 167.193 35.8398 168.01 36.5622C168.826 37.2846 169.855 37.6457 171.096 37.6457C172.336 37.6457 173.435 37.3395 174.393 36.7271C175.367 36.0989 176.058 35.2509 176.466 34.183H177.573C177.071 35.4865 176.231 36.5465 175.053 37.3631C173.891 38.164 172.517 38.5644 170.931 38.5644C169.36 38.5644 168.096 38.109 167.138 37.1982C166.196 36.2874 165.725 35.0468 165.725 33.4764C165.725 32.9896 165.772 32.487 165.866 31.9688C166.102 30.634 166.573 29.4719 167.28 28.4825C167.986 27.4932 168.85 26.7394 169.871 26.2212C170.907 25.6873 172.03 25.4203 173.239 25.4203ZM177.079 31.5448C177.189 31.0894 177.244 30.6261 177.244 30.155C177.244 28.9144 176.843 27.9643 176.042 27.3048C175.257 26.6452 174.26 26.3154 173.051 26.3154C172.156 26.3154 171.292 26.5117 170.46 26.9043C169.627 27.2969 168.905 27.8858 168.292 28.671C167.68 29.4562 167.256 30.4141 167.02 31.5448H177.079Z" fill="white"/>
<path fill-rule="evenodd" clip-rule="evenodd" d="M117.565 7.97819C117.079 8.02211 116.869 8.08987 116.037 8.47352C115.527 8.70862 114.522 9.61802 114.522 9.84478C114.522 9.93732 114.466 10.0131 114.398 10.0131C114.329 10.0131 114.273 10.1188 114.273 10.2479C114.273 10.3771 114.223 10.4828 114.162 10.4828C114.037 10.4828 113.888 11.2432 113.875 11.9507C113.864 12.5746 114.031 13.4186 114.165 13.4186C114.225 13.4186 114.273 13.5243 114.273 13.6535C114.273 13.7827 114.329 13.8883 114.398 13.8883C114.466 13.8883 114.522 13.9549 114.522 14.0363C114.522 14.2398 115.504 15.1801 115.716 15.1801C115.811 15.1801 115.888 15.2292 115.888 15.2891C115.888 15.3491 116.202 15.509 116.585 15.6446C117.665 16.0264 120.288 15.9465 120.788 15.5164C120.853 15.4607 120.983 15.415 121.077 15.415C121.303 15.415 121.602 15.1235 121.602 14.9024C121.602 14.6595 120.225 12.1269 120.093 12.1269C120.035 12.1269 119.987 12.1797 119.987 12.2443C119.987 12.3132 119.557 12.3617 118.945 12.3617C117.854 12.3617 117.751 12.3113 117.751 11.7743C117.751 11.4832 118.315 11.3765 119.317 11.4779C120.145 11.5618 120.484 11.4313 120.484 11.0294C120.484 10.9333 120.526 10.8371 120.577 10.8155C120.725 10.7534 121.602 9.07078 121.602 8.8493C121.602 8.6519 120.842 8.25157 120.467 8.25157C120.367 8.25157 120.232 8.20495 120.167 8.14788C120.029 8.0268 118.287 7.91313 117.565 7.97819ZM131.118 8.20248C130.984 8.53282 131.033 15.4135 131.171 15.6576C131.288 15.8635 131.444 15.8847 132.848 15.8847H134.396V11.9507V8.0167H132.795C131.449 8.0167 131.181 8.04642 131.118 8.20248ZM138.791 8.28809C138.646 8.42948 138.371 8.65084 138.179 8.78002C137.987 8.90919 137.714 9.12198 137.572 9.25292C137.431 9.38386 137.119 9.6051 136.878 9.74461C136.638 9.88424 136.307 10.1338 136.143 10.2994C135.978 10.4648 135.797 10.6002 135.74 10.6002C135.58 10.6002 134.893 11.2541 134.893 11.4056C134.893 11.4863 135.116 11.5397 135.452 11.5397H136.011V12.6456C136.011 13.8258 136.27 14.6695 136.75 15.0523C136.879 15.1549 137.086 15.3189 137.212 15.4167C137.868 15.9294 139.461 16.0212 140.39 15.5997L140.855 15.3882V14.2342C140.855 13.5915 140.8 13.048 140.731 13.0076C140.663 12.9677 140.607 12.9848 140.607 13.0457C140.607 13.1841 140.041 13.2927 139.725 13.2148C139.522 13.1645 139.489 13.0435 139.489 12.348V11.5397H140.023C140.317 11.5397 140.624 11.4763 140.706 11.3988C140.79 11.32 140.855 10.9421 140.855 10.5415C140.855 10.1409 140.79 9.76305 140.706 9.68425C140.624 9.60675 140.317 9.54333 140.023 9.54333H139.489V8.78002C139.489 8.12862 139.457 8.01776 139.272 8.02387C139.152 8.02786 138.936 8.1467 138.791 8.28809ZM157.252 9.77303V11.5294L158.152 11.5639L159.053 11.5984L159.075 13.5361C159.087 14.6018 159.101 15.5676 159.106 15.6824C159.114 15.8739 159.262 15.8885 160.885 15.8585L162.655 15.826L162.689 13.6828L162.723 11.5397H163.652H164.581V9.7782V8.0167H160.916H157.252V9.77303ZM122.298 9.72911C122.147 10.1034 122.216 14.3495 122.378 14.6164C122.622 15.0168 123.245 15.5769 123.626 15.7379C124.407 16.0676 125.635 15.8402 126.229 15.2562C126.553 14.9374 126.571 14.9333 126.571 15.1754C126.571 15.3156 126.629 15.5326 126.699 15.6576C126.815 15.8626 126.972 15.8847 128.31 15.8847C129.648 15.8847 129.804 15.8626 129.92 15.6576C129.998 15.5194 130.049 14.3435 130.049 12.6546C130.049 10.4055 130.015 9.84701 129.871 9.71114C129.737 9.58432 129.329 9.54333 128.197 9.54333C126.414 9.54333 126.582 9.31234 126.539 11.8333L126.509 13.5948L126.087 13.6328C125.833 13.6557 125.623 13.609 125.561 13.5154C125.503 13.4299 125.456 12.5645 125.455 11.5925C125.453 10.3766 125.406 9.78125 125.304 9.68425C125.206 9.59148 124.68 9.54333 123.764 9.54333C122.611 9.54333 122.361 9.57504 122.298 9.72911ZM141.614 9.70468C141.446 9.89598 141.485 13.9289 141.661 14.5239C142.078 15.9374 144.437 16.3635 145.625 15.24C145.797 15.0778 145.967 14.9452 146.005 14.9452C146.042 14.9452 146.072 15.1566 146.072 15.415V15.8847H147.491C148.271 15.8847 148.997 15.8526 149.106 15.8134C149.278 15.7511 149.302 15.3731 149.302 12.7837C149.302 10.6392 149.261 9.78642 149.153 9.68425C148.947 9.4899 146.179 9.4899 145.973 9.68425C145.869 9.78231 145.824 10.4072 145.824 11.7393V13.6535H145.443C144.767 13.6535 144.716 13.5074 144.678 11.463L144.644 9.60205L143.203 9.56917C142.07 9.54321 141.73 9.57222 141.614 9.70468ZM150.573 9.64139C150.451 9.71455 150.423 10.4231 150.449 12.781L150.482 15.826H152.097H153.712L153.79 14.2406C153.833 13.3687 153.909 12.5363 153.96 12.3911C154.073 12.0637 154.405 12.0495 154.643 12.3617C154.787 12.55 154.965 12.5966 155.54 12.5966C155.936 12.5966 156.258 12.5439 156.258 12.4792C156.258 12.4146 156.321 12.3617 156.399 12.3617C156.633 12.3617 156.993 11.8859 157.077 11.4658C157.24 10.6423 156.97 10.1144 156.167 9.69012C155.582 9.38127 154.645 9.61638 154.166 10.1924C153.908 10.5022 153.774 10.4622 153.774 10.0757C153.774 9.61485 153.548 9.54321 152.103 9.54509C151.348 9.54615 150.66 9.58948 150.573 9.64139ZM166.879 9.66077C166.742 9.71631 166.49 9.76598 166.32 9.77115C166.149 9.77632 165.757 9.89951 165.45 10.0448L164.891 10.3089L164.855 11.2178C164.835 11.7178 164.863 12.126 164.917 12.1251C164.971 12.1242 165.239 12.0471 165.512 11.9541C166.254 11.7015 167.472 11.7209 167.729 11.9893C167.842 12.1075 167.934 12.2396 167.934 12.2829C167.934 12.3263 167.576 12.3617 167.137 12.3617C166.213 12.3617 165.347 12.6616 165.058 13.0818C164.953 13.2347 164.799 13.5546 164.717 13.7926C164.501 14.4149 164.9 15.2773 165.567 15.632C166.116 15.9238 167.082 15.9651 167.556 15.717C167.813 15.582 167.901 15.5833 168.13 15.7251C168.334 15.8516 168.76 15.8844 169.875 15.8592L171.35 15.826L171.384 13.7167C171.423 11.3339 171.334 10.945 170.603 10.3124C170.371 10.1116 169.869 9.85629 169.488 9.7452C168.762 9.53406 167.306 9.48696 166.879 9.66077ZM172.555 9.68425C172.446 9.78783 172.406 10.7965 172.406 13.4912C172.406 15.5075 172.44 17.2408 172.482 17.343C172.545 17.4991 172.813 17.5288 174.158 17.5288H175.76V16.5767C175.76 15.7147 175.78 15.633 175.977 15.7133C176.097 15.7619 176.53 15.8251 176.94 15.8535C178.201 15.9411 179.443 15.229 179.93 14.1382C180.277 13.3638 180.137 11.3062 179.702 10.7764C179.298 10.2835 179.098 10.1262 178.528 9.85347C177.75 9.48098 177.058 9.45549 176.362 9.7735C175.862 10.002 175.858 10.002 175.795 9.7735C175.736 9.56083 175.616 9.54333 174.218 9.54333C173.206 9.54333 172.655 9.59007 172.555 9.68425ZM176.7 12.2947C176.798 12.3869 176.878 12.6775 176.878 12.9405V13.4186H176.319H175.76V12.944C175.76 12.2223 176.259 11.8775 176.7 12.2947ZM167.91 13.9764C167.949 14.4741 167.947 14.4755 167.52 14.4755C167.162 14.4755 167.079 14.4254 167.01 14.1678C166.912 13.7998 167.243 13.4138 167.624 13.4522C167.822 13.4723 167.88 13.5781 167.91 13.9764Z" fill="white"/>
<rect x="103.702" y="44.7016" width="85.5968" height="16.5968" fill="white" stroke="#FB8C00" stroke-width="1.40323"/>
<path d="M126.371 49.6897C126.275 50.231 126.048 50.6807 125.69 51.0386C125.341 51.3879 124.913 51.6411 124.407 51.7983C124.835 51.8681 125.184 52.0777 125.455 52.4269C125.725 52.7674 125.861 53.1734 125.861 53.6449C125.861 53.7846 125.848 53.9199 125.821 54.0509C125.743 54.5137 125.551 54.9328 125.245 55.3082C124.948 55.6749 124.555 55.9674 124.066 56.1857C123.577 56.3952 123.027 56.5 122.416 56.5H119.011L120.635 47.3715H123.909C124.73 47.3715 125.35 47.5462 125.769 47.8954C126.197 48.2447 126.411 48.6987 126.411 49.2575C126.411 49.3972 126.398 49.5412 126.371 49.6897ZM125.14 49.8337C125.158 49.7552 125.167 49.646 125.167 49.5063C125.167 49.1309 125.036 48.8384 124.774 48.6288C124.512 48.4193 124.132 48.3145 123.634 48.3145H121.657L121.12 51.3399H123.123C123.674 51.3399 124.128 51.2089 124.486 50.947C124.843 50.6763 125.062 50.3052 125.14 49.8337ZM124.643 53.933C124.669 53.8108 124.682 53.6973 124.682 53.5925C124.682 53.1909 124.534 52.8722 124.237 52.6365C123.94 52.4007 123.534 52.2828 123.019 52.2828H120.949L120.373 55.557H122.482C123.067 55.557 123.551 55.413 123.935 55.1248C124.32 54.8367 124.555 54.4394 124.643 53.933ZM134.678 49.323L133.408 56.5H132.216L132.4 55.4523C132.112 55.819 131.745 56.1027 131.3 56.3035C130.854 56.5044 130.391 56.6048 129.911 56.6048C129.16 56.6048 128.558 56.404 128.104 56.0023C127.659 55.592 127.436 55.007 127.436 54.2474C127.436 54.0553 127.458 53.8152 127.501 53.527L128.248 49.323H129.427L128.719 53.3699C128.685 53.5532 128.667 53.7453 128.667 53.9461C128.667 54.4787 128.811 54.8847 129.099 55.1641C129.396 55.4348 129.806 55.5701 130.33 55.5701C130.959 55.5701 131.492 55.3737 131.928 54.9808C132.373 54.5879 132.657 54.016 132.779 53.2651V53.3044L133.487 49.323H134.678ZM137.948 56.6179C137.197 56.6179 136.582 56.4389 136.101 56.0809C135.621 55.7229 135.381 55.2427 135.381 54.6403C135.381 54.5268 135.385 54.4438 135.394 54.3914H136.56C136.525 54.7669 136.634 55.0725 136.887 55.3082C137.149 55.5439 137.525 55.6618 138.014 55.6618C138.503 55.6618 138.895 55.5701 139.192 55.3868C139.498 55.1947 139.651 54.9284 139.651 54.5879C139.651 54.2997 139.528 54.0727 139.284 53.9068C139.039 53.7409 138.664 53.562 138.158 53.3699C137.712 53.204 137.346 53.0468 137.058 52.8984C136.769 52.75 136.525 52.5448 136.324 52.2828C136.123 52.0122 136.023 51.6717 136.023 51.2613C136.023 50.8597 136.136 50.5017 136.363 50.1874C136.599 49.873 136.922 49.6329 137.333 49.467C137.752 49.2924 138.227 49.2051 138.76 49.2051C139.494 49.2051 140.096 49.3885 140.567 49.7552C141.039 50.1219 141.275 50.6021 141.275 51.1958C141.275 51.3093 141.27 51.3966 141.262 51.4577H140.122L140.135 51.3006C140.135 50.9513 140 50.6763 139.729 50.4755C139.467 50.2659 139.118 50.1612 138.682 50.1612C138.254 50.1612 137.9 50.2572 137.621 50.4493C137.35 50.6414 137.215 50.8989 137.215 51.222C137.215 51.5276 137.341 51.7677 137.594 51.9423C137.848 52.1169 138.241 52.309 138.773 52.5186C139.218 52.6932 139.576 52.8547 139.847 53.0032C140.118 53.1429 140.349 53.3393 140.541 53.5925C140.733 53.8457 140.829 54.1644 140.829 54.5486C140.829 54.9677 140.703 55.3344 140.45 55.6487C140.205 55.963 139.865 56.2031 139.428 56.369C138.991 56.5349 138.498 56.6179 137.948 56.6179ZM144.345 48.1574C144.153 48.1574 143.992 48.0962 143.861 47.974C143.739 47.843 143.677 47.6815 143.677 47.4894C143.677 47.2275 143.773 47.0048 143.966 46.8215C144.158 46.6294 144.38 46.5334 144.633 46.5334C144.834 46.5334 144.996 46.5945 145.118 46.7167C145.24 46.8389 145.301 47.0005 145.301 47.2013C145.301 47.4632 145.205 47.6902 145.013 47.8823C144.821 48.0657 144.599 48.1574 144.345 48.1574ZM144.725 49.323L143.455 56.5H142.263L143.533 49.323H144.725ZM150.279 49.192C151.022 49.192 151.615 49.3928 152.061 49.7945C152.506 50.1874 152.729 50.7636 152.729 51.5232C152.729 51.8026 152.707 52.0515 152.663 52.2697L151.917 56.5H150.738L151.458 52.44C151.493 52.2566 151.511 52.0646 151.511 51.8637C151.511 51.3311 151.362 50.9251 151.065 50.6457C150.777 50.3663 150.371 50.2266 149.847 50.2266C149.219 50.2266 148.682 50.4231 148.236 50.816C147.8 51.2089 147.516 51.7808 147.385 52.5317V52.5055L146.678 56.5H145.486L146.756 49.323H147.948L147.765 50.3576C148.062 49.9822 148.433 49.694 148.878 49.4932C149.323 49.2924 149.79 49.192 150.279 49.192ZM158.251 49.2051C158.853 49.2051 159.373 49.323 159.809 49.5587C160.255 49.7857 160.591 50.1088 160.818 50.5279C161.053 50.9382 161.171 51.4097 161.171 51.9423C161.171 52.1257 161.149 52.3483 161.106 52.6103C161.071 52.8373 161.014 53.073 160.936 53.3175H155.199C155.182 53.4921 155.173 53.6187 155.173 53.6973C155.173 54.2997 155.352 54.7712 155.71 55.1117C156.077 55.4435 156.553 55.6094 157.138 55.6094C157.653 55.6094 158.102 55.4915 158.486 55.2558C158.879 55.0113 159.176 54.6883 159.377 54.2866H160.661C160.346 54.9764 159.862 55.5396 159.207 55.9761C158.561 56.404 157.81 56.6179 156.954 56.6179C156.055 56.6179 155.33 56.3603 154.78 55.8452C154.239 55.3213 153.968 54.6097 153.968 53.7104C153.968 53.4572 153.994 53.1865 154.047 52.8984C154.178 52.1562 154.444 51.5058 154.846 50.947C155.247 50.3882 155.741 49.9603 156.326 49.6635C156.919 49.3579 157.561 49.2051 158.251 49.2051ZM159.901 52.4531C159.927 52.2785 159.94 52.1169 159.94 51.9685C159.94 51.4097 159.761 50.9775 159.403 50.6719C159.054 50.3663 158.596 50.2135 158.028 50.2135C157.417 50.2135 156.862 50.4144 156.365 50.816C155.867 51.2089 155.531 51.7546 155.356 52.4531H159.901ZM164.513 56.6179C163.762 56.6179 163.146 56.4389 162.666 56.0809C162.186 55.7229 161.946 55.2427 161.946 54.6403C161.946 54.5268 161.95 54.4438 161.959 54.3914H163.124C163.089 54.7669 163.198 55.0725 163.452 55.3082C163.714 55.5439 164.089 55.6618 164.578 55.6618C165.067 55.6618 165.46 55.5701 165.757 55.3868C166.062 55.1947 166.215 54.9284 166.215 54.5879C166.215 54.2997 166.093 54.0727 165.848 53.9068C165.604 53.7409 165.228 53.562 164.722 53.3699C164.277 53.204 163.91 53.0468 163.622 52.8984C163.334 52.75 163.089 52.5448 162.889 52.2828C162.688 52.0122 162.587 51.6717 162.587 51.2613C162.587 50.8597 162.701 50.5017 162.928 50.1874C163.164 49.873 163.487 49.6329 163.897 49.467C164.316 49.2924 164.792 49.2051 165.325 49.2051C166.058 49.2051 166.66 49.3885 167.132 49.7552C167.603 50.1219 167.839 50.6021 167.839 51.1958C167.839 51.3093 167.835 51.3966 167.826 51.4577H166.687L166.7 51.3006C166.7 50.9513 166.564 50.6763 166.294 50.4755C166.032 50.2659 165.683 50.1612 165.246 50.1612C164.818 50.1612 164.465 50.2572 164.185 50.4493C163.914 50.6414 163.779 50.8989 163.779 51.222C163.779 51.5276 163.906 51.7677 164.159 51.9423C164.412 52.1169 164.805 52.309 165.338 52.5186C165.783 52.6932 166.141 52.8547 166.412 53.0032C166.682 53.1429 166.914 53.3393 167.106 53.5925C167.298 53.8457 167.394 54.1644 167.394 54.5486C167.394 54.9677 167.267 55.3344 167.014 55.6487C166.77 55.963 166.429 56.2031 165.992 56.369C165.556 56.5349 165.063 56.6179 164.513 56.6179ZM171.355 56.6179C170.604 56.6179 169.989 56.4389 169.508 56.0809C169.028 55.7229 168.788 55.2427 168.788 54.6403C168.788 54.5268 168.792 54.4438 168.801 54.3914H169.967C169.932 54.7669 170.041 55.0725 170.294 55.3082C170.556 55.5439 170.932 55.6618 171.421 55.6618C171.91 55.6618 172.302 55.5701 172.599 55.3868C172.905 55.1947 173.058 54.9284 173.058 54.5879C173.058 54.2997 172.935 54.0727 172.691 53.9068C172.446 53.7409 172.071 53.562 171.565 53.3699C171.119 53.204 170.753 53.0468 170.465 52.8984C170.176 52.75 169.932 52.5448 169.731 52.2828C169.53 52.0122 169.43 51.6717 169.43 51.2613C169.43 50.8597 169.543 50.5017 169.77 50.1874C170.006 49.873 170.329 49.6329 170.74 49.467C171.159 49.2924 171.634 49.2051 172.167 49.2051C172.901 49.2051 173.503 49.3885 173.974 49.7552C174.446 50.1219 174.682 50.6021 174.682 51.1958C174.682 51.3093 174.677 51.3966 174.669 51.4577H173.529L173.542 51.3006C173.542 50.9513 173.407 50.6763 173.136 50.4755C172.874 50.2659 172.525 50.1612 172.089 50.1612C171.661 50.1612 171.307 50.2572 171.028 50.4493C170.757 50.6414 170.622 50.8989 170.622 51.222C170.622 51.5276 170.748 51.7677 171.001 51.9423C171.255 52.1169 171.648 52.309 172.18 52.5186C172.625 52.6932 172.983 52.8547 173.254 53.0032C173.525 53.1429 173.756 53.3393 173.948 53.5925C174.14 53.8457 174.236 54.1644 174.236 54.5486C174.236 54.9677 174.11 55.3344 173.857 55.6487C173.612 55.963 173.272 56.2031 172.835 56.369C172.398 56.5349 171.905 56.6179 171.355 56.6179Z" fill="#FB8C00"/>
<defs>
<filter id="filter0_d_1419_2" x="0" y="105" width="299" height="222.353" filterUnits="userSpaceOnUse" color-interpolation-filters="sRGB">
<feFlood flood-opacity="0" result="BackgroundImageFix"/>
<feColorMatrix in="SourceAlpha" type="matrix" values="0 0 0 0 0 0 0 0 0 0 0 0 0 0 0 0 0 0 127 0" result="hardAlpha"/>
<feOffset dy="4"/>
<feGaussianBlur stdDeviation="2"/>
<feComposite in2="hardAlpha" operator="out"/>
<feColorMatrix type="matrix" values="0 0 0 0 0 0 0 0 0 0 0 0 0 0 0 0 0 0 0.25 0"/>
<feBlend mode="normal" in2="BackgroundImageFix" result="effect1_dropShadow_1419_2"/>
<feBlend mode="normal" in="SourceGraphic" in2="effect1_dropShadow_1419_2" result="shape"/>
</filter>
</defs>
</svg>
