<svg width="66" height="66" viewBox="0 0 66 66" fill="none" xmlns="http://www.w3.org/2000/svg">
<path d="M33.1579 0C33.9117 0 34.6346 0.298009 35.1676 0.828469C35.7006 1.35893 36 2.07839 36 2.82857C36 3.57876 35.7006 4.29821 35.1676 4.82867C34.6346 5.35913 33.9117 5.65714 33.1579 5.65714C25.8714 5.65714 18.8834 8.5379 13.7311 13.6657C8.57875 18.7935 5.68421 25.7482 5.68421 33C5.68421 40.2518 8.57875 47.2065 13.7311 52.3343C18.8834 57.4621 25.8714 60.3429 33.1579 60.3429C33.9117 60.3429 34.6346 60.6409 35.1676 61.1713C35.7006 61.7018 36 62.4212 36 63.1714C36 63.9216 35.7006 64.6411 35.1676 65.1715C34.6346 65.702 33.9117 66 33.1579 66C24.3639 66 15.93 62.5232 9.71172 56.3345C3.49341 50.1458 0 41.7521 0 33C0 24.2479 3.49341 15.8542 9.71172 9.66548C15.93 3.47678 24.3639 0 33.1579 0Z" fill="black"/>
<path d="M49.9981 23.877C49.5027 23.3273 49.233 22.6001 49.2458 21.8488C49.2586 21.0975 49.553 20.3807 50.0668 19.8494C50.5806 19.3181 51.2738 19.0137 52.0004 19.0005C52.727 18.9872 53.4301 19.2661 53.9618 19.7783L65.1798 31.3783C65.705 31.9221 66 32.6592 66 33.4277C66 34.1962 65.705 34.9332 65.1798 35.477L53.9618 47.077C53.705 47.3619 53.3954 47.5904 53.0514 47.7489C52.7074 47.9074 52.336 47.9927 51.9594 47.9995C51.5829 48.0064 51.2088 47.9348 50.8596 47.7889C50.5104 47.6431 50.1932 47.426 49.9269 47.1506C49.6606 46.8752 49.4506 46.5472 49.3096 46.1861C49.1685 45.825 49.0993 45.4382 49.1059 45.0488C49.1125 44.6595 49.195 44.2754 49.3482 43.9197C49.5015 43.564 49.7225 43.2438 49.9981 42.9783L56.4297 36.3277H25.8045C25.0607 36.3277 24.3474 36.0221 23.8214 35.4783C23.2955 34.9344 23 34.1968 23 33.4277C23 32.6585 23.2955 31.9209 23.8214 31.3771C24.3474 30.8332 25.0607 30.5277 25.8045 30.5277H56.4297L49.9981 23.877Z" fill="black"/>
</svg>
