<svg width="388" height="432" viewBox="0 0 388 432" fill="none" xmlns="http://www.w3.org/2000/svg">
<mask id="mask0_1343_2004" style="mask-type:alpha" maskUnits="userSpaceOnUse" x="-1" y="-1" width="389" height="433">
<rect x="-1" y="-1" width="389" height="433" fill="#D9D9D9"/>
</mask>
<g mask="url(#mask0_1343_2004)">
<path d="M63.1074 128.035H522.133V357.547H63.1074V128.035Z" fill="#CFD8DC"/>
<path d="M63.1074 357.548H522.133V405.866H63.1074V357.548Z" fill="#B0BEC5"/>
<path d="M328.86 188.433H473.815V405.866H328.86V188.433Z" fill="#455A64"/>
<path d="M111.428 188.433H280.543V321.309H111.428V188.433Z" fill="white"/>
<path d="M123.509 200.513H268.464V309.23H123.509V200.513Z" fill="#FFDD55"/>
<path d="M292.623 164.274C312.637 164.274 328.861 148.049 328.861 128.035C328.861 108.021 312.637 91.7959 292.623 91.7959C272.608 91.7959 256.384 108.021 256.384 128.035C256.384 148.049 272.608 164.274 292.623 164.274Z" fill="#558B2F"/>
<path d="M147.667 164.274C167.681 164.274 183.906 148.049 183.906 128.035C183.906 108.021 167.681 91.7959 147.667 91.7959C127.653 91.7959 111.428 108.021 111.428 128.035C111.428 148.049 127.653 164.274 147.667 164.274Z" fill="#558B2F"/>
<path d="M485.896 -29H99.3482C86.0606 -29 75.189 -18.1284 75.189 -4.84078V31.3981H510.055V-4.84078C510.055 -18.1284 499.183 -29 485.896 -29ZM256.383 31.3981H328.861V128.035H256.383V31.3981ZM449.657 31.3981H389.259L401.338 128.035H473.816L449.657 31.3981ZM135.587 31.3981H195.985L183.905 128.035H111.428L135.587 31.3981Z" fill="#FB8C00"/>
<path d="M365.099 164.274C385.113 164.274 401.338 148.049 401.338 128.035C401.338 108.021 385.113 91.7959 365.099 91.7959C345.085 91.7959 328.86 108.021 328.86 128.035C328.86 148.049 345.085 164.274 365.099 164.274Z" fill="#FFA000"/>
<path d="M220.143 164.274C240.157 164.274 256.381 148.049 256.381 128.035C256.381 108.021 240.157 91.7959 220.143 91.7959C200.128 91.7959 183.904 108.021 183.904 128.035C183.904 148.049 200.128 164.274 220.143 164.274Z" fill="#FFA000"/>
<path d="M38.9473 128.035C38.9473 148.57 54.6508 164.274 75.1861 164.274C95.7214 164.274 111.425 148.57 111.425 128.035C111.425 107.499 95.7214 91.7959 75.1861 91.7959L38.9473 128.035Z" fill="#FFA000"/>
<path d="M389.256 31.3983H328.858V128.035H401.336L389.256 31.3983ZM510.052 31.3983H449.654L473.813 128.035H546.291L510.052 31.3983ZM195.982 31.3983H256.38V128.035H183.903L195.982 31.3983ZM75.1861 31.3983H135.584L111.425 128.035H38.9473L75.1861 31.3983Z" fill="#FFC107"/>
<ellipse cx="247.739" cy="418.481" rx="417.739" ry="13.5191" fill="#D9D9D9"/>
<path d="M176.923 368.858C170.15 382.123 161.559 394.951 150.69 406.562C150.449 406.824 150.205 407.08 149.959 407.34L124.207 395.105C124.364 394.842 124.537 394.547 124.723 394.225C135.785 375.229 202.562 259.357 200.452 233.113C200.698 235.278 208.613 306.858 176.923 368.858Z" fill="#55CD00"/>
<path d="M155.368 407.987C155.013 408.185 154.649 408.379 154.282 408.567L135.249 399.717C135.515 399.532 135.825 399.313 136.181 399.066C142.013 394.954 159.352 382.618 176.318 369.36C194.551 355.112 212.356 339.803 215.001 332.496C214.464 334.171 197.775 385.107 155.368 407.987Z" fill="#55CD00"/>
<path d="M175.737 210.145H174.263V169.515C174.263 163.278 171.801 157.297 167.42 152.887C163.038 148.477 157.095 146 150.898 146H65.3652C59.1684 146 53.2253 148.477 48.8435 152.887C44.4617 157.297 42 163.278 42 169.515V392.414C42 398.65 44.4617 404.631 48.8435 409.041C53.2253 413.451 59.1684 415.928 65.3652 415.928H150.898C157.094 415.928 163.037 413.451 167.419 409.041C171.801 404.631 174.263 398.65 174.263 392.414V239.066H175.737L175.737 210.145Z" fill="#3F3D56"/>
<path d="M153.293 150.908H142.07C142.587 152.187 142.784 153.574 142.645 154.948C142.505 156.322 142.034 157.64 141.271 158.787C140.509 159.933 139.48 160.873 138.273 161.522C137.067 162.172 135.721 162.511 134.355 162.511H85.1006C83.7341 162.511 82.3886 162.171 81.1826 161.522C79.9766 160.872 78.9471 159.933 78.1849 158.787C77.4226 157.641 76.951 156.323 76.8116 154.949C76.6722 153.575 76.8692 152.188 77.3853 150.909H66.9017C62.2498 150.909 57.7885 152.776 54.4991 156.101C51.2098 159.425 49.3618 163.934 49.3618 168.635V393.295C49.3618 397.996 51.2098 402.505 54.4991 405.829C57.7885 409.153 62.2498 411.021 66.9017 411.021H153.29C157.942 411.021 162.403 409.153 165.692 405.829C168.982 402.505 170.83 397.996 170.83 393.295V168.634C170.83 163.933 168.982 159.424 165.692 156.1C162.403 152.775 157.942 150.908 153.29 150.908L153.293 150.908Z" fill="white"/>
<path d="M110.095 397.524C115.177 397.524 119.297 393.13 119.297 387.709C119.297 382.288 115.177 377.893 110.095 377.893C105.013 377.893 100.893 382.288 100.893 387.709C100.893 393.13 105.013 397.524 110.095 397.524Z" fill="#E6E6E6"/>
<path d="M70.665 298.142C69.7427 298.142 68.9922 298.967 68.9922 299.982C68.9922 300.997 69.7427 301.822 70.665 301.822H149.525C150.447 301.822 151.198 300.997 151.198 299.982C151.198 298.967 150.447 298.142 149.525 298.142H70.665Z" fill="#E6E6E6"/>
<path d="M70.665 342.312C69.7427 342.312 68.9922 343.137 68.9922 344.152C68.9922 345.167 69.7427 345.993 70.665 345.993H149.525C150.447 345.993 151.198 345.167 151.198 344.152C151.198 343.137 150.447 342.312 149.525 342.312H70.665Z" fill="#E6E6E6"/>
<path d="M70.6439 310.411C69.7332 310.411 68.9922 311.237 68.9922 312.252C68.9922 313.266 69.7332 314.092 70.6439 314.092H104.149C105.06 314.092 105.801 313.266 105.801 312.252C105.801 311.237 105.06 310.411 104.149 310.411H70.6439Z" fill="#E6E6E6"/>
<path d="M70.665 321.453C69.7427 321.453 68.9922 322.279 68.9922 323.294C68.9922 324.308 69.7427 325.134 70.665 325.134H149.525C150.447 325.134 151.198 324.308 151.198 323.294C151.198 322.279 150.447 321.453 149.525 321.453H70.665Z" fill="#E6E6E6"/>
<path d="M70.6439 332.496C69.7332 332.496 68.9922 333.046 68.9922 333.723C68.9922 334.399 69.7332 334.95 70.6439 334.95H104.149C105.06 334.95 105.801 334.399 105.801 333.723C105.801 333.046 105.06 332.496 104.149 332.496H70.6439Z" fill="#E6E6E6"/>
<path d="M85.7455 212.255H134.446C134.984 212.256 135.5 212.471 135.88 212.855C136.26 213.238 136.474 213.758 136.475 214.3V265.422C136.474 265.965 136.26 266.484 135.88 266.868C135.5 267.251 134.984 267.467 134.446 267.468H85.7455C85.2075 267.467 84.6918 267.251 84.3113 266.868C83.9309 266.484 83.7169 265.965 83.7163 265.422V214.3C83.7169 213.758 83.9309 213.238 84.3113 212.855C84.6918 212.471 85.2075 212.256 85.7455 212.255Z" fill="#F9A826"/>
<path d="M122.826 256.425C123.007 256.426 123.187 256.379 123.354 256.286C123.521 256.194 123.673 256.059 123.801 255.888C123.929 255.717 124.031 255.514 124.1 255.291C124.17 255.067 124.205 254.828 124.205 254.586C124.206 254.344 124.17 254.104 124.101 253.881C124.032 253.657 123.93 253.454 123.802 253.283C123.674 253.112 123.522 252.976 123.355 252.884C123.188 252.792 123.009 252.744 122.828 252.744H94.9107C94.7298 252.744 94.5506 252.791 94.3834 252.883C94.2161 252.976 94.0641 253.111 93.9361 253.282C93.808 253.453 93.7063 253.656 93.637 253.879C93.5676 254.102 93.5318 254.342 93.5317 254.584C93.5317 254.826 93.5672 255.065 93.6364 255.289C93.7057 255.512 93.8072 255.716 93.9351 255.887C94.0631 256.058 94.215 256.193 94.3821 256.286C94.5493 256.378 94.7285 256.425 94.9094 256.425H122.826Z" fill="white"/>
<path d="M122.829 247.837C123.194 247.837 123.544 247.772 123.802 247.657C124.06 247.542 124.205 247.386 124.205 247.223C124.205 247.061 124.06 246.904 123.802 246.789C123.544 246.674 123.194 246.61 122.829 246.61H94.9088C94.5437 246.61 94.1936 246.674 93.9353 246.789C93.6771 246.904 93.5319 247.06 93.5317 247.223C93.5316 247.386 93.6764 247.542 93.9344 247.657C94.1924 247.772 94.5424 247.837 94.9074 247.837H122.829Z" fill="white"/>
<path d="M110.095 223.298C111.915 223.298 113.694 223.801 115.208 224.745C116.721 225.689 117.9 227.03 118.597 228.6C119.293 230.169 119.476 231.896 119.12 233.562C118.765 235.228 117.889 236.758 116.602 237.959C115.315 239.16 113.675 239.978 111.89 240.31C110.105 240.641 108.255 240.471 106.574 239.821C104.892 239.171 103.455 238.07 102.444 236.658C101.433 235.245 100.893 233.585 100.893 231.886C100.896 229.609 101.866 227.426 103.591 225.816C105.316 224.206 107.655 223.3 110.095 223.298Z" fill="white"/>
<rect x="44.5" y="45.5" width="86" height="46" rx="3.18059" fill="#FB8C00" stroke="white"/>
<path d="M55.3104 75.1314C55.5931 73.4982 56.1898 72.0456 57.1007 70.7736C58.0272 69.4859 59.1657 68.4887 60.5163 67.782C61.8668 67.0597 63.3037 66.6985 64.827 66.6985C66.6015 66.6985 68.0541 67.146 69.1848 68.0412C70.3312 68.9206 71.0693 70.1455 71.399 71.7159H70.1741C69.9072 70.4753 69.2869 69.4859 68.3132 68.7478C67.3553 68.0097 66.1382 67.6407 64.6621 67.6407C63.3587 67.6407 62.1259 67.9469 60.9638 68.5594C59.8017 69.1718 58.8124 70.0434 57.9958 71.1741C57.1949 72.3048 56.661 73.6239 56.394 75.1314C56.2998 75.6968 56.2527 76.2464 56.2527 76.7804C56.2527 77.9738 56.4961 79.0103 56.9829 79.8897C57.4697 80.7534 58.145 81.4208 59.0087 81.892C59.8881 82.3631 60.8932 82.5986 62.0238 82.5986C63.2801 82.5986 64.4658 82.316 65.5808 81.7506C66.7114 81.1853 67.6694 80.3844 68.4546 79.3479C69.2555 78.2958 69.8129 77.063 70.127 75.6497H62.7541L62.919 74.7781H71.3755L71.2341 75.4848C70.9201 77.0238 70.3076 78.4057 69.3968 79.6306C68.5017 80.8398 67.3946 81.7977 66.0754 82.5044C64.7563 83.1954 63.3508 83.5409 61.8589 83.5409C60.5241 83.5409 59.3463 83.266 58.3256 82.7164C57.3205 82.1668 56.5353 81.3894 55.97 80.3844C55.4204 79.3636 55.1455 78.1937 55.1455 76.8746C55.1455 76.2778 55.2005 75.6968 55.3104 75.1314ZM80.8946 70.4203C81.9782 70.4203 82.8968 70.6323 83.6506 71.0563C84.4201 71.4646 84.9933 72.0221 85.3702 72.7288C85.7628 73.4197 85.9591 74.1971 85.9591 75.0608C85.9591 75.4377 85.9277 75.7832 85.8649 76.0972C85.7706 76.6626 85.6764 77.0866 85.5822 77.3692H74.5345C74.4717 77.8718 74.4403 78.233 74.4403 78.4528C74.4403 79.8033 74.8486 80.8398 75.6652 81.5622C76.4818 82.2846 77.5104 82.6457 78.751 82.6457C79.9916 82.6457 81.0909 82.3395 82.0488 81.7271C83.0225 81.0989 83.7134 80.2509 84.1217 79.183H85.2289C84.7263 80.4865 83.8862 81.5465 82.7084 82.3631C81.5463 83.164 80.1722 83.5644 78.5861 83.5644C77.0157 83.5644 75.7516 83.109 74.7936 82.1982C73.8514 81.2874 73.3803 80.0468 73.3803 78.4764C73.3803 77.9896 73.4274 77.487 73.5216 76.9688C73.7572 75.634 74.2283 74.4719 74.935 73.4825C75.6417 72.4932 76.5054 71.7394 77.5261 71.2212C78.5626 70.6873 79.6854 70.4203 80.8946 70.4203ZM84.7342 76.5448C84.8441 76.0894 84.8991 75.6261 84.8991 75.155C84.8991 73.9144 84.4986 72.9643 83.6977 72.3048C82.9125 71.6452 81.9153 71.3154 80.7062 71.3154C79.811 71.3154 78.9473 71.5117 78.115 71.9043C77.2827 72.2969 76.5603 72.8858 75.9479 73.671C75.3354 74.4562 74.9114 75.4141 74.6759 76.5448H84.7342ZM95.8525 70.3261C97.1559 70.3261 98.2003 70.6794 98.9854 71.3861C99.7706 72.077 100.163 73.1057 100.163 74.4719C100.163 74.8959 100.116 75.367 100.022 75.8852L98.7028 83.376H97.6663L98.9854 75.9559C99.064 75.4534 99.1032 75.0372 99.1032 74.7074C99.1032 73.5768 98.7891 72.7209 98.161 72.1399C97.5328 71.5431 96.6534 71.2447 95.5227 71.2447C94.2036 71.2447 93.0651 71.653 92.1072 72.4696C91.1492 73.2862 90.4897 74.4876 90.1285 76.0737L88.8329 83.376H87.7729L90.0578 70.5852H91.1178L90.6467 73.2705C91.1806 72.3126 91.903 71.5824 92.8138 71.0799C93.7404 70.5773 94.7533 70.3261 95.8525 70.3261ZM105.747 67.7349C105.527 67.7349 105.347 67.6721 105.205 67.5465C105.064 67.4051 104.993 67.2246 104.993 67.0047C104.993 66.6906 105.103 66.4315 105.323 66.2274C105.543 66.0075 105.794 65.8976 106.077 65.8976C106.297 65.8976 106.477 65.9682 106.619 66.1096C106.776 66.2509 106.854 66.4315 106.854 66.6514C106.854 66.9654 106.736 67.2246 106.501 67.4287C106.281 67.6329 106.03 67.7349 105.747 67.7349ZM105.794 70.5852L103.509 83.376H102.449L104.734 70.5852H105.794ZM115.239 70.4203C116.323 70.4203 117.241 70.6323 117.995 71.0563C118.765 71.4646 119.338 72.0221 119.715 72.7288C120.107 73.4197 120.304 74.1971 120.304 75.0608C120.304 75.4377 120.272 75.7832 120.209 76.0972C120.115 76.6626 120.021 77.0866 119.927 77.3692H108.879C108.816 77.8718 108.785 78.233 108.785 78.4528C108.785 79.8033 109.193 80.8398 110.01 81.5622C110.826 82.2846 111.855 82.6457 113.096 82.6457C114.336 82.6457 115.435 82.3395 116.393 81.7271C117.367 81.0989 118.058 80.2509 118.466 79.183H119.573C119.071 80.4865 118.231 81.5465 117.053 82.3631C115.891 83.164 114.517 83.5644 112.931 83.5644C111.36 83.5644 110.096 83.109 109.138 82.1982C108.196 81.2874 107.725 80.0468 107.725 78.4764C107.725 77.9896 107.772 77.487 107.866 76.9688C108.102 75.634 108.573 74.4719 109.28 73.4825C109.986 72.4932 110.85 71.7394 111.871 71.2212C112.907 70.6873 114.03 70.4203 115.239 70.4203ZM119.079 76.5448C119.189 76.0894 119.244 75.6261 119.244 75.155C119.244 73.9144 118.843 72.9643 118.042 72.3048C117.257 71.6452 116.26 71.3154 115.051 71.3154C114.156 71.3154 113.292 71.5117 112.46 71.9043C111.627 72.2969 110.905 72.8858 110.292 73.671C109.68 74.4562 109.256 75.4141 109.02 76.5448H119.079Z" fill="white"/>
<path fill-rule="evenodd" clip-rule="evenodd" d="M59.565 52.9782C59.0788 53.0221 58.8694 53.0899 58.0368 53.4735C57.5265 53.7086 56.5217 54.618 56.5217 54.8448C56.5217 54.9373 56.4658 55.0131 56.3975 55.0131C56.3292 55.0131 56.2733 55.1188 56.2733 55.2479C56.2733 55.3771 56.2232 55.4828 56.1621 55.4828C56.0368 55.4828 55.8881 56.2432 55.8751 56.9507C55.8636 57.5746 56.0306 58.4186 56.1655 58.4186C56.2247 58.4186 56.2733 58.5243 56.2733 58.6535C56.2733 58.7827 56.3292 58.8883 56.3975 58.8883C56.4658 58.8883 56.5217 58.9549 56.5217 59.0363C56.5217 59.2398 57.5037 60.1801 57.7161 60.1801C57.8107 60.1801 57.8881 60.2292 57.8881 60.2891C57.8881 60.3491 58.2016 60.509 58.5847 60.6446C59.6645 61.0264 62.2882 60.9465 62.7884 60.5164C62.8534 60.4607 62.983 60.415 63.0767 60.415C63.3033 60.415 63.602 60.1235 63.602 59.9024C63.602 59.6595 62.2255 57.1269 62.0934 57.1269C62.035 57.1269 61.9872 57.1797 61.9872 57.2443C61.9872 57.3132 61.5569 57.3617 60.9447 57.3617C59.8536 57.3617 59.7513 57.3113 59.7513 56.7743C59.7513 56.4832 60.3149 56.3765 61.3172 56.4779C62.1448 56.5618 62.4841 56.4313 62.4841 56.0294C62.4841 55.9333 62.5259 55.8371 62.5772 55.8155C62.7251 55.7534 63.602 54.0708 63.602 53.8493C63.602 53.6519 62.8419 53.2516 62.4672 53.2516C62.3672 53.2516 62.2322 53.2049 62.1673 53.1479C62.0294 53.0268 60.2868 52.9131 59.565 52.9782ZM73.1178 53.2025C72.9838 53.5328 73.0328 60.4135 73.1709 60.6576C73.2876 60.8635 73.4442 60.8847 74.8479 60.8847H76.3962V56.9507V53.0167H74.7947C73.4489 53.0167 73.1811 53.0464 73.1178 53.2025ZM80.7911 53.2881C80.6462 53.4295 80.3706 53.6508 80.1786 53.78C79.9865 53.9092 79.7137 54.122 79.5724 54.2529C79.4309 54.3839 79.1186 54.6051 78.8784 54.7446C78.6382 54.8842 78.307 55.1338 78.1425 55.2994C77.9781 55.4648 77.7969 55.6002 77.7398 55.6002C77.5805 55.6002 76.8931 56.2541 76.8931 56.4056C76.8931 56.4863 77.1159 56.5397 77.452 56.5397H78.011V57.6456C78.011 58.8258 78.2701 59.6695 78.7501 60.0523C78.8786 60.1549 79.0863 60.3189 79.2117 60.4167C79.8684 60.9294 81.4612 61.0212 82.3896 60.5997L82.8554 60.3882V59.2342C82.8554 58.5915 82.8004 58.048 82.7312 58.0076C82.6629 57.9677 82.607 57.9848 82.607 58.0457C82.607 58.1841 82.0406 58.2927 81.725 58.2148C81.522 58.1645 81.489 58.0435 81.489 57.348V56.5397H82.0232C82.3169 56.5397 82.6244 56.4763 82.7063 56.3988C82.7897 56.32 82.8554 55.9421 82.8554 55.5415C82.8554 55.1409 82.7897 54.763 82.7063 54.6843C82.6244 54.6067 82.3169 54.5433 82.0232 54.5433H81.489V53.78C81.489 53.1286 81.4571 53.0178 81.2717 53.0239C81.152 53.0279 80.9358 53.1467 80.7911 53.2881ZM99.2518 54.773V56.5294L100.152 56.5639L101.053 56.5984L101.075 58.5361C101.087 59.6018 101.101 60.5676 101.106 60.6824C101.114 60.8739 101.262 60.8885 102.885 60.8585L104.655 60.826L104.689 58.6828L104.723 56.5397H105.652H106.581V54.7782V53.0167H102.916H99.2518V54.773ZM64.2985 54.7291C64.1466 55.1034 64.216 59.3495 64.3784 59.6164C64.6219 60.0168 65.2451 60.5769 65.6264 60.7379C66.4065 61.0676 67.6349 60.8402 68.229 60.2562C68.5534 59.9374 68.5706 59.9333 68.5706 60.1754C68.5706 60.3156 68.6285 60.5326 68.6992 60.6576C68.8153 60.8626 68.9717 60.8847 70.3096 60.8847C71.6476 60.8847 71.804 60.8626 71.9201 60.6576C71.9984 60.5194 72.0487 59.3435 72.0487 57.6546C72.0487 55.4055 72.015 54.847 71.8712 54.7111C71.737 54.5843 71.3286 54.5433 70.1966 54.5433C68.4145 54.5433 68.5817 54.3123 68.5386 56.8333L68.5085 58.5948L68.0868 58.6328C67.8332 58.6557 67.6235 58.609 67.5608 58.5154C67.5034 58.4299 67.4557 57.5645 67.4546 56.5925C67.4533 55.3766 67.4062 54.7813 67.3036 54.6843C67.2055 54.5915 66.6799 54.5433 65.7642 54.5433C64.611 54.5433 64.361 54.575 64.2985 54.7291ZM83.6136 54.7047C83.4458 54.896 83.4852 58.9289 83.6607 59.5239C84.0777 60.9374 86.4368 61.3635 87.6253 60.24C87.7967 60.0778 87.9675 59.9452 88.0048 59.9452C88.042 59.9452 88.0725 60.1566 88.0725 60.415V60.8847H89.4907C90.2708 60.8847 90.9975 60.8526 91.1055 60.8134C91.2776 60.7511 91.3021 60.3731 91.3021 57.7837C91.3021 55.6392 91.2611 54.7864 91.153 54.6843C90.9474 54.4899 88.1787 54.4899 87.9731 54.6843C87.8694 54.7823 87.824 55.4072 87.824 56.7393V58.6535H87.4426C86.7668 58.6535 86.7159 58.5074 86.6783 56.463L86.644 54.602L85.2028 54.5692C84.0702 54.5432 83.7299 54.5722 83.6136 54.7047ZM92.5732 54.6414C92.4513 54.7145 92.4232 55.4231 92.4489 57.781L92.4821 60.826H94.0969H95.7117L95.79 59.2406C95.8331 58.3687 95.9095 57.5363 95.9598 57.3911C96.073 57.0637 96.4052 57.0495 96.6433 57.3617C96.7868 57.55 96.9649 57.5966 97.5403 57.5966C97.936 57.5966 98.2581 57.5439 98.2581 57.4792C98.2581 57.4146 98.3215 57.3617 98.3989 57.3617C98.6334 57.3617 98.9933 56.8859 99.0767 56.4658C99.2402 55.6423 98.9696 55.1144 98.1667 54.6901C97.582 54.3813 96.6452 54.6164 96.166 55.1924C95.9082 55.5022 95.7738 55.4622 95.7738 55.0757C95.7738 54.6148 95.5481 54.5432 94.1031 54.5451C93.3481 54.5462 92.6597 54.5895 92.5732 54.6414ZM108.879 54.6608C108.742 54.7163 108.49 54.766 108.32 54.7712C108.149 54.7763 107.757 54.8995 107.45 55.0448L106.891 55.3089L106.855 56.2178C106.835 56.7178 106.863 57.126 106.917 57.1251C106.971 57.1242 107.239 57.0471 107.512 56.9541C108.254 56.7015 109.472 56.7209 109.729 56.9893C109.842 57.1075 109.934 57.2396 109.934 57.2829C109.934 57.3263 109.576 57.3617 109.137 57.3617C108.213 57.3617 107.347 57.6616 107.058 58.0818C106.953 58.2347 106.799 58.5546 106.717 58.7926C106.501 59.4149 106.9 60.2773 107.567 60.632C108.116 60.9238 109.082 60.9651 109.556 60.717C109.813 60.582 109.901 60.5833 110.13 60.7251C110.334 60.8516 110.76 60.8844 111.875 60.8592L113.35 60.826L113.384 58.7167C113.423 56.3339 113.334 55.945 112.603 55.3124C112.371 55.1116 111.869 54.8563 111.488 54.7452C110.762 54.5341 109.306 54.487 108.879 54.6608ZM114.555 54.6843C114.446 54.7878 114.406 55.7965 114.406 58.4912C114.406 60.5075 114.44 62.2408 114.482 62.343C114.545 62.4991 114.813 62.5288 116.158 62.5288H117.76V61.5767C117.76 60.7147 117.78 60.633 117.977 60.7133C118.097 60.7619 118.53 60.8251 118.94 60.8535C120.201 60.9411 121.443 60.229 121.93 59.1382C122.277 58.3638 122.137 56.3062 121.702 55.7764C121.298 55.2835 121.098 55.1262 120.528 54.8535C119.75 54.481 119.058 54.4555 118.362 54.7735C117.862 55.002 117.858 55.002 117.795 54.7735C117.736 54.5608 117.616 54.5433 116.218 54.5433C115.206 54.5433 114.655 54.5901 114.555 54.6843ZM118.7 57.2947C118.798 57.3869 118.878 57.6775 118.878 57.9405V58.4186H118.319H117.76V57.944C117.76 57.2223 118.259 56.8775 118.7 57.2947ZM109.91 58.9764C109.949 59.4741 109.947 59.4755 109.52 59.4755C109.162 59.4755 109.079 59.4254 109.01 59.1678C108.912 58.7998 109.243 58.4138 109.624 58.4522C109.822 58.4723 109.88 58.5781 109.91 58.9764Z" fill="white"/>
<rect x="45.7016" y="89.7016" width="85.5968" height="16.5968" fill="white" stroke="#FB8C00" stroke-width="1.40323"/>
<path d="M68.3715 94.6897C68.2754 95.231 68.0484 95.6807 67.6904 96.0386C67.3412 96.3879 66.9133 96.6411 66.4069 96.7983C66.8348 96.8681 67.184 97.0777 67.4547 97.4269C67.7253 97.7674 67.8607 98.1734 67.8607 98.6449C67.8607 98.7846 67.8476 98.9199 67.8214 99.0509C67.7428 99.5137 67.5507 99.9328 67.2451 100.308C66.9483 100.675 66.5554 100.967 66.0664 101.186C65.5775 101.395 65.0274 101.5 64.4162 101.5H61.0111L62.6351 92.3715H65.9093C66.73 92.3715 67.3499 92.5462 67.769 92.8954C68.1968 93.2447 68.4107 93.6987 68.4107 94.2575C68.4107 94.3972 68.3977 94.5412 68.3715 94.6897ZM67.1404 94.8337C67.1578 94.7552 67.1666 94.646 67.1666 94.5063C67.1666 94.1309 67.0356 93.8384 66.7737 93.6288C66.5117 93.4193 66.1319 93.3145 65.6342 93.3145H63.6566L63.1197 96.3399H65.1235C65.6735 96.3399 66.1275 96.2089 66.4855 95.947C66.8435 95.6763 67.0618 95.3052 67.1404 94.8337ZM66.6427 98.933C66.6689 98.8108 66.682 98.6973 66.682 98.5925C66.682 98.1909 66.5335 97.8722 66.2367 97.6365C65.9398 97.4007 65.5338 97.2828 65.0187 97.2828H62.9494L62.3731 100.557H64.4817C65.0667 100.557 65.5513 100.413 65.9355 100.125C66.3196 99.8367 66.5554 99.4394 66.6427 98.933ZM76.6785 94.323L75.4081 101.5H74.2163L74.3997 100.452C74.1115 100.819 73.7448 101.103 73.2995 101.304C72.8542 101.504 72.3915 101.605 71.9113 101.605C71.1604 101.605 70.5579 101.404 70.1039 101.002C69.6586 100.592 69.436 100.007 69.436 99.2474C69.436 99.0553 69.4578 98.8152 69.5015 98.527L70.248 94.323H71.4267L70.7195 98.3699C70.6845 98.5532 70.6671 98.7453 70.6671 98.9461C70.6671 99.4787 70.8111 99.8847 71.0993 100.164C71.3961 100.435 71.8065 100.57 72.3304 100.57C72.959 100.57 73.4916 100.374 73.9282 99.9808C74.3735 99.5879 74.6572 99.016 74.7795 98.2651V98.3044L75.4867 94.323H76.6785ZM79.9481 101.618C79.1972 101.618 78.5817 101.439 78.1014 101.081C77.6212 100.723 77.3811 100.243 77.3811 99.6403C77.3811 99.5268 77.3855 99.4438 77.3942 99.3914H78.5598C78.5249 99.7669 78.634 100.072 78.8872 100.308C79.1492 100.544 79.5246 100.662 80.0136 100.662C80.5025 100.662 80.8954 100.57 81.1923 100.387C81.4979 100.195 81.6507 99.9284 81.6507 99.5879C81.6507 99.2997 81.5284 99.0727 81.284 98.9068C81.0395 98.7409 80.664 98.562 80.1576 98.3699C79.7123 98.204 79.3456 98.0468 79.0575 97.8984C78.7694 97.75 78.5249 97.5448 78.3241 97.2828C78.1233 97.0122 78.0229 96.6717 78.0229 96.2613C78.0229 95.8597 78.1364 95.5017 78.3634 95.1874C78.5991 94.873 78.9222 94.6329 79.3325 94.467C79.7516 94.2924 80.2275 94.2051 80.7601 94.2051C81.4935 94.2051 82.096 94.3885 82.5674 94.7552C83.0389 95.1219 83.2747 95.6021 83.2747 96.1958C83.2747 96.3093 83.2703 96.3966 83.2616 96.4577H82.1221L82.1352 96.3006C82.1352 95.9513 81.9999 95.6763 81.7292 95.4755C81.4673 95.2659 81.1181 95.1612 80.6815 95.1612C80.2537 95.1612 79.9001 95.2572 79.6207 95.4493C79.35 95.6414 79.2147 95.8989 79.2147 96.222C79.2147 96.5276 79.3413 96.7677 79.5945 96.9423C79.8477 97.1169 80.2406 97.309 80.7732 97.5186C81.2185 97.6932 81.5764 97.8547 81.8471 98.0032C82.1178 98.1429 82.3492 98.3393 82.5412 98.5925C82.7333 98.8457 82.8294 99.1644 82.8294 99.5486C82.8294 99.9677 82.7028 100.334 82.4496 100.649C82.2051 100.963 81.8646 101.203 81.428 101.369C80.9915 101.535 80.4981 101.618 79.9481 101.618ZM86.3453 93.1574C86.1533 93.1574 85.9917 93.0962 85.8608 92.974C85.7385 92.843 85.6774 92.6815 85.6774 92.4894C85.6774 92.2275 85.7735 92.0048 85.9655 91.8215C86.1576 91.6294 86.3803 91.5334 86.6335 91.5334C86.8343 91.5334 86.9958 91.5945 87.1181 91.7167C87.2403 91.8389 87.3014 92.0005 87.3014 92.2013C87.3014 92.4632 87.2054 92.6902 87.0133 92.8823C86.8212 93.0657 86.5986 93.1574 86.3453 93.1574ZM86.7252 94.323L85.4548 101.5H84.263L85.5333 94.323H86.7252ZM92.2794 94.192C93.0216 94.192 93.6153 94.3928 94.0606 94.7945C94.5059 95.1874 94.7285 95.7636 94.7285 96.5232C94.7285 96.8026 94.7067 97.0515 94.663 97.2697L93.9165 101.5H92.7378L93.4581 97.44C93.493 97.2566 93.5105 97.0646 93.5105 96.8637C93.5105 96.3311 93.3621 95.9251 93.0652 95.6457C92.7771 95.3663 92.3711 95.2266 91.8472 95.2266C91.2186 95.2266 90.6816 95.4231 90.2363 95.816C89.7998 96.2089 89.516 96.7808 89.385 97.5317V97.5055L88.6778 101.5H87.486L88.7564 94.323H89.9482L89.7648 95.3576C90.0617 94.9822 90.4328 94.694 90.8781 94.4932C91.3233 94.2924 91.7905 94.192 92.2794 94.192ZM100.251 94.2051C100.853 94.2051 101.373 94.323 101.809 94.5587C102.255 94.7857 102.591 95.1088 102.818 95.5279C103.053 95.9382 103.171 96.4097 103.171 96.9423C103.171 97.1257 103.149 97.3483 103.106 97.6103C103.071 97.8373 103.014 98.073 102.936 98.3175H97.1992C97.1817 98.4921 97.173 98.6187 97.173 98.6973C97.173 99.2997 97.352 99.7712 97.71 100.112C98.0767 100.444 98.5525 100.609 99.1375 100.609C99.6527 100.609 100.102 100.492 100.486 100.256C100.879 100.011 101.176 99.6883 101.377 99.2866H102.661C102.346 99.9764 101.862 100.54 101.207 100.976C100.561 101.404 99.8098 101.618 98.9542 101.618C98.0548 101.618 97.3302 101.36 96.7801 100.845C96.2388 100.321 95.9681 99.6097 95.9681 98.7104C95.9681 98.4572 95.9943 98.1865 96.0467 97.8984C96.1776 97.1562 96.4439 96.5058 96.8456 95.947C97.2472 95.3882 97.7405 94.9603 98.3255 94.6635C98.9192 94.3579 99.561 94.2051 100.251 94.2051ZM101.901 97.4531C101.927 97.2785 101.94 97.1169 101.94 96.9685C101.94 96.4097 101.761 95.9775 101.403 95.6719C101.054 95.3663 100.596 95.2135 100.028 95.2135C99.4169 95.2135 98.8625 95.4144 98.3648 95.816C97.8671 96.2089 97.531 96.7546 97.3564 97.4531H101.901ZM106.513 101.618C105.762 101.618 105.146 101.439 104.666 101.081C104.186 100.723 103.946 100.243 103.946 99.6403C103.946 99.5268 103.95 99.4438 103.959 99.3914H105.124C105.089 99.7669 105.198 100.072 105.452 100.308C105.714 100.544 106.089 100.662 106.578 100.662C107.067 100.662 107.46 100.57 107.757 100.387C108.062 100.195 108.215 99.9284 108.215 99.5879C108.215 99.2997 108.093 99.0727 107.848 98.9068C107.604 98.7409 107.228 98.562 106.722 98.3699C106.277 98.204 105.91 98.0468 105.622 97.8984C105.334 97.75 105.089 97.5448 104.889 97.2828C104.688 97.0122 104.587 96.6717 104.587 96.2613C104.587 95.8597 104.701 95.5017 104.928 95.1874C105.164 94.873 105.487 94.6329 105.897 94.467C106.316 94.2924 106.792 94.2051 107.325 94.2051C108.058 94.2051 108.66 94.3885 109.132 94.7552C109.603 95.1219 109.839 95.6021 109.839 96.1958C109.839 96.3093 109.835 96.3966 109.826 96.4577H108.687L108.7 96.3006C108.7 95.9513 108.564 95.6763 108.294 95.4755C108.032 95.2659 107.683 95.1612 107.246 95.1612C106.818 95.1612 106.465 95.2572 106.185 95.4493C105.914 95.6414 105.779 95.8989 105.779 96.222C105.779 96.5276 105.906 96.7677 106.159 96.9423C106.412 97.1169 106.805 97.309 107.338 97.5186C107.783 97.6932 108.141 97.8547 108.412 98.0032C108.682 98.1429 108.914 98.3393 109.106 98.5925C109.298 98.8457 109.394 99.1644 109.394 99.5486C109.394 99.9677 109.267 100.334 109.014 100.649C108.77 100.963 108.429 101.203 107.992 101.369C107.556 101.535 107.063 101.618 106.513 101.618ZM113.355 101.618C112.604 101.618 111.989 101.439 111.508 101.081C111.028 100.723 110.788 100.243 110.788 99.6403C110.788 99.5268 110.792 99.4438 110.801 99.3914H111.967C111.932 99.7669 112.041 100.072 112.294 100.308C112.556 100.544 112.932 100.662 113.421 100.662C113.91 100.662 114.302 100.57 114.599 100.387C114.905 100.195 115.058 99.9284 115.058 99.5879C115.058 99.2997 114.935 99.0727 114.691 98.9068C114.446 98.7409 114.071 98.562 113.565 98.3699C113.119 98.204 112.753 98.0468 112.465 97.8984C112.176 97.75 111.932 97.5448 111.731 97.2828C111.53 97.0122 111.43 96.6717 111.43 96.2613C111.43 95.8597 111.543 95.5017 111.77 95.1874C112.006 94.873 112.329 94.6329 112.74 94.467C113.159 94.2924 113.634 94.2051 114.167 94.2051C114.901 94.2051 115.503 94.3885 115.974 94.7552C116.446 95.1219 116.682 95.6021 116.682 96.1958C116.682 96.3093 116.677 96.3966 116.669 96.4577H115.529L115.542 96.3006C115.542 95.9513 115.407 95.6763 115.136 95.4755C114.874 95.2659 114.525 95.1612 114.089 95.1612C113.661 95.1612 113.307 95.2572 113.028 95.4493C112.757 95.6414 112.622 95.8989 112.622 96.222C112.622 96.5276 112.748 96.7677 113.001 96.9423C113.255 97.1169 113.648 97.309 114.18 97.5186C114.625 97.6932 114.983 97.8547 115.254 98.0032C115.525 98.1429 115.756 98.3393 115.948 98.5925C116.14 98.8457 116.236 99.1644 116.236 99.5486C116.236 99.9677 116.11 100.334 115.857 100.649C115.612 100.963 115.272 101.203 114.835 101.369C114.398 101.535 113.905 101.618 113.355 101.618Z" fill="#FB8C00"/>
</g>
</svg>
