<svg width="118" height="76" viewBox="0 0 118 76" fill="none" xmlns="http://www.w3.org/2000/svg">
<path d="M19.1255 25.7037H94.2596V63.2708H19.1255V25.7037Z" fill="#CFD8DC"/>
<path d="M19.1255 63.2709H94.2596V71.1797H19.1255V63.2709Z" fill="#B0BEC5"/>
<path d="M62.6245 35.5898H86.3511V71.1797H62.6245V35.5898Z" fill="#455A64"/>
<path d="M27.0342 35.5898H54.7152V57.3392H27.0342V35.5898Z" fill="#E3F2FD"/>
<path d="M29.0117 37.5671H52.7383V55.3621H29.0117V37.5671Z" fill="#1E88E5"/>
<path d="M81.408 54.3734C80.8149 54.3734 80.4194 54.7689 80.4194 55.362V59.3164C80.4194 59.9096 80.8149 60.3051 81.408 60.3051C82.0012 60.3051 82.3966 59.9096 82.3966 59.3164V55.362C82.3966 54.7689 82.0012 54.3734 81.408 54.3734Z" fill="#90A4AE"/>
<path d="M56.6929 31.6354C59.9688 31.6354 62.6245 28.9797 62.6245 25.7037C62.6245 22.4278 59.9688 19.7721 56.6929 19.7721C53.4169 19.7721 50.7612 22.4278 50.7612 25.7037C50.7612 28.9797 53.4169 31.6354 56.6929 31.6354Z" fill="#558B2F"/>
<path d="M80.4194 31.6354C83.6954 31.6354 86.3511 28.9797 86.3511 25.7037C86.3511 22.4278 83.6954 19.7721 80.4194 19.7721C77.1435 19.7721 74.4878 22.4278 74.4878 25.7037C74.4878 28.9797 77.1435 31.6354 80.4194 31.6354Z" fill="#558B2F"/>
<path d="M32.9658 31.6354C36.2418 31.6354 38.8975 28.9797 38.8975 25.7037C38.8975 22.4278 36.2418 19.7721 32.9658 19.7721C29.6899 19.7721 27.0342 22.4278 27.0342 25.7037C27.0342 28.9797 29.6899 31.6354 32.9658 31.6354Z" fill="#558B2F"/>
<path d="M88.3283 0H25.0575C22.8825 0 21.103 1.77949 21.103 3.95443V9.88607H92.2828V3.95443C92.2828 1.77949 90.5033 0 88.3283 0ZM50.7612 9.88607H62.6245V25.7038H50.7612V9.88607ZM82.3967 9.88607H72.5106L74.4878 25.7038H86.3511L82.3967 9.88607ZM30.9891 9.88607H40.8752L38.898 25.7038H27.0347L30.9891 9.88607Z" fill="#FB8C00"/>
<path d="M68.5562 31.6354C71.8321 31.6354 74.4878 28.9797 74.4878 25.7037C74.4878 22.4278 71.8321 19.7721 68.5562 19.7721C65.2802 19.7721 62.6245 22.4278 62.6245 25.7037C62.6245 28.9797 65.2802 31.6354 68.5562 31.6354Z" fill="#FFA000"/>
<path d="M98.2144 25.7037C98.2144 29.065 95.644 31.6354 92.2827 31.6354C88.9215 31.6354 86.3511 29.065 86.3511 25.7037C86.3511 22.3425 88.9215 19.7721 92.2827 19.7721L98.2144 25.7037Z" fill="#FFA000"/>
<path d="M44.8296 31.6354C48.1055 31.6354 50.7612 28.9797 50.7612 25.7037C50.7612 22.4278 48.1055 19.7721 44.8296 19.7721C41.5536 19.7721 38.8979 22.4278 38.8979 25.7037C38.8979 28.9797 41.5536 31.6354 44.8296 31.6354Z" fill="#FFA000"/>
<path d="M15.1714 25.7037C15.1714 29.065 17.7418 31.6354 21.103 31.6354C24.4643 31.6354 27.0347 29.065 27.0347 25.7037C27.0347 22.3425 24.4643 19.7721 21.103 19.7721L15.1714 25.7037Z" fill="#FFA000"/>
<path d="M72.5106 9.88611H62.6245V25.7038H74.4878L72.5106 9.88611ZM92.2828 9.88611H82.3967L86.3511 25.7038H98.2144L92.2828 9.88611ZM40.8752 9.88611H50.7612V25.7038H38.898L40.8752 9.88611ZM21.103 9.88611H30.9891L27.0347 25.7038H15.1714L21.103 9.88611Z" fill="#FFC107"/>
<ellipse cx="58.8887" cy="73.2615" rx="58.8887" ry="2.19585" fill="#D9D9D9"/>
</svg>
