<svg width="389" height="433" viewBox="0 0 389 433" fill="none" xmlns="http://www.w3.org/2000/svg">
<mask id="mask0_1367_2281" style="mask-type:alpha" maskUnits="userSpaceOnUse" x="0" y="0" width="389" height="433">
<rect width="389" height="433" fill="#D9D9D9"/>
</mask>
<g mask="url(#mask0_1367_2281)">
<path d="M96.041 136.925H540.131V358.97H96.041V136.925Z" fill="#CFD8DC"/>
<path d="M96.041 358.97H540.131V405.717H96.041V358.97Z" fill="#B0BEC5"/>
<path d="M353.146 195.358H493.385V405.716H353.146V195.358Z" fill="#455A64"/>
<path d="M142.787 195.358H306.399V323.91H142.787V195.358Z" fill="#E3F2FD"/>
<path d="M154.478 207.045H294.716V312.224H154.478V207.045Z" fill="#FFDD55"/>
<path d="M318.089 171.985C337.452 171.985 353.149 156.288 353.149 136.925C353.149 117.562 337.452 101.865 318.089 101.865C298.726 101.865 283.029 117.562 283.029 136.925C283.029 156.288 298.726 171.985 318.089 171.985Z" fill="#558B2F"/>
<path d="M177.849 171.985C197.212 171.985 212.908 156.288 212.908 136.925C212.908 117.562 197.212 101.865 177.849 101.865C158.486 101.865 142.789 117.562 142.789 136.925C142.789 156.288 158.486 171.985 177.849 171.985Z" fill="#558B2F"/>
<path d="M505.072 -15H131.102C118.246 -15 107.729 -4.48209 107.729 8.37314V43.4329H528.445V8.37314C528.445 -4.48209 517.927 -15 505.072 -15ZM283.027 43.4329H353.147V136.925H283.027V43.4329ZM470.012 43.4329H411.579L423.266 136.925H493.385L470.012 43.4329ZM166.161 43.4329H224.594L212.908 136.925H142.788L166.161 43.4329Z" fill="#FB8C00"/>
<path d="M388.204 171.985C407.567 171.985 423.264 156.288 423.264 136.925C423.264 117.562 407.567 101.865 388.204 101.865C368.841 101.865 353.145 117.562 353.145 136.925C353.145 156.288 368.841 171.985 388.204 171.985Z" fill="#FFA000"/>
<path d="M247.968 171.985C267.331 171.985 283.028 156.288 283.028 136.925C283.028 117.562 267.331 101.865 247.968 101.865C228.605 101.865 212.908 117.562 212.908 136.925C212.908 156.288 228.605 171.985 247.968 171.985Z" fill="#FFA000"/>
<path d="M72.668 136.925C72.668 156.792 87.8605 171.985 107.728 171.985C127.595 171.985 142.787 156.792 142.787 136.925C142.787 117.058 127.595 101.865 107.728 101.865L72.668 136.925Z" fill="#FFA000"/>
<path d="M411.579 43.4331H353.146V136.926H423.265L411.579 43.4331ZM528.444 43.4331H470.011L493.385 136.926H563.504L528.444 43.4331ZM224.593 43.4331H283.026V136.926H212.907L224.593 43.4331ZM107.728 43.4331H166.161L142.787 136.926H72.668L107.728 43.4331Z" fill="#FFC107"/>
<ellipse cx="331" cy="413.5" rx="348" ry="12.5" fill="#D9D9D9"/>
<path d="M84.5875 318.388C80.4927 332.594 68.5364 342.538 56.0643 350.985C54.3229 352.165 52.5809 353.317 50.8384 354.443C50.8266 354.448 50.8144 354.459 50.8025 354.464C50.7186 354.518 50.6346 354.572 50.5565 354.626C50.1969 354.858 49.8371 355.09 49.4805 355.319L49.6764 355.407C49.6764 355.407 49.8687 355.509 49.6583 355.424C49.5956 355.397 49.53 355.374 49.4675 355.348C42.222 352.425 34.8479 349.288 29.2953 343.813C23.5354 338.129 20.1693 329.213 23.2882 321.745C23.6982 320.766 24.216 319.837 24.8321 318.974C25.0851 318.612 25.3576 318.265 25.6413 317.925C27.3617 315.825 29.6104 314.222 32.156 313.279C34.7017 312.336 37.4525 312.089 40.1256 312.562C42.7986 313.035 45.2975 314.211 47.3652 315.97C49.4329 317.729 50.9948 320.007 51.8904 322.569C52.8067 314.038 45.772 306.892 39.0021 301.619C32.2292 296.348 24.5333 290.609 23.2239 282.125C22.4927 277.405 24.1342 272.83 27.1243 269.158C27.2169 269.046 27.3093 268.935 27.4047 268.827C31.0446 264.549 36.164 261.803 41.7405 261.136C52.1258 260.056 62.2136 265.553 69.7583 272.774C81.9015 284.392 89.2426 302.237 84.5875 318.388Z" fill="#55CD00"/>
<path d="M65.0658 299.807C67.059 302.908 68.5892 306.283 69.6083 309.826C70.4701 312.992 70.8537 316.27 70.7463 319.55C70.4683 326.299 68.5736 332.882 65.2216 338.746C62.6966 343.195 59.6194 347.307 56.0632 350.985C54.3218 352.164 52.5798 353.317 50.8373 354.442C50.8255 354.447 50.8133 354.458 50.8014 354.464C50.7176 354.518 50.6335 354.572 50.5554 354.626C50.1958 354.858 49.836 355.09 49.4794 355.319C49.4794 355.319 49.8677 355.509 49.6572 355.423C49.5946 355.397 49.5289 355.373 49.4664 355.347C50.1158 350.023 49.4796 344.621 47.6112 339.593C45.7428 334.566 42.6966 330.059 38.7279 326.451C34.7495 322.899 29.9879 320.336 24.8311 318.973C25.084 318.611 25.3565 318.265 25.6402 317.925C27.6319 318.483 29.5702 319.217 31.4327 320.117C38.0904 323.314 43.5417 328.569 46.9799 335.106C50.0652 341.041 51.3931 347.734 50.8076 354.397C51.1053 354.127 51.4033 353.852 51.6924 353.579C57.1982 348.446 62.0884 342.554 65.3979 335.754C68.2692 329.996 69.6804 323.619 69.5072 317.187C69.2371 310.173 66.4426 303.677 62.3965 298.021C57.9621 291.988 52.7234 286.589 46.8261 281.974C40.8829 277.214 34.3795 273.199 27.461 270.019C27.305 269.946 27.1829 269.816 27.12 269.656C27.0572 269.495 27.0584 269.317 27.1233 269.158C27.1694 269.015 27.2702 268.895 27.4037 268.826C27.4723 268.797 27.5468 268.783 27.6215 268.786C27.6962 268.789 27.7693 268.809 27.8352 268.844C28.6894 269.238 29.5377 269.636 30.3792 270.052C37.3879 273.516 43.939 277.838 49.8822 282.917C55.623 287.812 61.0275 293.403 65.0658 299.807Z" fill="white"/>
<path d="M25.4714 354.161H70.3446C70.8368 354.161 71.3234 354.266 71.7721 354.468C72.2208 354.671 72.6213 354.966 72.9471 355.335C73.2729 355.704 73.5164 356.138 73.6616 356.609C73.8068 357.079 73.8503 357.575 73.7892 358.063L68.0716 403.804C67.9655 404.643 67.5572 405.415 66.9232 405.975C66.2891 406.534 65.4728 406.844 64.627 406.845H31.189C30.3432 406.844 29.5269 406.534 28.8929 405.975C28.2588 405.415 27.8505 404.643 27.7444 403.804L22.0268 358.063C21.9658 357.575 22.0093 357.079 22.1544 356.609C22.2996 356.138 22.5432 355.704 22.8689 355.335C23.1947 354.966 23.5952 354.671 24.0439 354.468C24.4926 354.266 24.9792 354.161 25.4714 354.161Z" fill="#A0616A"/>
<rect x="164.5" y="32.5" width="86" height="46" rx="3.18059" fill="#FB8C00" stroke="white"/>
<path d="M175.31 62.1314C175.593 60.4982 176.19 59.0456 177.101 57.7736C178.027 56.4859 179.166 55.4887 180.516 54.782C181.867 54.0597 183.304 53.6985 184.827 53.6985C186.602 53.6985 188.054 54.146 189.185 55.0412C190.331 55.9206 191.069 57.1455 191.399 58.7159H190.174C189.907 57.4753 189.287 56.4859 188.313 55.7478C187.355 55.0097 186.138 54.6407 184.662 54.6407C183.359 54.6407 182.126 54.9469 180.964 55.5594C179.802 56.1718 178.812 57.0434 177.996 58.1741C177.195 59.3048 176.661 60.6239 176.394 62.1314C176.3 62.6968 176.253 63.2464 176.253 63.7804C176.253 64.9738 176.496 66.0103 176.983 66.8897C177.47 67.7534 178.145 68.4208 179.009 68.892C179.888 69.3631 180.893 69.5986 182.024 69.5986C183.28 69.5986 184.466 69.316 185.581 68.7506C186.711 68.1853 187.669 67.3844 188.455 66.3479C189.255 65.2958 189.813 64.063 190.127 62.6497H182.754L182.919 61.7781H191.375L191.234 62.4848C190.92 64.0238 190.308 65.4057 189.397 66.6306C188.502 67.8398 187.395 68.7977 186.075 69.5044C184.756 70.1954 183.351 70.5409 181.859 70.5409C180.524 70.5409 179.346 70.266 178.326 69.7164C177.321 69.1668 176.535 68.3894 175.97 67.3844C175.42 66.3636 175.146 65.1937 175.146 63.8746C175.146 63.2778 175.201 62.6968 175.31 62.1314ZM200.895 57.4203C201.978 57.4203 202.897 57.6323 203.651 58.0563C204.42 58.4646 204.993 59.0221 205.37 59.7288C205.763 60.4197 205.959 61.1971 205.959 62.0608C205.959 62.4377 205.928 62.7832 205.865 63.0972C205.771 63.6626 205.676 64.0866 205.582 64.3692H194.535C194.472 64.8718 194.44 65.233 194.44 65.4528C194.44 66.8033 194.849 67.8398 195.665 68.5622C196.482 69.2846 197.51 69.6457 198.751 69.6457C199.992 69.6457 201.091 69.3395 202.049 68.7271C203.022 68.0989 203.713 67.2509 204.122 66.183H205.229C204.726 67.4865 203.886 68.5465 202.708 69.3631C201.546 70.164 200.172 70.5644 198.586 70.5644C197.016 70.5644 195.752 70.109 194.794 69.1982C193.851 68.2874 193.38 67.0468 193.38 65.4764C193.38 64.9896 193.427 64.487 193.522 63.9688C193.757 62.634 194.228 61.4719 194.935 60.4825C195.642 59.4932 196.505 58.7394 197.526 58.2212C198.563 57.6873 199.685 57.4203 200.895 57.4203ZM204.734 63.5448C204.844 63.0894 204.899 62.6261 204.899 62.155C204.899 60.9144 204.499 59.9643 203.698 59.3048C202.913 58.6452 201.915 58.3154 200.706 58.3154C199.811 58.3154 198.947 58.5117 198.115 58.9043C197.283 59.2969 196.56 59.8858 195.948 60.671C195.335 61.4562 194.911 62.4141 194.676 63.5448H204.734ZM215.853 57.3261C217.156 57.3261 218.2 57.6794 218.985 58.3861C219.771 59.077 220.163 60.1057 220.163 61.4719C220.163 61.8959 220.116 62.367 220.022 62.8852L218.703 70.376H217.666L218.985 62.9559C219.064 62.4534 219.103 62.0372 219.103 61.7074C219.103 60.5768 218.789 59.7209 218.161 59.1399C217.533 58.5431 216.653 58.2447 215.523 58.2447C214.204 58.2447 213.065 58.653 212.107 59.4696C211.149 60.2862 210.49 61.4876 210.128 63.0737L208.833 70.376H207.773L210.058 57.5852H211.118L210.647 60.2705C211.181 59.3126 211.903 58.5824 212.814 58.0799C213.74 57.5773 214.753 57.3261 215.853 57.3261ZM225.747 54.7349C225.527 54.7349 225.347 54.6721 225.205 54.5465C225.064 54.4051 224.993 54.2246 224.993 54.0047C224.993 53.6906 225.103 53.4315 225.323 53.2274C225.543 53.0075 225.794 52.8976 226.077 52.8976C226.297 52.8976 226.477 52.9682 226.619 53.1096C226.776 53.2509 226.854 53.4315 226.854 53.6514C226.854 53.9654 226.736 54.2246 226.501 54.4287C226.281 54.6329 226.03 54.7349 225.747 54.7349ZM225.794 57.5852L223.509 70.376H222.449L224.734 57.5852H225.794ZM235.239 57.4203C236.323 57.4203 237.241 57.6323 237.995 58.0563C238.765 58.4646 239.338 59.0221 239.715 59.7288C240.107 60.4197 240.304 61.1971 240.304 62.0608C240.304 62.4377 240.272 62.7832 240.209 63.0972C240.115 63.6626 240.021 64.0866 239.927 64.3692H228.879C228.816 64.8718 228.785 65.233 228.785 65.4528C228.785 66.8033 229.193 67.8398 230.01 68.5622C230.826 69.2846 231.855 69.6457 233.096 69.6457C234.336 69.6457 235.435 69.3395 236.393 68.7271C237.367 68.0989 238.058 67.2509 238.466 66.183H239.573C239.071 67.4865 238.231 68.5465 237.053 69.3631C235.891 70.164 234.517 70.5644 232.931 70.5644C231.36 70.5644 230.096 70.109 229.138 69.1982C228.196 68.2874 227.725 67.0468 227.725 65.4764C227.725 64.9896 227.772 64.487 227.866 63.9688C228.102 62.634 228.573 61.4719 229.28 60.4825C229.986 59.4932 230.85 58.7394 231.871 58.2212C232.907 57.6873 234.03 57.4203 235.239 57.4203ZM239.079 63.5448C239.189 63.0894 239.244 62.6261 239.244 62.155C239.244 60.9144 238.843 59.9643 238.042 59.3048C237.257 58.6452 236.26 58.3154 235.051 58.3154C234.156 58.3154 233.292 58.5117 232.46 58.9043C231.627 59.2969 230.905 59.8858 230.292 60.671C229.68 61.4562 229.256 62.4141 229.02 63.5448H239.079Z" fill="white"/>
<path fill-rule="evenodd" clip-rule="evenodd" d="M179.565 39.9782C179.079 40.0221 178.87 40.0899 178.037 40.4735C177.527 40.7086 176.522 41.618 176.522 41.8448C176.522 41.9373 176.466 42.0131 176.398 42.0131C176.33 42.0131 176.274 42.1188 176.274 42.2479C176.274 42.3771 176.224 42.4828 176.163 42.4828C176.037 42.4828 175.889 43.2432 175.876 43.9507C175.864 44.5746 176.031 45.4186 176.166 45.4186C176.225 45.4186 176.274 45.5243 176.274 45.6535C176.274 45.7827 176.33 45.8883 176.398 45.8883C176.466 45.8883 176.522 45.9549 176.522 46.0363C176.522 46.2398 177.504 47.1801 177.717 47.1801C177.811 47.1801 177.889 47.2292 177.889 47.2891C177.889 47.3491 178.202 47.509 178.585 47.6446C179.665 48.0264 182.289 47.9465 182.789 47.5164C182.854 47.4607 182.984 47.415 183.077 47.415C183.304 47.415 183.603 47.1235 183.603 46.9024C183.603 46.6595 182.226 44.1269 182.094 44.1269C182.036 44.1269 181.988 44.1797 181.988 44.2443C181.988 44.3132 181.557 44.3617 180.945 44.3617C179.854 44.3617 179.752 44.3113 179.752 43.7743C179.752 43.4832 180.315 43.3765 181.318 43.4779C182.145 43.5618 182.485 43.4313 182.485 43.0294C182.485 42.9333 182.526 42.8371 182.578 42.8155C182.726 42.7534 183.603 41.0708 183.603 40.8493C183.603 40.6519 182.842 40.2516 182.468 40.2516C182.368 40.2516 182.233 40.2049 182.168 40.1479C182.03 40.0268 180.287 39.9131 179.565 39.9782ZM193.118 40.2025C192.984 40.5328 193.033 47.4135 193.171 47.6576C193.288 47.8635 193.445 47.8847 194.848 47.8847H196.397V43.9507V40.0167H194.795C193.449 40.0167 193.182 40.0464 193.118 40.2025ZM200.792 40.2881C200.647 40.4295 200.371 40.6508 200.179 40.78C199.987 40.9092 199.714 41.122 199.573 41.2529C199.431 41.3839 199.119 41.6051 198.879 41.7446C198.639 41.8842 198.307 42.1338 198.143 42.2994C197.979 42.4648 197.797 42.6002 197.74 42.6002C197.581 42.6002 196.894 43.2541 196.894 43.4056C196.894 43.4863 197.116 43.5397 197.453 43.5397H198.011V44.6456C198.011 45.8258 198.271 46.6695 198.751 47.0523C198.879 47.1549 199.087 47.3189 199.212 47.4167C199.869 47.9294 201.462 48.0212 202.39 47.5997L202.856 47.3882V46.2342C202.856 45.5915 202.801 45.048 202.732 45.0076C202.663 44.9677 202.607 44.9848 202.607 45.0457C202.607 45.1841 202.041 45.2927 201.726 45.2148C201.522 45.1645 201.49 45.0435 201.49 44.348V43.5397H202.024C202.317 43.5397 202.625 43.4763 202.707 43.3988C202.79 43.32 202.856 42.9421 202.856 42.5415C202.856 42.1409 202.79 41.763 202.707 41.6843C202.625 41.6067 202.317 41.5433 202.024 41.5433H201.49V40.78C201.49 40.1286 201.458 40.0178 201.272 40.0239C201.153 40.0279 200.936 40.1467 200.792 40.2881ZM219.252 41.773V43.5294L220.153 43.5639L221.053 43.5984L221.075 45.5361C221.087 46.6018 221.101 47.5676 221.106 47.6824C221.115 47.8739 221.262 47.8885 222.886 47.8585L224.656 47.826L224.69 45.6828L224.723 43.5397H225.652H226.581V41.7782V40.0167H222.917H219.252V41.773ZM184.299 41.7291C184.147 42.1034 184.216 46.3495 184.379 46.6164C184.622 47.0168 185.246 47.5769 185.627 47.7379C186.407 48.0676 187.635 47.8402 188.23 47.2562C188.554 46.9374 188.571 46.9333 188.571 47.1754C188.571 47.3156 188.629 47.5326 188.7 47.6576C188.816 47.8626 188.972 47.8847 190.31 47.8847C191.648 47.8847 191.804 47.8626 191.921 47.6576C191.999 47.5194 192.049 46.3435 192.049 44.6546C192.049 42.4055 192.015 41.847 191.872 41.7111C191.737 41.5843 191.329 41.5433 190.197 41.5433C188.415 41.5433 188.582 41.3123 188.539 43.8333L188.509 45.5948L188.087 45.6328C187.834 45.6557 187.624 45.609 187.561 45.5154C187.504 45.4299 187.456 44.5645 187.455 43.5925C187.454 42.3766 187.407 41.7813 187.304 41.6843C187.206 41.5915 186.68 41.5433 185.765 41.5433C184.612 41.5433 184.361 41.575 184.299 41.7291ZM203.614 41.7047C203.446 41.896 203.486 45.9289 203.661 46.5239C204.078 47.9374 206.437 48.3635 207.626 47.24C207.797 47.0778 207.968 46.9452 208.005 46.9452C208.043 46.9452 208.073 47.1566 208.073 47.415V47.8847H209.491C210.271 47.8847 210.998 47.8526 211.106 47.8134C211.278 47.7511 211.303 47.3731 211.303 44.7837C211.303 42.6392 211.262 41.7864 211.153 41.6843C210.948 41.4899 208.179 41.4899 207.974 41.6843C207.87 41.7823 207.825 42.4072 207.825 43.7393V45.6535H207.443C206.767 45.6535 206.716 45.5074 206.679 43.463L206.644 41.602L205.203 41.5692C204.071 41.5432 203.73 41.5722 203.614 41.7047ZM212.574 41.6414C212.452 41.7145 212.424 42.4231 212.449 44.781L212.483 47.826H214.097H215.712L215.79 46.2406C215.834 45.3687 215.91 44.5363 215.96 44.3911C216.074 44.0637 216.406 44.0495 216.644 44.3617C216.787 44.55 216.965 44.5966 217.541 44.5966C217.937 44.5966 218.259 44.5439 218.259 44.4792C218.259 44.4146 218.322 44.3617 218.399 44.3617C218.634 44.3617 218.994 43.8859 219.077 43.4658C219.241 42.6423 218.97 42.1144 218.167 41.6901C217.583 41.3813 216.646 41.6164 216.166 42.1924C215.909 42.5022 215.774 42.4622 215.774 42.0757C215.774 41.6148 215.549 41.5432 214.104 41.5451C213.349 41.5462 212.66 41.5895 212.574 41.6414ZM228.879 41.6608C228.742 41.7163 228.491 41.766 228.32 41.7712C228.149 41.7763 227.758 41.8995 227.451 42.0448L226.892 42.3089L226.855 43.2178C226.835 43.7178 226.863 44.126 226.917 44.1251C226.972 44.1242 227.239 44.0471 227.513 43.9541C228.254 43.7015 229.472 43.7209 229.729 43.9893C229.842 44.1075 229.935 44.2396 229.935 44.2829C229.935 44.3263 229.576 44.3617 229.138 44.3617C228.214 44.3617 227.348 44.6616 227.059 45.0818C226.953 45.2347 226.8 45.5546 226.717 45.7926C226.501 46.4149 226.9 47.2773 227.568 47.632C228.117 47.9238 229.082 47.9651 229.556 47.717C229.814 47.582 229.901 47.5833 230.13 47.7251C230.335 47.8516 230.761 47.8844 231.876 47.8592L233.351 47.826L233.385 45.7167C233.423 43.3339 233.334 42.945 232.604 42.3124C232.371 42.1116 231.87 41.8563 231.488 41.7452C230.763 41.5341 229.307 41.487 228.879 41.6608ZM234.556 41.6843C234.446 41.7878 234.407 42.7965 234.407 45.4912C234.407 47.5075 234.441 49.2408 234.482 49.343C234.545 49.4991 234.813 49.5288 236.159 49.5288H237.76V48.5767C237.76 47.7147 237.781 47.633 237.978 47.7133C238.097 47.7619 238.531 47.8251 238.94 47.8535C240.202 47.9411 241.443 47.229 241.931 46.1382C242.277 45.3638 242.138 43.3062 241.703 42.7764C241.298 42.2835 241.098 42.1262 240.528 41.8535C239.75 41.481 239.059 41.4555 238.363 41.7735C237.862 42.002 237.858 42.002 237.795 41.7735C237.736 41.5608 237.617 41.5433 236.218 41.5433C235.207 41.5433 234.655 41.5901 234.556 41.6843ZM238.701 44.2947C238.799 44.3869 238.878 44.6775 238.878 44.9405V45.4186H238.319H237.76V44.944C237.76 44.2223 238.26 43.8775 238.701 44.2947ZM229.911 45.9764C229.949 46.4741 229.948 46.4755 229.521 46.4755C229.162 46.4755 229.079 46.4254 229.011 46.1678C228.913 45.7998 229.244 45.4138 229.624 45.4522C229.823 45.4723 229.88 45.5781 229.911 45.9764Z" fill="white"/>
<rect x="165.702" y="76.7016" width="85.5968" height="16.5968" fill="white" stroke="#FB8C00" stroke-width="1.40323"/>
<path d="M188.371 81.6897C188.275 82.231 188.048 82.6807 187.69 83.0386C187.341 83.3879 186.913 83.6411 186.407 83.7983C186.835 83.8681 187.184 84.0777 187.455 84.4269C187.725 84.7674 187.861 85.1734 187.861 85.6449C187.861 85.7846 187.848 85.9199 187.821 86.0509C187.743 86.5137 187.551 86.9328 187.245 87.3082C186.948 87.6749 186.555 87.9674 186.066 88.1857C185.577 88.3952 185.027 88.5 184.416 88.5H181.011L182.635 79.3715H185.909C186.73 79.3715 187.35 79.5462 187.769 79.8954C188.197 80.2447 188.411 80.6987 188.411 81.2575C188.411 81.3972 188.398 81.5412 188.371 81.6897ZM187.14 81.8337C187.158 81.7552 187.167 81.646 187.167 81.5063C187.167 81.1309 187.036 80.8384 186.774 80.6288C186.512 80.4193 186.132 80.3145 185.634 80.3145H183.657L183.12 83.3399H185.123C185.674 83.3399 186.128 83.2089 186.486 82.947C186.843 82.6763 187.062 82.3052 187.14 81.8337ZM186.643 85.933C186.669 85.8108 186.682 85.6973 186.682 85.5925C186.682 85.1909 186.534 84.8722 186.237 84.6365C185.94 84.4007 185.534 84.2828 185.019 84.2828H182.949L182.373 87.557H184.482C185.067 87.557 185.551 87.413 185.935 87.1248C186.32 86.8367 186.555 86.4394 186.643 85.933ZM196.678 81.323L195.408 88.5H194.216L194.4 87.4523C194.112 87.819 193.745 88.1027 193.3 88.3035C192.854 88.5044 192.391 88.6048 191.911 88.6048C191.16 88.6048 190.558 88.404 190.104 88.0023C189.659 87.592 189.436 87.007 189.436 86.2474C189.436 86.0553 189.458 85.8152 189.501 85.527L190.248 81.323H191.427L190.719 85.3699C190.685 85.5532 190.667 85.7453 190.667 85.9461C190.667 86.4787 190.811 86.8847 191.099 87.1641C191.396 87.4348 191.806 87.5701 192.33 87.5701C192.959 87.5701 193.492 87.3737 193.928 86.9808C194.373 86.5879 194.657 86.016 194.779 85.2651V85.3044L195.487 81.323H196.678ZM199.948 88.6179C199.197 88.6179 198.582 88.4389 198.101 88.0809C197.621 87.7229 197.381 87.2427 197.381 86.6403C197.381 86.5268 197.385 86.4438 197.394 86.3914H198.56C198.525 86.7669 198.634 87.0725 198.887 87.3082C199.149 87.5439 199.525 87.6618 200.014 87.6618C200.503 87.6618 200.895 87.5701 201.192 87.3868C201.498 87.1947 201.651 86.9284 201.651 86.5879C201.651 86.2997 201.528 86.0727 201.284 85.9068C201.039 85.7409 200.664 85.562 200.158 85.3699C199.712 85.204 199.346 85.0468 199.058 84.8984C198.769 84.75 198.525 84.5448 198.324 84.2828C198.123 84.0122 198.023 83.6717 198.023 83.2613C198.023 82.8597 198.136 82.5017 198.363 82.1874C198.599 81.873 198.922 81.6329 199.333 81.467C199.752 81.2924 200.227 81.2051 200.76 81.2051C201.494 81.2051 202.096 81.3885 202.567 81.7552C203.039 82.1219 203.275 82.6021 203.275 83.1958C203.275 83.3093 203.27 83.3966 203.262 83.4577H202.122L202.135 83.3006C202.135 82.9513 202 82.6763 201.729 82.4755C201.467 82.2659 201.118 82.1612 200.682 82.1612C200.254 82.1612 199.9 82.2572 199.621 82.4493C199.35 82.6414 199.215 82.8989 199.215 83.222C199.215 83.5276 199.341 83.7677 199.594 83.9423C199.848 84.1169 200.241 84.309 200.773 84.5186C201.218 84.6932 201.576 84.8547 201.847 85.0032C202.118 85.1429 202.349 85.3393 202.541 85.5925C202.733 85.8457 202.829 86.1644 202.829 86.5486C202.829 86.9677 202.703 87.3344 202.45 87.6487C202.205 87.963 201.865 88.2031 201.428 88.369C200.991 88.5349 200.498 88.6179 199.948 88.6179ZM206.345 80.1574C206.153 80.1574 205.992 80.0962 205.861 79.974C205.739 79.843 205.677 79.6815 205.677 79.4894C205.677 79.2275 205.773 79.0048 205.966 78.8215C206.158 78.6294 206.38 78.5334 206.633 78.5334C206.834 78.5334 206.996 78.5945 207.118 78.7167C207.24 78.8389 207.301 79.0005 207.301 79.2013C207.301 79.4632 207.205 79.6902 207.013 79.8823C206.821 80.0657 206.599 80.1574 206.345 80.1574ZM206.725 81.323L205.455 88.5H204.263L205.533 81.323H206.725ZM212.279 81.192C213.022 81.192 213.615 81.3928 214.061 81.7945C214.506 82.1874 214.729 82.7636 214.729 83.5232C214.729 83.8026 214.707 84.0515 214.663 84.2697L213.917 88.5H212.738L213.458 84.44C213.493 84.2566 213.511 84.0646 213.511 83.8637C213.511 83.3311 213.362 82.9251 213.065 82.6457C212.777 82.3663 212.371 82.2266 211.847 82.2266C211.219 82.2266 210.682 82.4231 210.236 82.816C209.8 83.2089 209.516 83.7808 209.385 84.5317V84.5055L208.678 88.5H207.486L208.756 81.323H209.948L209.765 82.3576C210.062 81.9822 210.433 81.694 210.878 81.4932C211.323 81.2924 211.79 81.192 212.279 81.192ZM220.251 81.2051C220.853 81.2051 221.373 81.323 221.809 81.5587C222.255 81.7857 222.591 82.1088 222.818 82.5279C223.053 82.9382 223.171 83.4097 223.171 83.9423C223.171 84.1257 223.149 84.3483 223.106 84.6103C223.071 84.8373 223.014 85.073 222.936 85.3175H217.199C217.182 85.4921 217.173 85.6187 217.173 85.6973C217.173 86.2997 217.352 86.7712 217.71 87.1117C218.077 87.4435 218.553 87.6094 219.138 87.6094C219.653 87.6094 220.102 87.4915 220.486 87.2558C220.879 87.0113 221.176 86.6883 221.377 86.2866H222.661C222.346 86.9764 221.862 87.5396 221.207 87.9761C220.561 88.404 219.81 88.6179 218.954 88.6179C218.055 88.6179 217.33 88.3603 216.78 87.8452C216.239 87.3213 215.968 86.6097 215.968 85.7104C215.968 85.4572 215.994 85.1865 216.047 84.8984C216.178 84.1562 216.444 83.5058 216.846 82.947C217.247 82.3882 217.741 81.9603 218.326 81.6635C218.919 81.3579 219.561 81.2051 220.251 81.2051ZM221.901 84.4531C221.927 84.2785 221.94 84.1169 221.94 83.9685C221.94 83.4097 221.761 82.9775 221.403 82.6719C221.054 82.3663 220.596 82.2135 220.028 82.2135C219.417 82.2135 218.862 82.4144 218.365 82.816C217.867 83.2089 217.531 83.7546 217.356 84.4531H221.901ZM226.513 88.6179C225.762 88.6179 225.146 88.4389 224.666 88.0809C224.186 87.7229 223.946 87.2427 223.946 86.6403C223.946 86.5268 223.95 86.4438 223.959 86.3914H225.124C225.089 86.7669 225.198 87.0725 225.452 87.3082C225.714 87.5439 226.089 87.6618 226.578 87.6618C227.067 87.6618 227.46 87.5701 227.757 87.3868C228.062 87.1947 228.215 86.9284 228.215 86.5879C228.215 86.2997 228.093 86.0727 227.848 85.9068C227.604 85.7409 227.228 85.562 226.722 85.3699C226.277 85.204 225.91 85.0468 225.622 84.8984C225.334 84.75 225.089 84.5448 224.889 84.2828C224.688 84.0122 224.587 83.6717 224.587 83.2613C224.587 82.8597 224.701 82.5017 224.928 82.1874C225.164 81.873 225.487 81.6329 225.897 81.467C226.316 81.2924 226.792 81.2051 227.325 81.2051C228.058 81.2051 228.66 81.3885 229.132 81.7552C229.603 82.1219 229.839 82.6021 229.839 83.1958C229.839 83.3093 229.835 83.3966 229.826 83.4577H228.687L228.7 83.3006C228.7 82.9513 228.564 82.6763 228.294 82.4755C228.032 82.2659 227.683 82.1612 227.246 82.1612C226.818 82.1612 226.465 82.2572 226.185 82.4493C225.914 82.6414 225.779 82.8989 225.779 83.222C225.779 83.5276 225.906 83.7677 226.159 83.9423C226.412 84.1169 226.805 84.309 227.338 84.5186C227.783 84.6932 228.141 84.8547 228.412 85.0032C228.682 85.1429 228.914 85.3393 229.106 85.5925C229.298 85.8457 229.394 86.1644 229.394 86.5486C229.394 86.9677 229.267 87.3344 229.014 87.6487C228.77 87.963 228.429 88.2031 227.992 88.369C227.556 88.5349 227.063 88.6179 226.513 88.6179ZM233.355 88.6179C232.604 88.6179 231.989 88.4389 231.508 88.0809C231.028 87.7229 230.788 87.2427 230.788 86.6403C230.788 86.5268 230.792 86.4438 230.801 86.3914H231.967C231.932 86.7669 232.041 87.0725 232.294 87.3082C232.556 87.5439 232.932 87.6618 233.421 87.6618C233.91 87.6618 234.302 87.5701 234.599 87.3868C234.905 87.1947 235.058 86.9284 235.058 86.5879C235.058 86.2997 234.935 86.0727 234.691 85.9068C234.446 85.7409 234.071 85.562 233.565 85.3699C233.119 85.204 232.753 85.0468 232.465 84.8984C232.176 84.75 231.932 84.5448 231.731 84.2828C231.53 84.0122 231.43 83.6717 231.43 83.2613C231.43 82.8597 231.543 82.5017 231.77 82.1874C232.006 81.873 232.329 81.6329 232.74 81.467C233.159 81.2924 233.634 81.2051 234.167 81.2051C234.901 81.2051 235.503 81.3885 235.974 81.7552C236.446 82.1219 236.682 82.6021 236.682 83.1958C236.682 83.3093 236.677 83.3966 236.669 83.4577H235.529L235.542 83.3006C235.542 82.9513 235.407 82.6763 235.136 82.4755C234.874 82.2659 234.525 82.1612 234.089 82.1612C233.661 82.1612 233.307 82.2572 233.028 82.4493C232.757 82.6414 232.622 82.8989 232.622 83.222C232.622 83.5276 232.748 83.7677 233.001 83.9423C233.255 84.1169 233.648 84.309 234.18 84.5186C234.625 84.6932 234.983 84.8547 235.254 85.0032C235.525 85.1429 235.756 85.3393 235.948 85.5925C236.14 85.8457 236.236 86.1644 236.236 86.5486C236.236 86.9677 236.11 87.3344 235.857 87.6487C235.612 87.963 235.272 88.2031 234.835 88.369C234.398 88.5349 233.905 88.6179 233.355 88.6179Z" fill="#FB8C00"/>
</g>
</svg>
