<svg width="29" height="29" viewBox="0 0 29 29" fill="none" xmlns="http://www.w3.org/2000/svg">
<path d="M14.5 1C7.04395 1 1 7.04395 1 14.5C1 21.9561 7.04395 28 14.5 28C21.9561 28 28 21.9561 28 14.5C28 7.04395 21.9561 1 14.5 1Z" stroke="white" stroke-width="2" stroke-linecap="round" stroke-linejoin="round"/>
<path d="M4.06543 23.0672C4.06543 23.0672 7.07458 19.2251 14.4996 19.2251C21.9246 19.2251 24.9351 23.0672 24.9351 23.0672M14.4996 14.5001C15.5737 14.5001 16.6038 14.0735 17.3634 13.3139C18.1229 12.5544 18.5496 11.5243 18.5496 10.4501C18.5496 9.37602 18.1229 8.34589 17.3634 7.58636C16.6038 6.82684 15.5737 6.40015 14.4996 6.40015C13.4255 6.40015 12.3953 6.82684 11.6358 7.58636C10.8763 8.34589 10.4496 9.37602 10.4496 10.4501C10.4496 11.5243 10.8763 12.5544 11.6358 13.3139C12.3953 14.0735 13.4255 14.5001 14.4996 14.5001V14.5001Z" stroke="white" stroke-width="2" stroke-linecap="round" stroke-linejoin="round"/>
</svg>
