<svg width="29" height="29" viewBox="0 0 29 29" fill="none" xmlns="http://www.w3.org/2000/svg">
<path d="M14.5 1C7.04395 1 1 7.04395 1 14.5C1 21.9561 7.04395 28 14.5 28C21.9561 28 28 21.9561 28 14.5C28 7.04395 21.9561 1 14.5 1Z" stroke="#2E2C43" stroke-width="2" stroke-linecap="round" stroke-linejoin="round"/>
<path d="M4.06641 23.0672C4.06641 23.0672 7.07556 19.2251 14.5006 19.2251C21.9256 19.2251 24.9361 23.0672 24.9361 23.0672M14.5006 14.5001C15.5747 14.5001 16.6048 14.0735 17.3643 13.3139C18.1239 12.5544 18.5506 11.5243 18.5506 10.4501C18.5506 9.37602 18.1239 8.34589 17.3643 7.58636C16.6048 6.82684 15.5747 6.40015 14.5006 6.40015C13.4264 6.40015 12.3963 6.82684 11.6368 7.58636C10.8773 8.34589 10.4506 9.37602 10.4506 10.4501C10.4506 11.5243 10.8773 12.5544 11.6368 13.3139C12.3963 14.0735 13.4264 14.5001 14.5006 14.5001V14.5001Z" stroke="#2E2C43" stroke-width="2" stroke-linecap="round" stroke-linejoin="round"/>
</svg>
