<svg width="39" height="39" viewBox="0 0 39 39" fill="none" xmlns="http://www.w3.org/2000/svg">
<path d="M19.6665 1.3335C9.7251 1.3335 1.6665 9.3921 1.6665 19.3335C1.6665 29.2749 9.7251 37.3335 19.6665 37.3335C29.6079 37.3335 37.6665 29.2749 37.6665 19.3335C37.6665 9.3921 29.6079 1.3335 19.6665 1.3335Z" stroke="#2E2C43" stroke-width="2" stroke-linecap="round" stroke-linejoin="round"/>
<path d="M5.75439 30.756C5.75439 30.756 9.76659 25.6332 19.6666 25.6332C29.5666 25.6332 33.5806 30.756 33.5806 30.756M19.6666 19.3332C21.0988 19.3332 22.4723 18.7643 23.485 17.7516C24.4977 16.7389 25.0666 15.3654 25.0666 13.9332C25.0666 12.501 24.4977 11.1275 23.485 10.1148C22.4723 9.10213 21.0988 8.5332 19.6666 8.5332C18.2344 8.5332 16.8609 9.10213 15.8482 10.1148C14.8355 11.1275 14.2666 12.501 14.2666 13.9332C14.2666 15.3654 14.8355 16.7389 15.8482 17.7516C16.8609 18.7643 18.2344 19.3332 19.6666 19.3332V19.3332Z" stroke="#2E2C43" stroke-width="2" stroke-linecap="round" stroke-linejoin="round"/>
</svg>
