<svg width="29" height="29" viewBox="0 0 29 29" fill="none" xmlns="http://www.w3.org/2000/svg">
<path d="M14.5 1C7.04395 1 1 7.04395 1 14.5C1 21.9561 7.04395 28 14.5 28C21.9561 28 28 21.9561 28 14.5C28 7.04395 21.9561 1 14.5 1Z" stroke="#2E2C43" stroke-width="2" stroke-linecap="round" stroke-linejoin="round"/>
<path d="M4.06592 23.0671C4.06592 23.0671 7.07507 19.225 14.5001 19.225C21.9251 19.225 24.9356 23.0671 24.9356 23.0671M14.5001 14.5C15.5742 14.5 16.6043 14.0733 17.3639 13.3138C18.1234 12.5543 18.5501 11.5242 18.5501 10.45C18.5501 9.3759 18.1234 8.34576 17.3639 7.58624C16.6043 6.82672 15.5742 6.40002 14.5001 6.40002C13.4259 6.40002 12.3958 6.82672 11.6363 7.58624C10.8768 8.34576 10.4501 9.3759 10.4501 10.45C10.4501 11.5242 10.8768 12.5543 11.6363 13.3138C12.3958 14.0733 13.4259 14.5 14.5001 14.5V14.5Z" stroke="#2E2C43" stroke-width="2" stroke-linecap="round" stroke-linejoin="round"/>
</svg>
