<svg width="24" height="24" viewBox="0 0 24 24" fill="none" xmlns="http://www.w3.org/2000/svg">
<path d="M12 0C5.376 0 0 5.376 0 12C0 18.624 5.376 24 12 24C18.624 24 24 18.624 24 12C24 5.376 18.624 0 12 0ZM12 21.6C6.708 21.6 2.4 17.292 2.4 12C2.4 6.708 6.708 2.4 12 2.4C17.292 2.4 21.6 6.708 21.6 12C21.6 17.292 17.292 21.6 12 21.6ZM10.8 16.8H13.2V19.2H10.8V16.8ZM12.732 4.848C10.26 4.488 8.076 6.012 7.416 8.196C7.2 8.892 7.728 9.6 8.46 9.6H8.7C9.192 9.6 9.588 9.252 9.756 8.796C10.14 7.728 11.28 6.996 12.516 7.26C13.656 7.5 14.496 8.616 14.4 9.78C14.28 11.388 12.456 11.736 11.46 13.236C11.46 13.248 11.448 13.248 11.448 13.26C11.436 13.284 11.424 13.296 11.412 13.32C11.304 13.5 11.196 13.704 11.112 13.92C11.1 13.956 11.076 13.98 11.064 14.016C11.052 14.04 11.052 14.064 11.04 14.1C10.896 14.508 10.8 15 10.8 15.6H13.2C13.2 15.096 13.332 14.676 13.536 14.316C13.56 14.28 13.572 14.244 13.596 14.208C13.692 14.04 13.812 13.884 13.932 13.74C13.944 13.728 13.956 13.704 13.968 13.692C14.088 13.548 14.22 13.416 14.364 13.284C15.516 12.192 17.076 11.304 16.752 9.012C16.464 6.924 14.82 5.16 12.732 4.848Z" fill="#FB8C00"/>
</svg>
