<svg width="211" height="211" viewBox="0 0 211 211" fill="none" xmlns="http://www.w3.org/2000/svg">
<path d="M131.875 87.917C137.091 87.917 142.191 86.3701 146.528 83.472C150.866 80.5739 154.246 76.4547 156.242 71.6353C158.239 66.8159 158.761 61.5127 157.743 56.3965C156.726 51.2803 154.214 46.5807 150.525 42.8921C146.836 39.2035 142.137 36.6915 137.021 35.6738C131.904 34.6561 126.601 35.1784 121.782 37.1747C116.962 39.1709 112.843 42.5515 109.945 46.8888C107.047 51.2262 105.5 56.3255 105.5 61.542C105.5 68.5371 108.279 75.2457 113.225 80.1919C118.171 85.1382 124.88 87.917 131.875 87.917ZM131.875 52.7503C133.614 52.7503 135.314 53.266 136.759 54.232C138.205 55.198 139.332 56.5711 139.997 58.1776C140.663 59.784 140.837 61.5518 140.498 63.2572C140.159 64.9626 139.321 66.5291 138.092 67.7587C136.862 68.9882 135.296 69.8255 133.59 70.1647C131.885 70.504 130.117 70.3299 128.511 69.6644C126.904 68.999 125.531 67.8722 124.565 66.4264C123.599 64.9806 123.083 63.2808 123.083 61.542C123.083 59.2103 124.01 56.9741 125.658 55.3254C127.307 53.6766 129.543 52.7503 131.875 52.7503Z" fill="black" fill-opacity="0.21"/>
<path d="M193.417 0H17.5833C12.9199 0 8.44755 1.85252 5.15004 5.15004C1.85252 8.44755 0 12.9199 0 17.5833V193.417C0 198.08 1.85252 202.552 5.15004 205.85C8.44755 209.147 12.9199 211 17.5833 211H193.417C198.08 211 202.552 209.147 205.85 205.85C209.147 202.552 211 198.08 211 193.417V17.5833C211 12.9199 209.147 8.44755 205.85 5.15004C202.552 1.85252 198.08 0 193.417 0ZM193.417 193.417H17.5833V140.667L61.5417 96.7083L110.687 145.854C113.982 149.129 118.438 150.967 123.083 150.967C127.729 150.967 132.185 149.129 135.48 145.854L149.458 131.875L193.417 175.833V193.417ZM193.417 150.953L161.855 119.391C158.56 116.116 154.104 114.278 149.458 114.278C144.813 114.278 140.357 116.116 137.062 119.391L123.083 133.37L73.9379 84.2242C70.6435 80.9493 66.1869 79.1111 61.5417 79.1111C56.8964 79.1111 52.4399 80.9493 49.1454 84.2242L17.5833 115.786V17.5833H193.417V150.953Z" fill="black" fill-opacity="0.21"/>
</svg>
