<svg width="64" height="64" viewBox="0 0 64 64" fill="none" xmlns="http://www.w3.org/2000/svg">
<circle cx="32" cy="32" r="32" fill="#FB8C00"/>
<path d="M49.3 32.877L23.3 21.2988L26.3589 32.877L23.3 45.9988L49.3 32.877Z" fill="#FB8C00"/>
<path d="M48.6819 32.033L23.6867 20.1144C23.4908 20.021 23.2707 19.9836 23.053 20.0066C22.8353 20.0297 22.6293 20.1123 22.4596 20.2445C22.2976 20.3739 22.1767 20.5439 22.1105 20.7353C22.0443 20.9267 22.0353 21.132 22.0847 21.328L25.4477 32.9973L22.0393 44.6341C21.9929 44.7978 21.9875 44.9696 22.0235 45.1356C22.0594 45.3016 22.1357 45.4573 22.2462 45.5901C22.3567 45.7229 22.4984 45.8291 22.6597 45.9001C22.8211 45.9712 22.9977 46.0052 23.1754 45.9994C23.3533 45.9983 23.5284 45.9575 23.6867 45.8802L48.6819 33.9616C48.868 33.8707 49.0242 33.7326 49.1332 33.5624C49.2423 33.3923 49.3 33.1967 49.3 32.9973C49.3 32.7979 49.2423 32.6023 49.1332 32.4322C49.0242 32.262 48.868 32.1239 48.6819 32.033ZM24.9364 42.868L27.4473 34.0808H37.9453V31.9138H27.4473L24.9364 23.1266L45.6257 32.9973L24.9364 42.868Z" fill="white"/>
</svg>
