<svg width="20" height="18" viewBox="0 0 20 18" fill="none" xmlns="http://www.w3.org/2000/svg">
<path d="M18.8491 8.33052L1.19152 0.0792214C1.05313 0.0145362 0.897678 -0.0113817 0.743888 0.0045884C0.590098 0.0205585 0.444526 0.0777358 0.3247 0.169236C0.210266 0.258869 0.124854 0.376558 0.0780638 0.509072C0.0312738 0.641586 0.0249616 0.783671 0.0598369 0.919354L2.43558 8.99813L0.0277323 17.0544C-0.00499316 17.1677 -0.00881323 17.2866 0.0165794 17.4016C0.041972 17.5165 0.0958688 17.6243 0.173936 17.7162C0.252003 17.8081 0.352062 17.8817 0.466067 17.9309C0.580073 17.9801 0.704844 18.0036 0.830348 17.9996C0.955991 17.9988 1.0797 17.9706 1.19152 17.917L18.8491 9.66574C18.9805 9.60279 19.0909 9.50715 19.1679 9.38936C19.2449 9.27157 19.2857 9.13619 19.2857 8.99813C19.2857 8.86007 19.2449 8.7247 19.1679 8.6069C19.0909 8.48911 18.9805 8.39347 18.8491 8.33052ZM2.0744 15.8317L3.84818 9.74825H11.2643V8.24801H3.84818L2.0744 2.16455L16.69 8.99813L2.0744 15.8317Z" fill="black"/>
</svg>
