<svg width="397" height="801" viewBox="0 0 397 801" fill="none" xmlns="http://www.w3.org/2000/svg">
<g filter="url(#filter0_d_137_627)">
<rect width="389" height="793" transform="translate(4)" fill="white"/>
<path d="M134.527 697.52H129.663L128.767 700H127.231L131.263 688.912H132.943L136.959 700H135.423L134.527 697.52ZM134.111 696.336L132.095 690.704L130.079 696.336H134.111ZM140.172 688.16V700H138.716V688.16H140.172ZM144.11 688.16V700H142.654V688.16H144.11ZM152.313 692.656C152.569 692.155 152.932 691.765 153.401 691.488C153.881 691.211 154.462 691.072 155.145 691.072V692.576H154.761C153.129 692.576 152.313 693.461 152.313 695.232V700H150.857V691.232H152.313V692.656ZM157.578 689.808C157.3 689.808 157.066 689.712 156.874 689.52C156.682 689.328 156.586 689.093 156.586 688.816C156.586 688.539 156.682 688.304 156.874 688.112C157.066 687.92 157.3 687.824 157.578 687.824C157.844 687.824 158.068 687.92 158.25 688.112C158.442 688.304 158.538 688.539 158.538 688.816C158.538 689.093 158.442 689.328 158.25 689.52C158.068 689.712 157.844 689.808 157.578 689.808ZM158.282 691.232V700H156.826V691.232H158.282ZM164.379 691.088C165.137 691.088 165.798 691.253 166.363 691.584C166.939 691.915 167.366 692.331 167.643 692.832V691.232H169.115V700.192C169.115 700.992 168.945 701.701 168.603 702.32C168.262 702.949 167.771 703.44 167.131 703.792C166.502 704.144 165.766 704.32 164.923 704.32C163.771 704.32 162.811 704.048 162.043 703.504C161.275 702.96 160.822 702.219 160.683 701.28H162.123C162.283 701.813 162.614 702.24 163.115 702.56C163.617 702.891 164.219 703.056 164.923 703.056C165.723 703.056 166.374 702.805 166.875 702.304C167.387 701.803 167.643 701.099 167.643 700.192V698.352C167.355 698.864 166.929 699.291 166.363 699.632C165.798 699.973 165.137 700.144 164.379 700.144C163.601 700.144 162.891 699.952 162.251 699.568C161.622 699.184 161.126 698.645 160.763 697.952C160.401 697.259 160.219 696.469 160.219 695.584C160.219 694.688 160.401 693.904 160.763 693.232C161.126 692.549 161.622 692.021 162.251 691.648C162.891 691.275 163.601 691.088 164.379 691.088ZM167.643 695.6C167.643 694.939 167.51 694.363 167.243 693.872C166.977 693.381 166.614 693.008 166.155 692.752C165.707 692.485 165.211 692.352 164.667 692.352C164.123 692.352 163.627 692.48 163.179 692.736C162.731 692.992 162.374 693.365 162.107 693.856C161.841 694.347 161.707 694.923 161.707 695.584C161.707 696.256 161.841 696.843 162.107 697.344C162.374 697.835 162.731 698.213 163.179 698.48C163.627 698.736 164.123 698.864 164.667 698.864C165.211 698.864 165.707 698.736 166.155 698.48C166.614 698.213 166.977 697.835 167.243 697.344C167.51 696.843 167.643 696.261 167.643 695.6ZM175.928 691.072C176.589 691.072 177.186 691.216 177.72 691.504C178.253 691.781 178.669 692.203 178.968 692.768C179.277 693.333 179.432 694.021 179.432 694.832V700H177.992V695.04C177.992 694.165 177.773 693.499 177.336 693.04C176.898 692.571 176.301 692.336 175.544 692.336C174.776 692.336 174.162 692.576 173.704 693.056C173.256 693.536 173.032 694.235 173.032 695.152V700H171.576V688.16H173.032V692.48C173.32 692.032 173.714 691.685 174.216 691.44C174.728 691.195 175.298 691.072 175.928 691.072ZM183.586 692.432V697.6C183.586 698.027 183.677 698.331 183.858 698.512C184.039 698.683 184.354 698.768 184.802 698.768H185.874V700H184.562C183.751 700 183.143 699.813 182.738 699.44C182.333 699.067 182.13 698.453 182.13 697.6V692.432H180.994V691.232H182.13V689.024H183.586V691.232H185.874V692.432H183.586ZM193.36 692.656C193.616 692.155 193.979 691.765 194.448 691.488C194.928 691.211 195.509 691.072 196.192 691.072V692.576H195.808C194.176 692.576 193.36 693.461 193.36 695.232V700H191.904V691.232H193.36V692.656ZM205.873 695.28C205.873 695.557 205.857 695.851 205.825 696.16H198.817C198.87 697.024 199.163 697.701 199.697 698.192C200.241 698.672 200.897 698.912 201.665 698.912C202.294 698.912 202.817 698.768 203.233 698.48C203.659 698.181 203.958 697.787 204.129 697.296H205.697C205.462 698.139 204.993 698.827 204.289 699.36C203.585 699.883 202.71 700.144 201.665 700.144C200.833 700.144 200.086 699.957 199.425 699.584C198.774 699.211 198.262 698.683 197.889 698C197.515 697.307 197.329 696.507 197.329 695.6C197.329 694.693 197.51 693.899 197.873 693.216C198.235 692.533 198.742 692.011 199.393 691.648C200.054 691.275 200.811 691.088 201.665 691.088C202.497 691.088 203.233 691.269 203.873 691.632C204.513 691.995 205.003 692.496 205.345 693.136C205.697 693.765 205.873 694.48 205.873 695.28ZM204.369 694.976C204.369 694.421 204.246 693.947 204.001 693.552C203.755 693.147 203.419 692.843 202.993 692.64C202.577 692.427 202.113 692.32 201.601 692.32C200.865 692.32 200.235 692.555 199.713 693.024C199.201 693.493 198.907 694.144 198.833 694.976H204.369ZM210.899 700.144C210.227 700.144 209.624 700.032 209.091 699.808C208.557 699.573 208.136 699.253 207.827 698.848C207.517 698.432 207.347 697.957 207.315 697.424H208.819C208.861 697.861 209.064 698.219 209.427 698.496C209.8 698.773 210.285 698.912 210.883 698.912C211.437 698.912 211.875 698.789 212.195 698.544C212.515 698.299 212.675 697.989 212.675 697.616C212.675 697.232 212.504 696.949 212.163 696.768C211.821 696.576 211.293 696.389 210.579 696.208C209.928 696.037 209.395 695.867 208.979 695.696C208.573 695.515 208.221 695.253 207.923 694.912C207.635 694.56 207.491 694.101 207.491 693.536C207.491 693.088 207.624 692.677 207.891 692.304C208.157 691.931 208.536 691.637 209.027 691.424C209.517 691.2 210.077 691.088 210.707 691.088C211.677 691.088 212.461 691.333 213.059 691.824C213.656 692.315 213.976 692.987 214.019 693.84H212.563C212.531 693.381 212.344 693.013 212.003 692.736C211.672 692.459 211.224 692.32 210.659 692.32C210.136 692.32 209.72 692.432 209.411 692.656C209.101 692.88 208.947 693.173 208.947 693.536C208.947 693.824 209.037 694.064 209.219 694.256C209.411 694.437 209.645 694.587 209.923 694.704C210.211 694.811 210.605 694.933 211.107 695.072C211.736 695.243 212.248 695.413 212.643 695.584C213.037 695.744 213.373 695.989 213.651 696.32C213.939 696.651 214.088 697.083 214.099 697.616C214.099 698.096 213.965 698.528 213.699 698.912C213.432 699.296 213.053 699.6 212.563 699.824C212.083 700.037 211.528 700.144 210.899 700.144ZM224.154 695.28C224.154 695.557 224.138 695.851 224.106 696.16H217.098C217.151 697.024 217.445 697.701 217.978 698.192C218.522 698.672 219.178 698.912 219.946 698.912C220.575 698.912 221.098 698.768 221.514 698.48C221.941 698.181 222.239 697.787 222.41 697.296H223.978C223.743 698.139 223.274 698.827 222.57 699.36C221.866 699.883 220.991 700.144 219.946 700.144C219.114 700.144 218.367 699.957 217.706 699.584C217.055 699.211 216.543 698.683 216.17 698C215.797 697.307 215.61 696.507 215.61 695.6C215.61 694.693 215.791 693.899 216.154 693.216C216.517 692.533 217.023 692.011 217.674 691.648C218.335 691.275 219.093 691.088 219.946 691.088C220.778 691.088 221.514 691.269 222.154 691.632C222.794 691.995 223.285 692.496 223.626 693.136C223.978 693.765 224.154 694.48 224.154 695.28ZM222.65 694.976C222.65 694.421 222.527 693.947 222.282 693.552C222.037 693.147 221.701 692.843 221.274 692.64C220.858 692.427 220.394 692.32 219.882 692.32C219.146 692.32 218.517 692.555 217.994 693.024C217.482 693.493 217.189 694.144 217.114 694.976H222.65ZM227.532 692.656C227.788 692.155 228.15 691.765 228.62 691.488C229.1 691.211 229.681 691.072 230.364 691.072V692.576H229.98C228.348 692.576 227.532 693.461 227.532 695.232V700H226.076V691.232H227.532V692.656ZM235.309 698.656L238.029 691.232H239.581L236.141 700H234.445L231.005 691.232H232.573L235.309 698.656ZM249.013 695.28C249.013 695.557 248.997 695.851 248.965 696.16H241.957C242.011 697.024 242.304 697.701 242.837 698.192C243.381 698.672 244.037 698.912 244.805 698.912C245.435 698.912 245.957 698.768 246.373 698.48C246.8 698.181 247.099 697.787 247.269 697.296H248.837C248.603 698.139 248.133 698.827 247.429 699.36C246.725 699.883 245.851 700.144 244.805 700.144C243.973 700.144 243.227 699.957 242.565 699.584C241.915 699.211 241.403 698.683 241.029 698C240.656 697.307 240.469 696.507 240.469 695.6C240.469 694.693 240.651 693.899 241.013 693.216C241.376 692.533 241.883 692.011 242.533 691.648C243.195 691.275 243.952 691.088 244.805 691.088C245.637 691.088 246.373 691.269 247.013 691.632C247.653 691.995 248.144 692.496 248.485 693.136C248.837 693.765 249.013 694.48 249.013 695.28ZM247.509 694.976C247.509 694.421 247.387 693.947 247.141 693.552C246.896 693.147 246.56 692.843 246.133 692.64C245.717 692.427 245.253 692.32 244.741 692.32C244.005 692.32 243.376 692.555 242.853 693.024C242.341 693.493 242.048 694.144 241.973 694.976H247.509ZM256.977 692.432V697.6C256.977 698.027 257.067 698.331 257.249 698.512C257.43 698.683 257.745 698.768 258.193 698.768H259.265V700H257.953C257.142 700 256.534 699.813 256.129 699.44C255.723 699.067 255.521 698.453 255.521 697.6V692.432H254.385V691.232H255.521V689.024H256.977V691.232H259.265V692.432H256.977ZM264.853 700.144C264.032 700.144 263.285 699.957 262.613 699.584C261.952 699.211 261.429 698.683 261.045 698C260.672 697.307 260.485 696.507 260.485 695.6C260.485 694.704 260.677 693.915 261.061 693.232C261.456 692.539 261.989 692.011 262.661 691.648C263.333 691.275 264.085 691.088 264.917 691.088C265.749 691.088 266.501 691.275 267.173 691.648C267.845 692.011 268.373 692.533 268.757 693.216C269.152 693.899 269.349 694.693 269.349 695.6C269.349 696.507 269.146 697.307 268.741 698C268.346 698.683 267.808 699.211 267.125 699.584C266.442 699.957 265.685 700.144 264.853 700.144ZM264.853 698.864C265.376 698.864 265.866 698.741 266.325 698.496C266.784 698.251 267.152 697.883 267.429 697.392C267.717 696.901 267.861 696.304 267.861 695.6C267.861 694.896 267.722 694.299 267.445 693.808C267.168 693.317 266.805 692.955 266.357 692.72C265.909 692.475 265.424 692.352 264.901 692.352C264.368 692.352 263.877 692.475 263.429 692.72C262.992 692.955 262.64 693.317 262.373 693.808C262.106 694.299 261.973 694.896 261.973 695.6C261.973 696.315 262.101 696.917 262.357 697.408C262.624 697.899 262.976 698.267 263.413 698.512C263.85 698.747 264.33 698.864 264.853 698.864ZM69.0827 718.368C69.0827 717.259 69.3227 716.272 69.8027 715.408C70.2827 714.533 70.9494 713.856 71.8027 713.376C72.6667 712.885 73.6427 712.64 74.7307 712.64C76.064 712.64 77.2054 712.992 78.1547 713.696C79.104 714.4 79.7387 715.36 80.0587 716.576H77.0507C76.8267 716.107 76.5067 715.749 76.0907 715.504C75.6854 715.259 75.2214 715.136 74.6987 715.136C73.856 715.136 73.1734 715.429 72.6507 716.016C72.128 716.603 71.8667 717.387 71.8667 718.368C71.8667 719.349 72.128 720.133 72.6507 720.72C73.1734 721.307 73.856 721.6 74.6987 721.6C75.2214 721.6 75.6854 721.477 76.0907 721.232C76.5067 720.987 76.8267 720.629 77.0507 720.16H80.0587C79.7387 721.376 79.104 722.336 78.1547 723.04C77.2054 723.733 76.064 724.08 74.7307 724.08C73.6427 724.08 72.6667 723.84 71.8027 723.36C70.9494 722.869 70.2827 722.192 69.8027 721.328C69.3227 720.464 69.0827 719.477 69.0827 718.368ZM90.5502 715.072V724H87.8142V722.784C87.5369 723.179 87.1582 723.499 86.6782 723.744C86.2089 723.979 85.6862 724.096 85.1102 724.096C84.4275 724.096 83.8249 723.947 83.3022 723.648C82.7795 723.339 82.3742 722.896 82.0862 722.32C81.7982 721.744 81.6542 721.067 81.6542 720.288V715.072H84.3742V719.92C84.3742 720.517 84.5289 720.981 84.8382 721.312C85.1475 721.643 85.5635 721.808 86.0862 721.808C86.6195 721.808 87.0409 721.643 87.3502 721.312C87.6595 720.981 87.8142 720.517 87.8142 719.92V715.072H90.5502ZM95.2514 712.16V724H92.5154V712.16H95.2514ZM102.21 721.68V724H100.818C99.8262 724 99.0529 723.76 98.4982 723.28C97.9435 722.789 97.6662 721.995 97.6662 720.896V717.344H96.5782V715.072H97.6662V712.896H100.402V715.072H102.194V717.344H100.402V720.928C100.402 721.195 100.466 721.387 100.594 721.504C100.722 721.621 100.936 721.68 101.234 721.68H102.21ZM112.55 715.072V724H109.814V722.784C109.537 723.179 109.158 723.499 108.678 723.744C108.209 723.979 107.686 724.096 107.11 724.096C106.428 724.096 105.825 723.947 105.302 723.648C104.78 723.339 104.374 722.896 104.086 722.32C103.798 721.744 103.654 721.067 103.654 720.288V715.072H106.374V719.92C106.374 720.517 106.529 720.981 106.838 721.312C107.148 721.643 107.564 721.808 108.086 721.808C108.62 721.808 109.041 721.643 109.35 721.312C109.66 720.981 109.814 720.517 109.814 719.92V715.072H112.55ZM117.251 716.56C117.571 716.069 117.971 715.685 118.451 715.408C118.931 715.12 119.465 714.976 120.051 714.976V717.872H119.299C118.617 717.872 118.105 718.021 117.763 718.32C117.422 718.608 117.251 719.12 117.251 719.856V724H114.515V715.072H117.251V716.56ZM126.335 721.68V724H124.943C123.951 724 123.178 723.76 122.623 723.28C122.069 722.789 121.791 721.995 121.791 720.896V717.344H120.703V715.072H121.791V712.896H124.527V715.072H126.319V717.344H124.527V720.928C124.527 721.195 124.591 721.387 124.719 721.504C124.847 721.621 125.061 721.68 125.359 721.68H126.335ZM127.315 719.52C127.315 718.603 127.486 717.797 127.827 717.104C128.179 716.411 128.654 715.877 129.251 715.504C129.849 715.131 130.515 714.944 131.251 714.944C131.881 714.944 132.43 715.072 132.899 715.328C133.379 715.584 133.747 715.92 134.003 716.336V715.072H136.739V724H134.003V722.736C133.737 723.152 133.363 723.488 132.883 723.744C132.414 724 131.865 724.128 131.235 724.128C130.51 724.128 129.849 723.941 129.251 723.568C128.654 723.184 128.179 722.645 127.827 721.952C127.486 721.248 127.315 720.437 127.315 719.52ZM134.003 719.536C134.003 718.853 133.811 718.315 133.427 717.92C133.054 717.525 132.595 717.328 132.051 717.328C131.507 717.328 131.043 717.525 130.659 717.92C130.286 718.304 130.099 718.837 130.099 719.52C130.099 720.203 130.286 720.747 130.659 721.152C131.043 721.547 131.507 721.744 132.051 721.744C132.595 721.744 133.054 721.547 133.427 721.152C133.811 720.757 134.003 720.219 134.003 719.536ZM141.455 716.336C141.721 715.92 142.089 715.584 142.559 715.328C143.028 715.072 143.577 714.944 144.207 714.944C144.943 714.944 145.609 715.131 146.207 715.504C146.804 715.877 147.273 716.411 147.615 717.104C147.967 717.797 148.143 718.603 148.143 719.52C148.143 720.437 147.967 721.248 147.615 721.952C147.273 722.645 146.804 723.184 146.207 723.568C145.609 723.941 144.943 724.128 144.207 724.128C143.588 724.128 143.039 724 142.559 723.744C142.089 723.488 141.721 723.157 141.455 722.752V728.256H138.719V715.072H141.455V716.336ZM145.359 719.52C145.359 718.837 145.167 718.304 144.783 717.92C144.409 717.525 143.945 717.328 143.391 717.328C142.847 717.328 142.383 717.525 141.999 717.92C141.625 718.315 141.439 718.853 141.439 719.536C141.439 720.219 141.625 720.757 141.999 721.152C142.383 721.547 142.847 721.744 143.391 721.744C143.935 721.744 144.399 721.547 144.783 721.152C145.167 720.747 145.359 720.203 145.359 719.52ZM161.049 712.768V714.96H158.073V724H155.337V714.96H152.361V712.768H161.049ZM166.486 724.128C165.611 724.128 164.822 723.941 164.118 723.568C163.424 723.195 162.875 722.661 162.47 721.968C162.075 721.275 161.878 720.464 161.878 719.536C161.878 718.619 162.08 717.813 162.486 717.12C162.891 716.416 163.446 715.877 164.15 715.504C164.854 715.131 165.643 714.944 166.518 714.944C167.392 714.944 168.182 715.131 168.886 715.504C169.59 715.877 170.144 716.416 170.55 717.12C170.955 717.813 171.158 718.619 171.158 719.536C171.158 720.453 170.95 721.264 170.534 721.968C170.128 722.661 169.568 723.195 168.854 723.568C168.15 723.941 167.36 724.128 166.486 724.128ZM166.486 721.76C167.008 721.76 167.451 721.568 167.814 721.184C168.187 720.8 168.374 720.251 168.374 719.536C168.374 718.821 168.192 718.272 167.83 717.888C167.478 717.504 167.04 717.312 166.518 717.312C165.984 717.312 165.542 717.504 165.19 717.888C164.838 718.261 164.662 718.811 164.662 719.536C164.662 720.251 164.832 720.8 165.174 721.184C165.526 721.568 165.963 721.76 166.486 721.76ZM181.425 715.072V724H178.689V722.784C178.412 723.179 178.033 723.499 177.553 723.744C177.084 723.979 176.561 724.096 175.985 724.096C175.303 724.096 174.7 723.947 174.177 723.648C173.655 723.339 173.249 722.896 172.961 722.32C172.673 721.744 172.529 721.067 172.529 720.288V715.072H175.249V719.92C175.249 720.517 175.404 720.981 175.713 721.312C176.023 721.643 176.439 721.808 176.961 721.808C177.495 721.808 177.916 721.643 178.225 721.312C178.535 720.981 178.689 720.517 178.689 719.92V715.072H181.425ZM186.126 716.56C186.446 716.069 186.846 715.685 187.326 715.408C187.806 715.12 188.34 714.976 188.926 714.976V717.872H188.174C187.492 717.872 186.98 718.021 186.638 718.32C186.297 718.608 186.126 719.12 186.126 719.856V724H183.39V715.072H186.126V716.56ZM191.61 714.144C191.13 714.144 190.736 714.005 190.426 713.728C190.128 713.44 189.978 713.088 189.978 712.672C189.978 712.245 190.128 711.893 190.426 711.616C190.736 711.328 191.13 711.184 191.61 711.184C192.08 711.184 192.464 711.328 192.762 711.616C193.072 711.893 193.226 712.245 193.226 712.672C193.226 713.088 193.072 713.44 192.762 713.728C192.464 714.005 192.08 714.144 191.61 714.144ZM192.97 715.072V724H190.234V715.072H192.97ZM198.585 724.128C197.806 724.128 197.113 723.995 196.505 723.728C195.897 723.461 195.417 723.099 195.065 722.64C194.713 722.171 194.516 721.648 194.473 721.072H197.177C197.209 721.381 197.353 721.632 197.609 721.824C197.865 722.016 198.18 722.112 198.553 722.112C198.894 722.112 199.156 722.048 199.337 721.92C199.529 721.781 199.625 721.605 199.625 721.392C199.625 721.136 199.492 720.949 199.225 720.832C198.958 720.704 198.526 720.565 197.929 720.416C197.289 720.267 196.756 720.112 196.329 719.952C195.902 719.781 195.534 719.52 195.225 719.168C194.916 718.805 194.761 718.32 194.761 717.712C194.761 717.2 194.9 716.736 195.177 716.32C195.465 715.893 195.881 715.557 196.425 715.312C196.98 715.067 197.636 714.944 198.393 714.944C199.513 714.944 200.393 715.221 201.033 715.776C201.684 716.331 202.057 717.067 202.153 717.984H199.625C199.582 717.675 199.444 717.429 199.209 717.248C198.985 717.067 198.686 716.976 198.313 716.976C197.993 716.976 197.748 717.04 197.577 717.168C197.406 717.285 197.321 717.451 197.321 717.664C197.321 717.92 197.454 718.112 197.721 718.24C197.998 718.368 198.425 718.496 199.001 718.624C199.662 718.795 200.201 718.965 200.617 719.136C201.033 719.296 201.396 719.563 201.705 719.936C202.025 720.299 202.19 720.789 202.201 721.408C202.201 721.931 202.052 722.4 201.753 722.816C201.465 723.221 201.044 723.541 200.489 723.776C199.945 724.011 199.31 724.128 198.585 724.128ZM215.267 714.976C216.376 714.976 217.256 715.312 217.907 715.984C218.568 716.656 218.899 717.589 218.899 718.784V724H216.179V719.152C216.179 718.576 216.024 718.133 215.715 717.824C215.416 717.504 215 717.344 214.467 717.344C213.933 717.344 213.512 717.504 213.203 717.824C212.904 718.133 212.755 718.576 212.755 719.152V724H210.035V719.152C210.035 718.576 209.88 718.133 209.571 717.824C209.272 717.504 208.856 717.344 208.323 717.344C207.789 717.344 207.368 717.504 207.059 717.824C206.76 718.133 206.611 718.576 206.611 719.152V724H203.875V715.072H206.611V716.192C206.888 715.819 207.251 715.525 207.699 715.312C208.147 715.088 208.653 714.976 209.219 714.976C209.891 714.976 210.488 715.12 211.011 715.408C211.544 715.696 211.96 716.107 212.259 716.64C212.568 716.149 212.989 715.749 213.523 715.44C214.056 715.131 214.637 714.976 215.267 714.976ZM226.939 712.768V724H224.203V712.768H226.939ZM234.362 714.976C235.407 714.976 236.239 715.317 236.858 716C237.487 716.672 237.802 717.6 237.802 718.784V724H235.082V719.152C235.082 718.555 234.927 718.091 234.618 717.76C234.308 717.429 233.892 717.264 233.37 717.264C232.847 717.264 232.431 717.429 232.122 717.76C231.812 718.091 231.658 718.555 231.658 719.152V724H228.922V715.072H231.658V716.256C231.935 715.861 232.308 715.552 232.778 715.328C233.247 715.093 233.775 714.976 234.362 714.976ZM239.159 719.52C239.159 718.603 239.33 717.797 239.671 717.104C240.023 716.411 240.498 715.877 241.095 715.504C241.692 715.131 242.359 714.944 243.095 714.944C243.682 714.944 244.215 715.067 244.695 715.312C245.186 715.557 245.57 715.888 245.847 716.304V712.16H248.583V724H245.847V722.72C245.591 723.147 245.223 723.488 244.743 723.744C244.274 724 243.724 724.128 243.095 724.128C242.359 724.128 241.692 723.941 241.095 723.568C240.498 723.184 240.023 722.645 239.671 721.952C239.33 721.248 239.159 720.437 239.159 719.52ZM245.847 719.536C245.847 718.853 245.655 718.315 245.271 717.92C244.898 717.525 244.439 717.328 243.895 717.328C243.351 717.328 242.887 717.525 242.503 717.92C242.13 718.304 241.943 718.837 241.943 719.52C241.943 720.203 242.13 720.747 242.503 721.152C242.887 721.547 243.351 721.744 243.895 721.744C244.439 721.744 244.898 721.547 245.271 721.152C245.655 720.757 245.847 720.219 245.847 719.536ZM251.938 714.144C251.458 714.144 251.064 714.005 250.754 713.728C250.456 713.44 250.306 713.088 250.306 712.672C250.306 712.245 250.456 711.893 250.754 711.616C251.064 711.328 251.458 711.184 251.938 711.184C252.408 711.184 252.792 711.328 253.09 711.616C253.4 711.893 253.554 712.245 253.554 712.672C253.554 713.088 253.4 713.44 253.09 713.728C252.792 714.005 252.408 714.144 251.938 714.144ZM253.298 715.072V724H250.562V715.072H253.298ZM254.737 719.52C254.737 718.603 254.908 717.797 255.249 717.104C255.601 716.411 256.076 715.877 256.673 715.504C257.27 715.131 257.937 714.944 258.673 714.944C259.302 714.944 259.852 715.072 260.321 715.328C260.801 715.584 261.169 715.92 261.425 716.336V715.072H264.161V724H261.425V722.736C261.158 723.152 260.785 723.488 260.305 723.744C259.836 724 259.286 724.128 258.657 724.128C257.932 724.128 257.27 723.941 256.673 723.568C256.076 723.184 255.601 722.645 255.249 721.952C254.908 721.248 254.737 720.437 254.737 719.52ZM261.425 719.536C261.425 718.853 261.233 718.315 260.849 717.92C260.476 717.525 260.017 717.328 259.473 717.328C258.929 717.328 258.465 717.525 258.081 717.92C257.708 718.304 257.521 718.837 257.521 719.52C257.521 720.203 257.708 720.747 258.081 721.152C258.465 721.547 258.929 721.744 259.473 721.744C260.017 721.744 260.476 721.547 260.849 721.152C261.233 720.757 261.425 720.219 261.425 719.536ZM278.091 716.384C278.091 717.035 277.942 717.632 277.643 718.176C277.344 718.709 276.886 719.141 276.267 719.472C275.648 719.803 274.88 719.968 273.963 719.968H272.267V724H269.531V712.768H273.963C274.859 712.768 275.616 712.923 276.235 713.232C276.854 713.541 277.318 713.968 277.627 714.512C277.936 715.056 278.091 715.68 278.091 716.384ZM273.755 717.792C274.278 717.792 274.667 717.669 274.923 717.424C275.179 717.179 275.307 716.832 275.307 716.384C275.307 715.936 275.179 715.589 274.923 715.344C274.667 715.099 274.278 714.976 273.755 714.976H272.267V717.792H273.755ZM283.531 721.44L285.467 715.072H288.379L285.211 724H281.835L278.667 715.072H281.595L283.531 721.44ZM294.507 721.68V724H293.115C292.123 724 291.35 723.76 290.795 723.28C290.24 722.789 289.963 721.995 289.963 720.896V717.344H288.875V715.072H289.963V712.896H292.699V715.072H294.491V717.344H292.699V720.928C292.699 721.195 292.763 721.387 292.891 721.504C293.019 721.621 293.232 721.68 293.531 721.68H294.507ZM297.311 724.128C296.831 724.128 296.436 723.989 296.127 723.712C295.828 723.424 295.679 723.072 295.679 722.656C295.679 722.229 295.828 721.872 296.127 721.584C296.436 721.296 296.831 721.152 297.311 721.152C297.78 721.152 298.164 721.296 298.463 721.584C298.772 721.872 298.927 722.229 298.927 722.656C298.927 723.072 298.772 723.424 298.463 723.712C298.164 723.989 297.78 724.128 297.311 724.128ZM306.673 721.888H310.257V724H303.937V712.768H306.673V721.888ZM316.538 721.68V724H315.146C314.154 724 313.381 723.76 312.826 723.28C312.272 722.789 311.994 721.995 311.994 720.896V717.344H310.906V715.072H311.994V712.896H314.73V715.072H316.522V717.344H314.73V720.928C314.73 721.195 314.794 721.387 314.922 721.504C315.05 721.621 315.264 721.68 315.562 721.68H316.538ZM317.518 719.52C317.518 718.603 317.689 717.797 318.03 717.104C318.382 716.411 318.857 715.877 319.454 715.504C320.052 715.131 320.718 714.944 321.454 714.944C322.041 714.944 322.574 715.067 323.054 715.312C323.545 715.557 323.929 715.888 324.206 716.304V712.16H326.942V724H324.206V722.72C323.95 723.147 323.582 723.488 323.102 723.744C322.633 724 322.084 724.128 321.454 724.128C320.718 724.128 320.052 723.941 319.454 723.568C318.857 723.184 318.382 722.645 318.03 721.952C317.689 721.248 317.518 720.437 317.518 719.52ZM324.206 719.536C324.206 718.853 324.014 718.315 323.63 717.92C323.257 717.525 322.798 717.328 322.254 717.328C321.71 717.328 321.246 717.525 320.862 717.92C320.489 718.304 320.302 718.837 320.302 719.52C320.302 720.203 320.489 720.747 320.862 721.152C321.246 721.547 321.71 721.744 322.254 721.744C322.798 721.744 323.257 721.547 323.63 721.152C324.014 720.757 324.206 720.219 324.206 719.536ZM330.202 724.128C329.722 724.128 329.327 723.989 329.018 723.712C328.719 723.424 328.57 723.072 328.57 722.656C328.57 722.229 328.719 721.872 329.018 721.584C329.327 721.296 329.722 721.152 330.202 721.152C330.671 721.152 331.055 721.296 331.354 721.584C331.663 721.872 331.818 722.229 331.818 722.656C331.818 723.072 331.663 723.424 331.354 723.712C331.055 723.989 330.671 724.128 330.202 724.128Z" fill="#2E2C43"/>
<path d="M232.982 312.158L235.908 321.263L231.745 339.601L212.724 360.431C232.171 361.607 251.458 356.297 267.561 345.331C267.561 345.331 274.903 297.606 230.849 297.606C219.13 305.418 209.093 310.818 197.808 310.796H198.267C186.982 310.818 176.945 305.418 165.226 297.606C121.172 297.606 128.514 345.331 128.514 345.331C165.145 367.436 181.262 358.944 231.745 339.601L234.01 326.674L145.651 331.63L165.145 328.297" fill="#FB8C00"/>
<path d="M267.506 345.335C267.506 345.335 274.848 297.609 230.794 297.609C219.075 305.422 209.035 310.818 197.753 310.796H198.212C186.927 310.818 176.889 305.422 165.171 297.609C121.116 297.609 128.459 345.335 128.459 345.335" fill="#FB8C00"/>
<path d="M231.829 297.609C222.291 304.896 210.949 309.45 199.02 310.782C246.973 312.298 246.973 330.654 249.77 345.339H268.541C268.541 345.339 275.884 297.609 231.829 297.609Z" fill="#FFC882"/>
<path d="M268.541 345.335C268.541 345.335 225.382 378.471 192.411 356.213L231.744 339.6L235.908 321.263C235.908 321.263 268.86 312.217 268.541 345.335Z" fill="#FFC882"/>
<path d="M198.039 289.066C221.03 289.066 239.667 265.771 239.667 237.034C239.667 208.298 221.03 185.002 198.039 185.002C175.049 185.002 156.412 208.298 156.412 237.034C156.412 265.771 175.049 289.066 198.039 289.066Z" fill="#FB8C00"/>
<path d="M246.393 180.402C198.039 195.517 156.411 230.033 156.411 230.033C156.411 230.033 141.873 210.429 148.199 190.652C148.199 190.652 156.411 161 196.057 161C224.336 161 238.628 172.638 246.393 180.402C268.96 212.434 238.555 230.345 238.555 230.345C226.231 220.744 214.4 210.525 203.109 199.728" fill="white"/>
<path d="M246.393 180.402C268.956 212.434 238.555 230.345 238.555 230.345C226.231 220.744 214.401 210.525 203.109 199.728" fill="#D0CFCE"/>
<path d="M198.039 221.123C196.092 221.123 194.224 220.35 192.847 218.973C191.47 217.596 190.697 215.728 190.697 213.781V199.096C190.697 197.149 191.47 195.281 192.847 193.904C194.224 192.527 196.092 191.754 198.039 191.754C199.987 191.754 201.854 192.527 203.231 193.904C204.608 195.281 205.382 197.149 205.382 199.096V213.781C205.382 215.728 204.608 217.596 203.231 218.973C201.854 220.35 199.987 221.123 198.039 221.123ZM231.745 339.601L215.547 346.323V327.067H234.01L231.745 339.601Z" fill="#FCEA2B"/>
<path d="M212.724 360.431C232.168 361.609 251.454 356.301 267.557 345.339C267.557 345.339 274.899 297.613 230.845 297.613C219.127 305.425 209.089 310.822 197.804 310.8H198.263C186.978 310.822 176.941 305.425 165.222 297.613C121.168 297.613 128.51 345.339 128.51 345.339C165.141 367.439 181.258 358.951 231.741 339.604L234.006 326.682L145.647 331.638" stroke="black" stroke-width="2" stroke-linecap="round" stroke-linejoin="round"/>
<path d="M232.982 312.158L235.908 321.263L231.745 339.601" stroke="black" stroke-width="2" stroke-linecap="round" stroke-linejoin="round"/>
<path d="M220.067 232.038C220.067 233.49 219.636 234.91 218.829 236.117C218.022 237.325 216.876 238.266 215.534 238.821C214.192 239.377 212.716 239.522 211.292 239.239C209.868 238.956 208.559 238.257 207.532 237.23C206.506 236.203 205.806 234.895 205.523 233.47C205.24 232.046 205.385 230.57 205.941 229.228C206.497 227.886 207.438 226.74 208.645 225.933C209.853 225.126 211.272 224.695 212.724 224.695C214.672 224.695 216.539 225.469 217.916 226.846C219.293 228.223 220.067 230.091 220.067 232.038ZM190.697 232.038C190.697 233.49 190.266 234.91 189.46 236.117C188.653 237.325 187.506 238.266 186.164 238.821C184.823 239.377 183.346 239.522 181.922 239.239C180.498 238.956 179.19 238.257 178.163 237.23C177.136 236.203 176.437 234.895 176.153 233.47C175.87 232.046 176.015 230.57 176.571 229.228C177.127 227.886 178.068 226.74 179.275 225.933C180.483 225.126 181.902 224.695 183.355 224.695C185.302 224.695 187.17 225.469 188.546 226.846C189.923 228.223 190.697 230.091 190.697 232.038ZM198.039 268.757C193.631 268.715 189.295 267.636 185.381 265.607C184.51 265.172 183.848 264.408 183.54 263.484C183.232 262.56 183.304 261.552 183.74 260.681C184.176 259.81 184.94 259.147 185.864 258.84C186.788 258.532 187.796 258.604 188.667 259.04C191.546 260.593 194.766 261.406 198.038 261.406C201.309 261.406 204.529 260.593 207.408 259.04C208.28 258.604 209.289 258.532 210.213 258.84C211.137 259.148 211.901 259.811 212.337 260.682C212.773 261.554 212.844 262.563 212.536 263.487C212.228 264.411 211.566 265.175 210.694 265.611C206.781 267.638 202.446 268.715 198.039 268.757Z" fill="black"/>
<path d="M190.704 206.266C186.005 209.093 181.636 211.883 177.745 214.489C166.254 222.162 158.618 228.256 156.819 229.688C156.562 229.909 156.415 230.019 156.415 230.019C156.415 230.019 141.877 210.414 148.192 190.663C148.192 190.663 156.415 161 196.064 161C224.332 161 238.613 172.638 246.396 180.421C266.882 209.46 243.753 226.861 239.274 229.872C238.797 230.202 238.54 230.349 238.54 230.349C238.54 230.349 222.35 217.94 205.389 201.897" stroke="black" stroke-width="2" stroke-linecap="round" stroke-linejoin="round"/>
<path d="M205.279 197.969C218.418 190.873 232.182 184.999 246.396 180.421" stroke="black" stroke-width="2" stroke-linecap="round" stroke-linejoin="round"/>
<path d="M215.547 328.143V345.574M156.698 230.357C156.465 232.603 156.349 234.86 156.349 237.119C156.349 265.857 174.988 289.151 197.977 289.151C220.966 289.151 239.601 265.857 239.601 237.119C239.603 234.789 239.48 232.46 239.234 230.144M198.039 221.123C196.092 221.123 194.224 220.35 192.847 218.973C191.47 217.596 190.697 215.728 190.697 213.781V199.096C190.697 197.149 191.47 195.281 192.847 193.904C194.224 192.527 196.092 191.754 198.039 191.754C199.987 191.754 201.854 192.527 203.231 193.904C204.608 195.281 205.382 197.149 205.382 199.096V213.781C205.382 215.728 204.608 217.596 203.231 218.973C201.854 220.35 199.987 221.123 198.039 221.123Z" stroke="black" stroke-width="2" stroke-linecap="round" stroke-linejoin="round"/>
<rect x="96" y="397" width="190" height="100" rx="7.86885" fill="#FB8C00"/>
<path d="M119.784 461.833C120.388 458.341 121.664 455.236 123.611 452.516C125.592 449.763 128.026 447.631 130.914 446.12C133.801 444.576 136.873 443.804 140.13 443.804C143.923 443.804 147.029 444.76 149.446 446.674C151.897 448.554 153.475 451.173 154.18 454.53H151.561C150.991 451.878 149.665 449.763 147.583 448.185C145.535 446.607 142.933 445.818 139.777 445.818C136.99 445.818 134.355 446.473 131.87 447.782C129.386 449.092 127.271 450.955 125.525 453.372C123.813 455.789 122.671 458.61 122.1 461.833C121.899 463.041 121.798 464.216 121.798 465.358C121.798 467.91 122.319 470.125 123.359 472.006C124.4 473.852 125.844 475.279 127.69 476.286C129.571 477.293 131.719 477.797 134.137 477.797C136.823 477.797 139.357 477.193 141.741 475.984C144.158 474.775 146.206 473.063 147.885 470.847C149.597 468.598 150.789 465.962 151.461 462.941H135.698L136.05 461.077H154.13L153.828 462.588C153.156 465.878 151.847 468.833 149.9 471.452C147.986 474.037 145.619 476.085 142.799 477.596C139.978 479.073 136.974 479.812 133.784 479.812C130.93 479.812 128.412 479.224 126.23 478.049C124.081 476.874 122.403 475.212 121.194 473.063C120.019 470.881 119.431 468.38 119.431 465.559C119.431 464.284 119.549 463.041 119.784 461.833ZM174.481 451.761C176.798 451.761 178.762 452.214 180.373 453.12C182.018 453.993 183.244 455.185 184.05 456.696C184.889 458.173 185.309 459.835 185.309 461.682C185.309 462.487 185.241 463.226 185.107 463.898C184.906 465.106 184.704 466.013 184.503 466.617H160.884C160.749 467.691 160.682 468.464 160.682 468.934C160.682 471.821 161.555 474.037 163.301 475.581C165.047 477.126 167.246 477.898 169.898 477.898C172.551 477.898 174.901 477.243 176.949 475.934C179.03 474.591 180.508 472.778 181.38 470.495H183.747C182.673 473.281 180.877 475.548 178.359 477.293C175.874 479.006 172.937 479.862 169.546 479.862C166.188 479.862 163.486 478.888 161.438 476.941C159.423 474.994 158.416 472.341 158.416 468.984C158.416 467.943 158.517 466.869 158.718 465.761C159.222 462.907 160.229 460.423 161.74 458.308C163.251 456.192 165.097 454.581 167.279 453.473C169.495 452.331 171.896 451.761 174.481 451.761ZM182.69 464.854C182.925 463.881 183.042 462.89 183.042 461.883C183.042 459.231 182.186 457.2 180.474 455.789C178.795 454.379 176.663 453.674 174.078 453.674C172.164 453.674 170.318 454.094 168.538 454.933C166.759 455.773 165.215 457.032 163.905 458.71C162.596 460.389 161.689 462.437 161.186 464.854H182.69ZM206.46 451.559C209.247 451.559 211.479 452.315 213.158 453.825C214.837 455.303 215.676 457.502 215.676 460.423C215.676 461.329 215.575 462.336 215.374 463.444L212.554 479.459H210.338L213.158 463.595C213.326 462.521 213.41 461.631 213.41 460.926C213.41 458.509 212.738 456.679 211.395 455.437C210.052 454.161 208.172 453.523 205.755 453.523C202.935 453.523 200.501 454.396 198.453 456.142C196.405 457.888 194.995 460.456 194.222 463.847L191.453 479.459H189.186L194.071 452.113H196.338L195.33 457.854C196.472 455.806 198.016 454.245 199.964 453.171C201.944 452.096 204.11 451.559 206.46 451.559ZM227.614 446.02C227.144 446.02 226.758 445.885 226.456 445.617C226.153 445.314 226.002 444.928 226.002 444.458C226.002 443.787 226.237 443.233 226.707 442.796C227.177 442.326 227.715 442.091 228.319 442.091C228.789 442.091 229.175 442.242 229.477 442.545C229.813 442.847 229.981 443.233 229.981 443.703C229.981 444.374 229.729 444.928 229.225 445.365C228.755 445.801 228.218 446.02 227.614 446.02ZM227.715 452.113L222.83 479.459H220.563L225.448 452.113H227.715ZM247.907 451.761C250.224 451.761 252.188 452.214 253.799 453.12C255.445 453.993 256.67 455.185 257.476 456.696C258.315 458.173 258.735 459.835 258.735 461.682C258.735 462.487 258.668 463.226 258.533 463.898C258.332 465.106 258.13 466.013 257.929 466.617H234.31C234.176 467.691 234.108 468.464 234.108 468.934C234.108 471.821 234.981 474.037 236.727 475.581C238.473 477.126 240.672 477.898 243.324 477.898C245.977 477.898 248.327 477.243 250.375 475.934C252.457 474.591 253.934 472.778 254.807 470.495H257.174C256.099 473.281 254.303 475.548 251.785 477.293C249.301 479.006 246.363 479.862 242.972 479.862C239.615 479.862 236.912 478.888 234.864 476.941C232.849 474.994 231.842 472.341 231.842 468.984C231.842 467.943 231.943 466.869 232.144 465.761C232.648 462.907 233.655 460.423 235.166 458.308C236.677 456.192 238.523 454.581 240.706 453.473C242.922 452.331 245.322 451.761 247.907 451.761ZM256.116 464.854C256.351 463.881 256.469 462.89 256.469 461.883C256.469 459.231 255.612 457.2 253.9 455.789C252.221 454.379 250.09 453.674 247.504 453.674C245.591 453.674 243.744 454.094 241.965 454.933C240.185 455.773 238.641 457.032 237.332 458.71C236.022 460.389 235.116 462.437 234.612 464.854H256.116Z" fill="white"/>
<path fill-rule="evenodd" clip-rule="evenodd" d="M129.07 414.057C128.031 414.151 127.583 414.296 125.803 415.116C124.712 415.619 122.564 417.563 122.564 418.048C122.564 418.245 122.444 418.407 122.298 418.407C122.152 418.407 122.033 418.633 122.033 418.909C122.033 419.186 121.926 419.412 121.795 419.412C121.527 419.412 121.209 421.037 121.181 422.55C121.157 423.884 121.514 425.688 121.802 425.688C121.929 425.688 122.033 425.914 122.033 426.19C122.033 426.466 122.152 426.692 122.298 426.692C122.444 426.692 122.564 426.835 122.564 427.009C122.564 427.444 124.663 429.454 125.117 429.454C125.32 429.454 125.485 429.559 125.485 429.687C125.485 429.815 126.155 430.157 126.974 430.447C129.283 431.264 134.892 431.093 135.962 430.173C136.1 430.054 136.378 429.956 136.578 429.956C137.062 429.956 137.701 429.333 137.701 428.86C137.701 428.341 134.758 422.926 134.476 422.926C134.351 422.926 134.249 423.039 134.249 423.178C134.249 423.325 133.329 423.429 132.02 423.429C129.687 423.429 129.469 423.321 129.469 422.173C129.469 421.55 130.673 421.322 132.816 421.539C134.586 421.718 135.311 421.439 135.311 420.58C135.311 420.375 135.4 420.169 135.51 420.123C135.826 419.99 137.701 416.393 137.701 415.919C137.701 415.497 136.076 414.641 135.275 414.641C135.061 414.641 134.772 414.542 134.634 414.42C134.339 414.161 130.613 413.918 129.07 414.057ZM158.045 414.536C157.759 415.243 157.863 429.953 158.159 430.475C158.408 430.915 158.743 430.96 161.744 430.96H165.054V422.55V414.139H161.63C158.753 414.139 158.181 414.203 158.045 414.536ZM174.45 414.719C174.14 415.022 173.551 415.495 173.141 415.771C172.73 416.047 172.147 416.502 171.845 416.782C171.542 417.062 170.875 417.535 170.361 417.833C169.847 418.132 169.139 418.665 168.788 419.019C168.436 419.373 168.049 419.663 167.927 419.663C167.586 419.663 166.116 421.061 166.116 421.384C166.116 421.557 166.593 421.671 167.311 421.671H168.506V424.035C168.506 426.559 169.06 428.362 170.087 429.181C170.361 429.4 170.805 429.751 171.073 429.96C172.477 431.056 175.883 431.252 177.868 430.351L178.863 429.899V427.432C178.863 426.058 178.746 424.896 178.598 424.809C178.452 424.724 178.332 424.761 178.332 424.891C178.332 425.187 177.121 425.419 176.447 425.252C176.013 425.145 175.942 424.886 175.942 423.399V421.671H177.084C177.712 421.671 178.37 421.536 178.545 421.37C178.723 421.201 178.863 420.393 178.863 419.537C178.863 418.681 178.723 417.873 178.545 417.704C178.37 417.539 177.712 417.403 177.084 417.403H175.942V415.771C175.942 414.379 175.874 414.141 175.478 414.155C175.222 414.163 174.759 414.417 174.45 414.719ZM213.918 417.894V421.649L215.843 421.723L217.769 421.797L217.815 425.939C217.841 428.218 217.871 430.283 217.881 430.528C217.9 430.937 218.215 430.969 221.686 430.904L225.47 430.835L225.542 426.253L225.615 421.671H227.601H229.586V417.905V414.139H221.752H213.918V417.894ZM139.19 417.8C138.865 418.6 139.014 427.678 139.361 428.249C139.882 429.105 141.214 430.302 142.029 430.647C143.697 431.351 146.323 430.865 147.593 429.617C148.287 428.935 148.324 428.926 148.324 429.444C148.324 429.744 148.447 430.208 148.598 430.475C148.847 430.913 149.181 430.96 152.041 430.96C154.902 430.96 155.236 430.913 155.485 430.475C155.652 430.179 155.759 427.666 155.759 424.055C155.759 419.246 155.687 418.052 155.38 417.762C155.093 417.491 154.22 417.403 151.8 417.403C147.99 417.403 148.347 416.909 148.255 422.299L148.191 426.065L147.289 426.146C146.747 426.195 146.299 426.095 146.165 425.895C146.042 425.712 145.94 423.862 145.938 421.784C145.935 419.185 145.834 417.912 145.615 417.704C145.405 417.506 144.281 417.403 142.324 417.403C139.858 417.403 139.324 417.471 139.19 417.8ZM180.484 417.748C180.126 418.157 180.21 426.779 180.585 428.051C181.477 431.073 186.52 431.984 189.061 429.582C189.428 429.235 189.793 428.952 189.872 428.952C189.952 428.952 190.017 429.404 190.017 429.956V430.96H193.049C194.717 430.96 196.271 430.892 196.502 430.808C196.869 430.675 196.922 429.867 196.922 424.331C196.922 419.746 196.834 417.923 196.603 417.704C196.164 417.289 190.244 417.289 189.805 417.704C189.583 417.914 189.486 419.25 189.486 422.098V426.19H188.67C187.226 426.19 187.117 425.878 187.036 421.507L186.963 417.529L183.882 417.458C181.461 417.403 180.733 417.465 180.484 417.748ZM199.639 417.613C199.379 417.769 199.319 419.284 199.374 424.325L199.445 430.835H202.897H206.349L206.517 427.446C206.609 425.581 206.772 423.802 206.88 423.491C207.122 422.791 207.832 422.761 208.341 423.429C208.648 423.831 209.029 423.931 210.259 423.931C211.105 423.931 211.793 423.818 211.793 423.68C211.793 423.542 211.929 423.429 212.094 423.429C212.596 423.429 213.365 422.411 213.543 421.513C213.893 419.753 213.315 418.624 211.598 417.717C210.348 417.057 208.345 417.559 207.321 418.791C206.769 419.453 206.482 419.368 206.482 418.541C206.482 417.556 206 417.403 202.91 417.407C201.296 417.409 199.824 417.502 199.639 417.613ZM234.499 417.654C234.207 417.773 233.669 417.879 233.304 417.89C232.939 417.901 232.102 418.165 231.445 418.475L230.25 419.04L230.173 420.983C230.13 422.052 230.19 422.925 230.305 422.923C230.421 422.921 230.994 422.756 231.578 422.557C233.163 422.017 235.768 422.059 236.317 422.632C236.559 422.885 236.756 423.167 236.756 423.26C236.756 423.353 235.989 423.429 235.052 423.429C233.076 423.429 231.225 424.07 230.607 424.968C230.382 425.295 230.054 425.979 229.877 426.488C229.416 427.818 230.269 429.662 231.696 430.42C232.87 431.044 234.934 431.132 235.946 430.602C236.498 430.313 236.685 430.316 237.174 430.619C237.611 430.89 238.522 430.96 240.906 430.906L244.059 430.835L244.132 426.325C244.214 421.231 244.024 420.4 242.462 419.047C241.966 418.618 240.893 418.072 240.077 417.835C238.526 417.383 235.414 417.283 234.499 417.654ZM246.635 417.704C246.401 417.926 246.317 420.082 246.317 425.843C246.317 430.154 246.389 433.86 246.478 434.078C246.613 434.412 247.186 434.475 250.063 434.475H253.487V432.44C253.487 430.597 253.531 430.422 253.952 430.594C254.207 430.698 255.133 430.833 256.01 430.894C258.707 431.081 261.361 429.559 262.403 427.227C263.143 425.571 262.845 421.172 261.916 420.039C261.051 418.986 260.623 418.649 259.405 418.066C257.741 417.27 256.263 417.215 254.774 417.895C253.705 418.384 253.696 418.384 253.561 417.895C253.435 417.44 253.179 417.403 250.189 417.403C248.027 417.403 246.848 417.503 246.635 417.704ZM255.498 423.285C255.706 423.482 255.877 424.104 255.877 424.666V425.688H254.682H253.487V424.673C253.487 423.131 254.555 422.393 255.498 423.285ZM236.705 426.881C236.787 427.945 236.784 427.948 235.871 427.948C235.104 427.948 234.927 427.841 234.78 427.29C234.572 426.503 235.279 425.678 236.093 425.76C236.516 425.803 236.64 426.029 236.705 426.881Z" fill="white"/>
<rect x="97.5" y="494.5" width="187" height="35" fill="white" stroke="#FB8C00" stroke-width="3"/>
<path d="M147.898 506.44C147.692 507.597 147.207 508.559 146.442 509.324C145.695 510.071 144.78 510.612 143.698 510.948C144.612 511.097 145.359 511.545 145.938 512.292C146.516 513.02 146.806 513.888 146.806 514.896C146.806 515.195 146.778 515.484 146.722 515.764C146.554 516.753 146.143 517.649 145.49 518.452C144.855 519.236 144.015 519.861 142.97 520.328C141.924 520.776 140.748 521 139.442 521H132.162L135.634 501.484H142.634C144.388 501.484 145.714 501.857 146.61 502.604C147.524 503.351 147.982 504.321 147.982 505.516C147.982 505.815 147.954 506.123 147.898 506.44ZM145.266 506.748C145.303 506.58 145.322 506.347 145.322 506.048C145.322 505.245 145.042 504.62 144.482 504.172C143.922 503.724 143.11 503.5 142.046 503.5H137.818L136.67 509.968H140.954C142.13 509.968 143.1 509.688 143.866 509.128C144.631 508.549 145.098 507.756 145.266 506.748ZM144.202 515.512C144.258 515.251 144.286 515.008 144.286 514.784C144.286 513.925 143.968 513.244 143.334 512.74C142.699 512.236 141.831 511.984 140.73 511.984H136.306L135.074 518.984H139.582C140.832 518.984 141.868 518.676 142.69 518.06C143.511 517.444 144.015 516.595 144.202 515.512ZM165.657 505.656L162.941 521H160.393L160.785 518.76C160.169 519.544 159.385 520.151 158.433 520.58C157.481 521.009 156.492 521.224 155.465 521.224C153.86 521.224 152.572 520.795 151.601 519.936C150.649 519.059 150.173 517.808 150.173 516.184C150.173 515.773 150.22 515.26 150.313 514.644L151.909 505.656H154.429L152.917 514.308C152.843 514.7 152.805 515.111 152.805 515.54C152.805 516.679 153.113 517.547 153.729 518.144C154.364 518.723 155.241 519.012 156.361 519.012C157.705 519.012 158.844 518.592 159.777 517.752C160.729 516.912 161.336 515.689 161.597 514.084V514.168L163.109 505.656H165.657ZM172.648 521.252C171.042 521.252 169.726 520.869 168.7 520.104C167.673 519.339 167.16 518.312 167.16 517.024C167.16 516.781 167.169 516.604 167.188 516.492H169.68C169.605 517.295 169.838 517.948 170.38 518.452C170.94 518.956 171.742 519.208 172.788 519.208C173.833 519.208 174.673 519.012 175.308 518.62C175.961 518.209 176.288 517.64 176.288 516.912C176.288 516.296 176.026 515.811 175.504 515.456C174.981 515.101 174.178 514.719 173.096 514.308C172.144 513.953 171.36 513.617 170.744 513.3C170.128 512.983 169.605 512.544 169.176 511.984C168.746 511.405 168.532 510.677 168.532 509.8C168.532 508.941 168.774 508.176 169.26 507.504C169.764 506.832 170.454 506.319 171.332 505.964C172.228 505.591 173.245 505.404 174.384 505.404C175.952 505.404 177.24 505.796 178.248 506.58C179.256 507.364 179.76 508.391 179.76 509.66C179.76 509.903 179.75 510.089 179.732 510.22H177.296L177.324 509.884C177.324 509.137 177.034 508.549 176.456 508.12C175.896 507.672 175.149 507.448 174.216 507.448C173.301 507.448 172.545 507.653 171.948 508.064C171.369 508.475 171.08 509.025 171.08 509.716C171.08 510.369 171.35 510.883 171.892 511.256C172.433 511.629 173.273 512.04 174.412 512.488C175.364 512.861 176.129 513.207 176.708 513.524C177.286 513.823 177.781 514.243 178.192 514.784C178.602 515.325 178.808 516.007 178.808 516.828C178.808 517.724 178.537 518.508 177.996 519.18C177.473 519.852 176.745 520.365 175.812 520.72C174.878 521.075 173.824 521.252 172.648 521.252ZM186.325 503.164C185.914 503.164 185.569 503.033 185.289 502.772C185.027 502.492 184.897 502.147 184.897 501.736C184.897 501.176 185.102 500.7 185.513 500.308C185.923 499.897 186.399 499.692 186.941 499.692C187.37 499.692 187.715 499.823 187.977 500.084C188.238 500.345 188.369 500.691 188.369 501.12C188.369 501.68 188.163 502.165 187.753 502.576C187.342 502.968 186.866 503.164 186.325 503.164ZM187.137 505.656L184.421 521H181.873L184.589 505.656H187.137ZM199.011 505.376C200.598 505.376 201.867 505.805 202.819 506.664C203.771 507.504 204.247 508.736 204.247 510.36C204.247 510.957 204.2 511.489 204.107 511.956L202.511 521H199.991L201.531 512.32C201.606 511.928 201.643 511.517 201.643 511.088C201.643 509.949 201.326 509.081 200.691 508.484C200.075 507.887 199.207 507.588 198.087 507.588C196.743 507.588 195.595 508.008 194.643 508.848C193.71 509.688 193.103 510.911 192.823 512.516V512.46L191.311 521H188.763L191.479 505.656H194.027L193.635 507.868C194.27 507.065 195.063 506.449 196.015 506.02C196.967 505.591 197.966 505.376 199.011 505.376ZM216.053 505.404C217.341 505.404 218.452 505.656 219.385 506.16C220.337 506.645 221.056 507.336 221.541 508.232C222.045 509.109 222.297 510.117 222.297 511.256C222.297 511.648 222.251 512.124 222.157 512.684C222.083 513.169 221.961 513.673 221.793 514.196H209.529C209.492 514.569 209.473 514.84 209.473 515.008C209.473 516.296 209.856 517.304 210.621 518.032C211.405 518.741 212.423 519.096 213.673 519.096C214.775 519.096 215.736 518.844 216.557 518.34C217.397 517.817 218.032 517.127 218.461 516.268H221.205C220.533 517.743 219.497 518.947 218.097 519.88C216.716 520.795 215.111 521.252 213.281 521.252C211.359 521.252 209.809 520.701 208.633 519.6C207.476 518.48 206.897 516.959 206.897 515.036C206.897 514.495 206.953 513.916 207.065 513.3C207.345 511.713 207.915 510.323 208.773 509.128C209.632 507.933 210.687 507.019 211.937 506.384C213.207 505.731 214.579 505.404 216.053 505.404ZM219.581 512.348C219.637 511.975 219.665 511.629 219.665 511.312C219.665 510.117 219.283 509.193 218.517 508.54C217.771 507.887 216.791 507.56 215.577 507.56C214.271 507.56 213.085 507.989 212.021 508.848C210.957 509.688 210.239 510.855 209.865 512.348H219.581ZM229.441 521.252C227.835 521.252 226.519 520.869 225.493 520.104C224.466 519.339 223.953 518.312 223.953 517.024C223.953 516.781 223.962 516.604 223.981 516.492H226.473C226.398 517.295 226.631 517.948 227.173 518.452C227.733 518.956 228.535 519.208 229.581 519.208C230.626 519.208 231.466 519.012 232.101 518.62C232.754 518.209 233.081 517.64 233.081 516.912C233.081 516.296 232.819 515.811 232.297 515.456C231.774 515.101 230.971 514.719 229.889 514.308C228.937 513.953 228.153 513.617 227.537 513.3C226.921 512.983 226.398 512.544 225.969 511.984C225.539 511.405 225.325 510.677 225.325 509.8C225.325 508.941 225.567 508.176 226.053 507.504C226.557 506.832 227.247 506.319 228.125 505.964C229.021 505.591 230.038 505.404 231.177 505.404C232.745 505.404 234.033 505.796 235.041 506.58C236.049 507.364 236.553 508.391 236.553 509.66C236.553 509.903 236.543 510.089 236.525 510.22H234.089L234.117 509.884C234.117 509.137 233.827 508.549 233.249 508.12C232.689 507.672 231.942 507.448 231.009 507.448C230.094 507.448 229.338 507.653 228.741 508.064C228.162 508.475 227.873 509.025 227.873 509.716C227.873 510.369 228.143 510.883 228.685 511.256C229.226 511.629 230.066 512.04 231.205 512.488C232.157 512.861 232.922 513.207 233.501 513.524C234.079 513.823 234.574 514.243 234.985 514.784C235.395 515.325 235.601 516.007 235.601 516.828C235.601 517.724 235.33 518.508 234.789 519.18C234.266 519.852 233.538 520.365 232.605 520.72C231.671 521.075 230.617 521.252 229.441 521.252ZM244.07 521.252C242.464 521.252 241.148 520.869 240.122 520.104C239.095 519.339 238.582 518.312 238.582 517.024C238.582 516.781 238.591 516.604 238.61 516.492H241.102C241.027 517.295 241.26 517.948 241.802 518.452C242.362 518.956 243.164 519.208 244.21 519.208C245.255 519.208 246.095 519.012 246.73 518.62C247.383 518.209 247.71 517.64 247.71 516.912C247.71 516.296 247.448 515.811 246.926 515.456C246.403 515.101 245.6 514.719 244.518 514.308C243.566 513.953 242.782 513.617 242.166 513.3C241.55 512.983 241.027 512.544 240.598 511.984C240.168 511.405 239.954 510.677 239.954 509.8C239.954 508.941 240.196 508.176 240.682 507.504C241.186 506.832 241.876 506.319 242.754 505.964C243.65 505.591 244.667 505.404 245.806 505.404C247.374 505.404 248.662 505.796 249.67 506.58C250.678 507.364 251.182 508.391 251.182 509.66C251.182 509.903 251.172 510.089 251.154 510.22H248.718L248.746 509.884C248.746 509.137 248.456 508.549 247.878 508.12C247.318 507.672 246.571 507.448 245.638 507.448C244.723 507.448 243.967 507.653 243.37 508.064C242.791 508.475 242.502 509.025 242.502 509.716C242.502 510.369 242.772 510.883 243.314 511.256C243.855 511.629 244.695 512.04 245.834 512.488C246.786 512.861 247.551 513.207 248.13 513.524C248.708 513.823 249.203 514.243 249.614 514.784C250.024 515.325 250.23 516.007 250.23 516.828C250.23 517.724 249.959 518.508 249.418 519.18C248.895 519.852 248.167 520.365 247.234 520.72C246.3 521.075 245.246 521.252 244.07 521.252Z" fill="#FB8C00"/>
</g>
<defs>
<filter id="filter0_d_137_627" x="0" y="0" width="397" height="801" filterUnits="userSpaceOnUse" color-interpolation-filters="sRGB">
<feFlood flood-opacity="0" result="BackgroundImageFix"/>
<feColorMatrix in="SourceAlpha" type="matrix" values="0 0 0 0 0 0 0 0 0 0 0 0 0 0 0 0 0 0 127 0" result="hardAlpha"/>
<feOffset dy="4"/>
<feGaussianBlur stdDeviation="2"/>
<feComposite in2="hardAlpha" operator="out"/>
<feColorMatrix type="matrix" values="0 0 0 0 0 0 0 0 0 0 0 0 0 0 0 0 0 0 0.25 0"/>
<feBlend mode="normal" in2="BackgroundImageFix" result="effect1_dropShadow_137_627"/>
<feBlend mode="normal" in="SourceGraphic" in2="effect1_dropShadow_137_627" result="shape"/>
</filter>
</defs>
</svg>
