<svg width="27" height="27" viewBox="0 0 27 27" fill="none" xmlns="http://www.w3.org/2000/svg">
<path d="M21 22.5H12V16.5H10.5V22.5H6V16.5H4.5V22.5C4.5 22.8978 4.65804 23.2794 4.93934 23.5607C5.22064 23.842 5.60218 24 6 24H21C21.3978 24 21.7794 23.842 22.0607 23.5607C22.342 23.2794 22.5 22.8978 22.5 22.5V16.5H21V22.5Z" fill="black"/>
<path d="M25.3425 9.9525L22.2825 3.8325C22.1583 3.58259 21.9669 3.37228 21.7297 3.22521C21.4926 3.07814 21.2191 3.00015 20.94 3H6.06001C5.78095 3.00015 5.50746 3.07814 5.2703 3.22521C5.03313 3.37228 4.84169 3.58259 4.71751 3.8325L1.65751 9.9525C1.55303 10.1621 1.49909 10.3933 1.50001 10.6275V12.9375C1.49933 13.288 1.62139 13.6276 1.84501 13.8975C2.17551 14.2764 2.58369 14.5796 3.04181 14.7867C3.49994 14.9937 3.99727 15.0997 4.50001 15.0975C5.32034 15.0988 6.11565 14.8151 6.75001 14.295C7.38437 14.8154 8.17951 15.0998 9.00001 15.0998C9.82052 15.0998 10.6157 14.8154 11.25 14.295C11.8844 14.8154 12.6795 15.0998 13.5 15.0998C14.3205 15.0998 15.1157 14.8154 15.75 14.295C16.3844 14.8154 17.1795 15.0998 18 15.0998C18.8205 15.0998 19.6157 14.8154 20.25 14.295C20.9581 14.8764 21.8641 15.1606 22.7774 15.0879C23.6908 15.0152 24.5403 14.5912 25.1475 13.905C25.3738 13.6362 25.4986 13.2964 25.5 12.945V10.6275C25.5009 10.3933 25.447 10.1621 25.3425 9.9525ZM22.5 13.5975C22.1797 13.5967 21.8641 13.5194 21.5797 13.372C21.2953 13.2246 21.0503 13.0113 20.865 12.75L20.25 11.91L19.6425 12.75C19.4537 13.0073 19.207 13.2166 18.9223 13.3608C18.6376 13.505 18.3229 13.5802 18.0038 13.5802C17.6846 13.5802 17.3699 13.505 17.0852 13.3608C16.8005 13.2166 16.5538 13.0073 16.365 12.75L15.75 11.91L15.1425 12.75C14.9537 13.0073 14.707 13.2166 14.4223 13.3608C14.1376 13.505 13.8229 13.5802 13.5038 13.5802C13.1846 13.5802 12.8699 13.505 12.5852 13.3608C12.3005 13.2166 12.0538 13.0073 11.865 12.75L11.25 11.91L10.6425 12.75C10.4537 13.0073 10.207 13.2166 9.92228 13.3608C9.63758 13.505 9.32291 13.5802 9.00376 13.5802C8.68461 13.5802 8.36994 13.505 8.08524 13.3608C7.80054 13.2166 7.5538 13.0073 7.36501 12.75L6.75001 11.91L6.13501 12.75C5.94974 13.0113 5.70469 13.2246 5.42028 13.372C5.13588 13.5194 4.82035 13.5967 4.50001 13.5975C4.21736 13.6009 3.93726 13.5438 3.67852 13.43C3.41979 13.3161 3.18844 13.1482 3.00001 12.9375V10.6275L6.06001 4.5H20.94L24 10.62V12.915C23.8127 13.1287 23.5821 13.3 23.3235 13.4177C23.0649 13.5354 22.7841 13.5967 22.5 13.5975Z" fill="black"/>
</svg>
