<svg width="389" height="433" viewBox="0 0 389 433" fill="none" xmlns="http://www.w3.org/2000/svg">
<mask id="mask0_1362_2234" style="mask-type:alpha" maskUnits="userSpaceOnUse" x="0" y="0" width="389" height="433">
<rect width="389" height="433" fill="#D9D9D9"/>
</mask>
<g mask="url(#mask0_1362_2234)">
<path d="M-193.008 134.346H243.541V352.62H-193.008V134.346Z" fill="#CFD8DC"/>
<path d="M-193.008 352.62H243.541V398.573H-193.008V352.62Z" fill="#B0BEC5"/>
<path d="M59.7319 191.786H197.59V398.573H59.7319V191.786Z" fill="#455A64"/>
<path d="M-147.054 191.786H13.7803V318.156H-147.054V191.786Z" fill="#E3F2FD"/>
<path d="M-135.563 203.275H2.29422V306.668H-135.563V203.275Z" fill="#FFDD55"/>
<path d="M168.869 300.924C165.423 300.924 163.125 303.222 163.125 306.668V329.645C163.125 333.091 165.423 335.389 168.869 335.389C172.316 335.389 174.613 333.091 174.613 329.645V306.668C174.613 303.222 172.316 300.924 168.869 300.924Z" fill="#90A4AE"/>
<path d="M25.2696 168.81C44.3038 168.81 59.734 153.38 59.734 134.346C59.734 115.311 44.3038 99.8811 25.2696 99.8811C6.23542 99.8811 -9.19482 115.311 -9.19482 134.346C-9.19482 153.38 6.23542 168.81 25.2696 168.81Z" fill="#558B2F"/>
<path d="M163.128 168.81C182.162 168.81 197.592 153.38 197.592 134.346C197.592 115.311 182.162 99.8811 163.128 99.8811C144.093 99.8811 128.663 115.311 128.663 134.346C128.663 153.38 144.093 168.81 163.128 168.81Z" fill="#558B2F"/>
<path d="M209.079 -15H-158.541C-171.178 -15 -181.518 -4.66067 -181.518 7.97628V42.4407H232.056V7.97628C232.056 -4.66067 221.716 -15 209.079 -15ZM-9.19543 42.4407H59.7334V134.346H-9.19543V42.4407ZM174.615 42.4407H117.174L128.662 134.346H197.591L174.615 42.4407ZM-124.077 42.4407H-66.6361L-78.1243 134.346H-147.053L-124.077 42.4407Z" fill="#FB8C00"/>
<path d="M94.1968 168.81C113.231 168.81 128.661 153.38 128.661 134.346C128.661 115.311 113.231 99.8811 94.1968 99.8811C75.1627 99.8811 59.7324 115.311 59.7324 134.346C59.7324 153.38 75.1627 168.81 94.1968 168.81Z" fill="#FFA000"/>
<path d="M266.519 134.346C266.519 153.875 251.584 168.81 232.054 168.81C212.524 168.81 197.59 153.875 197.59 134.346C197.59 114.816 212.524 99.8811 232.054 99.8811L266.519 134.346Z" fill="#FFA000"/>
<path d="M117.173 42.4409H59.732V134.346H128.661L117.173 42.4409ZM232.054 42.4409H174.613L197.59 134.346H266.519L232.054 42.4409ZM-66.6376 42.4409H-9.19684V134.346H-78.1257L-66.6376 42.4409ZM-181.519 42.4409H-124.078L-147.055 134.346H-215.983L-181.519 42.4409Z" fill="#FFC107"/>
<ellipse cx="97.935" cy="411.337" rx="402.065" ry="12.6635" fill="#D9D9D9"/>
<rect x="44.5" y="44.5" width="86" height="46" rx="3.18059" fill="#FB8C00" stroke="white"/>
<path d="M55.3104 74.1314C55.5931 72.4982 56.1898 71.0456 57.1007 69.7736C58.0272 68.4859 59.1657 67.4887 60.5163 66.782C61.8668 66.0597 63.3037 65.6985 64.827 65.6985C66.6015 65.6985 68.0541 66.146 69.1848 67.0412C70.3312 67.9206 71.0693 69.1455 71.399 70.7159H70.1741C69.9072 69.4753 69.2869 68.4859 68.3132 67.7478C67.3553 67.0097 66.1382 66.6407 64.6621 66.6407C63.3587 66.6407 62.1259 66.9469 60.9638 67.5594C59.8017 68.1718 58.8124 69.0434 57.9958 70.1741C57.1949 71.3048 56.661 72.6239 56.394 74.1314C56.2998 74.6968 56.2527 75.2464 56.2527 75.7804C56.2527 76.9738 56.4961 78.0103 56.9829 78.8897C57.4697 79.7534 58.145 80.4208 59.0087 80.892C59.8881 81.3631 60.8932 81.5986 62.0238 81.5986C63.2801 81.5986 64.4658 81.316 65.5808 80.7506C66.7114 80.1853 67.6694 79.3844 68.4546 78.3479C69.2555 77.2958 69.8129 76.063 70.127 74.6497H62.7541L62.919 73.7781H71.3755L71.2341 74.4848C70.9201 76.0238 70.3076 77.4057 69.3968 78.6306C68.5017 79.8398 67.3946 80.7977 66.0754 81.5044C64.7563 82.1954 63.3508 82.5409 61.8589 82.5409C60.5241 82.5409 59.3463 82.266 58.3256 81.7164C57.3205 81.1668 56.5353 80.3894 55.97 79.3844C55.4204 78.3636 55.1455 77.1937 55.1455 75.8746C55.1455 75.2778 55.2005 74.6968 55.3104 74.1314ZM80.8946 69.4203C81.9782 69.4203 82.8968 69.6323 83.6506 70.0563C84.4201 70.4646 84.9933 71.0221 85.3702 71.7288C85.7628 72.4197 85.9591 73.1971 85.9591 74.0608C85.9591 74.4377 85.9277 74.7832 85.8649 75.0972C85.7706 75.6626 85.6764 76.0866 85.5822 76.3692H74.5345C74.4717 76.8718 74.4403 77.233 74.4403 77.4528C74.4403 78.8033 74.8486 79.8398 75.6652 80.5622C76.4818 81.2846 77.5104 81.6457 78.751 81.6457C79.9916 81.6457 81.0909 81.3395 82.0488 80.7271C83.0225 80.0989 83.7134 79.2509 84.1217 78.183H85.2289C84.7263 79.4865 83.8862 80.5465 82.7084 81.3631C81.5463 82.164 80.1722 82.5644 78.5861 82.5644C77.0157 82.5644 75.7516 82.109 74.7936 81.1982C73.8514 80.2874 73.3803 79.0468 73.3803 77.4764C73.3803 76.9896 73.4274 76.487 73.5216 75.9688C73.7572 74.634 74.2283 73.4719 74.935 72.4825C75.6417 71.4932 76.5054 70.7394 77.5261 70.2212C78.5626 69.6873 79.6854 69.4203 80.8946 69.4203ZM84.7342 75.5448C84.8441 75.0894 84.8991 74.6261 84.8991 74.155C84.8991 72.9144 84.4986 71.9643 83.6977 71.3048C82.9125 70.6452 81.9153 70.3154 80.7062 70.3154C79.811 70.3154 78.9473 70.5117 78.115 70.9043C77.2827 71.2969 76.5603 71.8858 75.9479 72.671C75.3354 73.4562 74.9114 74.4141 74.6759 75.5448H84.7342ZM95.8525 69.3261C97.1559 69.3261 98.2003 69.6794 98.9854 70.3861C99.7706 71.077 100.163 72.1057 100.163 73.4719C100.163 73.8959 100.116 74.367 100.022 74.8852L98.7028 82.376H97.6663L98.9854 74.9559C99.064 74.4534 99.1032 74.0372 99.1032 73.7074C99.1032 72.5768 98.7891 71.7209 98.161 71.1399C97.5328 70.5431 96.6534 70.2447 95.5227 70.2447C94.2036 70.2447 93.0651 70.653 92.1072 71.4696C91.1492 72.2862 90.4897 73.4876 90.1285 75.0737L88.8329 82.376H87.7729L90.0578 69.5852H91.1178L90.6467 72.2705C91.1806 71.3126 91.903 70.5824 92.8138 70.0799C93.7404 69.5773 94.7533 69.3261 95.8525 69.3261ZM105.747 66.7349C105.527 66.7349 105.347 66.6721 105.205 66.5465C105.064 66.4051 104.993 66.2246 104.993 66.0047C104.993 65.6906 105.103 65.4315 105.323 65.2274C105.543 65.0075 105.794 64.8976 106.077 64.8976C106.297 64.8976 106.477 64.9682 106.619 65.1096C106.776 65.2509 106.854 65.4315 106.854 65.6514C106.854 65.9654 106.736 66.2246 106.501 66.4287C106.281 66.6329 106.03 66.7349 105.747 66.7349ZM105.794 69.5852L103.509 82.376H102.449L104.734 69.5852H105.794ZM115.239 69.4203C116.323 69.4203 117.241 69.6323 117.995 70.0563C118.765 70.4646 119.338 71.0221 119.715 71.7288C120.107 72.4197 120.304 73.1971 120.304 74.0608C120.304 74.4377 120.272 74.7832 120.209 75.0972C120.115 75.6626 120.021 76.0866 119.927 76.3692H108.879C108.816 76.8718 108.785 77.233 108.785 77.4528C108.785 78.8033 109.193 79.8398 110.01 80.5622C110.826 81.2846 111.855 81.6457 113.096 81.6457C114.336 81.6457 115.435 81.3395 116.393 80.7271C117.367 80.0989 118.058 79.2509 118.466 78.183H119.573C119.071 79.4865 118.231 80.5465 117.053 81.3631C115.891 82.164 114.517 82.5644 112.931 82.5644C111.36 82.5644 110.096 82.109 109.138 81.1982C108.196 80.2874 107.725 79.0468 107.725 77.4764C107.725 76.9896 107.772 76.487 107.866 75.9688C108.102 74.634 108.573 73.4719 109.28 72.4825C109.986 71.4932 110.85 70.7394 111.871 70.2212C112.907 69.6873 114.03 69.4203 115.239 69.4203ZM119.079 75.5448C119.189 75.0894 119.244 74.6261 119.244 74.155C119.244 72.9144 118.843 71.9643 118.042 71.3048C117.257 70.6452 116.26 70.3154 115.051 70.3154C114.156 70.3154 113.292 70.5117 112.46 70.9043C111.627 71.2969 110.905 71.8858 110.292 72.671C109.68 73.4562 109.256 74.4141 109.02 75.5448H119.079Z" fill="white"/>
<path fill-rule="evenodd" clip-rule="evenodd" d="M59.565 51.9782C59.0788 52.0221 58.8694 52.0899 58.0368 52.4735C57.5265 52.7086 56.5217 53.618 56.5217 53.8448C56.5217 53.9373 56.4658 54.0131 56.3975 54.0131C56.3292 54.0131 56.2733 54.1188 56.2733 54.2479C56.2733 54.3771 56.2232 54.4828 56.1621 54.4828C56.0368 54.4828 55.8881 55.2432 55.8751 55.9507C55.8636 56.5746 56.0306 57.4186 56.1655 57.4186C56.2247 57.4186 56.2733 57.5243 56.2733 57.6535C56.2733 57.7827 56.3292 57.8883 56.3975 57.8883C56.4658 57.8883 56.5217 57.9549 56.5217 58.0363C56.5217 58.2398 57.5037 59.1801 57.7161 59.1801C57.8107 59.1801 57.8881 59.2292 57.8881 59.2891C57.8881 59.3491 58.2016 59.509 58.5847 59.6446C59.6645 60.0264 62.2882 59.9465 62.7884 59.5164C62.8534 59.4607 62.983 59.415 63.0767 59.415C63.3033 59.415 63.602 59.1235 63.602 58.9024C63.602 58.6595 62.2255 56.1269 62.0934 56.1269C62.035 56.1269 61.9872 56.1797 61.9872 56.2443C61.9872 56.3132 61.5569 56.3617 60.9447 56.3617C59.8536 56.3617 59.7513 56.3113 59.7513 55.7743C59.7513 55.4832 60.3149 55.3765 61.3172 55.4779C62.1448 55.5618 62.4841 55.4313 62.4841 55.0294C62.4841 54.9333 62.5259 54.8371 62.5772 54.8155C62.7251 54.7534 63.602 53.0708 63.602 52.8493C63.602 52.6519 62.8419 52.2516 62.4672 52.2516C62.3672 52.2516 62.2322 52.2049 62.1673 52.1479C62.0294 52.0268 60.2868 51.9131 59.565 51.9782ZM73.1178 52.2025C72.9838 52.5328 73.0328 59.4135 73.1709 59.6576C73.2876 59.8635 73.4442 59.8847 74.8479 59.8847H76.3962V55.9507V52.0167H74.7947C73.4489 52.0167 73.1811 52.0464 73.1178 52.2025ZM80.7911 52.2881C80.6462 52.4295 80.3706 52.6508 80.1786 52.78C79.9865 52.9092 79.7137 53.122 79.5724 53.2529C79.4309 53.3839 79.1186 53.6051 78.8784 53.7446C78.6382 53.8842 78.307 54.1338 78.1425 54.2994C77.9781 54.4648 77.7969 54.6002 77.7398 54.6002C77.5805 54.6002 76.8931 55.2541 76.8931 55.4056C76.8931 55.4863 77.1159 55.5397 77.452 55.5397H78.011V56.6456C78.011 57.8258 78.2701 58.6695 78.7501 59.0523C78.8786 59.1549 79.0863 59.3189 79.2117 59.4167C79.8684 59.9294 81.4612 60.0212 82.3896 59.5997L82.8554 59.3882V58.2342C82.8554 57.5915 82.8004 57.048 82.7312 57.0076C82.6629 56.9677 82.607 56.9848 82.607 57.0457C82.607 57.1841 82.0406 57.2927 81.725 57.2148C81.522 57.1645 81.489 57.0435 81.489 56.348V55.5397H82.0232C82.3169 55.5397 82.6244 55.4763 82.7063 55.3988C82.7897 55.32 82.8554 54.9421 82.8554 54.5415C82.8554 54.1409 82.7897 53.763 82.7063 53.6843C82.6244 53.6067 82.3169 53.5433 82.0232 53.5433H81.489V52.78C81.489 52.1286 81.4571 52.0178 81.2717 52.0239C81.152 52.0279 80.9358 52.1467 80.7911 52.2881ZM99.2518 53.773V55.5294L100.152 55.5639L101.053 55.5984L101.075 57.5361C101.087 58.6018 101.101 59.5676 101.106 59.6824C101.114 59.8739 101.262 59.8885 102.885 59.8585L104.655 59.826L104.689 57.6828L104.723 55.5397H105.652H106.581V53.7782V52.0167H102.916H99.2518V53.773ZM64.2985 53.7291C64.1466 54.1034 64.216 58.3495 64.3784 58.6164C64.6219 59.0168 65.2451 59.5769 65.6264 59.7379C66.4065 60.0676 67.6349 59.8402 68.229 59.2562C68.5534 58.9374 68.5706 58.9333 68.5706 59.1754C68.5706 59.3156 68.6285 59.5326 68.6992 59.6576C68.8153 59.8626 68.9717 59.8847 70.3096 59.8847C71.6476 59.8847 71.804 59.8626 71.9201 59.6576C71.9984 59.5194 72.0487 58.3435 72.0487 56.6546C72.0487 54.4055 72.015 53.847 71.8712 53.7111C71.737 53.5843 71.3286 53.5433 70.1966 53.5433C68.4145 53.5433 68.5817 53.3123 68.5386 55.8333L68.5085 57.5948L68.0868 57.6328C67.8332 57.6557 67.6235 57.609 67.5608 57.5154C67.5034 57.4299 67.4557 56.5645 67.4546 55.5925C67.4533 54.3766 67.4062 53.7813 67.3036 53.6843C67.2055 53.5915 66.6799 53.5433 65.7642 53.5433C64.611 53.5433 64.361 53.575 64.2985 53.7291ZM83.6136 53.7047C83.4458 53.896 83.4852 57.9289 83.6607 58.5239C84.0777 59.9374 86.4368 60.3635 87.6253 59.24C87.7967 59.0778 87.9675 58.9452 88.0048 58.9452C88.042 58.9452 88.0725 59.1566 88.0725 59.415V59.8847H89.4907C90.2708 59.8847 90.9975 59.8526 91.1055 59.8134C91.2776 59.7511 91.3021 59.3731 91.3021 56.7837C91.3021 54.6392 91.2611 53.7864 91.153 53.6843C90.9474 53.4899 88.1787 53.4899 87.9731 53.6843C87.8694 53.7823 87.824 54.4072 87.824 55.7393V57.6535H87.4426C86.7668 57.6535 86.7159 57.5074 86.6783 55.463L86.644 53.602L85.2028 53.5692C84.0702 53.5432 83.7299 53.5722 83.6136 53.7047ZM92.5732 53.6414C92.4513 53.7145 92.4232 54.4231 92.4489 56.781L92.4821 59.826H94.0969H95.7117L95.79 58.2406C95.8331 57.3687 95.9095 56.5363 95.9598 56.3911C96.073 56.0637 96.4052 56.0495 96.6433 56.3617C96.7868 56.55 96.9649 56.5966 97.5403 56.5966C97.936 56.5966 98.2581 56.5439 98.2581 56.4792C98.2581 56.4146 98.3215 56.3617 98.3989 56.3617C98.6334 56.3617 98.9933 55.8859 99.0767 55.4658C99.2402 54.6423 98.9696 54.1144 98.1667 53.6901C97.582 53.3813 96.6452 53.6164 96.166 54.1924C95.9082 54.5022 95.7738 54.4622 95.7738 54.0757C95.7738 53.6148 95.5481 53.5432 94.1031 53.5451C93.3481 53.5462 92.6597 53.5895 92.5732 53.6414ZM108.879 53.6608C108.742 53.7163 108.49 53.766 108.32 53.7712C108.149 53.7763 107.757 53.8995 107.45 54.0448L106.891 54.3089L106.855 55.2178C106.835 55.7178 106.863 56.126 106.917 56.1251C106.971 56.1242 107.239 56.0471 107.512 55.9541C108.254 55.7015 109.472 55.7209 109.729 55.9893C109.842 56.1075 109.934 56.2396 109.934 56.2829C109.934 56.3263 109.576 56.3617 109.137 56.3617C108.213 56.3617 107.347 56.6616 107.058 57.0818C106.953 57.2347 106.799 57.5546 106.717 57.7926C106.501 58.4149 106.9 59.2773 107.567 59.632C108.116 59.9238 109.082 59.9651 109.556 59.717C109.813 59.582 109.901 59.5833 110.13 59.7251C110.334 59.8516 110.76 59.8844 111.875 59.8592L113.35 59.826L113.384 57.7167C113.423 55.3339 113.334 54.945 112.603 54.3124C112.371 54.1116 111.869 53.8563 111.488 53.7452C110.762 53.5341 109.306 53.487 108.879 53.6608ZM114.555 53.6843C114.446 53.7878 114.406 54.7965 114.406 57.4912C114.406 59.5075 114.44 61.2408 114.482 61.343C114.545 61.4991 114.813 61.5288 116.158 61.5288H117.76V60.5767C117.76 59.7147 117.78 59.633 117.977 59.7133C118.097 59.7619 118.53 59.8251 118.94 59.8535C120.201 59.9411 121.443 59.229 121.93 58.1382C122.277 57.3638 122.137 55.3062 121.702 54.7764C121.298 54.2835 121.098 54.1262 120.528 53.8535C119.75 53.481 119.058 53.4555 118.362 53.7735C117.862 54.002 117.858 54.002 117.795 53.7735C117.736 53.5608 117.616 53.5433 116.218 53.5433C115.206 53.5433 114.655 53.5901 114.555 53.6843ZM118.7 56.2947C118.798 56.3869 118.878 56.6775 118.878 56.9405V57.4186H118.319H117.76V56.944C117.76 56.2223 118.259 55.8775 118.7 56.2947ZM109.91 57.9764C109.949 58.4741 109.947 58.4755 109.52 58.4755C109.162 58.4755 109.079 58.4254 109.01 58.1678C108.912 57.7998 109.243 57.4138 109.624 57.4522C109.822 57.4723 109.88 57.5781 109.91 57.9764Z" fill="white"/>
<rect x="45.7016" y="88.7016" width="85.5968" height="16.5968" fill="white" stroke="#FB8C00" stroke-width="1.40323"/>
<path d="M68.3715 93.6897C68.2754 94.231 68.0484 94.6807 67.6904 95.0386C67.3412 95.3879 66.9133 95.6411 66.4069 95.7983C66.8348 95.8681 67.184 96.0777 67.4547 96.4269C67.7253 96.7674 67.8607 97.1734 67.8607 97.6449C67.8607 97.7846 67.8476 97.9199 67.8214 98.0509C67.7428 98.5137 67.5507 98.9328 67.2451 99.3082C66.9483 99.6749 66.5554 99.9674 66.0664 100.186C65.5775 100.395 65.0274 100.5 64.4162 100.5H61.0111L62.6351 91.3715H65.9093C66.73 91.3715 67.3499 91.5462 67.769 91.8954C68.1968 92.2447 68.4107 92.6987 68.4107 93.2575C68.4107 93.3972 68.3977 93.5412 68.3715 93.6897ZM67.1404 93.8337C67.1578 93.7552 67.1666 93.646 67.1666 93.5063C67.1666 93.1309 67.0356 92.8384 66.7737 92.6288C66.5117 92.4193 66.1319 92.3145 65.6342 92.3145H63.6566L63.1197 95.3399H65.1235C65.6735 95.3399 66.1275 95.2089 66.4855 94.947C66.8435 94.6763 67.0618 94.3052 67.1404 93.8337ZM66.6427 97.933C66.6689 97.8108 66.682 97.6973 66.682 97.5925C66.682 97.1909 66.5335 96.8722 66.2367 96.6365C65.9398 96.4007 65.5338 96.2828 65.0187 96.2828H62.9494L62.3731 99.557H64.4817C65.0667 99.557 65.5513 99.413 65.9355 99.1248C66.3196 98.8367 66.5554 98.4394 66.6427 97.933ZM76.6785 93.323L75.4081 100.5H74.2163L74.3997 99.4523C74.1115 99.819 73.7448 100.103 73.2995 100.304C72.8542 100.504 72.3915 100.605 71.9113 100.605C71.1604 100.605 70.5579 100.404 70.1039 100.002C69.6586 99.592 69.436 99.007 69.436 98.2474C69.436 98.0553 69.4578 97.8152 69.5015 97.527L70.248 93.323H71.4267L70.7195 97.3699C70.6845 97.5532 70.6671 97.7453 70.6671 97.9461C70.6671 98.4787 70.8111 98.8847 71.0993 99.1641C71.3961 99.4348 71.8065 99.5701 72.3304 99.5701C72.959 99.5701 73.4916 99.3737 73.9282 98.9808C74.3735 98.5879 74.6572 98.016 74.7795 97.2651V97.3044L75.4867 93.323H76.6785ZM79.9481 100.618C79.1972 100.618 78.5817 100.439 78.1014 100.081C77.6212 99.7229 77.3811 99.2427 77.3811 98.6403C77.3811 98.5268 77.3855 98.4438 77.3942 98.3914H78.5598C78.5249 98.7669 78.634 99.0725 78.8872 99.3082C79.1492 99.5439 79.5246 99.6618 80.0136 99.6618C80.5025 99.6618 80.8954 99.5701 81.1923 99.3868C81.4979 99.1947 81.6507 98.9284 81.6507 98.5879C81.6507 98.2997 81.5284 98.0727 81.284 97.9068C81.0395 97.7409 80.664 97.562 80.1576 97.3699C79.7123 97.204 79.3456 97.0468 79.0575 96.8984C78.7694 96.75 78.5249 96.5448 78.3241 96.2828C78.1233 96.0122 78.0229 95.6717 78.0229 95.2613C78.0229 94.8597 78.1364 94.5017 78.3634 94.1874C78.5991 93.873 78.9222 93.6329 79.3325 93.467C79.7516 93.2924 80.2275 93.2051 80.7601 93.2051C81.4935 93.2051 82.096 93.3885 82.5674 93.7552C83.0389 94.1219 83.2747 94.6021 83.2747 95.1958C83.2747 95.3093 83.2703 95.3966 83.2616 95.4577H82.1221L82.1352 95.3006C82.1352 94.9513 81.9999 94.6763 81.7292 94.4755C81.4673 94.2659 81.1181 94.1612 80.6815 94.1612C80.2537 94.1612 79.9001 94.2572 79.6207 94.4493C79.35 94.6414 79.2147 94.8989 79.2147 95.222C79.2147 95.5276 79.3413 95.7677 79.5945 95.9423C79.8477 96.1169 80.2406 96.309 80.7732 96.5186C81.2185 96.6932 81.5764 96.8547 81.8471 97.0032C82.1178 97.1429 82.3492 97.3393 82.5412 97.5925C82.7333 97.8457 82.8294 98.1644 82.8294 98.5486C82.8294 98.9677 82.7028 99.3344 82.4496 99.6487C82.2051 99.963 81.8646 100.203 81.428 100.369C80.9915 100.535 80.4981 100.618 79.9481 100.618ZM86.3453 92.1574C86.1533 92.1574 85.9917 92.0962 85.8608 91.974C85.7385 91.843 85.6774 91.6815 85.6774 91.4894C85.6774 91.2275 85.7735 91.0048 85.9655 90.8215C86.1576 90.6294 86.3803 90.5334 86.6335 90.5334C86.8343 90.5334 86.9958 90.5945 87.1181 90.7167C87.2403 90.8389 87.3014 91.0005 87.3014 91.2013C87.3014 91.4632 87.2054 91.6902 87.0133 91.8823C86.8212 92.0657 86.5986 92.1574 86.3453 92.1574ZM86.7252 93.323L85.4548 100.5H84.263L85.5333 93.323H86.7252ZM92.2794 93.192C93.0216 93.192 93.6153 93.3928 94.0606 93.7945C94.5059 94.1874 94.7285 94.7636 94.7285 95.5232C94.7285 95.8026 94.7067 96.0515 94.663 96.2697L93.9165 100.5H92.7378L93.4581 96.44C93.493 96.2566 93.5105 96.0646 93.5105 95.8637C93.5105 95.3311 93.3621 94.9251 93.0652 94.6457C92.7771 94.3663 92.3711 94.2266 91.8472 94.2266C91.2186 94.2266 90.6816 94.4231 90.2363 94.816C89.7998 95.2089 89.516 95.7808 89.385 96.5317V96.5055L88.6778 100.5H87.486L88.7564 93.323H89.9482L89.7648 94.3576C90.0617 93.9822 90.4328 93.694 90.8781 93.4932C91.3233 93.2924 91.7905 93.192 92.2794 93.192ZM100.251 93.2051C100.853 93.2051 101.373 93.323 101.809 93.5587C102.255 93.7857 102.591 94.1088 102.818 94.5279C103.053 94.9382 103.171 95.4097 103.171 95.9423C103.171 96.1257 103.149 96.3483 103.106 96.6103C103.071 96.8373 103.014 97.073 102.936 97.3175H97.1992C97.1817 97.4921 97.173 97.6187 97.173 97.6973C97.173 98.2997 97.352 98.7712 97.71 99.1117C98.0767 99.4435 98.5525 99.6094 99.1375 99.6094C99.6527 99.6094 100.102 99.4915 100.486 99.2558C100.879 99.0113 101.176 98.6883 101.377 98.2866H102.661C102.346 98.9764 101.862 99.5396 101.207 99.9761C100.561 100.404 99.8098 100.618 98.9542 100.618C98.0548 100.618 97.3302 100.36 96.7801 99.8452C96.2388 99.3213 95.9681 98.6097 95.9681 97.7104C95.9681 97.4572 95.9943 97.1865 96.0467 96.8984C96.1776 96.1562 96.4439 95.5058 96.8456 94.947C97.2472 94.3882 97.7405 93.9603 98.3255 93.6635C98.9192 93.3579 99.561 93.2051 100.251 93.2051ZM101.901 96.4531C101.927 96.2785 101.94 96.1169 101.94 95.9685C101.94 95.4097 101.761 94.9775 101.403 94.6719C101.054 94.3663 100.596 94.2135 100.028 94.2135C99.4169 94.2135 98.8625 94.4144 98.3648 94.816C97.8671 95.2089 97.531 95.7546 97.3564 96.4531H101.901ZM106.513 100.618C105.762 100.618 105.146 100.439 104.666 100.081C104.186 99.7229 103.946 99.2427 103.946 98.6403C103.946 98.5268 103.95 98.4438 103.959 98.3914H105.124C105.089 98.7669 105.198 99.0725 105.452 99.3082C105.714 99.5439 106.089 99.6618 106.578 99.6618C107.067 99.6618 107.46 99.5701 107.757 99.3868C108.062 99.1947 108.215 98.9284 108.215 98.5879C108.215 98.2997 108.093 98.0727 107.848 97.9068C107.604 97.7409 107.228 97.562 106.722 97.3699C106.277 97.204 105.91 97.0468 105.622 96.8984C105.334 96.75 105.089 96.5448 104.889 96.2828C104.688 96.0122 104.587 95.6717 104.587 95.2613C104.587 94.8597 104.701 94.5017 104.928 94.1874C105.164 93.873 105.487 93.6329 105.897 93.467C106.316 93.2924 106.792 93.2051 107.325 93.2051C108.058 93.2051 108.66 93.3885 109.132 93.7552C109.603 94.1219 109.839 94.6021 109.839 95.1958C109.839 95.3093 109.835 95.3966 109.826 95.4577H108.687L108.7 95.3006C108.7 94.9513 108.564 94.6763 108.294 94.4755C108.032 94.2659 107.683 94.1612 107.246 94.1612C106.818 94.1612 106.465 94.2572 106.185 94.4493C105.914 94.6414 105.779 94.8989 105.779 95.222C105.779 95.5276 105.906 95.7677 106.159 95.9423C106.412 96.1169 106.805 96.309 107.338 96.5186C107.783 96.6932 108.141 96.8547 108.412 97.0032C108.682 97.1429 108.914 97.3393 109.106 97.5925C109.298 97.8457 109.394 98.1644 109.394 98.5486C109.394 98.9677 109.267 99.3344 109.014 99.6487C108.77 99.963 108.429 100.203 107.992 100.369C107.556 100.535 107.063 100.618 106.513 100.618ZM113.355 100.618C112.604 100.618 111.989 100.439 111.508 100.081C111.028 99.7229 110.788 99.2427 110.788 98.6403C110.788 98.5268 110.792 98.4438 110.801 98.3914H111.967C111.932 98.7669 112.041 99.0725 112.294 99.3082C112.556 99.5439 112.932 99.6618 113.421 99.6618C113.91 99.6618 114.302 99.5701 114.599 99.3868C114.905 99.1947 115.058 98.9284 115.058 98.5879C115.058 98.2997 114.935 98.0727 114.691 97.9068C114.446 97.7409 114.071 97.562 113.565 97.3699C113.119 97.204 112.753 97.0468 112.465 96.8984C112.176 96.75 111.932 96.5448 111.731 96.2828C111.53 96.0122 111.43 95.6717 111.43 95.2613C111.43 94.8597 111.543 94.5017 111.77 94.1874C112.006 93.873 112.329 93.6329 112.74 93.467C113.159 93.2924 113.634 93.2051 114.167 93.2051C114.901 93.2051 115.503 93.3885 115.974 93.7552C116.446 94.1219 116.682 94.6021 116.682 95.1958C116.682 95.3093 116.677 95.3966 116.669 95.4577H115.529L115.542 95.3006C115.542 94.9513 115.407 94.6763 115.136 94.4755C114.874 94.2659 114.525 94.1612 114.089 94.1612C113.661 94.1612 113.307 94.2572 113.028 94.4493C112.757 94.6414 112.622 94.8989 112.622 95.222C112.622 95.5276 112.748 95.7677 113.001 95.9423C113.255 96.1169 113.648 96.309 114.18 96.5186C114.625 96.6932 114.983 96.8547 115.254 97.0032C115.525 97.1429 115.756 97.3393 115.948 97.5925C116.14 97.8457 116.236 98.1644 116.236 98.5486C116.236 98.9677 116.11 99.3344 115.857 99.6487C115.612 99.963 115.272 100.203 114.835 100.369C114.398 100.535 113.905 100.618 113.355 100.618Z" fill="#FB8C00"/>
<path d="M364.588 313.388C360.493 327.594 348.536 337.538 336.064 345.985C334.323 347.165 332.581 348.317 330.838 349.443C330.827 349.448 330.814 349.459 330.802 349.464C330.719 349.518 330.635 349.572 330.557 349.626C330.197 349.858 329.837 350.09 329.48 350.319L329.676 350.407C329.676 350.407 329.869 350.509 329.658 350.424C329.596 350.397 329.53 350.374 329.467 350.348C322.222 347.425 314.848 344.288 309.295 338.813C303.535 333.129 300.169 324.213 303.288 316.745C303.698 315.766 304.216 314.837 304.832 313.974C305.085 313.612 305.358 313.265 305.641 312.925C307.362 310.825 309.61 309.222 312.156 308.279C314.702 307.336 317.452 307.089 320.126 307.562C322.799 308.035 325.297 309.211 327.365 310.97C329.433 312.729 330.995 315.007 331.89 317.569C332.807 309.038 325.772 301.892 319.002 296.619C312.229 291.348 304.533 285.609 303.224 277.125C302.493 272.405 304.134 267.83 307.124 264.158C307.217 264.046 307.309 263.935 307.405 263.827C311.045 259.549 316.164 256.803 321.74 256.136C332.126 255.056 342.214 260.553 349.758 267.774C361.901 279.392 369.243 297.237 364.588 313.388Z" fill="#55CD00"/>
<path d="M345.065 294.807C347.058 297.908 348.589 301.283 349.608 304.826C350.47 307.992 350.853 311.27 350.746 314.55C350.468 321.299 348.573 327.882 345.221 333.746C342.696 338.195 339.619 342.307 336.063 345.985C334.321 347.164 332.579 348.317 330.837 349.442C330.825 349.447 330.813 349.458 330.801 349.464C330.717 349.518 330.633 349.572 330.555 349.626C330.195 349.858 329.836 350.09 329.479 350.319C329.479 350.319 329.867 350.509 329.657 350.423C329.594 350.397 329.528 350.373 329.466 350.347C330.115 345.023 329.479 339.621 327.611 334.593C325.742 329.566 322.696 325.059 318.727 321.451C314.749 317.899 309.987 315.336 304.831 313.973C305.084 313.611 305.356 313.265 305.64 312.925C307.631 313.483 309.57 314.217 311.432 315.117C318.09 318.314 323.541 323.569 326.979 330.106C330.065 336.041 331.393 342.734 330.807 349.397C331.105 349.127 331.403 348.852 331.692 348.579C337.198 343.446 342.088 337.554 345.397 330.754C348.269 324.996 349.68 318.619 349.507 312.187C349.237 305.173 346.442 298.677 342.396 293.021C337.962 286.988 332.723 281.589 326.826 276.974C320.882 272.214 314.379 268.199 307.461 265.019C307.304 264.946 307.182 264.816 307.12 264.656C307.057 264.495 307.058 264.317 307.123 264.158C307.169 264.015 307.27 263.895 307.403 263.826C307.472 263.797 307.546 263.783 307.621 263.786C307.696 263.789 307.769 263.809 307.835 263.844C308.689 264.238 309.537 264.636 310.379 265.052C317.387 268.516 323.939 272.838 329.882 277.917C335.622 282.812 341.027 288.403 345.065 294.807Z" fill="white"/>
<path d="M305.471 349.161H350.345C350.837 349.161 351.323 349.266 351.772 349.468C352.221 349.671 352.621 349.966 352.947 350.335C353.273 350.704 353.516 351.138 353.662 351.609C353.807 352.079 353.85 352.575 353.789 353.063L348.072 398.804C347.966 399.643 347.557 400.415 346.923 400.975C346.289 401.534 345.473 401.844 344.627 401.845H311.189C310.343 401.844 309.527 401.534 308.893 400.975C308.259 400.415 307.851 399.643 307.744 398.804L302.027 353.063C301.966 352.575 302.009 352.079 302.154 351.609C302.3 351.138 302.543 350.704 302.869 350.335C303.195 349.966 303.595 349.671 304.044 349.468C304.493 349.266 304.979 349.161 305.471 349.161Z" fill="#A0616A"/>
</g>
</svg>
