<svg width="49" height="62" viewBox="0 0 49 62" fill="none" xmlns="http://www.w3.org/2000/svg">
<g filter="url(#filter0_i_558_1891)">
<path d="M16.3444 7.44038C16.3275 6.46945 16.5041 5.50488 16.864 4.60295C17.2238 3.70101 17.7597 2.87978 18.4403 2.18717C19.121 1.49456 19.9327 0.944442 20.8283 0.568923C21.7238 0.193403 22.6851 0 23.6562 0C24.6273 0 25.5886 0.193403 26.4841 0.568923C27.3797 0.944442 28.1914 1.49456 28.8721 2.18717C29.5527 2.87978 30.0886 3.70101 30.4484 4.60295C30.8083 5.50488 30.9849 6.46945 30.968 7.44038V15.8561C30.968 16.572 30.9168 17.288 30.8057 18.0039C30.7632 18.2637 30.7283 18.5247 30.7012 18.7866C30.6211 19.6092 30.7189 20.6854 31.2792 21.4102L29.9407 22.6998C33.3471 24.4445 36.2049 27.0968 38.1985 30.3637C40.1922 33.6306 41.2441 37.3849 41.238 41.2121C41.2405 43.3426 40.9166 45.4609 40.2775 47.4933L38.0607 61.9612H20.0487V61.9545C8.92486 61.7144 0 54.4615 0 41.2099C0 33.4234 3.7287 27.1533 9.36954 23.6181L9.3562 23.607C9.74086 23.3401 10.1944 23.0667 10.6791 22.7754H10.6836C12.2845 21.8149 14.2411 20.6409 15.2705 18.7243C16.1666 17.0634 16.3378 14.3664 16.3378 13.1146H16.3444V7.44038Z" fill="url(#paint0_linear_558_1891)"/>
</g>
<path d="M16.3444 7.44038C16.3275 6.46945 16.5041 5.50488 16.864 4.60295C17.2238 3.70101 17.7597 2.87978 18.4403 2.18717C19.121 1.49456 19.9327 0.944442 20.8283 0.568923C21.7238 0.193403 22.6851 0 23.6562 0C24.6273 0 25.5886 0.193403 26.4841 0.568923C27.3797 0.944442 28.1914 1.49456 28.8721 2.18717C29.5527 2.87978 30.0886 3.70101 30.4484 4.60295C30.8083 5.50488 30.9849 6.46945 30.968 7.44038V15.8561C30.968 16.572 30.9168 17.288 30.8057 18.0039C30.7632 18.2637 30.7283 18.5247 30.7012 18.7866C30.6211 19.6092 30.7189 20.6854 31.2792 21.4102L29.9407 22.6998C33.3471 24.4445 36.2049 27.0968 38.1985 30.3637C40.1922 33.6306 41.2441 37.3849 41.238 41.2121C41.2405 43.3426 40.9166 45.4609 40.2775 47.4933L38.0607 61.9612H20.0487V61.9545C8.92486 61.7144 0 54.4615 0 41.2099C0 33.4234 3.7287 27.1533 9.36954 23.6181L9.3562 23.607C9.74086 23.3401 10.1944 23.0667 10.6791 22.7754H10.6836C12.2845 21.8149 14.2411 20.6409 15.2705 18.7243C16.1666 17.0634 16.3378 14.3664 16.3378 13.1146H16.3444V7.44038Z" fill="url(#paint1_radial_558_1891)"/>
<path d="M16.3444 7.44038C16.3275 6.46945 16.5041 5.50488 16.864 4.60295C17.2238 3.70101 17.7597 2.87978 18.4403 2.18717C19.121 1.49456 19.9327 0.944442 20.8283 0.568923C21.7238 0.193403 22.6851 0 23.6562 0C24.6273 0 25.5886 0.193403 26.4841 0.568923C27.3797 0.944442 28.1914 1.49456 28.8721 2.18717C29.5527 2.87978 30.0886 3.70101 30.4484 4.60295C30.8083 5.50488 30.9849 6.46945 30.968 7.44038V15.8561C30.968 16.572 30.9168 17.288 30.8057 18.0039C30.7632 18.2637 30.7283 18.5247 30.7012 18.7866C30.6211 19.6092 30.7189 20.6854 31.2792 21.4102L29.9407 22.6998C33.3471 24.4445 36.2049 27.0968 38.1985 30.3637C40.1922 33.6306 41.2441 37.3849 41.238 41.2121C41.2405 43.3426 40.9166 45.4609 40.2775 47.4933L38.0607 61.9612H20.0487V61.9545C8.92486 61.7144 0 54.4615 0 41.2099C0 33.4234 3.7287 27.1533 9.36954 23.6181L9.3562 23.607C9.74086 23.3401 10.1944 23.0667 10.6791 22.7754H10.6836C12.2845 21.8149 14.2411 20.6409 15.2705 18.7243C16.1666 17.0634 16.3378 14.3664 16.3378 13.1146H16.3444V7.44038Z" fill="url(#paint2_radial_558_1891)"/>
<path d="M16.3444 7.44038C16.3275 6.46945 16.5041 5.50488 16.864 4.60295C17.2238 3.70101 17.7597 2.87978 18.4403 2.18717C19.121 1.49456 19.9327 0.944442 20.8283 0.568923C21.7238 0.193403 22.6851 0 23.6562 0C24.6273 0 25.5886 0.193403 26.4841 0.568923C27.3797 0.944442 28.1914 1.49456 28.8721 2.18717C29.5527 2.87978 30.0886 3.70101 30.4484 4.60295C30.8083 5.50488 30.9849 6.46945 30.968 7.44038V15.8561C30.968 16.572 30.9168 17.288 30.8057 18.0039C30.7632 18.2637 30.7283 18.5247 30.7012 18.7866C30.6211 19.6092 30.7189 20.6854 31.2792 21.4102L29.9407 22.6998C33.3471 24.4445 36.2049 27.0968 38.1985 30.3637C40.1922 33.6306 41.2441 37.3849 41.238 41.2121C41.2405 43.3426 40.9166 45.4609 40.2775 47.4933L38.0607 61.9612H20.0487V61.9545C8.92486 61.7144 0 54.4615 0 41.2099C0 33.4234 3.7287 27.1533 9.36954 23.6181L9.3562 23.607C9.74086 23.3401 10.1944 23.0667 10.6791 22.7754H10.6836C12.2845 21.8149 14.2411 20.6409 15.2705 18.7243C16.1666 17.0634 16.3378 14.3664 16.3378 13.1146H16.3444V7.44038Z" fill="url(#paint3_radial_558_1891)"/>
<path d="M16.3444 7.44038C16.3275 6.46945 16.5041 5.50488 16.864 4.60295C17.2238 3.70101 17.7597 2.87978 18.4403 2.18717C19.121 1.49456 19.9327 0.944442 20.8283 0.568923C21.7238 0.193403 22.6851 0 23.6562 0C24.6273 0 25.5886 0.193403 26.4841 0.568923C27.3797 0.944442 28.1914 1.49456 28.8721 2.18717C29.5527 2.87978 30.0886 3.70101 30.4484 4.60295C30.8083 5.50488 30.9849 6.46945 30.968 7.44038V15.8561C30.968 16.572 30.9168 17.288 30.8057 18.0039C30.7632 18.2637 30.7283 18.5247 30.7012 18.7866C30.6211 19.6092 30.7189 20.6854 31.2792 21.4102L29.9407 22.6998C33.3471 24.4445 36.2049 27.0968 38.1985 30.3637C40.1922 33.6306 41.2441 37.3849 41.238 41.2121C41.2405 43.3426 40.9166 45.4609 40.2775 47.4933L38.0607 61.9612H20.0487V61.9545C8.92486 61.7144 0 54.4615 0 41.2099C0 33.4234 3.7287 27.1533 9.36954 23.6181L9.3562 23.607C9.74086 23.3401 10.1944 23.0667 10.6791 22.7754H10.6836C12.2845 21.8149 14.2411 20.6409 15.2705 18.7243C16.1666 17.0634 16.3378 14.3664 16.3378 13.1146H16.3444V7.44038Z" fill="url(#paint4_linear_558_1891)"/>
<g filter="url(#filter1_f_558_1891)">
<path d="M41.7168 28.6762C41.7168 27.1713 41.119 25.728 40.0548 24.6639C38.9907 23.5998 37.5475 23.002 36.0426 23.002H29.7592C28.5941 23.0019 27.4572 23.3605 26.5031 24.0291C25.5489 24.6976 24.8236 25.6437 24.4258 26.7387C24.028 27.8338 23.977 29.0248 24.2795 30.1499C24.5821 31.275 25.2237 32.2796 26.1172 33.0274C25.4361 33.5405 24.8791 34.2002 24.4875 34.9577C24.0959 35.7152 23.8797 36.551 23.8549 37.4034C23.8302 38.2558 23.9975 39.1028 24.3444 39.8817C24.6914 40.6607 25.2091 41.3516 25.8593 41.9034C25.2304 42.4357 24.7254 43.0988 24.3794 43.8466C24.0333 44.5943 23.8547 45.4085 23.8559 46.2324V46.5103C23.8559 48.0667 24.4785 49.4741 25.4924 50.4991C24.7145 51.2688 24.1829 52.2523 23.9651 53.3248C23.7474 54.3972 23.8532 55.5101 24.2692 56.5223C24.6852 57.5344 25.3926 58.4001 26.3016 59.0094C27.2106 59.6187 28.2802 59.9441 29.3745 59.9443H35.609C36.5792 59.9449 37.5324 59.6899 38.3727 59.2049C39.2129 58.7199 39.9105 58.022 40.3952 57.1816C40.8799 56.3412 41.1346 55.3879 41.1335 54.4177C41.1325 53.4475 40.8758 52.4947 40.3894 51.6553C41.3681 51.1982 42.1959 50.4712 42.7757 49.5598C43.3555 48.6484 43.663 47.5905 43.6623 46.5103V46.2324C43.6623 44.4759 42.8663 42.9061 41.6123 41.8656C42.3269 41.2444 42.8754 40.4549 43.2081 39.5684C43.5408 38.6819 43.6471 37.7265 43.5175 36.7885C43.388 35.8506 43.0265 34.9597 42.466 34.1966C41.9054 33.4336 41.1634 32.8223 40.3071 32.4182C41.2176 31.3845 41.719 30.0537 41.7168 28.6762Z" fill="url(#paint5_linear_558_1891)"/>
</g>
<g filter="url(#filter2_i_558_1891)">
<path d="M40.3111 32.77C43.8844 32.77 46.7812 29.8732 46.7812 26.2998C46.7812 22.7264 43.8844 19.8296 40.3111 19.8296H33.1449C29.5716 19.8296 26.6747 22.7264 26.6747 26.2998C26.6747 29.8732 29.5716 32.77 33.1449 32.77H40.3111Z" fill="url(#paint6_linear_558_1891)"/>
<path d="M40.3111 32.77C43.8844 32.77 46.7812 29.8732 46.7812 26.2998C46.7812 22.7264 43.8844 19.8296 40.3111 19.8296H33.1449C29.5716 19.8296 26.6747 22.7264 26.6747 26.2998C26.6747 29.8732 29.5716 32.77 33.1449 32.77H40.3111Z" fill="url(#paint7_radial_558_1891)"/>
</g>
<g filter="url(#filter3_i_558_1891)">
<path d="M39.8175 61.9607C43.2951 61.9607 46.1143 59.1416 46.1143 55.6639C46.1143 52.1863 43.2951 49.3672 39.8175 49.3672H32.7092C29.2316 49.3672 26.4124 52.1863 26.4124 55.6639C26.4124 59.1416 29.2316 61.9607 32.7092 61.9607H39.8175Z" fill="url(#paint8_linear_558_1891)"/>
<path d="M39.8175 61.9607C43.2951 61.9607 46.1143 59.1416 46.1143 55.6639C46.1143 52.1863 43.2951 49.3672 39.8175 49.3672H32.7092C29.2316 49.3672 26.4124 52.1863 26.4124 55.6639C26.4124 59.1416 29.2316 61.9607 32.7092 61.9607H39.8175Z" fill="url(#paint9_radial_558_1891)"/>
<path d="M39.8175 61.9607C43.2951 61.9607 46.1143 59.1416 46.1143 55.6639C46.1143 52.1863 43.2951 49.3672 39.8175 49.3672H32.7092C29.2316 49.3672 26.4124 52.1863 26.4124 55.6639C26.4124 59.1416 29.2316 61.9607 32.7092 61.9607H39.8175Z" fill="url(#paint10_radial_558_1891)"/>
</g>
<path d="M39.8175 61.9607C43.2951 61.9607 46.1143 59.1416 46.1143 55.6639C46.1143 52.1863 43.2951 49.3672 39.8175 49.3672H32.7092C29.2316 49.3672 26.4124 52.1863 26.4124 55.6639C26.4124 59.1416 29.2316 61.9607 32.7092 61.9607H39.8175Z" fill="url(#paint11_linear_558_1891)"/>
<path d="M39.8175 61.9607C43.2951 61.9607 46.1143 59.1416 46.1143 55.6639C46.1143 52.1863 43.2951 49.3672 39.8175 49.3672H32.7092C29.2316 49.3672 26.4124 52.1863 26.4124 55.6639C26.4124 59.1416 29.2316 61.9607 32.7092 61.9607H39.8175Z" fill="url(#paint12_radial_558_1891)"/>
<g filter="url(#filter4_f_558_1891)">
<path d="M42.9952 53.1118H34.3372C33.4309 53.1118 32.6963 53.8465 32.6963 54.7527C32.6963 55.659 33.4309 56.3936 34.3372 56.3936H42.9952C43.9015 56.3936 44.6361 55.659 44.6361 54.7527C44.6361 53.8465 43.9015 53.1118 42.9952 53.1118Z" fill="url(#paint13_linear_558_1891)"/>
</g>
<path d="M42.3697 53.1121C46.0315 53.1121 49 50.1436 49 46.4818C49 42.82 46.0315 39.8516 42.3697 39.8516H33.0424C29.3806 39.8516 26.4122 42.82 26.4122 46.4818C26.4122 50.1436 29.3806 53.1121 33.0424 53.1121H42.3697Z" fill="#C4C4C4" fill-opacity="0.66"/>
<g filter="url(#filter5_i_558_1891)">
<path d="M49 46.6419V46.3218C49 42.7484 46.1032 39.8516 42.5298 39.8516H32.8823C29.309 39.8516 26.4122 42.7484 26.4122 46.3218V46.6419C26.4122 50.2153 29.309 53.1121 32.8823 53.1121H42.5298C46.1032 53.1121 49 50.2153 49 46.6419Z" fill="url(#paint14_linear_558_1891)"/>
<path d="M49 46.6419V46.3218C49 42.7484 46.1032 39.8516 42.5298 39.8516H32.8823C29.309 39.8516 26.4122 42.7484 26.4122 46.3218V46.6419C26.4122 50.2153 29.309 53.1121 32.8823 53.1121H42.5298C46.1032 53.1121 49 50.2153 49 46.6419Z" fill="url(#paint15_radial_558_1891)"/>
<path d="M49 46.6419V46.3218C49 42.7484 46.1032 39.8516 42.5298 39.8516H32.8823C29.309 39.8516 26.4122 42.7484 26.4122 46.3218V46.6419C26.4122 50.2153 29.309 53.1121 32.8823 53.1121H42.5298C46.1032 53.1121 49 50.2153 49 46.6419Z" fill="url(#paint16_radial_558_1891)"/>
</g>
<g filter="url(#filter6_f_558_1891)">
<path d="M45.1418 44.5078H33.471C32.5647 44.5078 31.8301 45.2425 31.8301 46.1487C31.8301 47.0549 32.5647 47.7896 33.471 47.7896H45.1418C46.048 47.7896 46.7827 47.0549 46.7827 46.1487C46.7827 45.2425 46.048 44.5078 45.1418 44.5078Z" fill="url(#paint17_linear_558_1891)"/>
</g>
<g filter="url(#filter7_i_558_1891)">
<path d="M48.9004 36.4532V36.4243C48.9004 32.8509 46.0036 29.9541 42.4302 29.9541H32.8828C29.3094 29.9541 26.4126 32.8509 26.4126 36.4243V36.4532C26.4126 40.0266 29.3094 42.9234 32.8828 42.9234H42.4302C46.0036 42.9234 48.9004 40.0266 48.9004 36.4532Z" fill="url(#paint18_linear_558_1891)"/>
<path d="M48.9004 36.4532V36.4243C48.9004 32.8509 46.0036 29.9541 42.4302 29.9541H32.8828C29.3094 29.9541 26.4126 32.8509 26.4126 36.4243V36.4532C26.4126 40.0266 29.3094 42.9234 32.8828 42.9234H42.4302C46.0036 42.9234 48.9004 40.0266 48.9004 36.4532Z" fill="url(#paint19_radial_558_1891)"/>
</g>
<path d="M23.6553 0.129395C21.7166 0.129984 19.8575 0.9004 18.4866 2.27128C17.1157 3.64217 16.3453 5.50132 16.3447 7.44004V13.1165L16.3402 13.1142C16.3402 14.3638 16.1668 17.0631 15.273 18.724C14.2391 20.6428 12.2847 21.8145 10.6838 22.7728C10.1947 23.0663 9.7411 23.3376 9.35645 23.6044C11.5688 25.3765 16.0979 28.9184 16.2091 28.8339C18.7837 27.4414 21.3659 26.0628 23.9555 24.6983L23.8488 23.1642C25.7538 23.1137 27.5639 22.3217 28.8936 20.9566C30.2233 19.5916 30.9677 17.7614 30.9682 15.8557V7.44004C30.9676 5.50093 30.1969 3.64145 28.8255 2.2705C27.4542 0.89955 25.5944 0.129394 23.6553 0.129395Z" fill="url(#paint20_radial_558_1891)"/>
<path d="M23.6553 0.129395C21.7166 0.129984 19.8575 0.9004 18.4866 2.27128C17.1157 3.64217 16.3453 5.50132 16.3447 7.44004V13.1165L16.3402 13.1142C16.3402 14.3638 16.1668 17.0631 15.273 18.724C14.2391 20.6428 12.2847 21.8145 10.6838 22.7728C10.1947 23.0663 9.7411 23.3376 9.35645 23.6044C11.5688 25.3765 16.0979 28.9184 16.2091 28.8339C18.7837 27.4414 21.3659 26.0628 23.9555 24.6983L23.8488 23.1642C25.7538 23.1137 27.5639 22.3217 28.8936 20.9566C30.2233 19.5916 30.9677 17.7614 30.9682 15.8557V7.44004C30.9676 5.50093 30.1969 3.64145 28.8255 2.2705C27.4542 0.89955 25.5944 0.129394 23.6553 0.129395Z" fill="url(#paint21_radial_558_1891)"/>
<path d="M19.0297 1.77734C18.1894 2.46248 17.5123 3.32624 17.0477 4.30583C16.5831 5.28542 16.3426 6.35624 16.3438 7.44043V7.86732H19.6478C19.6615 7.01246 19.5975 6.15811 19.4566 5.31482L19.4188 5.11249C19.2364 4.11639 19.0274 2.978 19.0297 1.77734Z" fill="#FFBF71"/>
<path d="M19.0297 1.77734C18.1894 2.46248 17.5123 3.32624 17.0477 4.30583C16.5831 5.28542 16.3426 6.35624 16.3438 7.44043V7.86732H19.6478C19.6615 7.01246 19.5975 6.15811 19.4566 5.31482L19.4188 5.11249C19.2364 4.11639 19.0274 2.978 19.0297 1.77734Z" fill="url(#paint22_radial_558_1891)"/>
<g filter="url(#filter8_f_558_1891)">
<path d="M41.84 21.5947H33.7912C32.2464 21.5947 30.9941 22.847 30.9941 24.3918C30.9941 25.9366 32.2464 27.1889 33.7912 27.1889H41.84C43.3848 27.1889 44.6371 25.9366 44.6371 24.3918C44.6371 22.847 43.3848 21.5947 41.84 21.5947Z" fill="url(#paint23_linear_558_1891)"/>
</g>
<g filter="url(#filter9_f_558_1891)">
<path d="M43.9843 31.5469H33.632C32.0873 31.5469 30.835 32.7992 30.835 34.344C30.835 35.8887 32.0873 37.141 33.632 37.141H43.9843C45.5291 37.141 46.7814 35.8887 46.7814 34.344C46.7814 32.7992 45.5291 31.5469 43.9843 31.5469Z" fill="url(#paint24_linear_558_1891)"/>
</g>
<g filter="url(#filter10_f_558_1891)">
<path d="M29.124 6.07729C29.124 4.31761 27.698 2.89111 25.939 2.89111C24.1799 2.89111 22.7539 4.31761 22.7539 6.07729V17.4857C22.7539 19.2454 24.1799 20.6719 25.939 20.6719C27.698 20.6719 29.124 19.2454 29.124 17.4857V6.07729Z" fill="url(#paint25_linear_558_1891)"/>
</g>
<defs>
<filter id="filter0_i_558_1891" x="0" y="0" width="41.7383" height="61.9609" filterUnits="userSpaceOnUse" color-interpolation-filters="sRGB">
<feFlood flood-opacity="0" result="BackgroundImageFix"/>
<feBlend mode="normal" in="SourceGraphic" in2="BackgroundImageFix" result="shape"/>
<feColorMatrix in="SourceAlpha" type="matrix" values="0 0 0 0 0 0 0 0 0 0 0 0 0 0 0 0 0 0 127 0" result="hardAlpha"/>
<feOffset dx="0.5"/>
<feGaussianBlur stdDeviation="1"/>
<feComposite in2="hardAlpha" operator="arithmetic" k2="-1" k3="1"/>
<feColorMatrix type="matrix" values="0 0 0 0 0.847059 0 0 0 0 0.458824 0 0 0 0 0.360784 0 0 0 1 0"/>
<feBlend mode="normal" in2="shape" result="effect1_innerShadow_558_1891"/>
</filter>
<filter id="filter1_f_558_1891" x="21.8525" y="21.002" width="23.8096" height="40.9424" filterUnits="userSpaceOnUse" color-interpolation-filters="sRGB">
<feFlood flood-opacity="0" result="BackgroundImageFix"/>
<feBlend mode="normal" in="SourceGraphic" in2="BackgroundImageFix" result="shape"/>
<feGaussianBlur stdDeviation="1" result="effect1_foregroundBlur_558_1891"/>
</filter>
<filter id="filter2_i_558_1891" x="26.6748" y="19.8296" width="20.6064" height="12.9404" filterUnits="userSpaceOnUse" color-interpolation-filters="sRGB">
<feFlood flood-opacity="0" result="BackgroundImageFix"/>
<feBlend mode="normal" in="SourceGraphic" in2="BackgroundImageFix" result="shape"/>
<feColorMatrix in="SourceAlpha" type="matrix" values="0 0 0 0 0 0 0 0 0 0 0 0 0 0 0 0 0 0 127 0" result="hardAlpha"/>
<feOffset dx="0.5"/>
<feGaussianBlur stdDeviation="0.75"/>
<feComposite in2="hardAlpha" operator="arithmetic" k2="-1" k3="1"/>
<feColorMatrix type="matrix" values="0 0 0 0 0.878431 0 0 0 0 0.541176 0 0 0 0 0.0627451 0 0 0 1 0"/>
<feBlend mode="normal" in2="shape" result="effect1_innerShadow_558_1891"/>
</filter>
<filter id="filter3_i_558_1891" x="26.4121" y="48.8672" width="20.2021" height="13.0938" filterUnits="userSpaceOnUse" color-interpolation-filters="sRGB">
<feFlood flood-opacity="0" result="BackgroundImageFix"/>
<feBlend mode="normal" in="SourceGraphic" in2="BackgroundImageFix" result="shape"/>
<feColorMatrix in="SourceAlpha" type="matrix" values="0 0 0 0 0 0 0 0 0 0 0 0 0 0 0 0 0 0 127 0" result="hardAlpha"/>
<feOffset dx="0.5" dy="-0.5"/>
<feGaussianBlur stdDeviation="0.75"/>
<feComposite in2="hardAlpha" operator="arithmetic" k2="-1" k3="1"/>
<feColorMatrix type="matrix" values="0 0 0 0 0.941176 0 0 0 0 0.643137 0 0 0 0 0.215686 0 0 0 1 0"/>
<feBlend mode="normal" in2="shape" result="effect1_innerShadow_558_1891"/>
</filter>
<filter id="filter4_f_558_1891" x="31.4463" y="51.8618" width="14.4395" height="5.78174" filterUnits="userSpaceOnUse" color-interpolation-filters="sRGB">
<feFlood flood-opacity="0" result="BackgroundImageFix"/>
<feBlend mode="normal" in="SourceGraphic" in2="BackgroundImageFix" result="shape"/>
<feGaussianBlur stdDeviation="0.625" result="effect1_foregroundBlur_558_1891"/>
</filter>
<filter id="filter5_i_558_1891" x="26.4121" y="39.3516" width="23.0879" height="13.7607" filterUnits="userSpaceOnUse" color-interpolation-filters="sRGB">
<feFlood flood-opacity="0" result="BackgroundImageFix"/>
<feBlend mode="normal" in="SourceGraphic" in2="BackgroundImageFix" result="shape"/>
<feColorMatrix in="SourceAlpha" type="matrix" values="0 0 0 0 0 0 0 0 0 0 0 0 0 0 0 0 0 0 127 0" result="hardAlpha"/>
<feOffset dx="0.5" dy="-0.5"/>
<feGaussianBlur stdDeviation="0.75"/>
<feComposite in2="hardAlpha" operator="arithmetic" k2="-1" k3="1"/>
<feColorMatrix type="matrix" values="0 0 0 0 0.941176 0 0 0 0 0.643137 0 0 0 0 0.215686 0 0 0 1 0"/>
<feBlend mode="normal" in2="shape" result="effect1_innerShadow_558_1891"/>
</filter>
<filter id="filter6_f_558_1891" x="30.5801" y="43.2578" width="17.4521" height="5.78174" filterUnits="userSpaceOnUse" color-interpolation-filters="sRGB">
<feFlood flood-opacity="0" result="BackgroundImageFix"/>
<feBlend mode="normal" in="SourceGraphic" in2="BackgroundImageFix" result="shape"/>
<feGaussianBlur stdDeviation="0.625" result="effect1_foregroundBlur_558_1891"/>
</filter>
<filter id="filter7_i_558_1891" x="26.4121" y="29.4541" width="22.9883" height="13.4692" filterUnits="userSpaceOnUse" color-interpolation-filters="sRGB">
<feFlood flood-opacity="0" result="BackgroundImageFix"/>
<feBlend mode="normal" in="SourceGraphic" in2="BackgroundImageFix" result="shape"/>
<feColorMatrix in="SourceAlpha" type="matrix" values="0 0 0 0 0 0 0 0 0 0 0 0 0 0 0 0 0 0 127 0" result="hardAlpha"/>
<feOffset dx="0.5" dy="-0.5"/>
<feGaussianBlur stdDeviation="0.75"/>
<feComposite in2="hardAlpha" operator="arithmetic" k2="-1" k3="1"/>
<feColorMatrix type="matrix" values="0 0 0 0 0.941176 0 0 0 0 0.643137 0 0 0 0 0.215686 0 0 0 1 0"/>
<feBlend mode="normal" in2="shape" result="effect1_innerShadow_558_1891"/>
</filter>
<filter id="filter8_f_558_1891" x="29.7441" y="20.3447" width="16.1426" height="8.09424" filterUnits="userSpaceOnUse" color-interpolation-filters="sRGB">
<feFlood flood-opacity="0" result="BackgroundImageFix"/>
<feBlend mode="normal" in="SourceGraphic" in2="BackgroundImageFix" result="shape"/>
<feGaussianBlur stdDeviation="0.625" result="effect1_foregroundBlur_558_1891"/>
</filter>
<filter id="filter9_f_558_1891" x="29.585" y="30.2969" width="18.4463" height="8.09424" filterUnits="userSpaceOnUse" color-interpolation-filters="sRGB">
<feFlood flood-opacity="0" result="BackgroundImageFix"/>
<feBlend mode="normal" in="SourceGraphic" in2="BackgroundImageFix" result="shape"/>
<feGaussianBlur stdDeviation="0.625" result="effect1_foregroundBlur_558_1891"/>
</filter>
<filter id="filter10_f_558_1891" x="21.5039" y="1.64111" width="8.87012" height="20.2808" filterUnits="userSpaceOnUse" color-interpolation-filters="sRGB">
<feFlood flood-opacity="0" result="BackgroundImageFix"/>
<feBlend mode="normal" in="SourceGraphic" in2="BackgroundImageFix" result="shape"/>
<feGaussianBlur stdDeviation="0.625" result="effect1_foregroundBlur_558_1891"/>
</filter>
<linearGradient id="paint0_linear_558_1891" x1="31.8773" y1="10.7333" x2="9.50295" y2="57.8434" gradientUnits="userSpaceOnUse">
<stop stop-color="#FFCA44"/>
<stop offset="1" stop-color="#F8A528"/>
</linearGradient>
<radialGradient id="paint1_radial_558_1891" cx="0" cy="0" r="1" gradientUnits="userSpaceOnUse" gradientTransform="translate(34.5148 6.7445) rotate(141.116) scale(11.1519 32.9144)">
<stop stop-color="#FFE34C"/>
<stop offset="1" stop-color="#FFE34C" stop-opacity="0"/>
</radialGradient>
<radialGradient id="paint2_radial_558_1891" cx="0" cy="0" r="1" gradientUnits="userSpaceOnUse" gradientTransform="translate(14.2113 31.0467) rotate(125.191) scale(16.5206 11.9678)">
<stop stop-color="#FFCA2E"/>
<stop offset="1" stop-color="#FFCA2E" stop-opacity="0"/>
</radialGradient>
<radialGradient id="paint3_radial_558_1891" cx="0" cy="0" r="1" gradientUnits="userSpaceOnUse" gradientTransform="translate(32.1353 36.285) rotate(146.743) scale(35.9989 62.9994)">
<stop offset="0.681" stop-color="#E18E3F" stop-opacity="0"/>
<stop offset="1" stop-color="#E18E3F"/>
</radialGradient>
<linearGradient id="paint4_linear_558_1891" x1="20.6179" y1="52.8073" x2="20.6179" y2="64.149" gradientUnits="userSpaceOnUse">
<stop stop-color="#D8796F" stop-opacity="0"/>
<stop offset="1" stop-color="#D8796F"/>
</linearGradient>
<linearGradient id="paint5_linear_558_1891" x1="33.7591" y1="23.002" x2="33.7591" y2="52.5469" gradientUnits="userSpaceOnUse">
<stop stop-color="#D1730B"/>
<stop offset="1" stop-color="#E27D47"/>
</linearGradient>
<linearGradient id="paint6_linear_558_1891" x1="46.7812" y1="26.2998" x2="26.6725" y2="26.2998" gradientUnits="userSpaceOnUse">
<stop stop-color="#FFDB44"/>
<stop offset="1" stop-color="#F9A928"/>
</linearGradient>
<radialGradient id="paint7_radial_558_1891" cx="0" cy="0" r="1" gradientUnits="userSpaceOnUse" gradientTransform="translate(29.9432 32.0362) rotate(-142.633) scale(5.16082 3.45449)">
<stop stop-color="#D98320"/>
<stop offset="1" stop-color="#D98320" stop-opacity="0"/>
</radialGradient>
<linearGradient id="paint8_linear_558_1891" x1="44.3889" y1="55.6617" x2="26.4124" y2="55.6617" gradientUnits="userSpaceOnUse">
<stop stop-color="#FFDB44"/>
<stop offset="1" stop-color="#F9A928"/>
</linearGradient>
<radialGradient id="paint9_radial_558_1891" cx="0" cy="0" r="1" gradientUnits="userSpaceOnUse" gradientTransform="translate(30.4035 61.9585) scale(16.261 6.18608)">
<stop stop-color="#F29545"/>
<stop offset="1" stop-color="#F29545" stop-opacity="0"/>
</radialGradient>
<radialGradient id="paint10_radial_558_1891" cx="0" cy="0" r="1" gradientUnits="userSpaceOnUse" gradientTransform="translate(29.6231 51.5751) scale(16.491 4.42676)">
<stop stop-color="#DA810B"/>
<stop offset="1" stop-color="#FFB610" stop-opacity="0"/>
</radialGradient>
<linearGradient id="paint11_linear_558_1891" x1="36.2622" y1="63.257" x2="36.2622" y2="59.1836" gradientUnits="userSpaceOnUse">
<stop stop-color="#DC7C6A"/>
<stop offset="1" stop-color="#DC7C6A" stop-opacity="0"/>
</linearGradient>
<radialGradient id="paint12_radial_558_1891" cx="0" cy="0" r="1" gradientUnits="userSpaceOnUse" gradientTransform="translate(23.8043 55.6617) scale(12.4584 18.7273)">
<stop stop-color="#E38811"/>
<stop offset="1" stop-color="#E38811" stop-opacity="0"/>
</radialGradient>
<linearGradient id="paint13_linear_558_1891" x1="44.0158" y1="54.0101" x2="31.1443" y2="54.0101" gradientUnits="userSpaceOnUse">
<stop stop-color="#FFF166"/>
<stop offset="1" stop-color="#FFF166" stop-opacity="0"/>
</linearGradient>
<linearGradient id="paint14_linear_558_1891" x1="47.0211" y1="46.4818" x2="26.4122" y2="46.4818" gradientUnits="userSpaceOnUse">
<stop stop-color="#FFDB44"/>
<stop offset="1" stop-color="#F9A928"/>
</linearGradient>
<radialGradient id="paint15_radial_558_1891" cx="0" cy="0" r="1" gradientUnits="userSpaceOnUse" gradientTransform="translate(30.988 53.1121) scale(18.6439 6.51392)">
<stop stop-color="#F29545"/>
<stop offset="1" stop-color="#F29545" stop-opacity="0"/>
</radialGradient>
<radialGradient id="paint16_radial_558_1891" cx="0" cy="0" r="1" gradientUnits="userSpaceOnUse" gradientTransform="translate(30.0919 42.1795) scale(18.9075 4.66138)">
<stop stop-color="#DA810B"/>
<stop offset="1" stop-color="#FFB610" stop-opacity="0"/>
</radialGradient>
<linearGradient id="paint17_linear_558_1891" x1="46.0045" y1="45.4061" x2="29.889" y2="45.4061" gradientUnits="userSpaceOnUse">
<stop stop-color="#FFF166"/>
<stop offset="1" stop-color="#FFF166" stop-opacity="0"/>
</linearGradient>
<linearGradient id="paint18_linear_558_1891" x1="48.9004" y1="36.4399" x2="26.4148" y2="36.4399" gradientUnits="userSpaceOnUse">
<stop stop-color="#FFDB44"/>
<stop offset="1" stop-color="#F9A928"/>
</linearGradient>
<radialGradient id="paint19_radial_558_1891" cx="0" cy="0" r="1" gradientUnits="userSpaceOnUse" gradientTransform="translate(31.064 41.3559) scale(12.2304 5.44401)">
<stop stop-color="#F29545"/>
<stop offset="1" stop-color="#F29545" stop-opacity="0"/>
</radialGradient>
<radialGradient id="paint20_radial_558_1891" cx="0" cy="0" r="1" gradientUnits="userSpaceOnUse" gradientTransform="translate(16.9428 6.74188) rotate(90) scale(14.1413 5.25048)">
<stop stop-color="#F3A52A"/>
<stop offset="1" stop-color="#F3A52A" stop-opacity="0"/>
</radialGradient>
<radialGradient id="paint21_radial_558_1891" cx="0" cy="0" r="1" gradientUnits="userSpaceOnUse" gradientTransform="translate(12.8139 16.0536) rotate(42.9975) scale(7.08313 10.718)">
<stop stop-color="#CDA25E"/>
<stop offset="1" stop-color="#CDA25E" stop-opacity="0"/>
</radialGradient>
<radialGradient id="paint22_radial_558_1891" cx="0" cy="0" r="1" gradientUnits="userSpaceOnUse" gradientTransform="translate(20.1649 5.86823) rotate(-168.366) scale(3.64523 7.95653)">
<stop offset="0.55" stop-color="#CCB28B" stop-opacity="0"/>
<stop offset="1" stop-color="#CCB28B"/>
</radialGradient>
<linearGradient id="paint23_linear_558_1891" x1="43.9278" y1="23.1289" x2="29.2221" y2="23.1289" gradientUnits="userSpaceOnUse">
<stop stop-color="#FFF166"/>
<stop offset="1" stop-color="#FFF166" stop-opacity="0"/>
</linearGradient>
<linearGradient id="paint24_linear_558_1891" x1="45.9521" y1="33.081" x2="28.7627" y2="33.081" gradientUnits="userSpaceOnUse">
<stop stop-color="#FFF166"/>
<stop offset="1" stop-color="#FFF166" stop-opacity="0"/>
</linearGradient>
<linearGradient id="paint25_linear_558_1891" x1="28.795" y1="7.7671" x2="21.9268" y2="7.7671" gradientUnits="userSpaceOnUse">
<stop stop-color="#FFF166"/>
<stop offset="1" stop-color="#FFF166" stop-opacity="0"/>
</linearGradient>
</defs>
</svg>
