<svg width="14" height="14" viewBox="0 0 14 14" fill="none" xmlns="http://www.w3.org/2000/svg">
<path d="M7.24178 0.074707C3.50635 0.074707 0.477539 3.10351 0.477539 6.83894C0.477539 10.5744 3.50635 13.6032 7.24178 13.6032C10.9772 13.6032 14.006 10.5744 14.006 6.83894C14.006 3.10351 10.9772 0.074707 7.24178 0.074707ZM7.24178 12.4557C4.14049 12.4557 1.62504 9.94022 1.62504 6.83894C1.62504 3.73766 4.14049 1.22221 7.24178 1.22221C10.3431 1.22221 12.8585 3.73766 12.8585 6.83894C12.8585 9.94022 10.3431 12.4557 7.24178 12.4557Z" fill="#001B33"/>
<path d="M9.8797 8.75035L7.72662 7.19367V3.45673C7.72662 3.39029 7.67226 3.33594 7.60583 3.33594H6.87958C6.81314 3.33594 6.75879 3.39029 6.75879 3.45673V7.61492C6.75879 7.65418 6.77691 7.69042 6.80861 7.71306L9.30595 9.53397C9.3603 9.57323 9.4358 9.56115 9.47505 9.5083L9.90688 8.91945C9.94613 8.86359 9.93405 8.78809 9.8797 8.75035V8.75035Z" fill="#001B33"/>
</svg>
